<?xml version="1.0" encoding="utf-8"?>
<!-- Generator: Adobe Illustrator 16.2.0, SVG Export Plug-In . SVG Version: 6.00 Build 0)  -->
<!DOCTYPE svg PUBLIC "-//W3C//DTD SVG 1.1//EN" "http://www.w3.org/Graphics/SVG/1.1/DTD/svg11.dtd">
<svg version="1.1" id="Layer_1" xmlns="http://www.w3.org/2000/svg" xmlns:xlink="http://www.w3.org/1999/xlink" x="0px" y="0px"
	 width="173px" height="156px" viewBox="0 0 173 156" enable-background="new 0 0 173 156" xml:space="preserve">
<g>
	<circle fill="none" stroke="#000000" stroke-miterlimit="10" cx="86.512" cy="51.88" r="6.374"/>
	<path d="M89.062,51.88c0,1.408-1.142,2.55-2.55,2.55c-1.407,0-2.549-1.143-2.549-2.55c0-1.407,1.142-2.549,2.549-2.549
		C87.919,49.332,89.062,50.473,89.062,51.88"/>
	<circle fill="none" stroke="#000000" stroke-miterlimit="10" cx="45.402" cy="54.749" r="13.703"/>
	<path fill="none" stroke="#000000" stroke-miterlimit="10" d="M104.358,53.473c0,7.567-6.135,13.704-13.703,13.704
		c-7.569,0-13.704-6.136-13.704-13.704c0-7.565,6.135-13.703,13.704-13.703C98.223,39.771,104.358,45.908,104.358,53.473z"/>
	<path fill="none" stroke="#000000" stroke-miterlimit="10" d="M57.193,53.473c0,3.697-2.997,6.692-6.692,6.692
		c-3.697,0-6.693-2.996-6.693-6.692c0-3.693,2.996-6.691,6.693-6.691C54.196,46.782,57.193,49.78,57.193,53.473z"/>
	<path d="M53.369,53.155c0,1.408-1.142,2.55-2.55,2.55c-1.408,0-2.549-1.142-2.549-2.55c0-1.408,1.141-2.549,2.549-2.549
		C52.227,50.606,53.369,51.748,53.369,53.155"/>
	<path fill="none" stroke="#000000" stroke-miterlimit="10" d="M52.094,25.708c0,0-14.659-5.098-24.219,8.925"/>
	<path fill="none" stroke="#000000" stroke-miterlimit="10" d="M80.138,23.797c0,0,14.66-5.099,24.22,8.923"/>
	<path fill="none" stroke="#000000" stroke-miterlimit="10" d="M61.988,70.399c0,0,7.246-7.747,13.51,0.524"/>
	<path fill="none" stroke="#000000" stroke-miterlimit="10" d="M51.585,96.554c0,0,26.566,3.824,32.1,0
		C89.219,92.73,68.189,79.982,51.585,96.554z"/>
	<path fill="none" stroke="#000000" stroke-miterlimit="10" d="M124.116,57.616c0,32.034-24.056,55.451-56.088,55.451
		c-32.032,0-59.912-22.781-59.912-54.813c0-32.033,25.968-57.363,58-57.363C98.148,0.892,124.116,25.585,124.116,57.616z"/>
	<path fill="none" stroke="#000000" stroke-miterlimit="10" d="M39.116,105.892c0,0-36,11-38,50"/>
	<path fill="none" stroke="#000000" stroke-miterlimit="10" d="M96.116,105.892c0,0,36,11,38,50"/>
</g>
</svg>
