<?xml version="1.0" encoding="utf-8"?>
<!-- Generator: Adobe Illustrator 16.2.0, SVG Export Plug-In . SVG Version: 6.00 Build 0)  -->
<!DOCTYPE svg PUBLIC "-//W3C//DTD SVG 1.1//EN" "http://www.w3.org/Graphics/SVG/1.1/DTD/svg11.dtd">
<svg version="1.1" id="Layer_1" xmlns="http://www.w3.org/2000/svg" xmlns:xlink="http://www.w3.org/1999/xlink" x="0px" y="0px"
	 width="173px" height="102px" viewBox="0 0 173 102" enable-background="new 0 0 173 102" xml:space="preserve">
<path fill="none" stroke="#000000" stroke-miterlimit="10" d="M124.293,13.79c4.261,0.902,9.481,1.887,15.725,5.008
	c0,0,31.843,13.761,32.163,36.003c0.321,22.239-21.922,36.321-32.163,39.522c-10.24,3.2-22.55,9.637-62.083,5.121
	c-22.403-2.561-35.843-3.841-37.763-1.921c4.48-4.483,16.001-6.402,38.403-1.92c0,0,46.081,3.841,62.724-5.76
	c16.641-9.602,23.682-11.522,24.321-32.002c0,0,0-32.002-52.484-28.161c-5.119,4.479-8.96,10.88-10.24,14.719
	c0,0,13.441,12.162,14.081,17.281c0.64,5.122-5.12,3.84,1.28,12.8c-2.56,0-5.121-2.559-5.76-6.399c0,0-6.568,10.768-6.568,15.768
	c-3-4-3.033-9.369-3.033-9.369s-5.686,4.448-6.967,6.369c0.64-4.481,3.767-8.287,6.327-9.567c0,0-5.327-0.433-9.327,4.567
	c0-3.84,4.206-7.127,9.967-9.688c3.2-1.28,3.841,0.641,5.76-2.56c1.92-3.201-14.08-14.722-14.08-14.722s-5.121-2.559-0.641-8.96
	l3.841-8.321c0,0,0-1.918-8.321,1.28c-8.32,3.2-23.681,4.479-29.442,3.2c3.84,5.121,5.121,5.762,1.28,10.242
	c-3.839,4.48-7.68,10.24-7.68,10.24s2.56,3.2,7.04,5.119c1.28,0.641,0.64,2.56,0,3.201c-0.64,0.639-4.48-5.12-8.32-3.841
	c-1.281,2.561-1.281,12.802-1.92,14.722c-0.641,1.92-2.561-7.04-1.28-12.161c-0.641-3.201-7.041,6.4-7.681,9.601
	c-3.84,0,1.92-10.242,3.841-11.521c0,0-3.841,0.641-8.961,3.84c-0.641-0.639,4.479-6.399,7.681-6.399
	c3.199-2.56-1.921-3.84-5.121-3.84c0,0,3.2-3.841,8.96-0.641c1.281-2.56,5.121-11.52,7.68-11.52c2.561,0-9.6-12.801-14.721-12.164
	c-4.479,1.922-10.24,8.323-10.24,8.323s0.64,2.562,3.2,3.841c2.561,1.279,0,5.12-0.64,3.201c-0.641-1.921-3.199-4.48-4.48-4.48
	c-1.28,0-7.04,1.919-5.76,8.318c0,1.28-3.201,0-2.561-1.919c0.641-1.919,0-6.399,3.841-7.041c-0.64-0.639-7.041-2.56-12.161,3.2
	c-3.841,2.561-0.64-7.68,9.601-6.399c0,0-7.041-3.201-12.161,0c-2.561,0.639-0.64-1.921,0-2.562c0.64-0.639,9.6-2.56,12.161,0
	c2.56,2.562,1.28-3.84-1.281-4.482c-2.559-0.637,2.561-3.838,3.841,1.922c1.28,5.761,1.28,3.2,1.92,3.2
	c0.64,0,10.881-8.318,10.881-8.318s1.92-5.763-3.841-5.763c-4.214,0-24.588-2.508-24.962-5.12C6.89,7.914,13.29,5.357,13.29,5.357
	c2.562-3.2,11.522-4.479,13.442-2.56c1.92,1.92,7.68-4.481,12.161-0.64c4.48,3.84,4.48-3.201,11.521,4.48
	c5.76,1.276,11.52,1.276,16.001,5.76c0,0,6.317,0.469,11.879,0.415C78.293,12.812,119.293,12.731,124.293,13.79z"/>
<path fill="none" stroke="#000000" stroke-miterlimit="10" d="M103.967,66.161c3.2-1.28,3.841-1.28,5.76-2.561"/>
<polyline fill="none" stroke="#000000" stroke-miterlimit="10" points="0.439,13.038 3,14.318 1.08,16.238 "/>
<line fill="none" stroke="#000000" stroke-miterlimit="10" x1="3" y1="14.318" x2="8" y2="14.956"/>
<ellipse transform="matrix(0.8413 -0.5405 0.5405 0.8413 -1.938 9.8747)" fill="none" stroke="#000000" stroke-miterlimit="10" cx="15.85" cy="8.238" rx="1.28" ry="0.959"/>
<path fill="none" stroke="#000000" stroke-miterlimit="10" d="M91.293,32.848c0.025,1.074-2.028,6.183-2.235,6.905
	c-1.403,4.903-4.837,2.21-3.72,12.171c-1.73-0.67-4.295-3.094-3.353-6.813c0,0-5.934,4.114-7.725,8.737
	c-0.595-4.482,0.694-5.945,0.694-5.945s-5.436,2.623-6.988,4.063c2.037-3.976,5.514-6.676,7.702-7.188c0,0-3.445-1.798-7.94,1.778
	c1.375-3.55,5.397-5.487,10.207-6.346c2.621-0.346,4.358-1.362,6.358-6.362"/>
</svg>
