<?xml version="1.0" encoding="utf-8"?>
<!-- Generator: Adobe Illustrator 16.2.0, SVG Export Plug-In . SVG Version: 6.00 Build 0)  -->
<!DOCTYPE svg PUBLIC "-//W3C//DTD SVG 1.1//EN" "http://www.w3.org/Graphics/SVG/1.1/DTD/svg11.dtd">
<svg version="1.1" id="Layer_1" xmlns="http://www.w3.org/2000/svg" xmlns:xlink="http://www.w3.org/1999/xlink" x="0px" y="0px"
	 width="173px" height="169px" viewBox="0 0 173 169" enable-background="new 0 0 173 169" xml:space="preserve">
<g>
	<path fill="none" stroke="#000000" stroke-miterlimit="10" d="M41.408,7.509c0-5,2-7,7-7c0,0,6-1,4,12s-5,46-5,46s0,6,2,1
		s2-34,2-34"/>
	<path fill="none" stroke="#000000" stroke-miterlimit="10" d="M53.408,11.509c1,0,7-2,9,12s1,39,1,41s1,30,1,30s7-5,7-11
		s6.917-15,13-15c4,0,5,1,4,5c-0.769,3.079-2.13,3.873-3.048,5c-0.557,0.685-0.952,1.489-0.952,3c0,4,0,13-4,20c0,0-4,14-9,17
		s-13,11-17,12s-17,1-23,1s-22-4-22-4s-7-5-8-17s1-25,3-34s4.592-12,4.592-22s4-32,11-32s3,7,3,14s-2.592,21-1.592,25s2-1,2-1
		s2-34,7-48c2-8,6-7,7-7c0.618,0,2.764,0.765,3.84,3c0.666,1.383,0.925,3.326,0.16,6c-2,7-6,44-6,44"/>
	<path fill="none" stroke="#000000" stroke-miterlimit="10" d="M4.408,122.509c0,0-6,22-4,29s11,16,21,16s19-6,21-11s5-25,5-25"/>
	<path fill="none" stroke="#000000" stroke-miterlimit="10" d="M129,167.509c0-3-2-38-7-48s-16-27-23-35l-3-1c0,0,1-4,3-5
		s14-14,11-27s-2.951-28.142-7-33c-5-6-10-11-18-10c0,0-13.369,0.607-24,9.403"/>
</g>
</svg>
