<?xml version="1.0" encoding="utf-8"?>
<!-- Generator: Adobe Illustrator 24.2.0, SVG Export Plug-In . SVG Version: 6.00 Build 0)  -->
<svg version="1.1" id="Layer_1" xmlns="http://www.w3.org/2000/svg" xmlns:xlink="http://www.w3.org/1999/xlink" x="0px" y="0px"
	 viewBox="0 0 173 156" style="enable-background:new 0 0 173 156;" xml:space="preserve">
<style type="text/css">
	.st0{fill:none;stroke:#000000;stroke-miterlimit:10;}
	.st1{fill:none;stroke:#000000;stroke-linecap:round;stroke-linejoin:round;stroke-miterlimit:10;}
</style>
<g>
	<circle class="st0" cx="3025.6" cy="-21.8" r="6.4"/>
	<path d="M3028.1-21.8c0,1.4-1.1,2.5-2.6,2.5c-1.4,0-2.5-1.1-2.5-2.5c0-1.4,1.1-2.5,2.5-2.5C3027-24.3,3028.1-23.2,3028.1-21.8"/>
	<circle class="st0" cx="2984.5" cy="-18.9" r="13.7"/>
	<path class="st0" d="M3043.4-20.2c0,7.6-6.1,13.7-13.7,13.7c-7.6,0-13.7-6.1-13.7-13.7c0-7.6,6.1-13.7,13.7-13.7
		C3037.3-33.9,3043.4-27.8,3043.4-20.2z"/>
	<path class="st0" d="M2996.3-20.2c0,3.7-3,6.7-6.7,6.7c-3.7,0-6.7-3-6.7-6.7c0-3.7,3-6.7,6.7-6.7
		C2993.3-26.9,2996.3-23.9,2996.3-20.2z"/>
	<path d="M2992.5-20.5c0,1.4-1.1,2.5-2.5,2.5c-1.4,0-2.5-1.1-2.5-2.5s1.1-2.5,2.5-2.5C2991.3-23.1,2992.5-21.9,2992.5-20.5"/>
	<path class="st0" d="M2991.2-48c0,0-14.7-5.1-24.2,8.9"/>
	<path class="st0" d="M3019.2-49.9c0,0,14.7-5.1,24.2,8.9"/>
	<path class="st0" d="M3001.1-3.3c0,0,7.2-7.7,13.5,0.5"/>
	<path class="st0" d="M2990.7,22.9c0,0,26.6,3.8,32.1,0C3028.3,19.1,3007.3,6.3,2990.7,22.9z"/>
	<path class="st0" d="M3063.2-16c0,32-24.1,55.5-56.1,55.5s-59.9-22.8-59.9-54.8c0-32,26-57.4,58-57.4
		C3037.2-72.8,3063.2-48.1,3063.2-16z"/>
	<path class="st0" d="M2978.2,32.2c0,0-36,11-38,50"/>
	<path class="st0" d="M3035.2,32.2c0,0,36,11,38,50"/>
</g>
<g>
	<circle class="st0" cx="313.5" cy="1194.8" r="6.4"/>
	<path d="M316.1,1194.8c0,1.4-1.1,2.5-2.6,2.5c-1.4,0-2.5-1.1-2.5-2.5s1.1-2.5,2.5-2.5C314.9,1192.2,316.1,1193.4,316.1,1194.8"/>
	<circle class="st0" cx="272.4" cy="1197.6" r="13.7"/>
	<path class="st0" d="M331.4,1196.4c0,7.6-6.1,13.7-13.7,13.7c-7.6,0-13.7-6.1-13.7-13.7c0-7.6,6.1-13.7,13.7-13.7
		C325.2,1182.7,331.4,1188.8,331.4,1196.4z"/>
	<path class="st0" d="M284.2,1196.4c0,3.7-3,6.7-6.7,6.7c-3.7,0-6.7-3-6.7-6.7c0-3.7,3-6.7,6.7-6.7
		C281.2,1189.7,284.2,1192.7,284.2,1196.4z"/>
	<path d="M280.4,1196c0,1.4-1.1,2.6-2.5,2.6s-2.5-1.1-2.5-2.6c0-1.4,1.1-2.5,2.5-2.5S280.4,1194.6,280.4,1196"/>
	<path class="st0" d="M279.1,1168.6c0,0-14.7-5.1-24.2,8.9"/>
	<path class="st0" d="M307.1,1166.7c0,0,14.7-5.1,24.2,8.9"/>
	<path class="st0" d="M289,1213.3c0,0,7.2-7.7,13.5,0.5"/>
	<path class="st0" d="M278.6,1239.4c0,0,26.6,3.8,32.1,0S295.2,1222.9,278.6,1239.4z"/>
	<path class="st0" d="M351.1,1200.5c0,32-24.1,55.5-56.1,55.5s-59.9-22.8-59.9-54.8c0-32,26-57.4,58-57.4
		C325.1,1143.8,351.1,1168.5,351.1,1200.5z"/>
	<path class="st0" d="M266.1,1248.8c0,0-36,11-38,50"/>
	<path class="st0" d="M323.1,1248.8c0,0,36,11,38,50"/>
</g>
<g>
	<circle class="st0" cx="-125.5" cy="1194.8" r="6.4"/>
	<path d="M-122.9,1194.8c0,1.4-1.1,2.5-2.6,2.5c-1.4,0-2.5-1.1-2.5-2.5s1.1-2.5,2.5-2.5C-124.1,1192.2-122.9,1193.4-122.9,1194.8"/>
	<circle class="st0" cx="-166.6" cy="1197.6" r="13.7"/>
	<path class="st0" d="M-107.6,1196.4c0,7.6-6.1,13.7-13.7,13.7c-7.6,0-13.7-6.1-13.7-13.7c0-7.6,6.1-13.7,13.7-13.7
		C-113.8,1182.7-107.6,1188.8-107.6,1196.4z"/>
	<path class="st0" d="M-154.8,1196.4c0,3.7-3,6.7-6.7,6.7c-3.7,0-6.7-3-6.7-6.7c0-3.7,3-6.7,6.7-6.7
		C-157.8,1189.7-154.8,1192.7-154.8,1196.4z"/>
	<path d="M-158.6,1196c0,1.4-1.1,2.6-2.5,2.6c-1.4,0-2.5-1.1-2.5-2.6c0-1.4,1.1-2.5,2.5-2.5C-159.8,1193.5-158.6,1194.6-158.6,1196"
		/>
	<path class="st0" d="M-159.9,1168.6c0,0-14.7-5.1-24.2,8.9"/>
	<path class="st0" d="M-131.8,1166.7c0,0,14.7-5.1,24.2,8.9"/>
	<path class="st0" d="M-150,1213.3c0,0,7.2-7.7,13.5,0.5"/>
	<path class="st0" d="M-160.4,1239.4c0,0,26.6,3.8,32.1,0S-143.8,1222.9-160.4,1239.4z"/>
	<path class="st0" d="M-87.9,1200.5c0,32-24.1,55.5-56.1,55.5s-59.9-22.8-59.9-54.8c0-32,26-57.4,58-57.4
		C-113.8,1143.8-87.9,1168.5-87.9,1200.5z"/>
	<path class="st0" d="M-172.9,1248.8c0,0-36,11-38,50"/>
	<path class="st0" d="M-115.9,1248.8c0,0,36,11,38,50"/>
</g>
<image style="overflow:visible;" width="1118" height="666" xlink:href="1F9F91E5.jpg"  transform="matrix(0.7499 0 0 0.7499 -246.1976 209.5052)">
</image>
<image style="overflow:visible;" width="1130" height="646" xlink:href="1F9F91E7.jpg"  transform="matrix(0.7499 0 0 0.7499 592.1976 194.5589)">
</image>
<image style="overflow:visible;" width="1168" height="548" xlink:href="1F9F91E2.jpg"  transform="matrix(0.7499 0 0 0.7499 1439.5917 203.5052)">
</image>
<image style="overflow:visible;" width="1208" height="650" xlink:href="1F9F91E3.jpg"  transform="matrix(0.7499 0 0 0.7499 2321.1677 189.948)">
</image>
<g>
	
		<image style="overflow:visible;" width="361" height="408" xlink:href="1F9F91ED.jpg"  transform="matrix(-7.586458e-04 0.2527 -0.2527 -7.586458e-04 98.9381 1427.6504)">
	</image>
	<g>
		<defs>
			<path id="SVGID_1_" d="M166.2,1530.1l-52-43.7c0,0,4.4-10.3,3.9-10.7s-19.4-18-19.4-18l-3.4-6.1l26.4-17c0,0,14.3,0.2,15.6,2
				c1.3,1.7,3.4,5.1,3.4,5.1l-1.6,25.6l17,12.9l31.2-17.1c0,0,28.4,14.9,28.5,15.7c0.1,0.7-34.6,56.7-34.6,56.7L166.2,1530.1z"/>
		</defs>
		<clipPath id="SVGID_2_">
			<use xlink:href="#SVGID_1_"  style="overflow:visible;"/>
		</clipPath>
		<g transform="matrix(1 -2.980232e-08 2.980232e-08 1 4.577637e-05 0)" style="clip-path:url(#SVGID_2_);">
			
				<image style="overflow:visible;" width="255" height="427" xlink:href="1F9F91EF.jpg"  transform="matrix(0.2825 -0.2132 0.2132 0.2825 64.4341 1451.6027)">
			</image>
		</g>
	</g>
</g>
<g>
	<g>
		<path class="st1" d="M2804.4,99c1.5-3.6,7.2-16.5,11.3-19.2c4.6-0.7,6.2-2.5,8.4-9.4c-7.4,0.7-10.1,7.9-10.1,7.9l-5.1,7.5
			c0,0-5.1,8.8-5.9,10.1c-0.5,0.8-1.1,2.2-1.5,3.1"/>
		<path class="st1" d="M2804.6,93.5c0.4-2.6,2.8-9,2.8-9s-0.7-1.3,0-3.6c0.7-2.3,4.2-5.5,4.2-5.5s0.7,3.5-0.3,7"/>
		<path class="st1" d="M2814.7,74c0,0-9.1,1.6-3.4-15.3C2814.1,61.7,2821.3,71.8,2814.7,74z"/>
		<path class="st1" d="M2818,69.3c0,0,8.5,4.4,15.9-10.7C2830.1,61.3,2814.9,62.9,2818,69.3z"/>
		<path class="st1" d="M2822.4,60.4c0,0,5.5,2.1,8.8-1.1c3.9-3.8,5.1-5.9,9.3-9.6C2832.6,46.6,2819.3,54,2822.4,60.4z"/>
		<path class="st1" d="M2812.6,80.5c0-3.5,0.3-6.5,0.3-6.5"/>
		<path class="st1" d="M2816.8,46c0,0-0.1,4.7-1.9,8.3c-1.9,3.6-1.7,10.3,3,10.2s3.9-5.4,3.8-9S2818.2,47,2816.8,46z"/>
		<path class="st1" d="M2824.3,53.7c0,0-2.9,1.3-3.5-1.6c-0.6-2.9-1.8-3.4,0.7-9c2.4-5.6,3.8-11,3.8-11s3.2,6,2.7,12.3
			c-0.4,6.3-0.5,7-0.5,7"/>
		<path class="st1" d="M2847.1,36.5l-2.9-0.2c0,0-13,1.8-15.6,7.5c-2.6,5.7,4.3,5.5,4.3,5.5S2840.4,47,2847.1,36.5z"/>
		<path class="st1" d="M2829.8,41.9c-6.7-9.2,3.1-19.8,3.1-19.8s0.1,3.9,2.7,7.7c1.4,5.2,0,8.8,0,8.8"/>
		<path class="st1" d="M2844.4,36.3c0,0,7.1-8.6,10.5-10.5c0,0-15.5,2.7-19,5"/>
		<path class="st1" d="M2834,26.9c0,0,0.1-0.9,0.8-4.1c0.6-3.2,5.6-12,5.6-12s3.5,6.5,2,13.1c-0.4,2.8-0.7,4.8-0.7,4.8"/>
		<path class="st1" d="M2842.9,18.8c0,0,0.5,1.1,2,1.1c1.5,0,3.8-1,4.4-2.6s-0.1-13.4,0.7-15.9c-7,7.1-8.3,10.9-8.5,12.3"/>
		<path class="st1" d="M2861.5,16.5c0,0-9.8-0.4-12.5,1.4"/>
		<path class="st1" d="M2845.1,19.9c0,0-1.6,0.9-2.3,2.3"/>
		<path class="st1" d="M2842.3,25.2c0,0,1.2,2.1,3.2,2.4"/>
		<path class="st1" d="M2861.4,16.5c0,0-8,8-11.9,10.3"/>
		<path class="st1" d="M2864.9,14.4"/>
		<path class="st1" d="M2851,10.2c0,0,4,1.2,5.8-3.5c1.8-4.7,1.7-11,3.7-13.4c-3,1.1-8.8,6.7-10,10.1
			C2849.5,6.1,2850,10.1,2851,10.2z"/>
		<path class="st1" d="M2849.6,15c0,0-1-3.2,5.7-5.3s8.1-0.6,11.9-3.8c-4.2,6.6-6,9-9.7,10.7"/>
		<path class="st1" d="M2858,2c0,0,0.2-9.7,19.1-12.3c-6,4.4-9.1,8.8-9.1,8.8"/>
		<path class="st1" d="M2857.7,4.7c0,0,1.3-5.1,16.7-7.3c0,0-8.3,9.2-10,10"/>
	</g>
	<g>
		<path class="st1" d="M2793.5,98.4c0,0,0.9-9.3,0-15.4s-1.4-4.8-0.3-10.2c1.9,0.8,4.6,6.3,2.8,10.8"/>
		<line class="st1" x1="2796.8" y1="98.9" x2="2799.2" y2="75.8"/>
		<path class="st1" d="M2803.3,60.9c0,0,2,4.9-0.2,9.6s-5,5.7-5,5.7s-2-7.1-0.9-9.8C2798.2,63.7,2803.3,60.9,2803.3,60.9z"/>
		<path class="st1" d="M2795.8,69.2c0,0-4.2,0.3-7.7-3.2c-3.5-3.5-4.5-10.8-4.5-10.8s4.8,0.7,7.8,3
			C2794.4,60.4,2799.9,63.7,2795.8,69.2z"/>
		<path class="st1" d="M2803.6,47.9c0,0,1.7,13.9-5.3,14C2789.5,57.8,2803.6,47.9,2803.6,47.9z"/>
		<path class="st1" d="M2795.4,51.3c0,0-1-3.7,7-9.3c0.6,1.6-0.3,7.1-0.3,7.1"/>
		<path class="st1" d="M2794.2,57c0,0,6.6-5.4-5.6-9.2c0,0-1.3,5.5,0.1,7.7C2790.1,57.8,2794.2,57,2794.2,57z"/>
		<path class="st1" d="M2792.7,49.4c0,0,0-2.7-16.1-10.9c4.2,7.2,9,16.9,9,16.9"/>
		<path class="st1" d="M2792.7,48.9c0,0,10.3-2.4,5-17.6c-0.3-2-0.5-5.9-0.5-5.9s-2.8,2.7-3.5,4.5"/>
		<path class="st1" d="M2785,31c0.6,1.4,1.6,2.9,3.4,4.4c0,0,8,2.7,4.4-15.5c-2.2-0.4-6.4,2.4-7.8,6.2"/>
		<path class="st1" d="M2763.7,17.5c-0.2-0.4,22,2,21.7,10.4c-0.3,8.4-9.7,1.7-9.7,1.7S2766.2,21.8,2763.7,17.5z"/>
		<path class="st1" d="M2788.1,44.9c0,0,9.9-3.7-5-12.9"/>
		<path class="st1" d="M2779.1,39.4c0,0-5.2-8.2-8.6-11.1c1.7-0.3,4.8,1,4.8,1"/>
		<path class="st1" d="M2790.7,47c0,0-0.3-1.8,0.3-4.7"/>
		<path class="st1" d="M2790.6,35.3c0,0-0.6,1.1-0.1,3"/>
		<path class="st1" d="M2791.1,20.1c0,0,0-7.9-0.4-10c-1.9,3-2.6,5.5-3.3,6"/>
		<path class="st1" d="M2783.3,23.3c0,0,6.4-1.3,3.6-9s-3-8.6-2.4-9.3c-2.8,2-7.2,6.6-7.4,8.6"/>
		<path class="st1" d="M2777.8,20.5c0,0,5.1-4.9-4.5-8.7c-7.1-2.2-14.4-2.3-16.7-2.7c0,0,6.8,6.9,10.6,8.8"/>
		<path class="st1" d="M2781,7.9c0,0-2.5-9.8-3.5-13.3c-5,3.4-6.9,9.4-7,9.6"/>
		<path class="st1" d="M2769.6,10.8c0,0,7-2.4-0.5-7.8c-7-5-18-4.3-18-4.3s7.8,8.6,10.5,10.7"/>
		<path class="st1" d="M2764.1,0.5c0,0,5.3-2.9,0-7.1s-7.8-1.9-14.3-4.6c-6.5-2.7-7-4.8-7-4.8s2.5,8.5,13.3,14.9"/>
		<path class="st1" d="M2773.1-1c0,0,2.2-8.9-4.6-21c-1.2,1.7-2.3,3.3-2.3,3.3"/>
		<path class="st1" d="M2764.1-6.7c0,0,5.9-2.2,1.4-13.3c-0.8-3.9-2.4-7.9-2.4-7.9s-0.1,2.8-1.5,4.4"/>
		<path class="st1" d="M2758.1-16.6c0,0,6.9-2,1.4-14.7c-1.9-3.8-2.8-7.6-2.8-7.6l-2.2,7.2"/>
		<path class="st1" d="M2750.8-11c-10.8-9.8-9.1-15.3-8-17.7c0.6,1.2,2.2,4,10.1,8.6s6.3,8.2,6.3,8.2s-0.5,1.9-2.1,2.4"/>
		<path class="st1" d="M2750.5-21.9c0,0,5.8-3.2,3.1-12.9s-5.8-15.1-5.8-18.9c0-3.8,0,14.6,0,14.6s-5,9.7-4.3,11.6"/>
		<path class="st1" d="M2743.6-29.7c-2-3.5-3.6-19.1-3.6-19.1s6,4.1,7.8,8.8"/>
		<path class="st1" d="M2737.8-40.8"/>
	</g>
	<path class="st1" d="M2789,67.2c0,0,0.2,5.8,3.6,11.5"/>
</g>
<g>
	<g>
		<g>
			<path class="st1" d="M1586.6,141.7c0,0,9.1,9.3,18.2,11.3c9.1,1.9,17.2-1,19.3-2.4s12.5-7.6,12.5-7.6l15.4-7.7l-1-1.3l-12.8,5.2
				c0,0-4,3.1-14.4,4.1c-10.4,1-23.4,0.5-23.4,0.5S1587.9,142.8,1586.6,141.7z"/>
			<line class="st1" x1="1590.6" y1="139.7" x2="1586.6" y2="141.7"/>
			<path class="st1" d="M1656.1,122.2c0,0-32.3-0.7-36.1-0.9c-3.9-0.2-8.3,0.7-8.3,0.7l-31.3,4c0,0,21.2,1.6,29.8,2.7
				c3.4,0.5,6.7,0.5,9.4,0.3c4.2-0.2,7.1-0.8,7.1-0.8S1647.7,122.6,1656.1,122.2c-0.4,2.3-6,10.8-6,10.8l-27.7,6.2
				c0,0-1.8,0.2-4.5,0.4c-3.9,0.3-9.8,0.7-15.1,0.7c-9,0-19.6-1.3-19.6-1.3s-3.6-0.4-3.5-1.6c0-1.2,0.7-11.4,0.7-11.4"/>
			<path class="st1" d="M1651.1,132.3l12.7,5c0,0,2,1.2,2.5-1.3c0.5-2.5,2.9-20.3,3.2-28.6c0.3-8.3,0-12,0-12s-0.8-5.7-5.6-8.5
				c-4.8-2.8-13.9-8.1-13.9-8.1s-10.6-4.5-16.4-3.6s-5.6,10.2-5.6,10.2l5.5,26.7l2,9.1"/>
			<path class="st1" d="M1675.5,110.6c0,0,0.8-17,0.5-21.1c-0.3-4.1-16.9-13.2-19.8-14c-2.9-0.8-5.7-3.1-11.9-0.8"/>
			<path class="st1" d="M1656.1,74.1c0,0,7.4,3,13.2,6.4s9.7,6.5,9.5,9.5c-0.3,2.9-1.5,8-1.5,8l-0.3,2.5"/>
			<path class="st1" d="M1675.9,100l12.1,15c0,0,0.6,2.1-12.4-6.6"/>
			<line class="st1" x1="1628.3" y1="41" x2="1656.1" y2="75.5"/>
			<line class="st1" x1="1628.3" y1="58.2" x2="1643.7" y2="74.9"/>
			<line class="st1" x1="1632.8" y1="47.8" x2="1628.3" y2="58"/>
			<path class="st1" d="M1631.9,47.8l-4.3,1.1l-3.6,7.6c0,0-0.3,2.7,3.9,2.1"/>
			<path class="st1" d="M1620.3,52.3c0,0-0.4,1.5,3.4,4.8"/>
			<path class="st1" d="M1629.3,38.7l5.3,6.8c0,0,0.7,1.2,0,1.8"/>
			<path class="st1" d="M1665.9,137.9c0,0,27-8.3,30.6-10s6.3-5.3,6.6-6.4c0.3-1.1,1-5.6,1-5.6"/>
			<path class="st1" d="M1653,70.2l17.2-3.6c0,0,7.3-1.2,8.1-1c0.8,0.2,5.1,2.5,5.7,3.5c0.6,1,6.5,3.6,6.5,3.6s1.5,7.4,2.1,8.1
				c0.6,0.7-3.6,6.9-1.4,13.4c1.3,2.9,4.5,3.3,4.5,3.3s3.2,0,5.2-4.8c2-4.8,3.9-5.2,4.5-8.1c0.6-2.9-1.3-17.7-1.3-17.7l-8.1-11.4"/>
			<path class="st1" d="M1710.5,62.1c0,0,7.2,7.9,7,14.1c-0.3,6.2-4.6,13.8-4.6,13.8l-3.5,8.5l-5.5,6.1c0,0-3.1,5.3-7,3.9
				c-3.9-1.4-4.5-4.7-1.7-10.6"/>
			<path class="st1" d="M1721.3,66.5l-0.8,3.7c0,0,2.2,12.6,1.7,14.5c-0.5,1.9-6.4,15.6-6.4,15.6l-3.2,5.5c0,0-2.5,4-3.1,5.9
				c-0.6,1.9-4.1,5.7-7.9,3.3c-3.2-2-0.3-7.3-0.3-7.3"/>
			<path class="st1" d="M1721.9,49.7c0,0,2.5,8.7,3,9.7c0.5,1,2.6,4.1,2.3,7.7c-0.3,3.6-2.6,16.3-2.6,16.3s-1,5.4-1.6,7.8
				c-0.6,2.4-4.3,10.5-4.3,10.5l-5.5,8.8c0,0-0.8,2.2-4.8,3.2"/>
			<polyline class="st1" points="1678.8,45.6 1667.5,53.8 1660.7,58.2 1655.2,61.1 1647.7,65.1 			"/>
			<path class="st1" d="M1612.5,33c0,0-2,5.2-1.6,6c0.3,0.8-4.6,6.9-4.2,8.8s0.5,4,2.9,4.9s4.6,2.1,8.1,0.6c3.5-1.5,9.1-10,9.1-10
				s2.5-3.7,3.1-7s1.7-12.3,2.6-13.2c0.9-1,1.8-5.3,1.8-5.3l-0.6-8.4c0,0-0.5-5.9-1-6.8"/>
			<path class="st1" d="M1632.8,23.5c0,0,1.8,5.2,1.5,6.7c-0.3,1.6-1.8,6.5-1.8,6.5s-1.1,0.9-1.1,1.7s0,2.3,0,2.3"/>
			<path class="st1" d="M1601.7,27c0,0-4.6,5.1-4.7,8.6c-0.8,1.9-1.7,3.1-1.7,3.1s-1.5,4.6,3.9,8.6c3,2.5,7.5-0.9,7.5-0.9"/>
			<path class="st1" d="M1594.4,39.1c0,0-1,1.2-3.8,0.3s-5.7-3.8-5.7-3.8"/>
			<path class="st1" d="M1738.1,53.2c0,0-2,4.5-12.2,6.4"/>
		</g>
		<path class="st1" d="M1700.7,93c0,0,0.7-6.9-6.5-2.1"/>
		<path class="st1" d="M1698.5,102.7c0,0,4.6-2.6,5.4,1.4"/>
		<path class="st1" d="M1705.4,109c0,0,4.1-1.7,4.1,1.6"/>
		<path class="st1" d="M1712.2,106.6c0,0,1.3,1.4,0.6,4"/>
	</g>
	<path class="st1" d="M1632.6,75.5c0,0,0.2-1.3,8.1-3.4"/>
</g>
<g>
	<g>
		<path class="st1" d="M29.2,144.5c0,0,2.5,0.4,9.7-1.5c7.2-1.9,14.5-7.1,14.5-7.1l8-3.2l4-4.4c0,0,1.3-14.5,0-17.6"/>
		<path class="st1" d="M116,103.4l-0.2,21.3c0,0,2.4,6.2,4.6,7.4c2.2,1.2,26.7,10.6,26.7,10.6s5.2,1.8,10.2,0.7
			c1-0.2,2.2-0.4,3.4-0.5"/>
		<path class="st1" d="M62.4,131.6c0,0,1.7,11.7,18.1,14.9s17.6,4.3,24.2,2.7s16.4-4.1,18.7-14.9"/>
		<path class="st1" d="M58.3,88.6c0,0,0.9,16.9,9.7,25.4s15.2,10.9,19.1,10.7c3.9-0.2,11.7-0.7,14.4-2.3c2.7-1.7,8.4-5.6,11.7-12.1
			c3.4-6.5,4-15.6,4.8-21.9"/>
		<path class="st1" d="M76.9,96.7c0,0,11,1.1,13,1.1s3.7-0.2,6.3-0.5"/>
		<path class="st1" d="M82.2,83c0,0,2.1,0,2.7,1.2c0.6,1.2,3.3,1.3,4.1,0.9c0.8-0.4,1.6-1.9,3.5-2.1"/>
		<g>
			<line class="st1" x1="90.4" y1="60.9" x2="92.9" y2="63.3"/>
			<g>
				<circle class="st1" cx="115.7" cy="62.9" r="10.7"/>
				<circle class="st1" cx="115.7" cy="62.9" r="14.2"/>
				<path class="st1" d="M105.7,72.9c-1.2,0.7-2.6,1-4.1,1c-4.8,0-8.6-3.9-8.6-8.6c0-2.7,2.2-6,5.4-8.7"/>
			</g>
		</g>
		<g>
			<g>
				<circle class="st1" cx="57.1" cy="62.9" r="10.7"/>
				<circle class="st1" cx="57.1" cy="62.9" r="14.2"/>
				<path class="st1" d="M67.2,72.9c1.2,0.7,2.6,1,4.1,1c4.8,0,8.6-3.9,8.6-8.6c0-3.4-4.4-8.6-8.6-11.2"/>
				<line class="st1" x1="78.8" y1="53.2" x2="75.1" y2="56.6"/>
			</g>
			<line class="st1" x1="82.9" y1="61.2" x2="80.5" y2="63.4"/>
		</g>
		<path class="st1" d="M94.1,54.2c0,1.1-0.2,2.1-0.6,3c-0.3,0.7-0.7,1.4-1.2,2c-1.4,1.7-3.5,2.7-5.9,2.7c-4.2,0-7.7-3.4-7.7-7.7
			s3.4-6.4,7.7-6.4c3.9,0,7.1,1.8,7.6,5.4C94.1,53.6,94.1,53.9,94.1,54.2z"/>
		<path class="st1" d="M93.2,69.7c0,0-1.7-0.9-5,0.1c-3.3,1-2.7,5.3,1.7,5.8c4.5,0.4,6.1,7.1,6.1,7.1s0,1.5,9.2,1.6
			c9.2,0.2,9.6,2.8,12.8,3c3.2,0.2,6.4-2.9,17.8,1.1c11.4,3.9,20.6,15.6,20.6,15.6l9.1,10"/>
		<path class="st1" d="M101.3,60c0,0-0.9,1.7-3,0.2c-2.1-1.4,3-10.1,3-10.1s9.1-5.7,10.2-6.1c1.2-0.4,12.1-4.2,12.1-4.2l7.7-0.8
			c0,0,4.9-1.1,7.6,3.7c2.7,4.8,14.2,26.7,14.2,26.7l13.1,11.8"/>
		<path class="st1" d="M129.2,38.6l-12.8-3.3c0,0-4.1-1.9-8.2,0.6c-4.2,2.5-8.8,6.1-8.8,6.1s-2.4,1.4-3.2,5.9
			c-0.8,4.5-1.6,5.4-1.6,5.4"/>
		<path class="st1" d="M93.9,57.6c0,0,1,0.2,2.9,0"/>
		<path class="st1" d="M99.6,41.2c0,0-10,2.5-13.5,3c-3.5,0.5-3.9,1.6-3.9,1.6s-1.6,2.2,1.1,2.5"/>
		<path class="st1" d="M92.5,49c0,0,2.5-0.2,2.9,0.3"/>
		<path class="st1" d="M70.6,57.3c0,0,1.4,0.5,1.6-0.5c0.2-0.9-3.9-6.4-3.9-6.4L64.8,47L63.7,46l-8.8-3.1c0,0-2.4-0.5-3.5,0.2
			c-1.1,0.7-7.9,6.1-7.9,6.1"/>
		<path class="st1" d="M6.8,86.9l6.9-6.8l8.4-10.2l10.5-15l9.7-8.3l9.4-6.5c0,0,2.2-0.9,8.2,0.5c6,1.4,9.1,2.1,9.1,2.1l8,7
			c0,0-0.9,5.4-5.6,2.3s-6.5-5-6.5-5"/>
		<path class="st1" d="M63.9,75.4c0,0,9.7-1.9,12.4,0c2.7,1.9,0.7,6.9,0.7,6.9s-9.6,0.3-11,1.9c-1.3,1.6-7.1,2.6-11.7,7
			c0,0-12.6,7.4-22.9,7.6c-0.8,0-1.7-0.1-2.3,0.3c-8,5.4-11.7,13.3-11.7,13.3"/>
		<path class="st1" d="M58.5,39.8c0,0,2.4-2.9,5.3-3.2c3-0.3,9.2-2,9.2-2s4.6-1.4,5.8-1.2c1.2,0.2,4.8,0,6.3,0.4
			c1.5,0.4,4.3,0.1,5.6-0.1c1.3-0.2,2.5-1.3,3.9-1c1.4,0.3,5,1.2,5,1.2s4,0.2,4.7,0.4c0.7,0.1,2.2,0.2,2.7,0.4
			c0.5,0.2,1.9,0.4,1.9,0.4"/>
		<path class="st1" d="M53.1,39.8c0,0-0.6-7.5,0-8.8c0.6-1.3,1.8-4.7,1.4-6.8c-0.4-2.1-0.9-2.8,0-3.8c0.9-1,1.7-2.4,2-3.3
			c0.3-0.9,0.3-2.4,1.3-3c1-0.5,2-1.4,2.6-1.8s1.7-1.8,2.7-2.4s4.7-0.1,5,0.1c0.4,0.2,1.4,1.3,2.4,1.5c1,0.1,3-1.7,4.6-2.2
			c1.6-0.5,1-1,3.7-1c2.6-0.1,1.2-0.9,5-0.3c3.7,0.6,4.4,0.4,6.2-0.3s1.8-2.4,2.5-1.2c0.7,1.3-1.3,1.2,1.4,3.5
			c2.7,2.3,3.6,2.6,3.9,2.7c0.3,0.1,1.5-2.2,1.5-2.2s0.8-1.5,1.4-1.5c0.6,0,2.8,0.1,3.8,0.5c1,0.4,2-0.4,2.9,0.8
			c0.9,1.3,3.5,2.7,4.5,3.2s5.6,2.7,5.8,3.4c0.2,0.7-1,0.8,0.4,2.7s2.3,3.1,2.7,3.7c0.4,0.6,1.8,2.4,1.8,2.4s1.3,0.8,1.4,2.4
			c0.1,1.6,0.1,2.1,0,3.5c-0.1,1.4,0.1,2.2,0.5,3.4c0.4,1.2,0,2.5,0,2.5"/>
	</g>
	<path class="st1" d="M105.7,63.4c0,0,3.4,6,4,8c0.6,2-4-9.8-4-9.8l6.7,11.5l-6.3-14l7.7,14l-7-15.4l8.7,16l-8.1-17.4l9.7,17.3
		l-8.4-18.6l9.6,18"/>
	<polyline class="st1" points="124.6,57 126,63.3 122.3,54.9 125.8,65.6 120.3,53.2 125.2,67.2 118.2,52.5 124.6,68.9 116.3,52.2 
		123.8,70 114.5,52.6 122.7,71.1 112.9,52.6 121.4,71.5 111.9,53.2 120.4,72.1 108.6,54.9 	"/>
	<path class="st1" d="M67.3,62.4c0,0-3.4-6-4-8c-0.6-2,4,9.8,4,9.8l-6.5-11.2L67,66.7l-7.8-13.9l7.1,15.4l-8.8-15.9l8,17.1l-9.6-17
		l8.3,18.2l-9.5-17.6"/>
	<polyline class="st1" points="61.1,72.6 51.5,54.4 59.9,73 50.3,54.8 58.5,73.3 49.2,55.9 56.7,73.6 48.3,57 54.8,73.4 47.8,58.7 
		52.8,72.7 47.2,60.3 50.7,71 46.9,62.6 48.4,68.9 	"/>
	<polyline class="st1" points="54.5,53.2 63.2,71.8 52,54.2 	"/>
</g>
<g>
	<path class="st1" d="M1111.6,82.4l-5.9-2.7c0,0-8.7-7.4-11.7-7.3c-3,0.1-4.1,0.6-3.3,4.5c0.8,3.9,9.3,6.8,9.3,6.8l3.8,4.1
		c0,0,0.8,6,4.8,8.3"/>
	<path class="st1" d="M1103.3,71.9l5.1,0.5c0,0,3.5,0.7,5.1,3.9s5.1,8.4,6.5,9.9s10.6,8.9,10.6,8.9l3.3,1.3"/>
	<path class="st1" d="M1090.5,85.1c0,0-0.1,5.1,0,5.3s0.2,1.5,1.4,1.8s2.7,0,3-2.2c0.3-2.2-0.1-2.9-0.1-2.9l1.6-1.8l4-0.9"/>
	<path class="st1" d="M1091.8,92.8c0,0-0.6,2.5,0.7,3.5c1.3,1,3.3-1.8,3.3-1.8l0.6-2.7l1.3-1.6l2.2-0.9"/>
	<path class="st1" d="M1094,96.9c0,0,0.1,1.9,2,1.4c1.8-0.6,2.7-2.6,2.7-2.6l0.5-1.8l1-1.2"/>
	<path class="st1" d="M1099.1,95.6l6.6,5.5c0,0,3.8,3.7,11.1,4.9c6.4,2.9,12.3,7.3,12.3,7.3"/>
	<path class="st1" d="M1094.4,81.3l-6.7,0.1c0,0-3.8-4.9-4.5-15.7s-1.9-28.8-1.9-28.8l18.5-1.6l3.3,36.3l0.9,6.8"/>
	<path class="st1" d="M1083.8,53.2c0,0,2.4-4.9,8-4.9s8,3.3,8,3.3"/>
	<path class="st1" d="M1085.4,61.5c0,0,2.5,3.5,7.3,2.9c4.8-0.7,7.9-4.8,7.9-4.8"/>
	<path class="st1" d="M1088.5,42.7c0,0,0.2-1.6,1.9-2.1s2.7,1.5,2.7,1.5s0.6,3.4-2.9,3"/>
	<line class="st1" x1="1095.7" y1="68.1" x2="1090.9" y2="68.4"/>
	<path class="st1" d="M1091.8,71.9c0,0-0.5-2,1.8-2.4c2.3-0.4,2.4,1.6,2.1,2.4"/>
	<line class="st1" x1="1094.1" y1="56.1" x2="1094.1" y2="56.7"/>
	<line class="st1" x1="1094.4" y1="59.6" x2="1094.4" y2="60.4"/>
	<path class="st1" d="M1085.6,61.3l0.9,0l3.3,0.6l3.3-0.7l3.1-0.8l2.6-1.8c0,0,0.4-1.8,0.3-3c0-1.3-1.6-3-1.6-3s-2.6,0.8-4.7,0.5
		c-2.1-0.3-4.3-0.2-4.3-0.2l-2.1,0"/>
	<path class="st1" d="M1111.2,52.2"/>
	<path class="st1" d="M1088.2,49.3c0,0,1.9,0.3,2.3,0.3s2.3,0.1,2.5,0.3c0.2,0.2,1.8,0.9,1.9,1c0.2,0.2,1.1,0.6,1.3,0.7
		c0.2,0.1,1,0.6,1,0.6"/>
	<polyline class="st1" points="1086.7,53 1088.2,49.8 1088.2,52.3 1089.6,49.9 1089.6,53 1091.8,50.4 1092.3,53.2 1094.1,51 
		1094.3,53.2 1095.7,51.9 	"/>
	<path class="st1" d="M1089.4,53.6c0,0-3.1,1.9-3.3,3.6c-0.2,1.7-0.1,4.1,3,4.7"/>
	<path class="st1" d="M1091.5,57.7c-0.2,1.3,0.1,0.9,0.1,0.9"/>
	<path class="st1" d="M1084.4,75.4c-3.5-5.3-8-38.6-8-38.6l12.9-2.7l3.3-0.4l0,2.3"/>
	<path class="st1" d="M1076.4,37.8l-7.6,2.7c0,0,14.3,34.6,17.1,38"/>
	<path class="st1" d="M1068.5,41.5l-4.4,2.2c0,0,19.3,35.9,23.2,40c1.2-0.5,2.4-2.3,2.4-2.3"/>
	<polyline class="st1" points="1063.7,44.3 1055.8,52.2 1083,77.4 	"/>
	<polyline class="st1" points="1056.1,53.2 1054.4,55.3 1084.6,80.7 	"/>
	<polyline class="st1" points="1054.4,56.1 1051.8,60 1084.6,82.7 1089.4,85.4 1091.8,84.2 1093.3,84.4 1095.4,81.5 	"/>
	<line class="st1" x1="1089.4" y1="82.4" x2="1091.8" y2="84.2"/>
	<path class="st1" d="M965.8,24.7l11.9,8.1l12.7,8.6c0,0,15.3,0.1,16.6-0.6s4.8-0.9,7.4,1.9c2.6,2.9,18.3,11.7,18.3,11.7l3.1,3.1
		c0,0,1.1,0.3,0.8,1.6c-0.3,1.3-1,3.2-2.1,2.8"/>
	<path class="st1" d="M1032.9,55.4c0,0-1.4,0.3-1.3,1.1c0.1,0.8,0.5,3,4.4,3.3"/>
	<path class="st1" d="M1002.2,50c0,0,0.3,1.3,1.8,1.8s8.2,0.4,8.2,0.4l5,0.8l7.9,4l1.6,2.1"/>
	<path class="st1" d="M1036.9,59.3l3,2.3c0,0,3.4,1.6,3,3.2"/>
	<path class="st1" d="M964.1,43.4c0,0,4.4,2.4,7,3.9c2.7,1.5,6.1,4,6.1,4l3.4,3l4.4,4.1c0,0,5.3,4.1,7.3,4.6
		c1.9,0.5,5.8,2.4,7.5,3.1c1.7,0.8,8.7,4.2,11.9,8.1c2,2.5,3.5-1.1,3.5-1.1s1-4.3-3-7.6c-4-3.4-5.3-4.1-7.6-5s-4.6-6.4-4.6-6.4"/>
	<path class="st1" d="M1002.5,58.2c0,0,0.6-1.9,0.6-3.1"/>
	<path class="st1" d="M1009.3,71.4c0,0,1.4-3.5,4,0.5"/>
	<path class="st1" d="M965.8,89.6l6.8-1.8c0,0,5.3-4.3,14.5-2.9c9.1-0.9,17.2-5.1,17.2-5.1l3.7-1.9c0,0,3,1.6,2.1,4s-2,4.6-6.2,6
		c-4.2,1.5-11,4.1-11,4.1"/>
	<path class="st1" d="M993.4,92.3l1.9,0.9c0,0,3.8-1.1,6-0.4c2.5-1.5,5.3-2.3,5.3-2.3"/>
	<path class="st1" d="M966.8,105.1l5.9-2.3c0,0,12.5,2.8,15.1,4.7c2.7,1.9,7.5,3.1,8.5,2.7c0.9-0.4,6.7-1.6,6.7-1.6l9.7-2.5l13-3.3"
		/>
	<path class="st1" d="M1004.7,108.4c0,0,3.3,1.1,6.6,0.5c3.3-0.5,8-2,8-2l10.6-2.6"/>
	<path class="st1" d="M993.2,98.3l9.4,2c0,0,3.8-0.9,7.1,0c2.8-0.2,6.3-1.4,6.3-1.4"/>
	<path class="st1" d="M1003.8,96.7c0,0,2.6-1.4,3.4-1.6"/>
	<polyline class="st1" points="1008.5,95.1 1022.3,57.3 1060.9,72.8 1045.1,110 1008.2,95.5 1006.6,93.4 1007.6,91.2 1005.5,88.8 
		1006,87 	"/>
	<line class="st1" x1="1009.5" y1="79" x2="1011.2" y2="74.7"/>
	<path class="st1" d="M1014.3,67.4l3.2-8.4l-2.1-2.6c0,0-2.5-0.2-4.7-0.3c-2.3-0.1-2.2-2.3-3.4-1.6s-4.4,0.3-4.4,0.3"/>
	<path class="st1" d="M1021.6,58.2c0,0-3.6-0.7-4.6,0.3"/>
</g>
</svg>
