<?xml version="1.0" encoding="utf-8"?>
<!-- Generator: Adobe Illustrator 16.2.0, SVG Export Plug-In . SVG Version: 6.00 Build 0)  -->
<!DOCTYPE svg PUBLIC "-//W3C//DTD SVG 1.1//EN" "http://www.w3.org/Graphics/SVG/1.1/DTD/svg11.dtd">
<svg version="1.1" id="Layer_1" xmlns="http://www.w3.org/2000/svg" xmlns:xlink="http://www.w3.org/1999/xlink" x="0px" y="0px"
	 width="173px" height="161px" viewBox="0 0 173 161" enable-background="new 0 0 173 161" xml:space="preserve">
<g>
	<path fill="none" stroke="#000000" stroke-miterlimit="10" d="M154.146,82.213c0,0,3.429,77.646-71.934,77.646
		c-41.106,0-79.013-19.412-79.013-78.788c0-42.248,23.718-77.539,68.737-77.539c55.95,0,68.51,30.748,68.51,66.12
		c0,41.108-18.269,65.085-53.666,65.085c-35.398,0-60.331-18.269-60.331-54.808c0-21.697,13.515-50.975,50.054-50.975
		c36.539,0,40.267,32.862,39.734,45.267c-0.561,13.068-14.614,30.619-34.025,30.619c-19.411,0-26.833-12.45-26.87-24.91
		c-0.024-7.912,6.318-22.62,17.737-22.62c11.418,0,12.441,3.075,14.841,13.483c4.547,19.717-13.703,15.986-11.419,5.709"/>
	<path d="M106.191,157.575c0,1.894-1.534,3.426-3.425,3.426c-1.893,0-3.426-1.532-3.426-3.426c0-1.893,1.534-3.426,3.426-3.426
		C104.657,154.149,106.191,155.682,106.191,157.575"/>
	<path d="M150.723,118.75c0,1.894-1.534,3.427-3.426,3.427c-1.891,0-3.425-1.533-3.425-3.427c0-1.891,1.534-3.424,3.425-3.424
		C149.189,115.327,150.723,116.859,150.723,118.75"/>
	<path d="M34.255,145.015c0,1.892-1.534,3.425-3.426,3.425s-3.425-1.533-3.425-3.425c0-1.893,1.534-3.426,3.425-3.426
		S34.255,143.122,34.255,145.015"/>
	<path d="M35.397,106.191c0,1.89-1.534,3.426-3.425,3.426c-1.892,0-3.426-1.536-3.426-3.426c0-1.892,1.534-3.425,3.426-3.425
		C33.863,102.767,35.397,104.299,35.397,106.191"/>
	<path d="M93.631,134.738c0,1.892-1.534,3.426-3.426,3.426s-3.425-1.534-3.425-3.426c0-1.893,1.534-3.426,3.425-3.426
		S93.631,132.845,93.631,134.738"/>
	<path d="M86.78,103.907c0,1.895-1.534,3.425-3.426,3.425c-1.891,0-3.425-1.53-3.425-3.425c0-1.892,1.534-3.426,3.425-3.426
		C85.246,100.481,86.78,102.015,86.78,103.907"/>
	<path d="M88.427,84.427c0,1.891-1.534,3.425-3.426,3.425c-1.891,0-3.426-1.534-3.426-3.425c0-1.894,1.535-3.427,3.426-3.427
		C86.893,81,88.427,82.533,88.427,84.427"/>
	<path d="M78.787,58.233c0,1.89-1.534,3.427-3.425,3.427c-1.892,0-3.426-1.538-3.426-3.427c0-1.89,1.534-3.424,3.426-3.424
		C77.253,54.809,78.787,56.343,78.787,58.233"/>
	<path d="M135.879,31.972c0,1.892-1.534,3.426-3.425,3.426c-1.893,0-3.426-1.534-3.426-3.426s1.534-3.426,3.426-3.426
		C134.345,28.546,135.879,30.08,135.879,31.972"/>
	<path d="M87.922,3.426c0,1.893-1.534,3.426-3.425,3.426c-1.892,0-3.426-1.533-3.426-3.426S82.605,0,84.497,0
		C86.387,0,87.922,1.533,87.922,3.426"/>
	<path d="M43.39,10.277c0,1.892-1.534,3.427-3.426,3.427c-1.891,0-3.425-1.535-3.425-3.427c0-1.893,1.534-3.425,3.425-3.425
		C41.856,6.852,43.39,8.384,43.39,10.277"/>
	<path d="M6.851,67.369c0,1.892-1.534,3.425-3.425,3.425C1.533,70.794,0,69.261,0,67.369c0-1.892,1.533-3.427,3.426-3.427
		C5.316,63.942,6.851,65.477,6.851,67.369"/>
	<path d="M41.106,45.675c0,1.891-1.533,3.424-3.425,3.424c-1.891,0-3.425-1.533-3.425-3.424c0-1.895,1.534-3.427,3.425-3.427
		C39.573,42.248,41.106,43.781,41.106,45.675"/>
	<path d="M30.829,73.077c0,1.894-1.534,3.426-3.425,3.426c-1.892,0-3.427-1.533-3.427-3.426c0-1.892,1.535-3.425,3.427-3.425
		C29.295,69.652,30.829,71.186,30.829,73.077"/>
</g>
</svg>
