<?xml version="1.0" encoding="utf-8"?>
<!-- Generator: Adobe Illustrator 16.2.0, SVG Export Plug-In . SVG Version: 6.00 Build 0)  -->
<!DOCTYPE svg PUBLIC "-//W3C//DTD SVG 1.1//EN" "http://www.w3.org/Graphics/SVG/1.1/DTD/svg11.dtd">
<svg version="1.1" id="Layer_1" xmlns="http://www.w3.org/2000/svg" xmlns:xlink="http://www.w3.org/1999/xlink" x="0px" y="0px"
	 width="173px" height="173px" viewBox="0 0 173 173" enable-background="new 0 0 173 173" xml:space="preserve">
<g>
	<path fill="none" stroke="#000000" stroke-miterlimit="10" d="M53.009,130.239c0,14.805-11.078,26.807-24.744,26.807
		c-13.665,0-24.743-12.002-24.743-26.807c0-14.803,11.078-36.702,24.743-36.702C41.93,93.538,53.009,115.437,53.009,130.239z"/>
	<circle fill="none" stroke="#000000" stroke-miterlimit="10" cx="28.265" cy="81.989" r="11.547"/>
	<polyline fill="none" stroke="#000000" stroke-miterlimit="10" points="22.845,156.892 22.845,172.392 17.345,172.392 	"/>
	<polyline fill="none" stroke="#000000" stroke-miterlimit="10" points="33.845,156.892 33.845,172.392 39.345,172.392 	"/>
	<path fill="none" stroke="#000000" stroke-miterlimit="10" d="M99.345,96.834c0,38.768,3.62,43.716-10.045,43.716
		c-13.665,0-10.955-4.949-10.955-43.716C78.345,58.071,75.635,24,89.3,24C102.965,24,99.345,58.071,99.345,96.834z"/>
	<circle fill="none" stroke="#000000" stroke-miterlimit="10" cx="89.3" cy="12.451" r="11.547"/>
	<polyline fill="none" stroke="#000000" stroke-miterlimit="10" points="83.845,140.892 83.845,172.392 78.345,172.392 	"/>
	<polyline fill="none" stroke="#000000" stroke-miterlimit="10" points="94.845,140.892 94.845,172.392 100.345,172.392 	"/>
	<path fill="none" stroke="#000000" stroke-miterlimit="10" d="M99.595,47.348c0,0,11.897,15.671,10.248,34.642"/>
	<path fill="none" stroke="#000000" stroke-miterlimit="10" d="M78.345,47.348c0,0-11.898,15.671-10.249,34.642"/>
	<path fill="none" stroke="#000000" stroke-miterlimit="10" d="M46.596,107.556c0,0,9.897,15.674,8.247,34.644"/>
	<path fill="none" stroke="#000000" stroke-miterlimit="10" d="M9.479,107.556c0,0-9.898,15.674-8.248,34.644"/>
</g>
</svg>
