<?xml version="1.0" encoding="utf-8"?>
<!-- Generator: Adobe Illustrator 16.2.0, SVG Export Plug-In . SVG Version: 6.00 Build 0)  -->
<!DOCTYPE svg PUBLIC "-//W3C//DTD SVG 1.1//EN" "http://www.w3.org/Graphics/SVG/1.1/DTD/svg11.dtd">
<svg version="1.1" id="Layer_1" xmlns="http://www.w3.org/2000/svg" xmlns:xlink="http://www.w3.org/1999/xlink" x="0px" y="0px"
	 width="173px" height="156.347px" viewBox="0 0 173 156.347" enable-background="new 0 0 173 156.347" xml:space="preserve">
<g>
	<path fill="none" stroke="#000000" stroke-miterlimit="10" d="M5.938,142.7c0,0-2.192,4.384-3.288,12.055"/>
	<path fill="none" stroke="#000000" stroke-miterlimit="10" d="M4.841,139.412c0,0-2.191,4.386-3.287,12.055"/>
	<path fill="none" stroke="#000000" stroke-miterlimit="10" d="M53.055,142.7c0,0,2.191,4.384,3.287,12.055"/>
	<path fill="none" stroke="#000000" stroke-miterlimit="10" d="M48.672,141.604c0,0,2.192,4.385,3.288,12.055"/>
	<path fill="none" stroke="#000000" stroke-miterlimit="10" d="M41.001,138.318c0,0,2.191,4.382,3.288,12.053"/>
	<path fill="none" stroke="#000000" stroke-miterlimit="10" d="M33.331,122.978c0,0,2.192,4.383,3.288,12.053"/>
	<path fill="none" stroke="#000000" stroke-miterlimit="10" d="M31.14,126.265c0,0,2.191,4.383,3.287,12.054"/>
	<path fill="none" stroke="#000000" stroke-miterlimit="10" d="M44.289,143.797c0,0,2.191,4.383,3.287,12.053"/>
	<path fill="none" stroke="#000000" stroke-miterlimit="10" d="M22.374,135.031c0,0,2.191,4.382,3.288,12.053"/>
	<path fill="none" stroke="#000000" stroke-miterlimit="10" d="M25.661,140.509c0,0,2.191,4.383,3.287,12.053"/>
	<path fill="none" stroke="#000000" stroke-miterlimit="10" d="M45.385,130.646c0,0,2.191,4.384,3.287,12.054"/>
	<path fill="none" stroke="#000000" stroke-miterlimit="10" d="M39.906,117.498c0,0,2.191,4.384,3.287,12.055"/>
	<path fill="none" stroke="#000000" stroke-miterlimit="10" d="M33.331,108.732c0,0,2.192,4.383,3.288,12.054"/>
	<path fill="none" stroke="#000000" stroke-miterlimit="10" d="M49.768,135.212c0,0,3.781,3.116,7.899,9.68"/>
	<path fill="none" stroke="#000000" stroke-miterlimit="10" d="M26.528,130.828c0,0,3.782,3.116,7.899,9.682"/>
	<path fill="none" stroke="#000000" stroke-miterlimit="10" d="M33.331,135.031c0,0,3.782,3.115,7.899,9.681"/>
	<path fill="none" stroke="#000000" stroke-miterlimit="10" d="M30.044,137.403c0,0,3.781,3.116,7.899,9.681"/>
	<path fill="none" stroke="#000000" stroke-miterlimit="10" d="M44.289,139.594c0,0,3.782,3.116,7.898,9.683"/>
	<path fill="none" stroke="#000000" stroke-miterlimit="10" d="M40.042,141.633c0,0,2.008,4.471,2.787,12.18"/>
	<path fill="none" stroke="#000000" stroke-miterlimit="10" d="M36.024,141.604c0,0,2.008,4.471,2.786,12.181"/>
	<path fill="none" stroke="#000000" stroke-miterlimit="10" d="M33.832,141.604c0,0,2.008,4.471,2.787,12.181"/>
	<path fill="none" stroke="#000000" stroke-miterlimit="10" d="M51.959,128.454c0,0,2.192,4.384,3.287,12.055"/>
	<path fill="none" stroke="#000000" stroke-miterlimit="10" d="M47.576,119.689c0,0,2.192,4.384,3.288,12.055"/>
	<path fill="none" stroke="#000000" stroke-miterlimit="10" d="M47.576,127.359c0,0,2.192,4.384,3.288,12.054"/>
	<path fill="none" stroke="#000000" stroke-miterlimit="10" d="M25.661,131.743c0,0,2.191,4.383,3.287,12.055"/>
	<path fill="none" stroke="#000000" stroke-miterlimit="10" d="M27.853,133.935c0,0,2.192,4.384,3.287,12.054"/>
	<path fill="none" stroke="#000000" stroke-miterlimit="10" d="M44.289,119.689c0,0,2.191,4.384,3.287,12.055"/>
	<path fill="none" stroke="#000000" stroke-miterlimit="10" d="M43.193,110.923c0,0,2.192,4.385,3.288,12.055"/>
	<path fill="none" stroke="#000000" stroke-miterlimit="10" d="M37.485,107.819c0,0,3.783,3.114,7.899,9.679"/>
	<path fill="none" stroke="#000000" stroke-miterlimit="10" d="M35.523,110.011c0,0,3.783,3.115,7.899,9.679"/>
	<path fill="none" stroke="#000000" stroke-miterlimit="10" d="M38.81,123.89c0,0,2.191,4.383,3.288,12.055"/>
	<path fill="none" stroke="#000000" stroke-miterlimit="10" d="M33.102,120.786c0,0,3.783,3.114,7.899,9.679"/>
	<path fill="none" stroke="#000000" stroke-miterlimit="10" d="M10.32,142.7c0,0-2.191,4.384-3.287,12.055"/>
	<path fill="none" stroke="#000000" stroke-miterlimit="10" d="M27.853,108.732c0,0-2.191,4.383-3.288,12.054"/>
	<path fill="none" stroke="#000000" stroke-miterlimit="10" d="M33.331,121.881c0,0-2.191,4.385-3.287,12.055"/>
	<path fill="none" stroke="#000000" stroke-miterlimit="10" d="M23.24,143.797c0,0-2.191,4.383-3.287,12.053"/>
	<path fill="none" stroke="#000000" stroke-miterlimit="10" d="M36.619,125.168c0,0,2.191,4.385,3.288,12.054"/>
	<path fill="none" stroke="#000000" stroke-miterlimit="10" d="M22.145,130.646c0,0-2.191,4.384-3.287,12.054"/>
	<path fill="none" stroke="#000000" stroke-miterlimit="10" d="M32.104,111.813c0,0-1.279,4.732-0.833,12.466"/>
	<path fill="none" stroke="#000000" stroke-miterlimit="10" d="M17.762,135.212c0,0-3.782,3.116-7.899,9.68"/>
	<path fill="none" stroke="#000000" stroke-miterlimit="10" d="M26.757,105.445c0,0-3.782,3.117-7.899,9.68"/>
	<path fill="none" stroke="#000000" stroke-miterlimit="10" d="M32.007,105.445c0,0,3.781,3.117,7.899,9.68"/>
	<path fill="none" stroke="#000000" stroke-miterlimit="10" d="M19.315,116.582c0,0-3.781,3.117-7.899,9.684"/>
	<path fill="none" stroke="#000000" stroke-miterlimit="10" d="M19.315,113.296c0,0-3.781,3.115-7.899,9.682"/>
	<path fill="none" stroke="#000000" stroke-miterlimit="10" d="M15.57,128.454c0,0-2.191,4.384-3.287,12.055"/>
	<path fill="none" stroke="#000000" stroke-miterlimit="10" d="M19.953,119.689c0,0-2.191,4.384-3.287,12.055"/>
	<path fill="none" stroke="#000000" stroke-miterlimit="10" d="M24.336,110.923c0,0-2.191,4.385-3.287,12.055"/>
	<path fill="none" stroke="#000000" stroke-miterlimit="10" d="M30.044,107.819c0,0-3.783,3.114-7.9,9.679"/>
	<path fill="none" stroke="#000000" stroke-miterlimit="10" d="M33.401,106.502c0,0-4.881-0.435-12.419,1.355"/>
	<path fill="none" stroke="#000000" stroke-miterlimit="10" d="M34.427,108.912c0,0-3.783,3.117-7.899,9.681"/>
	<path fill="none" stroke="#000000" stroke-miterlimit="10" d="M11.416,132.838c0,0-2.192,4.383-3.288,12.054"/>
	<path fill="none" stroke="#000000" stroke-miterlimit="10" d="M16.666,138.318c0,0-2.192,4.382-3.288,12.053"/>
	<path fill="none" stroke="#000000" stroke-miterlimit="10" d="M19.086,140.509c0,0-2.191,4.383-3.287,12.053"/>
	<path fill="none" stroke="#000000" stroke-miterlimit="10" d="M13.378,143.797c0,0-2.191,4.383-3.288,12.053"/>
	<path fill="none" stroke="#000000" stroke-miterlimit="10" d="M21.278,141.604c0,0-2.192,4.385-3.287,12.055"/>
	<path fill="none" stroke="#000000" stroke-miterlimit="10" d="M28.948,141.604c0,0-2.191,4.385-3.287,12.055"/>
	<path fill="none" stroke="#000000" stroke-miterlimit="10" d="M35.523,140.509c0,0-2.192,4.383-3.288,12.053"/>
	<path fill="none" stroke="#000000" stroke-miterlimit="10" d="M11.416,126.265c0,0-2.192,4.383-3.288,12.054"/>
	<path fill="none" stroke="#000000" stroke-miterlimit="10" d="M15.799,121.881c0,0-2.192,4.385-3.288,12.055"/>
	<path fill="none" stroke="#000000" stroke-miterlimit="10" d="M26.853,117.469c0,0,0.317,4.189,3.095,9.923"/>
	<path fill="none" stroke="#000000" stroke-miterlimit="10" d="M26.757,127.359c0,0-2.192,4.384-3.288,12.054"/>
	<path fill="none" stroke="#000000" stroke-miterlimit="10" d="M26.757,118.593c0,0-2.192,4.385-3.288,12.055"/>
	<path fill="none" stroke="#000000" stroke-miterlimit="10" d="M22.603,120.786c0,0-2.191,4.382-3.288,12.053"/>
	<path fill="none" stroke="#000000" stroke-miterlimit="10" d="M7.9,135.212c0,0-3.782,3.116-7.9,9.68"/>
	<path fill="none" stroke="#000000" stroke-miterlimit="10" d="M5.708,128.454c0,0-2.191,4.384-3.287,12.055"/>
	<path fill="none" stroke="#000000" stroke-miterlimit="10" d="M10.091,119.689c0,0-2.191,4.384-3.287,12.055"/>
	<path fill="none" stroke="#000000" stroke-miterlimit="10" d="M14.474,110.923c0,0-2.191,4.385-3.287,12.055"/>
	<path fill="none" stroke="#000000" stroke-miterlimit="10" d="M20.182,107.819c0,0-3.783,3.114-7.899,9.679"/>
	<path fill="none" stroke="#000000" stroke-miterlimit="10" d="M119.897,142.7c0,0-2.191,4.384-3.287,12.055"/>
	<path fill="none" stroke="#000000" stroke-miterlimit="10" d="M118.801,139.412c0,0-2.191,4.386-3.288,12.055"/>
	<path fill="none" stroke="#000000" stroke-miterlimit="10" d="M167.015,142.7c0,0,2.191,4.384,3.288,12.055"/>
	<path fill="none" stroke="#000000" stroke-miterlimit="10" d="M162.632,141.604c0,0,2.191,4.385,3.288,12.055"/>
	<path fill="none" stroke="#000000" stroke-miterlimit="10" d="M154.961,138.318c0,0,2.192,4.382,3.288,12.053"/>
	<path fill="none" stroke="#000000" stroke-miterlimit="10" d="M147.292,122.978c0,0,2.191,4.383,3.287,12.053"/>
	<path fill="none" stroke="#000000" stroke-miterlimit="10" d="M145.1,126.265c0,0,2.192,4.383,3.288,12.054"/>
	<path fill="none" stroke="#000000" stroke-miterlimit="10" d="M158.249,143.797c0,0,2.192,4.383,3.287,12.053"/>
	<path fill="none" stroke="#000000" stroke-miterlimit="10" d="M136.333,135.031c0,0,2.191,4.382,3.287,12.053"/>
	<path fill="none" stroke="#000000" stroke-miterlimit="10" d="M139.621,140.509c0,0,2.192,4.383,3.288,12.053"/>
	<path fill="none" stroke="#000000" stroke-miterlimit="10" d="M159.344,130.646c0,0,2.191,4.384,3.287,12.054"/>
	<path fill="none" stroke="#000000" stroke-miterlimit="10" d="M153.865,117.498c0,0,2.192,4.384,3.288,12.055"/>
	<path fill="none" stroke="#000000" stroke-miterlimit="10" d="M147.292,108.732c0,0,2.191,4.383,3.287,12.054"/>
	<path fill="none" stroke="#000000" stroke-miterlimit="10" d="M163.728,135.212c0,0,3.782,3.116,7.899,9.68"/>
	<path fill="none" stroke="#000000" stroke-miterlimit="10" d="M140.487,130.828c0,0,3.782,3.116,7.9,9.682"/>
	<path fill="none" stroke="#000000" stroke-miterlimit="10" d="M147.292,135.031c0,0,3.781,3.115,7.899,9.681"/>
	<path fill="none" stroke="#000000" stroke-miterlimit="10" d="M144.004,137.403c0,0,3.782,3.116,7.899,9.681"/>
	<path fill="none" stroke="#000000" stroke-miterlimit="10" d="M158.249,139.594c0,0,3.782,3.116,7.899,9.683"/>
	<path fill="none" stroke="#000000" stroke-miterlimit="10" d="M154.002,141.633c0,0,2.008,4.471,2.787,12.18"/>
	<path fill="none" stroke="#000000" stroke-miterlimit="10" d="M149.983,141.604c0,0,2.008,4.471,2.787,12.181"/>
	<path fill="none" stroke="#000000" stroke-miterlimit="10" d="M147.792,141.604c0,0,2.009,4.471,2.787,12.181"/>
	<path fill="none" stroke="#000000" stroke-miterlimit="10" d="M165.919,128.454c0,0,2.191,4.384,3.287,12.055"/>
	<path fill="none" stroke="#000000" stroke-miterlimit="10" d="M161.536,119.689c0,0,2.191,4.384,3.287,12.055"/>
	<path fill="none" stroke="#000000" stroke-miterlimit="10" d="M161.536,127.359c0,0,2.191,4.384,3.287,12.054"/>
	<path fill="none" stroke="#000000" stroke-miterlimit="10" d="M139.621,131.743c0,0,2.192,4.383,3.288,12.055"/>
	<path fill="none" stroke="#000000" stroke-miterlimit="10" d="M141.813,133.935c0,0,2.191,4.384,3.287,12.054"/>
	<path fill="none" stroke="#000000" stroke-miterlimit="10" d="M158.249,119.689c0,0,2.192,4.384,3.287,12.055"/>
	<path fill="none" stroke="#000000" stroke-miterlimit="10" d="M157.153,110.923c0,0,2.191,4.385,3.288,12.055"/>
	<path fill="none" stroke="#000000" stroke-miterlimit="10" d="M151.446,107.819c0,0,3.782,3.114,7.899,9.679"/>
	<path fill="none" stroke="#000000" stroke-miterlimit="10" d="M149.483,110.011c0,0,3.783,3.115,7.899,9.679"/>
	<path fill="none" stroke="#000000" stroke-miterlimit="10" d="M152.77,123.89c0,0,2.191,4.383,3.288,12.055"/>
	<path fill="none" stroke="#000000" stroke-miterlimit="10" d="M147.063,120.786c0,0,3.783,3.114,7.899,9.679"/>
	<path fill="none" stroke="#000000" stroke-miterlimit="10" d="M124.28,142.7c0,0-2.191,4.384-3.288,12.055"/>
	<path fill="none" stroke="#000000" stroke-miterlimit="10" d="M141.813,108.732c0,0-2.192,4.383-3.288,12.054"/>
	<path fill="none" stroke="#000000" stroke-miterlimit="10" d="M147.292,121.881c0,0-2.192,4.385-3.288,12.055"/>
	<path fill="none" stroke="#000000" stroke-miterlimit="10" d="M137.201,143.797c0,0-2.192,4.383-3.288,12.053"/>
	<path fill="none" stroke="#000000" stroke-miterlimit="10" d="M150.579,125.168c0,0,2.191,4.385,3.287,12.054"/>
	<path fill="none" stroke="#000000" stroke-miterlimit="10" d="M136.104,130.646c0,0-2.191,4.384-3.287,12.054"/>
	<path fill="none" stroke="#000000" stroke-miterlimit="10" d="M146.064,111.813c0,0-1.279,4.732-0.833,12.466"/>
	<path fill="none" stroke="#000000" stroke-miterlimit="10" d="M131.721,135.212c0,0-3.781,3.116-7.899,9.68"/>
	<path fill="none" stroke="#000000" stroke-miterlimit="10" d="M140.717,105.445c0,0-3.782,3.117-7.899,9.68"/>
	<path fill="none" stroke="#000000" stroke-miterlimit="10" d="M145.966,105.445c0,0,3.782,3.117,7.899,9.68"/>
	<path fill="none" stroke="#000000" stroke-miterlimit="10" d="M133.275,116.582c0,0-3.782,3.117-7.9,9.684"/>
	<path fill="none" stroke="#000000" stroke-miterlimit="10" d="M133.275,113.296c0,0-3.782,3.115-7.9,9.682"/>
	<path fill="none" stroke="#000000" stroke-miterlimit="10" d="M129.53,128.454c0,0-2.191,4.384-3.287,12.055"/>
	<path fill="none" stroke="#000000" stroke-miterlimit="10" d="M133.913,119.689c0,0-2.192,4.384-3.288,12.055"/>
	<path fill="none" stroke="#000000" stroke-miterlimit="10" d="M138.296,110.923c0,0-2.192,4.385-3.288,12.055"/>
	<path fill="none" stroke="#000000" stroke-miterlimit="10" d="M144.004,107.819c0,0-3.783,3.114-7.9,9.679"/>
	<path fill="none" stroke="#000000" stroke-miterlimit="10" d="M147.361,106.502c0,0-4.881-0.435-12.419,1.355"/>
	<path fill="none" stroke="#000000" stroke-miterlimit="10" d="M148.387,108.912c0,0-3.783,3.117-7.9,9.681"/>
	<path fill="none" stroke="#000000" stroke-miterlimit="10" d="M125.375,132.838c0,0-2.191,4.383-3.287,12.054"/>
	<path fill="none" stroke="#000000" stroke-miterlimit="10" d="M130.625,138.318c0,0-2.191,4.382-3.287,12.053"/>
	<path fill="none" stroke="#000000" stroke-miterlimit="10" d="M133.046,140.509c0,0-2.192,4.383-3.288,12.053"/>
	<path fill="none" stroke="#000000" stroke-miterlimit="10" d="M127.339,143.797c0,0-2.192,4.383-3.288,12.053"/>
	<path fill="none" stroke="#000000" stroke-miterlimit="10" d="M135.238,141.604c0,0-2.191,4.385-3.287,12.055"/>
	<path fill="none" stroke="#000000" stroke-miterlimit="10" d="M142.908,141.604c0,0-2.191,4.385-3.288,12.055"/>
	<path fill="none" stroke="#000000" stroke-miterlimit="10" d="M149.483,140.509c0,0-2.191,4.383-3.287,12.053"/>
	<path fill="none" stroke="#000000" stroke-miterlimit="10" d="M125.375,126.265c0,0-2.191,4.383-3.287,12.054"/>
	<path fill="none" stroke="#000000" stroke-miterlimit="10" d="M129.759,121.881c0,0-2.191,4.385-3.287,12.055"/>
	<path fill="none" stroke="#000000" stroke-miterlimit="10" d="M140.813,117.469c0,0,0.317,4.189,3.095,9.923"/>
	<path fill="none" stroke="#000000" stroke-miterlimit="10" d="M140.717,127.359c0,0-2.192,4.384-3.287,12.054"/>
	<path fill="none" stroke="#000000" stroke-miterlimit="10" d="M140.717,118.593c0,0-2.192,4.385-3.287,12.055"/>
	<path fill="none" stroke="#000000" stroke-miterlimit="10" d="M136.563,120.786c0,0-2.191,4.382-3.287,12.053"/>
	<path fill="none" stroke="#000000" stroke-miterlimit="10" d="M121.859,135.212c0,0-3.782,3.116-7.899,9.68"/>
	<path fill="none" stroke="#000000" stroke-miterlimit="10" d="M119.667,128.454c0,0-2.191,4.384-3.287,12.055"/>
	<path fill="none" stroke="#000000" stroke-miterlimit="10" d="M124.051,119.689c0,0-2.192,4.384-3.288,12.055"/>
	<path fill="none" stroke="#000000" stroke-miterlimit="10" d="M128.434,110.923c0,0-2.191,4.385-3.287,12.055"/>
	<path fill="none" stroke="#000000" stroke-miterlimit="10" d="M134.142,107.819c0,0-3.783,3.114-7.899,9.679"/>
	<path d="M88.349,27.646c0,0,9.862,1.095,9.862,4.383"/>
	<path d="M76.295,27.646c0,0-9.862,1.095-9.862,4.383"/>
	<path fill="none" stroke="#000000" stroke-miterlimit="10" d="M77.066,98.836c0,0,6.704,11.993,16.762,0.602"/>
	<path fill="none" stroke="#000000" stroke-miterlimit="10" d="M70.816,63.806c0,0,3.288,0,4.383,3.287"/>
	<path fill="none" stroke="#000000" stroke-miterlimit="10" d="M93.828,63.806c0,0-3.288,0-4.383,3.287"/>
	<path fill="none" stroke="#000000" stroke-miterlimit="10" d="M70.816,71.476c0,0,10.957,9.863,23.011,2.192
		c3.288-5.48,1.096-15.34-2.192-16.436c-3.287-1.098-14.244-1.098-17.531,0C70.816,58.328,69.721,61.615,70.816,71.476z"/>
	<path fill="none" stroke="#000000" stroke-miterlimit="10" d="M73.008,73.668c0,0,4.383,7.67,8.766,7.67
		c4.383,0,9.862-5.48,9.862-5.48"/>
	<path fill="none" stroke="#000000" stroke-miterlimit="10" d="M42.326,2.441c7.671,3.288,21.915,20.821,21.915,20.821"/>
	<path fill="none" stroke="#000000" stroke-miterlimit="10" d="M96.019,24.357c0,0,15.341-18.628,26.299-18.628"/>
	<path fill="none" stroke="#000000" stroke-miterlimit="10" d="M89.444,24.357c0,0-8.766-3.286-15.34,0"/>
	<path fill="none" stroke="#000000" stroke-miterlimit="10" d="M42.326,1.347c0,0,19.724,3.287,31.778,24.106"/>
	<path fill="none" stroke="#000000" stroke-miterlimit="10" d="M42.326,1.347c0,0,0,36.16,23.011,39.447"/>
	<path fill="none" stroke="#000000" stroke-miterlimit="10" d="M102.594,38.603c0,0,24.107-17.532,19.724-33.969
		c0,0-27.394-1.095-32.873,19.725"/>
	<path fill="none" stroke="#000000" stroke-miterlimit="10" d="M65.337,40.794c0,0,7.671,6.575,6.575,17.531"/>
	<path fill="none" stroke="#000000" stroke-miterlimit="10" d="M102.594,38.603c0,0-9.862,7.67-8.766,18.629"/>
	<path fill="none" stroke="#000000" stroke-miterlimit="10" d="M88.349,103.253l2.191,28.49h6.576c0,0-1.097-37.256,5.478-47.119
		c6.575-9.861-1.096-44.925-1.096-44.925"/>
	<path fill="none" stroke="#000000" stroke-miterlimit="10" d="M81.774,104.348l-2.191,28.491h-6.575c0,0-2.191-38.352-8.766-48.214
		c-6.575-9.861-0.625-44.925-0.625-44.925"/>
	<path fill="none" stroke="#000000" stroke-miterlimit="10" d="M90.54,126.265c0,0,4.383-1.097,6.575,0"/>
	<path fill="none" stroke="#000000" stroke-miterlimit="10" d="M73.008,126.75c0,0,4.383-1.095,6.573,0"/>
	<path d="M76.548,39.885c0,1.211-0.982,2.19-2.191,2.19c-1.211,0-2.192-0.979-2.192-2.19c0-1.21,0.981-2.19,2.192-2.19
		C75.566,37.695,76.548,38.675,76.548,39.885"/>
	
		<ellipse transform="matrix(0.9782 0.2076 -0.2076 0.9782 9.4621 -14.7895)" fill="none" stroke="#000000" stroke-miterlimit="10" cx="75.205" cy="37.694" rx="3.5" ry="5"/>
	<path d="M89.706,39.885c0,1.211-0.981,2.19-2.191,2.19c-1.211,0-2.192-0.979-2.192-2.19c0-1.21,0.981-2.19,2.192-2.19
		C88.725,37.695,89.706,38.675,89.706,39.885"/>
	
		<ellipse transform="matrix(0.9782 0.2076 -0.2076 0.9782 9.7487 -17.5205)" fill="none" stroke="#000000" stroke-miterlimit="10" cx="88.363" cy="37.694" rx="3.5" ry="5"/>
</g>
</svg>
