<?xml version="1.0" encoding="utf-8"?>
<!-- Generator: Adobe Illustrator 16.2.0, SVG Export Plug-In . SVG Version: 6.00 Build 0)  -->
<!DOCTYPE svg PUBLIC "-//W3C//DTD SVG 1.1//EN" "http://www.w3.org/Graphics/SVG/1.1/DTD/svg11.dtd">
<svg version="1.1" id="Layer_1" xmlns="http://www.w3.org/2000/svg" xmlns:xlink="http://www.w3.org/1999/xlink" x="0px" y="0px"
	 width="173px" height="161px" viewBox="0 0 173 161" enable-background="new 0 0 173 161" xml:space="preserve">
<g>
	<path fill="none" stroke="#231F20" stroke-miterlimit="10" d="M22.598,50.955c0,0-1.001,5.005,1.001,7.008
		c2.003,2.004,8.511,12.015,8.511,12.015s1.503,3.504,1.503,7.011c0.5,1,3.002,1,3.002,0c0-1.003-0.5-3.007-0.5-4.007
		c0-1.001,0.5-3.504,0.5-3.504s-3.002-1-5.506-8.009c-2.003-4.508-3.504-5.008-3.504-5.008l0.5-6.006"/>
	<path fill="none" stroke="#000000" stroke-miterlimit="10" d="M32.61,71.48c0,0-1.001,4.506-2.503,5.006v0.503
		c0,0,2.002-0.503,3.004-1.503"/>
	<path fill="none" stroke="#000000" stroke-miterlimit="10" d="M31.609,50.955c0,0,0,3.505,1.001,5.506
		c1.002,2.002,0.501,9.514,0.501,9.514"/>
	<path fill="none" stroke="#000000" stroke-miterlimit="10" d="M36.615,50.455c0,0,0,4.505,0.502,6.006
		c0.5,1.502,0.5,10.014-1.503,12.517"/>
	<path fill="none" stroke="#000000" stroke-miterlimit="10" d="M35.614,23.419c-1,1.002-1.501,1.002-1.501,1.002
		s-0.5-1.502-1.002-1.002c-0.501,0.502-1.501,1.504-1.501-4.505c0-6.005-4.005-6.508-4.506-7.508
		c-0.501-1.001-1.001-3.003-1.001-5.508c0-2.503,1.502-3.504,3.003-4.504c1.502-1.002,4.005,0,4.507,2.001
		c0.5,2.003,2.001,10.014,2.001,11.014c0,1.001,1.001,2.505,1.001,4.505c0,1.292-0.417,2.795-0.982,4.505
		c-0.311,0.939-0.665,1.941-1.019,3.005c-1.001,3.003,6.006,20.025,5.506,23.028c-2.003,1.502-18.523,1.002-18.523,1.002
		c0-1.502,2.002-17.021,3.004-20.526c1.001-3.504,1.001-3.004,0.5-6.007c-0.5-3.004-1.001-3.507,0-6.007
		c1.002-2.504,0-1.502-4.505-2.504c-8.01-3.003-7.009-4.504-7.009-4.504c1.001-3.006,11.514-6.508,11.514-6.508s0.501-0.5,1.002,0"
		/>
	<path fill="none" stroke="#000000" stroke-miterlimit="10" d="M27.604,12.406c0,0-8.011,0-9.012-1.501c0,0,0.501-2.002,3.505-4.006
		c1.001,0,3.504,0.5,4.005-0.501"/>
	<path fill="none" stroke="#000000" stroke-miterlimit="10" d="M35.614,12.908c0,0,3.004,2.502,4.005,8.509s1.001,5.507,0,6.508
		c-1.001,1.001-4.005,4.005-4.005,4.005"/>
	<path fill="none" stroke="#000000" stroke-miterlimit="10" d="M35.113,29.928c0,0,2.003-2.503,2.503-3.503
		c0.501-1.001-0.5-5.008-1.002-5.508"/>
	<g>
		<defs>
			<path id="SVGID_26_" d="M70,77.107l8,9l2,32l-5,46l-70.884-0.505l-3-11l4-12l2-6c0,0-0.141-5.478,1-6c1.984-0.909,3-2,3-2
				l0.822-36.793L15,79.107c0,0,9.6-2.622,9.6-2.119c0,0.5,6.008,0,6.008,0l7.509,0.5L41,73.107l27,2"/>
		</defs>
		<clipPath id="SVGID_2_">
			<use xlink:href="#SVGID_26_"  overflow="visible"/>
		</clipPath>
		<g clip-path="url(#SVGID_2_)">
			<path fill="none" stroke="#000000" stroke-miterlimit="10" d="M-11.808,177.264c0,0,0-91.95,12.117-123.312"/>
			<path fill="none" stroke="#000000" stroke-miterlimit="10" d="M3.873,53.952c0,0-3.564,119.749,2.139,123.312"/>
			<path fill="none" stroke="#000000" stroke-miterlimit="10" d="M10.288,177.264c0,0,1.426-103.353,12.117-123.312"/>
			<path fill="none" stroke="#000000" stroke-miterlimit="10" d="M28.821,177.264c0,0,4.99-119.748-4.277-123.312"/>
			<path fill="none" stroke="#000000" stroke-miterlimit="10" d="M45.215,177.264c0,0-8.553-74.13-14.969-81.257"/>
			<path fill="none" stroke="#000000" stroke-miterlimit="10" d="M49.491,53.952c0,0-5.702,70.566-9.979,81.971"/>
			<path fill="none" stroke="#000000" stroke-miterlimit="10" d="M56.619,53.952c0,0-7.128,82.683-5.702,123.312"/>
			<path fill="none" stroke="#000000" stroke-miterlimit="10" d="M60.896,53.952c0,0-6.415,121.887,0.713,123.312"/>
			<path fill="none" stroke="#000000" stroke-miterlimit="10" d="M68.024,177.264c0,0-1.426-126.162,6.415-123.312
				c0,0,2.851,22.097,0,30.65"/>
			<line fill="none" stroke="#000000" stroke-miterlimit="10" x1="75.151" y1="177.264" x2="70.162" y2="73.911"/>
			<path fill="none" stroke="#000000" stroke-miterlimit="10" d="M82.279,177.264c0,0,14.969-52.034,1.426-123.312"/>
			<path fill="none" stroke="#000000" stroke-miterlimit="10" d="M78.003,53.952c0,0,5.702,93.375,8.553,96.226"/>
			<path fill="none" stroke="#000000" stroke-miterlimit="10" d="M97.96,177.264c0,0,6.415-104.779-2.851-123.312"/>
			<path fill="none" stroke="#000000" stroke-miterlimit="10" d="M1.021,177.264c0,0-0.678-10.27-1.213-23.521
				c-0.916-22.695-1.411-54.137,2.639-57.737"/>
			<path fill="none" stroke="#000000" stroke-miterlimit="10" d="M2.447,124.518c0.713-4.277,0,18.532-2.138,25.66"/>
			<path fill="none" stroke="#000000" stroke-miterlimit="10" d="M20.98,177.264c0,0-2.851-59.161-7.841-70.566"/>
			<path fill="none" stroke="#000000" stroke-miterlimit="10" d="M15.99,176.551c0,0,0.713-36.352,4.277-44.193
				c3.564-7.84,0-56.31-2.138-59.874"/>
			<path fill="none" stroke="#000000" stroke-miterlimit="10" d="M28.821,73.911c-0.708,6.375-1.35,6.191-12.83,39.915
				c0,0,7.128,22.81,5.702,39.918"/>
			<path fill="none" stroke="#000000" stroke-miterlimit="10" d="M11.714,53.952c0,0-2.852,52.034-8.554,68.428"/>
			<line fill="none" stroke="#000000" stroke-miterlimit="10" x1="40.225" y1="53.952" x2="35.948" y2="112.4"/>
			<line fill="none" stroke="#000000" stroke-miterlimit="10" x1="33.81" y1="53.952" x2="32.385" y2="99.57"/>
			<path fill="none" stroke="#000000" stroke-miterlimit="10" d="M35.948,53.952c0,0-1.426,32.788,0.713,40.63"/>
			<path fill="none" stroke="#000000" stroke-miterlimit="10" d="M43.789,53.952c0,0-1.612,6.771-3.101,13.156
				c-0.725,3.11-1.421,6.126-1.888,8.227"/>
			<path fill="none" stroke="#000000" stroke-miterlimit="10" d="M-2.542,53.952c0,0,4.989,26.374,4.989,31.362"/>
			<path fill="none" stroke="#000000" stroke-miterlimit="10" d="M1.734,53.952c0,0,0,9.266-0.713,15.682"/>
			<path fill="none" stroke="#000000" stroke-miterlimit="10" d="M5.299,53.952c0,0,4.276,14.968,4.276,19.959"/>
			<path fill="none" stroke="#000000" stroke-miterlimit="10" d="M8.149,53.952c0,0,0,1.425-0.713,6.416"/>
			<path fill="none" stroke="#000000" stroke-miterlimit="10" d="M10.288,53.952c0,0-1.426,9.979-2.139,12.118"/>
			<path fill="none" stroke="#000000" stroke-miterlimit="10" d="M3.16,103.847c0,0,1.426,4.989,2.139,8.553"/>
			<path fill="none" stroke="#000000" stroke-miterlimit="10" d="M3.873,80.325c0,0,1.371,2.742,2.561,6.415
				c0.911,2.815,1.716,6.174,1.716,9.267"/>
			<path fill="none" stroke="#000000" stroke-miterlimit="10" d="M3.873,105.272c0,0,0.713-15.681,1.426-19.245"/>
			<path fill="none" stroke="#000000" stroke-miterlimit="10" d="M6.724,90.304c0,0-1.425,15.682-2.138,18.532"/>
			<path fill="none" stroke="#000000" stroke-miterlimit="10" d="M6.012,57.516c0,0,0,20.671-1.426,23.523"/>
			<path fill="none" stroke="#000000" stroke-miterlimit="10" d="M6.012,86.027c0,0,1.425-15.68,2.138-19.246"/>
			<path fill="none" stroke="#000000" stroke-miterlimit="10" d="M8.862,73.197c0,0-1.426,12.117-0.713,14.255"/>
			<path fill="none" stroke="#000000" stroke-miterlimit="10" d="M19.554,62.506c0,0,5.702,22.808,4.99,27.798
				c0,0,4.99,14.968,4.277,19.959"/>
			<path fill="none" stroke="#000000" stroke-miterlimit="10" d="M18.129,68.208c0,0,4.989,15.682,4.989,23.521"/>
			<path fill="none" stroke="#000000" stroke-miterlimit="10" d="M23.831,53.952c0,0,1.426,27.799,2.138,29.938"/>
			<path fill="none" stroke="#000000" stroke-miterlimit="10" d="M20.98,56.803c0,0,2.851,12.117,2.138,19.246"/>
			<path fill="none" stroke="#000000" stroke-miterlimit="10" d="M27.395,62.506c0,0-0.713,10.691,0,17.106"/>
			<path fill="none" stroke="#000000" stroke-miterlimit="10" d="M-4.681,73.911c0,0,4.99,19.958,4.277,28.51"/>
			<path fill="none" stroke="#000000" stroke-miterlimit="10" d="M-0.404,67.495c0,4.277-2.851,9.266-2.851,9.266
				s3.564,4.99,4.276,19.958"/>
			<path fill="none" stroke="#000000" stroke-miterlimit="10" d="M-2.542,66.069c0,0,4.989,24.948,4.276,30.649"/>
			<path fill="none" stroke="#000000" stroke-miterlimit="10" d="M-0.404,109.55c0,0,0.713,12.83,2.851,18.532"/>
			<path fill="none" stroke="#000000" stroke-miterlimit="10" d="M1.021,117.389c0,0,0.713-12.83,0-16.394"/>
			<path fill="none" stroke="#000000" stroke-miterlimit="10" d="M1.021,125.23c0,0-0.712,12.831,0.713,17.108"/>
			<path fill="none" stroke="#000000" stroke-miterlimit="10" d="M3.873,177.264c0,0-2.139-14.968-3.564-19.246"/>
			<path fill="none" stroke="#000000" stroke-miterlimit="10" d="M0.309,151.603c0,0,0,4.278,2.138,8.554
				c2.139,4.277,6.415,15.682,6.415,17.107"/>
			<path fill="none" stroke="#000000" stroke-miterlimit="10" d="M6.724,176.551c0,0,0-25.661,4.277-34.926"/>
			<path fill="none" stroke="#000000" stroke-miterlimit="10" d="M3.873,120.241c0,0,3.563,34.926,6.415,39.203"/>
			<path fill="none" stroke="#000000" stroke-miterlimit="10" d="M12.427,114.539c-1.426,6.416-8.554,39.916-8.554,39.916
				s2.851,9.979,6.415,12.83"/>
			<path fill="none" stroke="#000000" stroke-miterlimit="10" d="M3.16,137.348c0,0,7.841-23.522,9.267-32.076"/>
			<path fill="none" stroke="#000000" stroke-miterlimit="10" d="M5.299,115.964c0,0,6.415-19.246,8.553-27.799"/>
			<path fill="none" stroke="#000000" stroke-miterlimit="10" d="M8.149,97.431c0,0,1.426,26.373-1.425,35.64"/>
			<path fill="none" stroke="#000000" stroke-miterlimit="10" d="M6.012,114.539c0,0,0,9.266,0,12.83"/>
			<path fill="none" stroke="#000000" stroke-miterlimit="10" d="M9.575,143.763c0,0,0-9.266-0.713-14.256"/>
			<path fill="none" stroke="#000000" stroke-miterlimit="10" d="M5.299,138.061c0,0-2.852,14.255-4.277,14.255"/>
			<path fill="none" stroke="#000000" stroke-miterlimit="10" d="M5.299,150.178c-0.209-1.466,1.733,10.441,4.276,14.256"/>
			<path fill="none" stroke="#000000" stroke-miterlimit="10" d="M3.873,158.018c0,0,3.563,12.118,5.702,12.83"/>
			<path fill="none" stroke="#000000" stroke-miterlimit="10" d="M13.139,177.264c0,0,1.425-24.234-1.425-27.798"/>
			<path fill="none" stroke="#000000" stroke-miterlimit="10" d="M15.277,118.815c0,0,1.426,29.225-2.138,33.501"/>
			<path fill="none" stroke="#000000" stroke-miterlimit="10" d="M12.427,125.943c0,0,0.712,17.82,4.276,22.097"/>
			<path fill="none" stroke="#000000" stroke-miterlimit="10" d="M11.714,142.338c0,0,4.276,9.978,4.276,14.255"/>
			<path fill="none" stroke="#000000" stroke-miterlimit="10" d="M11.001,160.869c0,0,5.702,14.969,8.553,15.682"/>
			<path fill="none" stroke="#000000" stroke-miterlimit="10" d="M15.277,167.998c0,0,14.969-23.522,14.969-36.353"/>
			<path fill="none" stroke="#000000" stroke-miterlimit="10" d="M13.852,158.731c0,0,4.99,11.405,4.99,15.683"/>
			<path fill="none" stroke="#000000" stroke-miterlimit="10" d="M17.416,156.593c0,0,6.415,14.967,9.979,19.958"/>
			<path fill="none" stroke="#000000" stroke-miterlimit="10" d="M22.406,176.551c0,0,5.702-38.49-0.713-49.895"/>
			<path fill="none" stroke="#000000" stroke-miterlimit="10" d="M13.139,53.952c0,0,2.851,14.968,3.564,20.671"/>
			<path fill="none" stroke="#000000" stroke-miterlimit="10" d="M11.714,60.367c0,0,10.692,60.587,18.532,64.863"/>
			<path fill="none" stroke="#000000" stroke-miterlimit="10" d="M17.416,109.55c0,0,24.947,55.596,23.522,67.714"/>
			<path fill="none" stroke="#000000" stroke-miterlimit="10" d="M17.416,53.952c0,0-4.277,32.076-8.554,39.917"/>
			<path fill="none" stroke="#000000" stroke-miterlimit="10" d="M15.277,53.952c0,0-2.138,17.82-5.702,26.374"/>
			<path fill="none" stroke="#000000" stroke-miterlimit="10" d="M19.554,53.952c0,0-2.851,14.256-3.564,15.682"/>
			<path fill="none" stroke="#000000" stroke-miterlimit="10" d="M13.139,82.463c0,0,4.99,32.076,7.841,39.917"/>
			<path fill="none" stroke="#000000" stroke-miterlimit="10" d="M11.001,111.687c0,0,2.138-22.809-0.713-27.085"/>
			<path fill="none" stroke="#000000" stroke-miterlimit="10" d="M19.554,82.463c0,0-3.564,22.809-4.99,27.087"/>
			<path fill="none" stroke="#000000" stroke-miterlimit="10" d="M18.842,77.475c0,0-5.703,20.67-7.128,22.095"/>
			<path fill="none" stroke="#000000" stroke-miterlimit="10" d="M26.682,83.889c0,0,2.851,27.085,8.553,30.649"/>
			<path fill="none" stroke="#000000" stroke-miterlimit="10" d="M30.959,85.314c0,0-7.128,14.969-8.553,24.236"/>
			<path fill="none" stroke="#000000" stroke-miterlimit="10" d="M31.672,71.771c0,0-3.564,19.246-10.692,27.798"/>
			<path fill="none" stroke="#000000" stroke-miterlimit="10" d="M27.395,53.952c0,0,8.553,29.938,8.553,46.331"/>
			<path fill="none" stroke="#000000" stroke-miterlimit="10" d="M25.257,127.368c0,0,7.841-24.947,9.266-31.362"/>
			<path fill="none" stroke="#000000" stroke-miterlimit="10" d="M24.544,107.411c0,0,10.692,25.66,11.405,32.788
				c0,0-2.851,22.097-5.702,27.799"/>
			<path fill="none" stroke="#000000" stroke-miterlimit="10" d="M21.693,164.434c0,0,9.979-20.67,10.692-34.927"/>
			<path fill="none" stroke="#000000" stroke-miterlimit="10" d="M23.831,130.934c0,0,10.692,36.351,11.405,46.33"/>
			<path fill="none" stroke="#000000" stroke-miterlimit="10" d="M22.406,146.614c0,0,5.702,22.809,8.553,29.937"/>
			<path fill="none" stroke="#000000" stroke-miterlimit="10" d="M31.672,136.635c0,0,5.702,34.213,5.702,40.629"/>
			<path fill="none" stroke="#000000" stroke-miterlimit="10" d="M33.81,135.208c0,0-2.138,24.948-8.553,27.8"/>
			<path fill="none" stroke="#000000" stroke-miterlimit="10" d="M22.406,115.25c0,0,3.564,12.831,6.415,13.543"/>
			<path fill="none" stroke="#000000" stroke-miterlimit="10" d="M30.959,53.952c0,0,2.138,12.83,6.415,29.225"/>
			<path fill="none" stroke="#000000" stroke-miterlimit="10" d="M29.533,53.952c0,0,2.138,12.83,2.138,14.968"/>
			<path fill="none" stroke="#000000" stroke-miterlimit="10" d="M47.353,177.264L38.8,140.912
				C20.267,81.75,11.001,78.899,11.001,78.899"/>
			<path fill="none" stroke="#000000" stroke-miterlimit="10" d="M50.204,133.784c0,0-9.266,36.352-10.692,42.767"/>
			<path fill="none" stroke="#000000" stroke-miterlimit="10" d="M41.651,131.645c0,0,4.99,40.629,7.128,45.619"/>
			<path fill="none" stroke="#000000" stroke-miterlimit="10" d="M34.523,114.539c0,0,2.138,7.841,1.426,15.682"/>
			<path fill="none" stroke="#000000" stroke-miterlimit="10" d="M32.385,112.4c0,0,0.713,7.128,1.426,12.117"/>
			<path fill="none" stroke="#000000" stroke-miterlimit="10" d="M30.246,79.613c0,0,9.979,36.352,11.405,40.628"/>
			<path fill="none" stroke="#000000" stroke-miterlimit="10" d="M36.661,110.975c0,0,9.266,27.798,9.266,34.928"/>
			<path fill="none" stroke="#000000" stroke-miterlimit="10" d="M36.661,55.377c0,0,9.266,32.788,15.681,39.205"/>
			<path fill="none" stroke="#000000" stroke-miterlimit="10" d="M45.215,53.952c0,0-0.713,24.235-7.128,39.917"/>
			<path fill="none" stroke="#000000" stroke-miterlimit="10" d="M42.363,63.218c0,0-0.713,29.937,2.138,38.491"/>
			<path fill="none" stroke="#000000" stroke-miterlimit="10" d="M39.512,91.018c0,0,4.277,41.34,7.841,49.181"/>
			<path fill="none" stroke="#000000" stroke-miterlimit="10" d="M37.374,96.719c0,0,7.841,22.81,9.266,33.501"/>
			<path fill="none" stroke="#000000" stroke-miterlimit="10" d="M36.661,143.763c0,0,7.128,27.797,6.415,32.788"/>
			<path fill="none" stroke="#000000" stroke-miterlimit="10" d="M35.236,149.465c0,0,5.702,12.83,5.702,18.532"/>
			<path fill="none" stroke="#000000" stroke-miterlimit="10" d="M37.374,158.018c0,0,4.99-11.404,8.553-24.234"/>
			<path fill="none" stroke="#000000" stroke-miterlimit="10" d="M33.81,145.902c0,0,7.128-4.991,8.553-10.694"/>
			<path fill="none" stroke="#000000" stroke-miterlimit="10" d="M47.353,53.952c0,0,2.851,52.034-2.138,68.428"/>
			<path fill="none" stroke="#000000" stroke-miterlimit="10" d="M44.502,66.069c0,0,0.713,44.905,6.415,56.31"/>
			<path fill="none" stroke="#000000" stroke-miterlimit="10" d="M51.63,53.952c0,0,1.426,41.341-2.851,51.32"/>
			<path fill="none" stroke="#000000" stroke-miterlimit="10" d="M48.778,64.644c0,0,6.415,47.757,8.553,59.874"/>
			<path fill="none" stroke="#000000" stroke-miterlimit="10" d="M48.066,83.177c0,0,5.702-7.128,5.702-29.225"/>
			<path fill="none" stroke="#000000" stroke-miterlimit="10" d="M-10.383,140.199c0,0,12.83,24.235,10.692,30.649"/>
			<path fill="none" stroke="#000000" stroke-miterlimit="10" d="M15.99,134.498c0,0,12.117,11.405,12.117,12.83"/>
			<path fill="none" stroke="#000000" stroke-miterlimit="10" d="M31.672,171.561c0,0-2.851-15.68-6.415-19.958"/>
			<path fill="none" stroke="#000000" stroke-miterlimit="10" d="M48.778,117.389c0,0,2.138,39.917-3.564,45.62"/>
			<path fill="none" stroke="#000000" stroke-miterlimit="10" d="M52.342,176.551c0,0,6.415-41.342-0.713-52.747"/>
			<path fill="none" stroke="#000000" stroke-miterlimit="10" d="M51.63,138.773c0,0,4.277,32.788,3.564,38.491"/>
			<path fill="none" stroke="#000000" stroke-miterlimit="10" d="M47.353,159.443c0,0,2.851,17.82,4.99,18.534"/>
			<path fill="none" stroke="#000000" stroke-miterlimit="10" d="M46.64,150.178c0,0,4.99,19.245,6.415,22.096"/>
			<path fill="none" stroke="#000000" stroke-miterlimit="10" d="M48.066,105.986c0,0,9.979,19.957,12.117,34.213
				c2.138,14.256,5.702,37.065,5.702,37.065"/>
			<path fill="none" stroke="#000000" stroke-miterlimit="10" d="M38.8,55.377c0,0,18.532,15.682,19.245,32.788"/>
			<path fill="none" stroke="#000000" stroke-miterlimit="10" d="M65.885,53.952c0,0,1.426,36.353-12.117,47.044"/>
			<path fill="none" stroke="#000000" stroke-miterlimit="10" d="M63.747,53.952c0,0-1.426,48.469,2.851,57.735"/>
			<path fill="none" stroke="#000000" stroke-miterlimit="10" d="M58.757,134.498c0,0,10.692-24.234,9.979-42.055"/>
			<path fill="none" stroke="#000000" stroke-miterlimit="10" d="M68.024,166.573c0,0,2.616-9.108,5.919-21.465
				c5.656-21.159,13.326-51.845,13.326-62.645"/>
			<path fill="none" stroke="#000000" stroke-miterlimit="10" d="M70.875,76.048c0,0,0.275,2.265,0.757,6.059
				c2.311,18.22,9.369,71.683,13.499,78.762"/>
			<path fill="none" stroke="#000000" stroke-miterlimit="10" d="M85.13,167.284c0,0,24.234-52.034,22.809-63.437"/>
			<path fill="none" stroke="#000000" stroke-miterlimit="10" d="M86.556,69.634c0,0,19.245,34.926,19.245,44.191"/>
			<path fill="none" stroke="#000000" stroke-miterlimit="10" d="M89.407,110.263c0,0,18.533-39.916,18.533-50.609"/>
			<path fill="none" stroke="#000000" stroke-miterlimit="10" d="M94.396,101.708c0,0,1.426,64.864,4.277,68.427"/>
			<path fill="none" stroke="#000000" stroke-miterlimit="10" d="M82.992,120.955c0,0,9.266,49.894,9.979,56.309"/>
			<path fill="none" stroke="#000000" stroke-miterlimit="10" d="M78.003,60.367c0,0-2.138,65.576-4.99,71.277"/>
			<path fill="none" stroke="#000000" stroke-miterlimit="10" d="M58.757,115.25c0,0,4.99,28.513,8.553,35.64"/>
			<path fill="none" stroke="#000000" stroke-miterlimit="10" d="M59.47,96.006c0,0,12.83,43.479,12.83,52.746"/>
			<path fill="none" stroke="#000000" stroke-miterlimit="10" d="M91.545,53.952c0,0-12.83,28.511-14.969,47.757"/>
			<path fill="none" stroke="#000000" stroke-miterlimit="10" d="M100.812,53.952c0,0,4.277,34.926,4.989,42.767
				c0.713,7.841-12.83,58.448-14.968,66.29"/>
			<path fill="none" stroke="#000000" stroke-miterlimit="10" d="M103.663,123.804c0,0,2.851,47.044,2.851,53.459"/>
			<path fill="none" stroke="#000000" stroke-miterlimit="10" d="M83.705,106.698c0,0,9.979,70.566,20.671,71.28"/>
			<path fill="none" stroke="#000000" stroke-miterlimit="10" d="M107.227,123.093c0,0-7.128,36.351-6.415,54.171"/>
			<path fill="none" stroke="#000000" stroke-miterlimit="10" d="M82.992,133.071c0,0-3.564,34.213-4.277,44.193"/>
			<path fill="none" stroke="#000000" stroke-miterlimit="10" d="M82.992,123.804c0,0-12.117,34.927-12.83,53.459"/>
			<path fill="none" stroke="#000000" stroke-miterlimit="10" d="M58.045,148.04c0,0,4.99,17.82,4.99,29.224"/>
			<path fill="none" stroke="#000000" stroke-miterlimit="10" d="M67.311,126.656c0,0-8.553,44.192-9.979,49.895
				c-1.487,5.948-11.405-44.906-11.405-44.906"/>
			<path fill="none" stroke="#000000" stroke-miterlimit="10" d="M54.481,130.934c0,0,2.138,31.362,3.564,35.639"/>
			<path fill="none" stroke="#000000" stroke-miterlimit="10" d="M57.332,130.22c0,0-2.138,7.127-2.138,10.691"/>
			<path fill="none" stroke="#000000" stroke-miterlimit="10" d="M62.321,106.698c0,0-1.426,14.969-2.851,15.682"/>
			<path fill="none" stroke="#000000" stroke-miterlimit="10" d="M65.173,76.761c0,0-0.713,14.257,3.564,17.821"/>
			<path fill="none" stroke="#000000" stroke-miterlimit="10" d="M67.311,61.08c0,0,2.138,14.255,2.138,20.671"/>
			<path fill="none" stroke="#000000" stroke-miterlimit="10" d="M68.736,54.665c0,0,4.99,25.661,6.415,36.353"/>
			<path fill="none" stroke="#000000" stroke-miterlimit="10" d="M71.587,53.952c0,0,3.564,9.979,2.138,24.235"/>
			<path fill="none" stroke="#000000" stroke-miterlimit="10" d="M81.566,53.952c0,0-0.713,34.213,2.851,44.193"/>
			<path fill="none" stroke="#000000" stroke-miterlimit="10" d="M80.854,94.582c0,0-0.713,13.542-3.564,20.669"/>
			<path fill="none" stroke="#000000" stroke-miterlimit="10" d="M79.428,91.729c0,0-2.138,19.246,0,29.226"/>
			<path fill="none" stroke="#000000" stroke-miterlimit="10" d="M80.141,153.743c-7.841-7.841-11.405-40.629-11.405-40.629
				s2.851-7.128,4.277-12.831"/>
			<path fill="none" stroke="#000000" stroke-miterlimit="10" d="M63.034,149.465c0,0,10.692,21.383,9.979,27.085"/>
			<path fill="none" stroke="#000000" stroke-miterlimit="10" d="M63.747,159.443c0,0,3.564,13.543,7.128,17.107"/>
			<path fill="none" stroke="#000000" stroke-miterlimit="10" d="M75.151,150.89c0,0,9.979,14.255,8.553,25.661"/>
			<path fill="none" stroke="#000000" stroke-miterlimit="10" d="M87.981,161.582c0,0,0,12.832,0.713,15.682
				c1.093,4.373-14.256-22.809-14.256-22.809"/>
			<path fill="none" stroke="#000000" stroke-miterlimit="10" d="M85.843,165.859c0,0,0.713,8.554,4.277,11.404
				c0,0,18.532-23.521,17.82-35.639"/>
			<path fill="none" stroke="#000000" stroke-miterlimit="10" d="M84.417,141.625c0,0-1.425,18.532-3.564,20.671"/>
			<path fill="none" stroke="#000000" stroke-miterlimit="10" d="M85.13,106.698c0,0,5.702,38.491,8.553,39.205"/>
			<path fill="none" stroke="#000000" stroke-miterlimit="10" d="M81.566,99.57c0,0,13.543,15.681,13.543,39.916"/>
			<path fill="none" stroke="#000000" stroke-miterlimit="10" d="M90.12,119.528c0,0,9.979,29.937,12.117,34.215"/>
			<path fill="none" stroke="#000000" stroke-miterlimit="10" d="M90.12,125.23c0,0,9.266,45.618,14.969,46.331"/>
			<path fill="none" stroke="#000000" stroke-miterlimit="10" d="M107.939,154.455c0,0-9.979,18.532-12.83,22.096
				s12.117-13.542,12.117-13.542"/>
			<path fill="none" stroke="#000000" stroke-miterlimit="10" d="M56.619,113.114c0,0,1.426-17.821-2.851-26.374"/>
			<path fill="none" stroke="#000000" stroke-miterlimit="10" d="M58.757,53.952c0,0-0.713,35.639,3.564,44.193"/>
			<path fill="none" stroke="#000000" stroke-miterlimit="10" d="M56.619,68.92c0,0,0,18.532,0.713,24.235"/>
			<path fill="none" stroke="#000000" stroke-miterlimit="10" d="M87.981,53.239c0,0,4.989,40.629,6.415,44.906"/>
			<path fill="none" stroke="#000000" stroke-miterlimit="10" d="M90.833,115.964c0,0-0.713-51.321,6.415-52.747"/>
			<path fill="none" stroke="#000000" stroke-miterlimit="10" d="M95.109,124.518c0,0,7.128-35.64,12.83-32.789"/>
			<path fill="none" stroke="#000000" stroke-miterlimit="10" d="M95.109,129.507c0,0,10.691-32.788,12.83-31.362"/>
			<path fill="none" stroke="#000000" stroke-miterlimit="10" d="M103.663,143.05c0,0-6.415-45.619-11.405-47.043"/>
			<path fill="none" stroke="#000000" stroke-miterlimit="10" d="M92.258,115.964c0,0,11.405-22.096,2.138-39.916"/>
			<path fill="none" stroke="#000000" stroke-miterlimit="10" d="M82.992,83.177c0,0,10.692-29.225,16.394-29.225"/>
			<path fill="none" stroke="#000000" stroke-miterlimit="10" d="M107.939,84.602c0,0-2.139-26.373-3.564-31.363"/>
			<path fill="none" stroke="#000000" stroke-miterlimit="10" d="M106.514,53.952c0,0-13.543,19.246-13.543,24.235"/>
			<path fill="none" stroke="#000000" stroke-miterlimit="10" d="M102.95,53.952c0,0-2.139,19.246-5.702,25.661"/>
			<path fill="none" stroke="#000000" stroke-miterlimit="10" d="M102.237,95.292c0,0-3.564-29.937,4.99-37.064"/>
			<path fill="none" stroke="#000000" stroke-miterlimit="10" d="M86.556,105.986c0,0,0.713-18.534-1.426-24.235"/>
			<path fill="none" stroke="#000000" stroke-miterlimit="10" d="M66.598,84.602c0,0,0.713-11.404,2.138-11.404"/>
			<path fill="none" stroke="#000000" stroke-miterlimit="10" d="M58.757,109.55c0,0,9.266-9.98,9.979-13.543"/>
			<path fill="none" stroke="#000000" stroke-miterlimit="10" d="M60.183,140.199c0,0,4.277-20.67,8.553-21.384"/>
			<path fill="none" stroke="#000000" stroke-miterlimit="10" d="M70.875,155.88c0,0-2.851-17.107-7.128-24.947"/>
			<path fill="none" stroke="#000000" stroke-miterlimit="10" d="M76.577,157.307c0,0,3.564-9.979,4.277-16.395"/>
			<path fill="none" stroke="#000000" stroke-miterlimit="10" d="M75.151,126.656c0,0,2.851,17.819,3.564,20.671"/>
			<path fill="none" stroke="#000000" stroke-miterlimit="10" d="M79.428,55.377c0,0,4.277,9.267,4.277,14.97"/>
			<path fill="none" stroke="#000000" stroke-miterlimit="10" d="M95.822,94.582c0,0-1.426-9.98-8.553-14.969"/>
			<path fill="none" stroke="#000000" stroke-miterlimit="10" d="M90.12,53.952c0,0,5.702,22.809,7.841,22.809"/>
			<path fill="none" stroke="#000000" stroke-miterlimit="10" d="M92.971,53.952c0,0,3.564,17.82,5.703,18.533"/>
			<path fill="none" stroke="#000000" stroke-miterlimit="10" d="M106.514,78.187c0,0-1.426,21.383-3.564,24.234"/>
			<path fill="none" stroke="#000000" stroke-miterlimit="10" d="M107.939,116.677c0,0-2.851,6.416-3.564,13.543"/>
			<path fill="none" stroke="#000000" stroke-miterlimit="10" d="M107.939,138.061c0,0-2.851-19.958-4.277-22.81"/>
		</g>
		<path clip-path="url(#SVGID_2_)" fill="none" stroke="#000000" stroke-miterlimit="10" d="M42,98.107c3,8-4-26-2-33s6,1,6,1
			s2,4,0,14s12-1,6-17s10-26,10-2s2,26-2,33s-13,17-13,28s-28-27-28-27s-4,22-6,36"/>
	</g>
	<path fill="none" stroke="#231F20" stroke-miterlimit="10" d="M71.659,71.107"/>
</g>
</svg>
