<?xml version="1.0" encoding="utf-8"?>
<!-- Generator: Adobe Illustrator 16.2.0, SVG Export Plug-In . SVG Version: 6.00 Build 0)  -->
<!DOCTYPE svg PUBLIC "-//W3C//DTD SVG 1.1//EN" "http://www.w3.org/Graphics/SVG/1.1/DTD/svg11.dtd">
<svg version="1.1" id="Layer_1" xmlns="http://www.w3.org/2000/svg" xmlns:xlink="http://www.w3.org/1999/xlink" x="0px" y="0px"
	 width="173px" height="173px" viewBox="0 0 173 173" enable-background="new 0 0 173 173" xml:space="preserve">
<g>
	<g opacity="0.5">
		<g>
			<polyline fill="none" stroke="#E0E0E0" stroke-miterlimit="10" points="111.5,17 45.5,1 37.5,7 65.5,92 15,107 47,132 144.5,85 
				164,142 157.5,159 			"/>
			<polyline fill="none" stroke="#E0E0E0" stroke-miterlimit="10" points="169,0 144.5,85 157.5,159 119,128 			"/>
			<polyline fill="none" stroke="#E0E0E0" stroke-miterlimit="10" points="143.5,85 96.5,133 156.5,159 78.5,173 96.5,133 76,103 
				65.5,92 111.5,17 143.5,85 120,4 			"/>
			<polyline fill="none" stroke="#E0E0E0" stroke-miterlimit="10" points="69.5,85 38.5,7 109.5,18 			"/>
			<polygon fill="none" stroke="#E0E0E0" stroke-miterlimit="10" points="10,56 37.5,7 6,24 			"/>
			<line fill="none" stroke="#E0E0E0" stroke-miterlimit="10" x1="16" y1="107" x2="37.5" y2="7"/>
			<line fill="none" stroke="#E0E0E0" stroke-miterlimit="10" x1="27" y1="103" x2="38" y2="8"/>
			<polyline fill="none" stroke="#E0E0E0" stroke-miterlimit="10" points="120,5 112.147,17 112.5,18 76,102 			"/>
			<line fill="none" stroke="#E0E0E0" stroke-miterlimit="10" x1="164" y1="15" x2="112.147" y2="17"/>
			<polyline fill="none" stroke="#E0E0E0" stroke-miterlimit="10" points="112.5,18 155,52 163,85 144,86 			"/>
			<polyline fill="none" stroke="#E0E0E0" stroke-miterlimit="10" points="155.5,159 78.5,153 3.5,156 5,159 64.167,172.333 
				79.5,152 48,133 			"/>
			<polyline fill="none" stroke="#E0E0E0" stroke-miterlimit="10" points="65.5,93 64.167,172.333 103.5,88 157.5,159 			"/>
			<polyline fill="none" stroke="#E0E0E0" stroke-miterlimit="10" points="96.5,132 103.5,88 111.5,21 			"/>
			<line fill="none" stroke="#E0E0E0" stroke-miterlimit="10" x1="78.5" y1="173" x2="78.5" y2="153"/>
			<polyline fill="none" stroke="#E0E0E0" stroke-miterlimit="10" points="113,100 124,45 103.5,88 			"/>
		</g>
		<line fill="none" stroke="#E0E0E0" stroke-miterlimit="10" x1="120" y1="109" x2="132" y2="61"/>
		<polyline fill="none" stroke="#E0E0E0" stroke-miterlimit="10" points="76,103 65,123 15,107 64,118 		"/>
		<line fill="none" stroke="#E0E0E0" stroke-miterlimit="10" x1="120" y1="110" x2="117" y2="142"/>
		<line fill="none" stroke="#E0E0E0" stroke-miterlimit="10" x1="47" y1="132" x2="3.5" y2="156"/>
		<polyline fill="none" stroke="#E0E0E0" stroke-miterlimit="10" points="15,108 37,137 29,155 		"/>
		<polyline fill="none" stroke="#E0E0E0" stroke-miterlimit="10" points="44,29 34.333,58 32,65 65.5,92 39,47 		"/>
		<polyline fill="none" stroke="#E0E0E0" stroke-miterlimit="10" points="89,52 56,10 51,36 73,79 		"/>
		<line fill="none" stroke="#E0E0E0" stroke-miterlimit="10" x1="124" y1="16" x2="169" y2="1"/>
		<polyline fill="none" stroke="#E0E0E0" stroke-miterlimit="10" points="26,58 7,24 33,29 		"/>
		<line fill="none" stroke="#E0E0E0" stroke-miterlimit="10" x1="163" y1="85" x2="137" y2="61"/>
		<line fill="none" stroke="#E0E0E0" stroke-miterlimit="10" x1="56" y1="11" x2="87" y2="57"/>
		<polyline fill="none" stroke="#E0E0E0" stroke-miterlimit="10" points="82,64 57,11 103,30 		"/>
		<line fill="none" stroke="#E0E0E0" stroke-miterlimit="10" x1="105" y1="27" x2="57" y2="11"/>
		<polyline fill="none" stroke="#E0E0E0" stroke-miterlimit="10" points="65,97 16,107 65,102 		"/>
		<polyline fill="none" stroke="#E0E0E0" stroke-miterlimit="10" points="32,65 31.946,66 30,102 		"/>
		<polyline fill="none" stroke="#E0E0E0" stroke-miterlimit="10" points="55,95 32,66 60,93 		"/>
		<line fill="none" stroke="#E0E0E0" stroke-miterlimit="10" x1="120" y1="116" x2="157" y2="158"/>
		<line fill="none" stroke="#E0E0E0" stroke-miterlimit="10" x1="56" y1="10" x2="101" y2="34"/>
		<polyline fill="none" stroke="#E0E0E0" stroke-miterlimit="10" points="22,163 64,154 33,165 		"/>
		<polyline fill="none" stroke="#E0E0E0" stroke-miterlimit="10" points="46,168 64,154 42,167 		"/>
		<line fill="none" stroke="#E0E0E0" stroke-miterlimit="10" x1="16" y1="161" x2="60" y2="155"/>
		<line fill="none" stroke="#E0E0E0" stroke-miterlimit="10" x1="7" y1="159" x2="51" y2="155"/>
		<path fill="none" stroke="#E0E0E0" stroke-miterlimit="10" d="M51,169l13-15c0,0-10,16-9,16"/>
	</g>
	<path fill="none" stroke="#231F20" stroke-miterlimit="10" d="M19.074,57.892c6-22,14-1,13-7s7,0,7-8c0-15,7-2,9-8s-4-7-10-10
		s-20-6-25,8s4,25,4,25l-2,7c0,0-15,17-14,40s13,51,13,51"/>
	<line fill="none" stroke="#231F20" stroke-miterlimit="10" x1="19.074" y1="57.892" x2="17.074" y2="57.892"/>
	<path fill="none" stroke="#231F20" stroke-miterlimit="10" d="M46.074,36.892c0,0,3,8,2,11s4,8-1,10s2,17-10,12c0,0-6,0-4,10
		c1.387,6.934,17,11,17,46"/>
	<path fill="none" stroke="#231F20" stroke-miterlimit="10" d="M41.074,106.892c0,0,5,15,5,20"/>
	<path fill="none" stroke="#231F20" stroke-miterlimit="10" d="M53.074,147.892c0,0-1,5-1,8"/>
	<path fill="none" stroke="#231F20" stroke-miterlimit="10" d="M46.074,127.892c4-4,19-4,25-9c4,1,6,12,6,12s-5,3-12,9s-15,11-31,8
		s-21-36-21-36"/>
	<path fill="none" stroke="#231F20" stroke-miterlimit="10" d="M74.074,120.892c0,0,5-8,7-8c0.845,0,2.405-0.536,4-1.004
		c2.179-0.639,4.423-1.151,5,0.004c1,2,0.83,11.924,0,14c-2,5-10,1-14,3"/>
	<path fill="none" stroke="#231F20" stroke-miterlimit="10" d="M88.158,83.046c0,1.81-1.468,3.278-3.278,3.278
		s-3.934-2.123-3.934-3.934c0-1.809,1.468-3.277,3.278-3.277C86.035,79.114,88.158,81.237,88.158,83.046z"/>
	<path fill="none" stroke="#231F20" stroke-miterlimit="10" d="M83.569,79.113c0,0-1.311-5.901-1.311-7.867
		c0-1.967,2.622-1.967,2.622-1.967s1.311,0,1.311,1.967c0,1.966-0.655,7.867-0.655,7.867"/>
	<path fill="none" stroke="#231F20" stroke-miterlimit="10" d="M81.097,80.424c0,0-4.929-3.498-6.248-4.956
		c-1.319-1.46,0.626-3.218,0.626-3.218s0.973-0.879,2.292,0.579c1.318,1.46,4.789,6.276,4.789,6.276"/>
	<path fill="none" stroke="#231F20" stroke-miterlimit="10" d="M80.738,83.285c0,0-6.014,0.598-7.967,0.363
		c-1.953-0.234-1.64-2.838-1.64-2.838s0.157-1.301,2.11-1.066c1.952,0.234,7.732,1.588,7.732,1.588"/>
	<path fill="none" stroke="#231F20" stroke-miterlimit="10" d="M82.257,85.699c0,0-4.11,4.433-5.728,5.549
		c-1.618,1.118-3.109-1.039-3.109-1.039s-0.744-1.08,0.874-2.197c1.618-1.118,6.846-3.93,6.846-3.93"/>
	<path fill="none" stroke="#231F20" stroke-miterlimit="10" d="M84.456,86.21c0,0-0.362,6.033-0.903,7.923
		c-0.542,1.893-3.062,1.171-3.062,1.171s-1.261-0.362-0.72-2.252c0.541-1.891,2.795-7.384,2.795-7.384"/>
	<path fill="none" stroke="#231F20" stroke-miterlimit="10" d="M86.712,85.669c0,0,3.365,5.021,4.079,6.852
		c0.715,1.834-1.728,2.787-1.728,2.787s-1.222,0.476-1.936-1.356c-0.715-1.832-2.248-7.568-2.248-7.568"/>
	<path fill="none" stroke="#231F20" stroke-miterlimit="10" d="M88.328,83.702c0,0,5.56,2.371,7.158,3.515
		c1.6,1.147,0.072,3.277,0.072,3.277s-0.764,1.066-2.362-0.079c-1.599-1.146-6.014-5.115-6.014-5.115"/>
	<path fill="none" stroke="#231F20" stroke-miterlimit="10" d="M88.202,81.562c0,0,5.928-1.18,7.893-1.137
		c1.968,0.044,1.909,2.665,1.909,2.665s-0.029,1.311-1.996,1.267c-1.966-0.043-7.85-0.829-7.85-0.829"/>
	<path fill="none" stroke="#231F20" stroke-miterlimit="10" d="M86.191,79.117c0,0,4.19-4.909,5.866-6.173
		c1.679-1.263,3.363,0.972,3.363,0.972s0.843,1.119-0.835,2.383c-1.677,1.265-7.131,4.496-7.131,4.496"/>
	<line fill="none" stroke="#231F20" stroke-miterlimit="10" x1="85.074" y1="128.892" x2="84.237" y2="139.365"/>
	<line fill="none" stroke="#231F20" stroke-miterlimit="10" x1="85.723" y1="88.883" x2="85.075" y2="111.892"/>
	<path fill="none" stroke="#231F20" stroke-miterlimit="10" d="M85.251,103.055c-5.225-8.928-11.864-3.708-11.864-3.708
		s7.709-0.771,11.564,6.168"/>
	<path fill="none" stroke="#231F20" stroke-miterlimit="10" d="M113.074,157.892c0,0,1-20-3-34c-4.43-15.504-4-31,1-32"/>
	<path fill="none" stroke="#231F20" stroke-miterlimit="10" d="M114.074,115.892c0,0,31,39,37,29s5-40,5-40s5-9,4-14s-3-4-7-5
		c-4.339-1.084-6,2-6,4s-2,1-2,2s-1,3,0,9c0,0,3,16-1,24c-4-5-13-27-22-28"/>
	<path fill="none" stroke="#231F20" stroke-miterlimit="10" d="M158.074,50.892c0,0-13-14-24-13s-18,7-21,27s-1,24-5,26s19-1,25-12
		c2-7,1-8,7-9S158.074,59.892,158.074,50.892z"/>
	<path fill="none" stroke="#231F20" stroke-miterlimit="10" d="M154.074,60.892c0,0-3,6-2,8s3,6-4,5"/>
	<path fill="none" stroke="#231F20" stroke-miterlimit="10" d="M150.074,74.892c0,0-1,5-6,10c0,0-4,4-7,1c-1,0-5,3-3,5
		c0,0,10,9,11,18"/>
	<path fill="none" stroke="#231F20" stroke-miterlimit="10" d="M152.074,143.892c0,0,1,11,1,13"/>
</g>
</svg>
