<?xml version="1.0" encoding="utf-8"?>
<!-- Generator: Adobe Illustrator 16.2.0, SVG Export Plug-In . SVG Version: 6.00 Build 0)  -->
<!DOCTYPE svg PUBLIC "-//W3C//DTD SVG 1.1//EN" "http://www.w3.org/Graphics/SVG/1.1/DTD/svg11.dtd">
<svg version="1.1" id="Layer_1" xmlns="http://www.w3.org/2000/svg" xmlns:xlink="http://www.w3.org/1999/xlink" x="0px" y="0px"
	 width="173px" height="173px" viewBox="0 0 173 173" enable-background="new 0 0 173 173" xml:space="preserve">
<g opacity="0.5">
	<g>
		<polyline fill="none" stroke="#E0E0E0" stroke-miterlimit="10" points="107.5,17 41.5,1 33.5,7 61.5,92 11,107 43,132 140.5,85 
			160,142 153.5,159 		"/>
		<polyline fill="none" stroke="#E0E0E0" stroke-miterlimit="10" points="165,0 140.5,85 153.5,159 115,128 		"/>
		<polyline fill="none" stroke="#E0E0E0" stroke-miterlimit="10" points="139.5,85 92.5,133 152.5,159 74.5,173 92.5,133 72,103 
			61.5,92 107.5,17 139.5,85 116,4 		"/>
		<polyline fill="none" stroke="#E0E0E0" stroke-miterlimit="10" points="65.5,85 34.5,7 105.5,18 		"/>
		<polygon fill="none" stroke="#E0E0E0" stroke-miterlimit="10" points="6,56 33.5,7 2,24 		"/>
		<line fill="none" stroke="#E0E0E0" stroke-miterlimit="10" x1="12" y1="107" x2="33.5" y2="7"/>
		<line fill="none" stroke="#E0E0E0" stroke-miterlimit="10" x1="23" y1="103" x2="34" y2="8"/>
		<polyline fill="none" stroke="#E0E0E0" stroke-miterlimit="10" points="116,5 108.147,17 108.5,18 72,102 		"/>
		<line fill="none" stroke="#E0E0E0" stroke-miterlimit="10" x1="160" y1="15" x2="108.147" y2="17"/>
		<polyline fill="none" stroke="#E0E0E0" stroke-miterlimit="10" points="108.5,18 151,52 159,85 140,86 		"/>
		<polyline fill="none" stroke="#E0E0E0" stroke-miterlimit="10" points="151.5,159 74.5,153 -0.5,156 1,159 60.167,172.333 
			75.5,152 44,133 		"/>
		<polyline fill="none" stroke="#E0E0E0" stroke-miterlimit="10" points="61.5,93 60.167,172.333 99.5,88 153.5,159 		"/>
		<polyline fill="none" stroke="#E0E0E0" stroke-miterlimit="10" points="92.5,132 99.5,88 107.5,21 		"/>
		<line fill="none" stroke="#E0E0E0" stroke-miterlimit="10" x1="74.5" y1="173" x2="74.5" y2="153"/>
		<polyline fill="none" stroke="#E0E0E0" stroke-miterlimit="10" points="109,100 120,45 99.5,88 		"/>
	</g>
	<line fill="none" stroke="#E0E0E0" stroke-miterlimit="10" x1="116" y1="109" x2="128" y2="61"/>
	<polyline fill="none" stroke="#E0E0E0" stroke-miterlimit="10" points="72,103 61,123 11,107 60,118 	"/>
	<line fill="none" stroke="#E0E0E0" stroke-miterlimit="10" x1="116" y1="110" x2="113" y2="142"/>
	<line fill="none" stroke="#E0E0E0" stroke-miterlimit="10" x1="43" y1="132" x2="-0.5" y2="156"/>
	<polyline fill="none" stroke="#E0E0E0" stroke-miterlimit="10" points="11,108 33,137 25,155 	"/>
	<polyline fill="none" stroke="#E0E0E0" stroke-miterlimit="10" points="40,29 30.333,58 28,65 61.5,92 35,47 	"/>
	<polyline fill="none" stroke="#E0E0E0" stroke-miterlimit="10" points="85,52 52,10 47,36 69,79 	"/>
	<line fill="none" stroke="#E0E0E0" stroke-miterlimit="10" x1="120" y1="16" x2="165" y2="1"/>
	<polyline fill="none" stroke="#E0E0E0" stroke-miterlimit="10" points="22,58 3,24 29,29 	"/>
	<line fill="none" stroke="#E0E0E0" stroke-miterlimit="10" x1="159" y1="85" x2="133" y2="61"/>
	<line fill="none" stroke="#E0E0E0" stroke-miterlimit="10" x1="52" y1="11" x2="83" y2="57"/>
	<polyline fill="none" stroke="#E0E0E0" stroke-miterlimit="10" points="78,64 53,11 99,30 	"/>
	<line fill="none" stroke="#E0E0E0" stroke-miterlimit="10" x1="101" y1="27" x2="53" y2="11"/>
	<polyline fill="none" stroke="#E0E0E0" stroke-miterlimit="10" points="61,97 12,107 61,102 	"/>
	<polyline fill="none" stroke="#E0E0E0" stroke-miterlimit="10" points="28,65 27.946,66 26,102 	"/>
	<polyline fill="none" stroke="#E0E0E0" stroke-miterlimit="10" points="51,95 28,66 56,93 	"/>
	<line fill="none" stroke="#E0E0E0" stroke-miterlimit="10" x1="116" y1="116" x2="153" y2="158"/>
	<line fill="none" stroke="#E0E0E0" stroke-miterlimit="10" x1="52" y1="10" x2="97" y2="34"/>
	<polyline fill="none" stroke="#E0E0E0" stroke-miterlimit="10" points="18,163 60,154 29,165 	"/>
	<polyline fill="none" stroke="#E0E0E0" stroke-miterlimit="10" points="42,168 60,154 38,167 	"/>
	<line fill="none" stroke="#E0E0E0" stroke-miterlimit="10" x1="12" y1="161" x2="56" y2="155"/>
	<line fill="none" stroke="#E0E0E0" stroke-miterlimit="10" x1="3" y1="159" x2="47" y2="155"/>
	<path fill="none" stroke="#E0E0E0" stroke-miterlimit="10" d="M47,169l13-15c0,0-10,16-9,16"/>
</g>
<path fill="none" stroke="#000000" stroke-miterlimit="10" d="M0.819,40c0.924,2.502,1.908,5.124,2.953,7.861
	c10.651,27.885,10.147,28.186,15.783,36.076l43.969,52.988c0,0,4.509,15.782,7.89,18.038c3.384,2.255,13.53,1.128,14.657,0
	c1.126-1.127,7.891-5.636,9.019-7.891c1.127-2.255,0-10.146,0-10.146h10.146c1.127,0,5.636-1.126,5.636-2.254
	s-2.255-4.51-10.145-4.51c-7.892,0-13.53-4.509-21.421-3.382c-4.509-9.019-19.165-38.331-19.165-38.331S42.104,51.243,35.339,45.606
	C32.847,43.529,31.12,37.627,29.933,31"/>
<path fill="none" stroke="#000000" stroke-miterlimit="10" d="M91.709,150.453c0,0-1.127,12.4,4.509,10.146
	c5.638-2.254,5.638-20.292,5.638-23.675"/>
<path fill="none" stroke="#000000" stroke-miterlimit="10" d="M62.396,136.924c0,0-3.382,2.255-2.254,9.02
	c1.127,6.762,2.254,6.762,3.381,9.018c1.128,2.255,7.892,7.892,10.147,7.892c2.255,0,10.146-4.508,10.146-6.764"/>
<path fill="none" stroke="#000000" stroke-miterlimit="10" d="M78.18,122.268l36.076-72.15c0,0,5.446-15.92,10.975-29.117"/>
<path fill="none" stroke="#000000" stroke-miterlimit="10" d="M102.982,129.032c0,0-1.127-5.637,6.765-19.166
	c7.891-13.528,29.312-41.713,33.821-49.604c1.825-3.195,5.868-10.454,10.034-18.263"/>
</svg>
