<?xml version="1.0" encoding="utf-8"?>
<!-- Generator: Adobe Illustrator 24.2.0, SVG Export Plug-In . SVG Version: 6.00 Build 0)  -->
<svg version="1.1" id="Layer_1" xmlns="http://www.w3.org/2000/svg" xmlns:xlink="http://www.w3.org/1999/xlink" x="0px" y="0px"
	 viewBox="0 0 173 156" style="enable-background:new 0 0 173 156;" xml:space="preserve">
<style type="text/css">
	.st0{fill:none;stroke:#000000;stroke-miterlimit:10;}
	.st1{fill:#FFFFFF;}
	.st2{fill:none;stroke:#000000;stroke-linecap:round;stroke-linejoin:round;stroke-miterlimit:10;}
</style>
<g>
	<path class="st2" d="M149.8,82.4l-5.9-2.7c0,0-8.7-7.4-11.7-7.3c-3,0.1-4.1,0.6-3.3,4.5c0.8,3.9,9.3,6.8,9.3,6.8l3.8,4.1
		c0,0,0.8,6,4.8,8.3"/>
	<path class="st2" d="M141.6,71.9l5.1,0.5c0,0,3.5,0.7,5.1,3.9c1.6,3.2,5.1,8.4,6.5,9.9c1.4,1.5,10.6,8.9,10.6,8.9l3.3,1.3"/>
	<path class="st2" d="M128.7,85.1c0,0-0.1,5.1,0,5.3c0.1,0.2,0.2,1.5,1.4,1.8s2.7,0,3-2.2c0.3-2.2-0.1-2.9-0.1-2.9l1.6-1.8l4-0.9"/>
	<path class="st2" d="M130,92.8c0,0-0.6,2.5,0.7,3.5c1.3,1,3.3-1.8,3.3-1.8l0.6-2.7l1.3-1.6l2.2-0.9"/>
	<path class="st2" d="M132.3,96.9c0,0,0.1,1.9,2,1.4c1.8-0.6,2.7-2.6,2.7-2.6l0.5-1.8l1-1.2"/>
	<path class="st2" d="M137.3,95.6l6.6,5.5c0,0,3.8,3.7,11.1,4.9c6.4,2.9,12.3,7.3,12.3,7.3"/>
	<path class="st2" d="M132.7,81.3l-6.7,0.1c0,0-3.8-4.9-4.5-15.7s-1.9-28.8-1.9-28.8l18.5-1.6l3.3,36.3l0.9,6.8"/>
	<path class="st2" d="M122.1,53.2c0,0,2.4-4.9,8-4.9c5.7,0,8,3.3,8,3.3"/>
	<path class="st2" d="M123.6,61.5c0,0,2.5,3.5,7.3,2.9c4.8-0.7,7.9-4.8,7.9-4.8"/>
	<path class="st2" d="M130.8,44.5c0,0-1.2,1.1-2.8,0.3c-1.6-0.7-1.1-2.9-1.1-2.9s1.8-3,4.1-0.4"/>
	<path class="st2" d="M131.6,42.7c0,0,0,0.5-0.1,0.7"/>
	<line class="st2" x1="134" y1="68.1" x2="129.1" y2="68.4"/>
	<path class="st2" d="M130.1,71.9c0,0-0.5-2,1.8-2.4c2.3-0.4,2.4,1.6,2.1,2.4"/>
	<line class="st2" x1="132.3" y1="56.1" x2="132.3" y2="56.7"/>
	<line class="st2" x1="132.6" y1="59.6" x2="132.6" y2="60.4"/>
	<path class="st2" d="M123.8,61.3l0.9,0L128,62l3.3-0.7l3.1-0.8l2.6-1.8c0,0,0.4-1.8,0.3-3c0-1.3-1.6-3-1.6-3s-2.6,0.8-4.7,0.5
		c-2.1-0.3-4.3-0.2-4.3-0.2l-2.1,0"/>
	<path class="st2" d="M126.4,49.3c0,0,1.9,0.3,2.3,0.3c0.4,0,2.3,0.1,2.5,0.3c0.2,0.2,1.8,0.9,1.9,1c0.2,0.2,1.1,0.6,1.3,0.7
		c0.2,0.1,1,0.6,1,0.6"/>
	<polyline class="st2" points="124.9,53 126.4,49.8 126.4,52.3 127.8,49.9 127.8,53 130,50.4 130.5,53.2 132.3,51 132.5,53.2 
		134,51.9 	"/>
	<path class="st2" d="M127.6,53.6c0,0-3.1,1.9-3.3,3.6c-0.2,1.7-0.1,4.1,3,4.7"/>
	<path class="st2" d="M129.7,57.7c-0.2,1.3,0.1,0.9,0.1,0.9"/>
	<path class="st2" d="M122.7,75.4c-3.5-5.3-8-38.6-8-38.6l12.9-2.7l3.3-0.4l0,2.3"/>
	<path class="st2" d="M114.7,37.8l-7.6,2.7c0,0,14.3,34.6,17.1,38"/>
	<path class="st2" d="M106.7,41.5l-4.4,2.2c0,0,19.3,35.9,23.2,40c1.2-0.5,2.4-2.3,2.4-2.3"/>
	<polyline class="st2" points="101.9,44.3 94.1,52.2 121.2,77.4 	"/>
	<polyline class="st2" points="94.3,53.2 92.6,55.3 122.8,80.7 	"/>
	<polyline class="st2" points="92.6,56.1 90.1,60 122.8,82.7 127.6,85.4 130,84.2 131.5,84.4 133.6,81.5 	"/>
	<line class="st2" x1="127.6" y1="82.4" x2="130" y2="84.2"/>
	<path class="st2" d="M4.1,24.7L16,32.8l12.7,8.6c0,0,15.3,0.1,16.6-0.6s4.8-0.9,7.4,1.9s18.3,11.7,18.3,11.7l3.1,3.1
		c0,0,1.1,0.3,0.8,1.6c-0.3,1.3-1,3.2-2.1,2.8"/>
	<path class="st2" d="M71.1,55.4c0,0-1.4,0.3-1.3,1.1c0.1,0.8,0.5,3,4.4,3.3"/>
	<path class="st2" d="M40.4,50c0,0,0.3,1.3,1.8,1.8s8.2,0.4,8.2,0.4l5,0.8l7.9,4l1.6,2.1"/>
	<path class="st2" d="M75.1,59.3l3,2.3c0,0,3.4,1.6,3,3.2"/>
	<path class="st2" d="M2.3,43.4c0,0,4.4,2.4,7,3.9c2.7,1.5,6.1,4,6.1,4l3.4,3l4.4,4.1c0,0,5.3,4.1,7.3,4.6s5.8,2.4,7.5,3.1
		s8.7,4.2,11.9,8.1c2,2.5,3.5-1.1,3.5-1.1s1-4.3-3-7.6c-4-3.4-5.3-4.1-7.6-5c-2.3-0.9-4.6-6.4-4.6-6.4"/>
	<path class="st2" d="M40.7,58.2c0,0,0.6-1.9,0.6-3.1"/>
	<path class="st2" d="M47.5,71.4c0,0,1.4-3.5,4,0.5"/>
	<path class="st2" d="M4.1,89.6l6.8-1.8c0,0,5.3-4.3,14.5-2.9c9.1-0.9,17.2-5.1,17.2-5.1l3.7-1.9c0,0,3,1.6,2.1,4
		c-0.9,2.4-2,4.6-6.2,6c-4.2,1.5-11,4.1-11,4.1"/>
	<path class="st2" d="M31.6,92.3l1.9,0.9c0,0,3.8-1.1,6-0.4c2.5-1.5,5.3-2.3,5.3-2.3"/>
	<path class="st2" d="M5.1,105.1l5.9-2.3c0,0,12.5,2.8,15.1,4.7s7.5,3.1,8.5,2.7s6.7-1.6,6.7-1.6l9.7-2.5l13-3.3"/>
	<path class="st2" d="M42.9,108.4c0,0,3.3,1.1,6.6,0.5c3.3-0.5,8-2,8-2l10.6-2.6"/>
	<path class="st2" d="M31.4,98.3l9.4,2c0,0,3.8-0.9,7.1,0c2.8-0.2,6.3-1.4,6.3-1.4"/>
	<path class="st2" d="M42,96.7c0,0,2.6-1.4,3.4-1.6"/>
	<polyline class="st2" points="46.7,95.1 60.5,57.3 99.1,72.8 83.3,110 46.4,95.5 44.8,93.4 45.8,91.2 43.7,88.8 44.3,87 	"/>
	<line class="st2" x1="47.8" y1="79" x2="49.5" y2="74.7"/>
	<path class="st2" d="M52.5,67.4l3.2-8.4l-2.1-2.6c0,0-2.5-0.2-4.7-0.3c-2.3-0.1-2.2-2.3-3.4-1.6c-1.2,0.6-4.4,0.3-4.4,0.3"/>
	<path class="st2" d="M59.8,58.2c0,0-3.6-0.7-4.6,0.3"/>
	<polyline class="st2" points="122.1,38.8 126.2,38.2 133.7,37.8 	"/>
	<line class="st2" x1="135.2" y1="37.6" x2="136.1" y2="37.5"/>
</g>
</svg>
