<?xml version="1.0" encoding="utf-8"?>
<!-- Generator: Adobe Illustrator 16.2.0, SVG Export Plug-In . SVG Version: 6.00 Build 0)  -->
<!DOCTYPE svg PUBLIC "-//W3C//DTD SVG 1.1//EN" "http://www.w3.org/Graphics/SVG/1.1/DTD/svg11.dtd">
<svg version="1.1" id="Layer_1" xmlns="http://www.w3.org/2000/svg" xmlns:xlink="http://www.w3.org/1999/xlink" x="0px" y="0px"
	 width="173px" height="149px" viewBox="0 0 173 149" enable-background="new 0 0 173 149" xml:space="preserve">
<g>
	<path fill="none" stroke="#000000" stroke-miterlimit="10" d="M56.548,18.003l8-12l21,8c0,0-3,6,1,5s5,3,4,5s-4,5-6,1s-3-2-5,1
		s-7,10-7,10l-7-3c0,0-4-3-4,4c-2,1-4,1-5,0c0,0-1-4,2-5c2-2,0-3-2-4"/>
	<path fill="none" stroke="#000000" stroke-miterlimit="10" d="M51.548,76.003l20,2c0,0,0-2,1-7s4-3,4-2s5,5,6-3s-5-5-7-4s-2-2-2-2
		l1-9c0,0-8-2-11-2c1,3,2,7-3,8s-2-9-2-9l-11-1l-2,21"/>
	<path fill="none" stroke="#000000" stroke-miterlimit="10" d="M121.125,75.736c0.5-2.375-0.125-22.875-2.25-22.875
		c-2.125,0-6.875,0.75-6-2.25c3.375-7.75-8.75-5-6-1.25c2.75,3.75,0.673,2.642,0.673,2.642l-14,1l0.452,8.5c0,0,7.875-4.517,8,2.858
		c0.125,7.375-7.25,3.75-8,2.125c-0.75-1.625-0.625,10.7-0.625,10.7h16"/>
	<path fill="none" stroke="#000000" stroke-miterlimit="10" d="M118.563,36.736l-1.563,3c0,0-0.438,0.625-1.625,0.688
		c-1.187,0.062-3.562-1.843-3.562-1.843s1.575-2.699,3.062-4.407c1.688-1.938,0.25-4.188-1.25-5.438c0,0-4.312-1.437-5.187,1.5
		c-0.875,2.938-0.313,3.964-0.438,4.169c-0.125,0.207-0.563,2.831-5.188,1.144c-4.625-1.688-11.438-4.937-11.438-4.937l6.5-11.026
		c0,0,2.75-4.474,5.75,1.338c2.563,1,4.188-0.875,4.25-2.438c0.063-1.562,0.125-4.75-2.906-4.312
		c-7.094,2.125-2.156-7.125-2.156-7.125s23.5,9.375,23.5,11s-4.75,11.875-4.75,11.875"/>
	<path fill="none" stroke="#000000" stroke-miterlimit="10" d="M-1,5.112c0,0,13,3,26,0s17-7,25-1c7,4,12,6,12,6"/>
	<path fill="none" stroke="#000000" stroke-miterlimit="10" d="M30,11.112c0,0,1,4,6,4s5-1,15,2s10,4,10,8s-7,3-7,3s-8-3-14-3
		s-18,8-28,4"/>
	<path fill="none" stroke="#000000" stroke-miterlimit="10" d="M49,28.112c0,0-3,3-9,3c-3,0-3,2-3,4c0,0,1,5,9,3s10-5,10-9"/>
	<path fill="none" stroke="#000000" stroke-miterlimit="10" d="M36,33.112c0,0-5-4-6,1s4,8,7,9s5-3,6-4"/>
	<path fill="none" stroke="#000000" stroke-miterlimit="10" d="M29,34.112c0,0-19,3-30-1"/>
	<path fill="none" stroke="#000000" stroke-miterlimit="10" d="M-1,105.112c0,0,9-21,14-25c4-6,11-15,11-15s2-6,11-4c6,0,11,1,11,1"
		/>
	<path fill="none" stroke="#000000" stroke-miterlimit="10" d="M24,77.112c0,0,9,0,14-4s11-8,14-8s7,0,4,7c-4,5-11,7-11,7
		s-11,9-12,12s-4,14-14,15c0,0-3,16-4,22s-5,21-5,21"/>
	<path fill="none" stroke="#000000" stroke-miterlimit="10" d="M53,77.112c0,0,3,10,5,10s2,0,2-4s-1-6-1-6"/>
	<path fill="none" stroke="#000000" stroke-miterlimit="10" d="M50,82.112c0,0,0,4-3,8s2,6,4,4s4-6,4-9"/>
	<path fill="none" stroke="#000000" stroke-miterlimit="10" d="M46,92.112c0,0-4,2-4,4s0,4,2,4c1,0,5-4,6-5"/>
	<path fill="none" stroke="#000000" stroke-miterlimit="10" d="M36,87.112c0,0,7-3,7-1c0,0,1,4-3,7c-2,2-3,4-2,5s4,1,4,0"/>
	<path fill="none" stroke="#000000" stroke-miterlimit="10" d="M139,101.112c0,0-1-2-5-5c-5-2-9-12-11-16s-6-10-11-8s1,13,1,13
		s6,11,7,14s2,18,6,23c1,3,2,13,9,18s9,8,9,9"/>
	<path fill="none" stroke="#000000" stroke-miterlimit="10" d="M122,70.112c0,0,4-1,9,4s11,7,11,7s6,3,8,17s5,30,9,34s16,16,16,16"
		/>
	<path fill="none" stroke="#000000" stroke-miterlimit="10" d="M107,77.112c0,0-6,8-5,10s9-1,10-3"/>
	<path fill="none" stroke="#000000" stroke-miterlimit="10" d="M113,87.112c0,0-7,5-4,16s5,8,5,8s9-6,1-13"/>
	<path fill="none" stroke="#000000" stroke-miterlimit="10" d="M111,110.112c0,0,3,12,8,10s3-7,2-8"/>
	<path fill="none" stroke="#000000" stroke-miterlimit="10" d="M117,13.112c0,0,11-2,21,0s13,2,13,3v1c0,0-1,5-2,8s-19,3-19,3
		s-10,0-11,5s5,5,11,5s17,0,20,5s14,12,25,15"/>
	<path fill="none" stroke="#000000" stroke-miterlimit="10" d="M127,13.112c0,0,5,13,6,14"/>
	<path fill="none" stroke="#000000" stroke-miterlimit="10" d="M139,18.112c0,0-1,6,0,6s7,1,7,3"/>
	<path fill="none" stroke="#000000" stroke-miterlimit="10" d="M138,39.112c0,0,2,4,9,2"/>
	<path fill="none" stroke="#000000" stroke-miterlimit="10" d="M108,8.112l20-4c0,0,6-2,12,0c5,1,9,1,10,1s8.643-1.857,14,11
		c5,12,11,16,11,16"/>
</g>
</svg>
