<?xml version="1.0" encoding="utf-8"?>
<!-- Generator: Adobe Illustrator 16.2.0, SVG Export Plug-In . SVG Version: 6.00 Build 0)  -->
<!DOCTYPE svg PUBLIC "-//W3C//DTD SVG 1.1//EN" "http://www.w3.org/Graphics/SVG/1.1/DTD/svg11.dtd">
<svg version="1.1" id="Layer_1" xmlns="http://www.w3.org/2000/svg" xmlns:xlink="http://www.w3.org/1999/xlink" x="0px" y="0px"
	 width="173px" height="156px" viewBox="0 0 173 156" enable-background="new 0 0 173 156" xml:space="preserve">
<g>
	
		<ellipse transform="matrix(0.9186 -0.3953 0.3953 0.9186 -15.703 38.8893)" fill="none" stroke="#000000" stroke-miterlimit="10" cx="86.52" cy="57.551" rx="5.978" ry="5.456"/>
	<path d="M88.717,56.606c0.477,1.108-0.121,2.429-1.334,2.951c-1.213,0.521-2.583,0.046-3.059-1.062
		c-0.476-1.106,0.121-2.426,1.334-2.949C86.871,55.026,88.241,55.499,88.717,56.606"/>
	<path fill="none" stroke="#000000" stroke-miterlimit="10" d="M100.645,48.339c2.99,6.951-1.266,14.758-8.218,17.749
		c-6.952,2.991-13.969,0.034-16.958-6.917c-2.99-6.95,1.883-11.145,8.835-14.136C91.256,42.044,97.655,41.389,100.645,48.339z"/>
	
		<ellipse transform="matrix(-0.9186 -0.3953 0.3953 -0.9186 64.5051 128.3924)" fill="none" stroke="#000000" stroke-miterlimit="10" cx="45.48" cy="57.551" rx="5.978" ry="5.456"/>
	<path d="M43.283,56.606c-0.477,1.108,0.121,2.429,1.334,2.951c1.213,0.521,2.583,0.046,3.059-1.062
		c0.476-1.106-0.121-2.426-1.334-2.949C45.13,55.026,43.759,55.499,43.283,56.606"/>
	<path fill="none" stroke="#000000" stroke-miterlimit="10" d="M31.354,48.339c-2.99,6.951,1.266,14.758,8.219,17.749
		c6.952,2.991,13.967,0.034,16.958-6.917c2.99-6.95-1.883-11.145-8.835-14.136C40.744,42.044,34.346,41.389,31.354,48.339z"/>
	<path fill="none" stroke="#000000" stroke-miterlimit="10" d="M52.596,30.679c0,0-11.655-10.25-25.797-0.867"/>
	<path fill="none" stroke="#000000" stroke-miterlimit="10" d="M77.572,32.323c0,0,8.29-13.12,24.504-8.108"/>
	<path fill="none" stroke="#000000" stroke-miterlimit="10" d="M59.245,70.508c0,0,7.246-7.748,13.51,0.523"/>
	<path fill="none" stroke="#000000" stroke-miterlimit="10" d="M124,57.725c0,32.033-24.056,55.452-56.088,55.452
		C35.88,113.177,8,90.395,8,58.363C8,26.33,33.967,1,66,1C98.032,1,124,25.694,124,57.725z"/>
	<path fill="none" stroke="#000000" stroke-miterlimit="10" d="M39,106c0,0-36,11-38,50"/>
	<path fill="none" stroke="#000000" stroke-miterlimit="10" d="M96,106c0,0,36,11,38,50"/>
	<path fill="none" stroke="#000000" stroke-miterlimit="10" d="M50,94.088c0,0,1.778-9.493,8.889-8.228
		c7.111,1.267,8-0.633,9.777-1.898c1.778-1.268,10.667,3.166,13.334,7.595"/>
</g>
</svg>
