<?xml version="1.0" encoding="utf-8"?>
<!-- Generator: Adobe Illustrator 16.2.0, SVG Export Plug-In . SVG Version: 6.00 Build 0)  -->
<!DOCTYPE svg PUBLIC "-//W3C//DTD SVG 1.1//EN" "http://www.w3.org/Graphics/SVG/1.1/DTD/svg11.dtd">
<svg version="1.1" id="Layer_1" xmlns="http://www.w3.org/2000/svg" xmlns:xlink="http://www.w3.org/1999/xlink" x="0px" y="0px"
	 width="173px" height="92px" viewBox="0 0 173 92" enable-background="new 0 0 173 92" xml:space="preserve">
<g>
	<polygon fill="none" stroke="#000000" stroke-miterlimit="10" points="125.397,82.549 129.245,77.419 133.092,73.573 
		135.657,68.443 144.634,63.314 149.764,62.031 161.306,50.489 169,42.794 167.718,37.663 161.306,35.099 138.222,18.427 
		133.092,18.427 126.68,14.579 115.138,12.015 102.313,6.885 98.466,8.167 90.771,5.603 86.924,3.037 80.512,1.756 71.535,0.473 
		65.122,1.756 59.993,1.756 48.451,0.473 43.321,5.603 30.496,12.015 16.39,18.427 15.107,22.275 12.542,22.275 2.283,32.535 
		2.283,38.946 1,45.359 3.565,50.489 2.283,55.617 8.695,63.314 25.367,71.008 29.214,74.855 39.474,77.419 48.451,76.137 
		49.733,79.986 53.58,81.267 57.428,86.398 65.122,85.115 88.206,91.527 101.031,85.115 	"/>
	<path fill="none" stroke="#000000" stroke-miterlimit="10" d="M98.466,18.427c0,0,2.565-5.13,2.565-10.26"/>
	<path fill="none" stroke="#000000" stroke-miterlimit="10" d="M122.832,14.579c-1.282,8.978-12.824,25.65-12.824,25.65
		L94.619,26.122l-11.542-3.848L74.1,28.687l-5.13,2.565l-5.13-1.283l-7.695-5.129L43.32,26.122l-6.412-5.128"/>
	<path fill="none" stroke="#000000" stroke-miterlimit="10" d="M56.145,1.756c0,0,5.13,6.411,11.542,16.671"/>
	<polyline fill="none" stroke="#000000" stroke-miterlimit="10" points="35.626,15.862 35.626,20.993 30.496,27.405 	"/>
	<polyline fill="none" stroke="#000000" stroke-miterlimit="10" points="17.672,19.71 16.39,27.404 9.977,27.404 8.695,33.818 
		3.565,33.818 	"/>
	<polyline fill="none" stroke="#000000" stroke-miterlimit="10" points="6.13,37.663 12.542,37.663 15.107,41.511 25.367,35.099 
		30.496,38.946 33.061,44.077 35.626,44.077 	"/>
	<polyline fill="none" stroke="#000000" stroke-miterlimit="10" points="25.367,67.159 26.649,64.595 27.932,67.159 33.061,67.159 
		38.191,65.877 43.321,63.314 44.603,58.183 40.756,49.206 29.214,50.489 21.519,55.617 15.107,51.771 4.848,58.183 	"/>
	<polyline fill="none" stroke="#000000" stroke-miterlimit="10" points="2.283,46.641 8.695,46.641 13.825,41.511 	"/>
	<polyline fill="none" stroke="#000000" stroke-miterlimit="10" points="35.626,74.854 44.603,72.29 52.298,73.573 56.145,73.573 
		61.275,78.703 61.275,85.115 	"/>
	<polyline fill="none" stroke="#000000" stroke-miterlimit="10" points="125.397,32.535 134.374,29.969 134.374,22.274 
		138.222,22.274 142.069,26.122 147.199,24.84 	"/>
	<polyline fill="none" stroke="#000000" stroke-miterlimit="10" points="131.809,55.617 139.504,55.617 140.787,60.748 
		143.351,64.595 	"/>
	<polyline fill="none" stroke="#000000" stroke-miterlimit="10" points="144.634,51.771 152.329,51.771 154.893,46.641 
		160.023,46.641 163.87,47.924 	"/>
	<path fill="none" stroke="#000000" stroke-miterlimit="10" d="M62.558,38.946l6.412-7.694L62.558,38.946z"/>
	<polyline fill="none" stroke="#000000" stroke-miterlimit="10" points="62.558,38.946 62.558,50.489 70.251,56.9 62.558,55.618 
		56.145,64.595 54.863,54.336 43.321,54.336 	"/>
	<polyline fill="none" stroke="#000000" stroke-miterlimit="10" points="70.252,56.9 84.359,63.314 107.443,62.031 115.138,50.489 
		110.008,40.229 	"/>
	<polyline fill="none" stroke="#000000" stroke-miterlimit="10" points="84.359,63.314 83.077,72.29 75.382,76.137 76.664,83.832 	
		"/>
	<polyline fill="none" stroke="#000000" stroke-miterlimit="10" points="107.443,62.031 102.313,72.29 102.313,78.703 
		102.313,81.267 101.031,85.115 	"/>
	<polyline fill="none" stroke="#000000" stroke-miterlimit="10" points="103.596,68.442 110.008,73.573 108.725,77.419 
		110.008,83.832 	"/>
	<polyline fill="none" stroke="#000000" stroke-miterlimit="10" points="115.138,50.489 125.396,49.206 133.092,53.053 
		136.939,50.489 142.069,46.641 149.764,44.077 157.458,42.794 158.741,42.794 160.023,35.099 	"/>
</g>
</svg>
