<?xml version="1.0" encoding="utf-8"?>
<!-- Generator: Adobe Illustrator 16.2.0, SVG Export Plug-In . SVG Version: 6.00 Build 0)  -->
<!DOCTYPE svg PUBLIC "-//W3C//DTD SVG 1.1//EN" "http://www.w3.org/Graphics/SVG/1.1/DTD/svg11.dtd">
<svg version="1.1" id="Layer_1" xmlns="http://www.w3.org/2000/svg" xmlns:xlink="http://www.w3.org/1999/xlink" x="0px" y="0px"
	 width="173px" height="173px" viewBox="0 0 173 173" enable-background="new 0 0 173 173" xml:space="preserve">
<g>
	<path fill="none" stroke="#000000" stroke-miterlimit="10" d="M96.991,90.143c0,0,1.338,30.304-28.075,30.304
		c-16.043,0-30.838-7.576-30.838-30.75c0-16.488,9.258-30.261,26.828-30.261c21.836,0,26.738,12,26.738,25.805
		c0,16.044-7.13,25.402-20.945,25.402s-23.546-7.131-23.546-21.392c0-8.466,5.275-19.894,19.535-19.894s15.716,12.826,15.508,17.667
		c-0.22,5.099-5.704,11.95-13.28,11.95c-7.576,0-10.472-4.859-10.487-9.723c-0.009-3.087,2.466-8.828,6.922-8.828
		s4.855,1.199,5.792,5.263c1.775,7.696-5.347,6.24-4.456,2.229"/>
	<path d="M78.438,119.555c0,0.83-0.671,1.5-1.5,1.5s-1.5-0.67-1.5-1.5c0-0.827,0.671-1.5,1.5-1.5S78.438,118.728,78.438,119.555"/>
	<path d="M95.818,104.402c0,0.829-0.672,1.5-1.5,1.5c-0.829,0-1.5-0.671-1.5-1.5c0-0.828,0.671-1.498,1.5-1.498
		C95.146,102.905,95.818,103.575,95.818,104.402"/>
	<path d="M50.362,114.652c0,0.83-0.672,1.5-1.5,1.5s-1.5-0.67-1.5-1.5c0-0.829,0.672-1.5,1.5-1.5S50.362,113.824,50.362,114.652"/>
	<path d="M50.808,99.501c0,0.828-0.671,1.5-1.5,1.5s-1.5-0.672-1.5-1.5c0-0.829,0.671-1.5,1.5-1.5S50.808,98.672,50.808,99.501"/>
	<path d="M73.536,110.643c0,0.828-0.672,1.5-1.5,1.5c-0.829,0-1.5-0.672-1.5-1.5c0-0.829,0.671-1.501,1.5-1.501
		C72.864,109.142,73.536,109.814,73.536,110.643"/>
	<path d="M70.862,98.61c0,0.83-0.672,1.5-1.5,1.5c-0.829,0-1.5-0.67-1.5-1.5s0.671-1.5,1.5-1.5
		C70.19,97.11,70.862,97.781,70.862,98.61"/>
	<path d="M71.504,91.006c0,0.829-0.672,1.5-1.5,1.5s-1.5-0.671-1.5-1.5c0-0.828,0.672-1.5,1.5-1.5S71.504,90.179,71.504,91.006"/>
	<path d="M67.742,80.784c0,0.828-0.672,1.5-1.5,1.5c-0.828,0-1.5-0.672-1.5-1.5c0-0.829,0.672-1.5,1.5-1.5
		C67.07,79.284,67.742,79.956,67.742,80.784"/>
	<path d="M90.024,70.535c0,0.827-0.672,1.498-1.5,1.498c-0.829,0-1.5-0.671-1.5-1.498c0-0.83,0.671-1.5,1.5-1.5
		C89.353,69.035,90.024,69.706,90.024,70.535"/>
	<path d="M71.307,59.394c0,0.83-0.671,1.5-1.5,1.5c-0.828,0-1.5-0.67-1.5-1.5c0-0.829,0.672-1.5,1.5-1.5
		C70.636,57.894,71.307,58.565,71.307,59.394"/>
	<path d="M53.927,62.067c0,0.828-0.672,1.5-1.5,1.5c-0.829,0-1.5-0.672-1.5-1.5c0-0.829,0.671-1.5,1.5-1.5
		C53.255,60.567,53.927,61.239,53.927,62.067"/>
	<path d="M39.667,84.349c0,0.83-0.671,1.5-1.5,1.5s-1.5-0.67-1.5-1.5c0-0.828,0.671-1.5,1.5-1.5S39.667,83.521,39.667,84.349"/>
	<path d="M53.036,75.882c0,0.828-0.672,1.5-1.5,1.5c-0.829,0-1.5-0.672-1.5-1.5c0-0.827,0.671-1.5,1.5-1.5
		C52.364,74.382,53.036,75.055,53.036,75.882"/>
	<path d="M49.025,86.576c0,0.829-0.672,1.5-1.5,1.5c-0.828,0-1.5-0.671-1.5-1.5c0-0.827,0.672-1.499,1.5-1.499
		C48.353,85.078,49.025,85.75,49.025,86.576"/>
	<path fill="none" stroke="#000000" stroke-miterlimit="10" d="M11,140.892l7,9l-4,4l-5-1l-8-14l3-13c0,0-2-39,1-48s4-16,3-34
		s-3-39,10-45"/>
	<polyline fill="none" stroke="#000000" stroke-miterlimit="10" points="12,125.892 17,136.892 20,148.892 18,149.892 	"/>
	<path fill="none" stroke="#000000" stroke-miterlimit="10" d="M14,128.892l3-25c0,0,7-14,7-19s-2-20-2-20s5-11,5-20v-22"/>
	<path fill="none" stroke="#000000" stroke-miterlimit="10" d="M27,44.892c0,0,10,25,6,47s-8,48-7,62s3,21,3,21"/>
	<path fill="none" stroke="#000000" stroke-miterlimit="10" d="M122,140.892l-7,9l4,4l5-1l8-14l-3-13c0,0,2-39-1-48s-4-16-3-34
		s3-39-10-45"/>
	<polyline fill="none" stroke="#000000" stroke-miterlimit="10" points="121,125.892 116,136.892 113,148.892 115,149.892 	"/>
	<path fill="none" stroke="#000000" stroke-miterlimit="10" d="M119,128.892l-3-25c0,0-7-14-7-19s2-20,2-20s-5-11-5-20v-22"/>
	<path fill="none" stroke="#000000" stroke-miterlimit="10" d="M106,44.892c0,0-10,25-6,47s8,48,7,62s-3,21-3,21"/>
	<path fill="none" stroke="#000000" stroke-miterlimit="10" d="M60,174.892c0,0,5-25,6-36s5,30,7,36"/>
</g>
</svg>
