<?xml version="1.0" encoding="utf-8"?>
<!-- Generator: Adobe Illustrator 16.2.0, SVG Export Plug-In . SVG Version: 6.00 Build 0)  -->
<!DOCTYPE svg PUBLIC "-//W3C//DTD SVG 1.1//EN" "http://www.w3.org/Graphics/SVG/1.1/DTD/svg11.dtd">
<svg version="1.1" id="Layer_1" xmlns="http://www.w3.org/2000/svg" xmlns:xlink="http://www.w3.org/1999/xlink" x="0px" y="0px"
	 width="173px" height="147px" viewBox="0 0 173 147" enable-background="new 0 0 173 147" xml:space="preserve">
<g>
	<path fill="none" stroke="#000000" stroke-miterlimit="10" d="M29.602,114.606c11.424,3.809,44,4,64-4c22-16,30-11,30-11
		c7,2,21,14,13,26c-16,21-30,17-36,19s-26,2-61-1c-35-3-38-18-38-26c0-5.177,2.932-7.841,5-9.076c1.128-0.674,2-0.924,2-0.924
		C4.602,109.606,26.602,113.606,29.602,114.606z"/>
	<path fill="none" stroke="#000000" stroke-miterlimit="10" d="M118.602,98.606c0-6,3-23-28-23s-52,12-70,18c0,0-14,2-12,14"/>
	<path fill="none" stroke="#000000" stroke-miterlimit="10" d="M26.602,90.606c0,0-19-7-13-17c5.716-9.527,9.618-17.239,29-17.082
		c0.961,0.008,1.96,0.035,3,0.082c0,0,46,8,52,10s5,8-1,9"/>
	<path fill="none" stroke="#000000" stroke-miterlimit="10" d="M44.562,56.559c5.04-0.953,24.04-25.953,28.04-32.953c4,3,14,26,9,39
		"/>
	<circle fill="none" stroke="#000000" stroke-miterlimit="10" cx="55.602" cy="2.606" r="1"/>
	<circle fill="none" stroke="#000000" stroke-miterlimit="10" cx="88.602" cy="25.606" r="1"/>
	<circle fill="none" stroke="#000000" stroke-miterlimit="10" cx="100.602" cy="83.606" r="1"/>
	<circle fill="none" stroke="#000000" stroke-miterlimit="10" cx="54.602" cy="126.606" r="1"/>
</g>
</svg>
