<?xml version="1.0" encoding="utf-8"?>
<!-- Generator: Adobe Illustrator 16.2.0, SVG Export Plug-In . SVG Version: 6.00 Build 0)  -->
<!DOCTYPE svg PUBLIC "-//W3C//DTD SVG 1.1//EN" "http://www.w3.org/Graphics/SVG/1.1/DTD/svg11.dtd">
<svg version="1.1" id="Layer_1" xmlns="http://www.w3.org/2000/svg" xmlns:xlink="http://www.w3.org/1999/xlink" x="0px" y="0px"
	 width="173px" height="171px" viewBox="0 0 173 171" enable-background="new 0 0 173 171" xml:space="preserve">
<g>
	<g>
		<path fill="none" stroke="#000000" stroke-miterlimit="10" d="M76.166,65.045c5.82,4.545,9.94,15.662,9.94,27.552
			c0,15.518-7.015,17.498-15.668,17.498s-15.669-1.98-15.669-17.498c0-11.931,4.148-23.08,9.999-27.597"/>
		<polyline fill="none" stroke="#000000" stroke-miterlimit="10" points="60.5,109 60.5,141.5 57,141.5 		"/>
		<polyline fill="none" stroke="#000000" stroke-miterlimit="10" points="79.5,109 79.5,141.5 83,141.5 		"/>
		<path fill="none" stroke="#000000" stroke-miterlimit="10" d="M84.207,77.638c0,0,20.083-15.186,23.794-28.638"/>
		<path fill="none" stroke="#000000" stroke-miterlimit="10" d="M57,77.638c0,0-20.083-15.186-23.794-28.638"/>
		<circle fill="none" stroke="#000000" stroke-miterlimit="10" cx="64.171" cy="47.956" r="4.167"/>
		<circle fill="none" stroke="#000000" stroke-miterlimit="10" cx="77.934" cy="47.568" r="4.167"/>
		<path d="M65.044,47.859c0,0.428-0.347,0.776-0.775,0.776c-0.429,0-0.776-0.348-0.776-0.776s0.347-0.776,0.776-0.776
			C64.697,47.083,65.044,47.431,65.044,47.859"/>
		<path d="M78.806,47.473c0,0.427-0.347,0.774-0.775,0.774c-0.429,0-0.776-0.347-0.776-0.774c0-0.43,0.347-0.776,0.776-0.776
			C78.459,46.697,78.806,47.043,78.806,47.473"/>
		<path fill="none" stroke="#000000" stroke-miterlimit="10" d="M66.207,39.124c0,0-4.458-1.551-7.365,2.714"/>
		<path fill="none" stroke="#000000" stroke-miterlimit="10" d="M74.736,38.543c0,0,4.458-1.55,7.365,2.713"/>
		<path fill="none" stroke="#000000" stroke-miterlimit="10" d="M69.216,52.716c0,0,2.204-2.357,4.108,0.159"/>
		<path fill="none" stroke="#000000" stroke-miterlimit="10" d="M88.11,48.828c0,9.741-7.316,16.863-17.057,16.863
			c-9.742,0-18.22-6.926-18.22-16.67c0-9.741,7.897-17.444,17.638-17.444C80.213,31.577,88.11,39.088,88.11,48.828z"/>
		<path fill="none" stroke="#000000" stroke-miterlimit="10" d="M66.074,57.63c0,0,5.13,5.863,11.726,0"/>
	</g>
	<path fill="none" stroke="#000000" stroke-miterlimit="10" d="M70,0c0,0-3,13-2,18"/>
	<path fill="none" stroke="#000000" stroke-miterlimit="10" d="M17,32.359c0,0-11-7-14-5"/>
	<path fill="none" stroke="#000000" stroke-miterlimit="10" d="M21,85c0,0-20,1-21-1"/>
	<path fill="none" stroke="#000000" stroke-miterlimit="10" d="M32,132c0,0-17,9-18,11"/>
	<path fill="none" stroke="#000000" stroke-miterlimit="10" d="M69,151c0,0,1,17,1,20"/>
	<path fill="none" stroke="#000000" stroke-miterlimit="10" d="M110,131c0,0,11,15,13,15"/>
	<line fill="none" stroke="#000000" stroke-miterlimit="10" x1="120" y1="86" x2="137" y2="86"/>
	<path fill="none" stroke="#000000" stroke-miterlimit="10" d="M120,34c0,0,17-6,18-8"/>
</g>
</svg>
