<?xml version="1.0" encoding="utf-8"?>
<!-- Generator: Adobe Illustrator 16.2.0, SVG Export Plug-In . SVG Version: 6.00 Build 0)  -->
<!DOCTYPE svg PUBLIC "-//W3C//DTD SVG 1.1//EN" "http://www.w3.org/Graphics/SVG/1.1/DTD/svg11.dtd">
<svg version="1.1" id="Layer_1" xmlns="http://www.w3.org/2000/svg" xmlns:xlink="http://www.w3.org/1999/xlink" x="0px" y="0px"
	 width="173px" height="165px" viewBox="0 0 173 165" enable-background="new 0 0 173 165" xml:space="preserve">
<g>
	<g opacity="0.5">
		<path fill="none" stroke="#E0E0E0" stroke-miterlimit="10" d="M175,138.108c0-50.81-41.19-92-92-92s-92,41.19-92,92"/>
		<path fill="none" stroke="#E0E0E0" stroke-miterlimit="10" d="M169,138.108c0-47.496-38.503-86-86-86s-86,38.504-86,86"/>
		<path fill="none" stroke="#E0E0E0" stroke-miterlimit="10" d="M163,138.108c0-44.182-35.818-80-80-80c-44.183,0-80,35.818-80,80"
			/>
		<path fill="none" stroke="#E0E0E0" stroke-miterlimit="10" d="M156,138.108c0-40.317-32.683-73-73-73s-73,32.683-73,73"/>
		<path fill="none" stroke="#E0E0E0" stroke-miterlimit="10" d="M149,138.108c0-36.451-29.55-66-66-66c-36.451,0-66,29.549-66,66"/>
		<path fill="none" stroke="#E0E0E0" stroke-miterlimit="10" d="M134,138.108c0-28.167-22.833-51-51-51s-51,22.833-51,51"/>
		<path fill="none" stroke="#E0E0E0" stroke-miterlimit="10" d="M127,138.108c0-24.3-19.7-44-44-44s-44,19.7-44,44"/>
		<path fill="none" stroke="#E0E0E0" stroke-miterlimit="10" d="M121,138.108c0-20.987-17.013-38-38-38s-38,17.013-38,38"/>
		<path fill="none" stroke="#E0E0E0" stroke-miterlimit="10" d="M114,138.108c0-17.12-13.88-31-31-31c-17.121,0-31,13.88-31,31"/>
		<path fill="none" stroke="#E0E0E0" stroke-miterlimit="10" d="M141,138.108c0-32.031-25.967-58-58-58s-58,25.969-58,58"/>
	</g>
	<g>
		<path fill="none" stroke="#000000" stroke-miterlimit="10" d="M1.548,164c0,0,2-29,1-38c4,3,9,17,10,23c0,0,11-22,19-29
			c-3,12-10,22-10,28c0,0,6-8,12-9c-5,8-5,13-6,15s5-5,7-3c-6,7-7,10-7,12"/>
		<path fill="none" stroke="#000000" stroke-miterlimit="10" d="M39.548,163c0,0,4-33-1-39c7,8,8,19,7,27c0,0,4-12,8-14
			c-2,6-4,8-3,12c3-5,8-11,9-9c0,0-2,8-2,13s12-22,23-27c-10,15-11,24-10,32c0,0,6-10,10-9c-2,6,3,10,5,12s6-8,6-14c3,2,4,12,4,15
			s3-11,6-12c1,5,0,5,4,10s1-24-11-31c10,3,19,17,20,29c0,0,3-16,7-22c-1,10-3,22,2,24c0,0,16-19,14-28c3,16-2,24-1,30
			c0,0,10-9,10-17s2,10,2,14s12-14,10-27c8,13,1,29-1,33"/>
		<g>
			<line fill="none" stroke="#000000" stroke-miterlimit="10" x1="64.548" y1="49" x2="46.548" y2="57"/>
			<line fill="none" stroke="#000000" stroke-miterlimit="10" x1="74.548" y1="54" x2="68.548" y2="73"/>
			<line fill="none" stroke="#000000" stroke-miterlimit="10" x1="86.548" y1="55" x2="94.548" y2="73"/>
			<line fill="none" stroke="#000000" stroke-miterlimit="10" x1="98.548" y1="51" x2="112.548" y2="62"/>
			<line fill="none" stroke="#000000" stroke-miterlimit="10" x1="97.548" y1="36" x2="116.548" y2="33"/>
			<line fill="none" stroke="#000000" stroke-miterlimit="10" x1="91.548" y1="25" x2="103.548" y2="6"/>
			<line fill="none" stroke="#000000" stroke-miterlimit="10" x1="81.548" y1="25" x2="79.548" y2="0"/>
			<line fill="none" stroke="#000000" stroke-miterlimit="10" x1="70.548" y1="29" x2="53.548" y2="15"/>
			<line fill="none" stroke="#000000" stroke-miterlimit="10" x1="63.548" y1="38" x2="40.548" y2="35"/>
			<circle fill="none" stroke="#000000" stroke-miterlimit="10" cx="82.548" cy="40" r="8"/>
		</g>
	</g>
</g>
</svg>
