<?xml version="1.0" encoding="utf-8"?>
<!-- Generator: Adobe Illustrator 16.2.0, SVG Export Plug-In . SVG Version: 6.00 Build 0)  -->
<!DOCTYPE svg PUBLIC "-//W3C//DTD SVG 1.1//EN" "http://www.w3.org/Graphics/SVG/1.1/DTD/svg11.dtd">
<svg version="1.1" id="Layer_1" xmlns="http://www.w3.org/2000/svg" xmlns:xlink="http://www.w3.org/1999/xlink" x="0px" y="0px"
	 width="173px" height="173px" viewBox="0 0 173 173" enable-background="new 0 0 173 173" xml:space="preserve">
<g>
	<path fill="none" stroke="#000000" stroke-miterlimit="10" d="M33.485,0c0,0,10,40,28,34s18-34,18-34"/>
	<path fill="none" stroke="#000000" stroke-miterlimit="10" d="M160.447,91c7.408,10.537,16.173,24.184,10.038,31c-9,10-14,5-24-1
		c0,0-49-36-56-42s-25-13-30-15s-1-8,9-3l6,3c0,0-13-6-12-11s7,1,14,6s-17-12-12-15s8,2,15,7c-6-6-10-11-6-14s9,11,12,10s0-16,5-19
		s3,14,3,19c0,2.361,1.783,7.396,5.77,13c4.458,6.268,11.672,13.249,22.23,18c20,9,26.962,18,26.962,18"/>
	<path fill="none" stroke="#000000" stroke-miterlimit="10" d="M78.485,12c0,0,4,6,16,10c9.115,3.039,18.229,10.115,22.962,14.219"
		/>
	<path fill="none" stroke="#000000" stroke-miterlimit="10" d="M126.447,113c0,0,7.038,46,10.038,53"/>
	<line fill="none" stroke="#000000" stroke-miterlimit="10" x1="148.447" y1="95.64" x2="167.485" y2="83"/>
	<line fill="none" stroke="#000000" stroke-miterlimit="10" x1="45.485" y1="164" x2="129.447" y2="108.255"/>
	<line fill="none" stroke="#000000" stroke-miterlimit="10" x1="124.448" y1="78.766" x2="160.486" y2="43"/>
	<line fill="none" stroke="#000000" stroke-miterlimit="10" x1="28.485" y1="174" x2="109.447" y2="93.652"/>
	<line fill="none" stroke="#000000" stroke-miterlimit="10" x1="112.147" y1="71" x2="149.485" y2="30"/>
	<line fill="none" stroke="#000000" stroke-miterlimit="10" x1="29.488" y1="161.767" x2="98.487" y2="86"/>
	<line fill="none" stroke="#000000" stroke-miterlimit="10" x1="100.447" y1="60" x2="127.485" y2="28"/>
	<line fill="none" stroke="#000000" stroke-miterlimit="10" x1="24.485" y1="151" x2="86.454" y2="77"/>
	<line fill="none" stroke="#000000" stroke-miterlimit="10" x1="110.616" y1="70" x2="145.485" y2="15"/>
	<line fill="none" stroke="#000000" stroke-miterlimit="10" x1="48.485" y1="168" x2="100.473" y2="86"/>
	<polygon fill="none" stroke="#000000" stroke-miterlimit="10" points="163.896,38.672 157.58,40.934 161.915,45.083 	"/>
	<polygon fill="none" stroke="#000000" stroke-miterlimit="10" points="171.485,78.591 165.169,80.852 169.503,85 	"/>
	<polygon fill="none" stroke="#000000" stroke-miterlimit="10" points="153.485,26 147.169,28.261 151.503,32.411 	"/>
	<polygon fill="none" stroke="#000000" stroke-miterlimit="10" points="148.485,10.354 142.626,13.619 147.583,17 	"/>
	<polygon fill="none" stroke="#000000" stroke-miterlimit="10" points="130.345,23.354 124.486,26.619 129.442,30 	"/>
	<path fill="#FFFFFF" d="M19.485,106c0,0,15,13,22,15s32-11,33-8s0,7-7,10s20,9,21,16s-15-3-19-5s19,11,15,16s-16-7-17-9
		s14,13,10,16c0,0-3,4-14-11c4,6,10,15,7,16s-9-11-14-15s-36-7-43-13s-12-10-12-15c-1-22,18-73,21-74c0,0,8-10,14-12s6-8,7-9"/>
	<path fill="none" stroke="#000000" stroke-miterlimit="10" d="M19.485,106c0,0,15,13,22,15s32-11,33-8s0,7-7,10s20,9,21,16
		s-15-3-19-5s19,11,15,16s-16-7-17-9s14,13,10,16c0,0-3,4-14-11c4,6,10,15,7,16s-9-11-14-15s-36-7-43-13s-12-10-12-15
		c-1-22,18-73,21-74c0,0,8-10,14-12s6-8,7-9"/>
	<line fill="none" stroke="#000000" stroke-miterlimit="10" x1="120.447" y1="39" x2="124.447" y2="44"/>
	<line fill="none" stroke="#000000" stroke-miterlimit="10" x1="127.447" y1="47" x2="129.447" y2="49"/>
	<line fill="none" stroke="#000000" stroke-miterlimit="10" x1="132.447" y1="53" x2="138.447" y2="61"/>
	<line fill="none" stroke="#000000" stroke-miterlimit="10" x1="141.447" y1="65" x2="157.447" y2="86"/>
	<line fill="none" stroke="#000000" stroke-miterlimit="10" x1="124.447" y1="105" x2="125.447" y2="108"/>
</g>
</svg>
