<?xml version="1.0" encoding="utf-8"?>
<!-- Generator: Adobe Illustrator 16.2.0, SVG Export Plug-In . SVG Version: 6.00 Build 0)  -->
<!DOCTYPE svg PUBLIC "-//W3C//DTD SVG 1.1//EN" "http://www.w3.org/Graphics/SVG/1.1/DTD/svg11.dtd">
<svg version="1.1" id="Layer_1" xmlns="http://www.w3.org/2000/svg" xmlns:xlink="http://www.w3.org/1999/xlink" x="0px" y="0px"
	 width="173px" height="108px" viewBox="0 0 173 108" enable-background="new 0 0 173 108" xml:space="preserve">
<g>
	<path fill="none" stroke="#000000" stroke-miterlimit="10" d="M47.806,77.653c-9.614-8.694-23.502-6.521-32.047-7.608
		c-8.546-1.086-13.887-9.782-13.887-9.782s-7.478,15.215,21.364,33.693c28.844,18.478,44.867,13.042,61.959,7.608
		c17.093-5.436,26.706-13.043,30.979-18.476c4.274-5.436,27.774-33.695,29.911-38.042c2.136-4.347,3.205-9.782,3.205-9.782"/>
	<path fill="none" stroke="#000000" stroke-miterlimit="10" d="M59.557,80.914c0,0,4.274,11.956,19.229,8.694
		c14.955-3.261,10.683-6.521,10.683-6.521S81.99,85.261,78.785,82c-3.205-3.261-13.887-1.086-13.887-1.086"/>
	<ellipse fill="none" stroke="#000000" stroke-miterlimit="10" cx="48.874" cy="70.045" rx="2.137" ry="2.174"/>
	<path fill="none" stroke="#000000" stroke-miterlimit="10" d="M133.265,36.352c0,0-5.341-18.478,6.409-29.347
		c1.068,3.261,1.068,14.131,8.547,14.131c0,0-6.411,13.042-14.956,16.303C124.72,40.699,111.9,48.308,111.9,48.308l-1.068-2.175
		c0,0-4.273,3.261-9.615,5.436c-10.683-3.261-24.569-1.088-27.774,0c-3.205,1.086-13.887,6.52-20.297,5.434
		c-6.409-1.087-17.091-3.26-24.569-1.087C21.1,58.088,6.145,57.002,6.145,57.002s8.545,9.782,16.023,9.782
		c7.478,0,11.75,3.261,11.75,3.261"/>
	<path fill="none" stroke="#000000" stroke-miterlimit="10" d="M151.426,33.091c26.706-10.87,21.364-36.955,20.297-32.606
		c-1.068,4.348-6.41,8.695-12.819,11.956c-12.819,5.434-12.819,23.911-12.819,23.911L151.426,33.091z"/>
</g>
</svg>
