<?xml version="1.0" encoding="utf-8"?>
<!-- Generator: Adobe Illustrator 16.2.0, SVG Export Plug-In . SVG Version: 6.00 Build 0)  -->
<!DOCTYPE svg PUBLIC "-//W3C//DTD SVG 1.1//EN" "http://www.w3.org/Graphics/SVG/1.1/DTD/svg11.dtd">
<svg version="1.1" id="Layer_1" xmlns="http://www.w3.org/2000/svg" xmlns:xlink="http://www.w3.org/1999/xlink" x="0px" y="0px"
	 width="173px" height="158px" viewBox="0 0 173 158" enable-background="new 0 0 173 158" xml:space="preserve">
<g>
	<line fill="none" stroke="#000000" stroke-miterlimit="10" x1="21.915" y1="82.338" x2="-0.339" y2="74.55"/>
	<line fill="none" stroke="#000000" stroke-miterlimit="10" x1="16.352" y1="112.381" x2="1.887" y2="116.831"/>
	<line fill="none" stroke="#000000" stroke-miterlimit="10" x1="41.943" y1="142.423" x2="25.253" y2="158.001"/>
	<line fill="none" stroke="#000000" stroke-miterlimit="10" x1="130.957" y1="137.972" x2="148.76" y2="149.099"/>
	<line fill="none" stroke="#000000" stroke-miterlimit="10" x1="142.084" y1="104.591" x2="161" y2="104.591"/>
	<line fill="none" stroke="#000000" stroke-miterlimit="10" x1="133.183" y1="54.521" x2="150.986" y2="35.606"/>
	<path fill="none" stroke="#000000" stroke-miterlimit="10" d="M18.577,0c0,0,11.127,35.606,32.268,53.41"/>
	<circle fill="none" stroke="#000000" stroke-miterlimit="10" cx="50.845" cy="54.521" r="4.45"/>
	<path fill="none" stroke="#000000" stroke-miterlimit="10" d="M63.761,95.69c5.825-7.329,16.932-17.68,34.929-21.141"/>
	<path fill="none" stroke="#000000" stroke-miterlimit="10" d="M86.45,115.719c2.986-1.771,4.974-2.61,8.107-4.801
		c16.48-11.529,27.608-24.064,24.855-27.999c-2.752-3.936-18.344,2.22-34.824,13.749c-16.48,11.528-27.608,24.065-24.855,28
		c0.707,1.011,2.263,1.356,4.463,1.114c0,0,2.226-0.049,4.451-1.162"/>
	<path fill="none" stroke="#000000" stroke-miterlimit="10" d="M75.323,103.479c6.238,0.561,11.127,4.742,11.127,11.126
		c0,6.761-5.48,12.24-12.239,12.24c-6.76,0-11.127-4.368-11.127-11.127"/>
	<path fill="none" stroke="#000000" stroke-miterlimit="10" d="M118.718,81.226c0,0-21.141-4.451-31.155-15.578
		s-26.704-13.351-33.38-7.788"/>
	<path fill="none" stroke="#000000" stroke-miterlimit="10" d="M58.633,122.395c0,0,1.394-19.481-6.382-31.679
		c-7.777-12.198-6.36-27.571,0.818-31.743"/>
</g>
</svg>
