<?xml version="1.0" encoding="utf-8"?>
<!-- Generator: Adobe Illustrator 16.2.0, SVG Export Plug-In . SVG Version: 6.00 Build 0)  -->
<!DOCTYPE svg PUBLIC "-//W3C//DTD SVG 1.1//EN" "http://www.w3.org/Graphics/SVG/1.1/DTD/svg11.dtd">
<svg version="1.1" id="Layer_1" xmlns="http://www.w3.org/2000/svg" xmlns:xlink="http://www.w3.org/1999/xlink" x="0px" y="0px"
	 width="173px" height="117px" viewBox="0 0 173 117" enable-background="new 0 0 173 117" xml:space="preserve">
<g>
	<polyline fill="none" stroke="#000000" stroke-miterlimit="10" points="60,104.5 38.5,104.5 38.5,116 	"/>
	<polyline fill="none" stroke="#000000" stroke-miterlimit="10" points="82,89.5 60.5,89.5 60.5,105 	"/>
	<polyline fill="none" stroke="#000000" stroke-miterlimit="10" points="104,74.5 82.5,74.5 82.5,90 	"/>
	<polyline fill="none" stroke="#000000" stroke-miterlimit="10" points="126,59.5 104.5,59.5 104.5,75 	"/>
	<polyline fill="none" stroke="#000000" stroke-miterlimit="10" points="149,44.5 126.5,44.5 126.5,60 	"/>
	<line fill="none" stroke="#000000" stroke-miterlimit="10" x1="149.5" y1="30" x2="149.5" y2="45"/>
	<g>
		<line fill="none" stroke="#000000" stroke-miterlimit="10" x1="23.402" y1="50.108" x2="27.025" y2="41.415"/>
		<polyline fill="none" stroke="#000000" stroke-miterlimit="10" points="15.116,116 5.725,109.898 4.959,108.763 16.143,88.281 
			19.335,79.681 21.883,63.883 21.357,57.722 22.152,55.001 22.568,54.108 		"/>
		<path fill="none" stroke="#000000" stroke-miterlimit="10" d="M15,116.5h6.581l0.319-2.224l-3.456-0.684l-4.22-5.3l6.847-11.083
			l6.688-10.079c1.624-3.79,5.419-21.159,5.419-21.159"/>
		<path fill="none" stroke="#000000" stroke-miterlimit="10" d="M36.452,52.052c0,0,12.545,7.388,15.858,11.975
			c2.382,3.297,2.889,2.886,2.987,5c0.037,0.824-2.356,5.896-3.987,7.362c-5.269,4.731-12.716,12.358-13.324,16.128
			c-0.796,4.936,4.299,4.744,4.299,4.744l-1.464,2.803c0,0-13.823-2.229-13.344-5.19c0.478-2.961,18.12-24.426,18.12-24.426
			s-6.915-0.815-15.323-5.211"/>
		<path fill="none" stroke="#000000" stroke-miterlimit="10" d="M38.776,25.077c0,0-10.191,0.384-10.828,4.332
			c-0.637,3.949,6.306,11.147,6.306,11.147l4.299,4.744c0,0-0.955,5.923-4.585,3.312c-3.631-2.61-13.726-15.382-13.249-18.343
			c0.478-2.962,1.274-7.897,8.821-10.732c5.573-3.152,7.707-3.821,10.669-3.345"/>
		<path fill="none" stroke="#000000" stroke-miterlimit="10" d="M39.381,15.046c0,0,1.974,0.318,3.79,1.625
			c6.273,5.063,2.834,7.548,3.026,12.643c0.19,5.096-9.745,22.739-9.745,22.739S4.664,53.894,0.116,61.001"/>
		<line fill="none" stroke="#000000" stroke-miterlimit="10" x1="31.388" y1="26.926" x2="29.446" y2="32.69"/>
		<path fill="none" stroke="#000000" stroke-miterlimit="10" d="M43.617,39.027c0,0,11.496-2.198,16.083-5.51
			c3.28-1.497,3.152,5.571,0.031,6.083c-3.121,0.509-16.082,5.51-20.191,5.859"/>
		
			<ellipse transform="matrix(0.9059 0.4235 -0.4235 0.9059 8.1765 -18.7795)" fill="none" stroke="#000000" stroke-miterlimit="10" cx="46.349" cy="9.01" rx="7" ry="8.001"/>
		<path fill="none" stroke="#000000" stroke-miterlimit="10" d="M35.568,49.108c0,0-23.904,1-35.452,8"/>
	</g>
</g>
</svg>
