<?xml version="1.0" encoding="utf-8"?>
<!-- Generator: Adobe Illustrator 16.2.0, SVG Export Plug-In . SVG Version: 6.00 Build 0)  -->
<!DOCTYPE svg PUBLIC "-//W3C//DTD SVG 1.1//EN" "http://www.w3.org/Graphics/SVG/1.1/DTD/svg11.dtd">
<svg version="1.1" id="Layer_1" xmlns="http://www.w3.org/2000/svg" xmlns:xlink="http://www.w3.org/1999/xlink" x="0px" y="0px"
	 width="173px" height="167px" viewBox="0 0 173 167" enable-background="new 0 0 173 167" xml:space="preserve">
<g>
	<path fill="none" stroke="#000000" stroke-miterlimit="10" d="M68.084,1c0,0-3.45,16.248-19.396,34.787
		c-30.337,35.271-76.216,86.894-21.15,107.205c58.247,21.486,66.544-52.019,59.207-100.998C83.501,20.335,68.084,1,68.084,1z"/>
	<path fill="#FFFFFF" d="M15.057,166.304c14.399-17.956,45.271-64.731,50.307-124.972c0,0-15.165,86.242-55.527,121.504
		L15.057,166.304z"/>
	<path fill="none" stroke="#000000" stroke-miterlimit="10" d="M15.057,166.304c14.399-17.956,45.271-64.731,50.307-124.972
		c0,0-15.165,86.242-55.527,121.504L15.057,166.304z"/>
	<line fill="#FFFFFF" x1="62.189" y1="68.193" x2="82.776" y2="60.428"/>
	<line fill="none" stroke="#000000" stroke-miterlimit="10" x1="62.189" y1="68.193" x2="82.776" y2="60.428"/>
	<line fill="#FFFFFF" x1="75.044" y1="62.438" x2="82.061" y2="47.912"/>
	<line fill="none" stroke="#000000" stroke-miterlimit="10" x1="75.044" y1="62.438" x2="82.061" y2="47.912"/>
	<line fill="#FFFFFF" x1="50.407" y1="92.721" x2="32.298" y2="72.41"/>
	<line fill="none" stroke="#000000" stroke-miterlimit="10" x1="50.407" y1="92.721" x2="32.298" y2="72.41"/>
	<polyline fill="#FFFFFF" points="38.913,78.312 40.371,65.357 36.187,58.063 	"/>
	<polyline fill="none" stroke="#000000" stroke-miterlimit="10" points="38.913,78.312 40.371,65.357 36.187,58.063 	"/>
	<polyline fill="#FFFFFF" points="40.986,70.66 47.623,63.22 49.837,60.738 	"/>
	<polyline fill="none" stroke="#000000" stroke-miterlimit="10" points="40.986,70.66 47.623,63.22 49.837,60.738 	"/>
	<polyline fill="#FFFFFF" points="47.623,63.22 42.865,48.579 44.856,45.013 	"/>
	<polyline fill="none" stroke="#000000" stroke-miterlimit="10" points="47.623,63.22 42.865,48.579 44.856,45.013 	"/>
	<line fill="#FFFFFF" x1="44.957" y1="52.228" x2="50.337" y2="47.525"/>
	<line fill="none" stroke="#000000" stroke-miterlimit="10" x1="44.957" y1="52.228" x2="50.337" y2="47.525"/>
	<polyline fill="#FFFFFF" points="42.369,122.371 65.825,115.382 75.31,122.06 	"/>
	<polyline fill="none" stroke="#000000" stroke-miterlimit="10" points="42.369,122.371 65.825,115.382 75.31,122.06 	"/>
	<polyline fill="#FFFFFF" points="59.309,116.696 63.376,105.479 75.712,101.635 	"/>
	<polyline fill="none" stroke="#000000" stroke-miterlimit="10" points="59.309,116.696 63.376,105.479 75.712,101.635 	"/>
	<line fill="#FFFFFF" x1="71.368" y1="102.511" x2="73.602" y2="86.689"/>
	<line fill="none" stroke="#000000" stroke-miterlimit="10" x1="71.368" y1="102.511" x2="73.602" y2="86.689"/>
	<line fill="#FFFFFF" x1="57.003" y1="87.322" x2="68.383" y2="83.22"/>
	<line fill="none" stroke="#000000" stroke-miterlimit="10" x1="57.003" y1="87.322" x2="68.383" y2="83.22"/>
	<line fill="#FFFFFF" x1="43.826" y1="109.42" x2="29.364" y2="87.016"/>
	<line fill="none" stroke="#000000" stroke-miterlimit="10" x1="43.826" y1="109.42" x2="29.364" y2="87.016"/>
	<polyline fill="#FFFFFF" points="34.556,128.468 23.758,115.273 16.948,94.943 	"/>
	<polyline fill="none" stroke="#000000" stroke-miterlimit="10" points="34.556,128.468 23.758,115.273 16.948,94.943 	"/>
	<polyline fill="#FFFFFF" points="36.826,135.242 50.037,135.744 61.677,130.686 	"/>
	<polyline fill="none" stroke="#000000" stroke-miterlimit="10" points="36.826,135.242 50.037,135.744 61.677,130.686 	"/>
	<polyline fill="#FFFFFF" points="65.364,41.332 70.048,35.416 68.995,27.942 70.014,12.817 	"/>
	<polyline fill="none" stroke="#000000" stroke-miterlimit="10" points="65.364,41.332 70.048,35.416 68.995,27.942 70.014,12.817 	
		"/>
	<polyline fill="#FFFFFF" points="34.245,95.525 21.114,90.939 18.325,86.079 	"/>
	<polyline fill="none" stroke="#000000" stroke-miterlimit="10" points="34.245,95.525 21.114,90.939 18.325,86.079 	"/>
	<line fill="#FFFFFF" x1="20.094" y1="106.063" x2="8.875" y2="101.998"/>
	<line fill="none" stroke="#000000" stroke-miterlimit="10" x1="20.094" y1="106.063" x2="8.875" y2="101.998"/>
	<polyline fill="#FFFFFF" points="27.763,119.438 33.046,107.523 30.079,99.531 	"/>
	<polyline fill="none" stroke="#000000" stroke-miterlimit="10" points="27.763,119.438 33.046,107.523 30.079,99.531 	"/>
	<line fill="#FFFFFF" x1="31.75" y1="112.305" x2="38.267" y2="110.992"/>
	<line fill="none" stroke="#000000" stroke-miterlimit="10" x1="31.75" y1="112.305" x2="38.267" y2="110.992"/>
	<line fill="#FFFFFF" x1="46.909" y1="135.922" x2="52.452" y2="123.05"/>
	<line fill="none" stroke="#000000" stroke-miterlimit="10" x1="46.909" y1="135.922" x2="52.452" y2="123.05"/>
	<line fill="#FFFFFF" x1="55.596" y1="134.17" x2="62.032" y2="136.943"/>
	<line fill="none" stroke="#000000" stroke-miterlimit="10" x1="55.596" y1="134.17" x2="62.032" y2="136.943"/>
	<line fill="#FFFFFF" x1="69.391" y1="117.375" x2="79.117" y2="111.799"/>
	<line fill="none" stroke="#000000" stroke-miterlimit="10" x1="69.391" y1="117.375" x2="79.117" y2="111.799"/>
	<line fill="#FFFFFF" x1="74.514" y1="113.631" x2="75.113" y2="107.633"/>
	<line fill="none" stroke="#000000" stroke-miterlimit="10" x1="74.514" y1="113.631" x2="75.113" y2="107.633"/>
	<polyline fill="#FFFFFF" points="80.362,73.119 68.804,74.094 65.257,83.398 	"/>
	<polyline fill="none" stroke="#000000" stroke-miterlimit="10" points="80.362,73.119 68.804,74.094 65.257,83.398 	"/>
	<line fill="#FFFFFF" x1="73.603" y1="86.688" x2="81.158" y2="81.55"/>
	<line fill="none" stroke="#000000" stroke-miterlimit="10" x1="73.603" y1="86.688" x2="81.158" y2="81.55"/>
	<polyline fill="#FFFFFF" points="78.335,54.088 73.275,42.45 78.558,30.534 	"/>
	<polyline fill="none" stroke="#000000" stroke-miterlimit="10" points="78.335,54.088 73.275,42.45 78.558,30.534 	"/>
	<polyline fill="#FFFFFF" points="63.03,49.94 58.15,41.431 57.794,32.094 57.177,29.873 	"/>
	<polyline fill="none" stroke="#000000" stroke-miterlimit="10" points="63.03,49.94 58.15,41.431 57.794,32.094 57.177,29.873 	"/>
	<line fill="#FFFFFF" x1="57.793" y1="35.174" x2="64.39" y2="29.773"/>
	<line fill="none" stroke="#000000" stroke-miterlimit="10" x1="57.793" y1="35.174" x2="64.39" y2="29.773"/>
	<line fill="#FFFFFF" x1="69.253" y1="26.985" x2="74.457" y2="19.154"/>
	<line fill="none" stroke="#000000" stroke-miterlimit="10" x1="69.253" y1="26.985" x2="74.457" y2="19.154"/>
	<line fill="none" stroke="#000000" stroke-miterlimit="10" x1="52.533" y1="118.966" x2="56.341" y2="108.704"/>
	<polyline fill="none" stroke="#000000" stroke-miterlimit="10" points="29.854,123.086 21.086,125.131 10.903,121.028 	"/>
	<polyline fill="none" stroke="#000000" stroke-miterlimit="10" points="38.249,99.691 38.151,92.479 36.659,82.833 28.83,77.63 	
		"/>
	<polyline fill="none" stroke="#000000" stroke-miterlimit="10" points="45.006,86.123 49.075,74.906 54.536,66.119 	"/>
	<line fill="none" stroke="#000000" stroke-miterlimit="10" x1="50.372" y1="70.125" x2="49.237" y2="66.734"/>
	<polyline fill="none" stroke="#000000" stroke-miterlimit="10" points="69.225,64.967 69.768,56.9 69.905,54.883 74.249,54.009 	
		"/>
	<line fill="none" stroke="#000000" stroke-miterlimit="10" x1="75.107" y1="47.053" x2="69.627" y2="44.541"/>
	<polyline fill="none" stroke="#000000" stroke-miterlimit="10" points="60.179,60.461 56.077,49.082 55.897,45.953 	"/>
	<line fill="none" stroke="#000000" stroke-miterlimit="10" x1="56.952" y1="53.426" x2="50.954" y2="52.827"/>
	<polyline fill="none" stroke="#000000" stroke-miterlimit="10" points="73.523,90.773 79.277,88.484 82.73,87.11 	"/>
	<line fill="none" stroke="#000000" stroke-miterlimit="10" x1="84.043" y1="93.626" x2="79.276" y2="88.484"/>
	<polyline fill="#FFFFFF" points="59.096,90.969 66.666,97.129 63.377,105.479 	"/>
	<polyline fill="none" stroke="#000000" stroke-miterlimit="10" points="59.096,90.969 66.666,97.129 63.377,105.479 	"/>
</g>
</svg>
