<?xml version="1.0" encoding="utf-8"?>
<!-- Generator: Adobe Illustrator 16.2.0, SVG Export Plug-In . SVG Version: 6.00 Build 0)  -->
<!DOCTYPE svg PUBLIC "-//W3C//DTD SVG 1.1//EN" "http://www.w3.org/Graphics/SVG/1.1/DTD/svg11.dtd">
<svg version="1.1" id="Layer_1" xmlns="http://www.w3.org/2000/svg" xmlns:xlink="http://www.w3.org/1999/xlink" x="0px" y="0px"
	 width="173px" height="108px" viewBox="0 0 173 108" enable-background="new 0 0 173 108" xml:space="preserve">
<g>
	<radialGradient id="SVGID_2_" cx="82.5" cy="42" r="10" gradientUnits="userSpaceOnUse">
		<stop  offset="0" style="stop-color:#FFFFFF;stop-opacity:0.1"/>
		<stop  offset="1" style="stop-color:#FFFFFF"/>
	</radialGradient>
	<path fill="url(#SVGID_2_)" stroke="#000000" stroke-miterlimit="10" d="M92.5,42c0,4.101-2.468,7.624-5.999,9.167
		C85.276,51.703,83.922,52,82.5,52c-5.523,0-10-4.478-10-10s4.477-10,10-10S92.5,36.478,92.5,42z"/>
	<line fill="none" stroke="#000000" stroke-miterlimit="10" x1="122.5" y1="40" x2="92.5" y2="42"/>
	<path fill="none" stroke="#000000" stroke-miterlimit="10" d="M118.5,25c0,0-13,9-15,11"/>
	<polyline fill="none" stroke="#000000" stroke-miterlimit="10" points="120.5,30 93.5,40 92.5,40 	"/>
	<path fill="none" stroke="#000000" stroke-miterlimit="10" d="M90.5,36l6-10c0,0,6,4,17-10"/>
	<line fill="none" stroke="#000000" stroke-miterlimit="10" x1="88.5" y1="34" x2="100.5" y2="6"/>
	<line fill="none" stroke="#000000" stroke-miterlimit="10" x1="103.5" y1="42" x2="112.5" y2="47"/>
	<line fill="none" stroke="#000000" stroke-miterlimit="10" x1="91.5" y1="48" x2="102.5" y2="53"/>
	<path fill="none" stroke="#000000" stroke-miterlimit="10" d="M92.5,46l5,1.111l4,0.889l7,2h5c0,0,7-3,8,0"/>
	<polyline fill="none" stroke="#000000" stroke-miterlimit="10" points="97.5,47.111 111.5,56.001 111.5,57.001 119.5,60.001 	"/>
	<path fill="none" stroke="#000000" stroke-miterlimit="10" d="M89.5,50c0,0,21,13,24,15"/>
	<line fill="none" stroke="#000000" stroke-miterlimit="10" x1="96.5" y1="55" x2="100.5" y2="68"/>
	<path fill="none" stroke="#000000" stroke-miterlimit="10" d="M46.5,22c0,0-6-2-12,1s-17,9-17,9s-8,3-6,13c0,0,1,21,9,24s7,6,16,3
		s17-6,17-6s11-3,13,1s1,6,1,6"/>
	<path fill="none" stroke="#000000" stroke-miterlimit="10" d="M34.5,46c0,0-3,4-2,9"/>
	<path fill="none" stroke="#000000" stroke-miterlimit="10" d="M25.5,53c0,0,13,1,16,17"/>
	<path fill="none" stroke="#000000" stroke-miterlimit="10" d="M34.5,72c0,0,1-10-5-11s-6,6-1,12"/>
	<path fill="none" stroke="#000000" stroke-miterlimit="10" d="M137.16,70.509c0,0-5.341-9.817-0.411-13.379
		c4.931-3.563,8.042,1.78,6.23,9.379"/>
	<line fill="none" stroke="#000000" stroke-miterlimit="10" x1="14.5" y1="61" x2="-1.5" y2="62"/>
	<path fill="none" stroke="#000000" stroke-miterlimit="10" d="M31.5,24c0,0-31-3-32-9"/>
	<path fill="none" stroke="#000000" stroke-miterlimit="10" d="M116.485,21l23.015,7c0,0,8,3,9,9s1,9,2,10s3,10,1,12s-12,11-12,11
		s-12,7-13-8c1-11,11-16,11-16"/>
	<path fill="none" stroke="#000000" stroke-miterlimit="10" d="M128.5,45c0,0,4,4,4,5"/>
	<path fill="none" stroke="#000000" stroke-miterlimit="10" d="M173.5,16c0,0-37,9-39,10"/>
	<path fill="none" stroke="#000000" stroke-miterlimit="10" d="M34.5,91c0,0,7.369,0.505,13-4c5-4,19-13,19-13s9-5,12-1s2,9,1,9
		s-10,9-16,13s-4,3-9,6"/>
	<path fill="none" stroke="#000000" stroke-miterlimit="10" d="M18.5,68c0,0-3,17,1,20s10,3,11,5s4,6,6,7s18,1,18,3s14,7,18,3l5-6
		c0,0,4-3,8-11s-4-9-4-9"/>
	<path fill="none" stroke="#000000" stroke-miterlimit="10" d="M67.5,71c0,0-6-1-6-3s-8,7-3,11"/>
	<path fill="none" stroke="#000000" stroke-miterlimit="10" d="M78.5,83c1,2,6,4,6,4s-5,10-11,8c-4-3,0-7,1-9c0,0-3,3-8-1s6-13,6-10
		s7,6,7,6"/>
	<path fill="none" stroke="#000000" stroke-miterlimit="10" d="M74.5,104c0,0,5,4,12-1c3-9-4-8-5-7"/>
	<path fill="none" stroke="#000000" stroke-miterlimit="10" d="M80.5,98c0,0,3,1,4,2s-3,1-5,1S80.5,98,80.5,98z"/>
	<path fill="none" stroke="#000000" stroke-miterlimit="10" d="M91.39,98c0,0-1.974,1-2.631,2c-0.658,1,1.973,1,3.289,1
		C93.364,101,91.39,98,91.39,98z"/>
	<path fill="none" stroke="#000000" stroke-miterlimit="10" d="M127.5,69c0,0-15-4-20-2s-8,6-3,9s31,12,31,12"/>
	<path fill="none" stroke="#000000" stroke-miterlimit="10" d="M102.5,72c0,0,4-2,7-1s7,4,5,5s-5,2-5,2"/>
	<path fill="none" stroke="#000000" stroke-miterlimit="10" d="M101.5,72c0,0-9-1-10,3s-4,5,4,10s19,12,19,12"/>
	<path fill="none" stroke="#000000" stroke-miterlimit="10" d="M91.5,81c0,0,4-3,5-5s6,4,6,7s-5,2-7,1"/>
	<path fill="none" stroke="#000000" stroke-miterlimit="10" d="M93.5,84c0,0-8-2-7,8c5,7,13,9,13,9"/>
	<path fill="none" stroke="#000000" stroke-miterlimit="10" d="M88.5,95c0,1-1,2-1,2"/>
	<path fill="none" stroke="#000000" stroke-miterlimit="10" d="M87.5,102c0,0,7,6,11,0c2,0,13,3,16,0c0,0,2-3,6-3s18,1,18-7
		s9-4,12-7c0,0,5-4,1-16s-2-8-2-8l23-1"/>
	<path fill="none" stroke="#000000" stroke-miterlimit="10" d="M90.5,92l4,4c0,0,3,1,5-1s0-5,0-5l-4-3C95.5,87,94.5,91,90.5,92z"/>
	<path fill="none" stroke="#000000" stroke-miterlimit="10" d="M73.5,37c0,0-18-21-20-23"/>
	<path fill="none" stroke="#000000" stroke-miterlimit="10" d="M77.5,32c0,0-3-9-9-12s-6-8-6-8"/>
	<path fill="none" stroke="#000000" stroke-miterlimit="10" d="M63.5,6c0,0,6,11,6,14"/>
	<path fill="none" stroke="#000000" stroke-miterlimit="10" d="M69.5,7c0,0,1,12,2,15"/>
	<path fill="none" stroke="#000000" stroke-miterlimit="10" d="M82.5,32c-1-4-5-26-5-26l-1-4"/>
	<path fill="none" stroke="#000000" stroke-miterlimit="10" d="M81.5,9c0,0,0,17,5,19"/>
	<path fill="none" stroke="#000000" stroke-miterlimit="10" d="M89.5,7c-2,5-7,11-7,11"/>
	<path fill="none" stroke="#000000" stroke-miterlimit="10" d="M71.5,43c0,0-9-1-14,1c-4,0-9-4-12-2l-4,1"/>
	<path fill="none" stroke="#000000" stroke-miterlimit="10" d="M44.5,31c1,0,5,4,5,4s5,6,12,5s11,1,11,1s-8-2-11-4l-16-11"/>
	<line fill="none" stroke="#000000" stroke-miterlimit="10" x1="81.5" y1="43" x2="74.5" y2="37"/>
	<path fill="none" stroke="#000000" stroke-miterlimit="10" d="M82.5,33v6c-1-3-4-6-4-6"/>
	<path fill="none" stroke="#000000" stroke-miterlimit="10" d="M86.5,33c0,0,0,9-3,9"/>
	<polyline fill="none" stroke="#000000" stroke-miterlimit="10" points="88.5,35 82.5,40 90.5,37 	"/>
	<path fill="none" stroke="#000000" stroke-miterlimit="10" d="M79.5,48c0,0-12,17-13,18"/>
	<line fill="none" stroke="#000000" stroke-miterlimit="10" x1="82.5" y1="46" x2="78.5" y2="68"/>
	<polyline fill="none" stroke="#000000" stroke-miterlimit="10" points="84.5,48 92.5,62 92.5,71 	"/>
	<line fill="none" stroke="#000000" stroke-miterlimit="10" x1="93.5" y1="42" x2="87.5" y2="44"/>
	<line fill="none" stroke="#000000" stroke-miterlimit="10" x1="93.5" y1="39" x2="87.5" y2="41"/>
	<line fill="none" stroke="#000000" stroke-miterlimit="10" x1="79.5" y1="45" x2="72.5" y2="41"/>
	<polyline fill="none" stroke="#000000" stroke-miterlimit="10" points="73.5,47 50.5,55 45.5,58 	"/>
	<line fill="none" stroke="#000000" stroke-miterlimit="10" x1="77.5" y1="47" x2="63.5" y2="56"/>
	<path fill="none" stroke="#000000" stroke-miterlimit="10" d="M76.5,49c0,0-15,12-16,15"/>
	<path fill="none" stroke="#000000" stroke-miterlimit="10" d="M75.5,54c0,0,0,12,1,13"/>
	<path fill="none" stroke="#000000" stroke-miterlimit="10" d="M73.5,56c0,0-1,9,0,12"/>
	<path fill="none" stroke="#000000" stroke-miterlimit="10" d="M53.5,22c0,0,0,4,7,7s13,9,13,9"/>
	<polyline fill="none" stroke="#000000" stroke-miterlimit="10" points="69.5,26 75.5,35 80.5,40 	"/>
	<line fill="none" stroke="#000000" stroke-miterlimit="10" x1="72.5" y1="28" x2="79.5" y2="37"/>
	<path fill="none" stroke="#000000" stroke-miterlimit="10" d="M83.5,50c0,0,5,23,6,27"/>
	<polyline fill="none" stroke="#000000" stroke-miterlimit="10" points="82.5,49 83.5,76 83.5,79 	"/>
	<path fill="none" stroke="#000000" stroke-miterlimit="10" d="M51.5,47h10c3,0,11-2,11-2"/>
	<path fill="none" stroke="#000000" stroke-miterlimit="10" d="M60.5,48c0,0-11,6-16,6"/>
	<path fill="none" stroke="#000000" stroke-miterlimit="10" d="M109.5,54c0,0,10,0,11,1"/>
	<path fill="none" stroke="#000000" stroke-miterlimit="10" d="M96.5,26c0,0,8-10,11-16"/>
	<polyline fill="none" stroke="#000000" stroke-miterlimit="10" points="86.5,1 86.5,3 86.5,12 	"/>
	<line fill="none" stroke="#000000" stroke-miterlimit="10" x1="55.5" y1="26" x2="47.5" y2="21"/>
	<line fill="none" stroke="#000000" stroke-miterlimit="10" x1="63.5" y1="15" x2="56.5" y2="11"/>
	<line fill="none" stroke="#000000" stroke-miterlimit="10" x1="77.5" y1="8" x2="73.5" y2="3"/>
	<line fill="none" stroke="#000000" stroke-miterlimit="10" x1="86.5" y1="6" x2="81.5" y2="1"/>
	<line fill="none" stroke="#000000" stroke-miterlimit="10" x1="97.5" y1="12" x2="104.5" y2="9"/>
	<polyline fill="none" stroke="#000000" stroke-miterlimit="10" points="95.5,3 93.5,9 93.5,10 92.773,12 85.5,32 	"/>
	<line fill="none" stroke="#000000" stroke-miterlimit="10" x1="98.5" y1="4" x2="92.773" y2="12"/>
	<line fill="none" stroke="#000000" stroke-miterlimit="10" x1="104.5" y1="15" x2="109.5" y2="12"/>
	<line fill="none" stroke="#000000" stroke-miterlimit="10" x1="108.5" y1="21" x2="111.5" y2="13"/>
	<line fill="none" stroke="#000000" stroke-miterlimit="10" x1="106.5" y1="23" x2="115.5" y2="18"/>
	<line fill="none" stroke="#000000" stroke-miterlimit="10" x1="113.5" y1="28" x2="116.5" y2="21"/>
	<polyline fill="none" stroke="#000000" stroke-miterlimit="10" points="102.5,28 96.5,37 96.5,38 	"/>
	<line fill="none" stroke="#000000" stroke-miterlimit="10" x1="115.5" y1="20" x2="102.5" y2="29"/>
	<line fill="none" stroke="#000000" stroke-miterlimit="10" x1="112.5" y1="40" x2="122.5" y2="36"/>
	<line fill="none" stroke="#000000" stroke-miterlimit="10" x1="110.5" y1="35" x2="121.5" y2="32"/>
	<line fill="none" stroke="#000000" stroke-miterlimit="10" x1="117.5" y1="41" x2="122.5" y2="42"/>
	<line fill="none" stroke="#000000" stroke-miterlimit="10" x1="111.5" y1="41" x2="122.5" y2="45"/>
	<line fill="none" stroke="#000000" stroke-miterlimit="10" x1="114.5" y1="49" x2="122.5" y2="47"/>
	<line fill="none" stroke="#000000" stroke-miterlimit="10" x1="115.5" y1="53" x2="121.5" y2="51"/>
	<line fill="none" stroke="#000000" stroke-miterlimit="10" x1="117.5" y1="54" x2="119.5" y2="57"/>
	<line fill="none" stroke="#000000" stroke-miterlimit="10" x1="113.5" y1="58" x2="116.5" y2="62"/>
	<line fill="none" stroke="#000000" stroke-miterlimit="10" x1="109.5" y1="62" x2="116.5" y2="64"/>
	<line fill="none" stroke="#000000" stroke-miterlimit="10" x1="105.5" y1="61" x2="107.5" y2="66"/>
	<line fill="none" stroke="#000000" stroke-miterlimit="10" x1="98.5" y1="64" x2="96.5" y2="72"/>
	<polyline fill="none" stroke="#000000" stroke-miterlimit="10" points="88.5,73 86.5,80 87.5,82 	"/>
	<line fill="none" stroke="#000000" stroke-miterlimit="10" x1="70.5" y1="9" x2="71.5" y2="3"/>
	<line fill="none" stroke="#000000" stroke-miterlimit="10" x1="66.5" y1="10" x2="67.5" y2="3"/>
	<polyline fill="none" stroke="#000000" stroke-miterlimit="10" points="75.5,27 75.5,17 73.5,13 74.5,5 	"/>
	<line fill="none" stroke="#000000" stroke-miterlimit="10" x1="57.5" y1="18" x2="50.5" y2="17"/>
	<line fill="none" stroke="#000000" stroke-miterlimit="10" x1="60.5" y1="21" x2="60.5" y2="15"/>
	<polyline fill="none" stroke="#000000" stroke-miterlimit="10" points="64.5,32 57.5,30 50.5,29 	"/>
	<line fill="none" stroke="#000000" stroke-miterlimit="10" x1="48.5" y1="27" x2="47.5" y2="23"/>
	<line fill="none" stroke="#000000" stroke-miterlimit="10" x1="49.5" y1="29" x2="45.5" y2="29"/>
	<line fill="none" stroke="#000000" stroke-miterlimit="10" x1="48.5" y1="36" x2="42.5" y2="36"/>
	<line fill="none" stroke="#000000" stroke-miterlimit="10" x1="50.5" y1="36" x2="48.5" y2="35"/>
	<line fill="none" stroke="#000000" stroke-miterlimit="10" x1="48.5" y1="41" x2="42.5" y2="38"/>
	<line fill="none" stroke="#000000" stroke-miterlimit="10" x1="50.5" y1="53" x2="43.5" y2="50"/>
	<polyline fill="none" stroke="#000000" stroke-miterlimit="10" points="51.5,42 46.5,45 41.5,47 	"/>
	<line fill="none" stroke="#000000" stroke-miterlimit="10" x1="54.5" y1="54" x2="46.5" y2="60"/>
	<line fill="none" stroke="#000000" stroke-miterlimit="10" x1="58.5" y1="53" x2="54.5" y2="65"/>
	<line fill="none" stroke="#000000" stroke-miterlimit="10" x1="55.5" y1="61" x2="49.5" y2="64"/>
	<line fill="none" stroke="#000000" stroke-miterlimit="10" x1="50.5" y1="57" x2="48.5" y2="62"/>
	<line fill="none" stroke="#000000" stroke-miterlimit="10" x1="72.5" y1="68" x2="72.5" y2="71"/>
	<line fill="none" stroke="#000000" stroke-miterlimit="10" x1="75.5" y1="66" x2="75.5" y2="70"/>
</g>
</svg>
