<?xml version="1.0" encoding="utf-8"?>
<!-- Generator: Adobe Illustrator 16.2.0, SVG Export Plug-In . SVG Version: 6.00 Build 0)  -->
<!DOCTYPE svg PUBLIC "-//W3C//DTD SVG 1.1//EN" "http://www.w3.org/Graphics/SVG/1.1/DTD/svg11.dtd">
<svg version="1.1" id="Layer_1" xmlns="http://www.w3.org/2000/svg" xmlns:xlink="http://www.w3.org/1999/xlink" x="0px" y="0px"
	 width="173px" height="154px" viewBox="0 0 173 154" enable-background="new 0 0 173 154" xml:space="preserve">
<g>
	<line fill="none" stroke="#000000" stroke-miterlimit="10" x1="34.468" y1="42.068" x2="2.468" y2="7.068"/>
	<line fill="none" stroke="#000000" stroke-miterlimit="10" x1="77.468" y1="90.068" x2="49.468" y2="59.068"/>
	<line fill="none" stroke="#000000" stroke-miterlimit="10" x1="103.468" y1="119.069" x2="87.528" y2="101.069"/>
	<line fill="none" stroke="#000000" stroke-miterlimit="10" x1="35.548" y1="33.068" x2="8.468" y2="3.068"/>
	<line fill="none" stroke="#000000" stroke-miterlimit="10" x1="91.372" y1="95.068" x2="52.468" y2="52.068"/>
	<line fill="none" stroke="#000000" stroke-miterlimit="10" x1="109.468" y1="115.069" x2="95.468" y2="99.069"/>
	<path fill="none" stroke="#000000" stroke-miterlimit="10" d="M90.468,128.888l31.693-22.817c0,0,30.425,26.621,13.945,43.101
		C119.625,165.652,90.468,128.888,90.468,128.888z"/>
	<path fill="none" stroke="#000000" stroke-miterlimit="10" d="M92.052,91.697c0,0-1.228,6.98-2.424,10.465
		c-1.177,1.154,1.143,2.341,2.319,1.187c2.351-2.309,4.724-6.948,4.745-9.278c0,0,1.776-4.002-4.224-16.002s-2-22-2-22"/>
	<path fill="none" stroke="#000000" stroke-miterlimit="10" d="M89.192,94.293c0,0-5.613-8.478-8.42-7.064
		c-2.808,1.412-4.211,7.064-2.808,8.477c1.404,1.413,4.421,7.477,7.036,7.716c2.614,0.239,1.923-0.593,2.528-2.352
		C88.305,98.811,89.192,95.881,89.192,94.293z"/>
	<path fill="none" stroke="#000000" stroke-miterlimit="10" d="M80.468,82.068c0,0-5-23-5-26"/>
	<path fill="none" stroke="#000000" stroke-miterlimit="10" d="M56.468,55.068c2.351-2.308,0.979-4.668,1-7c0,0,2-3-4-15
		s-5-25.75-5-25.75"/>
	<path fill="none" stroke="#000000" stroke-miterlimit="10" d="M36.468,7.318v26c0,0-2,8.75-1,14.75c1,3,10,12,10,12s5,2,7-11"/>
	<path fill="none" stroke="#000000" stroke-miterlimit="10" d="M2.468,7.068c-1.141-1.89-1.382-4.35,0.51-5.492
		c1.89-1.143,4.35-0.534,5.49,1.355"/>
	<path fill="none" stroke="#000000" stroke-miterlimit="10" d="M83,87.421c0,0-3,6-3,8"/>
	<path fill="none" stroke="#000000" stroke-miterlimit="10" d="M85,89.421c0,0-3,6-3,8"/>
	<path fill="none" stroke="#000000" stroke-miterlimit="10" d="M87.5,91.921c0,0-3,6-3,8"/>
</g>
</svg>
