<?xml version="1.0" encoding="utf-8"?>
<!-- Generator: Adobe Illustrator 16.2.0, SVG Export Plug-In . SVG Version: 6.00 Build 0)  -->
<!DOCTYPE svg PUBLIC "-//W3C//DTD SVG 1.1//EN" "http://www.w3.org/Graphics/SVG/1.1/DTD/svg11.dtd">
<svg version="1.1" id="Layer_1" xmlns="http://www.w3.org/2000/svg" xmlns:xlink="http://www.w3.org/1999/xlink" x="0px" y="0px"
	 width="173px" height="92px" viewBox="0 0 173 92" enable-background="new 0 0 173 92" xml:space="preserve">
<g>
	<g>
		<path fill="none" stroke="#000000" stroke-miterlimit="10" d="M15.494,39.286c3.218,2.513,5.496,8.661,5.496,15.235
			c0,8.582-3.877,9.677-8.664,9.677c-4.784,0-8.665-1.095-8.665-9.677c0-6.597,2.295-12.762,5.53-15.26"/>
		<polyline fill="none" stroke="#000000" stroke-miterlimit="10" points="8.5,64 8.5,82.5 6,82.5 		"/>
		<polyline fill="none" stroke="#000000" stroke-miterlimit="10" points="17.5,64 17.5,82.5 20,82.5 		"/>
		<path fill="none" stroke="#000000" stroke-miterlimit="10" d="M18.919,46.776c0,0,0.792,2.179,4.649,1.224
			c2.64-0.654,0.918-3.516,1-7"/>
		<path fill="none" stroke="#000000" stroke-miterlimit="10" d="M6.128,43.989c0,0-6.909,9.649-5.063,12.606"/>
		<path fill="none" stroke="#000000" stroke-miterlimit="10" d="M22.099,30.317c0,5.387-4.046,9.326-9.433,9.326
			c-5.388,0-10.076-3.831-10.076-9.218s4.367-9.646,9.754-9.646S22.099,24.932,22.099,30.317z"/>
		<rect x="14.977" y="26.844" width="1.102" height="1.102"/>
		<rect x="8.365" y="26.844" width="1.102" height="1.102"/>
		<path fill="none" stroke="#000000" stroke-miterlimit="10" d="M10.569,32.476c0,0,2.205,2.204,4.409,0"/>
		<path fill="none" stroke="#000000" stroke-miterlimit="10" d="M1.568,15.5h46c0,0-3.833-12-23-12S1.568,11.5,1.568,15.5z"/>
		<path fill="none" stroke="#000000" stroke-miterlimit="10" d="M25.5,15v26c0,0,0.5,4-4.5,2"/>
		<polyline fill="none" stroke="#000000" stroke-miterlimit="10" points="22.568,3 23.568,0 24.568,3 		"/>
		<circle cx="30.568" cy="5" r="2"/>
		<circle cx="33.568" cy="11" r="2"/>
		<path d="M39.782,6.684c-0.349,1.048-1.482,1.614-2.53,1.266c-1.048-0.35-1.614-1.482-1.264-2.53"/>
		<circle cx="17.568" cy="8" r="2"/>
		<path d="M13.568,15c0-1.104,0.896-2,2-2s2,0.896,2,2"/>
		<circle cx="6.568" cy="12" r="2"/>
		<circle cx="42.568" cy="13" r="2"/>
	</g>
	<g>
		<path fill="none" stroke="#000000" stroke-miterlimit="10" d="M44.494,48.286c3.218,2.513,5.496,8.661,5.496,15.235
			c0,8.582-3.877,9.677-8.664,9.677c-4.784,0-8.665-1.095-8.665-9.677c0-6.597,2.295-12.762,5.53-15.26"/>
		<polyline fill="none" stroke="#000000" stroke-miterlimit="10" points="37.5,73 37.5,91.5 35,91.5 		"/>
		<polyline fill="none" stroke="#000000" stroke-miterlimit="10" points="46.5,73 46.5,91.5 49,91.5 		"/>
		<path fill="none" stroke="#000000" stroke-miterlimit="10" d="M47.919,55.776c0,0,0.792,2.179,4.649,1.224
			c2.64-0.654,0.918-3.516,1-7"/>
		<path fill="none" stroke="#000000" stroke-miterlimit="10" d="M35.128,52.989c0,0-6.909,9.649-5.063,12.606"/>
		<path fill="none" stroke="#000000" stroke-miterlimit="10" d="M51.099,39.317c0,5.387-4.046,9.326-9.433,9.326
			c-5.388,0-10.075-3.831-10.075-9.218s4.366-9.646,9.754-9.646C46.731,29.779,51.099,33.932,51.099,39.317z"/>
		<rect x="43.978" y="35.844" width="1.102" height="1.102"/>
		<rect x="37.365" y="35.844" width="1.102" height="1.102"/>
		<path fill="none" stroke="#000000" stroke-miterlimit="10" d="M39.569,41.476c0,0,2.205,2.204,4.409,0"/>
		<path fill="#FFFFFF" stroke="#000000" stroke-miterlimit="10" d="M30.568,24.5h46c0,0-3.833-12-23-12S30.568,20.5,30.568,24.5z"/>
		<path fill="none" stroke="#000000" stroke-miterlimit="10" d="M54.5,24v26c0,0,0.5,4-4.5,2"/>
		<polyline fill="none" stroke="#000000" stroke-miterlimit="10" points="51.568,12 52.568,9 53.568,12 		"/>
		<circle cx="42.568" cy="21" r="2"/>
		<circle cx="56.568" cy="20" r="2"/>
		<path fill="none" stroke="#000000" stroke-miterlimit="10" d="M68.782,15.684c-0.349,1.048-1.482,1.614-2.53,1.266
			c-1.048-0.35-1.614-1.482-1.264-2.53"/>
		<circle cx="54.568" cy="14" r="2"/>
		<path d="M46.568,24c0-1.104,0.896-2,2-2s2,0.896,2,2"/>
		<circle cx="32.568" cy="22" r="2"/>
		<circle cx="64.568" cy="22" r="2"/>
	</g>
	<g>
		<path fill="none" stroke="#000000" stroke-miterlimit="10" d="M72.494,46.286c3.218,2.513,5.496,8.661,5.496,15.235
			c0,8.582-3.877,9.677-8.664,9.677c-4.784,0-8.665-1.095-8.665-9.677c0-6.597,2.295-12.762,5.53-15.26"/>
		<polyline fill="none" stroke="#000000" stroke-miterlimit="10" points="65.5,71 65.5,89.5 63,89.5 		"/>
		<polyline fill="none" stroke="#000000" stroke-miterlimit="10" points="74.5,71 74.5,89.5 77,89.5 		"/>
		<path fill="none" stroke="#000000" stroke-miterlimit="10" d="M75.919,53.776c0,0,0.792,2.179,4.649,1.224
			c2.64-0.654,0.918-3.516,1-7"/>
		<path fill="none" stroke="#000000" stroke-miterlimit="10" d="M63.128,50.989c0,0-6.909,9.649-5.063,12.606"/>
		<path fill="none" stroke="#000000" stroke-miterlimit="10" d="M79.099,37.317c0,5.387-4.046,9.326-9.433,9.326
			c-5.388,0-10.075-3.831-10.075-9.218s4.366-9.646,9.754-9.646C74.731,27.779,79.099,31.932,79.099,37.317z"/>
		<rect x="71.978" y="33.844" width="1.102" height="1.102"/>
		<rect x="65.365" y="33.844" width="1.102" height="1.102"/>
		<path fill="none" stroke="#000000" stroke-miterlimit="10" d="M67.569,39.476c0,0,2.205,2.204,4.409,0"/>
		<path fill="#FFFFFF" stroke="#000000" stroke-miterlimit="10" d="M58.568,22.5h46c0,0-3.833-12-23-12S58.568,18.5,58.568,22.5z"/>
		<path fill="none" stroke="#000000" stroke-miterlimit="10" d="M82.5,22v26c0,0,0.5,4-4.5,2"/>
		<polyline fill="none" stroke="#000000" stroke-miterlimit="10" points="79.568,10 80.568,7 81.568,10 		"/>
		<circle cx="72.568" cy="15" r="2"/>
		<circle cx="86.568" cy="16" r="2"/>
		<path d="M96.782,13.684c-0.349,1.048-1.482,1.614-2.53,1.266c-1.048-0.35-1.614-1.482-1.264-2.53"/>
		<circle cx="78.568" cy="12" r="2"/>
		<path d="M70.568,22c0-1.104,0.896-2,2-2s2,0.896,2,2"/>
		<circle cx="95.568" cy="21" r="2"/>
	</g>
	<path fill="none" stroke="#000000" stroke-miterlimit="10" d="M121.494,46.286c3.218,2.513,5.496,8.661,5.496,15.235
		c0,8.582-3.877,9.677-8.664,9.677c-4.784,0-8.665-1.095-8.665-9.677c0-6.597,2.295-12.762,5.53-15.26"/>
	<polyline fill="none" stroke="#000000" stroke-miterlimit="10" points="114.5,71 114.5,89.5 112,89.5 	"/>
	<polyline fill="none" stroke="#000000" stroke-miterlimit="10" points="122.5,71 122.5,89.5 125,89.5 	"/>
	<path fill="none" stroke="#000000" stroke-miterlimit="10" d="M124.919,49.466l3,2.301c0,0,3.987,4.181,3.878,7.597"/>
	<path fill="none" stroke="#000000" stroke-miterlimit="10" d="M110.481,54.191c0,0,10.087-4.191,8.087-13.191"/>
	<path fill="none" stroke="#000000" stroke-miterlimit="10" d="M128.099,37.317c0,5.387-4.046,9.326-9.433,9.326
		c-5.388,0-10.075-3.831-10.075-9.218s4.366-9.646,9.754-9.646C123.731,27.779,128.099,31.932,128.099,37.317z"/>
	<rect x="119.568" y="34" width="1.102" height="1.102"/>
	<rect x="113.365" y="33.844" width="1.102" height="1.102"/>
	<path fill="none" stroke="#000000" stroke-miterlimit="10" d="M116.569,39.476c0,0,2.205,2.204,4.409,0"/>
	<g>
		<path fill="#FFFFFF" stroke="#000000" stroke-miterlimit="10" d="M161.185,57.202l-23.985,30.667c0,0,9.999,3.701,19.993-9.076
			C167.186,66.016,163.852,59.288,161.185,57.202z"/>
		<path fill="none" stroke="#000000" stroke-miterlimit="10" d="M149.265,73.13l-17.333-13.558c0,0-2.927-1.752,1.013-4.042"/>
		<polyline fill="none" stroke="#000000" stroke-miterlimit="10" points="158.568,77.721 160.047,79.951 157.525,79.054 		"/>
		<circle cx="160.971" cy="67.78" r="1.693"/>
		<circle cx="150.627" cy="76.882" r="1.693"/>
		<path d="M147.137,87.275c-0.517-0.779-0.303-1.83,0.476-2.346c0.779-0.517,1.83-0.304,2.346,0.475"/>
		<circle cx="157.756" cy="76.011" r="1.693"/>
		<path d="M155.261,65.463c0.736,0.576,0.866,1.64,0.291,2.377c-0.576,0.736-1.64,0.866-2.376,0.29"/>
		<circle cx="161.809" cy="59.839" r="1.693"/>
		<circle cx="141.473" cy="85.839" r="1.693"/>
	</g>
	<path fill="none" stroke="#000000" stroke-miterlimit="10" d="M113.568,31.689c0,0,2.826-0.103,2.878,1.311"/>
	<path fill="none" stroke="#000000" stroke-miterlimit="10" d="M123.568,33.28c0,0-2-2-3-1"/>
</g>
</svg>
