<?xml version="1.0" encoding="utf-8"?>
<!-- Generator: Adobe Illustrator 24.2.0, SVG Export Plug-In . SVG Version: 6.00 Build 0)  -->
<svg version="1.1" id="Layer_1" xmlns="http://www.w3.org/2000/svg" xmlns:xlink="http://www.w3.org/1999/xlink" x="0px" y="0px"
	 viewBox="0 0 173 156" style="enable-background:new 0 0 173 156;" xml:space="preserve">
<style type="text/css">
	.st0{fill:none;stroke:#000000;stroke-miterlimit:10;}
	.st1{fill:none;stroke:#000000;stroke-linecap:round;stroke-linejoin:round;stroke-miterlimit:10;}
</style>
<g>
	<g>
		<g>
			<path class="st1" d="M14.1,141.7c0,0,9.1,9.3,18.2,11.3c9.1,1.9,17.2-1,19.3-2.4c2.1-1.3,12.5-7.6,12.5-7.6l15.4-7.7l-1-1.3
				l-12.8,5.2c0,0-4,3.1-14.4,4.1c-10.4,1-23.4,0.5-23.4,0.5S15.4,142.8,14.1,141.7z"/>
			<line class="st1" x1="18.2" y1="139.7" x2="14.1" y2="141.7"/>
			<path class="st1" d="M83.7,122.2c0,0-32.3-0.7-36.1-0.9c-3.9-0.2-8.3,0.7-8.3,0.7l-31.3,4c0,0,21.2,1.6,29.8,2.7
				c3.4,0.5,6.7,0.5,9.4,0.3c4.2-0.2,7.1-0.8,7.1-0.8S75.2,122.6,83.7,122.2c-0.4,2.3-6,10.8-6,10.8L50,139.2c0,0-1.8,0.2-4.5,0.4
				c-3.9,0.3-9.8,0.7-15.1,0.7c-9,0-19.6-1.3-19.6-1.3s-3.6-0.4-3.5-1.6c0-1.2,0.7-11.4,0.7-11.4"/>
			<path class="st1" d="M78.6,132.3l12.7,5c0,0,2,1.2,2.5-1.3s2.9-20.3,3.2-28.6c0.3-8.3,0-12,0-12s-0.8-5.7-5.6-8.5
				c-4.8-2.8-13.9-8.1-13.9-8.1S67,74.4,61.2,75.2s-5.6,10.2-5.6,10.2l5.5,26.7l2,9.1"/>
			<path class="st1" d="M103,110.6c0,0,0.8-17,0.5-21.1c-0.3-4.1-16.9-13.2-19.8-14c-2.9-0.8-5.7-3.1-11.9-0.8"/>
			<path class="st1" d="M83.7,74.1c0,0,7.4,3,13.2,6.4c5.8,3.4,9.7,6.5,9.5,9.5c-0.3,2.9-1.5,8-1.5,8l-0.3,2.5"/>
			<path class="st1" d="M103.4,100l12.1,15c0,0,0.6,2.1-12.4-6.6"/>
			<line class="st1" x1="55.9" y1="41" x2="83.7" y2="75.5"/>
			<line class="st1" x1="55.9" y1="58.2" x2="71.2" y2="74.9"/>
			<line class="st1" x1="60.3" y1="47.8" x2="55.9" y2="58"/>
			<path class="st1" d="M59.5,47.8l-4.3,1.1l-3.6,7.6c0,0-0.3,2.7,3.9,2.1"/>
			<path class="st1" d="M47.8,52.3c0,0-0.4,1.5,3.4,4.8"/>
			<path class="st1" d="M56.9,38.7l5.3,6.8c0,0,0.7,1.2,0,1.8"/>
			<path class="st1" d="M93.5,137.9c0,0,27-8.3,30.6-10s6.3-5.3,6.6-6.4s1-5.6,1-5.6"/>
			<path class="st1" d="M80.6,70.2l17.2-3.6c0,0,7.3-1.2,8.1-1c0.8,0.2,5.1,2.5,5.7,3.5c0.6,1,6.5,3.6,6.5,3.6s1.5,7.4,2.1,8.1
				c0.6,0.7-3.6,6.9-1.4,13.4c1.3,2.9,4.5,3.3,4.5,3.3s3.2,0,5.2-4.8c2-4.8,3.9-5.2,4.5-8.1c0.6-2.9-1.3-17.7-1.3-17.7l-8.1-11.4"/>
			<path class="st1" d="M138,62.1c0,0,7.2,7.9,7,14.1c-0.3,6.2-4.6,13.8-4.6,13.8l-3.5,8.5l-5.5,6.1c0,0-3.1,5.3-7,3.9
				c-3.9-1.4-4.5-4.7-1.7-10.6"/>
			<path class="st1" d="M148.9,66.5l-0.8,3.7c0,0,2.2,12.6,1.7,14.5c-0.5,1.9-6.4,15.6-6.4,15.6l-3.2,5.5c0,0-2.5,4-3.1,5.9
				c-0.6,1.9-4.1,5.7-7.9,3.3c-3.2-2-0.3-7.3-0.3-7.3"/>
			<path class="st1" d="M149.4,49.7c0,0,2.5,8.7,3,9.7c0.5,1,2.6,4.1,2.3,7.7s-2.6,16.3-2.6,16.3s-1,5.4-1.6,7.8
				c-0.6,2.4-4.3,10.5-4.3,10.5l-5.5,8.8c0,0-0.8,2.2-4.8,3.2"/>
			<polyline class="st1" points="106.4,45.6 95,53.8 88.3,58.2 82.8,61.1 75.3,65.1 			"/>
			<path class="st1" d="M40.1,33c0,0-2,5.2-1.6,6c0.3,0.8-4.6,6.9-4.2,8.8c0.4,1.9,0.5,4,2.9,4.9c2.4,0.9,4.6,2.1,8.1,0.6
				c3.5-1.5,9.1-10,9.1-10s2.5-3.7,3.1-7C58,32.9,59.1,24,60,23c0.9-1,1.8-5.3,1.8-5.3l-0.6-8.4c0,0-0.5-5.9-1-6.8"/>
			<path class="st1" d="M60.3,23.5c0,0,1.8,5.2,1.5,6.7c-0.3,1.6-1.8,6.5-1.8,6.5s-1.1,0.9-1.1,1.7s0,2.3,0,2.3"/>
			<path class="st1" d="M29.3,27c0,0-4.6,5.1-4.7,8.6c-0.8,1.9-1.7,3.1-1.7,3.1s-1.5,4.6,3.9,8.6c3,2.5,7.5-0.9,7.5-0.9"/>
			<path class="st1" d="M22,39.1c0,0-1,1.2-3.8,0.3s-5.7-3.8-5.7-3.8"/>
			<path class="st1" d="M165.7,53.2c0,0-2,4.5-12.2,6.4"/>
		</g>
		<path class="st1" d="M128.3,93c0,0,0.7-6.9-6.5-2.1"/>
		<path class="st1" d="M126,102.7c0,0,4.6-2.6,5.4,1.4"/>
		<path class="st1" d="M133,109c0,0,4.1-1.7,4.1,1.6"/>
		<path class="st1" d="M139.7,106.6c0,0,1.3,1.4,0.6,4"/>
	</g>
	<path class="st1" d="M60.2,75.5c0,0,0.2-1.3,8.1-3.4"/>
</g>
</svg>
