<?xml version="1.0" encoding="utf-8"?>
<!-- Generator: Adobe Illustrator 16.2.0, SVG Export Plug-In . SVG Version: 6.00 Build 0)  -->
<!DOCTYPE svg PUBLIC "-//W3C//DTD SVG 1.1//EN" "http://www.w3.org/Graphics/SVG/1.1/DTD/svg11.dtd">
<svg version="1.1" id="Layer_1" xmlns="http://www.w3.org/2000/svg" xmlns:xlink="http://www.w3.org/1999/xlink" x="0px" y="0px"
	 width="173px" height="116px" viewBox="0 0 173 116" enable-background="new 0 0 173 116" xml:space="preserve">
<g>
	<polygon fill="none" stroke="#000000" stroke-miterlimit="10" points="172,115.573 161.906,69.823 142.68,58.698 135.951,26.055 
		72.986,19.023 72.506,1.589 53.827,1 48.473,32.996 32.131,33.575 30.689,70.993 11.944,71.823 1.851,115.573 	"/>
	<g>
		<g>
			<path fill="none" stroke="#000000" stroke-miterlimit="10" d="M3.812,115.073c0,0-0.426-1.576-0.994-4"/>
			<path fill="none" stroke="#000000" stroke-miterlimit="10" d="M6.647,101.079c1.492,6.055,2.834,12.209,2.834,14.758"/>
			<path fill="none" stroke="#000000" stroke-miterlimit="10" d="M4.585,104.077c1.412,3.203,2.858,6.097,3.763,6.859"/>
			<line fill="none" stroke="#000000" stroke-miterlimit="10" x1="7.213" y1="115.837" x2="4.945" y2="105.2"/>
			<line fill="none" stroke="#000000" stroke-miterlimit="10" x1="8.348" y1="87.987" x2="7.213" y2="101.374"/>
			<path fill="none" stroke="#000000" stroke-miterlimit="10" d="M12.883,115.837c0,0-3.401-18.287-4.535-22.112"/>
			<path fill="none" stroke="#000000" stroke-miterlimit="10" d="M11.352,77.073c0,0,2.666,31.113,3.799,38.764"/>
			<path fill="none" stroke="#000000" stroke-miterlimit="10" d="M15.197,79.073c0,0,1.088,31.5,2.222,36"/>
			<line fill="none" stroke="#000000" stroke-miterlimit="10" x1="14.236" y1="72.073" x2="21.926" y2="115.073"/>
			<path fill="none" stroke="#000000" stroke-miterlimit="10" d="M20.821,86.075"/>
			<line fill="none" stroke="#000000" stroke-miterlimit="10" x1="21.956" y1="113.073" x2="16.504" y2="72.073"/>
			<path fill="none" stroke="#000000" stroke-miterlimit="10" d="M25.328,115.073c0,0-4.093-38.5,0.443-43"/>
			<path fill="none" stroke="#000000" stroke-miterlimit="10" d="M22.887,72.073c0,0,9.274,37.25,9.274,44"/>
			<path fill="none" stroke="#000000" stroke-miterlimit="10" d="M20.003,72.073c0,0,8.755,41,11.023,43.25"/>
			<line fill="none" stroke="#000000" stroke-miterlimit="10" x1="29.893" y1="114.572" x2="27.625" y2="107.073"/>
			<line fill="none" stroke="#000000" stroke-miterlimit="10" x1="30.578" y1="72.073" x2="29.893" y2="104.075"/>
			<path fill="none" stroke="#000000" stroke-miterlimit="10" d="M35.563,116.073c0,0-3.402-16.499-4.536-21"/>
			<path fill="none" stroke="#000000" stroke-miterlimit="10" d="M28.655,72.073c0,0,8.042,34,9.176,43"/>
			<line fill="none" stroke="#000000" stroke-miterlimit="10" x1="35.384" y1="34.073" x2="38.965" y2="115.073"/>
			<line fill="none" stroke="#000000" stroke-miterlimit="10" x1="38.965" y1="105.2" x2="47.881" y2="33.073"/>
			<line fill="none" stroke="#000000" stroke-miterlimit="10" x1="40.099" y1="99.462" x2="42.367" y2="115.073"/>
			<polyline fill="none" stroke="#000000" stroke-miterlimit="10" points="42.367,109.024 42.729,34.073 44.997,34.073 
				43.501,115.073 			"/>
			<line fill="none" stroke="#000000" stroke-miterlimit="10" x1="46.903" y1="115.073" x2="44.036" y2="87.073"/>
			<path fill="none" stroke="#000000" stroke-miterlimit="10" d="M50.304,115.073"/>
			<path fill="none" stroke="#000000" stroke-miterlimit="10" d="M38.268,34.073"/>
			<path fill="none" stroke="#000000" stroke-miterlimit="10" d="M51.439,115.073c0,0,4.133-87.088,4.133-89"/>
			<line fill="none" stroke="#000000" stroke-miterlimit="10" x1="54.841" y1="115.073" x2="52.573" y2="103.287"/>
			<line fill="none" stroke="#000000" stroke-miterlimit="10" x1="58.455" y1="32.073" x2="57.109" y2="115.073"/>
			<polyline fill="none" stroke="#000000" stroke-miterlimit="10" points="65.184,50.073 57.865,99.462 57.109,103.287 			"/>
			<line fill="none" stroke="#000000" stroke-miterlimit="10" x1="59.376" y1="115.073" x2="58.243" y2="101.374"/>
			<path fill="none" stroke="#000000" stroke-miterlimit="10" d="M68.068,58.073c0,0-7.558,37.875-6.424,57"/>
			<line fill="none" stroke="#000000" stroke-miterlimit="10" x1="63.912" y1="115.073" x2="62.778" y2="95.638"/>
			<path fill="none" stroke="#000000" stroke-miterlimit="10" d="M62.301,42.073c0,0,3.88,63.438,3.88,73"/>
			<path fill="none" stroke="#000000" stroke-miterlimit="10" d="M67.107,69.073c0,0,0.208,44.087,2.476,46"/>
			<path fill="none" stroke="#000000" stroke-miterlimit="10" d="M73.836,75.073c0,0-3.119,16.739-5.387,30.127"/>
			<path fill="none" stroke="#000000" stroke-miterlimit="10" d="M71.85,115.073c0,0-2.268-13.699-2.268-17.523"/>
			<path fill="none" stroke="#000000" stroke-miterlimit="10" d="M72.875,81.073c0,0,0.109,30.174,1.243,34"/>
			<path fill="none" stroke="#000000" stroke-miterlimit="10" d="M76.72,85.073c0,0-1.468,28.087-0.334,30"/>
			<path fill="none" stroke="#000000" stroke-miterlimit="10" d="M84.324,115.073c0-6.75-6.803-27.086-6.803-27.086
				S60.378,25.073,50.765,19.073"/>
			<path fill="none" stroke="#000000" stroke-miterlimit="10" d="M73.836,90.073c0,0,7.086,23,9.354,25.25"/>
			<line fill="none" stroke="#000000" stroke-miterlimit="10" x1="80.922" y1="115.073" x2="79.788" y2="108.574"/>
			<polyline fill="none" stroke="#000000" stroke-miterlimit="10" points="82.056,104.075 83.19,88.323 84.41,21.073 			"/>
			<path fill="none" stroke="#000000" stroke-miterlimit="10" d="M86.592,115.073c0,0-2.268-15.499-3.402-20"/>
			<path fill="none" stroke="#000000" stroke-miterlimit="10" d="M88.86,115.073c-1.134-9.001-9.256-95-9.256-95"/>
			<line fill="none" stroke="#000000" stroke-miterlimit="10" x1="84.41" y1="21.073" x2="91.128" y2="115.073"/>
			<line fill="none" stroke="#000000" stroke-miterlimit="10" x1="91.128" y1="110.937" x2="95.946" y2="22.073"/>
			<line fill="none" stroke="#000000" stroke-miterlimit="10" x1="92.262" y1="97.55" x2="93.396" y2="115.073"/>
			<path fill="none" stroke="#000000" stroke-miterlimit="10" d="M99.066,115.073l-1.134-21.349c0,0-0.063-6.651,0.898-10.651"/>
			<line fill="none" stroke="#000000" stroke-miterlimit="10" x1="99.791" y1="22.073" x2="102.468" y2="115.073"/>
			<line fill="none" stroke="#000000" stroke-miterlimit="10" x1="101.334" y1="88.37" x2="100.2" y2="99.847"/>
			<path fill="none" stroke="#000000" stroke-miterlimit="10" d="M103.602,115.073c0,0,0.996-89.705,0.996-92"/>
			<line fill="none" stroke="#000000" stroke-miterlimit="10" x1="107.003" y1="115.073" x2="104.736" y2="102.14"/>
			<line fill="none" stroke="#000000" stroke-miterlimit="10" x1="108.443" y1="23.073" x2="109.272" y2="115.798"/>
			<polyline fill="none" stroke="#000000" stroke-miterlimit="10" points="114.21,24.073 110.028,97.55 109.272,102.14 			"/>
			<line fill="none" stroke="#000000" stroke-miterlimit="10" x1="111.54" y1="115.417" x2="110.406" y2="99.847"/>
			<path fill="none" stroke="#000000" stroke-miterlimit="10" d="M119.978,25.073c0,0-7.305,67.393-6.17,90.344"/>
			<line fill="none" stroke="#000000" stroke-miterlimit="10" x1="116.076" y1="115.417" x2="114.942" y2="92.959"/>
			<path fill="none" stroke="#000000" stroke-miterlimit="10" d="M116.133,75.073c0,0,2.21,28.869,2.21,40.344"/>
			<path fill="none" stroke="#000000" stroke-miterlimit="10" d="M119.978,30.073c0,0-0.501,83.046,1.767,85.344"/>
			<path fill="none" stroke="#000000" stroke-miterlimit="10" d="M127.669,26.073c0,0-4.789,62.297-7.057,78.362"/>
			<path fill="none" stroke="#000000" stroke-miterlimit="10" d="M129.684,115.798c0,0,1.83-87.178,1.83-89.725"/>
			<line fill="none" stroke="#000000" stroke-miterlimit="10" x1="133.085" y1="115.482" x2="130.817" y2="102.013"/>
			<line fill="none" stroke="#000000" stroke-miterlimit="10" x1="131.514" y1="53.073" x2="135.354" y2="115.798"/>
			<polyline fill="none" stroke="#000000" stroke-miterlimit="10" points="142.088,57.073 136.11,96.911 135.354,102.013 			"/>
			<line fill="none" stroke="#000000" stroke-miterlimit="10" x1="137.622" y1="115.482" x2="136.487" y2="99.462"/>
			<path fill="none" stroke="#000000" stroke-miterlimit="10" d="M145.933,61.073c0.535-1.372-7.261,27.043-6.044,54.409"/>
			<line fill="none" stroke="#000000" stroke-miterlimit="10" x1="142.157" y1="115.482" x2="141.023" y2="91.813"/>
			<path fill="none" stroke="#000000" stroke-miterlimit="10" d="M143.049,76.073c0,0,1.375,26.659,1.375,39.409"/>
			<path fill="none" stroke="#000000" stroke-miterlimit="10" d="M144.972,67.073c0,0,0.587,45.86,2.855,48.409"/>
			<path fill="none" stroke="#000000" stroke-miterlimit="10" d="M151.701,64.073c0,0-2.74,22.641-5.008,40.491"/>
			<path fill="none" stroke="#000000" stroke-miterlimit="10" d="M124.014,115.417c0,0-2.268-15.57-2.268-20.162"/>
			<path fill="none" stroke="#000000" stroke-miterlimit="10" d="M124.785,64.073c0,0,0.363,46.752,1.497,51.344"/>
			<path fill="none" stroke="#000000" stroke-miterlimit="10" d="M126.707,44.073c0,0,0.708,69.046,1.842,71.344"/>
			<line fill="none" stroke="#000000" stroke-miterlimit="10" x1="150.095" y1="115.798" x2="148.961" y2="84.909"/>
			<line fill="none" stroke="#000000" stroke-miterlimit="10" x1="145.933" y1="67.073" x2="153.497" y2="115.798"/>
			<line fill="none" stroke="#000000" stroke-miterlimit="10" x1="154.585" y1="66.073" x2="151.229" y2="98.196"/>
			<path fill="none" stroke="#000000" stroke-miterlimit="10" d="M154.631,115.798c0,0,3.799-44.068,3.799-46.725"/>
			<line fill="none" stroke="#000000" stroke-miterlimit="10" x1="158.033" y1="115.073" x2="155.765" y2="100.852"/>
			<line fill="none" stroke="#000000" stroke-miterlimit="10" x1="158.43" y1="78.073" x2="160.301" y2="115.798"/>
			<polyline fill="none" stroke="#000000" stroke-miterlimit="10" points="163.237,78.073 161.057,95.536 160.301,100.852 			"/>
			<line fill="none" stroke="#000000" stroke-miterlimit="10" x1="162.569" y1="115.073" x2="161.314" y2="96.073"/>
			<path fill="none" stroke="#000000" stroke-miterlimit="10" d="M165.159,88.073c0,0-1.456,0.428-0.322,27"/>
			<line fill="none" stroke="#000000" stroke-miterlimit="10" x1="167.105" y1="115.073" x2="165.971" y2="90.222"/>
			<path fill="none" stroke="#000000" stroke-miterlimit="10" d="M169.966,107.073c0,0-0.593-5.286-0.593,8"/>
			<line fill="none" stroke="#000000" stroke-miterlimit="10" x1="77.52" y1="115.073" x2="78.654" y2="105.2"/>
		</g>
		<path fill="none" stroke="#000000" stroke-miterlimit="10" d="M10.391,99.073c0,0,0-10-0.961-14"/>
		<line fill="none" stroke="#000000" stroke-miterlimit="10" x1="19.042" y1="115.073" x2="18.081" y2="97.073"/>
		<path fill="none" stroke="#000000" stroke-miterlimit="10" d="M26.732,107.073c0,0,0,4-0.961,6"/>
		<path fill="none" stroke="#000000" stroke-miterlimit="10" d="M35.384,98.073c0,0-2.884-23-3.845-30"/>
		<path fill="none" stroke="#000000" stroke-miterlimit="10" d="M33.462,34.073c0,0,0.961,38-0.961,43"/>
		<path fill="none" stroke="#000000" stroke-miterlimit="10" d="M37.307,80.073c0,0,2.884-25,2.884-32"/>
		<path fill="none" stroke="#000000" stroke-miterlimit="10" d="M38.268,86.073c0,0,2.884-22,2.884-26"/>
		<path fill="none" stroke="#000000" stroke-miterlimit="10" d="M68.068,79.073c0,0,8.652-56,8.652-59"/>
		<path fill="none" stroke="#000000" stroke-miterlimit="10" d="M50.765,23.073c0,0,1.923,21,2.884,26"/>
		<path fill="none" stroke="#000000" stroke-miterlimit="10" d="M49.804,30.073c0,0,0.961,26,3.845,31"/>
		<path fill="none" stroke="#000000" stroke-miterlimit="10" d="M49.804,38.073c0,0-1.923,5-2.884,13"/>
		<path fill="none" stroke="#000000" stroke-miterlimit="10" d="M49.804,48.073c0,0-2.884,12-4.807,16"/>
		<path fill="none" stroke="#000000" stroke-miterlimit="10" d="M45.958,63.073c0,0,0.961,24,0.961,30c0,0,1.922,11,1.922,22"/>
		<path fill="none" stroke="#000000" stroke-miterlimit="10" d="M47.881,59.073c0,0,2.884,40,3.845,41"/>
		<path fill="none" stroke="#000000" stroke-miterlimit="10" d="M49.804,53.073c0,0,2.884,16,3.845,21"/>
		<line fill="none" stroke="#000000" stroke-miterlimit="10" x1="52.688" y1="79.073" x2="48.842" y2="66.073"/>
		<polyline fill="none" stroke="#000000" stroke-miterlimit="10" points="56.533,89.073 54.61,55.073 57.494,35.073 		"/>
		<path fill="none" stroke="#000000" stroke-miterlimit="10" d="M58.455,45.073c0,0,2.884,15,2.884,24"/>
		<path fill="none" stroke="#000000" stroke-miterlimit="10" d="M52.688,91.073c0,0,2.884,14,3.845,16"/>
		<line fill="none" stroke="#000000" stroke-miterlimit="10" x1="54.61" y1="1.073" x2="52.688" y2="21.073"/>
		<path fill="none" stroke="#000000" stroke-miterlimit="10" d="M56.533,1.073c0,0-0.961,20-4.806,27"/>
		<path fill="none" stroke="#000000" stroke-miterlimit="10" d="M60.378,2.073c0,0-5.768,19-4.806,23"/>
		<path fill="none" stroke="#000000" stroke-miterlimit="10" d="M56.533,29.073c0,0,6.729-23,7.69-27"/>
		<path fill="none" stroke="#000000" stroke-miterlimit="10" d="M62.301,11.073c0,0-2.884,17-2.884,21"/>
		<path fill="none" stroke="#000000" stroke-miterlimit="10" d="M61.339,22.073c0,0,5.768-15,6.729-21"/>
		<path fill="none" stroke="#000000" stroke-miterlimit="10" d="M64.223,5.073c0,0,1.923,38,1.923,46"/>
		<path fill="none" stroke="#000000" stroke-miterlimit="10" d="M62.301,21.073c0,0-1.923,14,0,19"/>
		<path fill="none" stroke="#000000" stroke-miterlimit="10" d="M62.301,34.073c1.923-4,1.923-11,2.884-12"/>
		<path fill="none" stroke="#000000" stroke-miterlimit="10" d="M67.107,8.073c0,0,5.768,28,6.729,30"/>
		<path fill="none" stroke="#000000" stroke-miterlimit="10" d="M70.952,2.073c0,0-1.923,5-0.961,14"/>
		<path fill="none" stroke="#000000" stroke-miterlimit="10" d="M71.914,16.073c0,0-0.961,4-0.961,7"/>
		<path fill="none" stroke="#000000" stroke-miterlimit="10" d="M73.836,19.073c0,0-0.961,9-1.922,9"/>
		<path fill="none" stroke="#000000" stroke-miterlimit="10" d="M71.914,32.073c0,0-5.768,19-4.807,23"/>
		<path fill="none" stroke="#000000" stroke-miterlimit="10" d="M69.03,21.073c0,0-0.961,13-2.884,14"/>
		<path fill="none" stroke="#000000" stroke-miterlimit="10" d="M67.107,12.073c0,0,0,11,0.961,14"/>
		<path fill="none" stroke="#000000" stroke-miterlimit="10" d="M67.107,32.073c0,0,1.923,5,1.923,9"/>
		<path fill="none" stroke="#000000" stroke-miterlimit="10" d="M69.03,47.073c0,0,0.961,5,2.884,6"/>
		<path fill="none" stroke="#000000" stroke-miterlimit="10" d="M69.03,75.073c0,0,12.497-27,12.497-35"/>
		<path fill="none" stroke="#000000" stroke-miterlimit="10" d="M75.759,27.073c0,0,1.922,48,0,53"/>
		<path fill="none" stroke="#000000" stroke-miterlimit="10" d="M72.875,50.073c0,0,0.961,6,0.961,12"/>
		<path fill="none" stroke="#000000" stroke-miterlimit="10" d="M77.681,85.073c0,0,4.807-19,4.807-27"/>
		<path fill="none" stroke="#000000" stroke-miterlimit="10" d="M79.604,93.073c0,0,0.961-16,0.961-19"/>
		<path fill="none" stroke="#000000" stroke-miterlimit="10" d="M79.604,51.073c0,0-0.961,15,0.961,18"/>
		<path fill="none" stroke="#000000" stroke-miterlimit="10" d="M76.72,46.073c0,0,1.923-13,2.884-20"/>
		<line fill="none" stroke="#000000" stroke-miterlimit="10" x1="87.294" y1="21.073" x2="92.101" y2="54.073"/>
		<path fill="none" stroke="#000000" stroke-miterlimit="10" d="M89.217,36.073c0,0-0.961,11-1.923,15
			c-0.14,0.582-0.137,1.633-0.03,3.002c0.627,8.025,4.836,26.998,4.836,26.998"/>
		<path fill="none" stroke="#000000" stroke-miterlimit="10" d="M88.256,49.073c1.922,5,3.845,16,4.806,18"/>
		<path fill="none" stroke="#000000" stroke-miterlimit="10" d="M98.83,30.073c0,0-0.961,16-3.845,20"/>
		<path fill="none" stroke="#000000" stroke-miterlimit="10" d="M100.752,86.073c0,0-3.845-14-4.807-21l-0.961-5"/>
		<path fill="none" stroke="#000000" stroke-miterlimit="10" d="M98.83,73.073c0,0-0.961-23-0.961-27"/>
		<line fill="none" stroke="#000000" stroke-miterlimit="10" x1="94.985" y1="62.073" x2="97.868" y2="53.073"/>
		<path fill="none" stroke="#000000" stroke-miterlimit="10" d="M137.282,33.073c0,0-2.884,10-4.807,25"/>
		<line fill="none" stroke="#000000" stroke-miterlimit="10" x1="134.398" y1="26.073" x2="135.359" y2="42.073"/>
		<path fill="none" stroke="#000000" stroke-miterlimit="10" d="M134.398,47.073c0,0,0,29,2.884,37"/>
		<path fill="none" stroke="#000000" stroke-miterlimit="10" d="M136.32,41.073c0,0,0,23,3.845,30"/>
		<path fill="none" stroke="#000000" stroke-miterlimit="10" d="M139.204,45.073c0,0-0.961,10,2.884,17"/>
		<path fill="none" stroke="#000000" stroke-miterlimit="10" d="M121.901,24.073c0,0,1.923,19,2.884,34"/>
		<path fill="none" stroke="#000000" stroke-miterlimit="10" d="M119.978,48.073c0,0,3.845,19,3.845,24"/>
		<path fill="none" stroke="#000000" stroke-miterlimit="10" d="M108.443,30.073c0,0,3.845,22,3.845,29"/>
		<path fill="none" stroke="#000000" stroke-miterlimit="10" d="M104.598,91.073c0,0,2.884-12,3.845-27"/>
		<path fill="none" stroke="#000000" stroke-miterlimit="10" d="M104.598,30.073c0,0,1.922,23,3.845,29"/>
		<path fill="none" stroke="#000000" stroke-miterlimit="10" d="M91.139,22.073c0,0,0.961,24,1.922,28"/>
		<path fill="none" stroke="#000000" stroke-miterlimit="10" d="M96.907,74.073c0,0-0.961,23-2.884,29"/>
		<path fill="none" stroke="#000000" stroke-miterlimit="10" d="M96.907,115.073c0,0-1.923-10-1.923-14"/>
		<path fill="none" stroke="#000000" stroke-miterlimit="10" d="M40.191,49.073c0,0-2.884-13-2.884-15"/>
		<path fill="none" stroke="#000000" stroke-miterlimit="10" d="M40.191,34.073c0,0,0.961,8,0,14"/>
	</g>
</g>
</svg>
