<?xml version="1.0" encoding="utf-8"?>
<!-- Generator: Adobe Illustrator 16.2.0, SVG Export Plug-In . SVG Version: 6.00 Build 0)  -->
<!DOCTYPE svg PUBLIC "-//W3C//DTD SVG 1.1//EN" "http://www.w3.org/Graphics/SVG/1.1/DTD/svg11.dtd">
<svg version="1.1" id="Layer_1" xmlns="http://www.w3.org/2000/svg" xmlns:xlink="http://www.w3.org/1999/xlink" x="0px" y="0px"
	 width="173px" height="135.527px" viewBox="0 0 173 135.527" enable-background="new 0 0 173 135.527" xml:space="preserve">
<g>
	<g>
		<path d="M36.029,104v0.5c0,1.291,2,1.291,2,0V104C38.029,102.711,36.029,102.711,36.029,104"/>
		<path d="M45.267,102.666c0.361-0.354,0.338-0.782,0.121-1.114c-0.139-0.31-0.418-0.551-0.859-0.551h-1
			c-0.108,0-0.206,0.016-0.293,0.042c-0.07-0.014-0.131-0.042-0.207-0.042c-0.363,0-0.761,0.245-0.927,0.587
			c-0.844,0.385-0.701,1.913,0.427,1.913h1c0.271,0,0.472-0.097,0.626-0.239c0.279-0.07,0.543-0.187,0.787-0.346
			c0.055-0.022,0.095-0.065,0.141-0.1c0.051-0.038,0.106-0.066,0.153-0.107c0.004-0.004,0.004-0.01,0.01-0.014
			C45.253,102.688,45.259,102.676,45.267,102.666"/>
		<path d="M67.029,101h-0.5c-1.29,0-1.29,2,0,2h0.5C68.319,103,68.319,101,67.029,101"/>
		<path d="M91.529,100c-0.312,0-0.552,0.013-0.793-0.206c-0.566-0.516-1.288-0.22-1.586,0.284c-0.89,0.353-0.767,1.922,0.379,1.922
			c0.281,0,0.49-0.104,0.648-0.252c0.412,0.17,0.853,0.252,1.352,0.252C92.819,102.004,92.819,100.004,91.529,100"/>
		<path d="M105.529,103h-1.5c-1.29,0-1.29,2,0,2h1.5C106.819,105,106.819,103,105.529,103"/>
		<path d="M95.029,102.5h-0.5c-0.203,0-0.361,0.062-0.5,0.146c-0.139-0.084-0.298-0.146-0.5-0.146h-0.5c-1.29,0-1.29,2,0,2h0.5
			c0.202,0,0.361-0.06,0.5-0.143c0.139,0.083,0.297,0.143,0.5,0.143h0.5C96.319,104.5,96.319,102.5,95.029,102.5"/>
		<path d="M64.029,103.5c-1.29,0-1.29,2,0,2S65.319,103.5,64.029,103.5"/>
		<path d="M85.029,103c-0.384,0-0.66,0.209-0.828,0.498c-0.057,0-0.115,0.002-0.172,0.002c-0.134-0.011-0.326-0.152-0.45-0.211
			c-0.348-0.168-0.665-0.255-1.05-0.289c-0.544-0.045-1,0.491-1,1c0,0.582,0.457,0.955,1,1c0.134,0.013,0.326,0.154,0.45,0.214
			c0.347,0.168,0.665,0.254,1.05,0.286c1.043-0.002,1.89-0.354,2-1.5C86.082,103.459,85.534,103,85.029,103"/>
		<path d="M67.529,103.5c-0.444,0-0.724,0.246-0.862,0.555c-0.085-0.022-0.163-0.055-0.263-0.055h-0.375c-1.29,0-1.29,2,0,2h0.375
			c0.443,0,0.724-0.242,0.862-0.553c0.085,0.022,0.162,0.053,0.263,0.053C68.819,105.5,68.819,103.5,67.529,103.5"/>
		<path d="M74.029,64.5c-1.29,0-1.29,2,0,2S75.319,64.5,74.029,64.5"/>
		<path d="M92.529,83.5c-1.29,0-1.29,2,0,2S93.819,83.5,92.529,83.5"/>
		<path d="M106.029,96.5c-1.29,0-1.29,2,0,2S107.319,96.5,106.029,96.5"/>
		<path d="M100.114,94.086c-0.854,0.382-0.717,1.919,0.415,1.914c0.981,0,1.497-0.518,1.5-1.5
			C102.032,93.37,100.494,93.232,100.114,94.086"/>
		<path d="M86.529,88c-0.553,0.021-1.085,0.151-1.618,0.276c-0.158-0.432-0.317-0.864-0.519-1.28
			c-0.238-0.49-0.925-0.618-1.368-0.358c-0.497,0.291-0.597,0.879-0.358,1.368c0.109,0.226,0.204,0.457,0.293,0.691
			c-0.031,0.022-0.051,0.053-0.077,0.081c-0.037,0.035-0.074,0.068-0.105,0.109c-0.038,0.053-0.066,0.11-0.094,0.171
			c-0.104,0.219-0.131,0.464-0.084,0.699c0.003,0.011,0.003,0.021,0.006,0.033c0.022,0.091,0.057,0.172,0.101,0.252
			c0.006,0.01,0.01,0.019,0.015,0.028c0.048,0.079,0.104,0.148,0.175,0.208c0.01,0.01,0.022,0.015,0.032,0.022
			c0.072,0.057,0.147,0.106,0.242,0.139c0.106,0.039,0.225,0.06,0.359,0.06h0.135c0,0,0.001,0.004,0.002,0.006
			c0.024,0.051,0.071,0.081,0.104,0.124c0.024,0.034,0.049,0.063,0.076,0.091c0.055,0.053,0.111,0.096,0.177,0.132
			c0.055,0.035,0.114,0.062,0.181,0.082c0.06,0.021,0.119,0.029,0.183,0.037C84.437,90.979,84.475,91,84.529,91h0.5
			c0.625,0,0.928-0.459,0.94-0.934c0.186-0.027,0.371-0.059,0.56-0.066C87.815,89.957,87.819,87.957,86.529,88"/>
		<path d="M88.529,83c0.003-1.129-1.535-1.268-1.915-0.414c-0.643,0.287-0.713,1.215-0.232,1.664
			c-0.111,0.103-0.2,0.227-0.251,0.368c-0.191-0.057-0.386-0.098-0.602-0.118c-0.544-0.045-1,0.491-1,1c0,0.582,0.457,0.955,1,1
			c0.134,0.013,0.326,0.154,0.45,0.214c0.347,0.168,0.665,0.254,1.05,0.286c0.544,0.047,1-0.488,1-1c0-0.199-0.068-0.364-0.163-0.51
			c0.183-0.36,0.151-0.83-0.093-1.146C88.259,84.13,88.527,83.687,88.529,83"/>
		<path d="M95.166,87.496c-0.39,0.763-0.834,1.21-1.579,1.604c0,0-0.003,0.003-0.005,0.005c-0.021,0.01-0.037,0.021-0.058,0.034
			c-0.109,0.056-0.182,0.13-0.254,0.203c-0.011-0.016-0.018-0.032-0.034-0.049c-0.212-0.212-0.425-0.425-0.638-0.638
			c-0.68-0.679-1.636-0.07-1.703,0.664c-0.493,0.671-0.86,1.438-1.229,2.177c-0.178,0.356-0.122,0.688,0.038,0.958
			C89.603,92.6,89.528,92.775,89.528,93v0.5c0,0.294,0.119,0.504,0.282,0.662c-0.065,0.022-0.128,0.038-0.196,0.066
			c-0.167,0.072-0.41,0.258-0.586,0.271c-0.543,0.047-1,0.421-1,1c0,0.372,0.245,0.75,0.586,0.916
			c0.048,0.102,0.114,0.2,0.207,0.292c0.167,0.167,0.333,0.333,0.5,0.5c0.866,0.867,2.16-0.36,1.511-1.269
			c0.017-0.005,0.027-0.018,0.044-0.023c0.049-0.019,0.09-0.048,0.136-0.073c0.055-0.03,0.111-0.059,0.156-0.101
			c0.215-0.173,0.36-0.421,0.36-0.742c0-0.046-0.022-0.095-0.03-0.143c0.3-0.142,0.53-0.421,0.53-0.857v-0.5
			c0-0.454-0.255-0.74-0.576-0.875c-0.016-0.042-0.048-0.068-0.069-0.107c0.002-0.004,0.006-0.006,0.009-0.012
			c0.251-0.506,0.499-1.055,0.802-1.556c0.397,0.142,0.807-0.034,1.068-0.334C93.421,90.84,93.668,91,94.028,91h0.5
			c0.531,0,0.831-0.34,0.925-0.736c0.593-0.473,1.073-1.043,1.439-1.758C97.479,87.361,95.753,86.35,95.166,87.496"/>
		<path d="M72.029,96.5c0.051-0.543-0.493-1-1-1c-0.503,0-0.831,0.347-0.947,0.789c-0.095,0.102-0.177,0.195-0.266,0.312
			c-0.205,0.271-0.257,0.572-0.287,0.899c-0.051,0.545,0.493,1,1,1c0.502,0,0.83-0.345,0.947-0.787
			c0.095-0.102,0.176-0.194,0.265-0.312C71.947,97.132,71.999,96.83,72.029,96.5"/>
		<path d="M73.029,90.5h-1c-1.29,0-1.29,2,0,2h1C74.319,92.5,74.319,90.5,73.029,90.5"/>
		<path d="M80.611,95.669l-0.375-0.375c-0.913-0.913-2.328,0.502-1.414,1.415l0.375,0.374C80.11,97.996,81.524,96.581,80.611,95.669
			"/>
		<path d="M77.029,81.5c-0.052,0-0.089,0.022-0.136,0.029c-0.137-0.309-0.418-0.543-0.864-0.529
			c-1.224,0.044-2.306,0.543-3.383,1.08c-0.03,0.012-0.056,0.024-0.083,0.039c-0.013,0.006-0.026,0.012-0.039,0.019
			c-0.515,0.259-0.584,0.739-0.416,1.148c0.101,0.387,0.4,0.714,0.921,0.714h2c0.643,0,0.964-0.496,0.967-0.994
			C76.007,83.005,76.018,83,76.029,83c0.057,0,0.097-0.023,0.148-0.034c0.142,0.301,0.417,0.534,0.852,0.534
			C78.319,83.5,78.319,81.5,77.029,81.5"/>
		<path d="M81.529,82c0,0.059-0.001,0.115-0.002,0.172c-0.039,0.022-0.077,0.046-0.111,0.072c-0.236-0.144-0.517-0.242-0.887-0.244
			c-1.132-0.002-1.269,1.536-0.415,1.916c0.315,0.709,1.419,0.725,1.786,0.063c0.044,0.004,0.084,0.025,0.129,0.021
			c1.144-0.109,1.497-0.956,1.5-2C83.533,80.711,81.533,80.711,81.529,82"/>
		<path d="M81.392,88.496c-0.167-0.333-0.333-0.667-0.5-1c-0.577-1.153-2.302-0.141-1.727,1.01c0.167,0.333,0.333,0.666,0.5,1
			C80.242,90.659,81.967,89.646,81.392,88.496"/>
		<path d="M77.033,76.638c-0.965-0.45-2.042-0.554-3-1c-1.161-0.542-2.176,1.185-1.008,1.728c0.063,0.028,0.131,0.047,0.195,0.073
			c-0.109,0.149-0.19,0.327-0.19,0.563v0.5c0,1.29,2,1.29,2,0V78.01c0.338,0.098,0.674,0.206,0.995,0.355
			C77.185,78.906,78.201,77.182,77.033,76.638"/>
		<path d="M73.529,73.5c-1.29,0-1.29,2,0,2S74.819,73.5,73.529,73.5"/>
		<path d="M70.529,69.5c-0.384,0-0.66,0.209-0.828,0.498c-0.057,0-0.115,0.002-0.172,0.002c-1.29,0.004-1.29,2.004,0,2
			c1.043-0.002,1.89-0.354,2-1.5C71.582,69.959,71.034,69.5,70.529,69.5"/>
		<path d="M66.029,80.5h-0.5c-1.29,0-1.29,2,0,2h0.5C67.319,82.5,67.319,80.5,66.029,80.5"/>
		<path d="M65.325,86.063c0.365-0.588,0.108-1.562-0.795-1.562c-0.708,0-1.013,0.6-0.944,1.144
			c-0.115,0.065-0.213,0.151-0.299,0.253c-0.039,0.046-0.073,0.095-0.105,0.146c-0.024,0.041-0.047,0.079-0.066,0.122
			c-0.037,0.084-0.061,0.172-0.073,0.264c-0.003,0.025-0.007,0.047-0.009,0.07c-0.004,0.106,0.011,0.216,0.047,0.324
			c0.006,0.018,0.015,0.034,0.022,0.052c0.048,0.114,0.114,0.227,0.22,0.333c0.02,0.02,0.126,0.14,0.203,0.222
			c0.001,0.024,0.004,0.037,0.004,0.07c0.002,1.133,1.544,1.27,1.917,0.413C66.206,87.574,66.163,86.317,65.325,86.063"/>
		<path d="M68.943,93.586c-0.38-0.854-1.918-0.716-1.915,0.414c0.003,0.982,0.519,1.5,1.5,1.5
			C69.661,95.505,69.797,93.968,68.943,93.586"/>
		<path d="M73.029,85.5h-3c-0.203,0-0.361,0.062-0.5,0.146c-0.139-0.084-0.298-0.146-0.5-0.146h-0.5c-1.29,0-1.29,2,0,2h0.5
			c0.202,0,0.361-0.06,0.5-0.143c0.139,0.083,0.297,0.143,0.5,0.143h3C74.319,87.5,74.319,85.5,73.029,85.5"/>
		<path d="M75.529,88.5c-1.29,0-1.29,2,0,2S76.819,88.5,75.529,88.5"/>
		<path d="M66.322,98.293c-0.3,0.3-0.562,0.543-0.928,0.649c0.26-0.592-0.021-1.442-0.865-1.442h-0.5c-1.29,0-1.29,2,0,2h0.183
			c-0.33,0.603-0.069,1.529,0.817,1.5c1.119-0.032,1.934-0.521,2.707-1.291C68.65,98.796,67.236,97.382,66.322,98.293"/>
		<path d="M50.904,91h-0.375c-0.21,0-0.373,0.066-0.514,0.155c0.004-0.051,0.012-0.103,0.014-0.155c0.038-1.29-1.962-1.286-2,0
			c-0.005,0.164-0.022,0.354-0.083,0.478c-0.014,0.026-0.02,0.037-0.028,0.053c-1.158,0.191-1.135,2.045,0.111,1.97
			c0.783-0.045,1.313-0.474,1.632-1.062C49.798,92.753,50.08,93,50.529,93h0.375C52.194,93,52.194,91,50.904,91"/>
		<path d="M51.788,98.13c0.267-0.315,0.289-0.679,0.15-0.981c-0.002-0.008-0.003-0.014-0.004-0.02
			c-0.005-0.01-0.012-0.02-0.017-0.03c-0.119-0.307-0.386-0.541-0.79-0.577c-0.029-0.005-0.056-0.017-0.085-0.018
			c-0.005,0-0.008-0.003-0.013-0.003c-0.027,0-0.049,0.008-0.072,0.015c-0.023,0.001-0.048,0.008-0.072,0.011
			c-0.091-0.188-0.237-0.349-0.441-0.439c-0.38-0.854-1.918-0.717-1.915,0.414c0.003,0.798,0.361,1.271,1.015,1.427
			c-0.03,0.782,0.977,1.495,1.692,0.781c0.167-0.167,0.334-0.334,0.5-0.5c0.004-0.004,0.004-0.009,0.008-0.012
			C51.762,98.177,51.771,98.153,51.788,98.13"/>
		<path d="M47.993,102.767c0.223-0.67,0.448-1.339,0.67-2.009c0.214-0.161,0.366-0.407,0.366-0.757v-0.5
			c0,0-0.002-0.005-0.003-0.012c0.013-0.279-0.092-0.507-0.276-0.668c-0.02-0.02-0.036-0.042-0.058-0.06
			c-0.037-0.027-0.078-0.044-0.119-0.067c-0.032-0.019-0.07-0.019-0.103-0.031c0.077-0.551-0.227-1.162-0.941-1.162
			c-1.086,0-1.248,1.404-0.504,1.854c-0.321,0.96-0.64,1.921-0.961,2.881c-0.2,0.599,0.161,1.024,0.626,1.167
			c-0.108-0.024-0.214-0.055-0.323-0.069c-0.503-0.069-1.013,0.009-1.298,0.493c-0.285,0.486-0.097,1,0.252,1.383
			c0.337,0.371,0.751,0.378,1.088,0.201c0.049,0.016,0.1,0.028,0.149,0.046c0.331,0.113,0.65,0.255,0.965,0.408
			c0.007,0.005,0.015,0.005,0.023,0.007c0.091,0.052,0.2,0.08,0.318,0.097c0.019,0.004,0.036,0.009,0.053,0.011
			c0.038,0.004,0.069,0.022,0.111,0.022c0.068,0,0.118-0.026,0.179-0.035c0.04-0.007,0.079-0.013,0.119-0.025
			c0.087-0.026,0.163-0.061,0.233-0.106c0.041-0.025,0.078-0.055,0.116-0.087c0.046-0.042,0.087-0.084,0.123-0.138
			c0.029-0.037,0.066-0.06,0.093-0.104c0.21-0.358,0.154-0.861-0.127-1.172c-0.033-0.041-0.081-0.067-0.121-0.104
			c-0.038-0.027-0.066-0.07-0.111-0.093c-0.011-0.006-0.025-0.013-0.039-0.019c-0.027-0.015-0.052-0.027-0.082-0.041
			c-0.508-0.248-1.058-0.507-1.616-0.652C47.264,103.521,47.8,103.346,47.993,102.767"/>
		<path d="M43.029,95.5c-0.417,0-0.685,0.218-0.832,0.5h-0.308c-1.29,0-1.29,2,0,2h0.64c0.455,0,0.741-0.252,0.875-0.574
			C44.297,97.075,44.176,95.5,43.029,95.5"/>
		<path d="M58.562,86.039c0.078-0.023,0.155-0.047,0.232-0.074c1.219-0.404,0.697-2.338-0.53-1.927
			c-1.382,0.458-2.766,0.929-4.235,0.962c-0.652,0-0.971,0.51-0.965,1.016c-0.004,0.502,0.316,1.002,0.965,0.984h1.5
			c0.311,0,0.543-0.119,0.703-0.295c0.124-0.028,0.247-0.07,0.371-0.101c-0.542,0.267-0.669,0.989-0.391,1.459
			c-0.553-0.089-1.183,0.212-1.183,0.937v0.169c-0.592-0.308-1.5-0.042-1.5,0.831v0.5c0,1.203,1.716,1.271,1.952,0.233
			c0.59,0.349,1.548,0.091,1.548-0.806V89c0-0.058-0.023-0.099-0.031-0.15c0.141,0.093,0.316,0.15,0.531,0.15
			c0.593,0,1.108-0.021,1.582-0.417c0.443-0.369,0.418-1.065,0.418-1.583C59.529,86.37,59.051,86.053,58.562,86.039"/>
		<path d="M61.024,78.138c-0.173,0.087-0.343,0.181-0.514,0.273c-0.105-0.71-1.025-1.282-1.688-0.617
			c-0.639,0.641-1.211,1.271-1.293,2.207c-0.005,0.053,0.019,0.098,0.024,0.147c-0.248,0.386-0.426,0.812-0.731,1.146
			c-0.868,0.949,0.542,2.368,1.414,1.415c0.215-0.236,0.368-0.51,0.521-0.783c0.402,0.148,0.872,0.073,1.135-0.42
			c0.449-0.839,1.324-1.232,2.141-1.641C63.187,79.287,62.174,77.562,61.024,78.138"/>
		<path d="M62.029,74c-0.384,0-0.66,0.209-0.828,0.498c-0.057,0-0.115,0.002-0.172,0.002c-1.29,0.004-1.29,2.004,0,2
			c1.043-0.002,1.89-0.354,2-1.5C63.082,74.459,62.534,74,62.029,74"/>
		<path d="M65.322,66.793c-0.975,0.976-2.007,1.971-2.656,3.203c-0.023,0.043-0.021,0.084-0.037,0.127
			c-0.005,0.011-0.007,0.022-0.012,0.035c-0.081,0.239-0.084,0.467-0.002,0.667c0.098,0.328,0.355,0.584,0.758,0.645
			c0.032,0.008,0.063,0.015,0.095,0.02c0.022,0.001,0.038,0.011,0.061,0.011h0.5c0.795,0,1.097-0.76,0.911-1.343
			c0.528-0.706,1.175-1.327,1.796-1.948C67.649,67.295,66.234,65.881,65.322,66.793"/>
		<path d="M69.029,59c-1.17,0.07-1.867,1.033-2.363,1.996c-0.091,0.175-0.113,0.343-0.107,0.504h-0.03c-1.29,0-1.29,2,0,2h0.5
			c0.688,0,0.997-0.563,0.952-1.095c0.158-0.079,0.306-0.194,0.411-0.399c0.136-0.265,0.274-0.547,0.462-0.777
			c-0.025,0.029,0.256-0.257,0.151-0.177c0.078-0.061,0.134-0.056,0.024-0.052C70.311,60.926,70.318,58.926,69.029,59"/>
		<path d="M61.029,89.5h-1c-1.29,0-1.29,2,0,2h1C62.319,91.5,62.319,89.5,61.029,89.5"/>
		<path d="M67.024,89.138c-1.119,0.759-2.125,1.633-3.093,2.564c0.3-0.576,0.607-1.149,0.961-1.696
			c0.703-1.086-1.029-2.088-1.726-1.01c-0.935,1.445-1.566,3.056-2.5,4.5c-0.033,0.051-0.055,0.1-0.077,0.149
			c-0.002,0.004-0.005,0.009-0.006,0.013c-0.221,0.504,0.056,0.967,0.476,1.182c0.283,0.175,0.63,0.206,0.955,0.015
			c0.051-0.026,0.099-0.059,0.145-0.095c0.026-0.021,0.053-0.027,0.077-0.051c0.167-0.167,0.333-0.334,0.5-0.5
			c0.239-0.239,0.312-0.51,0.283-0.769c0.028-0.052,0.054-0.103,0.081-0.154c0.022,0.059,0.045,0.111,0.076,0.165
			c0.129,0.295,0.387,0.518,0.791,0.541c0.016,0.002,0.031,0.007,0.047,0.007c0.006,0,0.009,0.002,0.015,0.002
			c1.043-0.002,1.89-0.356,2-1.5c0,0-0.005-0.017-0.004-0.024c0.633-0.578,1.291-1.126,2.008-1.611
			C69.094,90.146,68.095,88.412,67.024,89.138"/>
		<path d="M69.029,83.5c-0.368-0.01-0.703-0.12-1.05-0.235c-0.472-0.157-0.951-0.248-1.45-0.265c-0.65-0.018-0.97,0.479-0.965,0.984
			C65.557,84.49,65.877,85,66.529,85c0.368,0.012,0.702,0.123,1.05,0.237c0.472,0.159,0.951,0.249,1.45,0.263
			C70.319,85.539,70.316,83.539,69.029,83.5"/>
		<path d="M71.098,78.196c0.129-1.065,0.407-2.113,0.431-3.196c0.028-1.291-1.972-1.285-2,0c-0.031,1.353-0.471,2.646-0.5,4
			c-0.009,0.385,0.171,0.641,0.417,0.797C69.598,79.913,69.783,80,70.029,80h0.5C71.58,80,71.759,78.688,71.098,78.196"/>
		<path d="M66.029,73.5h-0.64c-0.937,0-1.184,1.05-0.759,1.628c-0.327,0.134-0.588,0.419-0.601,0.872
			c-0.011,0.371-0.121,0.703-0.236,1.052c-0.158,0.472-0.249,0.95-0.264,1.448c-0.005,0.18,0.034,0.326,0.096,0.455
			c-0.049,0.173-0.079,0.351-0.096,0.545c-0.046,0.545,0.49,1,1,1c0.58,0,0.954-0.456,1-1c0.012-0.133,0.153-0.324,0.212-0.448
			c0.168-0.349,0.255-0.667,0.288-1.052c0.021-0.24-0.085-0.459-0.242-0.632c0.14-0.446,0.228-0.896,0.242-1.368
			c0.005-0.2-0.05-0.359-0.129-0.5h0.129C67.319,75.5,67.319,73.5,66.029,73.5"/>
		<path d="M52.029,93.5c-1.29,0-1.29,2,0,2S53.319,93.5,52.029,93.5"/>
		<path d="M58.529,95.5h-0.118c-0.184-0.166-0.369-0.355-0.382-0.5c-0.048-0.541-0.419-1-1-1c-0.278,0-0.555,0.145-0.751,0.354
			C56.117,94.147,55.873,94,55.529,94c-1.29,0-1.29,2,0,2c0.3,0,0.523-0.114,0.684-0.28c0.23,0.56,0.639,1.015,1.09,1.469
			c0.007,0.007,0.013,0.014,0.019,0.021c0.021,0.021,0.044,0.024,0.065,0.043c0.076,0.069,0.157,0.13,0.259,0.171
			c0.107,0.047,0.214,0.063,0.321,0.065c0.023,0.002,0.039,0.012,0.062,0.012h0.5C59.819,97.5,59.819,95.5,58.529,95.5"/>
		<path d="M71.045,99.536c-0.417-0.006-0.819,0.223-0.955,0.666c-0.171-0.119-0.363-0.202-0.562-0.202
			c-0.425,0-0.734,0.249-0.888,0.593c-0.877,0.391-0.753,1.945,0.388,1.907c0.209-0.006,0.397-0.05,0.567-0.121
			c-0.032,0.204-0.06,0.411-0.067,0.621c-0.037,1.291,1.963,1.288,2,0c0.012-0.367,0.12-0.701,0.238-1.049
			c0.049-0.145,0.078-0.295,0.114-0.442c0.085-0.141,0.148-0.302,0.148-0.509v-0.5C72.048,99.851,71.549,99.531,71.045,99.536"/>
		<path d="M88.029,94v-1c0-1.289-2-1.289-2,0v1c0,0.065,0.024,0.112,0.034,0.17C85.918,94.073,85.75,94,85.529,94
			c-0.993,0-2.073,0.072-2.996-0.362c-0.239-0.113-0.468-0.112-0.677-0.06c0.148-0.186,0.204-0.386,0.192-0.58
			c0.851-0.016,1.115-0.901,0.818-1.488c0.564-0.902-0.695-2.067-1.544-1.216c-0.308,0.309-0.519,0.6-0.648,0.938
			c-0.181-0.18-0.361-0.36-0.541-0.541c-0.913-0.912-2.327,0.502-1.415,1.414c0.187,0.187,0.373,0.373,0.559,0.56
			c-0.429,0.129-0.846,0.281-1.253,0.474c-0.171,0.082-0.281,0.228-0.363,0.392c-0.046-0.007-0.082-0.029-0.132-0.029h-1
			c-0.509,0-0.81,0.314-0.917,0.691c-0.451-0.396-0.977-0.639-1.583-0.691c-0.544-0.045-1,0.491-1,1c0,0.582,0.457,0.955,1,1
			c0.045,0.005,0.189,0.121,0.232,0.148c-0.115-0.076,0.038,0.038,0.061,0.061c0.601,0.582,1.397,0.188,1.637-0.404
			c0.151,0.113,0.331,0.195,0.57,0.195h1c0.435,0,0.711-0.233,0.853-0.534c0.213,0.025,0.44-0.002,0.651-0.102
			c0.695-0.325,1.454-0.428,2.12-0.767c-0.248,0.432-0.209,0.994,0.371,1.267c0.356,0.168,0.716,0.284,1.081,0.375
			C82.469,96.31,82.769,97,83.529,97h0.065c-0.027,0.054-0.029,0.115-0.048,0.171c-0.272,0.173-0.462,0.458-0.487,0.792
			c-0.515,0.217-0.863,0.851-0.524,1.402c-0.815,0.055-1.626,0.187-2.438,0.363c-0.165-0.128-0.361-0.214-0.568-0.224V99.5
			c0-0.125-0.024-0.235-0.06-0.334c0.065-0.446-0.125-0.923-0.583-1.093c-0.131-0.318-0.404-0.573-0.857-0.573h-0.168
			c0.309-0.591,0.041-1.5-0.832-1.5s-1.141,0.909-0.832,1.5h-1.168c-1.29,0-1.29,2,0,2h1c-0.729,0-1.036,0.636-0.94,1.189
			c-0.15-0.107-0.326-0.189-0.56-0.189c-0.274,0-0.478,0.104-0.635,0.246c-0.023,0.017-0.048,0.032-0.07,0.051
			c-0.019,0.021-0.033,0.047-0.05,0.069c-0.142,0.157-0.245,0.362-0.245,0.634v2c0,1.291,2,1.291,2,0v-2
			c0-0.063-0.025-0.111-0.035-0.168c0.029,0.022,0.055,0.049,0.09,0.066c-0.056,0.53,0.251,1.102,0.945,1.102
			c0.113,0,0.204-0.031,0.296-0.06c0.542,0.073,1.166-0.231,1.204-0.94c-0.009,0.169,0.042-0.149,0.062-0.248
			c0.029,0.085,0.07,0.164,0.118,0.241c0.118,0.208,0.301,0.368,0.538,0.445c0.008,0.002,0.015,0.007,0.023,0.009
			c0.051,0.015,0.1,0.029,0.155,0.035c0.125,0.021,0.252,0.018,0.382-0.021c1.802-0.448,3.6-0.891,5.456-0.496
			c0.291,0.063,0.538-0.003,0.739-0.129c0.144,0.094,0.31,0.163,0.527,0.163h0.5c0.455,0,0.741-0.252,0.875-0.574
			C88.297,100.575,88.176,99,87.029,99h-0.64c-0.003,0-0.004,0.002-0.007,0.002c-0.044-0.069-0.077-0.143-0.146-0.208
			c-0.176-0.167-0.371-0.31-0.567-0.448c0.156-0.104,0.27-0.252,0.338-0.423C86.119,97.969,86.243,98,86.389,98h0.64
			c1.29,0,1.29-2,0-2h-0.032c0-0.363-0.176-0.722-0.518-0.893c0.01-0.107,0.003-0.208-0.016-0.313
			C87.049,95.164,88.029,94.907,88.029,94"/>
		<path d="M103.794,97.036c-0.869-0.284-1.749-0.536-2.626-0.788c-0.159-0.144-0.364-0.248-0.64-0.248
			c-0.052,0-0.118,0.001-0.184,0.001c-0.518-0.15-1.036-0.297-1.55-0.465c-0.1-0.032-0.185-0.027-0.275-0.031
			C98.52,95.502,98.52,95.5,98.52,95.5h0.008c1.289,0.071,1.284-1.93,0-2c0.212,0.014-0.137-0.034-0.156-0.041
			c-0.144-0.04-0.271-0.102-0.405-0.168c-0.267-0.133-0.515-0.292-0.732-0.498c-0.129-0.121-0.268-0.192-0.407-0.234
			c0.361-0.588,0.105-1.559-0.8-1.559h-0.5c-1.29,0-1.29,2,0,2h0.18c-0.245,0.353-0.291,0.826,0.113,1.208
			c0.273,0.258,0.594,0.486,0.931,0.688c-0.03,0.038-0.045,0.087-0.072,0.129c-0.556,0.042-1.05,0.195-1.506,0.504
			c-0.393-0.057-0.786,0.087-1.008,0.467c-0.26,0.441-0.133,1.131,0.357,1.368c0.108,0.052,0.216,0.093,0.324,0.136h-0.712
			c-0.618-0.134-1.237-0.271-1.841-0.464c-0.834-0.266-1.328,0.531-1.188,1.197c-0.14,0.571,0.161,1.267,0.922,1.267h1.5
			c0,0.471,0.301,0.788,0.698,0.926c0.012,0.02,0.046,0.061,0.121,0.182c0.137,0.214,0.302,0.413,0.474,0.601
			c0.826,0.899,2.106-0.312,1.515-1.249c0.073-0.024,0.15-0.043,0.213-0.085C96.68,99.952,96.837,100,97.028,100h1
			c1.291,0,1.291-2,0-2H97.86c-0.125-0.238-0.343-0.422-0.661-0.477c0.204-0.113,0.376-0.27,0.535-0.441
			c0.033,0.042,0.045,0.087,0.087,0.126c0.642,0.604,1.38,0.749,2.191,0.784c1.088,0.314,2.176,0.621,3.251,0.974
			C104.492,99.368,105.016,97.437,103.794,97.036"/>
		<path d="M110.529,101.5h-2c-0.344,0-0.589,0.147-0.75,0.356c-0.025-0.032-0.066-0.051-0.096-0.08
			c0.558-0.506,0.345-1.721-0.654-1.776c0.211,0.013-0.139-0.034-0.157-0.04c-0.145-0.04-0.271-0.102-0.405-0.169
			c-0.267-0.133-0.514-0.291-0.731-0.497c-0.245-0.23-0.519-0.298-0.778-0.269c-0.14,0.005-0.285,0.038-0.434,0.112
			c-0.397,0.198-0.796,0.396-1.201,0.582c-0.164,0.076-0.332,0.14-0.502,0.2c-0.058,0.021-0.468,0.092-0.292,0.08
			c-0.074,0.005-0.128,0.035-0.194,0.052c0.193-0.281,0.216-0.586,0.111-0.855c-0.093-0.333-0.349-0.599-0.755-0.662
			c-0.181-0.043-0.369-0.036-0.556,0.048c-0.091,0.037-0.164,0.096-0.233,0.158c-0.026,0.021-0.055,0.028-0.08,0.054
			c-0.005,0.006-0.01,0.012-0.016,0.019c-0.002,0.001-0.003,0.002-0.005,0.004c-1.065,1.098-1.911,2.384-2.979,3.478
			c-0.901,0.924,0.512,2.338,1.414,1.415c0.849-0.87,1.56-1.856,2.349-2.776c-0.047,0.433,0.143,0.872,0.582,1.015
			c0.137,0.311,0.418,0.553,0.862,0.553c0.591,0,0.898-0.42,0.947-0.875c0.319-0.135,0.631-0.285,0.936-0.44
			c0.414,0.295,0.876,0.541,1.361,0.683c-0.431,0.576-0.184,1.633,0.756,1.633c0.344,0,0.589-0.146,0.75-0.354
			c0.161,0.209,0.406,0.354,0.75,0.354h2C111.819,103.5,111.819,101.5,110.529,101.5"/>
		<path d="M88.529,102.5h-1c-1.29,0-1.29,2,0,2h1C89.819,104.5,89.819,102.5,88.529,102.5"/>
		<path d="M92.029,86c-1.29,0-1.29,2,0,2S93.319,86,92.029,86"/>
		<path d="M86.029,79H85.85c0.244-0.351,0.291-0.823-0.114-1.206c-0.807-0.762-1.775-1.282-2.743-1.81
			C82.986,75.49,82.667,75,82.029,75H81.21c-0.291-0.067-0.561,0.021-0.765,0.198c-0.105-0.379-0.404-0.698-0.916-0.698
			c-0.004,0-0.008,0.002-0.012,0.003c0.01-0.239-0.066-0.488-0.281-0.709c-0.424-0.436-0.77-0.91-1.081-1.41
			c0.265,0.078,0.559,0.116,0.874,0.116c1.29,0.004,1.29-1.996,0-2c-0.058,0-0.114,0-0.171,0c-0.167-0.291-0.444-0.5-0.829-0.5
			c-0.196,0-0.389,0.084-0.56,0.2c0.107-0.471-0.073-1.003-0.674-1.161c-1.593-0.427-2.891-1.245-4.084-2.321
			C73.24,66.171,73.019,65,72.029,65c-0.691,0-1,0.574-0.95,1.107c-0.208,0.104-0.351,0.28-0.433,0.484
			c-0.147,0.273-0.153,0.601,0.032,0.904c0.013,0.024,0.032,0.045,0.046,0.067c0.035,0.048,0.051,0.099,0.098,0.146
			c0.012,0.011,0.023,0.021,0.036,0.031c0.014,0.014,0.028,0.026,0.044,0.039c1.423,1.383,3.023,2.434,4.909,3.029
			c-0.098,0.11-0.159,0.247-0.199,0.391l-0.001,0.004c-0.022,0.081-0.036,0.162-0.039,0.247c-0.01,0.105,0.003,0.216,0.032,0.329
			c0.009,0.038,0.017,0.075,0.03,0.113c0.015,0.037,0.012,0.075,0.032,0.113c0.585,1.17,1.238,2.258,2.156,3.203
			c0.234,0.24,0.501,0.317,0.756,0.291c0.002,0.187,0.045,0.373,0.137,0.532c-0.823-0.14-1.643,0.927-0.893,1.677
			c0.166,0.166,0.333,0.332,0.5,0.5c0.02,0.021,0.043,0.023,0.064,0.041c0.076,0.071,0.158,0.132,0.261,0.173
			c0.103,0.045,0.206,0.06,0.31,0.063c0.026,0.002,0.045,0.014,0.072,0.014h0.5c1.29,0,1.29-2,0-2h-0.086l-0.022-0.021
			c0.039,0.004,0.067,0.021,0.108,0.021c0.242,0,0.421-0.084,0.573-0.198c0.044,0.161,0.132,0.313,0.274,0.444
			c0.031,0.032,0.068,0.058,0.105,0.084c0.015,0.012,0.027,0.024,0.043,0.034c1.235,0.802,2.719,1.326,3.798,2.345
			c0.129,0.121,0.268,0.191,0.408,0.233C84.37,80.031,84.627,81,85.529,81h0.5C87.319,81,87.319,79,86.029,79"/>
		<path d="M78.529,102.5c-1.29,0-1.29,2,0,2S79.819,102.5,78.529,102.5"/>
		<path d="M39.529,100.5c-1.29,0-1.29,2,0,2S40.819,100.5,39.529,100.5"/>
		<path d="M59.529,100h2c1.29,0,1.29-2,0-2h-2c-0.417,0-0.69,0.212-0.834,0.493c-0.174-0.034-0.365-0.011-0.561,0.089
			c-0.024,0.01-0.044,0.022-0.066,0.033c-0.015,0.01-0.029,0.013-0.044,0.022c-0.828,0.535-1.709,0.974-2.583,1.424
			c-0.007,0-0.014-0.001-0.02-0.001c-0.062-0.126-0.146-0.229-0.25-0.311c0.021-0.017,0.044-0.021,0.065-0.041l1.5-1.5
			c0.003-0.004,0.004-0.009,0.007-0.012c0.018-0.021,0.029-0.044,0.045-0.067c0.266-0.316,0.288-0.679,0.15-0.982
			c-0.002-0.007-0.003-0.012-0.005-0.019c-0.005-0.01-0.011-0.02-0.016-0.03c-0.119-0.308-0.386-0.54-0.79-0.578
			c-0.03-0.004-0.056-0.016-0.085-0.018c-0.005,0-0.009-0.003-0.013-0.003h-0.5c-0.665,0-0.98,0.532-0.96,1.047l-0.747,0.747
			c-0.482,0.482-0.309,1.095,0.09,1.44c-0.223,0.159-0.384,0.408-0.383,0.766c0.001,0.223,0.043,0.406,0.101,0.576
			c-0.036,0.021-0.072,0.039-0.106,0.062c-0.107,0.069-0.188,0.151-0.256,0.237c-0.241,0.065-0.485,0.117-0.739,0.125
			c-1.147,0.041-1.268,1.625-0.367,1.939c0.137,0.314,0.419,0.561,0.867,0.561c0.538,0,0.837-0.35,0.927-0.754
			c0.38-0.117,0.751-0.261,1.116-0.425c-0.043,0.172-0.054,0.352,0.015,0.531c-0.074,0.546,0.23,1.15,0.942,1.147
			c0.567,0,1.165-0.156,1.336-0.78c0.165-0.599-0.241-1.037-0.629-1.426c-0.017-0.016-0.035-0.02-0.051-0.034
			c0.537,0.05,1.075,0.074,1.613,0.063c-0.475,0.565-0.232,1.677,0.731,1.677h0.668c0.147,0.284,0.415,0.5,0.832,0.5h0.5
			c1.29,0,1.29-2,0-2h-0.168c-0.084-0.158-0.203-0.297-0.372-0.385c0.268-0.046,0.537-0.086,0.806-0.149
			c1.256-0.29,0.723-2.218-0.532-1.927c-0.437,0.098-0.87,0.171-1.302,0.224c-0.018-0.087-0.053-0.169-0.093-0.249
			c0.008-0.014,0.014-0.026,0.021-0.041C59.434,99.984,59.476,100,59.529,100"/>
		<path d="M70.529,0c-1.29,0-1.29,2,0,2S71.819,0,70.529,0"/>
		<path d="M71.029,30.5c-1.29,0-1.29,2,0,2S72.319,30.5,71.029,30.5"/>
		<path d="M71.029,42.5h-0.5c-1.29,0-1.29,2,0,2h0.5C72.319,44.5,72.319,42.5,71.029,42.5"/>
		<path d="M72.029,7v0.5c0,1.291,2,1.291,2,0V7C74.029,5.711,72.029,5.711,72.029,7"/>
	</g>
	<path d="M31.733,126.919c-0.006,0-0.011,0.003-0.017,0.003c0.002-0.251-0.159-0.503-0.483-0.503c-0.364,0-0.515,0.316-0.468,0.594
		c-0.016,0.05-0.032,0.097-0.032,0.156v1.25c0,0.646,1,0.646,1,0v-0.5C32.378,127.919,32.378,126.919,31.733,126.919"/>
	<path d="M29.983,125.169c-0.645,0-0.645,1,0,1S30.628,125.169,29.983,125.169"/>
	<path d="M32.483,128.669c-0.645,0-0.645,1,0,1S33.128,128.669,32.483,128.669"/>
	<path d="M31.483,131.419c-0.645,0-0.645,1,0,1S32.128,131.419,31.483,131.419"/>
	<path d="M22.733,130.669c-0.645,0-0.645,1,0,1S23.378,130.669,22.733,130.669"/>
	<path d="M21.001,126.036c-0.215,0.845-0.473,1.644-0.95,2.38c-0.351,0.543,0.514,1.044,0.863,0.505
		c0.521-0.803,0.816-1.696,1.051-2.618C22.125,125.676,21.16,125.411,21.001,126.036"/>
	<path d="M16.231,128.987c-0.45,0.284-0.934,0.458-1.437,0.562c0.684-0.576,1.213-1.329,1.621-2.127
		c0.293-0.573-0.57-1.079-0.863-0.506c-0.484,0.946-1.114,1.815-2.071,2.321c-0.296,0.156-0.299,0.461-0.158,0.679
		c-0.162,0.299-0.031,0.76,0.41,0.753c1.058-0.016,2.101-0.247,3.003-0.818C17.279,129.508,16.778,128.643,16.231,128.987"/>
	<path d="M33.983,109.169c-0.449,0-0.578,0.48-0.402,0.775c-0.36,0.072-0.576,0.366-0.598,0.725
		c-0.035,0.565,0.728,0.631,0.944,0.208c0.339-0.105,0.363-0.488,0.185-0.734C34.617,110.012,34.58,109.169,33.983,109.169"/>
	<path d="M8.483,126.169v0.75c0,0.646,1,0.646,1,0v-0.75C9.483,125.523,8.483,125.523,8.483,126.169"/>
	<path d="M6.983,128.919c-0.645,0-0.645,1,0,1S7.628,128.919,6.983,128.919"/>
	<path d="M6.751,127.536c0.013,0.114-0.037,0.164-0.151,0.151c-0.636,0.101-0.365,1.063,0.266,0.964
		c0.433-0.069,0.78-0.416,0.849-0.849C7.815,127.171,6.853,126.901,6.751,127.536"/>
	<path d="M20.233,120.669c-0.645,0-0.645,1,0,1S20.878,120.669,20.233,120.669"/>
	<path d="M19.733,119.669c-0.645,0-0.645,1,0,1S20.378,119.669,19.733,119.669"/>
	<path d="M34.733,108.419c-0.036,0-0.064,0.013-0.095,0.021c0.171-0.297,0.041-0.771-0.405-0.771c-0.645,0-0.645,1,0,1
		c0.036,0,0.063-0.013,0.095-0.02c-0.171,0.296-0.041,0.77,0.405,0.77C35.378,109.419,35.378,108.419,34.733,108.419"/>
	<path d="M34.733,106.419c-0.645,0-0.645,1,0,1S35.378,106.419,34.733,106.419"/>
	<path d="M29.231,129.487c-1.275,0.964-2.696,1.128-4.248,0.932c-0.638-0.081-0.631,0.921,0,1c1.707,0.217,3.354-0.011,4.753-1.068
		C30.243,129.968,29.746,129.099,29.231,129.487"/>
	<path d="M19.501,131.536c-0.028,0.162-0.216,0.305-0.25,0.5c-0.11,0.63,0.853,0.9,0.964,0.267c0.028-0.162,0.216-0.306,0.25-0.5
		C20.576,131.171,19.611,130.901,19.501,131.536"/>
	<path d="M10.88,130.815c-0.085,0.081-0.165,0.104-0.279,0.122c-0.636,0.094-0.365,1.059,0.265,0.963
		c0.277-0.041,0.518-0.188,0.721-0.378C12.058,131.08,11.349,130.375,10.88,130.815"/>
	<path d="M24.733,122.669c-0.645,0-0.645,1,0,1S25.378,122.669,24.733,122.669"/>
	<path d="M134.087,123.815c-0.274-0.274-0.49-0.554-0.672-0.899c-0.301-0.569-1.164-0.063-0.863,0.506
		c0.22,0.416,0.497,0.768,0.828,1.101C133.836,124.979,134.543,124.272,134.087,123.815"/>
	<path d="M139.733,127.669c-0.645,0-0.645,1,0,1S140.378,127.669,139.733,127.669"/>
	<path d="M146.483,134.169c-0.645,0-0.645,1,0,1S147.128,134.169,146.483,134.169"/>
	<path d="M120.101,124.938c-0.622,0.195-1.22,0.23-1.867,0.231c-0.645,0-0.645,1,0,1c0.733-0.001,1.43-0.047,2.133-0.268
		C120.979,125.708,120.718,124.743,120.101,124.938"/>
	<path d="M112.733,122.919c-0.046,0-0.066,0.004-0.076,0.009c0.008-0.009,0.009-0.033-0.071-0.112
		c-0.458-0.453-1.165,0.254-0.707,0.708c0.262,0.258,0.48,0.392,0.854,0.396C113.378,123.926,113.378,122.926,112.733,122.919"/>
	<path d="M118.486,127.237c-0.511-0.256-0.984-0.524-1.399-0.922c-0.059-0.056-0.122-0.094-0.186-0.116
		c0.123-0.242,0.257-0.479,0.436-0.677c0.221-0.244,0.143-0.546-0.043-0.722c0.111-0.08,0.19-0.204,0.19-0.382v-0.5
		c0-0.646-1-0.646-1,0v0.5c0,0.171,0.072,0.294,0.176,0.374c-0.009,0.011-0.021,0.012-0.03,0.022
		c-0.358,0.397-0.59,0.878-0.828,1.351c-0.204,0.406,0.167,0.771,0.504,0.75c0.023,0.036,0.039,0.073,0.074,0.106
		c0.477,0.456,1.014,0.784,1.601,1.078C118.556,128.389,119.063,127.526,118.486,127.237"/>
	<path d="M115.087,125.315c-0.195-0.229-0.301-0.516-0.5-0.75c-0.129-0.152-0.284-0.18-0.427-0.145
		c0.042-0.069,0.074-0.149,0.074-0.251v-0.75c0-0.646-1-0.646-1,0v0.75c0,0.38,0.344,0.528,0.629,0.462
		c-0.127,0.179-0.164,0.429,0.017,0.641c0.052,0.062,0.089,0.131,0.131,0.197c-0.409,0.201-0.336,0.95,0.223,0.95
		c0.206,0,0.339-0.107,0.414-0.247C115.031,126.234,115.422,125.709,115.087,125.315"/>
	<path d="M119.233,129.669h-0.25c-0.037,0-0.065,0.014-0.098,0.021c-0.104-0.168-0.292-0.29-0.535-0.252
		c-1.327,0.205-2.661,0.217-3.865-0.45c-0.187-0.104-0.363-0.07-0.501,0.021c-0.015-0.01-0.026-0.024-0.044-0.034
		c-0.168-0.541-1.045-0.277-0.939,0.328c0.065,0.372,0.366,0.595,0.732,0.617c0.106,0.007,0.189-0.021,0.26-0.063
		c1.436,0.791,2.986,0.794,4.568,0.553c0.072,0.146,0.208,0.261,0.422,0.261h0.25C119.878,130.669,119.878,129.669,119.233,129.669"
		/>
	<path d="M121.483,127.169c-0.551-0.015-1.011-0.188-1.498-0.432c-0.575-0.286-1.082,0.575-0.504,0.863
		c0.647,0.322,1.272,0.549,2.002,0.568C122.128,128.188,122.127,127.188,121.483,127.169"/>
	<path d="M125.483,127.919v0.5c0,0.646,1,0.646,1,0v-0.5C126.483,127.273,125.483,127.273,125.483,127.919"/>
	<path d="M128.483,130.919v-1.75c0-0.646-1-0.646-1,0v1.75c0,0.103,0.03,0.181,0.072,0.25h-0.072c-0.645,0-0.645,1,0,1h0.5
		c0.506,0,0.609-0.608,0.322-0.875C128.41,131.214,128.483,131.091,128.483,130.919"/>
	<path d="M131.366,129.438c-0.705-0.183-1.274-0.403-1.701-1.021c-0.364-0.526-1.231-0.026-0.863,0.505
		c0.581,0.841,1.323,1.229,2.298,1.48C131.725,130.563,131.991,129.598,131.366,129.438"/>
	<path d="M135.983,131.669c-1.687,0.212-3.28-0.027-4.647-1.104c-0.501-0.395-1.213,0.31-0.707,0.708
		c1.108,0.871,2.325,1.322,3.635,1.432c-0.233,0.133-0.48,0.235-0.733,0.321c-0.077-0.062-0.171-0.107-0.298-0.107h-1.5
		c-0.384,0-0.535,0.354-0.461,0.64c-0.084,0.249-0.003,0.537,0.328,0.593c1.572,0.263,3.09-0.291,4.236-1.378
		c0.033-0.031,0.047-0.064,0.068-0.098c0.027-0.003,0.053-0.003,0.079-0.007C136.614,132.59,136.623,131.589,135.983,131.669"/>
	<path d="M146.233,132.919v0.073c-0.012,0.006-0.022,0.015-0.032,0.022c0.048-0.277-0.104-0.596-0.468-0.596
		c-0.335,0-0.493,0.271-0.479,0.529c-0.407,0.003-0.762,0.498-0.375,0.825c0.005,0.003,0.009,0.005,0.013,0.009
		c-0.153,0.09-0.307,0.163-0.46,0.214c-0.032-0.124-0.099-0.236-0.255-0.285c-0.099-0.195-0.314-0.281-0.514-0.268
		c-0.07-0.153-0.209-0.274-0.43-0.274c-0.637,0-0.642,0.971-0.022,0.996c-0.076,0.001-0.149,0.004-0.228,0.004c-0.645,0-0.645,1,0,1
		c0.454,0,0.88-0.016,1.29-0.095c0.096,0.059,0.207,0.097,0.342,0.077c0.269-0.04,0.485-0.211,0.75-0.25
		c0.332-0.05,0.409-0.329,0.324-0.575c0.02-0.063,0.026-0.124,0.02-0.188c0.088,0.014,0.174,0.03,0.274,0.031
		c0.219,0.002,0.357-0.115,0.428-0.267c0.025,0.004,0.044,0.017,0.072,0.017c0.235,0,0.382-0.134,0.446-0.303
		c0.17-0.064,0.304-0.211,0.304-0.447v-0.25C147.233,132.273,146.233,132.273,146.233,132.919"/>
	<path d="M125.483,132.669h-1c-0.645,0-0.645,1,0,1h1C126.128,133.669,126.128,132.669,125.483,132.669"/>
	<path d="M118.231,133.487c-0.463,0.222-0.98,0.412-1.498,0.432c-0.642,0.025-0.645,1.025,0,1c0.703-0.026,1.374-0.266,2.003-0.568
		C119.317,134.071,118.81,133.209,118.231,133.487"/>
	<path d="M119.983,116.919c-0.645,0-0.645,1,0,1S120.628,116.919,119.983,116.919"/>
	<path d="M121.733,116.669c-0.645,0-0.645,1,0,1S122.378,116.669,121.733,116.669"/>
	<path d="M0.25,133.919c0,0.088,0.027,0.171,0.067,0.248c-0.174,0.292-0.011,0.708,0.417,0.752c4.613,0.476,11.894-3.294,16.5-3.5
		c4.673-1.736,3.402,2.207,6.345,2c3.701-0.26,7.385,1.631,10.982,0.745c-0.016,0.278,1.69-3.024,1.673-2.745
		c-0.079,1.29,1.921,1.282,2,0l71.752,3.582c0.024,0.089,0.225-2.671,0.248-2.582c0.326,1.248,2.069,3.565,1.744,2.316
		c-0.01-0.038,0.265-3.278,0.256-3.316c0.415-0.197,0.061,2.25-0.5,2.25c-0.472-2.099-0.728-4.198-0.828-6.294
		c0.337-0.126,0.608-0.405,0.608-0.874v-1.75c0-0.376-0.177-0.629-0.42-0.785c-0.034-0.027-0.077-0.046-0.118-0.067
		c-0.038-0.019-0.074-0.037-0.113-0.052c0.014-0.725,0.047-1.449,0.086-2.174c0.244,0.129,0.504,0.219,0.785,0.246
		c0.642,0.063,0.635-0.938,0-1c-0.23-0.022-0.481-0.204-0.646-0.354c-0.022-0.02-0.046-0.024-0.069-0.041
		c0.008-0.116,0.013-0.234,0.022-0.353c0.324-0.069,0.586-0.513,0.297-0.856c-0.068-0.081-0.088-0.156-0.097-0.236
		c0.157,0.329,0.353,0.646,0.64,0.943c0.187,0.195,0.413,0.175,0.587,0.062c0.037,0.029,0.077,0.057,0.115,0.085
		c0.053,0.098,0.13,0.183,0.253,0.22c-0.182,0.295-0.054,0.782,0.398,0.78c0.299-0.001,0.584-0.042,0.861-0.108
		c0.823,1.125,1.911,1.876,3.256,2.34c0.239,0.083,0.421-0.016,0.522-0.177c0.756,0.604,1.638,0.802,2.578,0.745
		c1.499,0.368,3.121,0.525,4.651,0.868c-0.627,0.578-1.4,0.786-2.236,0.6c-0.627-0.139-0.895,0.825-0.265,0.964
		c1.203,0.269,2.338-0.028,3.237-0.878c0.152-0.145,0.173-0.313,0.124-0.467c0.921,0.269,1.788,0.642,2.555,1.208
		c0.034,0.215,0.185,0.405,0.467,0.405h0.022c0.04,0.037,0.085,0.064,0.125,0.104c0.275,0.267,0.62,0.132,0.77-0.116
		c0.119-0.005,0.237-0.012,0.356-0.019c1.45,1.086,2.841,2.381,4.272,3.606c-0.095,0.292,0.056,0.675,0.455,0.675
		c0.105,0,0.186-0.032,0.257-0.076c0.701,0.578,1.416,1.129,2.156,1.619c-0.29-0.087-0.662,0.063-0.663,0.457
		c0,0.207,0.045,0.479-0.103,0.646c-0.427,0.48,0.277,1.19,0.707,0.707c0.356-0.4,0.395-0.835,0.396-1.354
		c0.001-0.138-0.051-0.241-0.124-0.321c0.476,0.307,0.963,0.584,1.464,0.83c0.056,0.097,0.141,0.181,0.277,0.223
		c0.153,0.05,0.307,0.069,0.46,0.103c0.731,0.299,1.489,0.528,2.29,0.647c0.369,0.056,0.679-0.235,0.597-0.59
		c0.038-0.188-0.022-0.404-0.182-0.531c0.114-0.082,0.205-0.193,0.226-0.324c0.206-0.003,0.415-0.018,0.625-0.055
		c0.406-0.069,0.439-0.485,0.249-0.751c0.041,0.01,0.08,0.009,0.119,0.007v0.263c0,0.645,1,0.645,1,0v-0.5
		c0-0.347-0.287-0.5-0.556-0.474 M144.178,131.445c-0.022-0.045-0.049-0.089-0.09-0.13l-0.25-0.25
		c-0.457-0.457-1.164,0.25-0.707,0.707l0.169,0.169c-0.061-0.012-0.127-0.016-0.199-0.005c-0.147,0.026-0.284,0.018-0.424,0.019
		c-0.024-0.047-0.045-0.096-0.089-0.14c-0.159-0.159-0.335-0.299-0.372-0.529c-0.019-0.118-0.071-0.197-0.136-0.257
		c0.202-0.241,0.183-0.701-0.213-0.843c-0.668-0.237-1.269-0.629-1.778-1.121c-0.464-0.447-1.172,0.259-0.707,0.707
		c0.032,0.031,0.067,0.058,0.1,0.087l-0.245-0.121c-0.371-0.187-0.709,0.107-0.75,0.418c-0.01-0.006-0.021-0.012-0.032-0.017
		c-0.002-0.108-0.03-0.221-0.116-0.324c-0.501-0.598-1.038-1.137-1.592-1.648c0.502,0.309,1.03,0.573,1.605,0.733
		c0.621,0.176,0.886-0.789,0.265-0.964c-0.854-0.239-1.596-0.743-2.308-1.27c0.319-0.081,0.568-0.516,0.279-0.852
		c-0.23-0.266-0.34-0.558-0.722-0.629c-0.63-0.116-0.898,0.848-0.265,0.964c0.006,0.001,0.023,0.022,0.038,0.041
		c-0.347-0.16-0.654,0.205-0.613,0.555c-0.432-0.313-0.875-0.602-1.328-0.876c-0.001-0.026,0.003-0.052-0.002-0.076
		c0.064-0.284-0.086-0.625-0.463-0.625c-0.187,0-0.318,0.085-0.395,0.204c-0.404-0.222-0.816-0.428-1.233-0.626
		c0.226-0.285,0.104-0.828-0.372-0.828c-0.301,0-0.456,0.219-0.476,0.451c-0.154-0.066-0.309-0.132-0.463-0.196
		c0.005-0.164-0.01-0.335-0.054-0.518c0.081,0.004,0.162,0.012,0.243,0.013c0.645,0.011,0.644-0.989,0-1
		c-1.228-0.021-2.361-0.365-3.146-1.354c-0.401-0.505-1.104,0.208-0.707,0.707c0.672,0.849,1.608,1.309,2.622,1.514
		c-0.021,0.071-0.022,0.152-0.001,0.241c-0.515-0.186-1.035-0.359-1.563-0.52c-0.053-0.186-0.202-0.339-0.455-0.339
		c-0.131,0-0.226,0.05-0.302,0.115c-0.746-0.209-1.503-0.398-2.263-0.568c-0.11-0.113-0.221-0.224-0.302-0.365
		c0.062,0.013,0.124,0.027,0.186,0.039c0.069,0.157,0.209,0.279,0.432,0.279c0.563,0,0.634-0.761,0.215-0.953
		c-0.044-0.133-0.145-0.245-0.333-0.279c-0.387-0.068-0.768-0.159-1.145-0.259c0.005-0.084-0.007-0.17-0.055-0.261
		c-0.334-0.614-0.84-1.111-1.328-1.602c-0.275-0.274-0.637-0.126-0.785,0.136c-0.391,0.144-0.402,0.752-0.034,0.924
		c-0.102-0.05-0.207-0.092-0.308-0.145c0.045-0.229-0.047-0.478-0.345-0.544c-0.49-0.107-0.946-0.292-1.377-0.519
		c0.12-0.001,0.21-0.043,0.286-0.102c0.05,0.192,0.201,0.353,0.459,0.353c0.645,0,0.645-1,0-1c-0.123,0-0.215,0.044-0.29,0.102
		c-0.052-0.19-0.203-0.352-0.46-0.352c-0.047,0-0.084,0.015-0.124,0.026c0.196-0.266,0.166-0.688-0.244-0.759
		c-0.162-0.027-0.304-0.216-0.5-0.25c-0.63-0.109-0.899,0.854-0.265,0.964c0.161,0.029,0.305,0.218,0.5,0.25
		c0.086,0.017,0.162,0.008,0.235-0.013c-0.102,0.165-0.104,0.381-0.008,0.549c-0.464-0.301-0.885-0.67-1.24-1.121
		c-0.032-0.041-0.068-0.061-0.103-0.087c0.005-0.06,0.003-0.123-0.019-0.192c-0.113-0.369-0.169-0.742-0.2-1.117h0.468
		c0.172,0,0.295-0.073,0.375-0.177c0.08,0.104,0.203,0.177,0.375,0.177h0.25c0.006,0,0.01-0.003,0.017-0.003
		c-0.002,0.251,0.158,0.503,0.483,0.503c0.645,0,0.645-1,0-1c-0.006,0-0.011,0.004-0.016,0.004c0.001-0.251-0.16-0.504-0.484-0.504
		h-0.25c-0.006,0-0.01,0.004-0.016,0.004c0.001-0.251-0.16-0.504-0.484-0.504c-0.322,0-0.484,0.25-0.484,0.5h-0.266
		c0-0.437-0.454-0.57-0.75-0.416v-0.334c0-0.353-0.297-0.505-0.568-0.472c-0.071-0.156-0.21-0.278-0.432-0.278c-0.645,0-0.645,1,0,1
		v1c0,0.43,0.436,0.558,0.732,0.415c0.017,0.012,0.03,0.027,0.05,0.037c0.031,0.483,0.092,0.961,0.236,1.431
		c0.049,0.161,0.152,0.258,0.273,0.31c-0.023,0.134,0.002,0.279,0.106,0.411c0.271,0.346,0.59,0.64,0.93,0.909
		c-0.143,0.297-0.008,0.737,0.423,0.737c0.179,0,0.303-0.08,0.382-0.19c0.079,0.043,0.161,0.078,0.241,0.118
		c-0.218,0.287-0.095,0.818,0.377,0.822c0.157,0.002,0.266-0.007,0.397,0.104c0.224,0.189,0.491,0.139,0.672-0.007
		c0.842,0.455,1.729,0.795,2.644,1.055c0.01,0.007,0.02,0.016,0.03,0.022c-0.007,0.063-0.004,0.132,0.025,0.209
		c0.017,0.047,0.042,0.086,0.062,0.13c-0.834-0.165-1.671-0.313-2.509-0.448c-0.2-0.063-0.405-0.115-0.604-0.186
		c0.053-0.155,0.037-0.33-0.114-0.482l-0.25-0.25c-0.313-0.313-0.736-0.075-0.828,0.248c-0.319-0.146-0.631-0.317-0.94-0.5
		c-0.117-0.271-0.281-0.524-0.482-0.748c-0.128-0.142-0.278-0.171-0.417-0.142c-0.055-0.108-0.152-0.196-0.305-0.237
		c-0.386-0.103-0.681-0.273-0.935-0.491c-0.139-0.45-0.305-0.89-0.478-1.325c0.412-0.199,0.34-0.951-0.22-0.951
		c-0.064,0-0.118,0.017-0.168,0.034c-0.086-0.191-0.18-0.381-0.272-0.572c0.439,0.187,0.947-0.41,0.544-0.815l-0.25-0.25
		c-0.268-0.268-0.618-0.132-0.772,0.116c-0.283-0.511-0.576-1.018-0.9-1.515c-0.251-0.384-0.759-0.235-0.904,0.078
		c-0.126-0.294-0.224-0.613-0.296-0.959c-0.004-0.021-0.017-0.028-0.022-0.046c0.026-0.14,0.003-0.289-0.106-0.425
		c-0.131-0.161-0.103-0.452-0.104-0.646c-0.001-0.186-0.088-0.312-0.206-0.39c0.004-0.05,0.008-0.098,0.011-0.146
		c0.886,0.668,1.834,1.188,2.851,1.554c-0.542,0.1-0.514,0.981,0.094,0.981c0.472,0,0.595-0.533,0.376-0.82
		c0.048,0.015,0.095,0.035,0.144,0.049c-0.01,0.259,0.148,0.521,0.48,0.521c0.237,0,0.385-0.135,0.448-0.308
		c0.058,0.011,0.112,0.03,0.17,0.039c0.048,0.009,0.09-0.001,0.133-0.004v0.022c0,0.645,1,0.645,1,0v-0.25
		c0-0.34-0.277-0.495-0.539-0.478c-0.047-0.124-0.147-0.226-0.329-0.255c-1.35-0.217-2.579-0.723-3.698-1.473
		c0.548-0.538,0.343-1.713-0.655-1.713h-0.327c0.029-0.5,0.056-1,0.077-1.5c0-0.025-0.01-0.042-0.01-0.066
		c0.361-0.056,0.675-0.289,0.738-0.709c0.537-0.546,0.316-1.725-0.676-1.725h-0.352c-0.417,0-0.685,0.217-0.832,0.5
		c-0.041,0.033-0.083,0.061-0.117,0.1v-1.6h-3.878c0.569-0.487,0.443-1.409-0.358-1.714c-2.417-0.922-4.59-0.751-7.03,0
		c-0.689,0.212-0.813,0.905-0.583,1.413c-0.564,0.087-1.126,0.184-1.683,0.301h-5.984c0.25-0.161,0.492-0.338,0.721-0.542
		c0.965-0.862-0.455-2.272-1.413-1.415c-0.389,0.35-1.412,1.127-1.928,0.452c-0.377-0.493-0.761-0.497-1.355-0.484
		c-1.429,0.027-2.772,0.436-4.014,1.126c-0.375,0.208-0.497,0.538-0.475,0.863H76.23c-0.059-0.551-0.524-1.103-1.233-0.963
		c-1.055,0.204-2.106,0.368-3.175,0.433c-0.772-1.096-1.993-1.241-3.255-0.965c-1.265-0.547-2.693-0.348-4.096-0.078
		c-0.983,0.19-2.336,0.706-3.692,1.059c-0.274-0.194-0.636-0.271-1.022-0.099c-0.442,0.198-0.897,0.341-1.357,0.442
		c-0.611-0.015-1.171-0.139-1.632-0.442c-0.651-0.428-1.267,0.029-1.427,0.613h-0.18c-1.538-0.117-3.117-0.434-4.68-0.65
		c-0.028-0.27-0.161-0.53-0.463-0.713c-1.117-0.67-2.237-0.892-3.529-0.905c-1.424-0.017-2.932,0.457-4.221-0.345
		c-0.005-0.002-0.008-0.002-0.011-0.004c0.128-0.16,0.211-0.357,0.242-0.577c0.027-0.031,0.05-0.056,0.068-0.068
		c-0.015,0.005-0.027,0.011-0.054,0.013c0.02-0.002,0.037-0.011,0.058-0.013c0.03-0.021,0.039-0.018,0.021-0.007
		c0.354-0.054,0.661-0.243,0.812-0.547c0.942-0.314,0.841-1.934-0.325-1.934h-0.316c-0.494,0-0.796,0.296-0.91,0.659
		c-0.623,0.244-1.061,0.748-1.244,1.408c-0.249-0.109-0.543-0.119-0.851,0.069c-1.429,0.881-2.694,2.083-4.25,2.75
		c-0.64,0.275-0.625,0.897-0.297,1.335c-0.065-0.032-0.139-0.054-0.227-0.054c-0.645,0-0.645,1,0,1c0.433,0,0.568-0.445,0.42-0.742
		c0.107,0.09,0.225,0.168,0.36,0.214v2.219c-0.086,0.094-0.149,0.211-0.193,0.343c-0.429,0.144-0.418,0.819,0.029,0.939
		c0.043,0.095,0.097,0.181,0.164,0.253v2.41c-0.123,0.033-0.209,0.094-0.304,0.148c-0.219,0.027-0.427,0.173-0.468,0.438
		c-0.165,0.3-0.228,0.681-0.228,1.109c0,0.021,0.011,0.037,0.012,0.058c-0.011,0.043-0.03,0.082-0.042,0.125v-1.265
		c0-0.112-0.037-0.198-0.087-0.271c0.031,0.007,0.052,0.021,0.087,0.021c0.377,0,0.527-0.341,0.463-0.625
		c0.064-0.284-0.086-0.625-0.463-0.625s-0.527,0.341-0.463,0.625c-0.031,0.138-0.01,0.289,0.062,0.408
		c-0.065-0.013-0.128-0.013-0.194-0.001c-0.048-0.017-0.095-0.032-0.156-0.032c-0.369,0-0.519,0.323-0.467,0.603
		c-0.294-0.184-0.783-0.056-0.783,0.397v0.071c-0.069-0.04-0.149-0.071-0.25-0.071c-0.216,0-0.352,0.116-0.424,0.265
		c-0.188-0.05-0.392,0.003-0.507,0.233c-0.196,0.389-0.378,0.823-0.672,1.148c-0.041,0.046-0.063,0.095-0.084,0.142
		c-0.369,0.145-0.387,0.699-0.062,0.891c-0.274,0.257-0.53,0.53-0.773,0.814c-0.003-0.18-0.085-0.357-0.254-0.441
		c0.025-0.415-0.487-0.795-0.827-0.405c-1.526,1.74-2.904,3.687-4.734,5.098c-0.037-0.067-0.088-0.125-0.156-0.167
		c0.051-0.379-0.47-0.76-0.86-0.431c-0.131,0.11-0.24,0.103-0.397,0.104c-0.644,0.007-0.645,1.007,0,1
		c0.203-0.002,0.379-0.029,0.544-0.081c0.015,0.048,0.041,0.091,0.068,0.132c-0.13,0.082-0.254,0.173-0.391,0.25
		c-0.009-0.004-0.021-0.004-0.031-0.008c-0.066-0.162-0.21-0.293-0.441-0.293h-0.589c-0.071-0.142-0.202-0.25-0.411-0.25
		c-0.574,0-0.634,0.787-0.187,0.962c0.067,0.161,0.21,0.288,0.437,0.288h0.09c0.005,0.01,0.005,0.021,0.011,0.031
		c-0.008,0.002-0.014,0.009-0.022,0.011c-0.041,0.015-0.08,0.038-0.119,0.063c-0.006,0.005-0.014,0.007-0.019,0.013
		c-0.015,0.011-0.03,0.016-0.044,0.028c-0.064,0.058-0.133,0.107-0.198,0.163c-0.062-0.173-0.211-0.31-0.449-0.31
		c-0.528,0-0.616,0.664-0.279,0.907c-0.085,0.063-0.171,0.126-0.256,0.189c0.064-0.343-0.248-0.623-0.553-0.588
		c-0.073-0.144-0.202-0.259-0.412-0.259c-0.116,0-0.206,0.036-0.28,0.089c-0.247-0.143-0.579-0.1-0.677,0.216
		c-0.034,0.019-0.057,0.044-0.085,0.068c-0.044-0.2-0.191-0.373-0.458-0.373c-0.377,0-0.527,0.341-0.463,0.625v0.002
		c-0.015,0.067-0.017,0.135-0.009,0.203c0.001,0.009,0.003,0.016,0.006,0.024c0.01,0.057,0.03,0.108,0.057,0.158
		c0.009,0.016,0.015,0.03,0.025,0.044c0.029,0.04,0.066,0.073,0.108,0.103c0.017,0.012,0.03,0.026,0.049,0.037
		c0.065,0.032,0.138,0.054,0.227,0.054s0.163-0.021,0.227-0.054c0.019-0.011,0.032-0.025,0.05-0.037
		c0.033-0.024,0.061-0.054,0.087-0.084c0.079,0.11,0.203,0.186,0.386,0.175c0.083-0.005,0.16-0.022,0.234-0.048
		c-0.019,0.018-0.044,0.03-0.064,0.048h-1.502c-0.072-0.143-0.208-0.25-0.418-0.25h-0.5c-0.099,0-0.179,0.03-0.246,0.069
		c-0.02,0.012-0.035,0.024-0.052,0.038c-0.05,0.039-0.088,0.085-0.116,0.139c-0.006,0.013-0.015,0.021-0.02,0.035
		c-0.042,0.1-0.043,0.206-0.023,0.311c-0.03,0.099-0.029,0.206-0.002,0.306c-0.014,0.065-0.02,0.133-0.009,0.198
		c-0.075-0.055-0.164-0.096-0.282-0.096c-0.322,0-0.484,0.25-0.484,0.5h-0.266c-0.136,0-0.236,0.051-0.315,0.12
		c-0.016-0.049-0.02-0.107-0.051-0.147c0.5-0.134,0.46-0.973-0.134-0.973c-0.216,0-0.353,0.117-0.425,0.265
		c-0.026-0.003-0.047-0.015-0.075-0.015c-0.108,0-0.192,0.035-0.264,0.082c-0.217-0.136-0.516-0.128-0.667,0.166
		c-0.474,0.916-1.155,1.597-2.071,2.071c-0.349,0.18-0.295,0.566-0.074,0.777c-0.07,0.057-0.126,0.136-0.149,0.252
		c-0.134,0.058-0.27,0.109-0.403,0.169h-0.005v0.001c-0.039,0.018-0.08,0.032-0.119,0.051c-0.444,0.198-0.245,0.798,0.144,0.906
		c-0.05,0.094-0.105,0.186-0.159,0.276c-0.018-0.45-0.669-0.743-0.914-0.254c-0.23,0.458-0.482,0.878-0.816,1.261
		c-0.081-0.002-0.166,0.01-0.255,0.061c-0.39,0.217-0.565,0.511-0.851,0.827c-0.009,0.01-0.01,0.02-0.017,0.029
		c-0.41,0.141-0.828,0.261-1.263,0.342c-0.633,0.118-0.364,1.082,0.266,0.964c0.143-0.025,0.277-0.074,0.416-0.108
		c-0.35,0.202-0.707,0.396-1.073,0.576c-0.021-0.231-0.176-0.449-0.476-0.449H4.873c0.481-0.456,0.922-0.957,1.293-1.497
		c0.366-0.534-0.501-1.033-0.863-0.505c-0.524,0.763-1.224,1.466-1.981,2.002H2.983c-0.645,0-0.645,1,0,1h0.371
		c0.068,0.021,0.142,0.02,0.219,0h0.494c-0.006,0.011-0.004,0.024-0.009,0.036c-0.13,0.047-0.213,0.146-0.26,0.263
		c-0.908,0.367-1.802,0.695-2.622,1.002c-0.041-0.104-0.112-0.195-0.218-0.248c0.025-0.267-0.129-0.553-0.475-0.553 M30.242,120.189
		c0.048-0.072,0.096-0.146,0.142-0.219c0.27-0.225,0.561-0.425,0.854-0.624c-0.01,0.063-0.004,0.124,0.011,0.185
		c-0.331,0.534-0.67,1.064-1.012,1.598C30.265,120.822,30.265,120.508,30.242,120.189 M28.522,116.779
		c-0.035,0.141-0.015,0.291,0.058,0.413c-0.192-0.056-0.406-0.008-0.528,0.225c-0.183,0.345-0.399,0.624-0.672,0.898
		c-0.117,0.117-0.156,0.25-0.143,0.377c-0.294,0.247-0.574,0.508-0.859,0.762c-0.084,0.016-0.169,0.047-0.248,0.111
		c-0.164,0.137-0.331,0.268-0.495,0.401C26.681,118.999,27.603,117.888,28.522,116.779 M17.361,123.919h0.97
		c0.033,0.051,0.086,0.083,0.133,0.12c-0.111,0.093-0.226,0.181-0.334,0.276c-0.011,0.01-0.014,0.021-0.023,0.03
		c-0.08-0.104-0.203-0.177-0.374-0.177h-0.346c-0.028-0.042-0.06-0.084-0.098-0.117C17.328,124.017,17.336,123.963,17.361,123.919
		 M13.367,125.01c0.08,0.096,0.202,0.161,0.366,0.159c0.108-0.001,0.215-0.009,0.319-0.027c0.069,0.155,0.208,0.277,0.431,0.277
		h0.25c0.209,0,0.342-0.108,0.416-0.25h0.693c0.034,0.052,0.087,0.085,0.138,0.123c-0.154,0.058-0.307,0.119-0.459,0.18
		c-0.014,0.007-0.027,0.007-0.04,0.017c-0.003,0.002-0.005,0.002-0.009,0.004c-0.516,0.21-1.021,0.438-1.499,0.703
		c0.016-0.345-0.351-0.634-0.743-0.457c-0.401,0.179-0.808,0.342-1.215,0.505C12.529,125.897,12.995,125.501,13.367,125.01
		 M24.263,134.981c-2.092,0.21-4.451,0.374-6.652,0.02c3.79-0.22,7.579-0.506,11.37-0.679
		C27.417,134.596,25.845,134.824,24.263,134.981 M35.763,121.295c-0.518-0.024-1.034,0.289-1,0.956
		c0.195,3.649,0.058,7.299-0.148,10.942c-0.042-0.012-0.083-0.024-0.131-0.024c-6.572,0.033-13.131,0.675-19.692,0.976
		c-0.273-0.128-0.548-0.25-0.806-0.406c-0.39-0.237-0.745,0.121-0.734,0.472c-3.094,0.115-6.188,0.129-9.284-0.043
		c-0.001-0.148-0.065-0.288-0.177-0.383c2.37-0.948,4.813-2.138,6.431-3.96c0.256-0.155,0.514-0.31,0.764-0.474
		c0.287-0.188,0.274-0.518,0.12-0.735c0.212-0.36,0.394-0.74,0.541-1.145c0.129-0.052,0.256-0.107,0.385-0.16
		c-0.076,0.12-0.157,0.23-0.229,0.356c-0.218,0.379,0.138,0.854,0.564,0.733c1.425-0.396,2.557-1.094,3.65-2.069
		c1.761-0.723,3.663-1.241,5.247-2.229c0.297,0.13,0.721-0.011,0.721-0.433v-0.068c0.001,0,0.002,0,0.002,0
		c0.094-0.045,0.178-0.1,0.27-0.146c0.015,0.237,0.172,0.464,0.478,0.464c0.324,0,0.485-0.252,0.484-0.502
		c0.004,0,0.01,0.002,0.016,0.002c0.216,0,0.353-0.115,0.424-0.265c0.103-0.032,0.196-0.102,0.258-0.232
		c0.047-0.1,0.082-0.203,0.122-0.307c0.168,0.085,0.376,0.08,0.55-0.093c0.186-0.186,0.377-0.364,0.564-0.549
		c0.103,0.112,0.246,0.19,0.427,0.175c-0.172,0.295-0.042,0.771,0.405,0.771c0.505,0,0.611-0.608,0.327-0.874
		c0.572-0.4,1.117-0.826,1.66-1.256c-0.007,0.058-0.011,0.115-0.018,0.174c-0.107,0.12-0.218,0.229-0.323,0.353
		c-0.257,0.3-0.102,0.675,0.163,0.81c-0.159,0.266-0.308,0.538-0.446,0.817c-0.037-0.009-0.07-0.023-0.114-0.023
		c-0.533,0-0.619,0.677-0.27,0.914c-0.082,0.227-0.153,0.462-0.212,0.703c-0.109,0.449,0.342,0.751,0.734,0.564
		c0.094-0.044,0.179-0.098,0.27-0.145c-0.325,0.577-0.658,1.146-0.953,1.711c-0.043,0.082-0.055,0.163-0.053,0.242
		c-1.343-0.016-2.683-0.064-4.016-0.24c-0.639-0.084-0.63,0.917,0,1c1.907,0.251,3.83,0.25,5.75,0.25
		c0.228,0,0.371-0.127,0.438-0.288c0.446-0.175,0.386-0.962-0.188-0.962c-0.208,0-0.342,0.108-0.415,0.25
		c-0.058-0.001-0.113-0.001-0.169-0.001c-0.027-0.05-0.071-0.088-0.113-0.127c1.012-1.075,1.933-2.193,2.755-3.411
		c0.056,0.024,0.118,0.039,0.192,0.039c0.495,0,0.606-0.585,0.341-0.859c0.03-0.048,0.061-0.091,0.091-0.138
		c0.113-0.188,0.095-0.36,0.009-0.491c0.189-0.061,0.371-0.137,0.553-0.211c-0.017,1.289-0.095,2.571-0.476,3.816
		c-0.19,0.618,0.776,0.881,0.964,0.266c0.4-1.306,0.489-2.656,0.51-4.011c0.86-0.264,1.708-0.65,2.362-1.269
		c0.104-0.099,0.143-0.21,0.147-0.319c0.094,0,0.188-0.008,0.279-0.03V121.295z M45.292,104.001h-3.758
		c0.159-0.176,0.323-0.351,0.486-0.523c1.069,0.39,2.207,0.324,3.34,0.277C45.324,103.833,45.302,103.917,45.292,104.001
		 M113.665,117.173L113.665,117.173c0.099-0.213,0.167-0.418,0.217-0.623c0.202,0.412,0.4,0.827,0.572,1.252
		c-0.038,0.031-0.08,0.057-0.109,0.097c-0.199-0.125-0.402-0.242-0.611-0.349v-0.131C113.733,117.32,113.704,117.24,113.665,117.173
		 M111.927,116.98c-0.11-0.228-0.393-0.344-0.625-0.275c0.029-0.311,0.057-0.62,0.083-0.931c0.082,0.087,0.196,0.145,0.348,0.145
		c0.645,0,0.645-1,0-1c-0.116,0-0.203,0.04-0.278,0.093c0.028-0.312,0.055-0.623,0.084-0.936c0.006-0.004,0.011-0.01,0.018-0.013
		c0.293,0.721,0.752,1.327,1.417,1.754c-0.008,0.298-0.038,0.564-0.172,0.85c-0.085,0.181-0.053,0.35,0.03,0.487
		c-0.005,0.008-0.014,0.013-0.019,0.021C112.531,117.086,112.235,117.021,111.927,116.98 M114.379,119.954
		c-0.061-0.018-0.123-0.005-0.185,0.002c-0.418-0.189-0.787-0.384-1.046-0.577c0.348-0.132,0.467-0.641,0.087-0.891
		c-0.146-0.097-0.287-0.192-0.424-0.291c0.758,0.267,1.469,0.701,2.159,1.197c0.023,0.025,0.052,0.046,0.075,0.071
		c0.089,0.304,0.154,0.621,0.231,0.932c-0.118-0.044-0.235-0.088-0.351-0.134C114.829,120.072,114.626,119.919,114.379,119.954
		 M121.449,123.33c-0.033-0.114-0.103-0.219-0.2-0.292c0.942,0.286,1.898,0.524,2.847,0.776
		C123.202,123.663,122.306,123.521,121.449,123.33 M134.485,128.238c-0.296-0.159-0.572,0.002-0.69,0.232
		c-0.761-0.66-1.52-1.324-2.29-1.957c0.204-0.033,0.408-0.066,0.61-0.113c0.11-0.024,0.184-0.078,0.242-0.145
		c0.666,0.365,1.314,0.765,1.937,1.206c-0.097,0.239-0.022,0.553,0.231,0.665c0.138,0.312,0.583,0.355,0.814,0.139
		c0.327,0.27,0.644,0.557,0.954,0.85C135.665,128.826,135.05,128.539,134.485,128.238 M140.092,132.804
		c-1.099-0.444-2.133-1.062-3.131-1.774c0.007-0.037,0.022-0.068,0.022-0.11v-0.409c1.274,0.589,2.534,1.255,3.527,2.126
		c-0.007,0.073-0.004,0.15,0.026,0.229C140.388,132.85,140.24,132.83,140.092,132.804"/>
	<path d="M120.233,115.919v0.25c0,0.646,1,0.646,1,0v-0.25C121.233,115.273,120.233,115.273,120.233,115.919"/>
	<path d="M112.983,112.419c-0.645,0-0.645,1,0,1S113.628,112.419,112.983,112.419"/>
	<polygon points="0.733,134.919 39.233,112.419 110.233,111.419 146.483,135.169 	"/>
	<path d="M-0.314,103.527c0,0,1,11,19,9s16-13,22-10s34,12,48,9s28-12,36-6s23,5,23,3s0,27,0,27h-148V103.527z"/>
</g>
</svg>
