<?xml version="1.0" encoding="utf-8"?>
<!-- Generator: Adobe Illustrator 16.2.0, SVG Export Plug-In . SVG Version: 6.00 Build 0)  -->
<!DOCTYPE svg PUBLIC "-//W3C//DTD SVG 1.1//EN" "http://www.w3.org/Graphics/SVG/1.1/DTD/svg11.dtd">
<svg version="1.1" id="Layer_1" xmlns="http://www.w3.org/2000/svg" xmlns:xlink="http://www.w3.org/1999/xlink" x="0px" y="0px"
	 width="173px" height="159px" viewBox="0 0 173 159" enable-background="new 0 0 173 159" xml:space="preserve">
<g>
	<path fill="none" stroke="#000000" stroke-miterlimit="10" d="M77.095,134.304c0,0-4.236-0.847-1.694-7.625"/>
	<path fill="none" stroke="#000000" stroke-miterlimit="10" d="M76.248,124.983c0,0-5.931-1.694-4.237-8.473"/>
	<path fill="none" stroke="#000000" stroke-miterlimit="10" d="M72.011,113.969c0,0-8.472-2.542-7.625-9.32"/>
	<path fill="none" stroke="#000000" stroke-miterlimit="10" d="M72.858,106.344c0,0,2.542-10.168-5.931-14.404"/>
	<path fill="none" stroke="#000000" stroke-miterlimit="10" d="M71.164,92.787c0,0,8.473-4.236,1.694-13.557"/>
	<path fill="none" stroke="#000000" stroke-miterlimit="10" d="M63.539,101.26c0,0-11.015-8.473-9.32-16.945"/>
	<path fill="none" stroke="#000000" stroke-miterlimit="10" d="M67.775,78.383c0,0,12.709-2.542,4.236-15.251"/>
	<path fill="none" stroke="#000000" stroke-miterlimit="10" d="M55.913,83.467c0,0-5.083-3.39-2.542-11.015"/>
	<path fill="none" stroke="#000000" stroke-miterlimit="10" d="M56.76,74.146c0,0-5.931-4.236-0.847-9.32"/>
	<path fill="none" stroke="#000000" stroke-miterlimit="10" d="M68.622,63.132c0,0,2.542-5.083-2.542-7.625"/>
	<path fill="none" stroke="#000000" stroke-miterlimit="10" d="M59.302,63.979c0,0-11.015,2.543-11.862-8.473"/>
	<path fill="none" stroke="#000000" stroke-miterlimit="10" d="M63.539,55.506c0,0,6.778-4.235-0.848-11.861"/>
	<path fill="none" stroke="#000000" stroke-miterlimit="10" d="M49.135,55.506c0,0-5.931-0.847-5.931-7.625s5.931-5.932,5.931-5.932
		"/>
	<path fill="none" stroke="#000000" stroke-miterlimit="10" d="M60.149,43.645c0,0,9.319,0,3.389-10.167"/>
	<path fill="none" stroke="#000000" stroke-miterlimit="10" d="M53.371,25.004c0,0,9.32-2.541,7.626,5.931"/>
	<path fill="none" stroke="#000000" stroke-miterlimit="10" d="M61.844,38.561c0,0,4.236-7.625-6.778-9.32"/>
	<path fill="none" stroke="#000000" stroke-miterlimit="10" d="M49.982,39.407c0,0-9.32-0.847-6.778-10.167"/>
	<path fill="none" stroke="#000000" stroke-miterlimit="10" d="M36.425,19.073c0,0-3.389,11.862,4.236,12.709"/>
	<path fill="none" stroke="#000000" stroke-miterlimit="10" d="M33.036,4.67c0,0,14.404-3.389,13.557,8.473"/>
	<path fill="none" stroke="#000000" stroke-miterlimit="10" d="M42.356,13.989c0,0,7.626-4.236,9.32,6.779"/>
	<path fill="none" stroke="#000000" stroke-miterlimit="10" d="M46.593,19.921c1.694-0.848,7.625,0.847,7.625,6.777"/>
	<path fill="none" stroke="#000000" stroke-miterlimit="10" d="M35.578,25.182c0,0-8.473,3.39-11.862-5.084"/>
	<path fill="none" stroke="#000000" stroke-miterlimit="10" d="M34.731,6.363c0,0-6.778-9.319-18.641-3.389"/>
	<path fill="none" stroke="#000000" stroke-miterlimit="10" d="M18.632,3.822c0,0-14.404-5.083-16.098,2.542"/>
	<path fill="none" stroke="#000000" stroke-miterlimit="10" d="M26.258,17.448c0,0-11.015,8.473-13.557,3.389"/>
	<path fill="none" stroke="#000000" stroke-miterlimit="10" d="M27.105,5.517c0,0-12.709-2.542-11.862,5.931"/>
	<path fill="none" stroke="#000000" stroke-miterlimit="10" d="M55.065,41.949c0,0-10.168,4.237-1.694,11.016"/>
	<path fill="none" stroke="#000000" stroke-miterlimit="10" d="M60.997,53.813c0,0-7.626-2.542-7.626,2.541"/>
	<path fill="none" stroke="#000000" stroke-miterlimit="10" d="M61.844,61.438c0,0,4.236,0,5.931,5.931"/>
	<path fill="none" stroke="#000000" stroke-miterlimit="10" d="M60.997,73.299c0,0-5.084,0.848-4.237,5.084"/>
	<path fill="none" stroke="#000000" stroke-miterlimit="10" d="M5.923,5.517c0,0-6.778,0.847-4.236,6.778
		c2.542,5.931,5.084,0.847,7.625-1.695"/>
	<path fill="none" stroke="#000000" stroke-miterlimit="10" d="M14.396,19.921c0,0-10.168,5.083-11.015-4.237"/>
	<path fill="none" stroke="#000000" stroke-miterlimit="10" d="M36.425,30.088c0,0,1.694,7.625,6.778,7.625"/>
	<path fill="none" stroke="#000000" stroke-miterlimit="10" d="M72.858,124.137c0,0-0.848,4.235,1.694,5.931"/>
	<path fill="none" stroke="#000000" stroke-miterlimit="10" d="M73.706,107.19c0,0,4.237,2.542,1.695,9.32"/>
	<path fill="none" stroke="#000000" stroke-miterlimit="10" d="M73.706,113.969c0,0,5.084,2.542,5.084,10.167"/>
	<path fill="none" stroke="#000000" stroke-miterlimit="10" d="M77.942,133.457c0,0,0.847-5.084,0-11.862"/>
	<path fill="none" stroke="#000000" stroke-miterlimit="10" d="M76.379,135.793c0,0,9.927,1.489,20.35,10.423
		c10.423,8.936,22.336,6.453,24.321,4.468c1.985-1.986,5.459-4.965,5.459-4.965l8.935-2.48c0,0,13.402-8.438,0-8.935
		c-13.401-0.496-8.935,5.46-9.927,8.935c-1.986-3.475-8.438-8.438-8.438-8.438s-2.978-1.985-6.949,0
		c-3.97,1.986-6.948,7.446-17.868,1.986c-2.978-1.489-7.942-2.482-7.942-2.482S75.883,134.304,76.379,135.793z"/>
	<path fill="none" stroke="#000000" stroke-miterlimit="10" d="M112.116,134.304c0,0-3.474-3.971,0.993-8.438"/>
	<path fill="none" stroke="#000000" stroke-miterlimit="10" d="M114.102,134.304c0,0,3.475-3.971-0.993-8.438"/>
	<path fill="none" stroke="#000000" stroke-miterlimit="10" d="M127.503,143.734c0,0,2.978-8.438,6.453-8.438
		C137.43,135.297,132.466,142.741,127.503,143.734z"/>
	<polyline fill="none" stroke="#000000" stroke-miterlimit="10" points="115.59,152.669 122.043,157.632 104.175,157.632 
		111.124,152.669 	"/>
</g>
</svg>
