<?xml version="1.0" encoding="utf-8"?>
<!-- Generator: Adobe Illustrator 16.2.0, SVG Export Plug-In . SVG Version: 6.00 Build 0)  -->
<!DOCTYPE svg PUBLIC "-//W3C//DTD SVG 1.1//EN" "http://www.w3.org/Graphics/SVG/1.1/DTD/svg11.dtd">
<svg version="1.1" id="Layer_1" xmlns="http://www.w3.org/2000/svg" xmlns:xlink="http://www.w3.org/1999/xlink" x="0px" y="0px"
	 width="173px" height="164px" viewBox="0 0 173 164" enable-background="new 0 0 173 164" xml:space="preserve">
<g>
	<path fill="none" stroke="#000000" stroke-miterlimit="10" d="M120.189,128c-1-22,0-66,0-66"/>
	<path fill="none" stroke="#000000" stroke-miterlimit="10" d="M117.189,59c4,2,3,1.323,3,3.5c0,4.144-12.536,7.5-28,7.5
		s-28-3.356-28-7.5c0-1.752,1.243-3.224,5-4.5"/>
	<path fill="none" stroke="#000000" stroke-miterlimit="10" d="M74.189,56c4.118-0.638,12.9-1,18-1c0,0,8,0,9,1"/>
	<path fill="none" stroke="#000000" stroke-miterlimit="10" d="M111.189,57c0,0-1-1-3-1"/>
	<path fill="none" stroke="#000000" stroke-miterlimit="10" d="M119.189,79.5c0,4.144-12.088,7.5-27,7.5s-27-3.356-27-7.5"/>
	<path fill="none" stroke="#000000" stroke-miterlimit="10" d="M56.189,152l-45.251,1c-5.384,0-9.749-10.073-9.749-22.5
		c0-12.426,4.365-22.5,9.749-22.5l40.251-1"/>
	<path fill="none" stroke="#000000" stroke-miterlimit="10" d="M119.189,128c0,4.144-12.088,7.5-27,7.5
		c-5.55,0-10.71-0.465-15-1.263"/>
	<line fill="none" stroke="#000000" stroke-miterlimit="10" x1="64.189" y1="62.5" x2="65.189" y2="104"/>
	<path fill="none" stroke="#000000" stroke-miterlimit="10" d="M66.189,149c0,0-8-26-4-37c3-9,7,0,7,0s4,14,3,25"/>
	<path fill="none" stroke="#000000" stroke-miterlimit="10" d="M76.189,139c0,0,1-31-9-34c-6-1-10-1-12,0s-4,2-2,6s-5-1-1,8
		s-13-6-13,3c1,4,10,2,8,6s-14-1-17,6s20-1,20,4s-4,3-3,6s5,2,6,3s-2,5,6,4c2,0-2,10,5,11s12,2,30-1s35-1,39-2s13-8,1-12s-17,0-24-4
		s-25-3-28-2S76.189,139,76.189,139z"/>
	<path fill="none" stroke="#000000" stroke-miterlimit="10" d="M151.189,154c-5,0-5,0-8,3s2,2,6,2s10-2,7-4S156.189,154,151.189,154
		z"/>
	<polyline fill="none" stroke="#000000" stroke-miterlimit="10" points="82.189,69 59.189,35 58.389,34 47.189,20 45.189,21 
		53.189,36 53.907,37 76.189,68 	"/>
	<path fill="none" stroke="#000000" stroke-miterlimit="10" d="M53.189,37c0,0,4.444,0,5-4"/>
	<path fill="none" stroke="#000000" stroke-miterlimit="10" d="M46.189,21c0,0-17,0-17-20c4,5,7,8,11,9s8,8,7,11H46.189z"/>
	<polyline fill="none" stroke="#000000" stroke-miterlimit="10" points="103.04,67 112.411,37.752 112.703,36.504 116.791,19.049 
		114.769,18.095 107.916,33.652 107.575,34.834 97.189,69 	"/>
	<path fill="none" stroke="#000000" stroke-miterlimit="10" d="M107.131,34.271c0,0,2.747,3.494,6.235,1.46"/>
	<polyline fill="none" stroke="#000000" stroke-miterlimit="10" points="107.052,70 122.862,50.553 123.588,49.496 133.749,34.728 
		132.214,33.103 120.168,45.098 119.419,46.075 101.074,70 	"/>
	<path fill="none" stroke="#000000" stroke-miterlimit="10" d="M119.211,45.387c0,0,1.286,4.255,5.275,3.629"/>
	<path fill="none" stroke="#000000" stroke-miterlimit="10" d="M114.769,18.095c0,0-1.58-11.095,8.42-15.095
		c-2,6-0.796,13.098-6.398,16.049L115.189,19"/>
	<path fill="none" stroke="#000000" stroke-miterlimit="10" d="M132.213,33.103c0,0,2.976-11.103,9.976-12.103
		c-3,6-0.881,9.453-8.44,13.728"/>
</g>
</svg>
