<?xml version="1.0" encoding="utf-8"?>
<!-- Generator: Adobe Illustrator 16.2.0, SVG Export Plug-In . SVG Version: 6.00 Build 0)  -->
<!DOCTYPE svg PUBLIC "-//W3C//DTD SVG 1.1//EN" "http://www.w3.org/Graphics/SVG/1.1/DTD/svg11.dtd">
<svg version="1.1" id="Layer_1" xmlns="http://www.w3.org/2000/svg" xmlns:xlink="http://www.w3.org/1999/xlink" x="0px" y="0px"
	 width="173px" height="75px" viewBox="0 0 173 75" enable-background="new 0 0 173 75" xml:space="preserve">
<g>
	<circle fill="none" stroke="#000000" stroke-miterlimit="10" cx="22.5" cy="10.276" r="9.052"/>
	<line fill="none" stroke="#000000" stroke-miterlimit="10" x1="22.5" y1="19.33" x2="22.5" y2="54.407"/>
	<polyline fill="none" stroke="#000000" stroke-miterlimit="10" points="36.079,74.776 22.007,52.293 8.92,74.776 	"/>
	<line fill="none" stroke="#000000" stroke-miterlimit="10" x1="44" y1="47.618" x2="22.007" y2="29.514"/>
	<line fill="none" stroke="#000000" stroke-miterlimit="10" x1="1" y1="47.618" x2="22.993" y2="29.514"/>
	<circle fill="none" stroke="#000000" stroke-miterlimit="10" cx="65.5" cy="10.276" r="9.052"/>
	<line fill="none" stroke="#000000" stroke-miterlimit="10" x1="65.5" y1="19.33" x2="65.5" y2="54.407"/>
	<polyline fill="none" stroke="#000000" stroke-miterlimit="10" points="79.079,74.776 65.007,52.293 51.92,74.776 	"/>
	<line fill="none" stroke="#000000" stroke-miterlimit="10" x1="87" y1="47.618" x2="65.007" y2="29.514"/>
	<line fill="none" stroke="#000000" stroke-miterlimit="10" x1="44" y1="47.618" x2="65.993" y2="29.514"/>
	<circle fill="none" stroke="#000000" stroke-miterlimit="10" cx="108.5" cy="10.276" r="9.052"/>
	<line fill="none" stroke="#000000" stroke-miterlimit="10" x1="108.5" y1="19.33" x2="108.5" y2="54.407"/>
	<polyline fill="none" stroke="#000000" stroke-miterlimit="10" points="122.079,74.776 108.007,52.293 94.92,74.776 	"/>
	<line fill="none" stroke="#000000" stroke-miterlimit="10" x1="130" y1="47.618" x2="108.007" y2="29.514"/>
	<line fill="none" stroke="#000000" stroke-miterlimit="10" x1="87" y1="47.618" x2="108.993" y2="29.514"/>
	<circle fill="none" stroke="#000000" stroke-miterlimit="10" cx="151.5" cy="10.276" r="9.052"/>
	<line fill="none" stroke="#000000" stroke-miterlimit="10" x1="151.5" y1="19.33" x2="151.5" y2="54.407"/>
	<polyline fill="none" stroke="#000000" stroke-miterlimit="10" points="165.079,74.776 151.007,52.293 137.92,74.776 	"/>
	<line fill="none" stroke="#000000" stroke-miterlimit="10" x1="173" y1="47.618" x2="151.007" y2="29.514"/>
	<line fill="none" stroke="#000000" stroke-miterlimit="10" x1="130" y1="47.618" x2="151.993" y2="29.514"/>
</g>
</svg>
