<?xml version="1.0" encoding="utf-8"?>
<!-- Generator: Adobe Illustrator 16.2.0, SVG Export Plug-In . SVG Version: 6.00 Build 0)  -->
<!DOCTYPE svg PUBLIC "-//W3C//DTD SVG 1.1//EN" "http://www.w3.org/Graphics/SVG/1.1/DTD/svg11.dtd">
<svg version="1.1" id="Layer_1" xmlns="http://www.w3.org/2000/svg" xmlns:xlink="http://www.w3.org/1999/xlink" x="0px" y="0px"
	 width="173px" height="127px" viewBox="0 0 173 127" enable-background="new 0 0 173 127" xml:space="preserve">
<g>
	<path fill="none" stroke="#000000" stroke-miterlimit="10" d="M120.353,93.743c0,0,27.179-14.181,28.361-37.814
		c1.182-23.634,1.182-18.907,1.182-18.907s-3.546-27.18-23.634-28.36c-20.09-1.183-21.271,15.361-21.271,22.451
		c0,7.091,8.272,29.543,22.452,28.361"/>
	<path fill="none" stroke="#000000" stroke-miterlimit="10" d="M119.171,19.296c0,0,21.27,16.544,16.544,33.088"/>
	<path fill="none" stroke="#000000" stroke-miterlimit="10" d="M116.807,42.93c0,0,20.089,0,18.908,14.181
		c-1.182,14.181-8.272,15.362-14.181,15.362c-5.909,0-10.635,3.545-11.818,4.728c-1.181,1.182-5.908,4.727-2.364-8.272"/>
	<path fill="none" stroke="#000000" stroke-miterlimit="10" d="M94.354,51.202c-0.316-2.782-0.548-9.918-1.182-11.816
		c-2.363-7.091-1.181-21.271,5.909-27.18c0,0,12.999-14.182,30.725-10.637c17.725,3.547,28.361,18.908,27.179,29.543
		c-1.182,10.636,2.364,27.18-8.272,44.905c0,0-21.271,28.361-30.725,41.361c-9.453,12.998-29.542,9.453-25.997-8.272
		c3.228-16.14,1.181-17.726,2.363-31.906"/>
	<line fill="none" stroke="#000000" stroke-miterlimit="10" x1="117.989" y1="64.2" x2="1" y2="1.569"/>
	<line fill="none" stroke="#000000" stroke-miterlimit="10" x1="117.989" y1="64.2" x2="1" y2="126.832"/>
	<rect x="100.263" y="55.929" width="1.182" height="16.544"/>
	<rect x="94.355" y="52.385" width="1.182" height="23.634"/>
	<rect x="78.992" y="44.112" width="1.182" height="40.178"/>
	<rect x="73.084" y="40.565" width="1.182" height="47.27"/>
	<rect x="57.721" y="32.294" width="1.182" height="63.813"/>
	<rect x="51.813" y="28.749" width="1.182" height="70.903"/>
	<rect x="36.45" y="20.478" width="1.182" height="87.447"/>
	<rect x="30.542" y="18.113" width="1.182" height="92.174"/>
	<rect x="15.179" y="9.843" width="1.182" height="108.718"/>
	<rect x="9.271" y="6.297" width="1.182" height="115.808"/>
</g>
</svg>
