<?xml version="1.0" encoding="utf-8"?>
<!-- Generator: Adobe Illustrator 16.2.0, SVG Export Plug-In . SVG Version: 6.00 Build 0)  -->
<!DOCTYPE svg PUBLIC "-//W3C//DTD SVG 1.1//EN" "http://www.w3.org/Graphics/SVG/1.1/DTD/svg11.dtd">
<svg version="1.1" id="Layer_1" xmlns="http://www.w3.org/2000/svg" xmlns:xlink="http://www.w3.org/1999/xlink" x="0px" y="0px"
	 width="173px" height="160px" viewBox="0 0 173 160" enable-background="new 0 0 173 160" xml:space="preserve">
<g>
	<g>
		<defs>
			<polygon id="SVGID_24_" points="175.446,108 -0.554,71 -0.554,45 175.446,82 			"/>
		</defs>
		<clipPath id="SVGID_2_">
			<use xlink:href="#SVGID_24_"  overflow="visible"/>
		</clipPath>
		<g clip-path="url(#SVGID_2_)">
			<g>
				<path fill="none" stroke="#000000" stroke-miterlimit="10" d="M-3.17,64.993c0,0,1.314,45.229,2.684,51.688"/>
				<line fill="none" stroke="#000000" stroke-miterlimit="10" x1="-4.332" y1="46.028" x2="4.957" y2="116.682"/>
				<path fill="none" stroke="#000000" stroke-miterlimit="10" d="M3.622,75.047"/>
				<line fill="none" stroke="#000000" stroke-miterlimit="10" x1="4.992" y1="113.811" x2="-1.592" y2="46.028"/>
				<path fill="none" stroke="#000000" stroke-miterlimit="10" d="M9.065,116.682c0,0-4.942-64.191,0.536-70.653"/>
				<path fill="none" stroke="#000000" stroke-miterlimit="10" d="M6.118,46.028c0,0,11.201,62.397,11.201,72.09"/>
				<path fill="none" stroke="#000000" stroke-miterlimit="10" d="M8.878,46.91c0,0,11.201,62.397,11.201,72.09"/>
				<path fill="none" stroke="#000000" stroke-miterlimit="10" d="M10.677,46.91c0,0,11.201,62.397,11.201,72.09"/>
				<path fill="none" stroke="#000000" stroke-miterlimit="10" d="M2.635,46.028c0,0,10.575,67.782,13.314,71.013"/>
				<line fill="none" stroke="#000000" stroke-miterlimit="10" x1="14.579" y1="115.963" x2="11.84" y2="105.195"/>
				<line fill="none" stroke="#000000" stroke-miterlimit="10" x1="15.406" y1="46.028" x2="14.579" y2="100.892"/>
				<path fill="none" stroke="#000000" stroke-miterlimit="10" d="M21.427,118.118c0,0-4.108-23.689-5.478-30.152"/>
				<path fill="none" stroke="#000000" stroke-miterlimit="10" d="M13.084,46.028c0,0,9.712,57.732,11.082,70.653"/>
				<line fill="none" stroke="#000000" stroke-miterlimit="10" x1="21.211" y1="0.381" x2="25.536" y2="116.682"/>
				<line fill="none" stroke="#000000" stroke-miterlimit="10" x1="25.536" y1="102.506" x2="36.305" y2="-1.054"/>
				<line fill="none" stroke="#000000" stroke-miterlimit="10" x1="26.905" y1="94.268" x2="29.645" y2="116.682"/>
				<polyline fill="none" stroke="#000000" stroke-miterlimit="10" points="29.645,107.997 30.082,0.381 32.822,0.381 
					31.014,116.682 				"/>
				<line fill="none" stroke="#000000" stroke-miterlimit="10" x1="35.123" y1="116.682" x2="31.661" y2="76.479"/>
				<path fill="none" stroke="#000000" stroke-miterlimit="10" d="M39.231,116.682"/>
				<path fill="none" stroke="#000000" stroke-miterlimit="10" d="M24.694,0.381"/>
				<path fill="none" stroke="#000000" stroke-miterlimit="10" d="M40.601,116.682c0,0,4.992-125.041,4.992-127.787"/>
				<line fill="none" stroke="#000000" stroke-miterlimit="10" x1="44.71" y1="116.682" x2="41.971" y2="99.76"/>
				<line fill="none" stroke="#000000" stroke-miterlimit="10" x1="49.076" y1="-2.49" x2="47.45" y2="116.682"/>
				<polyline fill="none" stroke="#000000" stroke-miterlimit="10" points="57.203,23.354 48.362,94.268 47.45,99.76 				"/>
				<line fill="none" stroke="#000000" stroke-miterlimit="10" x1="50.188" y1="116.682" x2="48.819" y2="97.013"/>
				<path fill="none" stroke="#000000" stroke-miterlimit="10" d="M60.687,34.841c0,0-9.128,54.382-7.759,81.841"/>
				<line fill="none" stroke="#000000" stroke-miterlimit="10" x1="55.667" y1="116.682" x2="54.297" y2="88.776"/>
				<path fill="none" stroke="#000000" stroke-miterlimit="10" d="M53.72,11.868c0,0,4.686,91.084,4.686,104.813"/>
				<path fill="none" stroke="#000000" stroke-miterlimit="10" d="M59.525,50.635c0,0,0.25,63.301,2.99,66.047"/>
				<path fill="none" stroke="#000000" stroke-miterlimit="10" d="M67.652,59.25c0,0-3.768,24.034-6.507,43.256"/>
				<path fill="none" stroke="#000000" stroke-miterlimit="10" d="M65.254,116.682c0,0-2.739-19.669-2.739-25.16"/>
				<path fill="none" stroke="#000000" stroke-miterlimit="10" d="M66.492,67.864c0,0,0.132,43.324,1.501,48.817"/>
				<path fill="none" stroke="#000000" stroke-miterlimit="10" d="M71.136,73.608c0,0-1.773,40.327-0.403,43.073"/>
				<path fill="none" stroke="#000000" stroke-miterlimit="10" d="M80.319,116.682c0-9.69-8.217-38.89-8.217-38.89
					S51.398-12.54,39.788-21.155"/>
				<path fill="none" stroke="#000000" stroke-miterlimit="10" d="M67.652,80.787c0,0,8.558,33.023,11.297,36.254"/>
				<line fill="none" stroke="#000000" stroke-miterlimit="10" x1="76.211" y1="116.682" x2="74.841" y2="107.352"/>
				<polyline fill="none" stroke="#000000" stroke-miterlimit="10" points="77.581,100.892 78.95,78.274 80.424,-18.284 				"/>
				<path fill="none" stroke="#000000" stroke-miterlimit="10" d="M83.059,116.682c0,0-2.74-22.253-4.109-28.716"/>
				<path fill="none" stroke="#000000" stroke-miterlimit="10" d="M85.798,116.682c-1.37-12.923-11.18-136.401-11.18-136.401"/>
				<line fill="none" stroke="#000000" stroke-miterlimit="10" x1="80.424" y1="-18.284" x2="88.538" y2="116.682"/>
				<line fill="none" stroke="#000000" stroke-miterlimit="10" x1="88.538" y1="110.742" x2="94.356" y2="-16.848"/>
				<line fill="none" stroke="#000000" stroke-miterlimit="10" x1="89.907" y1="91.521" x2="91.277" y2="116.682"/>
				<path fill="none" stroke="#000000" stroke-miterlimit="10" d="M98.125,116.682l-1.37-30.652c0,0-0.076-9.55,1.085-15.292"/>
				<line fill="none" stroke="#000000" stroke-miterlimit="10" x1="99" y1="-16.848" x2="102.233" y2="116.682"/>
				<line fill="none" stroke="#000000" stroke-miterlimit="10" x1="100.864" y1="78.342" x2="99.494" y2="94.82"/>
				<path fill="none" stroke="#000000" stroke-miterlimit="10" d="M103.603,116.682c0,0,1.203-128.799,1.203-132.094"/>
				<line fill="none" stroke="#000000" stroke-miterlimit="10" x1="107.711" y1="116.682" x2="104.973" y2="98.112"/>
				<line fill="none" stroke="#000000" stroke-miterlimit="10" x1="109.45" y1="-15.412" x2="110.451" y2="117.723"/>
				<polyline fill="none" stroke="#000000" stroke-miterlimit="10" points="116.416,-13.977 111.364,91.521 110.451,98.112 				"/>
				<line fill="none" stroke="#000000" stroke-miterlimit="10" x1="104.878" y1="-16" x2="105.879" y2="117.135"/>
				<polyline fill="none" stroke="#000000" stroke-miterlimit="10" points="111.844,-14.564 106.792,90.934 105.879,97.524 				"/>
				<line fill="none" stroke="#000000" stroke-miterlimit="10" x1="113.19" y1="117.177" x2="111.82" y2="94.82"/>
				<path fill="none" stroke="#000000" stroke-miterlimit="10" d="M123.382-12.54c0,0-8.822,96.763-7.453,129.717"/>
				<path fill="none" stroke="#000000" stroke-miterlimit="10" d="M120.475-13c0,0-8.822,96.763-7.453,129.717"/>
				<line fill="none" stroke="#000000" stroke-miterlimit="10" x1="118.669" y1="117.177" x2="117.299" y2="84.93"/>
				<path fill="none" stroke="#000000" stroke-miterlimit="10" d="M118.738,59.25c0,0,2.67,41.45,2.67,57.927"/>
				<path fill="none" stroke="#000000" stroke-miterlimit="10" d="M123.382-5.361c0,0-0.605,119.237,2.134,122.538"/>
				<path fill="none" stroke="#000000" stroke-miterlimit="10" d="M132.67-11.105c0,0-5.784,89.447-8.524,112.514"/>
				<path fill="none" stroke="#000000" stroke-miterlimit="10" d="M135.104,117.723c0,0,2.211-125.171,2.211-128.828"/>
				<path fill="none" stroke="#000000" stroke-miterlimit="10" d="M136.667,117c0,0,2.21-125.171,2.21-128.828"/>
				<line fill="none" stroke="#000000" stroke-miterlimit="10" x1="139.212" y1="117.27" x2="136.473" y2="97.93"/>
				<line fill="none" stroke="#000000" stroke-miterlimit="10" x1="137.314" y1="27.662" x2="141.952" y2="117.723"/>
				<polyline fill="none" stroke="#000000" stroke-miterlimit="10" points="150.086,33.404 142.865,90.604 141.952,97.93 				"/>
				<line fill="none" stroke="#000000" stroke-miterlimit="10" x1="144.691" y1="117.27" x2="143.321" y2="94.268"/>
				<path fill="none" stroke="#000000" stroke-miterlimit="10" d="M154.73,39.148c0.646-1.971-8.77,38.828-7.299,78.121"/>
				<line fill="none" stroke="#000000" stroke-miterlimit="10" x1="150.169" y1="117.27" x2="148.8" y2="83.284"/>
				<path fill="none" stroke="#000000" stroke-miterlimit="10" d="M151.247,60.686c0,0,1.662,38.277,1.662,56.584"/>
				<path fill="none" stroke="#000000" stroke-miterlimit="10" d="M153.569,47.764c0,0,0.709,65.846,3.449,69.506"/>
				<path fill="none" stroke="#000000" stroke-miterlimit="10" d="M161.696,43.456c0,0-3.309,32.508-6.048,58.138"/>
				<path fill="none" stroke="#000000" stroke-miterlimit="10" d="M128.256,117.177c0,0-2.739-22.356-2.739-28.95"/>
				<path fill="none" stroke="#000000" stroke-miterlimit="10" d="M129.187,43.456c0,0,0.439,67.126,1.808,73.721"/>
				<path fill="none" stroke="#000000" stroke-miterlimit="10" d="M131.509,14.74c0,0,0.855,99.136,2.225,102.437"/>
				<path fill="none" stroke="#000000" stroke-miterlimit="10" d="M133.653,14.563c0,0,0.855,99.136,2.225,102.437"/>
				<path fill="none" stroke="#000000" stroke-miterlimit="10" d="M163.653,16.563c0,0,0.855,99.136,2.225,102.437"/>
				<path fill="none" stroke="#000000" stroke-miterlimit="10" d="M161.653,16.563c0,0,0.855,99.136,2.225,102.437"/>
				<line fill="none" stroke="#000000" stroke-miterlimit="10" x1="159.757" y1="117.723" x2="158.387" y2="73.373"/>
				<line fill="none" stroke="#000000" stroke-miterlimit="10" x1="154.73" y1="47.764" x2="163.866" y2="117.723"/>
				<line fill="none" stroke="#000000" stroke-miterlimit="10" x1="165.179" y1="46.327" x2="161.126" y2="92.451"/>
				<path fill="none" stroke="#000000" stroke-miterlimit="10" d="M165.235,117.723c0,0,4.588-63.273,4.588-67.088"/>
				<line fill="none" stroke="#000000" stroke-miterlimit="10" x1="169.344" y1="116.682" x2="166.604" y2="96.263"/>
				<line fill="none" stroke="#000000" stroke-miterlimit="10" x1="169.823" y1="63.557" x2="172.083" y2="117.723"/>
				<polyline fill="none" stroke="#000000" stroke-miterlimit="10" points="175.628,63.557 172.997,88.631 172.083,96.263 				"/>
				<line fill="none" stroke="#000000" stroke-miterlimit="10" x1="174.822" y1="116.682" x2="173.307" y2="89.402"/>
				<line fill="none" stroke="#000000" stroke-miterlimit="10" x1="72.102" y1="116.682" x2="73.472" y2="102.506"/>
			</g>
			<line fill="none" stroke="#000000" stroke-miterlimit="10" x1="1.474" y1="116.682" x2="0.313" y2="90.838"/>
			<path fill="none" stroke="#000000" stroke-miterlimit="10" d="M10.762,105.195c0,0,0,5.744-1.161,8.615"/>
			<path fill="none" stroke="#000000" stroke-miterlimit="10" d="M21.211,92.273c-4.414-41.842-4.497-41.799-4.645-43.074"/>
			<path fill="none" stroke="#000000" stroke-miterlimit="10" d="M18.889,0.381c0.971,45.654,3.785,46.448-1.161,61.741"/>
			<path fill="none" stroke="#000000" stroke-miterlimit="10" d="M23.533,66.429c0,0,3.483-35.896,3.483-45.945"/>
			<path fill="none" stroke="#000000" stroke-miterlimit="10" d="M24.694,75.043c0,0,3.483-31.587,3.483-37.33"/>
			<path fill="none" stroke="#000000" stroke-miterlimit="10" d="M60.687,64.993c0,0,10.449-80.405,10.449-84.713"/>
			<path fill="none" stroke="#000000" stroke-miterlimit="10" d="M39.788-15.412c0,0,2.322,30.152,3.483,37.331"/>
			<path fill="none" stroke="#000000" stroke-miterlimit="10" d="M38.627-5.361c0,0,1.161,37.331,4.644,44.51"/>
			<path fill="none" stroke="#000000" stroke-miterlimit="10" d="M38.627,6.125c0,0-2.322,7.179-3.483,18.666"/>
			<path fill="none" stroke="#000000" stroke-miterlimit="10" d="M38.627,20.483c0,0-3.483,17.229-5.805,22.973"/>
			<path fill="none" stroke="#000000" stroke-miterlimit="10" d="M33.982,42.02c0,0,1.161,34.46,1.161,43.075
				c0,0,2.322,15.794,2.322,31.587"/>
			<path fill="none" stroke="#000000" stroke-miterlimit="10" d="M36.305,36.277c0,0,3.483,57.432,4.644,58.868"/>
			<path fill="none" stroke="#000000" stroke-miterlimit="10" d="M38.627,27.662c0,0,3.483,22.973,4.644,30.152"/>
			<line fill="none" stroke="#000000" stroke-miterlimit="10" x1="42.11" y1="64.993" x2="37.466" y2="46.327"/>
			<polyline fill="none" stroke="#000000" stroke-miterlimit="10" points="46.754,79.351 44.432,30.533 47.915,1.817 			"/>
			<path fill="none" stroke="#000000" stroke-miterlimit="10" d="M49.076,16.176c0,0,3.483,21.537,3.483,34.459"/>
			<path fill="none" stroke="#000000" stroke-miterlimit="10" d="M42.11,82.224c0,0,3.483,20.101,4.644,22.972"/>
			<path fill="none" stroke="#000000" stroke-miterlimit="10" d="M56.042-41.256c0,0,2.323,54.56,2.323,66.047"/>
			<path fill="none" stroke="#000000" stroke-miterlimit="10" d="M53.72-18.284c0,0-2.322,20.102,0,27.28"/>
			<path fill="none" stroke="#000000" stroke-miterlimit="10" d="M53.72,0.381c2.322-5.742,2.322-15.793,3.483-17.229"/>
			<path fill="none" stroke="#000000" stroke-miterlimit="10" d="M59.525-36.949c0,0,6.966,40.203,8.127,43.074"/>
			<path fill="none" stroke="#000000" stroke-miterlimit="10" d="M65.331-2.49c0,0-6.966,27.281-5.805,33.023"/>
			<path fill="none" stroke="#000000" stroke-miterlimit="10" d="M61.847-18.284c0,0-1.161,18.665-3.483,20.102"/>
			<path fill="none" stroke="#000000" stroke-miterlimit="10" d="M59.525-2.49c0,0,2.322,7.18,2.322,12.923"/>
			<path fill="none" stroke="#000000" stroke-miterlimit="10" d="M61.847,19.047c0,0,1.161,7.18,3.483,8.615"/>
			<path fill="none" stroke="#000000" stroke-miterlimit="10" d="M61.847,59.25c0,0,15.094-38.767,15.094-50.254"/>
			<path fill="none" stroke="#000000" stroke-miterlimit="10" d="M69.975-9.669c0,0,2.322,68.919,0,76.098"/>
			<path fill="none" stroke="#000000" stroke-miterlimit="10" d="M66.492,23.354c0,0,1.161,8.615,1.161,17.23"/>
			<path fill="none" stroke="#000000" stroke-miterlimit="10" d="M72.297,73.608c0,0,5.805-27.281,5.805-38.768"/>
			<path fill="none" stroke="#000000" stroke-miterlimit="10" d="M74.619,85.095c0,0,1.161-22.973,1.161-27.28"/>
			<path fill="none" stroke="#000000" stroke-miterlimit="10" d="M74.619,24.791c0,0-1.161,21.536,1.161,25.844"/>
			<path fill="none" stroke="#000000" stroke-miterlimit="10" d="M71.136,17.611c0,0,2.322-18.665,3.483-28.717"/>
			<line fill="none" stroke="#000000" stroke-miterlimit="10" x1="83.907" y1="-18.284" x2="89.712" y2="29.099"/>
			<path fill="none" stroke="#000000" stroke-miterlimit="10" d="M86.229,3.254c0,0-1.161,15.793-2.322,21.537
				c-0.169,0.835-0.166,2.345-0.037,4.31c0.758,11.522,5.841,38.764,5.841,38.764"/>
			<path fill="none" stroke="#000000" stroke-miterlimit="10" d="M85.068,21.919c2.322,7.18,4.644,22.974,5.805,25.845"/>
			<path fill="none" stroke="#000000" stroke-miterlimit="10" d="M97.839-5.361c0,0-1.161,22.973-4.644,28.716"/>
			<path fill="none" stroke="#000000" stroke-miterlimit="10" d="M100.162,75.043c0,0-4.645-20.101-5.805-30.15l-1.161-7.18"/>
			<path fill="none" stroke="#000000" stroke-miterlimit="10" d="M97.839,56.379c0,0-1.161-33.024-1.161-38.768"/>
			<line fill="none" stroke="#000000" stroke-miterlimit="10" x1="93.195" y1="40.585" x2="96.678" y2="27.662"/>
			<path fill="none" stroke="#000000" stroke-miterlimit="10" d="M144.281-1.054c0,0-3.483,14.357-5.805,35.895"/>
			<line fill="none" stroke="#000000" stroke-miterlimit="10" x1="140.797" y1="-11.105" x2="141.958" y2="11.868"/>
			<path fill="none" stroke="#000000" stroke-miterlimit="10" d="M140.797,19.047c0,0,0,41.639,3.483,53.125"/>
			<path fill="none" stroke="#000000" stroke-miterlimit="10" d="M143.12,10.433c0,0,0,33.023,4.644,43.074"/>
			<path fill="none" stroke="#000000" stroke-miterlimit="10" d="M146.603,16.176c0,0-1.161,14.357,3.483,24.409"/>
			<path fill="none" stroke="#000000" stroke-miterlimit="10" d="M125.704-13.977c0,0,2.322,27.28,3.483,48.817"/>
			<path fill="none" stroke="#000000" stroke-miterlimit="10" d="M123.382,20.483c0,0,4.644,27.28,4.644,34.459"/>
			<path fill="none" stroke="#000000" stroke-miterlimit="10" d="M109.45-5.361c0,0,4.644,31.588,4.644,41.639"/>
			<path fill="none" stroke="#000000" stroke-miterlimit="10" d="M104.806,82.224c0,0,3.483-17.23,4.644-38.768"/>
			<path fill="none" stroke="#000000" stroke-miterlimit="10" d="M104.806-5.361c0,0,2.322,33.023,4.644,41.639"/>
			<path fill="none" stroke="#000000" stroke-miterlimit="10" d="M88.551-16.848c0,0,1.16,34.459,2.322,40.202"/>
			<path fill="none" stroke="#000000" stroke-miterlimit="10" d="M95.517,57.814c0,0-1.161,33.023-3.483,41.638"/>
			<path fill="none" stroke="#000000" stroke-miterlimit="10" d="M95.517,116.682c0,0-2.322-14.357-2.322-20.101"/>
			<path fill="none" stroke="#000000" stroke-miterlimit="10" d="M27.017,21.919c0,0-3.483-18.665-3.483-21.538"/>
			<path fill="none" stroke="#000000" stroke-miterlimit="10" d="M27.017,0.381c0,0,1.161,11.487,0,20.103"/>
		</g>
		<g clip-path="url(#SVGID_2_)">
			<g>
				<line fill="none" stroke="#000000" stroke-miterlimit="10" x1="-6.209" y1="46.028" x2="3.079" y2="116.682"/>
				<path fill="none" stroke="#000000" stroke-miterlimit="10" d="M1.744,75.047"/>
				<line fill="none" stroke="#000000" stroke-miterlimit="10" x1="3.114" y1="113.811" x2="-3.47" y2="46.028"/>
				<path fill="none" stroke="#000000" stroke-miterlimit="10" d="M7.187,116.682c0,0-4.942-64.191,0.536-70.653"/>
				<path fill="none" stroke="#000000" stroke-miterlimit="10" d="M4.24,46.028c0,0,11.201,62.397,11.201,72.09"/>
				<path fill="none" stroke="#000000" stroke-miterlimit="10" d="M0.757,46.028c0,0,10.575,67.782,13.314,71.013"/>
				<path fill="none" stroke="#000000" stroke-miterlimit="10" d="M-1.436,46c0,0,10.575,67.782,13.314,71.013"/>
				<line fill="none" stroke="#000000" stroke-miterlimit="10" x1="12.701" y1="115.963" x2="9.962" y2="105.195"/>
				<line fill="none" stroke="#000000" stroke-miterlimit="10" x1="13.528" y1="46.028" x2="12.701" y2="100.892"/>
				<path fill="none" stroke="#000000" stroke-miterlimit="10" d="M19.549,118.118c0,0-4.108-23.689-5.478-30.152"/>
				<path fill="none" stroke="#000000" stroke-miterlimit="10" d="M11.206,46.028c0,0,9.712,57.732,11.082,70.653"/>
				<line fill="none" stroke="#000000" stroke-miterlimit="10" x1="19.333" y1="0.381" x2="23.658" y2="116.682"/>
				<line fill="none" stroke="#000000" stroke-miterlimit="10" x1="23.658" y1="102.506" x2="34.427" y2="-1.054"/>
				<line fill="none" stroke="#000000" stroke-miterlimit="10" x1="25.027" y1="94.268" x2="27.767" y2="116.682"/>
				<polyline fill="none" stroke="#000000" stroke-miterlimit="10" points="27.767,107.997 28.204,0.381 30.944,0.381 
					29.136,116.682 				"/>
				<line fill="none" stroke="#000000" stroke-miterlimit="10" x1="33.245" y1="116.682" x2="29.783" y2="76.479"/>
				<path fill="none" stroke="#000000" stroke-miterlimit="10" d="M37.354,116.682"/>
				<path fill="none" stroke="#000000" stroke-miterlimit="10" d="M22.816,0.381"/>
				<path fill="none" stroke="#000000" stroke-miterlimit="10" d="M38.723,116.682c0,0,4.992-125.041,4.992-127.787"/>
				<line fill="none" stroke="#000000" stroke-miterlimit="10" x1="42.833" y1="116.682" x2="40.093" y2="99.76"/>
				<line fill="none" stroke="#000000" stroke-miterlimit="10" x1="47.198" y1="-2.49" x2="45.572" y2="116.682"/>
				<polyline fill="none" stroke="#000000" stroke-miterlimit="10" points="55.325,23.354 46.484,94.268 45.572,99.76 				"/>
				<line fill="none" stroke="#000000" stroke-miterlimit="10" x1="48.311" y1="116.682" x2="46.941" y2="97.013"/>
				<path fill="none" stroke="#000000" stroke-miterlimit="10" d="M58.809,34.841c0,0-9.128,54.382-7.759,81.841"/>
				<line fill="none" stroke="#000000" stroke-miterlimit="10" x1="53.789" y1="116.682" x2="52.419" y2="88.776"/>
				<path fill="none" stroke="#000000" stroke-miterlimit="10" d="M51.842,11.868c0,0,4.686,91.084,4.686,104.813"/>
				<path fill="none" stroke="#000000" stroke-miterlimit="10" d="M57.647,50.635c0,0,0.25,63.301,2.99,66.047"/>
				<path fill="none" stroke="#000000" stroke-miterlimit="10" d="M65.774,59.25c0,0-3.768,24.034-6.507,43.256"/>
				<path fill="none" stroke="#000000" stroke-miterlimit="10" d="M63.376,116.682c0,0-2.739-19.669-2.739-25.16"/>
				<path fill="none" stroke="#000000" stroke-miterlimit="10" d="M64.614,67.864c0,0,0.132,43.324,1.501,48.817"/>
				<path fill="none" stroke="#000000" stroke-miterlimit="10" d="M69.258,73.608c0,0-1.773,40.327-0.403,43.073"/>
				<path fill="none" stroke="#000000" stroke-miterlimit="10" d="M78.441,116.682c0-9.69-8.217-38.89-8.217-38.89
					S49.52-12.54,37.91-21.155"/>
				<path fill="none" stroke="#000000" stroke-miterlimit="10" d="M76.41,117c0-9.69-8.217-38.89-8.217-38.89
					S47.488-12.222,35.878-20.837"/>
				<path fill="none" stroke="#000000" stroke-miterlimit="10" d="M73.41,117.837c0-9.69-8.217-38.89-8.217-38.89
					S44.488-11.385,32.878-20"/>
				<path fill="none" stroke="#000000" stroke-miterlimit="10" d="M70.878,118c0-9.69-8.217-38.89-8.217-38.89
					S41.957-11.222,30.346-19.837"/>
				<path fill="none" stroke="#000000" stroke-miterlimit="10" d="M65.774,80.787c0,0,8.558,33.023,11.297,36.254"/>
				<line fill="none" stroke="#000000" stroke-miterlimit="10" x1="74.333" y1="116.682" x2="72.963" y2="107.352"/>
				<polyline fill="none" stroke="#000000" stroke-miterlimit="10" points="75.703,100.892 77.072,78.274 78.546,-18.284 				"/>
				<path fill="none" stroke="#000000" stroke-miterlimit="10" d="M81.181,116.682c0,0-2.74-22.253-4.109-28.716"/>
				<path fill="none" stroke="#000000" stroke-miterlimit="10" d="M83.92,116.682c-1.37-12.923-11.18-136.401-11.18-136.401"/>
				<line fill="none" stroke="#000000" stroke-miterlimit="10" x1="78.546" y1="-18.284" x2="86.66" y2="116.682"/>
				<line fill="none" stroke="#000000" stroke-miterlimit="10" x1="86.66" y1="110.742" x2="92.479" y2="-16.848"/>
				<line fill="none" stroke="#000000" stroke-miterlimit="10" x1="88.029" y1="91.521" x2="89.399" y2="116.682"/>
				<path fill="none" stroke="#000000" stroke-miterlimit="10" d="M96.247,116.682l-1.37-30.652c0,0-0.076-9.55,1.085-15.292"/>
				<line fill="none" stroke="#000000" stroke-miterlimit="10" x1="97.123" y1="-16.848" x2="100.355" y2="116.682"/>
				<line fill="none" stroke="#000000" stroke-miterlimit="10" x1="98.986" y1="78.342" x2="97.616" y2="94.82"/>
				<path fill="none" stroke="#000000" stroke-miterlimit="10" d="M101.725,116.682c0,0,1.203-128.799,1.203-132.094"/>
				<line fill="none" stroke="#000000" stroke-miterlimit="10" x1="105.833" y1="116.682" x2="103.095" y2="98.112"/>
				<line fill="none" stroke="#000000" stroke-miterlimit="10" x1="107.572" y1="-15.412" x2="108.573" y2="117.723"/>
				<polyline fill="none" stroke="#000000" stroke-miterlimit="10" points="114.538,-13.977 109.486,91.521 108.573,98.112 				"/>
				<line fill="none" stroke="#000000" stroke-miterlimit="10" x1="111.312" y1="117.177" x2="109.942" y2="94.82"/>
				<path fill="none" stroke="#000000" stroke-miterlimit="10" d="M121.504-12.54c0,0-8.822,96.763-7.453,129.717"/>
				<line fill="none" stroke="#000000" stroke-miterlimit="10" x1="116.791" y1="117.177" x2="115.421" y2="84.93"/>
				<path fill="none" stroke="#000000" stroke-miterlimit="10" d="M116.86,59.25c0,0,2.67,41.45,2.67,57.927"/>
				<path fill="none" stroke="#000000" stroke-miterlimit="10" d="M121.504-5.361c0,0-0.605,119.237,2.134,122.538"/>
				<path fill="none" stroke="#000000" stroke-miterlimit="10" d="M130.792-11.105c0,0-5.784,89.447-8.524,112.514"/>
				<path fill="none" stroke="#000000" stroke-miterlimit="10" d="M133.226,117.723c0,0,2.21-125.171,2.21-128.828"/>
				<line fill="none" stroke="#000000" stroke-miterlimit="10" x1="137.334" y1="117.27" x2="134.595" y2="97.93"/>
				<line fill="none" stroke="#000000" stroke-miterlimit="10" x1="135.437" y1="27.662" x2="140.074" y2="117.723"/>
				<polyline fill="none" stroke="#000000" stroke-miterlimit="10" points="148.208,33.404 140.987,90.604 140.074,97.93 				"/>
				<line fill="none" stroke="#000000" stroke-miterlimit="10" x1="142.813" y1="117.27" x2="141.443" y2="94.268"/>
				<path fill="none" stroke="#000000" stroke-miterlimit="10" d="M152.852,39.148c0.646-1.971-8.77,38.828-7.299,78.121"/>
				<line fill="none" stroke="#000000" stroke-miterlimit="10" x1="148.291" y1="117.27" x2="146.922" y2="83.284"/>
				<path fill="none" stroke="#000000" stroke-miterlimit="10" d="M149.369,60.686c0,0,1.662,38.277,1.662,56.584"/>
				<path fill="none" stroke="#000000" stroke-miterlimit="10" d="M151.691,47.764c0,0,0.71,65.846,3.449,69.506"/>
				<path fill="none" stroke="#000000" stroke-miterlimit="10" d="M159.818,43.456c0,0-3.309,32.508-6.048,58.138"/>
				<path fill="none" stroke="#000000" stroke-miterlimit="10" d="M126.378,117.177c0,0-2.739-22.356-2.739-28.95"/>
				<path fill="none" stroke="#000000" stroke-miterlimit="10" d="M127.309,43.456c0,0,0.438,67.126,1.808,73.721"/>
				<path fill="none" stroke="#000000" stroke-miterlimit="10" d="M129.631,14.74c0,0,0.855,99.136,2.225,102.437"/>
				<line fill="none" stroke="#000000" stroke-miterlimit="10" x1="157.879" y1="117.723" x2="156.509" y2="73.373"/>
				<line fill="none" stroke="#000000" stroke-miterlimit="10" x1="152.852" y1="47.764" x2="161.988" y2="117.723"/>
				<line fill="none" stroke="#000000" stroke-miterlimit="10" x1="163.301" y1="46.327" x2="159.249" y2="92.451"/>
				<path fill="none" stroke="#000000" stroke-miterlimit="10" d="M163.357,117.723c0,0,4.589-63.273,4.589-67.088"/>
				<line fill="none" stroke="#000000" stroke-miterlimit="10" x1="167.466" y1="116.682" x2="164.727" y2="96.263"/>
				<line fill="none" stroke="#000000" stroke-miterlimit="10" x1="167.945" y1="63.557" x2="170.205" y2="117.723"/>
				<polyline fill="none" stroke="#000000" stroke-miterlimit="10" points="173.75,63.557 171.119,88.631 170.205,96.263 				"/>
				<line fill="none" stroke="#000000" stroke-miterlimit="10" x1="172.944" y1="116.682" x2="171.429" y2="89.402"/>
				<line fill="none" stroke="#000000" stroke-miterlimit="10" x1="70.224" y1="116.682" x2="71.594" y2="102.506"/>
			</g>
			<line fill="none" stroke="#000000" stroke-miterlimit="10" x1="-0.404" y1="116.682" x2="-1.565" y2="90.838"/>
			<path fill="none" stroke="#000000" stroke-miterlimit="10" d="M8.884,105.195c0,0,0,5.744-1.161,8.615"/>
			<path fill="none" stroke="#000000" stroke-miterlimit="10" d="M19.333,92.273c-4.414-41.842-4.497-41.799-4.645-43.074"/>
			<path fill="none" stroke="#000000" stroke-miterlimit="10" d="M17.011,0.381c0.971,45.654,3.785,46.448-1.161,61.741"/>
			<path fill="none" stroke="#000000" stroke-miterlimit="10" d="M21.655,66.429c0,0,3.483-35.896,3.483-45.945"/>
			<path fill="none" stroke="#000000" stroke-miterlimit="10" d="M22.816,75.043c0,0,3.483-31.587,3.483-37.33"/>
			<path fill="none" stroke="#000000" stroke-miterlimit="10" d="M58.809,64.993c0,0,10.449-80.405,10.449-84.713"/>
			<path fill="none" stroke="#000000" stroke-miterlimit="10" d="M37.91-15.412c0,0,2.322,30.152,3.483,37.331"/>
			<path fill="none" stroke="#000000" stroke-miterlimit="10" d="M36.749-5.361c0,0,1.161,37.331,4.644,44.51"/>
			<path fill="none" stroke="#000000" stroke-miterlimit="10" d="M36.749,6.125c0,0-2.322,7.179-3.483,18.666"/>
			<path fill="none" stroke="#000000" stroke-miterlimit="10" d="M36.749,20.483c0,0-3.483,17.229-5.805,22.973"/>
			<path fill="none" stroke="#000000" stroke-miterlimit="10" d="M32.104,42.02c0,0,1.161,34.46,1.161,43.075
				c0,0,2.323,15.794,2.323,31.587"/>
			<path fill="none" stroke="#000000" stroke-miterlimit="10" d="M34.427,36.277c0,0,3.483,57.432,4.644,58.868"/>
			<path fill="none" stroke="#000000" stroke-miterlimit="10" d="M36.749,27.662c0,0,3.483,22.973,4.644,30.152"/>
			<line fill="none" stroke="#000000" stroke-miterlimit="10" x1="40.232" y1="64.993" x2="35.588" y2="46.327"/>
			<polyline fill="none" stroke="#000000" stroke-miterlimit="10" points="44.876,79.351 42.554,30.533 46.037,1.817 			"/>
			<path fill="none" stroke="#000000" stroke-miterlimit="10" d="M47.198,16.176c0,0,3.483,21.537,3.483,34.459"/>
			<path fill="none" stroke="#000000" stroke-miterlimit="10" d="M40.232,82.224c0,0,3.483,20.101,4.644,22.972"/>
			<path fill="none" stroke="#000000" stroke-miterlimit="10" d="M54.164-41.256c0,0,2.322,54.56,2.322,66.047"/>
			<path fill="none" stroke="#000000" stroke-miterlimit="10" d="M51.842-18.284c0,0-2.322,20.102,0,27.28"/>
			<path fill="none" stroke="#000000" stroke-miterlimit="10" d="M51.842,0.381c2.322-5.742,2.322-15.793,3.483-17.229"/>
			<path fill="none" stroke="#000000" stroke-miterlimit="10" d="M57.647-36.949c0,0,6.966,40.203,8.127,43.074"/>
			<path fill="none" stroke="#000000" stroke-miterlimit="10" d="M63.453-2.49c0,0-6.966,27.281-5.805,33.023"/>
			<path fill="none" stroke="#000000" stroke-miterlimit="10" d="M59.969-18.284c0,0-1.161,18.665-3.483,20.102"/>
			<path fill="none" stroke="#000000" stroke-miterlimit="10" d="M57.647-2.49c0,0,2.322,7.18,2.322,12.923"/>
			<path fill="none" stroke="#000000" stroke-miterlimit="10" d="M59.969,19.047c0,0,1.161,7.18,3.483,8.615"/>
			<path fill="none" stroke="#000000" stroke-miterlimit="10" d="M59.969,59.25c0,0,15.094-38.767,15.094-50.254"/>
			<path fill="none" stroke="#000000" stroke-miterlimit="10" d="M68.097-9.669c0,0,2.322,68.919,0,76.098"/>
			<path fill="none" stroke="#000000" stroke-miterlimit="10" d="M64.614,23.354c0,0,1.161,8.615,1.161,17.23"/>
			<path fill="none" stroke="#000000" stroke-miterlimit="10" d="M70.419,73.608c0,0,5.805-27.281,5.805-38.768"/>
			<path fill="none" stroke="#000000" stroke-miterlimit="10" d="M72.741,85.095c0,0,1.161-22.973,1.161-27.28"/>
			<path fill="none" stroke="#000000" stroke-miterlimit="10" d="M72.741,24.791c0,0-1.161,21.536,1.161,25.844"/>
			<path fill="none" stroke="#000000" stroke-miterlimit="10" d="M69.258,17.611c0,0,2.322-18.665,3.483-28.717"/>
			<line fill="none" stroke="#000000" stroke-miterlimit="10" x1="82.029" y1="-18.284" x2="87.834" y2="29.099"/>
			<path fill="none" stroke="#000000" stroke-miterlimit="10" d="M84.351,3.254c0,0-1.161,15.793-2.322,21.537
				c-0.17,0.835-0.166,2.345-0.037,4.31c0.758,11.522,5.841,38.764,5.841,38.764"/>
			<path fill="none" stroke="#000000" stroke-miterlimit="10" d="M83.19,21.919c2.323,7.18,4.644,22.974,5.805,25.845"/>
			<path fill="none" stroke="#000000" stroke-miterlimit="10" d="M95.961-5.361c0,0-1.161,22.973-4.644,28.716"/>
			<path fill="none" stroke="#000000" stroke-miterlimit="10" d="M98.284,75.043c0,0-4.645-20.101-5.805-30.15l-1.161-7.18"/>
			<path fill="none" stroke="#000000" stroke-miterlimit="10" d="M95.961,56.379c0,0-1.161-33.024-1.161-38.768"/>
			<line fill="none" stroke="#000000" stroke-miterlimit="10" x1="91.317" y1="40.585" x2="94.8" y2="27.662"/>
			<path fill="none" stroke="#000000" stroke-miterlimit="10" d="M142.403-1.054c0,0-3.483,14.357-5.805,35.895"/>
			<line fill="none" stroke="#000000" stroke-miterlimit="10" x1="138.919" y1="-11.105" x2="140.081" y2="11.868"/>
			<path fill="none" stroke="#000000" stroke-miterlimit="10" d="M138.919,19.047c0,0,0,41.639,3.483,53.125"/>
			<path fill="none" stroke="#000000" stroke-miterlimit="10" d="M141.242,10.433c0,0,0,33.023,4.644,43.074"/>
			<path fill="none" stroke="#000000" stroke-miterlimit="10" d="M144.725,16.176c0,0-1.161,14.357,3.483,24.409"/>
			<path fill="none" stroke="#000000" stroke-miterlimit="10" d="M123.826-13.977c0,0,2.322,27.28,3.483,48.817"/>
			<path fill="none" stroke="#000000" stroke-miterlimit="10" d="M121.504,20.483c0,0,4.644,27.28,4.644,34.459"/>
			<path fill="none" stroke="#000000" stroke-miterlimit="10" d="M107.572-5.361c0,0,4.644,31.588,4.644,41.639"/>
			<path fill="none" stroke="#000000" stroke-miterlimit="10" d="M102.928,82.224c0,0,3.483-17.23,4.644-38.768"/>
			<path fill="none" stroke="#000000" stroke-miterlimit="10" d="M102.928-5.361c0,0,2.322,33.023,4.644,41.639"/>
			<path fill="none" stroke="#000000" stroke-miterlimit="10" d="M86.673-16.848c0,0,1.16,34.459,2.322,40.202"/>
			<path fill="none" stroke="#000000" stroke-miterlimit="10" d="M93.639,57.814c0,0-1.161,33.023-3.483,41.638"/>
			<path fill="none" stroke="#000000" stroke-miterlimit="10" d="M93.639,116.682c0,0-2.322-14.357-2.322-20.101"/>
			<path fill="none" stroke="#000000" stroke-miterlimit="10" d="M25.139,21.919c0,0-3.483-18.665-3.483-21.538"/>
			<path fill="none" stroke="#000000" stroke-miterlimit="10" d="M25.139,0.381c0,0,1.161,11.487,0,20.103"/>
		</g>
	</g>
	<g>
		<path fill="none" stroke="#231F20" stroke-miterlimit="10" d="M15.446,38c0,0-2-6-3-5s0,7,3,6"/>
		<g>
			<path fill="none" stroke="#231F20" stroke-miterlimit="10" d="M-0.554,43c0,0-1-7,3-8s6,4,6,6s2,0,2,0s-4-10-1-11s7,2,7,2
				s8-5,9,3c0,0,15-1,17-4s0-3-1-6s2-5,3-5s4,0,4,5s3-5,4-14s6-9,7-7s-4,1-4,3c0,0-1,16-3,22c1,5,4,11,0,18c0,0,9-6,11-5s0-2-1-3
				s-1-7,1-7s1-2,4,0c1,0,3-3,5,1c4,3,6,4,6,6s-4,5-5,5s1,3,1,8c2-1,5-3,6-2"/>
			<path fill="none" stroke="#231F20" stroke-miterlimit="10" d="M31.446,48c0,0-3-3-6-1s3-9,3-9s9,0,11-1s4,8,4,8l-6,5v-2
				c0,0,4-4,0-6s-6-1-6,0s0,3,1,4S31.446,48,31.446,48z"/>
			<path fill="none" stroke="#231F20" stroke-miterlimit="10" d="M65.446,58c2,5-2-8-5-10c-3,0-7,2-7,2c-5,2-5,5-5,5"/>
			<path fill="none" stroke="#231F20" stroke-miterlimit="10" d="M69.446,35v6c0,0,5,1,5-1S71.446,34,69.446,35z"/>
			<path fill="none" stroke="#231F20" stroke-miterlimit="10" d="M94.446,49c0,3,0-17,1-18c0.707-0.707,5-11,7-14c0-4,5-8,5-9
				s-3-4-5-4s0,6,0,6s-5,7-6,9s-3,8-5,8c1-6,0-9-3-9s-3,4-3,8c-3-2-3-18-3-20s4-3,1-5s-5,5-4,5s0,3,0,9s1,34,1,34"/>
			<path fill="none" stroke="#231F20" stroke-miterlimit="10" d="M93.446,64c0,0-2-1-3-1c1-9,4-8,4-8L93.446,64z"/>
			<path fill="none" stroke="#231F20" stroke-miterlimit="10" d="M95.446,50l4-4c0,0-4-7-3-10s11-1,12,0s3-4,7,0s4,5,2,8s-2,0-4,0
				s-3,4-3,5s5,2,6,6s7,6,8,7c0,0,3-11,4-12s2-18,5-20c1-2-3-5,1-5c0,0,4-1,3,2s-2,1-2,3c0,0-1,12-2,16s3-9,7-4s-1,6-2,9s15,5,18,5
				c0,0,7,1,9,1c0,0,4-2,4-3s-1,3,0,3s3,4,1,5s-1-3-5-3s-22-2-24-1s-6,6-5,9s0,6,0,6"/>
			<path fill="none" stroke="#231F20" stroke-miterlimit="10" d="M124.446,71l-1-5c-2,0-12-9-13-9s-6,3-5,4s2,6,2,6"/>
			<path fill="none" stroke="#231F20" stroke-miterlimit="10" d="M142.446,74c0,0,2-1,3-1s-1-10,4-10s5,7,5,9s1,5,1,5"/>
			<path fill="none" stroke="#231F20" stroke-miterlimit="10" d="M154.446,68c0,0,3-7,6-7s6,1,7,2s6,3,5,4s-6,2-6,3s-2,2,0,3
				s4,0,5-1s4,2,4,3"/>
			<path fill="none" stroke="#231F20" stroke-miterlimit="10" d="M165.446,65v3l4-1C169.446,67,166.446,64,165.446,65z"/>
		</g>
	</g>
	<path fill="none" stroke="#231F20" stroke-miterlimit="10" d="M-0.554,131c0,0,12-10,19-9s19,2,21-1s3-6,3-6l14-1c0,0,2-2-1-3
		s-12-1-12-1l-9-8c0,0-4-6-12,0s-21,11-23,12"/>
	<path fill="none" stroke="#231F20" stroke-miterlimit="10" d="M39.446,107l-1,6c0,0-6,7-8,6s-2-3-2-3"/>
	<path fill="none" stroke="#231F20" stroke-miterlimit="10" d="M36.446,104l-2,7c0,0-5,5-7,4s0-3,0-3"/>
	<path fill="none" stroke="#231F20" stroke-miterlimit="10" d="M33.446,101l-1,7c-7,7-9,4-7,2s3-6,3-6"/>
	<path fill="none" stroke="#231F20" stroke-miterlimit="10" d="M153.446,160c0,0-1-8-6-12s-16-15-16-15s-17,2-21-2s-2-6,0-7s0-3-1-3
		c0,0-5-2-7-3s-2,0-2-2s1-2,1-2l11,1c0,0,5-4,8-3c4,0,9,1,13,6c0,0,24,19,26,21s16,15,16,17"/>
	<path fill="none" stroke="#231F20" stroke-miterlimit="10" d="M121.446,115c0,0-5,4-4,7s8,7,9,8s5.795-2.103,2-4c-6-3-3-6-3-6"/>
	<path fill="none" stroke="#231F20" stroke-miterlimit="10" d="M117.446,115c0,0-5,4-4,7s6,8,7,9s4,1,3-2"/>
	<path fill="none" stroke="#231F20" stroke-miterlimit="10" d="M112.446,124c0,0,4,5,4,7s-2,2-3,2"/>
	<path fill="none" stroke="#231F20" stroke-miterlimit="10" d="M89.446,134c0,0,11,2,22,6s41,15,41,17"/>
	<path fill="none" stroke="#231F20" stroke-miterlimit="10" d="M-0.554,136c0,0,27-9,33-8s25,2,27,1"/>
	<circle fill="none" stroke="#000000" stroke-miterlimit="10" cx="88.442" cy="109.521" r="2.934"/>
	<path d="M89.582,109.803c-0.155,0.629-0.792,1.013-1.422,0.856c-0.628-0.155-1.011-0.791-0.856-1.42
		c0.155-0.629,0.792-1.014,1.42-0.858C89.354,108.537,89.738,109.174,89.582,109.803"/>
	<circle fill="none" stroke="#000000" stroke-miterlimit="10" cx="69.755" cy="106.257" r="6.308"/>
	<circle fill="none" stroke="#000000" stroke-miterlimit="10" cx="90.117" cy="110.69" r="6.308"/>
	<circle fill="none" stroke="#000000" stroke-miterlimit="10" cx="72.175" cy="106.251" r="3.08"/>
	<path d="M73.492,106.427c-0.156,0.629-0.793,1.012-1.421,0.856c-0.63-0.155-1.014-0.791-0.858-1.421
		c0.155-0.629,0.792-1.013,1.421-0.857C73.262,105.161,73.647,105.797,73.492,106.427"/>
	<path fill="none" stroke="#000000" stroke-miterlimit="10" d="M76.5,98.991c0,0-3.579-6.184-11.127-4.168"/>
	<path fill="none" stroke="#000000" stroke-miterlimit="10" d="M86.952,102.082c0,0,4.909-5.192,11.788-1.492"/>
	<path fill="none" stroke="#000000" stroke-miterlimit="10" d="M74.201,120.939c0,0,3.544-2.737,5.594,1.133"/>
	<path fill="none" stroke="#000000" stroke-miterlimit="10" d="M83.72,132.842c0,0-14.464-1.136-16.93-3.811
		C64.325,126.358,76.93,122.131,83.72,132.842z"/>
	<path fill="none" stroke="#231F20" stroke-miterlimit="10" d="M60.48,84.999c-1.4,5.424-3.034,12.856-3.034,18.001c0,4-3-6-3,6
		c0,1,0,1,0,1"/>
	<path fill="none" stroke="#231F20" stroke-miterlimit="10" d="M103.446,114c0.455-2.587,0.292-6-1-6c0-3.168,1.605-9.948,2.02-15"
		/>
	<path fill="none" stroke="#231F20" stroke-miterlimit="10" d="M54.446,115c0,0,1,2,3,2c0,0,0,22,18,25c12,2,21-18,24-23
		c0.782,0.521,1.565,0.022,2.241-1"/>
</g>
</svg>
