<?xml version="1.0" encoding="utf-8"?>
<!-- Generator: Adobe Illustrator 16.2.0, SVG Export Plug-In . SVG Version: 6.00 Build 0)  -->
<!DOCTYPE svg PUBLIC "-//W3C//DTD SVG 1.1//EN" "http://www.w3.org/Graphics/SVG/1.1/DTD/svg11.dtd">
<svg version="1.1" id="Layer_1" xmlns="http://www.w3.org/2000/svg" xmlns:xlink="http://www.w3.org/1999/xlink" x="0px" y="0px"
	 width="173px" height="171px" viewBox="0 0 173 171" enable-background="new 0 0 173 171" xml:space="preserve">
<g>
	<path fill="none" stroke="#000000" stroke-miterlimit="10" d="M142.417,62.422c0,0,3.293,55.985-5.489,68.061
		c-8.781,12.076-9.88,20.857-9.88,24.149c0,3.294-38.42,15.368-47.202,15.368c-8.782,0-75.743-4.391-77.939-9.88
		c-2.196-5.488,2.196-93.307,15.368-100.991c13.173-7.684,24.15-8.781,29.639-8.781c5.488,0,4.391-16.466,4.391-16.466
		s2.195-5.489,6.586-3.292c11.405,5.702,22.403,14.063,37.323,18.659C118.158,56.317,143.026,57.538,142.417,62.422z"/>
	<path fill="none" stroke="#000000" stroke-miterlimit="10" d="M65.888,19l-1-10c0,0-6-8,4-8s18,3,26,3s38,0,46,2s9,0,9,0s6-2,5,8
		s-3,36-2,38s1,9-10,6s-16-4-17-4"/>
	<path fill="none" stroke="#000000" stroke-miterlimit="10" d="M88.888,54c2-1,10-1,10-1"/>
	<path fill="none" stroke="#000000" stroke-miterlimit="10" d="M48.888,100c4,3,3,14,3,18s-2,7,1,14c4,8,0,12-3,13s-13,11-13,11
		s-5-1-1-7s6-17,4-26s-3-30-3-36s3-11,16-7c0,0,20,8,24,16"/>
	<path fill="none" stroke="#000000" stroke-miterlimit="10" d="M51.888,105c0,0,24,18,30,19s19,6,22-12s10-26,12-28s13-19,9-34
		s-3-9-3-9s13-21,0-27c-10-3-12,3-15,6s-4,7-4,10s1,11,3,11h6l-1,5c0,0-10,5-13,7"/>
	<line fill="none" stroke="#000000" stroke-miterlimit="10" x1="87.888" y1="71" x2="74.888" y2="92"/>
	<path fill="none" stroke="#000000" stroke-miterlimit="10" d="M40.888,79c0,0-10-2-10,14s4,26-3,39s-7,11-9,12s-1,6,4,6
		s11-11,17-16"/>
	<path fill="none" stroke="#000000" stroke-miterlimit="10" d="M106.888,68c0,0-25,6-27,1c-4-4,0-23,3-29c0,0,3-6,1-14c0-8,8-8,9-5
		s-1,10-1,10s5-3,5-5s4,1-3,8s-6,16-6,16l-1,6c0,0,10,0,12-3"/>
	<path fill="none" stroke="#000000" stroke-miterlimit="10" d="M80.888,70c0,0-9,0-12-14s-3-21-3-25s-2-15,4-15s0,17,0,20v10
		c0,8,3,10,3,10l5-1"/>
</g>
</svg>
