<?xml version="1.0" encoding="utf-8"?>
<!-- Generator: Adobe Illustrator 16.2.0, SVG Export Plug-In . SVG Version: 6.00 Build 0)  -->
<!DOCTYPE svg PUBLIC "-//W3C//DTD SVG 1.1//EN" "http://www.w3.org/Graphics/SVG/1.1/DTD/svg11.dtd">
<svg version="1.1" id="Layer_1" xmlns="http://www.w3.org/2000/svg" xmlns:xlink="http://www.w3.org/1999/xlink" x="0px" y="0px"
	 width="173px" height="93px" viewBox="0 0 173 93" enable-background="new 0 0 173 93" xml:space="preserve">
<g>
	<g opacity="0.5">
		<path fill="none" stroke="#E0E0E0" stroke-miterlimit="10" d="M176,93c0-50.811-41.19-92-92-92S-8,42.189-8,93"/>
		<path fill="none" stroke="#E0E0E0" stroke-miterlimit="10" d="M170,93c0-47.496-38.503-86-86-86S-2,45.504-2,93"/>
		<path fill="none" stroke="#E0E0E0" stroke-miterlimit="10" d="M164,93c0-44.182-35.818-80-80-80C39.817,13,4,48.818,4,93"/>
		<path fill="none" stroke="#E0E0E0" stroke-miterlimit="10" d="M157,93c0-40.316-32.683-73-73-73S11,52.684,11,93"/>
		<path fill="none" stroke="#E0E0E0" stroke-miterlimit="10" d="M150,93c0-36.451-29.55-66-66-66c-36.451,0-66,29.549-66,66"/>
		<path fill="none" stroke="#E0E0E0" stroke-miterlimit="10" d="M135,93c0-28.166-22.833-51-51-51S33,64.834,33,93"/>
		<path fill="none" stroke="#E0E0E0" stroke-miterlimit="10" d="M128,93c0-24.301-19.7-44-44-44S40,68.699,40,93"/>
		<path fill="none" stroke="#E0E0E0" stroke-miterlimit="10" d="M122,93c0-20.986-17.013-38-38-38S46,72.014,46,93"/>
		<path fill="none" stroke="#E0E0E0" stroke-miterlimit="10" d="M115,93c0-17.121-13.88-31-31-31c-17.121,0-31,13.879-31,31"/>
		<path fill="none" stroke="#E0E0E0" stroke-miterlimit="10" d="M142,93c0-32.031-25.967-58-58-58S26,60.969,26,93"/>
	</g>
	<path fill="#FFFFFF" stroke="#231F20" stroke-miterlimit="10" d="M7,37.313c0,0,5-0.981,7,0c2,0.982,5,0,6-0.327s10-0.327,11,0.655
		s9-0.328,10-0.655s7-0.327,8,0.327c1,0.655,10,0.655,11,0c1-0.654,3-1.637,5-0.654s7,0.982,8,0.327c1-0.654,4-1.637,6-0.654
		c2,0.981,7,1.964,10,0.981c3-0.981,10-2.292,11-1.31s2,1.965,6,0.982s10-1.31,12-0.654c2,0.654,8,1.637,9,0.981
		c1-0.654,4-1.964,7-1.31c3,0.655,8,0.982,10,0.655s4-1.964,6-0.982c2,0.982,0,1.965,4,1.31c4-0.654,8-2.619,8-1.637s3,1.964,5,1.31
		"/>
	<g>
		<path fill="none" stroke="#231F20" stroke-miterlimit="10" d="M17.116,90.892c0,0,0-3,8-3s6,3,10,4s9-2,13-2s8,1,13,2s6-2,11-2
			s7,3,11,3s4-3,9-3"/>
		<path fill="none" stroke="#231F20" stroke-miterlimit="10" d="M43.116,89.892c0,0-16-9-16-16c7,1,56,1,56,1s-8,12-14,15"/>
		<path fill="#FFFFFF" stroke="#231F20" stroke-miterlimit="10" d="M56.116,73.892l-1-50l-28,37c0,0,21,11,28,9"/>
		<line fill="none" stroke="#231F20" stroke-miterlimit="10" x1="58.5" y1="16" x2="58.5" y2="74"/>
		<polyline fill="none" stroke="#231F20" stroke-miterlimit="10" points="59,17.5 75.116,17.5 72.116,21.5 75.116,26.5 59,26.5 		
			"/>
		<path fill="#FFFFFF" stroke="#231F20" stroke-miterlimit="10" d="M59.116,30.892c0,0,34.884,20-0.116,39"/>
	</g>
</g>
</svg>
