<?xml version="1.0" encoding="utf-8"?>
<!-- Generator: Adobe Illustrator 16.2.0, SVG Export Plug-In . SVG Version: 6.00 Build 0)  -->
<!DOCTYPE svg PUBLIC "-//W3C//DTD SVG 1.1//EN" "http://www.w3.org/Graphics/SVG/1.1/DTD/svg11.dtd">
<svg version="1.1" id="Layer_1" xmlns="http://www.w3.org/2000/svg" xmlns:xlink="http://www.w3.org/1999/xlink" x="0px" y="0px"
	 width="173px" height="106px" viewBox="0 0 173 106" enable-background="new 0 0 173 106" xml:space="preserve">
<g>
	<circle fill="none" stroke="#000000" stroke-miterlimit="10" cx="146.153" cy="14.099" r="13.077"/>
	<polyline fill="none" stroke="#000000" stroke-miterlimit="10" points="143.538,27.175 137,69.021 135.583,71.637 120,100.406 
		128.076,106 	"/>
	<polyline fill="none" stroke="#000000" stroke-miterlimit="10" points="165.769,95.175 159.229,100.406 137,69.021 	"/>
	<line fill="none" stroke="#000000" stroke-miterlimit="10" x1="142.23" y1="44.175" x2="171" y2="42.867"/>
	<polyline fill="none" stroke="#000000" stroke-miterlimit="10" points="130.461,27.175 123.922,33.714 139.615,44.175 	"/>
	<circle fill="none" stroke="#000000" stroke-miterlimit="10" cx="89.859" cy="42.609" r="8.98"/>
	<polyline fill="none" stroke="#000000" stroke-miterlimit="10" points="88.063,51.59 83.572,80.326 82.6,82.124 71.898,101.881 
		77.444,105.722 	"/>
	<polyline fill="none" stroke="#000000" stroke-miterlimit="10" points="103.329,98.287 98.839,101.881 84.471,81.226 	"/>
	<line fill="none" stroke="#000000" stroke-miterlimit="10" x1="87.165" y1="63.265" x2="94.087" y2="76.875"/>
	<line fill="none" stroke="#000000" stroke-miterlimit="10" x1="85.478" y1="63.265" x2="78.555" y2="76.875"/>
	<circle fill="none" stroke="#000000" stroke-miterlimit="10" cx="54.91" cy="42.609" r="8.98"/>
	<polyline fill="none" stroke="#000000" stroke-miterlimit="10" points="53.114,51.59 48.624,80.326 47.651,82.124 36.949,101.881 
		42.495,105.722 	"/>
	<polyline fill="none" stroke="#000000" stroke-miterlimit="10" points="68.38,98.287 63.89,101.881 49.521,81.226 	"/>
	<line fill="none" stroke="#000000" stroke-miterlimit="10" x1="52.216" y1="63.265" x2="59.139" y2="76.875"/>
	<line fill="none" stroke="#000000" stroke-miterlimit="10" x1="50.529" y1="63.265" x2="43.606" y2="76.875"/>
	<circle fill="none" stroke="#000000" stroke-miterlimit="10" cx="19.961" cy="42.609" r="8.98"/>
	<polyline fill="none" stroke="#000000" stroke-miterlimit="10" points="18.165,51.59 13.674,80.326 12.702,82.124 2,101.881 
		7.546,105.722 	"/>
	<polyline fill="none" stroke="#000000" stroke-miterlimit="10" points="33.431,98.287 28.941,101.881 14.573,81.226 	"/>
	<line fill="none" stroke="#000000" stroke-miterlimit="10" x1="17.267" y1="63.265" x2="24.189" y2="76.875"/>
	<line fill="none" stroke="#000000" stroke-miterlimit="10" x1="15.579" y1="63.265" x2="8.657" y2="76.875"/>
</g>
</svg>
