<?xml version="1.0" encoding="utf-8"?>
<!-- Generator: Adobe Illustrator 16.2.0, SVG Export Plug-In . SVG Version: 6.00 Build 0)  -->
<!DOCTYPE svg PUBLIC "-//W3C//DTD SVG 1.1//EN" "http://www.w3.org/Graphics/SVG/1.1/DTD/svg11.dtd">
<svg version="1.1" id="Layer_1" xmlns="http://www.w3.org/2000/svg" xmlns:xlink="http://www.w3.org/1999/xlink" x="0px" y="0px"
	 width="173px" height="173px" viewBox="0 0 173 173" enable-background="new 0 0 173 173" xml:space="preserve">
<g>
	<line fill="none" stroke="#000000" stroke-miterlimit="10" x1="127.616" y1="62.892" x2="127.616" y2="73.892"/>
	<line fill="none" stroke="#000000" stroke-miterlimit="10" x1="133.116" y1="68.392" x2="122.116" y2="68.392"/>
	<line fill="none" stroke="#000000" stroke-miterlimit="10" x1="131.505" y1="72.28" x2="123.728" y2="64.503"/>
	<line fill="none" stroke="#000000" stroke-miterlimit="10" x1="123.727" y1="72.28" x2="131.505" y2="64.503"/>
	<line fill="none" stroke="#000000" stroke-miterlimit="10" x1="115.616" y1="94.892" x2="115.616" y2="105.892"/>
	<line fill="none" stroke="#000000" stroke-miterlimit="10" x1="121.116" y1="100.392" x2="110.116" y2="100.392"/>
	<line fill="none" stroke="#000000" stroke-miterlimit="10" x1="119.505" y1="104.28" x2="111.728" y2="96.503"/>
	<line fill="none" stroke="#000000" stroke-miterlimit="10" x1="111.727" y1="104.28" x2="119.505" y2="96.503"/>
	<line fill="none" stroke="#000000" stroke-miterlimit="10" x1="49.616" y1="77.892" x2="49.616" y2="88.892"/>
	<line fill="none" stroke="#000000" stroke-miterlimit="10" x1="55.116" y1="83.392" x2="44.116" y2="83.392"/>
	<line fill="none" stroke="#000000" stroke-miterlimit="10" x1="53.505" y1="87.28" x2="45.728" y2="79.503"/>
	<line fill="none" stroke="#000000" stroke-miterlimit="10" x1="45.727" y1="87.28" x2="53.505" y2="79.503"/>
	<line fill="none" stroke="#000000" stroke-miterlimit="10" x1="92.616" y1="35.892" x2="92.616" y2="46.892"/>
	<line fill="none" stroke="#000000" stroke-miterlimit="10" x1="98.116" y1="41.392" x2="87.116" y2="41.392"/>
	<line fill="none" stroke="#000000" stroke-miterlimit="10" x1="96.505" y1="45.28" x2="88.728" y2="37.503"/>
	<line fill="none" stroke="#000000" stroke-miterlimit="10" x1="88.727" y1="45.28" x2="96.505" y2="37.503"/>
	<line fill="none" stroke="#000000" stroke-miterlimit="10" x1="23.616" y1="14.892" x2="23.616" y2="25.892"/>
	<line fill="none" stroke="#000000" stroke-miterlimit="10" x1="29.116" y1="20.392" x2="18.116" y2="20.392"/>
	<line fill="none" stroke="#000000" stroke-miterlimit="10" x1="27.505" y1="24.28" x2="19.728" y2="16.503"/>
	<line fill="none" stroke="#000000" stroke-miterlimit="10" x1="19.727" y1="24.28" x2="27.505" y2="16.503"/>
	<line fill="none" stroke="#000000" stroke-miterlimit="10" x1="15.616" y1="105.892" x2="15.616" y2="116.892"/>
	<line fill="none" stroke="#000000" stroke-miterlimit="10" x1="21.116" y1="111.392" x2="10.116" y2="111.392"/>
	<line fill="none" stroke="#000000" stroke-miterlimit="10" x1="19.505" y1="115.28" x2="11.728" y2="107.503"/>
	<line fill="none" stroke="#000000" stroke-miterlimit="10" x1="11.727" y1="115.28" x2="19.505" y2="107.503"/>
	<line fill="none" stroke="#000000" stroke-miterlimit="10" x1="44.616" y1="132.892" x2="44.616" y2="143.892"/>
	<line fill="none" stroke="#000000" stroke-miterlimit="10" x1="50.116" y1="138.392" x2="39.116" y2="138.392"/>
	<line fill="none" stroke="#000000" stroke-miterlimit="10" x1="48.505" y1="142.28" x2="40.728" y2="134.503"/>
	<line fill="none" stroke="#000000" stroke-miterlimit="10" x1="40.727" y1="142.28" x2="48.505" y2="134.503"/>
	<line fill="none" stroke="#000000" stroke-miterlimit="10" x1="138.616" y1="143.892" x2="138.616" y2="154.892"/>
	<line fill="none" stroke="#000000" stroke-miterlimit="10" x1="144.116" y1="149.392" x2="133.116" y2="149.392"/>
	<line fill="none" stroke="#000000" stroke-miterlimit="10" x1="142.505" y1="153.28" x2="134.728" y2="145.503"/>
	<line fill="none" stroke="#000000" stroke-miterlimit="10" x1="134.727" y1="153.28" x2="142.505" y2="145.503"/>
	<line fill="none" stroke="#000000" stroke-miterlimit="10" x1="145.616" y1="158.892" x2="145.616" y2="169.892"/>
	<line fill="none" stroke="#000000" stroke-miterlimit="10" x1="151.116" y1="164.392" x2="140.116" y2="164.392"/>
	<line fill="none" stroke="#000000" stroke-miterlimit="10" x1="149.505" y1="168.28" x2="141.728" y2="160.503"/>
	<line fill="none" stroke="#000000" stroke-miterlimit="10" x1="141.727" y1="168.28" x2="149.505" y2="160.503"/>
	<line fill="none" stroke="#000000" stroke-miterlimit="10" x1="155.616" y1="107.892" x2="155.616" y2="118.892"/>
	<line fill="none" stroke="#000000" stroke-miterlimit="10" x1="161.116" y1="113.392" x2="150.116" y2="113.392"/>
	<line fill="none" stroke="#000000" stroke-miterlimit="10" x1="159.505" y1="117.28" x2="151.728" y2="109.503"/>
	<line fill="none" stroke="#000000" stroke-miterlimit="10" x1="151.727" y1="117.28" x2="159.505" y2="109.503"/>
	<line fill="none" stroke="#000000" stroke-miterlimit="10" x1="136.616" y1="20.892" x2="136.616" y2="31.892"/>
	<line fill="none" stroke="#000000" stroke-miterlimit="10" x1="142.116" y1="26.392" x2="131.116" y2="26.392"/>
	<line fill="none" stroke="#000000" stroke-miterlimit="10" x1="140.505" y1="30.28" x2="132.728" y2="22.503"/>
	<line fill="none" stroke="#000000" stroke-miterlimit="10" x1="132.727" y1="30.28" x2="140.505" y2="22.503"/>
	<line fill="none" stroke="#000000" stroke-miterlimit="10" x1="155.616" y1="5.892" x2="155.616" y2="16.892"/>
	<line fill="none" stroke="#000000" stroke-miterlimit="10" x1="161.116" y1="11.392" x2="150.116" y2="11.392"/>
	<line fill="none" stroke="#000000" stroke-miterlimit="10" x1="159.505" y1="15.28" x2="151.728" y2="7.503"/>
	<line fill="none" stroke="#000000" stroke-miterlimit="10" x1="151.727" y1="15.28" x2="159.505" y2="7.503"/>
	<line fill="none" stroke="#000000" stroke-miterlimit="10" x1="163.616" y1="56.892" x2="163.616" y2="67.892"/>
	<line fill="none" stroke="#000000" stroke-miterlimit="10" x1="169.116" y1="62.392" x2="158.116" y2="62.392"/>
	<line fill="none" stroke="#000000" stroke-miterlimit="10" x1="167.505" y1="66.28" x2="159.728" y2="58.503"/>
	<line fill="none" stroke="#000000" stroke-miterlimit="10" x1="159.727" y1="66.28" x2="167.505" y2="58.503"/>
	<line fill="none" stroke="#000000" stroke-miterlimit="10" x1="155.616" y1="43.892" x2="155.616" y2="54.892"/>
	<line fill="none" stroke="#000000" stroke-miterlimit="10" x1="161.116" y1="49.392" x2="150.116" y2="49.392"/>
	<line fill="none" stroke="#000000" stroke-miterlimit="10" x1="159.505" y1="53.28" x2="151.728" y2="45.503"/>
	<line fill="none" stroke="#000000" stroke-miterlimit="10" x1="151.727" y1="53.28" x2="159.505" y2="45.503"/>
	<line fill="none" stroke="#000000" stroke-miterlimit="10" x1="80.616" y1="14.892" x2="80.616" y2="25.892"/>
	<line fill="none" stroke="#000000" stroke-miterlimit="10" x1="86.116" y1="20.392" x2="75.116" y2="20.392"/>
	<line fill="none" stroke="#000000" stroke-miterlimit="10" x1="84.505" y1="24.28" x2="76.728" y2="16.503"/>
	<line fill="none" stroke="#000000" stroke-miterlimit="10" x1="76.727" y1="24.28" x2="84.505" y2="16.503"/>
	<line fill="none" stroke="#000000" stroke-miterlimit="10" x1="53.616" y1="5.892" x2="53.616" y2="16.892"/>
	<line fill="none" stroke="#000000" stroke-miterlimit="10" x1="59.116" y1="11.392" x2="48.116" y2="11.392"/>
	<line fill="none" stroke="#000000" stroke-miterlimit="10" x1="57.505" y1="15.28" x2="49.728" y2="7.503"/>
	<line fill="none" stroke="#000000" stroke-miterlimit="10" x1="49.727" y1="15.28" x2="57.505" y2="7.503"/>
	<line fill="none" stroke="#000000" stroke-miterlimit="10" x1="13.616" y1="1.892" x2="13.616" y2="12.892"/>
	<line fill="none" stroke="#000000" stroke-miterlimit="10" x1="19.116" y1="7.392" x2="8.116" y2="7.392"/>
	<line fill="none" stroke="#000000" stroke-miterlimit="10" x1="17.505" y1="11.28" x2="9.728" y2="3.503"/>
	<line fill="none" stroke="#000000" stroke-miterlimit="10" x1="9.727" y1="11.28" x2="17.505" y2="3.503"/>
	<line fill="none" stroke="#000000" stroke-miterlimit="10" x1="13.616" y1="54.892" x2="13.616" y2="65.892"/>
	<line fill="none" stroke="#000000" stroke-miterlimit="10" x1="19.116" y1="60.392" x2="8.116" y2="60.392"/>
	<line fill="none" stroke="#000000" stroke-miterlimit="10" x1="17.505" y1="64.28" x2="9.728" y2="56.503"/>
	<line fill="none" stroke="#000000" stroke-miterlimit="10" x1="9.727" y1="64.28" x2="17.505" y2="56.503"/>
	<line fill="none" stroke="#000000" stroke-miterlimit="10" x1="75.616" y1="50.892" x2="75.616" y2="61.892"/>
	<line fill="none" stroke="#000000" stroke-miterlimit="10" x1="81.116" y1="56.392" x2="70.116" y2="56.392"/>
	<line fill="none" stroke="#000000" stroke-miterlimit="10" x1="79.505" y1="60.28" x2="71.728" y2="52.503"/>
	<line fill="none" stroke="#000000" stroke-miterlimit="10" x1="71.727" y1="60.28" x2="79.505" y2="52.503"/>
	<line fill="none" stroke="#000000" stroke-miterlimit="10" x1="27.616" y1="154.892" x2="27.616" y2="165.892"/>
	<line fill="none" stroke="#000000" stroke-miterlimit="10" x1="33.116" y1="160.392" x2="22.116" y2="160.392"/>
	<line fill="none" stroke="#000000" stroke-miterlimit="10" x1="31.505" y1="164.28" x2="23.728" y2="156.503"/>
	<line fill="none" stroke="#000000" stroke-miterlimit="10" x1="23.727" y1="164.28" x2="31.505" y2="156.503"/>
	<g>
		<path fill="none" stroke="#000000" stroke-miterlimit="10" d="M89.584,133.182c-0.016,3.818,4.987,7.858,4.987,13.824
			c0,7.787-3.519,8.78-7.862,8.78c-4.341,0-7.862-0.993-7.862-8.78c0-5.986,4.721-9.006,5.018-13.846"/>
		<polyline fill="none" stroke="#000000" stroke-miterlimit="10" points="83.068,156 83.068,172.5 81.568,172.5 		"/>
		<polyline fill="none" stroke="#000000" stroke-miterlimit="10" points="91.068,156 91.068,172.5 92.568,172.5 		"/>
		<path fill="none" stroke="#000000" stroke-miterlimit="10" d="M91.568,137c0,0,3.547,4.892,1.547,7.892c-1.369,2.054-6,3-9,2"/>
		<path fill="none" stroke="#000000" stroke-miterlimit="10" d="M82.568,137c0,0-2.538,2.892-0.538,5.892c1.369,2.054,6,3,9,2"/>
		<path fill="none" stroke="#000000" stroke-miterlimit="10" d="M95.578,125.044c0,4.888-3.671,8.462-8.559,8.462
			c-4.889,0-9.142-3.476-9.142-8.364s3.962-8.753,8.85-8.753S95.578,120.157,95.578,125.044z"/>
		<rect x="89.116" y="121.892" width="1" height="1"/>
		<rect x="83.116" y="121.892" width="1" height="1"/>
		<g>
			<path fill="none" stroke="#000000" stroke-miterlimit="10" d="M89.068,128.5c0,0.55-0.45,1-1,1h-3c-0.55,0-1-0.45-1-1l0,0
				c0-0.549,0.45-1,1-1h3C88.618,127.5,89.068,127.951,89.068,128.5L89.068,128.5z"/>
		</g>
	</g>
	<line fill="none" stroke="#000000" stroke-miterlimit="10" x1="86.568" y1="128" x2="87.568" y2="129"/>
</g>
</svg>
