<?xml version="1.0" encoding="utf-8"?>
<!-- Generator: Adobe Illustrator 16.2.0, SVG Export Plug-In . SVG Version: 6.00 Build 0)  -->
<!DOCTYPE svg PUBLIC "-//W3C//DTD SVG 1.1//EN" "http://www.w3.org/Graphics/SVG/1.1/DTD/svg11.dtd">
<svg version="1.1" id="Layer_1" xmlns="http://www.w3.org/2000/svg" xmlns:xlink="http://www.w3.org/1999/xlink" x="0px" y="0px"
	 width="173px" height="173px" viewBox="0 0 173 173" enable-background="new 0 0 173 173" xml:space="preserve">
<g opacity="0.5">
	<g>
		<polyline fill="none" stroke="#E0E0E0" stroke-miterlimit="10" points="109.5,14 43.5,-2 35.5,4 63.5,89 13,104 45,129 142.5,82 
			162,139 155.5,156 		"/>
		<polyline fill="none" stroke="#E0E0E0" stroke-miterlimit="10" points="167,-3 142.5,82 155.5,156 117,125 		"/>
		<polyline fill="none" stroke="#E0E0E0" stroke-miterlimit="10" points="141.5,82 94.5,130 154.5,156 76.5,170 94.5,130 74,100 
			63.5,89 109.5,14 141.5,82 118,1 		"/>
		<polyline fill="none" stroke="#E0E0E0" stroke-miterlimit="10" points="67.5,82 36.5,4 107.5,15 		"/>
		<polygon fill="none" stroke="#E0E0E0" stroke-miterlimit="10" points="8,53 35.5,4 4,21 		"/>
		<line fill="none" stroke="#E0E0E0" stroke-miterlimit="10" x1="14" y1="104" x2="35.5" y2="4"/>
		<line fill="none" stroke="#E0E0E0" stroke-miterlimit="10" x1="25" y1="100" x2="36" y2="5"/>
		<polyline fill="none" stroke="#E0E0E0" stroke-miterlimit="10" points="118,2 110.147,14 110.5,15 74,99 		"/>
		<line fill="none" stroke="#E0E0E0" stroke-miterlimit="10" x1="162" y1="12" x2="110.147" y2="14"/>
		<polyline fill="none" stroke="#E0E0E0" stroke-miterlimit="10" points="110.5,15 153,49 161,82 142,83 		"/>
		<polyline fill="none" stroke="#E0E0E0" stroke-miterlimit="10" points="153.5,156 76.5,150 1.5,153 3,156 62.167,169.333 
			77.5,149 46,130 		"/>
		<polyline fill="none" stroke="#E0E0E0" stroke-miterlimit="10" points="63.5,90 62.167,169.333 101.5,85 155.5,156 		"/>
		<polyline fill="none" stroke="#E0E0E0" stroke-miterlimit="10" points="94.5,129 101.5,85 109.5,18 		"/>
		<line fill="none" stroke="#E0E0E0" stroke-miterlimit="10" x1="76.5" y1="170" x2="76.5" y2="150"/>
		<polyline fill="none" stroke="#E0E0E0" stroke-miterlimit="10" points="111,97 122,42 101.5,85 		"/>
	</g>
	<line fill="none" stroke="#E0E0E0" stroke-miterlimit="10" x1="118" y1="106" x2="130" y2="58"/>
	<polyline fill="none" stroke="#E0E0E0" stroke-miterlimit="10" points="74,100 63,120 13,104 62,115 	"/>
	<line fill="none" stroke="#E0E0E0" stroke-miterlimit="10" x1="118" y1="107" x2="115" y2="139"/>
	<line fill="none" stroke="#E0E0E0" stroke-miterlimit="10" x1="45" y1="129" x2="1.5" y2="153"/>
	<polyline fill="none" stroke="#E0E0E0" stroke-miterlimit="10" points="13,105 35,134 27,152 	"/>
	<polyline fill="none" stroke="#E0E0E0" stroke-miterlimit="10" points="42,26 32.333,55 30,62 63.5,89 37,44 	"/>
	<polyline fill="none" stroke="#E0E0E0" stroke-miterlimit="10" points="87,49 54,7 49,33 71,76 	"/>
	<line fill="none" stroke="#E0E0E0" stroke-miterlimit="10" x1="122" y1="13" x2="167" y2="-2"/>
	<polyline fill="none" stroke="#E0E0E0" stroke-miterlimit="10" points="24,55 5,21 31,26 	"/>
	<line fill="none" stroke="#E0E0E0" stroke-miterlimit="10" x1="161" y1="82" x2="135" y2="58"/>
	<line fill="none" stroke="#E0E0E0" stroke-miterlimit="10" x1="54" y1="8" x2="85" y2="54"/>
	<polyline fill="none" stroke="#E0E0E0" stroke-miterlimit="10" points="80,61 55,8 101,27 	"/>
	<line fill="none" stroke="#E0E0E0" stroke-miterlimit="10" x1="103" y1="24" x2="55" y2="8"/>
	<polyline fill="none" stroke="#E0E0E0" stroke-miterlimit="10" points="63,94 14,104 63,99 	"/>
	<polyline fill="none" stroke="#E0E0E0" stroke-miterlimit="10" points="30,62 29.946,63 28,99 	"/>
	<polyline fill="none" stroke="#E0E0E0" stroke-miterlimit="10" points="53,92 30,63 58,90 	"/>
	<line fill="none" stroke="#E0E0E0" stroke-miterlimit="10" x1="118" y1="113" x2="155" y2="155"/>
	<line fill="none" stroke="#E0E0E0" stroke-miterlimit="10" x1="54" y1="7" x2="99" y2="31"/>
	<polyline fill="none" stroke="#E0E0E0" stroke-miterlimit="10" points="20,160 62,151 31,162 	"/>
	<polyline fill="none" stroke="#E0E0E0" stroke-miterlimit="10" points="44,165 62,151 40,164 	"/>
	<line fill="none" stroke="#E0E0E0" stroke-miterlimit="10" x1="14" y1="158" x2="58" y2="152"/>
	<line fill="none" stroke="#E0E0E0" stroke-miterlimit="10" x1="5" y1="156" x2="49" y2="152"/>
	<path fill="none" stroke="#E0E0E0" stroke-miterlimit="10" d="M49,166l13-15c0,0-10,16-9,16"/>
</g>
<g>
	<path fill="none" stroke="#000000" stroke-miterlimit="10" d="M-0.884,19.892c0,0,23,51,25,56"/>
	<path fill="none" stroke="#000000" stroke-miterlimit="10" d="M38.116,1.892c0,0,16,62,23,68"/>
	<path fill="none" stroke="#000000" stroke-miterlimit="10" d="M140.116,10.892c0,0-15,60-26,66"/>
	<path fill="none" stroke="#000000" stroke-miterlimit="10" d="M175.116,29.892c0,0-17,44-19,52"/>
	<path fill="none" stroke="#000000" stroke-miterlimit="10" d="M114.116,76.892c0,0-10-9-14-5s-2,17,0,17s15-4,18-8l4,4
		c0,0,0,4-3,12s-5,18-10,25s-9,14-9,15c0,0.784-0.613,5.856,2,7.541c0.724,0.47,1.697,0.677,3,0.459c6-1,17-11,22-21l12-24l3-7"/>
	<path fill="none" stroke="#000000" stroke-miterlimit="10" d="M102.116,144.432c-6.001,5.542-5,14.46-1,14.46c0,0,15-3,24-14
		c10-12,23-25,26-36"/>
	<path fill="none" stroke="#000000" stroke-miterlimit="10" d="M105.116,158.892c0,0-3,7,11,1c11-6,12-7,20-13s23-28,23-28"/>
	<path fill="none" stroke="#000000" stroke-miterlimit="10" d="M127.116,155.892c0,0,5,5,15-3s25-31,25-31c7-11,0-7-1-17s-7-11-7-13
		s0-9-4-9s-8,1-11-5s-14-3-14-3"/>
	<path fill="none" stroke="#000000" stroke-miterlimit="10" d="M58.116,77.892c0,0,2-14,13-13c8,2,3,15,3,15
		S64.116,82.892,58.116,77.892z"/>
	<path fill="none" stroke="#000000" stroke-miterlimit="10" d="M3.116,131.892c0,0-2,22,13,24s44,9,56,5c12-2,25,1,30-2"/>
	<path fill="none" stroke="#000000" stroke-miterlimit="10" d="M140.116,154.892c0,0,16,1,18-3s4-2,5-7s-1-13-1-15"/>
	<path fill="none" stroke="#000000" stroke-miterlimit="10" d="M98.116,86.892l-3-1c0,0-3-12-18-6c-2,1-5,1-5,1"/>
	<path fill="none" stroke="#000000" stroke-miterlimit="10" d="M34.116,86.892c0,0-1,8,0,14s6,17,6,17c5,18,13,17,15,16s7,0,0-26
		s2-30,2-30"/>
	<path fill="none" stroke="#000000" stroke-miterlimit="10" d="M48.116,133.892c0,0,8,11,0,15c-0.918,0.307-1.931,0.19-3-0.243
		c-5.921-2.398-13.612-14.523-17-18.757c0,0-12-15-10-26s1-11,1-11"/>
	<path fill="none" stroke="#000000" stroke-miterlimit="10" d="M46.116,148.892c0,0-1,17-15,0l-17-17c0,0-9-9-4-19c1-7,1-8,1-8"/>
	<path fill="none" stroke="#000000" stroke-miterlimit="10" d="M17.116,135.892c7,9,8,13,6,15s-12-7-13-8s-11-16-9-21s5-17,5-17
		s1-7,5-8c2-3,2-10,9-11c0,0,1-13,14-12c8-9,15-8,21-5"/>
</g>
</svg>
