<?xml version="1.0" encoding="utf-8"?>
<!-- Generator: Adobe Illustrator 16.2.0, SVG Export Plug-In . SVG Version: 6.00 Build 0)  -->
<!DOCTYPE svg PUBLIC "-//W3C//DTD SVG 1.1//EN" "http://www.w3.org/Graphics/SVG/1.1/DTD/svg11.dtd">
<svg version="1.1" id="Layer_1" xmlns="http://www.w3.org/2000/svg" xmlns:xlink="http://www.w3.org/1999/xlink" x="0px" y="0px"
	 width="173px" height="173px" viewBox="0 0 173 173" enable-background="new 0 0 173 173" xml:space="preserve">
<g>
	<rect x="14.5" y="2.5" fill="none" stroke="#231F20" stroke-miterlimit="10" width="88" height="170"/>
	<path fill="none" stroke="#000000" stroke-miterlimit="10" d="M127.991,133.598c2.92,2.283,4.988,7.862,4.988,13.828
		c0,7.787-3.52,8.779-7.862,8.779c-4.342,0-7.863-0.992-7.863-8.779c0-5.987,2.082-11.581,5.018-13.847"/>
	<polyline fill="none" stroke="#000000" stroke-miterlimit="10" points="120.616,155.892 120.616,172.392 119.116,172.392 	"/>
	<polyline fill="none" stroke="#000000" stroke-miterlimit="10" points="129.5,156 129.5,172.5 131,172.5 	"/>
	<path fill="none" stroke="#000000" stroke-miterlimit="10" d="M131.617,139.098c0,0,4.666,7.62,6.528,14.371"/>
	<path fill="none" stroke="#000000" stroke-miterlimit="10" d="M118.487,139.098c0,0-4.666,7.62-6.528,14.371"/>
	<path fill="none" stroke="#000000" stroke-miterlimit="10" d="M133.984,125.463c0,4.889-3.672,8.462-8.56,8.462
		c-4.889,0-9.142-3.476-9.142-8.365c0-4.887,3.962-8.754,8.85-8.754C130.021,116.807,133.984,120.576,133.984,125.463z"/>
	<circle fill="none" stroke="#231F20" stroke-miterlimit="10" cx="91.068" cy="109.5" r="3.5"/>
</g>
</svg>
