<?xml version="1.0" encoding="utf-8"?>
<!-- Generator: Adobe Illustrator 16.2.0, SVG Export Plug-In . SVG Version: 6.00 Build 0)  -->
<!DOCTYPE svg PUBLIC "-//W3C//DTD SVG 1.1//EN" "http://www.w3.org/Graphics/SVG/1.1/DTD/svg11.dtd">
<svg version="1.1" id="Layer_1" xmlns="http://www.w3.org/2000/svg" xmlns:xlink="http://www.w3.org/1999/xlink" x="0px" y="0px"
	 width="173px" height="162px" viewBox="0 0 173 162" enable-background="new 0 0 173 162" xml:space="preserve">
<g>
	<path d="M144.628,161.291c-13.926,0.001-31.899-16.257-38.98-23.25c-13.573-13.402-24.147-28.502-26.939-38.475
		c-0.936-3.342-1.936-6.44-2.902-9.437c-6.163-19.102-10.616-32.906,24.288-48.519c6.359-2.846,12.296-3.179,17.467-0.986
		c11.583,4.91,17.54,21.313,22.794,35.786c3.71,10.218,7.547,20.786,12.08,22.327c1.259,0.428,2.656,0.116,4.338-0.954
		c4.343-2.764,7.102-7.408,8.2-13.804c3.377-19.673-9.594-52.359-23.827-70.546c-3.973-5.078-8.795-7.545-14.74-7.545
		c-8.807,0-19.274,5.235-31.394,11.295c-9.947,4.976-20.233,10.12-31.239,13.121c-4.876,1.33-8.072,3.485-9.773,6.587
		c-3.684,6.72-0.325,17.52,3.231,28.954c4.265,13.713,8.675,27.892,1.994,38.391c-7.034,11.052-1.659,17.16,4.031,23.627
		c4.589,5.215,9.333,10.605,6.157,18.016c-3.455,8.063-15.949,13.915-29.708,13.915c-0.844,0-1.698-0.022-2.536-0.069
		c-13.081-0.716-22.356-6.95-25.445-17.104c-3.705-12.17,3.308-23.883,9.496-34.216c6.763-11.294,10.59-18.477,4.318-23.571
		C8.46,70.955,23.08,18.44,23.711,16.211l0.136-0.481l4.811,1.361l-0.136,0.481c-4.045,14.302-11.901,53.571,0.171,63.379
		c9.951,8.085,3.275,19.235-3.182,30.019c-5.654,9.442-12.062,20.144-9.003,30.194c3.469,11.398,15.797,13.285,20.937,13.567
		c12.026,0.657,24.639-4.444,27.374-10.825c1.839-4.289-0.821-7.637-5.314-12.742c-6.035-6.859-13.546-15.396-4.497-29.615
		c5.438-8.544,1.377-21.597-2.549-34.221c-3.881-12.48-7.546-24.262-2.842-32.842c2.388-4.355,6.589-7.301,12.843-9.007
		c10.528-2.871,20.588-7.902,30.319-12.769c12.111-6.058,23.551-11.78,33.819-11.78c7.481,0,13.529,3.082,18.489,9.418
		c12.928,16.521,28.745,51.593,24.816,74.477c-1.346,7.843-4.86,13.623-10.442,17.175c-2.978,1.895-5.916,2.394-8.633,1.469
		c-6.804-2.313-10.681-12.991-15.169-25.352c-4.907-13.515-10.468-28.831-20.046-32.891c-3.943-1.672-8.313-1.362-13.474,0.947
		c-30.81,13.784-27.529,23.955-21.572,42.42c0.981,3.042,1.996,6.189,2.958,9.624c5.104,18.227,41.848,58.073,61.103,58.073
		c4.649-0.014,7.604-2.652,9.078-8.057l0.132-0.482l4.824,1.317l-0.132,0.481c-2.639,9.673-8.982,11.726-13.839,11.741H144.628z
		 M110.407,40.187c-3.107,0-6.439,0.787-9.903,2.337C66.418,57.771,70.755,71.214,76.758,89.822c0.97,3.007,1.973,6.116,2.914,9.475
		c2.748,9.817,13.221,24.745,26.679,38.033c6.993,6.904,24.721,22.962,38.277,22.961v0.5l0.056-0.5
		c4.43-0.014,10.195-1.867,12.743-10.522l-2.895-0.791c-1.654,5.576-4.883,8.298-9.857,8.313c-19.629,0-56.947-40.346-62.115-58.802
		c-0.956-3.417-1.968-6.557-2.947-9.587c-6.135-19.016-9.513-29.49,22.115-43.64c5.425-2.427,10.071-2.735,14.273-0.955
		c9.978,4.231,15.618,19.764,20.594,33.47c4.401,12.12,8.202,22.589,14.552,24.75c2.431,0.824,5.055,0.362,7.773-1.367
		c5.335-3.396,8.698-8.948,9.995-16.501c3.879-22.6-11.804-57.316-24.619-73.689c-4.757-6.08-10.548-9.036-17.701-9.036
		c-10.032,0-21.369,5.671-33.372,11.674c-9.773,4.888-19.879,9.942-30.502,12.839c-5.978,1.631-9.978,4.418-12.229,8.522
		c-4.5,8.208-0.896,19.795,2.919,32.064c3.995,12.843,8.125,26.122,2.439,35.055c-8.646,13.587-1.411,21.81,4.403,28.417
		c4.752,5.401,7.559,8.954,5.483,13.797c-2.931,6.841-15.742,12.119-28.348,11.429c-5.349-0.293-18.184-2.272-21.838-14.274
		c-3.188-10.476,3.341-21.378,9.103-30.999c6.238-10.417,12.688-21.192,3.408-28.73c-12.355-10.038-4.767-49.089-0.638-63.946
		l-2.885-0.817c-1.573,5.724-14.295,54.151,1.631,67.091c6.911,5.615,2.948,13.105-4.091,24.859
		c-6.081,10.157-12.973,21.666-9.398,33.414c2.96,9.727,11.906,15.705,24.544,16.394c0.82,0.047,1.655,0.069,2.481,0.069
		c13.161,0,25.537-5.721,28.789-13.308c2.927-6.83-1.605-11.982-5.988-16.962c-5.946-6.757-11.562-13.139-4.125-24.824
		c6.432-10.109,2.093-24.063-2.104-37.559C52.656,54.498,49.236,43.5,53.124,36.41c1.838-3.354,5.236-5.666,10.387-7.07
		c10.91-2.975,21.151-8.098,31.055-13.05c12.233-6.119,22.798-11.402,31.841-11.402c6.273,0,11.352,2.594,15.528,7.93
		c14.365,18.354,27.446,51.397,24.024,71.331c-1.148,6.686-4.056,11.557-8.648,14.478c-1.951,1.243-3.649,1.583-5.197,1.056
		c-4.988-1.694-8.907-12.49-12.698-22.931c-5.185-14.281-11.061-30.465-22.244-35.207C115.048,40.644,112.772,40.187,110.407,40.187
		"/>
	<line fill="none" stroke="#000000" stroke-miterlimit="10" x1="22.116" y1="25.892" x2="25.116" y2="28.892"/>
	<line fill="none" stroke="#000000" stroke-miterlimit="10" x1="20.116" y1="38.892" x2="23.116" y2="41.892"/>
	<line fill="none" stroke="#000000" stroke-miterlimit="10" x1="18.116" y1="52.892" x2="21.116" y2="55.892"/>
	<line fill="none" stroke="#000000" stroke-miterlimit="10" x1="19.116" y1="67.892" x2="22.116" y2="70.892"/>
	<line fill="none" stroke="#000000" stroke-miterlimit="10" x1="24.116" y1="82.892" x2="30.116" y2="83.892"/>
	<line fill="none" stroke="#000000" stroke-miterlimit="10" x1="29.116" y1="94.892" x2="32.116" y2="96.892"/>
	<line fill="none" stroke="#000000" stroke-miterlimit="10" x1="23.116" y1="106.892" x2="25.116" y2="109.892"/>
	<line fill="none" stroke="#000000" stroke-miterlimit="10" x1="16.116" y1="118.892" x2="18.116" y2="121.892"/>
	<line fill="none" stroke="#000000" stroke-miterlimit="10" x1="11.116" y1="135.892" x2="15.116" y2="137.892"/>
	<line fill="none" stroke="#000000" stroke-miterlimit="10" x1="19.116" y1="151.892" x2="23.116" y2="150.892"/>
	<line fill="none" stroke="#000000" stroke-miterlimit="10" x1="33.116" y1="157.892" x2="34.116" y2="155.892"/>
	<line fill="none" stroke="#000000" stroke-miterlimit="10" x1="53.116" y1="157.892" x2="51.116" y2="153.892"/>
	<line fill="none" stroke="#000000" stroke-miterlimit="10" x1="67.116" y1="148.892" x2="65.116" y2="144.892"/>
	<line fill="none" stroke="#000000" stroke-miterlimit="10" x1="65.116" y1="131.892" x2="62.116" y2="132.892"/>
	<line fill="none" stroke="#000000" stroke-miterlimit="10" x1="56.116" y1="117.892" x2="53.116" y2="118.892"/>
	<line fill="none" stroke="#000000" stroke-miterlimit="10" x1="60.116" y1="99.892" x2="58.116" y2="98.892"/>
	<line fill="none" stroke="#000000" stroke-miterlimit="10" x1="60.116" y1="80.892" x2="58.116" y2="81.892"/>
	<line fill="none" stroke="#000000" stroke-miterlimit="10" x1="56.116" y1="65.892" x2="54.116" y2="66.892"/>
	<line fill="none" stroke="#000000" stroke-miterlimit="10" x1="52.116" y1="48.892" x2="49.116" y2="49.892"/>
	<line fill="none" stroke="#000000" stroke-miterlimit="10" x1="55.116" y1="33.892" x2="52.116" y2="32.892"/>
	<line fill="none" stroke="#000000" stroke-miterlimit="10" x1="71.116" y1="26.892" x2="68.116" y2="24.892"/>
	<line fill="none" stroke="#000000" stroke-miterlimit="10" x1="88.116" y1="19.892" x2="85.116" y2="17.892"/>
	<line fill="none" stroke="#000000" stroke-miterlimit="10" x1="105.116" y1="10.892" x2="102.116" y2="8.892"/>
	<line fill="none" stroke="#000000" stroke-miterlimit="10" x1="121.116" y1="5.892" x2="119.116" y2="2.892"/>
	<line fill="none" stroke="#000000" stroke-miterlimit="10" x1="137.116" y1="7.892" x2="139.116" y2="5.892"/>
	<line fill="none" stroke="#000000" stroke-miterlimit="10" x1="148.116" y1="20.892" x2="150.116" y2="18.892"/>
	<line fill="none" stroke="#000000" stroke-miterlimit="10" x1="156.116" y1="36.892" x2="158.116" y2="34.892"/>
	<line fill="none" stroke="#000000" stroke-miterlimit="10" x1="164.116" y1="56.892" x2="166.116" y2="54.892"/>
	<line fill="none" stroke="#000000" stroke-miterlimit="10" x1="166.116" y1="76.892" x2="169.116" y2="74.892"/>
	<line fill="none" stroke="#000000" stroke-miterlimit="10" x1="162.116" y1="93.892" x2="165.116" y2="96.892"/>
	<line fill="none" stroke="#000000" stroke-miterlimit="10" x1="153.116" y1="99.892" x2="151.148" y2="102.525"/>
	<line fill="none" stroke="#000000" stroke-miterlimit="10" x1="144.084" y1="89.26" x2="141.116" y2="90.892"/>
	<line fill="none" stroke="#000000" stroke-miterlimit="10" x1="137.116" y1="70.26" x2="134.148" y2="71.892"/>
	<line fill="none" stroke="#000000" stroke-miterlimit="10" x1="130.116" y1="54.892" x2="127.148" y2="56.525"/>
	<line fill="none" stroke="#000000" stroke-miterlimit="10" x1="121.116" y1="43.892" x2="118.148" y2="45.525"/>
	<line fill="none" stroke="#000000" stroke-miterlimit="10" x1="99.116" y1="46.892" x2="97.116" y2="43.892"/>
	<line fill="none" stroke="#000000" stroke-miterlimit="10" x1="85.116" y1="54.892" x2="83.116" y2="51.892"/>
	<line fill="none" stroke="#000000" stroke-miterlimit="10" x1="76.116" y1="65.892" x2="73.116" y2="64.892"/>
	<line fill="none" stroke="#000000" stroke-miterlimit="10" x1="78.116" y1="82.892" x2="75.116" y2="83.892"/>
	<line fill="none" stroke="#000000" stroke-miterlimit="10" x1="84.116" y1="102.892" x2="81.116" y2="103.892"/>
	<line fill="none" stroke="#000000" stroke-miterlimit="10" x1="92.116" y1="115.892" x2="89.116" y2="116.892"/>
	<line fill="none" stroke="#000000" stroke-miterlimit="10" x1="105.116" y1="131.892" x2="101.116" y2="132.892"/>
	<line fill="none" stroke="#000000" stroke-miterlimit="10" x1="122.116" y1="145.892" x2="118.116" y2="146.892"/>
	<line fill="none" stroke="#000000" stroke-miterlimit="10" x1="142.116" y1="156.892" x2="141.116" y2="160.892"/>
</g>
</svg>
