<?xml version="1.0" encoding="utf-8"?>
<!-- Generator: Adobe Illustrator 16.2.0, SVG Export Plug-In . SVG Version: 6.00 Build 0)  -->
<!DOCTYPE svg PUBLIC "-//W3C//DTD SVG 1.1//EN" "http://www.w3.org/Graphics/SVG/1.1/DTD/svg11.dtd">
<svg version="1.1" id="Layer_1" xmlns="http://www.w3.org/2000/svg" xmlns:xlink="http://www.w3.org/1999/xlink" x="0px" y="0px"
	 width="173px" height="177px" viewBox="0 0 173 177" enable-background="new 0 0 173 177" xml:space="preserve">
<g>
	<path fill="none" stroke="#000000" stroke-miterlimit="10" d="M1.116,77.892c0,0,23-62,36-59c7,0,17,26-11,66
		c-0.93,3.1-0.995,6.198-0.553,8.998c0.984,6.24,4.483,11.002,6.553,11.002"/>
	<path fill="none" stroke="#000000" stroke-miterlimit="10" d="M26.116,93.892c0,0,17-12,22-11"/>
	<path fill="none" stroke="#000000" stroke-miterlimit="10" d="M114.116,38.892l6-7c0,0,22-20,8-29s-45,29-45,29l-6,5"/>
	<path fill="none" stroke="#000000" stroke-miterlimit="10" d="M146.116,51.892c0,0,11-10,18,1s-10,20-20,22"/>
	<path fill="none" stroke="#000000" stroke-miterlimit="10" d="M145.116,82.892c0,0,14-3,16,10s-12,18-21,12
		S145.116,82.892,145.116,82.892z"/>
	<path fill="none" stroke="#000000" stroke-miterlimit="10" d="M148.116,88.892c0,0,5,8,5,13s8-3,5-9S148.116,88.892,148.116,88.892
		z"/>
	<path fill="none" stroke="#000000" stroke-miterlimit="10" d="M122.116,131.892c0,0-18,6-18,14s2,13,17,10s25-12,23-23
		c-1-2-3-3-3-3"/>
	<path fill="none" stroke="#000000" stroke-miterlimit="10" d="M120.116,140.892c0,0-7,0-10,3s2,9,2,9s8-1,10-8
		C123.116,140.892,120.116,140.892,120.116,140.892z"/>
	<path fill="none" stroke="#000000" stroke-miterlimit="10" d="M91.116,176.892c0,0,17-18,23-20"/>
	<path fill="none" stroke="#000000" stroke-miterlimit="10" d="M142.544,105.892c-0.805,13.414-1.428,23-1.428,23s-34,2-52,10
		s-45-4-48-9s16-43,4-103c0,0,51,27,101,2c0,10.876-1.118,33.825-2.296,55"/>
</g>
</svg>
