<?xml version="1.0" encoding="utf-8"?>
<!-- Generator: Adobe Illustrator 16.2.0, SVG Export Plug-In . SVG Version: 6.00 Build 0)  -->
<!DOCTYPE svg PUBLIC "-//W3C//DTD SVG 1.1//EN" "http://www.w3.org/Graphics/SVG/1.1/DTD/svg11.dtd">
<svg version="1.1" id="Layer_1" xmlns="http://www.w3.org/2000/svg" xmlns:xlink="http://www.w3.org/1999/xlink" x="0px" y="0px"
	 width="173px" height="177px" viewBox="0 0 173 177" enable-background="new 0 0 173 177" xml:space="preserve">
<g>
	<path fill="none" stroke="#E0E0E0" stroke-miterlimit="10" d="M177,134c0-50.81-41.19-92-92-92S-7,83.19-7,134"/>
	<path fill="none" stroke="#E0E0E0" stroke-miterlimit="10" d="M171,134c0-47.496-38.503-86-86-86S-1,86.504-1,134"/>
	<path fill="none" stroke="#E0E0E0" stroke-miterlimit="10" d="M165,134c0-44.182-35.817-80-80-80S5,89.818,5,134"/>
	<path fill="none" stroke="#E0E0E0" stroke-miterlimit="10" d="M158,134c0-40.316-32.683-73-73-73s-73,32.684-73,73"/>
	<path fill="none" stroke="#E0E0E0" stroke-miterlimit="10" d="M151,134c0-36.451-29.549-66-66-66s-66,29.549-66,66"/>
	<path fill="none" stroke="#E0E0E0" stroke-miterlimit="10" d="M136,134c0-28.167-22.833-51-51-51s-51,22.833-51,51"/>
	<path fill="none" stroke="#E0E0E0" stroke-miterlimit="10" d="M129,134c0-24.3-19.7-44-44-44s-44,19.7-44,44"/>
	<path fill="none" stroke="#E0E0E0" stroke-miterlimit="10" d="M123,134c0-20.987-17.013-38-38-38s-38,17.013-38,38"/>
	<path fill="none" stroke="#E0E0E0" stroke-miterlimit="10" d="M116,134c0-17.121-13.879-31-31-31s-31,13.879-31,31"/>
	<path fill="none" stroke="#E0E0E0" stroke-miterlimit="10" d="M143,134c0-32.031-25.967-58-58-58s-58,25.969-58,58"/>
</g>
<path fill="none" stroke="#000000" stroke-miterlimit="10" d="M151.116,111.892c0,0,1,5-1,7"/>
<path fill="none" stroke="#000000" stroke-miterlimit="10" d="M111.116,60.892c9-5,7-15,7-15c-3-7,1-16,5-20c-24-18-39-12-39-12
	c-7,5-17,6-17,6s4,10,8,16s11,3,13,10c4,0,15,1,14,5"/>
<path fill="none" stroke="#000000" stroke-miterlimit="10" d="M119.116,51.892c0,0,5,1,17,12c-4,3-15,6-17,6c0,0-10-2-10-5"/>
<path fill="none" stroke="#000000" stroke-miterlimit="10" d="M113.116,59.892c0,0,16,1,22,3"/>
<path fill="none" stroke="#000000" stroke-miterlimit="10" d="M78.116,53.892c0,0-6,5-6,8s-1,8-6,9c0,0,36,4,42-3s-1-23-3-26"/>
<path fill="none" stroke="#000000" stroke-miterlimit="10" d="M62.116,35.892c0,0-9-1-12,2s-10,3-10,3s12,8,22,7"/>
<path fill="none" stroke="#000000" stroke-miterlimit="10" d="M73.116,60.892c-7-4-11-9-11-20s-7-14-7-14s5-6,13-4"/>
<path fill="none" stroke="#000000" stroke-miterlimit="10" d="M104.116,33.892c0,0,8,25-19,24c-14-2-12-23-12-23"/>
<path fill="none" stroke="#000000" stroke-miterlimit="10" d="M65.116,21.892c0,0,2-14,15-15s18-5,19-5s-3,8,6,13"/>
<path fill="none" stroke="#000000" stroke-miterlimit="10" d="M103.116,11.892c0,0,16-4,24,0c-4,4-8,5-9,9"/>
<path fill="none" stroke="#000000" stroke-miterlimit="10" d="M78.116,16.892c11-3,26,6,26,6c2,0,0,5,0,5c0,3,4,6-4,6
	c-15,1-10-9-10-9s1,7,7,4s-5-9-14-8s-12,6-3,11s24,9,22,17"/>
<path fill="none" stroke="#000000" stroke-miterlimit="10" d="M87.116,21.892c0,0-13,6,5,12"/>
<path fill="none" stroke="#000000" stroke-miterlimit="10" d="M93.116,18.892c0,0,6.089,1.921,8,5c1.963,3.164-0.373,7.493-10,8"/>
<path fill="none" stroke="#000000" stroke-miterlimit="10" d="M110.116,17.892c0,0,4-7,17-6"/>
<path fill="none" stroke="#000000" stroke-miterlimit="10" d="M43.116,41.892c0,0,15-2,18,1"/>
<path fill="none" stroke="#000000" stroke-miterlimit="10" d="M149.116,104.892c0,0,10-1,11,2s-4-12-20-13c-2-1-1-9,0-11s-4,10-9,11
	s-16-1-19,2c0,0,10-1,12,3c-1,3-5,9-4,12c3-3,13-7,14-12s-3,6,6,8c4,2,6,5,6,6s6-6-2-12s-5-3-5-5"/>
<path fill="none" stroke="#000000" stroke-miterlimit="10" d="M123.116,99.892c0,0-15,2-10,19s10,27,13,27s10,3,16-6s17-19,16-25
	s-2-9-6-10"/>
<path fill="none" stroke="#000000" stroke-miterlimit="10" d="M140.116,111.892c0,0,2,3,1,4"/>
<path fill="none" stroke="#000000" stroke-miterlimit="10" d="M137.116,119.892c0,0-2,4-3,7"/>
<path fill="none" stroke="#000000" stroke-miterlimit="10" d="M144.116,127.892c0,0-1,3-5,6"/>
<path fill="none" stroke="#000000" stroke-miterlimit="10" d="M135.116,137.892c0,0,0,3-2,4"/>
<path fill="none" stroke="#000000" stroke-miterlimit="10" d="M127.116,139.892c0,0,0,2,1,3"/>
<path fill="none" stroke="#000000" stroke-miterlimit="10" d="M128.116,130.892c0,0,1,3,1,5"/>
<path fill="none" stroke="#000000" stroke-miterlimit="10" d="M120.116,125.892c0,0,0,7,2,7"/>
<path fill="none" stroke="#000000" stroke-miterlimit="10" d="M122.116,113.892c0,0,1,6,2,8"/>
<path fill="none" stroke="#000000" stroke-miterlimit="10" d="M132.116,107.892c0,0-3,4-2,7"/>
<path fill="none" stroke="#000000" stroke-miterlimit="10" d="M116.116,107.892c0,0-1,5,0,7"/>
<g>
	<path fill="none" stroke="#000000" stroke-miterlimit="10" d="M42.116,101.892c0,0-12,8-9,22"/>
	<path fill="none" stroke="#000000" stroke-miterlimit="10" d="M66.116,98.892c0,0,13,4,13,22"/>
	<path fill="none" stroke="#000000" stroke-miterlimit="10" d="M51.116,88.892c1-6,9-4,9-4s-4,5-2,8c0,0,9-3,10-8s2,6-4,9"/>
	<path fill="none" stroke="#000000" stroke-miterlimit="10" d="M50.116,97.892c1-2-2-4-5-5s-7-6-7-6s1,7,5,10c0,0,0,3-7,1
		c0,0,1,9,16,3c3,2,15,7,13-7"/>
	<path fill="none" stroke="#000000" stroke-miterlimit="10" d="M55.116,96.892c0,0-1-8-5-9c0,3-3,4-3,5"/>
	<path fill="none" stroke="#000000" stroke-miterlimit="10" d="M69.116,89.892c0,0,23-2,23,26s-17,39-43,39s-41-23-41-37
		s10-28,30-27"/>
</g>
</svg>
