<?xml version="1.0" encoding="utf-8"?>
<!-- Generator: Adobe Illustrator 16.2.0, SVG Export Plug-In . SVG Version: 6.00 Build 0)  -->
<!DOCTYPE svg PUBLIC "-//W3C//DTD SVG 1.1//EN" "http://www.w3.org/Graphics/SVG/1.1/DTD/svg11.dtd">
<svg version="1.1" id="Layer_1" xmlns="http://www.w3.org/2000/svg" xmlns:xlink="http://www.w3.org/1999/xlink" x="0px" y="0px"
	 width="173px" height="162px" viewBox="0 0 173 162" enable-background="new 0 0 173 162" xml:space="preserve">
<g>
	<path fill="none" stroke="#000000" stroke-miterlimit="10" d="M84.116,161.892c0,0-6-12-8-31s-1-21,1-34s-26-21-27-22s-9,2-10,1
		s-8,1-12,1s0-10-2-10s-9,3-9-1s-2-7-8-6s-7-7-7-7s1-3,5-1s0-10,11-6c5,1,2-1,4-2s12-5,14,7c1,7,10,0,13,0s5,6,7,8s7-1,10,2
		s2,9,5,10s9,2,16-2c0,0,4-4,21,0c5-1,4-6,4-10s8-13,17-3c4,5,8-3,12-7s6-1,9,2s8,1,10,1s7,5,7,5s8,0,6,3c0,0-3-1-9,2s-12,4-14,5
		s2,12-11,7c-11,2-22,6-28,10c0,0-8,2-14,8s-14-2-16,16c0,0,0,42,9,54"/>
	<path fill="none" stroke="#000000" stroke-miterlimit="10" d="M85.116,17.892c0,0-6-3-8,12c-1,3-4,4-7,7c3,0,5-1,5-1s3,14,4,19
		s3,6,3,7s10-20,9-26c1-2,0-2,1-1s-2-7-2-11S87.116,16.892,85.116,17.892z"/>
	<path fill="none" stroke="#000000" stroke-miterlimit="10" d="M70.116,37.892c0,0-2,11-1,15s0,7,2,7s5-1,4-11c0-3-1-4-1-4"/>
	<path fill="none" stroke="#000000" stroke-miterlimit="10" d="M93.116,45.892c0,0-3,12,0,15l3-3c1-1,1-5,1-14s-5-8-5-8"/>
	<line fill="none" stroke="#000000" stroke-miterlimit="10" x1="96.116" y1="59.892" x2="110.116" y2="66.892"/>
	<path fill="none" stroke="#000000" stroke-miterlimit="10" d="M70.116,59.892c0,0-3,1-3,2"/>
	<circle cx="12.568" cy="93" r="1"/>
	<circle cx="61.568" cy="99" r="1"/>
	<circle cx="103.568" cy="127" r="2"/>
	<circle cx="115.568" cy="3" r="2"/>
	<circle cx="155.568" cy="128" r="1.5"/>
	<circle cx="166.568" cy="23" r="1.5"/>
	<circle cx="59.568" cy="18" r="1.5"/>
	<circle cx="27.568" cy="151" r="1"/>
</g>
</svg>
