<?xml version="1.0" encoding="utf-8"?>
<!-- Generator: Adobe Illustrator 16.2.0, SVG Export Plug-In . SVG Version: 6.00 Build 0)  -->
<!DOCTYPE svg PUBLIC "-//W3C//DTD SVG 1.1//EN" "http://www.w3.org/Graphics/SVG/1.1/DTD/svg11.dtd">
<svg version="1.1" id="Layer_1" xmlns="http://www.w3.org/2000/svg" xmlns:xlink="http://www.w3.org/1999/xlink" x="0px" y="0px"
	 width="173px" height="166px" viewBox="0 0 173 166" enable-background="new 0 0 173 166" xml:space="preserve">
<g>
	<path fill="none" stroke="#000000" stroke-miterlimit="10" d="M56.116,166.892c0,0,7-21-2-43s-14-59-20-69s1-22,9-9s11,23,11,23
		s3,8,4-3s-3-41-3-41s-1.278-9.478,3-11c4-1.42,7-1,8,5c3,20,3,39,3,39s4,10,6,0s4-49,4-49s1-7,7-7s6,9,6,9l-4,44c0,0,3,13,8,3
		s12-38,12-38s1-11,9-8c4,2,2,10,2,10l-9,45c0,0-5,30,9,30c10-6,13-11,20-16s18-14,18,0c-5,11-13,18-18,26c0,0-19,23-26,30
		c-6,7-8,22-7,30"/>
</g>
</svg>
