<?xml version="1.0" encoding="utf-8"?>
<!-- Generator: Adobe Illustrator 16.2.0, SVG Export Plug-In . SVG Version: 6.00 Build 0)  -->
<!DOCTYPE svg PUBLIC "-//W3C//DTD SVG 1.1//EN" "http://www.w3.org/Graphics/SVG/1.1/DTD/svg11.dtd">
<svg version="1.1" id="Layer_1" xmlns="http://www.w3.org/2000/svg" xmlns:xlink="http://www.w3.org/1999/xlink" x="0px" y="0px"
	 width="173px" height="168px" viewBox="0 0 173 168" enable-background="new 0 0 173 168" xml:space="preserve">
<g>
	<path fill="none" stroke="#000000" stroke-miterlimit="10" d="M-0.134,1.142c0,0,40.25,8.75,46.25,18.75s4,8,4,11s8,22,5,36
		s1,10,4,19c0.949,2.846,7,12-4,14c0,0-1,8-3,8c0,2-1,7-3,8s2,20-12,14c-17-4-22,6-22,15s4.417,24.418,4.417,24.418"/>
	<line fill="none" stroke="#000000" stroke-miterlimit="10" x1="51.116" y1="97.892" x2="47.116" y2="94.892"/>
	<path fill="none" stroke="#000000" stroke-miterlimit="10" d="M52.116,108.892c0,0-9-1-10-2"/>
	<path fill="none" stroke="#000000" stroke-miterlimit="10" d="M37.116,65.892c0,0,12-3,12,3"/>
	<path fill="none" stroke="#000000" stroke-miterlimit="10" d="M45.116,73.892c0,0,3-8-13,0"/>
	<path fill="none" stroke="#000000" stroke-miterlimit="10" d="M40.116,78.892c0,0,5-1,6-4"/>
	<path fill="none" stroke="#000000" stroke-miterlimit="10" d="M43.116,70.892c0,0-6,2-8,2s9,4,10,2"/>
	<circle fill="none" stroke="#000000" stroke-miterlimit="10" cx="43.116" cy="72.892" r="2"/>
	<line fill="none" stroke="#000000" stroke-miterlimit="10" x1="57.116" y1="72.892" x2="169.116" y2="37.892"/>
	<line fill="none" stroke="#000000" stroke-miterlimit="10" x1="57.116" y1="72.892" x2="169.116" y2="107.892"/>
</g>
</svg>
