<?xml version="1.0" encoding="utf-8"?>
<!-- Generator: Adobe Illustrator 16.2.0, SVG Export Plug-In . SVG Version: 6.00 Build 0)  -->
<!DOCTYPE svg PUBLIC "-//W3C//DTD SVG 1.1//EN" "http://www.w3.org/Graphics/SVG/1.1/DTD/svg11.dtd">
<svg version="1.1" id="Layer_1" xmlns="http://www.w3.org/2000/svg" xmlns:xlink="http://www.w3.org/1999/xlink" x="0px" y="0px"
	 width="173px" height="159px" viewBox="0 0 173 159" enable-background="new 0 0 173 159" xml:space="preserve">
<g>
	<circle fill="none" stroke="#000000" stroke-miterlimit="10" cx="88.646" cy="79.474" r="78"/>
	<path fill="none" stroke="#000000" stroke-miterlimit="10" d="M66.646,153.474c0,0,3-7,6-7s6-4,6-7s5-6,6-7s-6-6-12-8s-8-4-8-4
		s-2-7-6-7s-6-7-10-7s-8-4-9-2s-4,2-4,2s1-1,0,2s-2,6-2,8s5,7,5,11s5,5,6,7s3,11,3,11"/>
	<path fill="none" stroke="#000000" stroke-miterlimit="10" d="M128.646,145.474c0,0,2-7,4-9s2-5,2-7s-3-3-2-5s3-6,2-6s-5-3-5-3
		s-9,2-11,3s-7-7-7-7s-3-1-3-3s1-3,2-6s0-7,0-8s4-9,5-9s5-4,6-7s2-7,5-8s9-5,11-3l7,7l6,5c0,0,0-6,2-4s5,3,7,3s4,1,4-1s2-6,2-6
		s-8-1-8-4s2-5,3-5s4,1,4,1"/>
	<path fill="none" stroke="#000000" stroke-miterlimit="10" d="M165.646,92.474c0,0-3-6-3-8s3,2,3,2"/>
	<path fill="none" stroke="#000000" stroke-miterlimit="10" d="M162.646,57.474l-5-2c0,0-2,7-4,8s-1,4-1,5s-3-6-4-8s-4-7-6-5
		s-8,3-8,4s-3,3-3,4s-5,6-6,3s-3-4-3-7s4-6,5-5s2-2,2-3s-4-6-1-7s6-4,10-4s8-1,9-2s3-5,3-5"/>
	<path fill="none" stroke="#000000" stroke-miterlimit="10" d="M131.646,40.474c0,0-6,3-7,2s1-4,1-6s-3.53-8.265-1-7c2,1,3,8,2,6
		C126.646,35.474,131.646,39.474,131.646,40.474z"/>
	<path fill="none" stroke="#000000" stroke-miterlimit="10" d="M122.646,35.474c0,0-4,0-3,2s-1,2,2,2S122.646,35.474,122.646,35.474
		z"/>
	<path fill="none" stroke="#000000" stroke-miterlimit="10" d="M138.646,20.474c0,0-1,4-4,5s-4,4-2,4s0,3,2,4s2-3,4-1s2,5,3,5
		s4-3,3-5s-1-7-1-7"/>
	<path fill="none" stroke="#000000" stroke-miterlimit="10" d="M113.646,19.474c0,0-2,2-3,2s-4-1-5-2s-1-2,1-2s5-1,6,0
		S113.646,19.474,113.646,19.474z"/>
	<path fill="none" stroke="#000000" stroke-miterlimit="10" d="M107.646,4.474c0,0,0,1-1,3s0,4-3,5s-8,1-9,3s-7,5-8,7s-6,4-7,1
		s-6-4-3-6s2-2,3-5s-1,2-2-1s0-9,0-9"/>
	<path fill="none" stroke="#000000" stroke-miterlimit="10" d="M33.646,105.474c0,0-4-2-4-7s-2-4-3-3s0-7,0-7s-4,3-5,3s-1-7-1-10
		s7-5,9-4s4,6,4,6s0-11,5-13s3-9,6-10s9-9,10-9s10-3,7-4s-5-4-4-6s4.927,0,5.927,0s-1.073,3,2.927,3s0-5,0-7s-4.927-11-4.927-12
		s-0.964,5-2.964,4s-0.982-6-1.982-5s-6.991,2-6.991,4s-1.995,7-3.995,10s-3.998,4-3.998,0s-5.999-7-4.999-8s10-10,12-9s6-8,8-8
		s1,5,0,7s0,3,2,3s4-1,5-2s1-2,3-3s3-3,0-4s-2-4-2-4l-6-3"/>
	<path fill="none" stroke="#000000" stroke-miterlimit="10" d="M11.646,89.474c0,0,5,4,8,5s4,4,6,6s7,7,8,6"/>
</g>
</svg>
