<?xml version="1.0" encoding="utf-8"?>
<!-- Generator: Adobe Illustrator 16.2.0, SVG Export Plug-In . SVG Version: 6.00 Build 0)  -->
<!DOCTYPE svg PUBLIC "-//W3C//DTD SVG 1.1//EN" "http://www.w3.org/Graphics/SVG/1.1/DTD/svg11.dtd">
<svg version="1.1" id="Layer_1" xmlns="http://www.w3.org/2000/svg" xmlns:xlink="http://www.w3.org/1999/xlink" x="0px" y="0px"
	 width="173px" height="174px" viewBox="0 0 173 174" enable-background="new 0 0 173 174" xml:space="preserve">
<g>
	<path fill="none" stroke="#000000" stroke-miterlimit="10" d="M98.727,40.254c-2.323,10.286-8.654,17.96-17.032,19.169
		c-12.178,1.76-24.071-10.801-26.563-28.052C52.64,14.119,60.363,3.952,72.541,2.194c10.63-1.537,21.141,3.843,25.299,16.708"/>
	<path fill="none" stroke="#000000" stroke-miterlimit="10" d="M124.948,26.69c1.633,11.308-3.513,21.409-11.495,22.562
		c-7.982,1.153-15.776-7.078-17.41-18.387c-1.633-11.307,3.429-17.969,11.41-19.123C115.435,10.588,123.315,15.382,124.948,26.69z"
		/>
	<line fill="none" stroke="#000000" stroke-miterlimit="10" x1="70.283" y1="38.396" x2="74.009" y2="37.157"/>
	<line fill="none" stroke="#000000" stroke-miterlimit="10" x1="117.099" y1="30.971" x2="119.884" y2="30.042"/>
	<path fill="none" stroke="#000000" stroke-miterlimit="10" d="M109.673,35.612c0,0-0.928,5.569,2.785,5.569"/>
	<line fill="none" stroke="#000000" stroke-miterlimit="10" x1="110.601" y1="44.896" x2="113.386" y2="43.967"/>
	<line fill="none" stroke="#000000" stroke-miterlimit="10" x1="116.171" y1="27.258" x2="121.292" y2="27.989"/>
	<line fill="none" stroke="#000000" stroke-miterlimit="10" x1="105.556" y1="35.709" x2="102.621" y2="35.761"/>
	<line fill="none" stroke="#000000" stroke-miterlimit="10" x1="105.195" y1="31.899" x2="100.609" y2="34.294"/>
	<line fill="none" stroke="#000000" stroke-miterlimit="10" x1="67.799" y1="34.671" x2="74.142" y2="31.9"/>
	<line fill="none" stroke="#000000" stroke-miterlimit="10" x1="93.817" y1="29.422" x2="90.21" y2="30.975"/>
	<line fill="none" stroke="#000000" stroke-miterlimit="10" x1="93.191" y1="24.989" x2="86.612" y2="27.141"/>
	<path fill="none" stroke="#000000" stroke-miterlimit="10" d="M79.967,32.827c0,0,3.713,7.427,3.713,12.996
		c0,5.57,2.785,2.784,3.714,1.856"/>
	<line fill="none" stroke="#000000" stroke-miterlimit="10" x1="82.752" y1="55.106" x2="89.25" y2="53.25"/>
	<path fill="none" stroke="#000000" stroke-miterlimit="10" d="M124.525,39.325l12.068,3.713c0,0,11.139,1.857,5.57,16.71
		c-5.57,14.853,0.928,56.626-34.348,44.558C72.541,92.239,95.749,87.597,65.114,83.885"/>
	<path fill="none" stroke="#000000" stroke-miterlimit="10" d="M52.118,46.754c0,0-2.785,20.42,2.785,28.774"/>
	<path fill="none" stroke="#000000" stroke-miterlimit="10" d="M64.186,53.249c0,0,5.57,16.711,4.642,18.567"/>
	<path fill="none" stroke="#000000" stroke-miterlimit="10" d="M51.19,66.245c0,0-15.781,13.925-11.14,31.562
		c4.642,17.638,25.064,64.053,25.064,64.053s12.996,21.352,32.491,6.499c19.494-14.853,45.486-41.773,49.2-49.201
		c3.713-7.426,18.566-27.849-0.929-45.486"/>
</g>
</svg>
