<?xml version="1.0" encoding="utf-8"?>
<!-- Generator: Adobe Illustrator 16.2.0, SVG Export Plug-In . SVG Version: 6.00 Build 0)  -->
<!DOCTYPE svg PUBLIC "-//W3C//DTD SVG 1.1//EN" "http://www.w3.org/Graphics/SVG/1.1/DTD/svg11.dtd">
<svg version="1.1" id="Layer_1" xmlns="http://www.w3.org/2000/svg" xmlns:xlink="http://www.w3.org/1999/xlink" x="0px" y="0px"
	 width="173px" height="133px" viewBox="0 0 173 133" enable-background="new 0 0 173 133" xml:space="preserve">
<g>
	<path fill="none" stroke="#000000" stroke-miterlimit="10" d="M-2.884,134.422c0,0,9.019-7.893,37.204-16.911
		c5.636-6.765,10.146-10.218,5.636-22.619"/>
	<path fill="none" stroke="#000000" stroke-miterlimit="10" d="M25.301,56.632c0,0,4.51,33.821,21.42,43.968
		c4.51,2.256,9.395,2.292,9.395,2.292"/>
	<path fill="none" stroke="#000000" stroke-miterlimit="10" d="M87.307,56.632c0,0-4.509,33.821-21.42,43.968
		c-4.51,2.256-9.771,2.292-9.771,2.292"/>
	<path fill="none" stroke="#000000" stroke-miterlimit="10" d="M52.358,75.798c0,0,4.51,3.382,7.892,0"/>
	<path fill="none" stroke="#000000" stroke-miterlimit="10" d="M56.868,84.816c-3.382-2.255-7.892,2.256-7.892,2.256
		s2.255,4.509,6.764,4.509c4.51,0,7.893-4.509,7.893-4.509s-4.51-4.511-7.893-2.256"/>
	<path fill="none" stroke="#000000" stroke-miterlimit="10" d="M51.231,87.073c0,0,4.509,2.254,10.146,0"/>
	<path fill="none" stroke="#000000" stroke-miterlimit="10" d="M48.976,54.377c0,0-5.637-9.019-18.038-2.255"/>
	<path fill="none" stroke="#000000" stroke-miterlimit="10" d="M63.632,54.377c0,0,5.637-9.019,18.038-2.255"/>
	<circle fill="none" stroke="#000000" stroke-miterlimit="10" cx="41.084" cy="58.886" r="3.382"/>
	<circle fill="none" stroke="#000000" stroke-miterlimit="10" cx="39.957" cy="57.759" r="2.255"/>
	<path fill="none" stroke="#000000" stroke-miterlimit="10" d="M47.849,60.015c0,0-3.382-9.02-16.911-2.256"/>
	<circle fill="none" stroke="#000000" stroke-miterlimit="10" cx="72.651" cy="58.886" r="3.382"/>
	<circle fill="none" stroke="#000000" stroke-miterlimit="10" cx="71.524" cy="57.759" r="2.255"/>
	<path fill="none" stroke="#000000" stroke-miterlimit="10" d="M64.759,60.015c0,0,3.382-9.02,16.911-2.256"/>
	<path fill="none" stroke="#000000" stroke-miterlimit="10" d="M35.447,10.408c0,0,20.293-24.801,52.987,6.766"/>
	<path fill="none" stroke="#000000" stroke-miterlimit="10" d="M78.288,36.339c0,0,14.656,7.893,19.166,20.293
		c4.509,12.4,7.891,29.311,21.42,31.567"/>
	<path fill="none" stroke="#000000" stroke-miterlimit="10" d="M29.811,12.665c0,0-24.803,14.655-16.911,47.351"/>
	<path fill="none" stroke="#000000" stroke-miterlimit="10" d="M33.192,17.174c0,0-3.382,24.802,25.93,22.546"/>
	<path fill="none" stroke="#000000" stroke-miterlimit="10" d="M95.199,109.619c-9.019-7.893-5.637-22.546-5.637-22.546
		c2.255-10.146,4.51-43.97-12.401-45.097c-16.911-1.127-27.058-9.018-27.058-9.018"/>
	<path fill="none" stroke="#000000" stroke-miterlimit="10" d="M81.67,90.453c0,0-7.892,42.841,31.567,37.204"/>
	<path fill="none" stroke="#000000" stroke-miterlimit="10" d="M89.562,113.001c0,0,9.019,18.039,25.93,14.656"/>
	<path fill="none" stroke="#000000" stroke-miterlimit="10" d="M101.963,81.435c0,0,19.165,73.28,71.025,32.695
		c-18.038,10.146-40.586,10.146-46.223,1.126"/>
	<path fill="none" stroke="#000000" stroke-miterlimit="10" d="M140.294,99.473c0,0,15.784,22.547,33.822,2.254"/>
	<path fill="none" stroke="#000000" stroke-miterlimit="10" d="M121.129,65.65c0,0,9.019,24.803,27.057,22.549"/>
	<path fill="none" stroke="#000000" stroke-miterlimit="10" d="M92.944,22.811c0,0,19.166,30.438,22.548,45.095
		c3.382,14.656,21.42,34.95,40.586,20.294"/>
	<path fill="none" stroke="#000000" stroke-miterlimit="10" d="M32.065,35.211c0,0-3.382,12.401-6.764,15.784
		c-3.382,3.382-4.509,14.655-4.509,18.037"/>
	<path fill="none" stroke="#000000" stroke-miterlimit="10" d="M23.046,41.976c0,0-15.783,34.95,7.892,48.478"/>
</g>
</svg>
