<?xml version="1.0" encoding="utf-8"?>
<!-- Generator: Adobe Illustrator 16.2.0, SVG Export Plug-In . SVG Version: 6.00 Build 0)  -->
<!DOCTYPE svg PUBLIC "-//W3C//DTD SVG 1.1//EN" "http://www.w3.org/Graphics/SVG/1.1/DTD/svg11.dtd">
<svg version="1.1" id="Layer_1" xmlns="http://www.w3.org/2000/svg" xmlns:xlink="http://www.w3.org/1999/xlink" x="0px" y="0px"
	 width="173px" height="166px" viewBox="0 0 173 166" enable-background="new 0 0 173 166" xml:space="preserve">
<g>
	<path fill="none" stroke="#000000" stroke-miterlimit="10" d="M71.568,52c0.438,2.803-0.673,5.677-2,8c-4,7-12,10-15,11
		s-19,6-21,17s-2,10-2,13s-13,22-12,27s2,4,2,6s3,8,6,9h2c0,0,10,2,17-19c0,0,10-10,20-9s13-2,13-2s3-4-12-2c1-2,18-4,18-7
		s-17,1-19,0c0,0,9.312-7.156,13-9c4-2,6-7,0-4c0,0-14,7-16,7s11-8,11-8s3-4-1-4s-15,8-15,8s-8,6-5-1c3-3,4.4-9.8,2-8c-4,3-9,6-10,9
		s0,9-2,11c0,0-10,10-13,13s-7,3-7,3"/>
	<path fill="none" stroke="#000000" stroke-miterlimit="10" d="M96.568,50c-0.278,1.127,0,2,0,4c0,5.099,2,9,9,12s20,5,23,13
		c4,7,4,8,7,19c0,0,15,20,15,23s-2,8-2,12s-4,12-12,6s-12-11-14-15s-13-12-20-12s-18,2-18,0s0-2,2-3l10-1c0,0,1-2-2-3
		c-4-1-13-3-14-4s0-2,2-2s13,2,13,2s3-1,0-2s-12-7-12-7s-1-2,0-3s1-1,3,0s12,6,12,6s3,1,1-2s-10-7-10-7s-1-1,0-2s2-1,4,0s13,8,13,8
		h5c0,0-6-7-3-11c2-1,3,2,4,4s7,6,8,13c2,5,17,17,17,17s4,0,6,1"/>
	<path fill="none" stroke="#000000" stroke-miterlimit="10" d="M49.568,121c0,0,2,23-1,45"/>
	<path fill="none" stroke="#000000" stroke-miterlimit="10" d="M117.568,120c0,0-1.347,24,1.653,46"/>
	<path fill="none" stroke="#000000" stroke-miterlimit="10" d="M103.568,24c0-16.568-10.611-23-20-23c-9.39,0-20,6.432-20,23
		s10.61,37,20,37C92.958,61,103.568,40.568,103.568,24z"/>
</g>
</svg>
