<?xml version="1.0" encoding="utf-8"?>
<!-- Generator: Adobe Illustrator 16.2.0, SVG Export Plug-In . SVG Version: 6.00 Build 0)  -->
<!DOCTYPE svg PUBLIC "-//W3C//DTD SVG 1.1//EN" "http://www.w3.org/Graphics/SVG/1.1/DTD/svg11.dtd">
<svg version="1.1" id="Layer_1" xmlns="http://www.w3.org/2000/svg" xmlns:xlink="http://www.w3.org/1999/xlink" x="0px" y="0px"
	 width="173px" height="172px" viewBox="0 0 173 172" enable-background="new 0 0 173 172" xml:space="preserve">
<g>
	<path fill="none" stroke="#000000" stroke-miterlimit="10" d="M30.116,77.892c-8,1,1,41,2,42s19,35,25,35s5,0,21-5s33-22,43-22"/>
	<path fill="none" stroke="#000000" stroke-miterlimit="10" d="M55.116,97.892c0,0,9,22,9,31c7,0,42-8,52-7"/>
	<path fill="none" stroke="#000000" stroke-miterlimit="10" d="M59.116,109.892c0,0-21,1-25,11"/>
	<path fill="none" stroke="#000000" stroke-miterlimit="10" d="M113.116,95.892c0,0-4,10,1,20s3,13,3,13"/>
	<path fill="none" stroke="#000000" stroke-miterlimit="10" d="M113.116,109.892c0,0,8-7,23,0"/>
	<path fill="none" stroke="#000000" stroke-miterlimit="10" d="M57.116,62.892c0,0,16,16,25,17s11-16,11-16"/>
	<path fill="none" stroke="#000000" stroke-miterlimit="10" d="M91.116,51.892v11c0,0,23,10,32,12"/>
	<path fill="none" stroke="#000000" stroke-miterlimit="10" d="M123.116,74.892c6,3,15,43,13,32c0,0,8,25,6,38c-1,2-1,5-2,6
		c0,0-41,10-63-1"/>
	<line fill="none" stroke="#000000" stroke-miterlimit="10" x1="120.116" y1="154.892" x2="121.116" y2="172.892"/>
	<line fill="none" stroke="#000000" stroke-miterlimit="10" x1="41.116" y1="135.892" x2="42.116" y2="172.892"/>
	<path fill="none" stroke="#000000" stroke-miterlimit="10" d="M30.116,77.892c0,0,13-9,28-15c6.457-2.767,6.107-9.788,6.014-14
		c-0.008-0.354-0.014-0.689-0.014-1"/>
	<path fill="none" stroke="#000000" stroke-miterlimit="10" d="M65.116,49.892c0,0,17,26,29-4c2-5,1-14,1-14s2-16-4-18s-19-1-22-4
		s-6,13-6,18v19L65.116,49.892z"/>
	<path fill="none" stroke="#000000" stroke-miterlimit="10" d="M62.116,31.892c0,0-3-6-3-2s-1,9,3,13"/>
	<path fill="none" stroke="#000000" stroke-miterlimit="10" d="M96.005,31.892c0,0,3-6,3-2s1,9-3,13"/>
	<path fill="none" stroke="#000000" stroke-miterlimit="10" d="M98.116,28.892c0,0,3-17-5-23s-13-6-20-5c0,0-9,0-13,8s0,20,0,20"/>
	<path fill="none" stroke="#000000" stroke-miterlimit="10" d="M66.116,27.892c0,0,9-2,11,0"/>
	<path fill="none" stroke="#000000" stroke-miterlimit="10" d="M69.116,30.892c0,0,8-2,8,0"/>
	<path fill="none" stroke="#000000" stroke-miterlimit="10" d="M94.116,27.892c0,0-9-2-11,0"/>
	<path fill="none" stroke="#000000" stroke-miterlimit="10" d="M91.116,30.892c0,0-8-2-8,0"/>
	<path fill="none" stroke="#000000" stroke-miterlimit="10" d="M81.116,28.892l2,10c0,0,0,3-5,3"/>
	<path fill="none" stroke="#000000" stroke-miterlimit="10" d="M74.116,47.892c0,0,6,2,10,0"/>
</g>
</svg>
