<?xml version="1.0" encoding="utf-8"?>
<!-- Generator: Adobe Illustrator 16.2.0, SVG Export Plug-In . SVG Version: 6.00 Build 0)  -->
<!DOCTYPE svg PUBLIC "-//W3C//DTD SVG 1.1//EN" "http://www.w3.org/Graphics/SVG/1.1/DTD/svg11.dtd">
<svg version="1.1" id="Layer_1" xmlns="http://www.w3.org/2000/svg" xmlns:xlink="http://www.w3.org/1999/xlink" x="0px" y="0px"
	 width="173px" height="135px" viewBox="0 0 173 135" enable-background="new 0 0 173 135" xml:space="preserve">
<g>
	<path fill="none" stroke="#000000" stroke-miterlimit="10" d="M12.116,134.892c0,0-4-17-1-31s-1-22,0-27s-5-15,3-25c0,0,1-4,4-2
		s0,4,0,4"/>
	<path fill="none" stroke="#000000" stroke-miterlimit="10" d="M19.116,67.892c0,0,1-14,8-18s9-5,13-5s7,1,7,1l1,2"/>
	<path fill="none" stroke="#000000" stroke-miterlimit="10" d="M25.116,66.892l7-8c0,0,6-8,11-9c0,0,14-7,16-3c-1,3,0,1-7,7
		c0,0-8,4-10,9s-6,10-6,13s4,12,13,2"/>
	<path fill="none" stroke="#000000" stroke-miterlimit="10" d="M54.116,45.892v-3l-4-2c0,0-11-1-19,3c-9,7-13,10-14,14s-4,18-4,18"
		/>
	<path fill="none" stroke="#000000" stroke-miterlimit="10" d="M62.116,75.892c0,0-9,12-12,17s-13,18-15,20s0,18,3,22"/>
	<path fill="none" stroke="#000000" stroke-miterlimit="10" d="M37.116,78.892c1,0,29-3,37-4s17-2,17-4s-1-3-9-3s-30,1-33,4
		c-4,2-12,3-12,3"/>
	<path fill="none" stroke="#000000" stroke-miterlimit="10" d="M46.116,58.892c0,0,39-2,41-3s-1-8-8-9s-20,1-20,1"/>
	<path fill="none" stroke="#000000" stroke-miterlimit="10" d="M40.116,67.892c0,0,11-2,18-4s6,4,8,3s3-9,1-9"/>
	<path fill="none" stroke="#000000" stroke-miterlimit="10" d="M44.116,59.892c0,0,3,4,7,2s9-3,11-3s6-1,6-1"/>
	<path fill="none" stroke="#000000" stroke-miterlimit="10" d="M69.116,57.892c0,0-1,3,4,3s8-3,8,0s1,4,2,5s3,3,4,1s-5-9-5-9l-5-1"
		/>
	<path fill="none" stroke="#000000" stroke-miterlimit="10" d="M68.116,62.892c0,0,10,0,12-1"/>
	<path fill="none" stroke="#000000" stroke-miterlimit="10" d="M67.116,66.892c0,0,11,2,15-1"/>
	<path fill="none" stroke="#000000" stroke-miterlimit="10" d="M85.116,55.892c0,0,5,6,4,9s-3,1-3,1"/>
	<path fill="none" stroke="#000000" stroke-miterlimit="10" d="M90.116,53.892c0,0,9-3,12,11"/>
	<path fill="none" stroke="#000000" stroke-miterlimit="10" d="M87.116,82.892c-5,1,10,0,15-12c1-4,0-7,0-7"/>
	<path fill="none" stroke="#000000" stroke-miterlimit="10" d="M90.116,54.892c0,0,4,7,3,13s-3,13-8,15"/>
	<path fill="none" stroke="#000000" stroke-miterlimit="10" d="M86.116,83.892c0,0,3,2,2,9s3,10,13,9s25-8,25-8"/>
	<path fill="none" stroke="#000000" stroke-miterlimit="10" d="M111.116,100.892c0,0,6,11,7,23"/>
	<path fill="none" stroke="#000000" stroke-miterlimit="10" d="M115.116,113.892c0,0-7,3-22,4s-27,12-28,15"/>
	<path fill="none" stroke="#000000" stroke-miterlimit="10" d="M91.116,52.892c0,0,3-3,4-5s-7-6-4-10s16-8,16-8"/>
	<path fill="none" stroke="#000000" stroke-miterlimit="10" d="M105.116,29.892c0,0-1-4,4-8s13-13,13-13s5-7,12-6c4-1,19-6,40,8"/>
	<path fill="none" stroke="#000000" stroke-miterlimit="10" d="M111.116,27.892c0,0,8-8,19,1"/>
	<path fill="none" stroke="#000000" stroke-miterlimit="10" d="M124.116,36.892c-1-1-11-2-11-2s-3,4,7,3"/>
	<path fill="none" stroke="#000000" stroke-miterlimit="10" d="M158.116,54.892c0,0,15-2,11,7s-14,16-25,13"/>
	<path fill="none" stroke="#000000" stroke-miterlimit="10" d="M125.116,6.892c0,0,23,3,22,12s-7,6,2,13s-5,13,1,18s4,5,4,5"/>
	<path fill="none" stroke="#000000" stroke-miterlimit="10" d="M101.116,59.892c0,0-8-5-9-3"/>
	<path fill="none" stroke="#000000" stroke-miterlimit="10" d="M90.116,78.892c0,0-1,3,5,0"/>
	<path fill="none" stroke="#000000" stroke-miterlimit="10" d="M93.116,60.892c0,0,8,5,9,5"/>
</g>
</svg>
