<?xml version="1.0" encoding="utf-8"?>
<!-- Generator: Adobe Illustrator 16.2.0, SVG Export Plug-In . SVG Version: 6.00 Build 0)  -->
<!DOCTYPE svg PUBLIC "-//W3C//DTD SVG 1.1//EN" "http://www.w3.org/Graphics/SVG/1.1/DTD/svg11.dtd">
<svg version="1.1" id="Layer_1" xmlns="http://www.w3.org/2000/svg" xmlns:xlink="http://www.w3.org/1999/xlink" x="0px" y="0px"
	 width="173px" height="150px" viewBox="0 0 173 150" enable-background="new 0 0 173 150" xml:space="preserve">
<g>
	<polygon fill="none" stroke="#000000" stroke-miterlimit="10" points="146.022,15.923 117.116,0.892 73.178,35.579 14.21,130.392 
		39.647,148.892 130.991,66.798 	"/>
	<path fill="none" stroke="#000000" stroke-miterlimit="10" d="M129.835,26.33c0,7.024-6.85,13.875-13.875,13.875
		c-7.024,0-12.719-5.694-12.719-12.72c0-7.023,6.851-13.875,13.875-13.875C124.141,13.61,129.835,19.305,129.835,26.33z"/>
	<line fill="none" stroke="#000000" stroke-miterlimit="10" x1="119.429" y1="25.173" x2="124.054" y2="27.485"/>
	<line fill="none" stroke="#000000" stroke-miterlimit="10" x1="112.491" y1="21.705" x2="117.116" y2="24.017"/>
	<line fill="none" stroke="#000000" stroke-miterlimit="10" x1="111.335" y1="29.799" x2="115.96" y2="32.11"/>
	<polyline fill="none" stroke="#000000" stroke-miterlimit="10" points="56.991,114.205 39.647,135.017 35.022,132.705 	"/>
	<polyline fill="none" stroke="#000000" stroke-miterlimit="10" points="46.585,104.954 29.241,125.766 24.616,123.454 	"/>
	<path fill="none" stroke="#000000" stroke-miterlimit="10" d="M105.554,35.579c0,0-2.682,1.849-6.938,5.07
		c-14.485,10.969-47.194,37.863-54.343,61.993c0,0,4.625,8.094,15.031,11.562c52.031-35.843,56.656-74,56.656-74"/>
	<path fill="none" stroke="#000000" stroke-miterlimit="10" d="M83.585,52.923c0,0,4.625,8.093,18.5,4.625"/>
	<path fill="none" stroke="#000000" stroke-miterlimit="10" d="M106.71,64.485c0,0-12.719,0-15.031-12.719"/>
</g>
</svg>
