<?xml version="1.0" encoding="utf-8"?>
<!-- Generator: Adobe Illustrator 16.2.0, SVG Export Plug-In . SVG Version: 6.00 Build 0)  -->
<!DOCTYPE svg PUBLIC "-//W3C//DTD SVG 1.1//EN" "http://www.w3.org/Graphics/SVG/1.1/DTD/svg11.dtd">
<svg version="1.1" id="Layer_1" xmlns="http://www.w3.org/2000/svg" xmlns:xlink="http://www.w3.org/1999/xlink" x="0px" y="0px"
	 width="173px" height="159px" viewBox="0 0 173 159" enable-background="new 0 0 173 159" xml:space="preserve">
<g>
	<path fill="none" stroke="#000000" stroke-miterlimit="10" d="M143.116,25.892c0,0-2-17-33-16c-32,0-60,5-68,8s-16,4-18,26
		s0,22,0,22s0,10,25,13s53,8,53,8s41,6,47-18C150.116,46.892,143.116,25.892,143.116,25.892z"/>
	<path fill="none" stroke="#000000" stroke-miterlimit="10" d="M160.116,81.892c0,0,5-31,0-45s-5-31-24-34s-49-1-58,0
		c-6.848,0.762-35,4.63-47,8.815c-12,4.185-19,13.185-20,35.185c0,0-6,30,21,35s43,9,78,12S157.116,86.892,160.116,81.892z"/>
	<line fill="none" stroke="#000000" stroke-miterlimit="10" x1="159.116" y1="84.892" x2="173.116" y2="96.892"/>
	<line fill="none" stroke="#000000" stroke-miterlimit="10" x1="145.116" y1="91.892" x2="151.116" y2="114.892"/>
	<line fill="none" stroke="#000000" stroke-miterlimit="10" x1="173.116" y1="105.892" x2="50.116" y2="158.892"/>
	<path fill="none" stroke="#000000" stroke-miterlimit="10" d="M75.568,12c0,0,7,7,5,15S72,43,74,50c-6,15-10.432,27-11.432,30"/>
	<path fill="none" stroke="#000000" stroke-miterlimit="10" d="M71.568,81c2-2,3-7,6-12c4-3,11-19,11-19s3,18,5,21c0,3-1,11-1,13"/>
	<path fill="none" stroke="#000000" stroke-miterlimit="10" d="M99.568,11c0,0-4,7-4,9s8.167,11.881,9.432,22c1,8,0.162,12.025,0,13
		c-1,6-0.602,6.851-2.432,16c-2,10-2,15-2,15"/>
	<path fill="none" stroke="#000000" stroke-miterlimit="10" d="M105.568,10c0,0,0,9,3,12s7,22,7,23s5.076,7.17,3,8c-5,2-5-5-5-7
		c0,0-11-17-11-22s-3-12-3-12"/>
	<path fill="none" stroke="#000000" stroke-miterlimit="10" d="M70.568,13c0,0,0.16,6-2.84,9s-7,22-7,23s-4.989,6.979-3,8
		c5.84,3,5-5,5-7c0,0,11-17,11-22c0-2.915,1.989-8.509,2.84-11"/>
	<path fill="none" stroke="#000000" stroke-miterlimit="10" d="M89,43c0,0-3,10,7,10"/>
	<path fill="none" stroke="#000000" stroke-miterlimit="10" d="M89,43c0,0,1.578,10-8.422,10"/>
</g>
</svg>
