<?xml version="1.0" encoding="utf-8"?>
<!-- Generator: Adobe Illustrator 16.2.0, SVG Export Plug-In . SVG Version: 6.00 Build 0)  -->
<!DOCTYPE svg PUBLIC "-//W3C//DTD SVG 1.1//EN" "http://www.w3.org/Graphics/SVG/1.1/DTD/svg11.dtd">
<svg version="1.1" id="Layer_1" xmlns="http://www.w3.org/2000/svg" xmlns:xlink="http://www.w3.org/1999/xlink" x="0px" y="0px"
	 width="173px" height="169px" viewBox="0 0 173 169" enable-background="new 0 0 173 169" xml:space="preserve">
<g>
	<path fill="none" stroke="#000000" stroke-miterlimit="10" d="M-1.884,150.892c0,0,16-13,19-20s11-21,16-22c3-4,2-10,2-11s3-5,4-6
		s-11-5-12-8s23-16,26-20s21-31,31-33s16-11,19-14s16-21,20-14s3,25,3,29s2,7,9,3s11,2,7,8s-9,9-9,13s-5,9-6,11s-3,12-3,14
		s-1,9-2,13l-3,12c-1,4-5,6-7,9s-4,9-3,15s3,20,3,23s-2,14-2,14l-2,3"/>
	<path fill="none" stroke="#000000" stroke-miterlimit="10" d="M78.116,43.892c2-4,8-7,8-7s-2,7-6,11"/>
	<line fill="none" stroke="#000000" stroke-miterlimit="10" x1="79.116" y1="42.892" x2="81.116" y2="45.892"/>
	<line fill="none" stroke="#000000" stroke-miterlimit="10" x1="83.116" y1="38.892" x2="84.116" y2="41.892"/>
</g>
</svg>
