<?xml version="1.0" encoding="utf-8"?>
<!-- Generator: Adobe Illustrator 16.2.0, SVG Export Plug-In . SVG Version: 6.00 Build 0)  -->
<!DOCTYPE svg PUBLIC "-//W3C//DTD SVG 1.1//EN" "http://www.w3.org/Graphics/SVG/1.1/DTD/svg11.dtd">
<svg version="1.1" id="Layer_1" xmlns="http://www.w3.org/2000/svg" xmlns:xlink="http://www.w3.org/1999/xlink" x="0px" y="0px"
	 width="173px" height="155px" viewBox="0 0 173 155" enable-background="new 0 0 173 155" xml:space="preserve">
<g>
	<g>
		<defs>
			<path id="SVGID_6_" d="M148.261,4.892c8.616,8,4.308,5,5.385,19s9.693,22,5.385,33C154.723,67.892,162.231,85,159,95
				c-3.231,10-1.077,36-5.385,47s-32.28,8.892-51.666,10.892c-19.386,2-71.082-3-77.544-7c-6.463-4-23.695-31-16.156-43
				C15.79,90.892,2.845,40,7.152,33C11.46,26,23.308,0,33,1c9.694,1,59.257-1.108,66.795,0.892
				C107.334,3.892,139.645-3.108,148.261,4.892"/>
		</defs>
		<clipPath id="SVGID_2_">
			<use xlink:href="#SVGID_6_"  overflow="visible"/>
		</clipPath>
		<g clip-path="url(#SVGID_2_)">
			<path fill="none" stroke="#000000" stroke-miterlimit="10" d="M9.57,154.031c0,0,0-121.59,16.023-163.063"/>
			<path fill="none" stroke="#000000" stroke-miterlimit="10" d="M30.307-9.031c0,0-4.713,158.35,2.828,163.063"/>
			<path fill="none" stroke="#000000" stroke-miterlimit="10" d="M38.79,154.031c0,0,1.885-136.671,16.023-163.063"/>
			<path fill="none" stroke="#000000" stroke-miterlimit="10" d="M63.296,154.031c0,0,6.598-158.35-5.655-163.063"/>
			<path fill="none" stroke="#000000" stroke-miterlimit="10" d="M84.975,154.031c0,0-11.311-98.025-19.793-107.451"/>
			<path fill="none" stroke="#000000" stroke-miterlimit="10" d="M90.63-9.031c0,0-7.541,93.313-13.196,108.395"/>
			<path fill="none" stroke="#000000" stroke-miterlimit="10" d="M100.056-9.031c0,0-9.426,109.337-7.541,163.063"/>
			<path fill="none" stroke="#000000" stroke-miterlimit="10" d="M105.711-9.031c0,0-8.483,161.177,0.943,163.063"/>
			<path fill="none" stroke="#000000" stroke-miterlimit="10" d="M115.137,154.031c0,0-1.885-166.833,8.483-163.063
				c0,0,3.77,29.219,0,40.53"/>
			<line fill="none" stroke="#000000" stroke-miterlimit="10" x1="124.563" y1="154.031" x2="117.965" y2="17.36"/>
			<path fill="none" stroke="#000000" stroke-miterlimit="10" d="M133.988,154.031c0,0,19.794-68.807,1.885-163.063"/>
			<path fill="none" stroke="#000000" stroke-miterlimit="10" d="M128.333-9.031c0,0,7.54,123.476,11.311,127.245"/>
			<path fill="none" stroke="#000000" stroke-miterlimit="10" d="M154.724,154.031c0,0,8.483-138.556-3.77-163.063"/>
			<path fill="none" stroke="#000000" stroke-miterlimit="10" d="M12.398,96.535c0,0,5.655,49.013,8.483,57.496"/>
			<path fill="none" stroke="#000000" stroke-miterlimit="10" d="M12.398,78.627c0,0,5.655,33.932,4.713,50.898"/>
			<path fill="none" stroke="#000000" stroke-miterlimit="10" d="M26.537,154.031c0,0-0.897-13.58-1.604-31.104
				c-1.211-30.01-1.867-71.588,3.489-76.348"/>
			<path fill="none" stroke="#000000" stroke-miterlimit="10" d="M28.422,84.281c0.942-5.654,0,24.508-2.828,33.933"/>
			<path fill="none" stroke="#000000" stroke-miterlimit="10" d="M52.928,154.031c0,0-3.77-78.232-10.368-93.313"/>
			<path fill="none" stroke="#000000" stroke-miterlimit="10" d="M46.33,153.089c0,0,0.943-48.07,5.656-58.438
				c4.713-10.369,0-74.463-2.828-79.175"/>
			<path fill="none" stroke="#000000" stroke-miterlimit="10" d="M63.296,17.36c-0.937,8.432-1.784,8.188-16.966,52.783
				c0,0,9.426,30.162,7.541,52.783"/>
			<path fill="none" stroke="#000000" stroke-miterlimit="10" d="M40.675-9.031c0,0-3.77,68.807-11.311,90.486"/>
			<line fill="none" stroke="#000000" stroke-miterlimit="10" x1="78.377" y1="-9.031" x2="72.722" y2="68.259"/>
			<line fill="none" stroke="#000000" stroke-miterlimit="10" x1="69.894" y1="-9.031" x2="68.009" y2="51.293"/>
			<path fill="none" stroke="#000000" stroke-miterlimit="10" d="M72.722-9.031c0,0-1.885,43.357,0.943,53.726"/>
			<path fill="none" stroke="#000000" stroke-miterlimit="10" d="M83.09-9.031c0,0-4.713,19.794-6.598,28.277"/>
			<path fill="none" stroke="#000000" stroke-miterlimit="10" d="M16.168-9.031c0,0,0.943,24.507,0.943,30.162"/>
			<path fill="none" stroke="#000000" stroke-miterlimit="10" d="M9.57-9.031c0,0-0.942,53.726,3.771,68.807"/>
			<line fill="none" stroke="#000000" stroke-miterlimit="10" x1="4.858" y1="80.512" x2="9.57" y2="35.269"/>
			<path fill="none" stroke="#000000" stroke-miterlimit="10" d="M4.858,102.19c0,0,8.483-28.276,1.885-41.473"/>
			<line fill="none" stroke="#000000" stroke-miterlimit="10" x1="7.685" y1="42.81" x2="4.858" y2="12.647"/>
			<path fill="none" stroke="#000000" stroke-miterlimit="10" d="M9.57,21.131c0,0,2.828-18.852,3.771-30.162"/>
			<path fill="none" stroke="#000000" stroke-miterlimit="10" d="M16.168,11.705c0,0-5.655,3.771-0.942,28.276"/>
			<path fill="none" stroke="#000000" stroke-miterlimit="10" d="M13.341,0.395c0,0,0.942,10.368,0.942,14.139"/>
			<path fill="none" stroke="#000000" stroke-miterlimit="10" d="M18.996-9.031c0,0,0,12.254,0.943,16.023"/>
			<path fill="none" stroke="#000000" stroke-miterlimit="10" d="M21.824-9.031c0,0,6.598,34.875,6.598,41.473"/>
			<path fill="none" stroke="#000000" stroke-miterlimit="10" d="M27.479-9.031c0,0,0,12.254-0.942,20.736"/>
			<path fill="none" stroke="#000000" stroke-miterlimit="10" d="M32.192-9.031c0,0,5.655,19.794,5.655,26.392"/>
			<path fill="none" stroke="#000000" stroke-miterlimit="10" d="M38.79-9.031c0,0-1.885,13.196-2.828,16.023"/>
			<path fill="none" stroke="#000000" stroke-miterlimit="10" d="M29.364,56.948c0,0,1.885,6.598,2.828,11.311"/>
			<path fill="none" stroke="#000000" stroke-miterlimit="10" d="M30.307,25.844c0,0,1.813,3.626,3.386,8.483
				c1.205,3.721,2.269,8.164,2.269,12.253"/>
			<path fill="none" stroke="#000000" stroke-miterlimit="10" d="M30.307,58.833c0,0,0.943-20.736,1.885-25.449"/>
			<path fill="none" stroke="#000000" stroke-miterlimit="10" d="M34.077,39.039c0,0-1.885,20.736-2.828,24.507"/>
			<path fill="none" stroke="#000000" stroke-miterlimit="10" d="M33.135-4.318c0,0,0,27.334-1.885,31.104"/>
			<path fill="none" stroke="#000000" stroke-miterlimit="10" d="M33.135,33.384c0,0,1.885-20.736,2.827-25.449"/>
			<path fill="none" stroke="#000000" stroke-miterlimit="10" d="M36.905,16.418c0,0-1.885,16.023-0.943,18.851"/>
			<path fill="none" stroke="#000000" stroke-miterlimit="10" d="M51.043,2.279c0,0,7.541,30.162,6.598,36.76
				c0,0,6.598,19.794,5.655,26.392"/>
			<path fill="none" stroke="#000000" stroke-miterlimit="10" d="M49.158,9.82c0,0,6.598,20.736,6.598,31.104"/>
			<path fill="none" stroke="#000000" stroke-miterlimit="10" d="M56.698-9.031c0,0,1.885,36.76,2.828,39.588"/>
			<path fill="none" stroke="#000000" stroke-miterlimit="10" d="M52.928-5.261c0,0,3.771,16.023,2.828,25.448"/>
			<path fill="none" stroke="#000000" stroke-miterlimit="10" d="M61.411,2.279c0,0-0.943,14.139,0,22.621"/>
			<path fill="none" stroke="#000000" stroke-miterlimit="10" d="M11.456,52.234c0,0-1.885,10.369-1.885,13.196"/>
			<path fill="none" stroke="#000000" stroke-miterlimit="10" d="M5.8-7.146c0,0,1.885,24.507,0.943,31.105"/>
			<path fill="none" stroke="#000000" stroke-miterlimit="10" d="M5.8,72.971c0,0,0.943,13.196,0.943,16.967"/>
			<path fill="none" stroke="#000000" stroke-miterlimit="10" d="M7.685,89.938c0,0,0.943,38.645-0.942,47.128"/>
			<path fill="none" stroke="#000000" stroke-miterlimit="10" d="M5.8,100.306l-0.943,22.621c0,0,2.828,30.162,2.828,31.104"/>
			<path fill="none" stroke="#000000" stroke-miterlimit="10" d="M17.111,31.499c0,0,3.77,52.782,6.598,63.151"/>
			<path fill="none" stroke="#000000" stroke-miterlimit="10" d="M14.283,56.006c0,0,4.713,43.357,2.828,51.84"/>
			<path fill="none" stroke="#000000" stroke-miterlimit="10" d="M18.053,51.293c0,0-0.943,24.506,2.828,42.415
				c3.77,17.908-2.828,41.472-2.828,43.357"/>
			<line fill="none" stroke="#000000" stroke-miterlimit="10" x1="18.053" y1="99.363" x2="20.881" y2="118.214"/>
			<path fill="none" stroke="#000000" stroke-miterlimit="10" d="M18.053,23.959c0,0,5.655,35.816,5.655,46.185"/>
			<path fill="none" stroke="#000000" stroke-miterlimit="10" d="M18.996,17.36c0,0,6.598,26.392,5.656,37.702"/>
			<path fill="none" stroke="#000000" stroke-miterlimit="10" d="M24.651,8.878c0,5.655-3.77,12.253-3.77,12.253
				s4.713,6.598,5.656,26.392"/>
			<path fill="none" stroke="#000000" stroke-miterlimit="10" d="M21.824,6.992c0,0,6.598,32.989,5.655,40.53"/>
			<path fill="none" stroke="#000000" stroke-miterlimit="10" d="M12.398,154.031c0,0-0.943-25.449-1.885-33.932"/>
			<line fill="none" stroke="#000000" stroke-miterlimit="10" x1="17.111" y1="154.031" x2="12.398" y2="135.18"/>
			<path fill="none" stroke="#000000" stroke-miterlimit="10" d="M14.283,154.031c0,0,0.943-24.506,1.885-25.449"/>
			<path fill="none" stroke="#000000" stroke-miterlimit="10" d="M18.053,141.778c0,0-0.943,6.598-0.943,8.482"/>
			<path fill="none" stroke="#000000" stroke-miterlimit="10" d="M18.996,154.031c0,0-0.942-4.713-1.885-7.54"/>
			<path fill="none" stroke="#000000" stroke-miterlimit="10" d="M4.858,154.031c0,0,0-8.483,1.885-10.368"/>
			<path fill="none" stroke="#000000" stroke-miterlimit="10" d="M11.456,128.582c0,0,1.885-9.425,2.828-12.253"/>
			<path fill="none" stroke="#000000" stroke-miterlimit="10" d="M15.226,133.295c0,0-2.828-16.966-3.77-21.679"/>
			<path fill="none" stroke="#000000" stroke-miterlimit="10" d="M3.915,39.039c0,0,0.943,9.426,2.828,14.139"/>
			<path fill="none" stroke="#000000" stroke-miterlimit="10" d="M24.651,64.488c0,0,0.942,16.967,3.77,24.507"/>
			<path fill="none" stroke="#000000" stroke-miterlimit="10" d="M26.537,74.856c0,0,0.942-16.966,0-21.679"/>
			<path fill="none" stroke="#000000" stroke-miterlimit="10" d="M26.537,85.225c0,0-0.943,16.966,0.942,22.621"/>
			<path fill="none" stroke="#000000" stroke-miterlimit="10" d="M22.766,154.031c0,0,0.943-22.621-1.885-28.277"/>
			<path fill="none" stroke="#000000" stroke-miterlimit="10" d="M19.939,131.41c0,0,0.942,11.311,0,15.081"/>
			<path fill="none" stroke="#000000" stroke-miterlimit="10" d="M30.307,154.031c0,0-2.828-19.793-4.713-25.449"/>
			<path fill="none" stroke="#000000" stroke-miterlimit="10" d="M25.594,120.1c0,0,0,5.654,2.828,11.311
				c2.828,5.655,8.483,20.735,8.483,22.621"/>
			<path fill="none" stroke="#000000" stroke-miterlimit="10" d="M34.077,153.089c0,0,0-33.932,5.656-46.186"/>
			<path fill="none" stroke="#000000" stroke-miterlimit="10" d="M30.307,78.627c0,0,4.713,46.186,8.483,51.84"/>
			<path fill="none" stroke="#000000" stroke-miterlimit="10" d="M41.617,71.086c-1.885,8.483-11.311,52.783-11.311,52.783
				s3.77,13.196,8.483,16.966"/>
			<path fill="none" stroke="#000000" stroke-miterlimit="10" d="M29.364,101.248c0,0,10.369-31.104,12.254-42.415"/>
			<path fill="none" stroke="#000000" stroke-miterlimit="10" d="M32.192,72.971c0,0,8.483-25.448,11.311-36.759"/>
			<path fill="none" stroke="#000000" stroke-miterlimit="10" d="M35.962,48.465c0,0,1.885,34.875-1.885,47.128"/>
			<path fill="none" stroke="#000000" stroke-miterlimit="10" d="M33.135,71.086c0,0,0,12.254,0,16.966"/>
			<path fill="none" stroke="#000000" stroke-miterlimit="10" d="M37.847,109.73c0,0,0-12.253-0.943-18.851"/>
			<path fill="none" stroke="#000000" stroke-miterlimit="10" d="M32.192,102.19c0,0-3.77,18.852-5.655,18.852"/>
			<path fill="none" stroke="#000000" stroke-miterlimit="10" d="M32.192,118.214c-0.277-1.938,2.292,13.807,5.655,18.852"/>
			<path fill="none" stroke="#000000" stroke-miterlimit="10" d="M30.307,128.582c0,0,4.713,16.023,7.541,16.966"/>
			<path fill="none" stroke="#000000" stroke-miterlimit="10" d="M42.56,154.031c0,0,1.885-32.047-1.885-36.76"/>
			<path fill="none" stroke="#000000" stroke-miterlimit="10" d="M45.388,76.742c0,0,1.885,38.645-2.828,44.3"/>
			<path fill="none" stroke="#000000" stroke-miterlimit="10" d="M41.617,86.167c0,0,0.942,23.563,5.655,29.22"/>
			<path fill="none" stroke="#000000" stroke-miterlimit="10" d="M40.675,107.846c0,0,5.655,13.196,5.655,18.852"/>
			<path fill="none" stroke="#000000" stroke-miterlimit="10" d="M39.732,132.353c0,0,7.54,19.793,11.311,20.736"/>
			<path fill="none" stroke="#000000" stroke-miterlimit="10" d="M39.732,142.721c0,0,5.655,7.54,7.54,11.311"/>
			<path fill="none" stroke="#000000" stroke-miterlimit="10" d="M39.732,148.376c0,0,3.77,3.77,4.712,5.655"/>
			<path fill="none" stroke="#000000" stroke-miterlimit="10" d="M45.388,141.778c0,0,19.794-31.104,19.794-48.07"/>
			<path fill="none" stroke="#000000" stroke-miterlimit="10" d="M43.502,129.525c0,0,6.598,15.08,6.598,20.735"/>
			<path fill="none" stroke="#000000" stroke-miterlimit="10" d="M48.215,126.697c0,0,8.483,19.794,13.196,26.392"/>
			<path fill="none" stroke="#000000" stroke-miterlimit="10" d="M48.215,138.008c0,0,9.426,13.195,9.426,16.023"/>
			<path fill="none" stroke="#000000" stroke-miterlimit="10" d="M54.813,153.089c0,0,7.54-50.898-0.943-65.979"/>
			<path fill="none" stroke="#000000" stroke-miterlimit="10" d="M12.398,94.65c0,0,10.368-15.081,11.311-25.449"/>
			<path fill="none" stroke="#000000" stroke-miterlimit="10" d="M8.628,62.604c0,0,13.196-22.622,15.081-24.507"/>
			<path fill="none" stroke="#000000" stroke-miterlimit="10" d="M42.56-9.031c0,0,3.77,19.794,4.713,27.334"/>
			<path fill="none" stroke="#000000" stroke-miterlimit="10" d="M40.675-0.548c0,0,14.138,80.117,24.507,85.772"/>
			<path fill="none" stroke="#000000" stroke-miterlimit="10" d="M48.215,64.488c0,0,32.99,73.52,31.104,89.543"/>
			<path fill="none" stroke="#000000" stroke-miterlimit="10" d="M48.215-9.031c0,0-5.656,42.415-11.311,52.783"/>
			<path fill="none" stroke="#000000" stroke-miterlimit="10" d="M45.388-9.031c0,0-2.828,23.564-7.541,34.875"/>
			<path fill="none" stroke="#000000" stroke-miterlimit="10" d="M51.043-9.031c0,0-3.77,18.852-4.713,20.736"/>
			<path fill="none" stroke="#000000" stroke-miterlimit="10" d="M42.56,28.672c0,0,6.598,42.414,10.368,52.783"/>
			<path fill="none" stroke="#000000" stroke-miterlimit="10" d="M39.732,67.316c0,0,2.827-30.162-0.943-35.817"/>
			<path fill="none" stroke="#000000" stroke-miterlimit="10" d="M51.043,28.672c0,0-4.713,30.161-6.598,35.816"/>
			<path fill="none" stroke="#000000" stroke-miterlimit="10" d="M50.1,22.073c0,0-7.541,27.334-9.426,29.22"/>
			<path fill="none" stroke="#000000" stroke-miterlimit="10" d="M60.469,30.557c0,0,3.77,35.817,11.311,40.529"/>
			<path fill="none" stroke="#000000" stroke-miterlimit="10" d="M66.124,32.441c0,0-9.426,19.793-11.311,32.047"/>
			<path fill="none" stroke="#000000" stroke-miterlimit="10" d="M67.066,14.533c0,0-4.713,25.448-14.139,36.76"/>
			<path fill="none" stroke="#000000" stroke-miterlimit="10" d="M61.411-9.031c0,0,11.311,39.588,11.311,61.266"/>
			<path fill="none" stroke="#000000" stroke-miterlimit="10" d="M58.583,88.052c0,0,10.368-32.989,12.253-41.472"/>
			<path fill="none" stroke="#000000" stroke-miterlimit="10" d="M57.641,61.661c0,0,14.138,33.932,15.081,43.357
				c0,0-3.77,29.22-7.54,36.76"/>
			<path fill="none" stroke="#000000" stroke-miterlimit="10" d="M53.871,137.065c0,0,13.196-27.335,14.138-46.186"/>
			<path fill="none" stroke="#000000" stroke-miterlimit="10" d="M56.698,92.765c0,0,14.138,48.07,15.081,61.267"/>
			<path fill="none" stroke="#000000" stroke-miterlimit="10" d="M54.813,113.501c0,0,7.54,30.162,11.311,39.588"/>
			<path fill="none" stroke="#000000" stroke-miterlimit="10" d="M57.641,137.065c0,0,12.253,10.368,12.253,16.966"/>
			<path fill="none" stroke="#000000" stroke-miterlimit="10" d="M67.066,100.306c0,0,7.541,45.242,7.541,53.726"/>
			<path fill="none" stroke="#000000" stroke-miterlimit="10" d="M69.894,98.42c0,0-2.827,32.99-11.31,36.76"/>
			<path fill="none" stroke="#000000" stroke-miterlimit="10" d="M54.813,72.029c0,0,4.713,16.966,8.483,17.908"/>
			<path fill="none" stroke="#000000" stroke-miterlimit="10" d="M66.124-9.031c0,0,2.828,16.966,8.483,38.645"/>
			<path fill="none" stroke="#000000" stroke-miterlimit="10" d="M64.239-9.031c0,0,2.828,16.966,2.828,19.794"/>
			<path fill="none" stroke="#000000" stroke-miterlimit="10" d="M87.803,154.031l-11.311-48.07
				c-24.506-78.232-36.76-82.002-36.76-82.002"/>
			<path fill="none" stroke="#000000" stroke-miterlimit="10" d="M91.573,96.535c0,0-12.253,48.07-14.138,56.554"/>
			<path fill="none" stroke="#000000" stroke-miterlimit="10" d="M80.262,93.708c0,0,6.598,53.726,9.426,60.323"/>
			<path fill="none" stroke="#000000" stroke-miterlimit="10" d="M70.837,71.086c0,0,2.828,10.369,1.885,20.736"/>
			<path fill="none" stroke="#000000" stroke-miterlimit="10" d="M68.009,68.259c0,0,0.943,9.425,1.885,16.022"/>
			<path fill="none" stroke="#000000" stroke-miterlimit="10" d="M65.181,24.9c0,0,13.196,48.07,15.081,53.727"/>
			<path fill="none" stroke="#000000" stroke-miterlimit="10" d="M73.664,66.374c0,0,12.253,36.759,12.253,46.185"/>
			<path fill="none" stroke="#000000" stroke-miterlimit="10" d="M73.664-7.146c0,0,12.253,43.358,20.736,51.841"/>
			<path fill="none" stroke="#000000" stroke-miterlimit="10" d="M84.975-9.031c0,0-0.942,32.047-9.426,52.783"/>
			<path fill="none" stroke="#000000" stroke-miterlimit="10" d="M81.205,3.223c0,0-0.943,39.587,2.828,50.897"/>
			<path fill="none" stroke="#000000" stroke-miterlimit="10" d="M77.435,39.981c0,0,5.655,54.669,10.368,65.037"/>
			<path fill="none" stroke="#000000" stroke-miterlimit="10" d="M74.607,47.522c0,0,10.368,30.161,12.253,44.3"/>
			<path fill="none" stroke="#000000" stroke-miterlimit="10" d="M73.664,109.73c0,0,9.426,36.761,8.483,43.358"/>
			<path fill="none" stroke="#000000" stroke-miterlimit="10" d="M71.779,117.271c0,0,7.54,16.967,7.54,24.507"/>
			<path fill="none" stroke="#000000" stroke-miterlimit="10" d="M74.607,128.582c0,0,6.598-15.081,11.311-32.047"/>
			<path fill="none" stroke="#000000" stroke-miterlimit="10" d="M69.894,112.559c0,0,9.426-6.598,11.311-14.139"/>
			<path fill="none" stroke="#000000" stroke-miterlimit="10" d="M60.469,140.835c0,0,0,6.599,0,10.368"/>
			<path fill="none" stroke="#000000" stroke-miterlimit="10" d="M87.803-9.031c0,0,3.77,68.807-2.828,90.486"/>
			<path fill="none" stroke="#000000" stroke-miterlimit="10" d="M84.032,6.992c0,0,0.942,59.382,8.483,74.463"/>
			<path fill="none" stroke="#000000" stroke-miterlimit="10" d="M93.458-9.031c0,0,1.885,54.668-3.77,67.864"/>
			<path fill="none" stroke="#000000" stroke-miterlimit="10" d="M89.688,5.107c0,0,8.483,63.151,11.311,79.174"/>
			<path fill="none" stroke="#000000" stroke-miterlimit="10" d="M88.745,29.613c0,0,7.541-9.426,7.541-38.645"/>
			<path fill="none" stroke="#000000" stroke-miterlimit="10" d="M11.456,105.019c0,0,16.966,32.047,14.138,40.529"/>
			<path fill="none" stroke="#000000" stroke-miterlimit="10" d="M46.33,97.478c0,0,16.023,15.081,16.023,16.967"/>
			<path fill="none" stroke="#000000" stroke-miterlimit="10" d="M67.066,146.491c0,0-3.77-20.737-8.483-26.392"/>
			<path fill="none" stroke="#000000" stroke-miterlimit="10" d="M89.688,74.856c0,0,2.828,52.783-4.713,60.323"/>
			<path fill="none" stroke="#000000" stroke-miterlimit="10" d="M94.401,153.089c0,0,8.483-54.669-0.943-69.749"/>
			<path fill="none" stroke="#000000" stroke-miterlimit="10" d="M93.458,103.133c0,0,5.656,43.358,4.713,50.898"/>
			<path fill="none" stroke="#000000" stroke-miterlimit="10" d="M87.803,130.467c0,0,3.77,23.564,6.598,24.507"/>
			<path fill="none" stroke="#000000" stroke-miterlimit="10" d="M86.86,118.214c0,0,6.598,25.449,8.483,29.22"/>
			<path fill="none" stroke="#000000" stroke-miterlimit="10" d="M88.745,59.775c0,0,13.196,26.392,16.024,45.243
				c2.827,18.851,7.54,49.013,7.54,49.013"/>
			<path fill="none" stroke="#000000" stroke-miterlimit="10" d="M76.492-7.146c0,0,24.506,20.737,25.449,43.358"/>
			<path fill="none" stroke="#000000" stroke-miterlimit="10" d="M112.309-9.031c0,0,1.885,48.07-16.023,62.209"/>
			<path fill="none" stroke="#000000" stroke-miterlimit="10" d="M109.481-9.031c0,0-1.885,64.094,3.77,76.348"/>
			<path fill="none" stroke="#000000" stroke-miterlimit="10" d="M102.884,97.478c0,0,14.138-32.047,13.196-55.61"/>
			<path fill="none" stroke="#000000" stroke-miterlimit="10" d="M115.137,139.893c0,0,25.449-88.6,25.449-111.221"/>
			<path fill="none" stroke="#000000" stroke-miterlimit="10" d="M118.907,20.188c0,0,12.254,100.854,18.852,112.165"/>
			<path fill="none" stroke="#000000" stroke-miterlimit="10" d="M137.758,140.835c0,0,32.047-68.806,30.162-83.887"/>
			<path fill="none" stroke="#000000" stroke-miterlimit="10" d="M139.643,11.705c0,0,25.449,46.186,25.449,58.438"/>
			<path fill="none" stroke="#000000" stroke-miterlimit="10" d="M143.414,65.431c0,0,24.507-52.783,24.507-66.921"/>
			<path fill="none" stroke="#000000" stroke-miterlimit="10" d="M150.011,54.12c0,0,1.885,85.772,5.655,90.485"/>
			<path fill="none" stroke="#000000" stroke-miterlimit="10" d="M134.93,79.569c0,0,12.253,65.979,13.196,74.462"/>
			<path fill="none" stroke="#000000" stroke-miterlimit="10" d="M128.333-0.548c0,0-2.828,86.715-6.598,94.256"/>
			<path fill="none" stroke="#000000" stroke-miterlimit="10" d="M102.884,72.029c0,0,6.598,37.701,11.311,47.128"/>
			<path fill="none" stroke="#000000" stroke-miterlimit="10" d="M103.826,46.58c0,0,16.966,57.496,16.966,69.749"/>
			<path fill="none" stroke="#000000" stroke-miterlimit="10" d="M146.241-9.031c0,0-16.966,37.703-19.794,63.151"/>
			<path fill="none" stroke="#000000" stroke-miterlimit="10" d="M158.494-9.031c0,0,5.656,46.186,6.598,56.554
				c0.943,10.368-16.966,77.29-19.794,87.657"/>
			<path fill="none" stroke="#000000" stroke-miterlimit="10" d="M162.265,83.34c0,0,3.77,62.208,3.77,70.691"/>
			<path fill="none" stroke="#000000" stroke-miterlimit="10" d="M135.873,60.718c0,0,13.196,93.313,27.334,94.256"/>
			<path fill="none" stroke="#000000" stroke-miterlimit="10" d="M166.977,82.396c0,0-9.426,48.07-8.483,71.635"/>
			<path fill="none" stroke="#000000" stroke-miterlimit="10" d="M134.93,95.593c0,0-4.713,45.242-5.655,58.438"/>
			<path fill="none" stroke="#000000" stroke-miterlimit="10" d="M134.93,83.34c0,0-16.024,46.186-16.966,70.691"/>
			<path fill="none" stroke="#000000" stroke-miterlimit="10" d="M101.941,115.387c0,0,6.598,23.563,6.598,38.645"/>
			<path fill="none" stroke="#000000" stroke-miterlimit="10" d="M114.194,87.109c0,0-11.311,58.438-13.196,65.979
				c-1.967,7.866-15.081-59.381-15.081-59.381"/>
			<path fill="none" stroke="#000000" stroke-miterlimit="10" d="M97.228,92.765c0,0,2.828,41.474,4.713,47.128"/>
			<path fill="none" stroke="#000000" stroke-miterlimit="10" d="M100.998,91.822c0,0-2.827,9.426-2.827,14.139"/>
			<path fill="none" stroke="#000000" stroke-miterlimit="10" d="M107.596,60.718c0,0-1.885,19.794-3.77,20.737"/>
			<path fill="none" stroke="#000000" stroke-miterlimit="10" d="M111.367,21.131c0,0-0.943,18.851,4.713,23.563"/>
			<path fill="none" stroke="#000000" stroke-miterlimit="10" d="M114.194,0.395c0,0,2.828,18.852,2.828,27.334"/>
			<path fill="none" stroke="#000000" stroke-miterlimit="10" d="M116.079-8.089c0,0,6.598,33.933,8.483,48.07"/>
			<path fill="none" stroke="#000000" stroke-miterlimit="10" d="M119.85-9.031c0,0,4.713,13.196,2.828,32.047"/>
			<path fill="none" stroke="#000000" stroke-miterlimit="10" d="M133.045-9.031c0,0-0.943,45.243,3.77,58.438"/>
			<path fill="none" stroke="#000000" stroke-miterlimit="10" d="M132.103,44.694c0,0-0.942,17.909-4.713,27.335"/>
			<path fill="none" stroke="#000000" stroke-miterlimit="10" d="M130.218,40.925c0,0-2.828,25.449,0,38.645"/>
			<path fill="none" stroke="#000000" stroke-miterlimit="10" d="M131.16,122.927c-10.369-10.368-15.081-53.726-15.081-53.726
				s3.77-9.426,5.655-16.967"/>
			<path fill="none" stroke="#000000" stroke-miterlimit="10" d="M108.539,117.271c0,0,14.138,28.276,13.196,35.817"/>
			<path fill="none" stroke="#000000" stroke-miterlimit="10" d="M109.481,130.467c0,0,4.713,17.909,9.425,22.622"/>
			<path fill="none" stroke="#000000" stroke-miterlimit="10" d="M124.563,119.157c0,0,13.196,18.851,11.31,33.932"/>
			<path fill="none" stroke="#000000" stroke-miterlimit="10" d="M124.563,138.95c0,0,3.77,12.253,6.598,15.081"/>
			<path fill="none" stroke="#000000" stroke-miterlimit="10" d="M123.62,133.295c0,0,8.483,16.023,8.483,19.794"/>
			<path fill="none" stroke="#000000" stroke-miterlimit="10" d="M141.528,133.295c0,0,0,16.966,0.943,20.736
				c1.446,5.783-18.851-30.162-18.851-30.162"/>
			<path fill="none" stroke="#000000" stroke-miterlimit="10" d="M138.701,138.95c0,0,0.943,11.311,5.656,15.081
				c0,0,24.506-31.104,23.564-47.128"/>
			<path fill="none" stroke="#000000" stroke-miterlimit="10" d="M145.299,138.008c0,0-1.885,11.311-7.54,15.081"/>
			<path fill="none" stroke="#000000" stroke-miterlimit="10" d="M136.816,106.903c0,0-1.885,24.507-4.713,27.335"/>
			<path fill="none" stroke="#000000" stroke-miterlimit="10" d="M137.758,60.718c0,0,7.54,50.898,11.311,51.841"/>
			<path fill="none" stroke="#000000" stroke-miterlimit="10" d="M133.045,51.293c0,0,17.908,20.736,17.908,52.783"/>
			<path fill="none" stroke="#000000" stroke-miterlimit="10" d="M144.356,77.684c0,0,13.196,39.588,16.023,45.243"/>
			<path fill="none" stroke="#000000" stroke-miterlimit="10" d="M144.356,85.225c0,0,12.253,60.323,19.794,61.267"/>
			<path fill="none" stroke="#000000" stroke-miterlimit="10" d="M167.92,123.869c0,0-13.196,24.507-16.966,29.22
				s16.023-17.909,16.023-17.909"/>
			<path fill="none" stroke="#000000" stroke-miterlimit="10" d="M167.92,139.893c0,0-6.598,8.483-6.598,13.196"/>
			<path fill="none" stroke="#000000" stroke-miterlimit="10" d="M164.15,154.031c0,0-10.368,4.713-16.966-18.852"/>
			<path fill="none" stroke="#000000" stroke-miterlimit="10" d="M100.056,69.201c0,0,1.885-23.564-3.77-34.875"/>
			<path fill="none" stroke="#000000" stroke-miterlimit="10" d="M102.884-9.031c0,0-0.943,47.128,4.713,58.438"/>
			<path fill="none" stroke="#000000" stroke-miterlimit="10" d="M100.056,10.763c0,0,0,24.506,0.942,32.047"/>
			<path fill="none" stroke="#000000" stroke-miterlimit="10" d="M141.528-9.974c0,0,6.598,53.726,8.483,59.381"/>
			<path fill="none" stroke="#000000" stroke-miterlimit="10" d="M145.299,72.971c0,0-0.942-67.863,8.483-69.748"/>
			<path fill="none" stroke="#000000" stroke-miterlimit="10" d="M150.954,84.281c0,0,9.426-47.127,16.966-43.356"/>
			<path fill="none" stroke="#000000" stroke-miterlimit="10" d="M150.954,90.88c0,0,14.138-43.357,16.966-41.473"/>
			<path fill="none" stroke="#000000" stroke-miterlimit="10" d="M162.265,108.789c0,0-8.483-60.324-15.081-62.209"/>
			<path fill="none" stroke="#000000" stroke-miterlimit="10" d="M147.184,72.971c0,0,15.081-29.219,2.828-52.783"/>
			<path fill="none" stroke="#000000" stroke-miterlimit="10" d="M134.93,29.613c0,0,14.138-38.645,21.679-38.645"/>
			<path fill="none" stroke="#000000" stroke-miterlimit="10" d="M167.92,31.499c0,0-2.828-34.875-4.713-41.473"/>
			<path fill="none" stroke="#000000" stroke-miterlimit="10" d="M166.035-9.031c0,0-17.909,25.449-17.909,32.047"/>
			<path fill="none" stroke="#000000" stroke-miterlimit="10" d="M161.322-9.031c0,0-2.827,25.449-7.54,33.932"/>
			<path fill="none" stroke="#000000" stroke-miterlimit="10" d="M160.379,45.637c0,0-4.713-39.587,6.598-49.013"/>
			<path fill="none" stroke="#000000" stroke-miterlimit="10" d="M139.643,59.775c0,0,0.942-24.507-1.885-32.047"/>
			<path fill="none" stroke="#000000" stroke-miterlimit="10" d="M113.252,31.499c0,0,0.942-15.081,2.828-15.081"/>
			<path fill="none" stroke="#000000" stroke-miterlimit="10" d="M102.884,64.488c0,0,12.253-13.195,13.196-17.908"/>
			<path fill="none" stroke="#000000" stroke-miterlimit="10" d="M104.769,105.019c0,0,5.655-27.335,11.311-28.276"/>
			<path fill="none" stroke="#000000" stroke-miterlimit="10" d="M118.907,125.754c0,0-3.77-22.621-9.425-32.989"/>
			<path fill="none" stroke="#000000" stroke-miterlimit="10" d="M126.448,127.64c0,0,4.713-13.195,5.655-21.679"/>
			<path fill="none" stroke="#000000" stroke-miterlimit="10" d="M124.563,87.109c0,0,3.77,23.564,4.713,27.335"/>
			<path fill="none" stroke="#000000" stroke-miterlimit="10" d="M130.218-7.146c0,0,5.655,12.254,5.655,19.794"/>
			<path fill="none" stroke="#000000" stroke-miterlimit="10" d="M151.896,44.694c0,0-1.885-13.195-11.311-19.794"/>
			<path fill="none" stroke="#000000" stroke-miterlimit="10" d="M144.356-9.031c0,0,7.54,30.162,10.368,30.162"/>
			<path fill="none" stroke="#000000" stroke-miterlimit="10" d="M148.126-9.031c0,0,4.713,23.564,7.541,24.507"/>
			<path fill="none" stroke="#000000" stroke-miterlimit="10" d="M166.035,23.016c0,0-1.885,28.277-4.713,32.047"/>
			<path fill="none" stroke="#000000" stroke-miterlimit="10" d="M167.92,73.914c0,0-3.77,8.482-4.713,17.908"/>
			<path fill="none" stroke="#000000" stroke-miterlimit="10" d="M167.92,102.19c0,0-3.77-26.392-5.656-30.161"/>
		</g>
		<g clip-path="url(#SVGID_2_)">
			<path fill="none" stroke="#000000" stroke-miterlimit="10" d="M10.655,154.031c0,0,0-121.59,16.023-163.063"/>
			<path fill="none" stroke="#000000" stroke-miterlimit="10" d="M31.392-9.031c0,0-4.713,158.35,2.828,163.063"/>
			<path fill="none" stroke="#000000" stroke-miterlimit="10" d="M39.875,154.031c0,0,1.885-136.671,16.024-163.063"/>
			<path fill="none" stroke="#000000" stroke-miterlimit="10" d="M64.381,154.031c0,0,6.598-158.35-5.656-163.063"/>
			<path fill="none" stroke="#000000" stroke-miterlimit="10" d="M86.06,154.031c0,0-11.311-98.025-19.794-107.451"/>
			<path fill="none" stroke="#000000" stroke-miterlimit="10" d="M91.715-9.031c0,0-7.54,93.313-13.196,108.395"/>
			<path fill="none" stroke="#000000" stroke-miterlimit="10" d="M101.141-9.031c0,0-9.426,109.337-7.541,163.063"/>
			<path fill="none" stroke="#000000" stroke-miterlimit="10" d="M106.796-9.031c0,0-8.483,161.177,0.943,163.063"/>
			<path fill="none" stroke="#000000" stroke-miterlimit="10" d="M116.222,154.031c0,0-1.885-166.833,8.483-163.063
				c0,0,3.77,29.219,0,40.53"/>
			<line fill="none" stroke="#000000" stroke-miterlimit="10" x1="125.647" y1="154.031" x2="119.049" y2="17.36"/>
			<path fill="none" stroke="#000000" stroke-miterlimit="10" d="M135.073,154.031c0,0,19.794-68.807,1.885-163.063"/>
			<path fill="none" stroke="#000000" stroke-miterlimit="10" d="M129.417-9.031c0,0,7.54,123.476,11.311,127.245"/>
			<path fill="none" stroke="#000000" stroke-miterlimit="10" d="M155.809,154.031c0,0,8.483-138.556-3.77-163.063"/>
			<path fill="none" stroke="#000000" stroke-miterlimit="10" d="M13.483,96.535c0,0,5.656,49.013,8.483,57.496"/>
			<path fill="none" stroke="#000000" stroke-miterlimit="10" d="M13.483,78.627c0,0,5.656,33.932,4.713,50.898"/>
			<path fill="none" stroke="#000000" stroke-miterlimit="10" d="M27.621,154.031c0,0-0.897-13.58-1.604-31.104
				c-1.211-30.01-1.866-71.588,3.489-76.348"/>
			<path fill="none" stroke="#000000" stroke-miterlimit="10" d="M29.507,84.281c0.942-5.654,0,24.508-2.828,33.933"/>
			<path fill="none" stroke="#000000" stroke-miterlimit="10" d="M54.013,154.031c0,0-3.77-78.232-10.368-93.313"/>
			<path fill="none" stroke="#000000" stroke-miterlimit="10" d="M47.415,153.089c0,0,0.943-48.07,5.656-58.438
				c4.713-10.369,0-74.463-2.828-79.175"/>
			<path fill="none" stroke="#000000" stroke-miterlimit="10" d="M64.381,17.36c-0.937,8.432-1.784,8.188-16.966,52.783
				c0,0,9.426,30.162,7.541,52.783"/>
			<path fill="none" stroke="#000000" stroke-miterlimit="10" d="M41.76-9.031c0,0-3.77,68.807-11.311,90.486"/>
			<line fill="none" stroke="#000000" stroke-miterlimit="10" x1="79.462" y1="-9.031" x2="73.807" y2="68.259"/>
			<line fill="none" stroke="#000000" stroke-miterlimit="10" x1="70.979" y1="-9.031" x2="69.094" y2="51.293"/>
			<path fill="none" stroke="#000000" stroke-miterlimit="10" d="M73.807-9.031c0,0-1.885,43.357,0.943,53.726"/>
			<path fill="none" stroke="#000000" stroke-miterlimit="10" d="M84.175-9.031c0,0-4.713,19.794-6.598,28.277"/>
			<path fill="none" stroke="#000000" stroke-miterlimit="10" d="M17.253-9.031c0,0,0.943,24.507,0.943,30.162"/>
			<path fill="none" stroke="#000000" stroke-miterlimit="10" d="M10.655-9.031c0,0-0.942,53.726,3.77,68.807"/>
			<line fill="none" stroke="#000000" stroke-miterlimit="10" x1="5.943" y1="80.512" x2="10.655" y2="35.269"/>
			<path fill="none" stroke="#000000" stroke-miterlimit="10" d="M5.943,102.19c0,0,8.483-28.276,1.885-41.473"/>
			<line fill="none" stroke="#000000" stroke-miterlimit="10" x1="8.77" y1="42.81" x2="5.943" y2="12.647"/>
			<path fill="none" stroke="#000000" stroke-miterlimit="10" d="M10.655,21.131c0,0,2.828-18.852,3.77-30.162"/>
			<path fill="none" stroke="#000000" stroke-miterlimit="10" d="M17.253,11.705c0,0-5.655,3.771-0.942,28.276"/>
			<path fill="none" stroke="#000000" stroke-miterlimit="10" d="M14.426,0.395c0,0,0.943,10.368,0.943,14.139"/>
			<path fill="none" stroke="#000000" stroke-miterlimit="10" d="M20.081-9.031c0,0,0,12.254,0.943,16.023"/>
			<path fill="none" stroke="#000000" stroke-miterlimit="10" d="M22.909-9.031c0,0,6.598,34.875,6.598,41.473"/>
			<path fill="none" stroke="#000000" stroke-miterlimit="10" d="M28.564-9.031c0,0,0,12.254-0.943,20.736"/>
			<path fill="none" stroke="#000000" stroke-miterlimit="10" d="M33.277-9.031c0,0,5.655,19.794,5.655,26.392"/>
			<path fill="none" stroke="#000000" stroke-miterlimit="10" d="M39.875-9.031c0,0-1.885,13.196-2.828,16.023"/>
			<path fill="none" stroke="#000000" stroke-miterlimit="10" d="M30.449,56.948c0,0,1.885,6.598,2.828,11.311"/>
			<path fill="none" stroke="#000000" stroke-miterlimit="10" d="M31.392,25.844c0,0,1.813,3.626,3.386,8.483
				c1.205,3.721,2.269,8.164,2.269,12.253"/>
			<path fill="none" stroke="#000000" stroke-miterlimit="10" d="M31.392,58.833c0,0,0.942-20.736,1.885-25.449"/>
			<path fill="none" stroke="#000000" stroke-miterlimit="10" d="M35.162,39.039c0,0-1.885,20.736-2.828,24.507"/>
			<path fill="none" stroke="#000000" stroke-miterlimit="10" d="M34.219-4.318c0,0,0,27.334-1.885,31.104"/>
			<path fill="none" stroke="#000000" stroke-miterlimit="10" d="M34.219,33.384c0,0,1.885-20.736,2.828-25.449"/>
			<path fill="none" stroke="#000000" stroke-miterlimit="10" d="M37.99,16.418c0,0-1.885,16.023-0.943,18.851"/>
			<path fill="none" stroke="#000000" stroke-miterlimit="10" d="M52.128,2.279c0,0,7.541,30.162,6.598,36.76
				c0,0,6.598,19.794,5.656,26.392"/>
			<path fill="none" stroke="#000000" stroke-miterlimit="10" d="M50.243,9.82c0,0,6.598,20.736,6.598,31.104"/>
			<path fill="none" stroke="#000000" stroke-miterlimit="10" d="M57.783-9.031c0,0,1.885,36.76,2.828,39.588"/>
			<path fill="none" stroke="#000000" stroke-miterlimit="10" d="M54.013-5.261c0,0,3.77,16.023,2.828,25.448"/>
			<path fill="none" stroke="#000000" stroke-miterlimit="10" d="M62.496,2.279c0,0-0.942,14.139,0,22.621"/>
			<path fill="none" stroke="#000000" stroke-miterlimit="10" d="M12.541,52.234c0,0-1.885,10.369-1.885,13.196"/>
			<path fill="none" stroke="#000000" stroke-miterlimit="10" d="M6.885-7.146c0,0,1.885,24.507,0.943,31.105"/>
			<path fill="none" stroke="#000000" stroke-miterlimit="10" d="M6.885,72.971c0,0,0.943,13.196,0.943,16.967"/>
			<path fill="none" stroke="#000000" stroke-miterlimit="10" d="M8.77,89.938c0,0,0.943,38.645-0.943,47.128"/>
			<path fill="none" stroke="#000000" stroke-miterlimit="10" d="M6.885,100.306l-0.942,22.621c0,0,2.828,30.162,2.828,31.104"/>
			<path fill="none" stroke="#000000" stroke-miterlimit="10" d="M18.196,31.499c0,0,3.77,52.782,6.598,63.151"/>
			<path fill="none" stroke="#000000" stroke-miterlimit="10" d="M15.368,56.006c0,0,4.713,43.357,2.828,51.84"/>
			<path fill="none" stroke="#000000" stroke-miterlimit="10" d="M19.138,51.293c0,0-0.943,24.506,2.827,42.415
				c3.77,17.908-2.827,41.472-2.827,43.357"/>
			<line fill="none" stroke="#000000" stroke-miterlimit="10" x1="19.138" y1="99.363" x2="21.966" y2="118.214"/>
			<path fill="none" stroke="#000000" stroke-miterlimit="10" d="M19.138,23.959c0,0,5.655,35.816,5.655,46.185"/>
			<path fill="none" stroke="#000000" stroke-miterlimit="10" d="M20.081,17.36c0,0,6.598,26.392,5.655,37.702"/>
			<path fill="none" stroke="#000000" stroke-miterlimit="10" d="M25.736,8.878c0,5.655-3.77,12.253-3.77,12.253
				s4.713,6.598,5.656,26.392"/>
			<path fill="none" stroke="#000000" stroke-miterlimit="10" d="M22.909,6.992c0,0,6.598,32.989,5.655,40.53"/>
			<path fill="none" stroke="#000000" stroke-miterlimit="10" d="M13.483,154.031c0,0-0.942-25.449-1.885-33.932"/>
			<line fill="none" stroke="#000000" stroke-miterlimit="10" x1="18.196" y1="154.031" x2="13.483" y2="135.18"/>
			<path fill="none" stroke="#000000" stroke-miterlimit="10" d="M15.368,154.031c0,0,0.943-24.506,1.885-25.449"/>
			<path fill="none" stroke="#000000" stroke-miterlimit="10" d="M19.138,141.778c0,0-0.943,6.598-0.943,8.482"/>
			<path fill="none" stroke="#000000" stroke-miterlimit="10" d="M20.081,154.031c0,0-0.942-4.713-1.885-7.54"/>
			<path fill="none" stroke="#000000" stroke-miterlimit="10" d="M5.943,154.031c0,0,0-8.483,1.885-10.368"/>
			<path fill="none" stroke="#000000" stroke-miterlimit="10" d="M12.541,128.582c0,0,1.885-9.425,2.828-12.253"/>
			<path fill="none" stroke="#000000" stroke-miterlimit="10" d="M16.311,133.295c0,0-2.828-16.966-3.77-21.679"/>
			<path fill="none" stroke="#000000" stroke-miterlimit="10" d="M5,39.039c0,0,0.943,9.426,2.828,14.139"/>
			<path fill="none" stroke="#000000" stroke-miterlimit="10" d="M25.736,64.488c0,0,0.943,16.967,3.771,24.507"/>
			<path fill="none" stroke="#000000" stroke-miterlimit="10" d="M27.621,74.856c0,0,0.943-16.966,0-21.679"/>
			<path fill="none" stroke="#000000" stroke-miterlimit="10" d="M27.621,85.225c0,0-0.943,16.966,0.943,22.621"/>
			<path fill="none" stroke="#000000" stroke-miterlimit="10" d="M23.851,154.031c0,0,0.943-22.621-1.885-28.277"/>
			<path fill="none" stroke="#000000" stroke-miterlimit="10" d="M21.023,131.41c0,0,0.942,11.311,0,15.081"/>
			<path fill="none" stroke="#000000" stroke-miterlimit="10" d="M31.392,154.031c0,0-2.828-19.793-4.713-25.449"/>
			<path fill="none" stroke="#000000" stroke-miterlimit="10" d="M26.679,120.1c0,0,0,5.654,2.828,11.311
				c2.827,5.655,8.483,20.735,8.483,22.621"/>
			<path fill="none" stroke="#000000" stroke-miterlimit="10" d="M35.162,153.089c0,0,0-33.932,5.655-46.186"/>
			<path fill="none" stroke="#000000" stroke-miterlimit="10" d="M31.392,78.627c0,0,4.713,46.186,8.483,51.84"/>
			<path fill="none" stroke="#000000" stroke-miterlimit="10" d="M42.702,71.086c-1.885,8.483-11.311,52.783-11.311,52.783
				s3.77,13.196,8.483,16.966"/>
			<path fill="none" stroke="#000000" stroke-miterlimit="10" d="M30.449,101.248c0,0,10.368-31.104,12.253-42.415"/>
			<path fill="none" stroke="#000000" stroke-miterlimit="10" d="M33.277,72.971c0,0,8.483-25.448,11.311-36.759"/>
			<path fill="none" stroke="#000000" stroke-miterlimit="10" d="M37.047,48.465c0,0,1.885,34.875-1.885,47.128"/>
			<path fill="none" stroke="#000000" stroke-miterlimit="10" d="M34.219,71.086c0,0,0,12.254,0,16.966"/>
			<path fill="none" stroke="#000000" stroke-miterlimit="10" d="M38.932,109.73c0,0,0-12.253-0.942-18.851"/>
			<path fill="none" stroke="#000000" stroke-miterlimit="10" d="M33.277,102.19c0,0-3.77,18.852-5.655,18.852"/>
			<path fill="none" stroke="#000000" stroke-miterlimit="10" d="M33.277,118.214c-0.277-1.938,2.292,13.807,5.655,18.852"/>
			<path fill="none" stroke="#000000" stroke-miterlimit="10" d="M31.392,128.582c0,0,4.713,16.023,7.54,16.966"/>
			<path fill="none" stroke="#000000" stroke-miterlimit="10" d="M43.645,154.031c0,0,1.885-32.047-1.885-36.76"/>
			<path fill="none" stroke="#000000" stroke-miterlimit="10" d="M46.472,76.742c0,0,1.885,38.645-2.828,44.3"/>
			<path fill="none" stroke="#000000" stroke-miterlimit="10" d="M42.702,86.167c0,0,0.942,23.563,5.655,29.22"/>
			<path fill="none" stroke="#000000" stroke-miterlimit="10" d="M41.76,107.846c0,0,5.655,13.196,5.655,18.852"/>
			<path fill="none" stroke="#000000" stroke-miterlimit="10" d="M40.817,132.353c0,0,7.541,19.793,11.311,20.736"/>
			<path fill="none" stroke="#000000" stroke-miterlimit="10" d="M40.817,142.721c0,0,5.655,7.54,7.541,11.311"/>
			<path fill="none" stroke="#000000" stroke-miterlimit="10" d="M40.817,148.376c0,0,3.77,3.77,4.713,5.655"/>
			<path fill="none" stroke="#000000" stroke-miterlimit="10" d="M46.472,141.778c0,0,19.794-31.104,19.794-48.07"/>
			<path fill="none" stroke="#000000" stroke-miterlimit="10" d="M44.587,129.525c0,0,6.598,15.08,6.598,20.735"/>
			<path fill="none" stroke="#000000" stroke-miterlimit="10" d="M49.3,126.697c0,0,8.483,19.794,13.196,26.392"/>
			<path fill="none" stroke="#000000" stroke-miterlimit="10" d="M49.3,138.008c0,0,9.425,13.195,9.425,16.023"/>
			<path fill="none" stroke="#000000" stroke-miterlimit="10" d="M55.898,153.089c0,0,7.54-50.898-0.943-65.979"/>
			<path fill="none" stroke="#000000" stroke-miterlimit="10" d="M13.483,94.65c0,0,10.368-15.081,11.311-25.449"/>
			<path fill="none" stroke="#000000" stroke-miterlimit="10" d="M9.713,62.604c0,0,13.196-22.622,15.081-24.507"/>
			<path fill="none" stroke="#000000" stroke-miterlimit="10" d="M43.645-9.031c0,0,3.77,19.794,4.713,27.334"/>
			<path fill="none" stroke="#000000" stroke-miterlimit="10" d="M41.76-0.548c0,0,14.138,80.117,24.506,85.772"/>
			<path fill="none" stroke="#000000" stroke-miterlimit="10" d="M49.3,64.488c0,0,32.99,73.52,31.104,89.543"/>
			<path fill="none" stroke="#000000" stroke-miterlimit="10" d="M49.3-9.031c0,0-5.656,42.415-11.311,52.783"/>
			<path fill="none" stroke="#000000" stroke-miterlimit="10" d="M46.472-9.031c0,0-2.828,23.564-7.541,34.875"/>
			<path fill="none" stroke="#000000" stroke-miterlimit="10" d="M52.128-9.031c0,0-3.77,18.852-4.713,20.736"/>
			<path fill="none" stroke="#000000" stroke-miterlimit="10" d="M43.645,28.672c0,0,6.598,42.414,10.368,52.783"/>
			<path fill="none" stroke="#000000" stroke-miterlimit="10" d="M40.817,67.316c0,0,2.828-30.162-0.943-35.817"/>
			<path fill="none" stroke="#000000" stroke-miterlimit="10" d="M52.128,28.672c0,0-4.713,30.161-6.598,35.816"/>
			<path fill="none" stroke="#000000" stroke-miterlimit="10" d="M51.185,22.073c0,0-7.541,27.334-9.426,29.22"/>
			<path fill="none" stroke="#000000" stroke-miterlimit="10" d="M61.553,30.557c0,0,3.77,35.817,11.31,40.529"/>
			<path fill="none" stroke="#000000" stroke-miterlimit="10" d="M67.209,32.441c0,0-9.426,19.793-11.311,32.047"/>
			<path fill="none" stroke="#000000" stroke-miterlimit="10" d="M68.151,14.533c0,0-4.713,25.448-14.138,36.76"/>
			<path fill="none" stroke="#000000" stroke-miterlimit="10" d="M62.496-9.031c0,0,11.311,39.588,11.311,61.266"/>
			<path fill="none" stroke="#000000" stroke-miterlimit="10" d="M59.668,88.052c0,0,10.368-32.989,12.253-41.472"/>
			<path fill="none" stroke="#000000" stroke-miterlimit="10" d="M58.726,61.661c0,0,14.138,33.932,15.081,43.357
				c0,0-3.77,29.22-7.541,36.76"/>
			<path fill="none" stroke="#000000" stroke-miterlimit="10" d="M54.956,137.065c0,0,13.196-27.335,14.138-46.186"/>
			<path fill="none" stroke="#000000" stroke-miterlimit="10" d="M57.783,92.765c0,0,14.138,48.07,15.081,61.267"/>
			<path fill="none" stroke="#000000" stroke-miterlimit="10" d="M55.898,113.501c0,0,7.54,30.162,11.311,39.588"/>
			<path fill="none" stroke="#000000" stroke-miterlimit="10" d="M58.726,137.065c0,0,12.253,10.368,12.253,16.966"/>
			<path fill="none" stroke="#000000" stroke-miterlimit="10" d="M68.151,100.306c0,0,7.541,45.242,7.541,53.726"/>
			<path fill="none" stroke="#000000" stroke-miterlimit="10" d="M70.979,98.42c0,0-2.827,32.99-11.311,36.76"/>
			<path fill="none" stroke="#000000" stroke-miterlimit="10" d="M55.898,72.029c0,0,4.713,16.966,8.483,17.908"/>
			<path fill="none" stroke="#000000" stroke-miterlimit="10" d="M67.209-9.031c0,0,2.828,16.966,8.483,38.645"/>
			<path fill="none" stroke="#000000" stroke-miterlimit="10" d="M65.323-9.031c0,0,2.828,16.966,2.828,19.794"/>
			<path fill="none" stroke="#000000" stroke-miterlimit="10" d="M88.888,154.031l-11.311-48.07
				c-24.507-78.232-36.76-82.002-36.76-82.002"/>
			<path fill="none" stroke="#000000" stroke-miterlimit="10" d="M92.658,96.535c0,0-12.253,48.07-14.138,56.554"/>
			<path fill="none" stroke="#000000" stroke-miterlimit="10" d="M81.347,93.708c0,0,6.598,53.726,9.426,60.323"/>
			<path fill="none" stroke="#000000" stroke-miterlimit="10" d="M71.921,71.086c0,0,2.828,10.369,1.885,20.736"/>
			<path fill="none" stroke="#000000" stroke-miterlimit="10" d="M69.094,68.259c0,0,0.943,9.425,1.885,16.022"/>
			<path fill="none" stroke="#000000" stroke-miterlimit="10" d="M66.266,24.9c0,0,13.196,48.07,15.081,53.727"/>
			<path fill="none" stroke="#000000" stroke-miterlimit="10" d="M74.749,66.374c0,0,12.253,36.759,12.253,46.185"/>
			<path fill="none" stroke="#000000" stroke-miterlimit="10" d="M74.749-7.146c0,0,12.253,43.358,20.736,51.841"/>
			<path fill="none" stroke="#000000" stroke-miterlimit="10" d="M86.06-9.031c0,0-0.943,32.047-9.426,52.783"/>
			<path fill="none" stroke="#000000" stroke-miterlimit="10" d="M82.29,3.223c0,0-0.943,39.587,2.827,50.897"/>
			<path fill="none" stroke="#000000" stroke-miterlimit="10" d="M78.519,39.981c0,0,5.656,54.669,10.368,65.037"/>
			<path fill="none" stroke="#000000" stroke-miterlimit="10" d="M75.692,47.522c0,0,10.368,30.161,12.253,44.3"/>
			<path fill="none" stroke="#000000" stroke-miterlimit="10" d="M74.749,109.73c0,0,9.426,36.761,8.483,43.358"/>
			<path fill="none" stroke="#000000" stroke-miterlimit="10" d="M72.864,117.271c0,0,7.541,16.967,7.541,24.507"/>
			<path fill="none" stroke="#000000" stroke-miterlimit="10" d="M75.692,128.582c0,0,6.598-15.081,11.311-32.047"/>
			<path fill="none" stroke="#000000" stroke-miterlimit="10" d="M70.979,112.559c0,0,9.426-6.598,11.311-14.139"/>
			<path fill="none" stroke="#000000" stroke-miterlimit="10" d="M61.553,140.835c0,0,0,6.599,0,10.368"/>
			<path fill="none" stroke="#000000" stroke-miterlimit="10" d="M88.888-9.031c0,0,3.77,68.807-2.828,90.486"/>
			<path fill="none" stroke="#000000" stroke-miterlimit="10" d="M85.117,6.992c0,0,0.943,59.382,8.483,74.463"/>
			<path fill="none" stroke="#000000" stroke-miterlimit="10" d="M94.543-9.031c0,0,1.885,54.668-3.77,67.864"/>
			<path fill="none" stroke="#000000" stroke-miterlimit="10" d="M90.773,5.107c0,0,8.483,63.151,11.311,79.174"/>
			<path fill="none" stroke="#000000" stroke-miterlimit="10" d="M89.83,29.613c0,0,7.541-9.426,7.541-38.645"/>
			<path fill="none" stroke="#000000" stroke-miterlimit="10" d="M12.541,105.019c0,0,16.966,32.047,14.138,40.529"/>
			<path fill="none" stroke="#000000" stroke-miterlimit="10" d="M47.415,97.478c0,0,16.024,15.081,16.024,16.967"/>
			<path fill="none" stroke="#000000" stroke-miterlimit="10" d="M68.151,146.491c0,0-3.77-20.737-8.483-26.392"/>
			<path fill="none" stroke="#000000" stroke-miterlimit="10" d="M90.773,74.856c0,0,2.828,52.783-4.713,60.323"/>
			<path fill="none" stroke="#000000" stroke-miterlimit="10" d="M95.485,153.089c0,0,8.483-54.669-0.942-69.749"/>
			<path fill="none" stroke="#000000" stroke-miterlimit="10" d="M94.543,103.133c0,0,5.655,43.358,4.713,50.898"/>
			<path fill="none" stroke="#000000" stroke-miterlimit="10" d="M88.888,130.467c0,0,3.77,23.564,6.598,24.507"/>
			<path fill="none" stroke="#000000" stroke-miterlimit="10" d="M87.945,118.214c0,0,6.598,25.449,8.483,29.22"/>
			<path fill="none" stroke="#000000" stroke-miterlimit="10" d="M89.83,59.775c0,0,13.196,26.392,16.023,45.243
				c2.828,18.851,7.54,49.013,7.54,49.013"/>
			<path fill="none" stroke="#000000" stroke-miterlimit="10" d="M77.577-7.146c0,0,24.506,20.737,25.449,43.358"/>
			<path fill="none" stroke="#000000" stroke-miterlimit="10" d="M113.394-9.031c0,0,1.885,48.07-16.023,62.209"/>
			<path fill="none" stroke="#000000" stroke-miterlimit="10" d="M110.566-9.031c0,0-1.885,64.094,3.77,76.348"/>
			<path fill="none" stroke="#000000" stroke-miterlimit="10" d="M103.969,97.478c0,0,14.138-32.047,13.196-55.61"/>
			<path fill="none" stroke="#000000" stroke-miterlimit="10" d="M116.222,139.893c0,0,25.449-88.6,25.449-111.221"/>
			<path fill="none" stroke="#000000" stroke-miterlimit="10" d="M119.992,20.188c0,0,12.253,100.854,18.851,112.165"/>
			<path fill="none" stroke="#000000" stroke-miterlimit="10" d="M138.843,140.835c0,0,32.047-68.806,30.162-83.887"/>
			<path fill="none" stroke="#000000" stroke-miterlimit="10" d="M140.728,11.705c0,0,25.449,46.186,25.449,58.438"/>
			<path fill="none" stroke="#000000" stroke-miterlimit="10" d="M144.498,65.431c0,0,24.507-52.783,24.507-66.921"/>
			<path fill="none" stroke="#000000" stroke-miterlimit="10" d="M151.096,54.12c0,0,1.885,85.772,5.656,90.485"/>
			<path fill="none" stroke="#000000" stroke-miterlimit="10" d="M136.015,79.569c0,0,12.253,65.979,13.196,74.462"/>
			<path fill="none" stroke="#000000" stroke-miterlimit="10" d="M129.417-0.548c0,0-2.828,86.715-6.598,94.256"/>
			<path fill="none" stroke="#000000" stroke-miterlimit="10" d="M103.969,72.029c0,0,6.598,37.701,11.311,47.128"/>
			<path fill="none" stroke="#000000" stroke-miterlimit="10" d="M104.911,46.58c0,0,16.966,57.496,16.966,69.749"/>
			<path fill="none" stroke="#000000" stroke-miterlimit="10" d="M147.326-9.031c0,0-16.966,37.703-19.794,63.151"/>
			<path fill="none" stroke="#000000" stroke-miterlimit="10" d="M159.579-9.031c0,0,5.655,46.186,6.598,56.554
				s-16.966,77.29-19.794,87.657"/>
			<path fill="none" stroke="#000000" stroke-miterlimit="10" d="M163.35,83.34c0,0,3.77,62.208,3.77,70.691"/>
			<path fill="none" stroke="#000000" stroke-miterlimit="10" d="M136.958,60.718c0,0,13.196,93.313,27.334,94.256"/>
			<path fill="none" stroke="#000000" stroke-miterlimit="10" d="M168.062,82.396c0,0-9.426,48.07-8.483,71.635"/>
			<path fill="none" stroke="#000000" stroke-miterlimit="10" d="M136.015,95.593c0,0-4.713,45.242-5.655,58.438"/>
			<path fill="none" stroke="#000000" stroke-miterlimit="10" d="M136.015,83.34c0,0-16.023,46.186-16.966,70.691"/>
			<path fill="none" stroke="#000000" stroke-miterlimit="10" d="M103.026,115.387c0,0,6.598,23.563,6.598,38.645"/>
			<path fill="none" stroke="#000000" stroke-miterlimit="10" d="M115.279,87.109c0,0-11.311,58.438-13.196,65.979
				c-1.967,7.866-15.081-59.381-15.081-59.381"/>
			<path fill="none" stroke="#000000" stroke-miterlimit="10" d="M98.313,92.765c0,0,2.828,41.474,4.713,47.128"/>
			<path fill="none" stroke="#000000" stroke-miterlimit="10" d="M102.083,91.822c0,0-2.828,9.426-2.828,14.139"/>
			<path fill="none" stroke="#000000" stroke-miterlimit="10" d="M108.681,60.718c0,0-1.885,19.794-3.77,20.737"/>
			<path fill="none" stroke="#000000" stroke-miterlimit="10" d="M112.451,21.131c0,0-0.943,18.851,4.713,23.563"/>
			<path fill="none" stroke="#000000" stroke-miterlimit="10" d="M115.279,0.395c0,0,2.828,18.852,2.828,27.334"/>
			<path fill="none" stroke="#000000" stroke-miterlimit="10" d="M117.164-8.089c0,0,6.598,33.933,8.483,48.07"/>
			<path fill="none" stroke="#000000" stroke-miterlimit="10" d="M120.935-9.031c0,0,4.713,13.196,2.828,32.047"/>
			<path fill="none" stroke="#000000" stroke-miterlimit="10" d="M134.13-9.031c0,0-0.943,45.243,3.77,58.438"/>
			<path fill="none" stroke="#000000" stroke-miterlimit="10" d="M133.188,44.694c0,0-0.943,17.909-4.713,27.335"/>
			<path fill="none" stroke="#000000" stroke-miterlimit="10" d="M131.302,40.925c0,0-2.828,25.449,0,38.645"/>
			<path fill="none" stroke="#000000" stroke-miterlimit="10" d="M132.245,122.927c-10.368-10.368-15.081-53.726-15.081-53.726
				s3.77-9.426,5.655-16.967"/>
			<path fill="none" stroke="#000000" stroke-miterlimit="10" d="M109.624,117.271c0,0,14.138,28.276,13.196,35.817"/>
			<path fill="none" stroke="#000000" stroke-miterlimit="10" d="M110.566,130.467c0,0,4.713,17.909,9.426,22.622"/>
			<path fill="none" stroke="#000000" stroke-miterlimit="10" d="M125.647,119.157c0,0,13.196,18.851,11.311,33.932"/>
			<path fill="none" stroke="#000000" stroke-miterlimit="10" d="M125.647,138.95c0,0,3.77,12.253,6.598,15.081"/>
			<path fill="none" stroke="#000000" stroke-miterlimit="10" d="M124.705,133.295c0,0,8.483,16.023,8.483,19.794"/>
			<path fill="none" stroke="#000000" stroke-miterlimit="10" d="M142.613,133.295c0,0,0,16.966,0.943,20.736
				c1.446,5.783-18.851-30.162-18.851-30.162"/>
			<path fill="none" stroke="#000000" stroke-miterlimit="10" d="M139.786,138.95c0,0,0.943,11.311,5.655,15.081
				c0,0,24.507-31.104,23.564-47.128"/>
			<path fill="none" stroke="#000000" stroke-miterlimit="10" d="M146.384,138.008c0,0-1.885,11.311-7.541,15.081"/>
			<path fill="none" stroke="#000000" stroke-miterlimit="10" d="M137.9,106.903c0,0-1.885,24.507-4.713,27.335"/>
			<path fill="none" stroke="#000000" stroke-miterlimit="10" d="M138.843,60.718c0,0,7.541,50.898,11.311,51.841"/>
			<path fill="none" stroke="#000000" stroke-miterlimit="10" d="M134.13,51.293c0,0,17.908,20.736,17.908,52.783"/>
			<path fill="none" stroke="#000000" stroke-miterlimit="10" d="M145.441,77.684c0,0,13.196,39.588,16.023,45.243"/>
			<path fill="none" stroke="#000000" stroke-miterlimit="10" d="M145.441,85.225c0,0,12.253,60.323,19.794,61.267"/>
			<path fill="none" stroke="#000000" stroke-miterlimit="10" d="M169.005,123.869c0,0-13.196,24.507-16.966,29.22
				s16.023-17.909,16.023-17.909"/>
			<path fill="none" stroke="#000000" stroke-miterlimit="10" d="M169.005,139.893c0,0-6.598,8.483-6.598,13.196"/>
			<path fill="none" stroke="#000000" stroke-miterlimit="10" d="M165.235,154.031c0,0-10.368,4.713-16.966-18.852"/>
			<path fill="none" stroke="#000000" stroke-miterlimit="10" d="M101.141,69.201c0,0,1.885-23.564-3.77-34.875"/>
			<path fill="none" stroke="#000000" stroke-miterlimit="10" d="M103.969-9.031c0,0-0.943,47.128,4.713,58.438"/>
			<path fill="none" stroke="#000000" stroke-miterlimit="10" d="M101.141,10.763c0,0,0,24.506,0.942,32.047"/>
			<path fill="none" stroke="#000000" stroke-miterlimit="10" d="M142.613-9.974c0,0,6.598,53.726,8.483,59.381"/>
			<path fill="none" stroke="#000000" stroke-miterlimit="10" d="M146.384,72.971c0,0-0.943-67.863,8.483-69.748"/>
			<path fill="none" stroke="#000000" stroke-miterlimit="10" d="M152.039,84.281c0,0,9.426-47.127,16.966-43.356"/>
			<path fill="none" stroke="#000000" stroke-miterlimit="10" d="M152.039,90.88c0,0,14.138-43.357,16.966-41.473"/>
			<path fill="none" stroke="#000000" stroke-miterlimit="10" d="M163.35,108.789c0,0-8.483-60.324-15.081-62.209"/>
			<path fill="none" stroke="#000000" stroke-miterlimit="10" d="M148.269,72.971c0,0,15.081-29.219,2.828-52.783"/>
			<path fill="none" stroke="#000000" stroke-miterlimit="10" d="M136.015,29.613c0,0,14.138-38.645,21.679-38.645"/>
			<path fill="none" stroke="#000000" stroke-miterlimit="10" d="M169.005,31.499c0,0-2.828-34.875-4.713-41.473"/>
			<path fill="none" stroke="#000000" stroke-miterlimit="10" d="M167.12-9.031c0,0-17.909,25.449-17.909,32.047"/>
			<path fill="none" stroke="#000000" stroke-miterlimit="10" d="M162.407-9.031c0,0-2.828,25.449-7.541,33.932"/>
			<path fill="none" stroke="#000000" stroke-miterlimit="10" d="M161.464,45.637c0,0-4.713-39.587,6.598-49.013"/>
			<path fill="none" stroke="#000000" stroke-miterlimit="10" d="M140.728,59.775c0,0,0.942-24.507-1.885-32.047"/>
			<path fill="none" stroke="#000000" stroke-miterlimit="10" d="M114.337,31.499c0,0,0.942-15.081,2.828-15.081"/>
			<path fill="none" stroke="#000000" stroke-miterlimit="10" d="M103.969,64.488c0,0,12.253-13.195,13.196-17.908"/>
			<path fill="none" stroke="#000000" stroke-miterlimit="10" d="M105.854,105.019c0,0,5.655-27.335,11.311-28.276"/>
			<path fill="none" stroke="#000000" stroke-miterlimit="10" d="M119.992,125.754c0,0-3.77-22.621-9.426-32.989"/>
			<path fill="none" stroke="#000000" stroke-miterlimit="10" d="M127.532,127.64c0,0,4.713-13.195,5.655-21.679"/>
			<path fill="none" stroke="#000000" stroke-miterlimit="10" d="M125.647,87.109c0,0,3.77,23.564,4.713,27.335"/>
			<path fill="none" stroke="#000000" stroke-miterlimit="10" d="M131.302-7.146c0,0,5.655,12.254,5.655,19.794"/>
			<path fill="none" stroke="#000000" stroke-miterlimit="10" d="M152.981,44.694c0,0-1.885-13.195-11.311-19.794"/>
			<path fill="none" stroke="#000000" stroke-miterlimit="10" d="M145.441-9.031c0,0,7.541,30.162,10.368,30.162"/>
			<path fill="none" stroke="#000000" stroke-miterlimit="10" d="M149.211-9.031c0,0,4.713,23.564,7.541,24.507"/>
			<path fill="none" stroke="#000000" stroke-miterlimit="10" d="M167.12,23.016c0,0-1.885,28.277-4.713,32.047"/>
			<path fill="none" stroke="#000000" stroke-miterlimit="10" d="M169.005,73.914c0,0-3.77,8.482-4.713,17.908"/>
			<path fill="none" stroke="#000000" stroke-miterlimit="10" d="M169.005,102.19c0,0-3.77-26.392-5.655-30.161"/>
		</g>
	</g>
	<path fill="#FFFFFF" d="M117.885,139.846c-21.024-0.277-41.421-11.114-53.014-30.481C47.09,79.665,56.753,41.17,86.455,23.39
		c6.975-4.178,14.438-6.819,22-8.064c-11.222-0.147-22.624,2.708-32.961,8.896C45.793,42.004,36.128,80.495,53.91,110.197
		C67.516,132.925,93.244,143.9,117.885,139.846"/>
</g>
</svg>
