<?xml version="1.0" encoding="utf-8"?>
<!-- Generator: Adobe Illustrator 16.2.0, SVG Export Plug-In . SVG Version: 6.00 Build 0)  -->
<!DOCTYPE svg PUBLIC "-//W3C//DTD SVG 1.1//EN" "http://www.w3.org/Graphics/SVG/1.1/DTD/svg11.dtd">
<svg version="1.1" id="Layer_1" xmlns="http://www.w3.org/2000/svg" xmlns:xlink="http://www.w3.org/1999/xlink" x="0px" y="0px"
	 width="173px" height="167px" viewBox="0 0 173 167" enable-background="new 0 0 173 167" xml:space="preserve">
<g>
	<path fill="none" stroke="#000000" stroke-miterlimit="10" d="M72.568,65c0,0-4,12,0,28c3.646,14.584,2,14,2,14"/>
	<path fill="none" stroke="#000000" stroke-miterlimit="10" d="M78.568,109c0,0-8-4-21,1s-17,10-21,4s-7,5-9,8s-16,18-6,16
		c0,0,12-11,19-12c0,0,41-5,43-5s9-3,8-31"/>
	<circle fill="none" stroke="#000000" stroke-miterlimit="10" cx="68.568" cy="153" r="13"/>
	<path fill="none" stroke="#000000" stroke-miterlimit="10" d="M108.568,34c0,0-6,26-9,29c0,0-5,11,5,18c7,7,15,23,15,23s4,6,1,11
		c-4,7-14,25-17,27c-2,4-3,6-3,6s-0.739-1.109,4,6c2,3,13,8,7,8c-3,0-3,1-5,0c-4.151-2.075-13.147-4.718-16-7c-2-4,0-7,4-10
		c4-11,4-20,14-30c3-3,1-5,0-6s-17-13-17-13"/>
	<path fill="none" stroke="#000000" stroke-miterlimit="10" d="M107.568,40c0,0,13,4,18,8c5,1,15,2,20,5s10,4,12,4s-4-5-5-5s8,4,9,6
		s5-8-14-10c-2-2-10-9-16-10s-16-3-17-9c-1-3-5-6-7-6"/>
	<path fill="none" stroke="#000000" stroke-miterlimit="10" d="M109.568,15c1.185-8.479-3.933-13.163-8.855-13.851
		c-4.923-0.688-9.389,2.161-10.574,10.639C88.955,20.267,94.646,29.313,99.568,30C104.491,30.688,108.383,23.479,109.568,15z"/>
	<path fill="none" stroke="#000000" stroke-miterlimit="10" d="M90.568,22c0,0-15,3-22,12c-9,6-14,11-15,12s-10,3-24,17
		c-5,2-7,1-9,3s-5,5-1,11c7,3,8,0,11-4s21.317-16.658,24-18c4-2,18-13,21-13"/>
	<path fill="none" stroke="#000000" stroke-miterlimit="10" d="M71.568,45c0,0,2,13,0,20"/>
	<path fill="none" stroke="#000000" stroke-miterlimit="10" d="M30.568,63c0,0,4,2,4,5"/>
	<path fill="none" stroke="#000000" stroke-miterlimit="10" d="M146.568,48c0,0-1,1-1,4"/>
	<path fill="none" stroke="#000000" stroke-miterlimit="10" d="M72.568,64c0,0,5,8,26,2"/>
	<path fill="none" stroke="#000000" stroke-miterlimit="10" d="M103.568,105c0,0,4-8,10-10"/>
	<path fill="none" stroke="#000000" stroke-miterlimit="10" d="M74.568,100c1,0,10-4,16,2"/>
</g>
</svg>
