<?xml version="1.0" encoding="utf-8"?>
<!-- Generator: Adobe Illustrator 16.2.0, SVG Export Plug-In . SVG Version: 6.00 Build 0)  -->
<!DOCTYPE svg PUBLIC "-//W3C//DTD SVG 1.1//EN" "http://www.w3.org/Graphics/SVG/1.1/DTD/svg11.dtd">
<svg version="1.1" id="Layer_1" xmlns="http://www.w3.org/2000/svg" xmlns:xlink="http://www.w3.org/1999/xlink" x="0px" y="0px"
	 width="173px" height="171px" viewBox="0 0 173 171" enable-background="new 0 0 173 171" xml:space="preserve">
<g>
	<g>
		<path fill="#FFFFFF" d="M119.332,38.662c0,0,0-5.325-3.041-6.084c-2.335-0.585,8.365-5.324,8.365-5.324l5.323,2.281
			c0,0-0.76,1.521-0.76,3.043c0,1.521-0.761,6.084-0.761,6.084s-0.76,3.043,0,4.563C129.219,44.744,119.332,39.424,119.332,38.662z"
			/>
		<path fill="#FFFFFF" d="M133.021,81.25c0-3.801-0.761-11.408,0-22.816c0.761-11.408-4.564-14.447-4.564-14.447
			s-6.844-3.805-9.126-3.043c-2.282,0.762-3.802,11.408-3.802,11.408s-1.521,4.563,0,5.323c1.521,0.759,2.281,6.085,3.043,9.126
			c1.521,2.281,0,6.086,0,6.086s-1.522,3.041-3.043,5.322c-2.281,1.521-5.324,14.449-5.324,14.449l3.042,0.764L133.021,81.25z"/>
		<g>
			<path fill="#FFFFFF" stroke="#000000" stroke-miterlimit="10" d="M111.581,93.422c0,0-5.323,19.771-5.323,22.053
				s-6.845,14.45-7.605,16.731c0,0-3.802,10.647-4.563,11.407c0,0-1.521,2.281,2.282,3.803c3.802,1.52,6.845,2.283,6.845,2.283
				s4.563,0,5.324,0c0.759,0,0-2.283-4.563-4.564s0-8.366,0.76-9.889c0.76-1.52,7.605-12.928,9.125-14.448
				c1.522-1.522,12.169-20.532,12.169-22.054c0,0,11.407,12.167,13.688,13.688c2.281,1.521,7.605,17.493,15.971,21.295
				c0.761,4.564,2.282,7.605,6.845,3.801c5.325,0,6.084,2.281,9.887-0.759c0.76-2.281-1.521-3.042-5.324-3.042
				c-8.366,0-17.492-23.576-17.492-24.336c0-0.762-4.563-7.605-6.845-11.406c-2.282-3.805-8.365-13.689-9.126-14.453l-0.759-12.926"
				/>
			<path fill="none" stroke="#000000" stroke-miterlimit="10" d="M138.199,91.139c0,0-12.167,9.127-27.378,1.52
				c-0.761-5.322,4.563-15.971,7.604-19.012l0.761-4.564c0,0-3.802-10.648-4.563-18.251"/>
			<path fill="#FFFFFF" stroke="#000000" stroke-miterlimit="10" d="M118.426,40.943c0,0,9.126,4.564,11.408,5.324
				c0.362,0.121,0.57,0.105,0.666,0c0.507-0.57-2.187-3.805-2.187-3.805c-3.042-0.758-8.365-5.322-9.126-4.563
				c-0.761,0.763-0.761,3.044-2.281,5.326c-2.282,0-9.887,14.449-12.929,15.972c-3.043,1.518-6.845,16.73-7.605,16.73
				c-0.76,0-3.803,3.041-3.803,5.322s1.521,5.326,3.803,3.805c2.281-1.523,3.042-2.282,3.802-7.605
				c4.563-4.563,4.563-6.085,6.845-9.127c2.281-3.043,8.367-9.889,8.367-9.889"/>
			<path fill="#FFFFFF" stroke="#000000" stroke-miterlimit="10" d="M133.636,56.152c-0.759-3.801-0.189-7.604-3.136-9.885"/>
			<path fill="#FFFFFF" stroke="#000000" stroke-miterlimit="10" d="M117.666,53.112c0,0,7.605,18.252,16.731,17.493
				c4.563-2.283,6.845-5.326,6.845-6.846c0-1.521,1.521-6.846-2.282-6.085c-3.802,0.759-3.802,2.281-3.802,3.04
				c-0.761-3.04-9.126-12.926-9.126-12.926"/>
			<path fill="#FFFFFF" stroke="#000000" stroke-miterlimit="10" d="M116.145,33.337l9.126-5.321c0,0,4.563,3.04,7.606,2.281
				c-1.522-3.043-6.845-5.324-7.606-8.366c-0.761-3.04-12.168,0-9.886,6.844C115.385,30.297,116.145,33.337,116.145,33.337z"/>
			<path fill="none" stroke="#000000" stroke-miterlimit="10" d="M117.666,33.337c0,0,1.521,3.804,1.521,4.563"/>
			<path fill="#FFFFFF" stroke="#000000" stroke-miterlimit="10" d="M120.707,34.859c0,0,5.325,5.322,7.606,4.564
				c2.281-0.762,0.76-4.564,1.521-5.324c0.76-0.763,0.76-1.521-0.76-3.803"/>
			<path fill="none" stroke="#000000" stroke-miterlimit="10" d="M127.552,39.424c0,0,0,2.281,0.76,3.039"/>
			<path fill="none" stroke="#000000" stroke-miterlimit="10" d="M99.413,131.445c0,0,4.563,2.281,5.324,3.801"/>
			<path fill="none" stroke="#000000" stroke-miterlimit="10" d="M149.607,128.4c0,0,4.563-3.04,6.083-5.321"/>
			<path fill="none" stroke="#000000" stroke-miterlimit="10" d="M96.371,75.928c0,0,3.042,0.76,3.802,1.521"/>
			<path fill="none" stroke="#000000" stroke-miterlimit="10" d="M135.918,59.956c0,0,4.563-0.759,5.324,2.282"/>
			<path fill="none" stroke="#000000" stroke-miterlimit="10" d="M119.187,72.887c0,0,12.168,0,13.69,1.52"/>
			<path fill="none" stroke="#000000" stroke-miterlimit="10" d="M119.187,69.842c0,0,6.845-0.76,9.126-0.76"/>
		</g>
	</g>
	<g>
		<path fill="#FFFFFF" d="M104.004,35.752c0,0,0-5.658-3.231-6.465c-2.48-0.621,8.888-5.656,8.888-5.656l5.656,2.424
			c0,0-0.808,1.615-0.808,3.232s-0.809,6.465-0.809,6.465s-0.808,3.232,0,4.849C114.51,42.215,104.004,36.561,104.004,35.752z"/>
		<path fill="#FFFFFF" d="M118.55,81.002c0-4.039-0.808-12.121,0-24.242c0.809-12.121-4.849-15.352-4.849-15.352
			s-7.272-4.041-9.697-3.232s-4.04,12.121-4.04,12.121s-1.616,4.848,0,5.656c1.616,0.807,2.424,6.465,3.233,9.696
			c1.615,2.424,0,6.466,0,6.466s-1.617,3.231-3.233,5.655c-2.424,1.616-5.657,15.353-5.657,15.353l3.233,0.811L118.55,81.002z"/>
		<g>
			<path fill="#FFFFFF" stroke="#000000" stroke-miterlimit="10" d="M95.77,93.934c0,0-5.656,21.008-5.656,23.432
				s-7.272,15.354-8.081,17.777c0,0-4.04,11.313-4.849,12.12c0,0-1.616,2.424,2.424,4.04c4.04,1.615,7.272,2.426,7.272,2.426
				s4.849,0,5.657,0c0.807,0,0-2.426-4.849-4.85s0-8.889,0.808-10.506c0.808-1.615,8.081-13.736,9.696-15.352
				c1.617-1.617,12.929-21.816,12.929-23.433c0,0,12.12,12.928,14.544,14.544c2.424,1.615,8.081,18.586,16.969,22.625
				c0.809,4.85,2.424,8.081,7.272,4.039c5.657,0,6.464,2.424,10.505-0.807c0.808-2.424-1.617-3.232-5.656-3.232
				c-8.889,0-18.585-25.049-18.585-25.857s-4.849-8.08-7.273-12.119c-2.424-4.042-8.888-14.545-9.697-15.355l-0.807-13.734"/>
			<path fill="none" stroke="#000000" stroke-miterlimit="10" d="M124.051,91.508c0,0-12.928,9.697-29.089,1.615
				c-0.808-5.655,4.849-16.969,8.08-20.2l0.808-4.85c0,0-4.04-11.313-4.848-19.392"/>
			<path fill="#FFFFFF" stroke="#000000" stroke-miterlimit="10" d="M103.042,38.176c0,0,9.697,4.85,12.121,5.656
				c0.384,0.129,0.605,0.113,0.707,0c0.539-0.605-2.323-4.041-2.323-4.041c-3.232-0.807-8.888-5.656-9.697-4.85
				c-0.808,0.811-0.808,3.234-2.424,5.659c-2.424,0-10.505,15.353-13.737,16.97c-3.233,1.613-7.273,17.776-8.081,17.776
				c-0.808,0-4.04,3.231-4.04,5.655s1.616,5.658,4.04,4.042c2.424-1.618,3.232-2.425,4.04-8.081
				c4.849-4.848,4.849-6.465,7.272-9.697s8.89-10.506,8.89-10.506"/>
			<path fill="#FFFFFF" stroke="#000000" stroke-miterlimit="10" d="M119.203,54.336c-0.807-4.039-0.202-8.08-3.333-10.504"/>
			<path fill="#FFFFFF" stroke="#000000" stroke-miterlimit="10" d="M102.234,51.105c0,0,8.08,19.393,17.777,18.586
				c4.848-2.426,7.272-5.658,7.272-7.273c0-1.616,1.616-7.273-2.424-6.465c-4.04,0.807-4.04,2.424-4.04,3.23
				c-0.808-3.23-9.697-13.734-9.697-13.734"/>
			<path fill="#FFFFFF" stroke="#000000" stroke-miterlimit="10" d="M100.618,30.094l9.697-5.654c0,0,4.849,3.23,8.081,2.424
				c-1.617-3.232-7.273-5.656-8.081-8.889c-0.808-3.23-12.929,0-10.504,7.271C99.811,26.863,100.618,30.094,100.618,30.094z"/>
			<path fill="none" stroke="#000000" stroke-miterlimit="10" d="M102.234,30.094c0,0,1.616,4.041,1.616,4.848"/>
			<path fill="#FFFFFF" stroke="#000000" stroke-miterlimit="10" d="M105.466,31.711c0,0,5.657,5.656,8.081,4.85
				c2.424-0.809,0.808-4.85,1.616-5.656c0.808-0.811,0.808-1.617-0.808-4.041"/>
			<path fill="none" stroke="#000000" stroke-miterlimit="10" d="M112.739,36.561c0,0,0,2.424,0.808,3.23"/>
			<path fill="none" stroke="#000000" stroke-miterlimit="10" d="M82.841,134.334c0,0,4.849,2.424,5.656,4.039"/>
			<path fill="none" stroke="#000000" stroke-miterlimit="10" d="M136.172,131.1c0,0,4.848-3.23,6.464-5.654"/>
			<path fill="none" stroke="#000000" stroke-miterlimit="10" d="M79.608,75.347c0,0,3.232,0.808,4.04,1.616"/>
			<path fill="none" stroke="#000000" stroke-miterlimit="10" d="M121.627,58.377c0,0,4.848-0.807,5.657,2.425"/>
			<path fill="none" stroke="#000000" stroke-miterlimit="10" d="M103.85,72.115c0,0,12.929,0,14.545,1.615"/>
			<path fill="none" stroke="#000000" stroke-miterlimit="10" d="M103.85,68.881c0,0,7.273-0.808,9.697-0.808"/>
		</g>
	</g>
	<g>
		<path fill="#FFFFFF" d="M88.177,32.842c0,0,0-5.99-3.421-6.845c-2.626-0.657,9.411-5.989,9.411-5.989l5.99,2.566
			c0,0-0.856,1.711-0.856,3.423s-0.856,6.845-0.856,6.845s-0.855,3.423,0,5.134C99.3,39.686,88.177,33.698,88.177,32.842z"/>
		<path fill="#FFFFFF" d="M103.578,80.754c0-4.277-0.855-12.834,0-25.668c0.856-12.834-5.134-16.255-5.134-16.255
			s-7.7-4.278-10.267-3.423c-2.567,0.856-4.278,12.834-4.278,12.834s-1.711,5.133,0,5.989c1.711,0.854,2.567,6.845,3.423,10.267
			c1.711,2.566,0,6.846,0,6.846s-1.712,3.422-3.423,5.988c-2.567,1.711-5.989,16.256-5.989,16.256l3.423,0.857L103.578,80.754z"/>
		<g>
			<path fill="#FFFFFF" stroke="#000000" stroke-miterlimit="10" d="M79.458,94.445c0,0-5.989,22.244-5.989,24.811
				s-7.701,16.257-8.556,18.823c0,0-4.278,11.978-5.134,12.833c0,0-1.711,2.566,2.567,4.277c4.278,1.711,7.7,2.568,7.7,2.568
				s5.134,0,5.99,0c0.854,0,0-2.568-5.134-5.135s0-9.411,0.855-11.123c0.855-1.711,8.556-14.545,10.267-16.255
				c1.712-1.712,13.69-23.101,13.69-24.812c0,0,12.833,13.688,15.4,15.4c2.566,1.71,8.556,19.679,17.967,23.955
				c0.856,5.135,2.567,8.557,7.7,4.277c5.99,0,6.845,2.566,11.123-0.854c0.855-2.566-1.711-3.423-5.989-3.423
				c-9.412,0-19.678-26.521-19.678-27.378s-5.134-8.556-7.701-12.833c-2.567-4.279-9.411-15.4-10.267-16.258l-0.855-14.543"/>
			<path fill="none" stroke="#000000" stroke-miterlimit="10" d="M109.403,91.877c0,0-13.689,10.268-30.801,1.711
				c-0.855-5.988,5.134-17.967,8.556-21.389l0.855-5.135c0,0-4.277-11.979-5.133-20.532"/>
			<path fill="#FFFFFF" stroke="#000000" stroke-miterlimit="10" d="M87.158,35.408c0,0,10.267,5.135,12.834,5.989
				c0.406,0.136,0.641,0.12,0.749,0c0.571-0.642-2.459-4.278-2.459-4.278c-3.423-0.854-9.411-5.989-10.268-5.135
				c-0.855,0.857-0.855,3.424-2.566,5.991c-2.567,0-11.123,16.256-14.545,17.968c-3.423,1.709-7.7,18.822-8.556,18.822
				c-0.855,0-4.278,3.422-4.278,5.988s1.711,5.99,4.278,4.279c2.567-1.713,3.422-2.567,4.278-8.557
				c5.134-5.133,5.134-6.845,7.7-10.268c2.566-3.422,9.412-11.123,9.412-11.123"/>
			<path fill="#FFFFFF" stroke="#000000" stroke-miterlimit="10" d="M104.27,52.52c-0.855-4.277-0.213-8.556-3.529-11.122"/>
			<path fill="#FFFFFF" stroke="#000000" stroke-miterlimit="10" d="M86.303,49.099c0,0,8.556,20.533,18.823,19.679
				c5.133-2.568,7.7-5.99,7.7-7.701s1.711-7.701-2.567-6.845c-4.278,0.854-4.278,2.566-4.278,3.421
				c-0.855-3.421-10.267-14.543-10.267-14.543"/>
			<path fill="#FFFFFF" stroke="#000000" stroke-miterlimit="10" d="M84.591,26.852l10.267-5.987c0,0,5.134,3.421,8.556,2.566
				c-1.711-3.423-7.7-5.989-8.556-9.411c-0.855-3.422-13.689,0-11.122,7.699C83.736,23.431,84.591,26.852,84.591,26.852z"/>
			<path fill="none" stroke="#000000" stroke-miterlimit="10" d="M86.303,26.852c0,0,1.711,4.278,1.711,5.133"/>
			<path fill="#FFFFFF" stroke="#000000" stroke-miterlimit="10" d="M89.725,28.563c0,0,5.99,5.989,8.557,5.135
				c2.566-0.856,0.855-5.135,1.711-5.989c0.855-0.857,0.855-1.712-0.855-4.278"/>
			<path fill="none" stroke="#000000" stroke-miterlimit="10" d="M97.425,33.698c0,0,0,2.566,0.856,3.421"/>
			<path fill="none" stroke="#000000" stroke-miterlimit="10" d="M65.769,137.223c0,0,5.134,2.566,5.989,4.277"/>
			<path fill="none" stroke="#000000" stroke-miterlimit="10" d="M122.237,133.799c0,0,5.133-3.421,6.844-5.987"/>
			<path fill="none" stroke="#000000" stroke-miterlimit="10" d="M62.346,74.766c0,0,3.422,0.855,4.278,1.711"/>
			<path fill="none" stroke="#000000" stroke-miterlimit="10" d="M106.836,56.798c0,0,5.133-0.854,5.989,2.567"/>
			<path fill="none" stroke="#000000" stroke-miterlimit="10" d="M88.014,71.344c0,0,13.689,0,15.401,1.711"/>
			<path fill="none" stroke="#000000" stroke-miterlimit="10" d="M88.014,67.92c0,0,7.701-0.855,10.268-0.855"/>
		</g>
	</g>
	<g>
		<path fill="#FFFFFF" d="M70.85,29.932c0,0,0-6.322-3.612-7.225c-2.771-0.693,9.934-6.322,9.934-6.322l6.322,2.709
			c0,0-0.903,1.807-0.903,3.613s-0.903,7.225-0.903,7.225s-0.903,3.613,0,5.419S70.85,30.836,70.85,29.932z"/>
		<path fill="#FFFFFF" d="M87.106,80.506c0-4.516-0.903-13.547,0-27.094s-5.419-17.158-5.419-17.158s-8.128-4.516-10.837-3.613
			c-2.709,0.904-4.516,13.547-4.516,13.547s-1.806,5.419,0,6.322c1.806,0.902,2.709,7.225,3.613,10.837c1.806,2.709,0,7.226,0,7.226
			s-1.807,3.612-3.613,6.321c-2.709,1.806-6.322,17.159-6.322,17.159l3.613,0.904L87.106,80.506z"/>
		<g>
			<path fill="#FFFFFF" stroke="#000000" stroke-miterlimit="10" d="M61.646,94.957c0,0-6.321,23.48-6.321,26.189
				s-8.128,17.16-9.031,19.869c0,0-4.516,12.643-5.419,13.546c0,0-1.806,2.709,2.709,4.516c4.516,1.806,8.128,2.71,8.128,2.71
				s5.419,0,6.322,0c0.902,0,0-2.71-5.419-5.419c-5.419-2.71,0-9.935,0.903-11.741c0.903-1.806,9.031-15.353,10.837-17.158
				c1.807-1.807,14.45-24.385,14.45-26.19c0,0,13.547,14.449,16.256,16.256c2.709,1.806,9.031,20.772,18.965,25.287
				c0.903,5.419,2.709,9.031,8.128,4.515c6.322,0,7.225,2.709,11.741-0.902c0.903-2.709-1.807-3.612-6.322-3.612
				c-9.935,0-20.771-27.996-20.771-28.899c0-0.904-5.419-9.031-8.128-13.547s-9.934-16.256-10.837-17.16l-0.903-15.352"/>
			<path fill="none" stroke="#000000" stroke-miterlimit="10" d="M93.255,92.246c0,0-14.45,10.838-32.512,1.807
				c-0.903-6.321,5.419-18.965,9.031-22.577l0.903-5.42c0,0-4.515-12.644-5.418-21.673"/>
			<path fill="#FFFFFF" stroke="#000000" stroke-miterlimit="10" d="M69.774,32.641c0,0,10.837,5.42,13.547,6.322
				c0.429,0.143,0.677,0.127,0.79,0c0.603-0.678-2.596-4.516-2.596-4.516c-3.613-0.902-9.934-6.322-10.838-5.42
				c-0.903,0.904-0.903,3.613-2.709,6.323c-2.709,0-11.741,17.159-15.353,18.966c-3.613,1.805-8.128,19.868-9.031,19.868
				c-0.903,0-4.515,3.612-4.515,6.321s1.806,6.322,4.515,4.517c2.71-1.808,3.613-2.71,4.516-9.032
				c5.419-5.418,5.419-7.225,8.128-10.837s9.935-11.741,9.935-11.741"/>
			<path fill="#FFFFFF" stroke="#000000" stroke-miterlimit="10" d="M87.836,50.703c-0.903-4.516-0.226-9.031-3.725-11.74"/>
			<path fill="#FFFFFF" stroke="#000000" stroke-miterlimit="10" d="M68.871,47.092c0,0,9.031,21.674,19.869,20.771
				c5.418-2.71,8.128-6.322,8.128-8.129c0-1.806,1.806-8.128-2.709-7.225c-4.516,0.902-4.516,2.709-4.516,3.611
				C88.74,52.51,78.806,40.77,78.806,40.77"/>
			<path fill="#FFFFFF" stroke="#000000" stroke-miterlimit="10" d="M67.065,23.609l10.837-6.32c0,0,5.419,3.611,9.031,2.709
				c-1.807-3.613-8.128-6.322-9.031-9.935c-0.904-3.612-14.45,0-11.74,8.128C66.162,19.998,67.065,23.609,67.065,23.609z"/>
			<path fill="none" stroke="#000000" stroke-miterlimit="10" d="M68.871,23.609c0,0,1.806,4.516,1.806,5.418"/>
			<path fill="#FFFFFF" stroke="#000000" stroke-miterlimit="10" d="M72.483,25.416c0,0,6.322,6.322,9.032,5.42
				c2.709-0.904,0.903-5.42,1.806-6.322c0.903-0.904,0.903-1.807-0.903-4.516"/>
			<path fill="none" stroke="#000000" stroke-miterlimit="10" d="M80.612,30.836c0,0,0,2.709,0.903,3.611"/>
			<path fill="none" stroke="#000000" stroke-miterlimit="10" d="M47.196,140.111c0,0,5.419,2.71,6.322,4.516"/>
			<path fill="none" stroke="#000000" stroke-miterlimit="10" d="M106.802,136.498c0,0,5.418-3.611,7.225-6.32"/>
			<path fill="none" stroke="#000000" stroke-miterlimit="10" d="M43.584,74.185c0,0,3.613,0.903,4.516,1.806"/>
			<path fill="none" stroke="#000000" stroke-miterlimit="10" d="M90.546,55.219c0,0,5.418-0.902,6.322,2.71"/>
			<path fill="none" stroke="#000000" stroke-miterlimit="10" d="M70.677,70.572c0,0,14.45,0,16.256,1.807"/>
			<path fill="none" stroke="#000000" stroke-miterlimit="10" d="M70.677,66.959c0,0,8.128-0.903,10.838-0.903"/>
		</g>
	</g>
	<g>
		<path fill="#FFFFFF" d="M54.023,27.021c0,0,0-6.654-3.802-7.605c-2.917-0.729,10.457-6.654,10.457-6.654l6.654,2.852
			c0,0-0.95,1.902-0.95,3.803c0,1.902-0.951,7.605-0.951,7.605s-0.951,3.803,0,5.704S54.023,27.973,54.023,27.021z"/>
		<path fill="#FFFFFF" d="M71.135,80.258c0-4.754-0.951-14.26,0-28.52s-5.704-18.063-5.704-18.063s-8.556-4.753-11.408-3.803
			c-2.852,0.951-4.753,14.26-4.753,14.26s-1.901,5.704,0,6.654c1.901,0.951,2.852,7.605,3.803,11.408c1.901,2.852,0,7.605,0,7.605
			s-1.901,3.803-3.803,6.654c-2.852,1.901-6.654,18.063-6.654,18.063l3.803,0.951L71.135,80.258z"/>
		<g>
			<path fill="#FFFFFF" stroke="#000000" stroke-miterlimit="10" d="M44.334,95.469c0,0-6.654,24.717-6.654,27.568
				s-8.556,18.063-9.506,20.914c0,0-4.753,13.309-5.704,14.26c0,0-1.901,2.852,2.852,4.753s8.556,2.853,8.556,2.853s5.704,0,6.655,0
				c0.95,0,0-2.853-5.704-5.704c-5.704-2.853,0-10.458,0.951-12.358c0.951-1.901,9.506-16.161,11.408-18.063
				s15.21-25.668,15.21-27.568c0,0,14.26,15.21,17.112,17.111c2.852,1.901,9.506,21.865,19.963,26.618
				c0.951,5.704,2.852,9.507,8.556,4.753c6.655,0,7.605,2.852,12.358-0.951c0.951-2.852-1.901-3.802-6.654-3.802
				c-10.458,0-21.865-29.47-21.865-30.421s-5.704-9.506-8.556-14.26c-2.852-4.753-10.457-17.111-11.407-18.063l-0.951-16.16"/>
			<path fill="none" stroke="#000000" stroke-miterlimit="10" d="M77.607,92.616c0,0-15.21,11.407-34.224,1.901
				c-0.95-6.654,5.704-19.964,9.507-23.766l0.95-5.705c0,0-4.753-13.309-5.704-22.814"/>
			<path fill="#FFFFFF" stroke="#000000" stroke-miterlimit="10" d="M52.891,29.873c0,0,11.408,5.705,14.26,6.655
				c0.451,0.15,0.712,0.134,0.832,0c0.634-0.714-2.733-4.753-2.733-4.753c-3.802-0.951-10.457-6.655-11.408-5.705
				c-0.95,0.951-0.95,3.803-2.852,6.655c-2.852,0-12.358,18.062-16.161,19.964c-3.803,1.9-8.556,20.914-9.506,20.914
				s-4.753,3.803-4.753,6.654s1.901,6.654,4.753,4.754c2.852-1.902,3.802-2.853,4.753-9.508c5.704-5.703,5.704-7.604,8.556-11.407
				c2.852-3.802,10.457-12.358,10.457-12.358"/>
			<path fill="#FFFFFF" stroke="#000000" stroke-miterlimit="10" d="M71.903,48.887c-0.951-4.754-0.238-9.507-3.921-12.358"/>
			<path fill="#FFFFFF" stroke="#000000" stroke-miterlimit="10" d="M51.94,45.084c0,0,9.506,22.815,20.914,21.865
				c5.704-2.853,8.556-6.654,8.556-8.557c0-1.9,1.901-8.556-2.852-7.605c-4.753,0.951-4.753,2.853-4.753,3.803
				c-0.951-3.803-11.408-16.16-11.408-16.16"/>
			<path fill="#FFFFFF" stroke="#000000" stroke-miterlimit="10" d="M50.039,20.367l11.408-6.654c0,0,5.704,3.803,9.506,2.852
				c-1.901-3.803-8.556-6.654-9.506-10.457s-15.21,0-12.358,8.556C49.088,16.564,50.039,20.367,50.039,20.367z"/>
			<path fill="none" stroke="#000000" stroke-miterlimit="10" d="M51.94,20.367c0,0,1.901,4.753,1.901,5.703"/>
			<path fill="#FFFFFF" stroke="#000000" stroke-miterlimit="10" d="M55.742,22.269c0,0,6.655,6.654,9.507,5.704
				c2.852-0.951,0.95-5.704,1.902-6.654c0.95-0.951,0.95-1.902-0.951-4.754"/>
			<path fill="none" stroke="#000000" stroke-miterlimit="10" d="M64.298,27.973c0,0,0,2.852,0.95,3.803"/>
			<path fill="none" stroke="#000000" stroke-miterlimit="10" d="M29.124,143c0,0,5.704,2.853,6.655,4.754"/>
			<path fill="none" stroke="#000000" stroke-miterlimit="10" d="M91.867,139.197c0,0,5.704-3.802,7.605-6.654"/>
			<path fill="none" stroke="#000000" stroke-miterlimit="10" d="M25.322,73.604c0,0,3.802,0.95,4.753,1.9"/>
			<path fill="none" stroke="#000000" stroke-miterlimit="10" d="M74.755,53.64c0,0,5.703-0.95,6.654,2.853"/>
			<path fill="none" stroke="#000000" stroke-miterlimit="10" d="M53.841,69.801c0,0,15.21,0,17.112,1.901"/>
			<path fill="none" stroke="#000000" stroke-miterlimit="10" d="M53.841,65.998c0,0,8.556-0.951,11.408-0.951"/>
		</g>
	</g>
	<g>
		<path fill="#FFFFFF" d="M35.76,24c0,0,0-7-4-8c-3.068-0.767,11-7,11-7l7,3c0,0-1,2-1,4s-1,8-1,8s-1,4,0,6S35.76,25,35.76,24z"/>
		<path fill="#FFFFFF" d="M53.76,80c0-5-1-15,0-30s-6-19-6-19s-9-5-12-4s-5,15-5,15s-2,6,0,7s3,8,4,12c2,3,0,8,0,8s-2,4-4,7
			c-3,2-7,19-7,19l4,1L53.76,80z"/>
		<g>
			<path fill="#FFFFFF" stroke="#000000" stroke-miterlimit="10" d="M25.568,96c0,0-7,26-7,29s-9,19-10,22c0,0-5,14-6,15
				c0,0-2,3,3,5s9,3,9,3s6,0,7,0s0-3-6-6s0-11,1-13s10-17,12-19s16-27,16-29c0,0,15,16,18,18s10,23,21,28c1,6,3,10,9,5c7,0,8,3,13-1
				c1-3-2-4-7-4c-11,0-23-31-23-32s-6-10-9-15s-11-18-12-19l-1-17"/>
			<path fill="none" stroke="#000000" stroke-miterlimit="10" d="M60.568,93c0,0-16,12-36,2c-1-7,6-21,10-25l1-6c0,0-5-14-6-24"/>
			<path fill="#FFFFFF" stroke="#000000" stroke-miterlimit="10" d="M34.568,27c0,0,12,6,15,7c0.475,0.158,0.75,0.141,0.875,0
				c0.667-0.75-2.875-5-2.875-5c-4-1-11-7-12-6s-1,4-3,7c-3,0-13,19-17,21s-9,22-10,22s-5,4-5,7s2,7,5,5s4-3,5-10c6-6,6-8,9-12
				s11-13,11-13"/>
			<path fill="#FFFFFF" stroke="#000000" stroke-miterlimit="10" d="M54.568,47c-1-5-0.25-10-4.125-13"/>
			<path fill="#FFFFFF" stroke="#000000" stroke-miterlimit="10" d="M33.568,43c0,0,10,24,22,23c6-3,9-7,9-9s2-9-3-8s-5,3-5,4
				c-1-4-12-17-12-17"/>
			<path fill="#FFFFFF" stroke="#000000" stroke-miterlimit="10" d="M31.568,17l12-7c0,0,6,4,10,3c-2-4-9-7-10-11s-16,0-13,9
				C30.568,13,31.568,17,31.568,17z"/>
			<path fill="none" stroke="#000000" stroke-miterlimit="10" d="M33.568,17c0,0,2,5,2,6"/>
			<path fill="#FFFFFF" stroke="#000000" stroke-miterlimit="10" d="M37.568,19c0,0,7,7,10,6s1-6,2-7s1-2-1-5"/>
			<path fill="none" stroke="#000000" stroke-miterlimit="10" d="M46.568,25c0,0,0,3,1,4"/>
			<path fill="none" stroke="#000000" stroke-miterlimit="10" d="M9.568,146c0,0,6,3,7,5"/>
			<path fill="none" stroke="#000000" stroke-miterlimit="10" d="M75.568,142c0,0,6-4,8-7"/>
			<path fill="none" stroke="#000000" stroke-miterlimit="10" d="M5.568,73c0,0,4,1,5,2"/>
			<path fill="none" stroke="#000000" stroke-miterlimit="10" d="M57.568,52c0,0,6-1,7,3"/>
			<path fill="none" stroke="#000000" stroke-miterlimit="10" d="M35.568,69c0,0,16,0,18,2"/>
			<path fill="none" stroke="#000000" stroke-miterlimit="10" d="M35.568,65c0,0,9-1,12-1"/>
		</g>
	</g>
</g>
</svg>
