<?xml version="1.0" encoding="utf-8"?>
<!-- Generator: Adobe Illustrator 16.2.0, SVG Export Plug-In . SVG Version: 6.00 Build 0)  -->
<!DOCTYPE svg PUBLIC "-//W3C//DTD SVG 1.1//EN" "http://www.w3.org/Graphics/SVG/1.1/DTD/svg11.dtd">
<svg version="1.1" id="Layer_1" xmlns="http://www.w3.org/2000/svg" xmlns:xlink="http://www.w3.org/1999/xlink" x="0px" y="0px"
	 width="173px" height="122px" viewBox="0 0 173 122" enable-background="new 0 0 173 122" xml:space="preserve">
<g>
	<g>
		<g>
			<line fill="none" stroke="#000000" stroke-miterlimit="10" x1="40.5" y1="0" x2="40.5" y2="46"/>
		</g>
		<g>
			<line fill="none" stroke="#000000" stroke-miterlimit="10" x1="57.5" y1="0" x2="57.5" y2="46"/>
			<line fill="none" stroke="#000000" stroke-miterlimit="10" x1="64.5" y1="0" x2="64.5" y2="46"/>
		</g>
		<g>
			<line fill="none" stroke="#000000" stroke-miterlimit="10" x1="81.5" y1="0" x2="81.5" y2="46"/>
			<line fill="none" stroke="#000000" stroke-miterlimit="10" x1="88.5" y1="0" x2="88.5" y2="46"/>
			<line fill="none" stroke="#000000" stroke-miterlimit="10" x1="95.5" y1="0" x2="95.5" y2="46"/>
		</g>
		<g>
			<line fill="none" stroke="#000000" stroke-miterlimit="10" x1="112.5" y1="0" x2="112.5" y2="46"/>
			<line fill="none" stroke="#000000" stroke-miterlimit="10" x1="119.5" y1="0" x2="119.5" y2="46"/>
			<line fill="none" stroke="#000000" stroke-miterlimit="10" x1="126.5" y1="0" x2="126.5" y2="46"/>
			<line fill="none" stroke="#000000" stroke-miterlimit="10" x1="133.5" y1="0" x2="133.5" y2="46"/>
		</g>
	</g>
	<g>
		<line fill="none" stroke="#000000" stroke-miterlimit="10" x1="40.5" y1="76" x2="40.5" y2="122"/>
		<line fill="none" stroke="#000000" stroke-miterlimit="10" x1="47.5" y1="76" x2="47.5" y2="122"/>
		<line fill="none" stroke="#000000" stroke-miterlimit="10" x1="54.5" y1="76" x2="54.5" y2="122"/>
		<line fill="none" stroke="#000000" stroke-miterlimit="10" x1="61.5" y1="76" x2="61.5" y2="122"/>
		<line fill="none" stroke="#000000" stroke-miterlimit="10" x1="68.5" y1="76" x2="68.5" y2="122"/>
	</g>
	<g>
		<line fill="none" stroke="#000000" stroke-miterlimit="10" x1="88.571" y1="104.269" x2="142.565" y2="92.985"/>
		<g>
			<line fill="none" stroke="#000000" stroke-miterlimit="10" x1="98.5" y1="76" x2="98.5" y2="122"/>
			<line fill="none" stroke="#000000" stroke-miterlimit="10" x1="105.5" y1="76" x2="105.5" y2="122"/>
			<line fill="none" stroke="#000000" stroke-miterlimit="10" x1="112.5" y1="76" x2="112.5" y2="122"/>
			<line fill="none" stroke="#000000" stroke-miterlimit="10" x1="119.5" y1="76" x2="119.5" y2="122"/>
			<line fill="none" stroke="#000000" stroke-miterlimit="10" x1="126.5" y1="76" x2="126.5" y2="122"/>
			<line fill="none" stroke="#000000" stroke-miterlimit="10" x1="133.5" y1="76" x2="133.5" y2="122"/>
		</g>
	</g>
</g>
</svg>
