<?xml version="1.0" encoding="utf-8"?>
<!-- Generator: Adobe Illustrator 16.2.0, SVG Export Plug-In . SVG Version: 6.00 Build 0)  -->
<!DOCTYPE svg PUBLIC "-//W3C//DTD SVG 1.1//EN" "http://www.w3.org/Graphics/SVG/1.1/DTD/svg11.dtd">
<svg version="1.1" id="Layer_1" xmlns="http://www.w3.org/2000/svg" xmlns:xlink="http://www.w3.org/1999/xlink" x="0px" y="0px"
	 width="173px" height="154px" viewBox="0 0 173 154" enable-background="new 0 0 173 154" xml:space="preserve">
<path fill="none" stroke="#000000" stroke-miterlimit="10" d="M60,109.287c-16.657-5.805-30.065-18.74-34.673-37.249
	c-7.741-31.084,11.337-61.938,42.42-69.679c31.082-7.739,62.248,9.948,69.988,41.031c7.741,31.083-9.944,59.619-41.027,67.36
	C94.476,111.307,89.237,112.68,87,113"/>
<path fill="none" stroke="#000000" stroke-miterlimit="10" d="M52,106c0,0-28,12-31.854,47.629"/>
<path fill="none" stroke="#000000" stroke-miterlimit="10" d="M115.146,103c0,0,36,11.629,38,50.629"/>
<ellipse transform="matrix(0.9704 -0.2417 0.2417 0.9704 -8.1963 15.0303)" fill="#FFFFFF" stroke="#000000" stroke-miterlimit="10" cx="57.176" cy="40.929" rx="12" ry="6.5"/>
<circle cx="57.055" cy="40.444" r="4"/>
<circle fill="#FFFFFF" cx="57.055" cy="40.444" r="2"/>
<g>
	
		<ellipse transform="matrix(0.9704 -0.2416 0.2416 0.9704 -5.1493 26.3733)" fill="#FFFFFF" stroke="#000000" stroke-miterlimit="10" cx="104.962" cy="34.183" rx="12" ry="6.5"/>
	<circle cx="104.841" cy="33.698" r="4"/>
	<circle fill="#FFFFFF" cx="104.841" cy="33.698" r="2"/>
</g>
<path fill="none" stroke="#000000" stroke-miterlimit="10" d="M36.931,34.12c3.156-3.878,7.521-2.903,9.707-6.54
	c2.186-3.636,23.281,2.447,23.281,2.447l-2.427,2.666c0,0-13.577-4.864-18.188-2.686c-4.61,2.179-11.403,3.87-12.131,5.082
	C36.444,36.303,36.931,34.12,36.931,34.12z"/>
<path fill="none" stroke="#000000" stroke-miterlimit="10" d="M115.894,20.147c-3.743-3.313-13.136,0.658-15.095,1.062
	s-8.614,2.79-9.192,4.951c-0.577,2.161,1.383,1.758,1.383,1.758s8.414-3.77,10.372-4.173c1.959-0.402,9.594-2.993,10.775-2.215
	C115.317,22.308,115.894,20.147,115.894,20.147z"/>
<path fill="none" stroke="#000000" stroke-miterlimit="10" d="M88,94.888c9.178-0.756,16.16-8.356,19.116-10.666
	c0,0-5.289-5.616-16.683,0.687C89.004,85.265,85,87,81,85"/>
<path fill="none" stroke="#000000" stroke-miterlimit="10" d="M74.035,38.277c0,0,8.235,12.377,3.133,20.861
	c-5.101,8.484-7.042,8.967-4.134,12.365c0,0,6.309-3.633,12.852,1.952c3.153,0.245,6.306,0.491,7.034-0.722
	c0.729-1.211,5.585-6.543,7.767-6.056c0,0,1.699-1.454-2.662-6.551S87.129,41.199,88.59,34.653"/>
<line fill="none" stroke="#000000" stroke-miterlimit="10" x1="92.668" y1="84.134" x2="93.872" y2="93.108"/>
<line fill="none" stroke="#000000" stroke-miterlimit="10" x1="98.49" y1="82.684" x2="101.152" y2="89.234"/>
<path fill="none" stroke="#000000" stroke-miterlimit="10" d="M86,91c3.781-0.792,10.188-3.245,15.156-5.889"/>
<path fill="none" stroke="#000000" stroke-miterlimit="10" d="M49.185,154c0.776-13.561,2.62-16.408,2.62-16.408
	s7.786-26.672,9.731-31.278c1.944-4.606-3.391-5.339-1.446-9.946c1.944-4.605,4.13-8.241,9.711-10.662
	c1.945-4.606,6.562-15.03,6.562-15.03s4.852-1.208,6.547,1.461c0,0-5.101,8.484-1.952,12.853c3.149,4.369,2.907,3.398,3.39,5.339
	c0.484,1.941,4.123,0.004,5.332,4.855c1.208,4.853,5.212,0.263,4.115,8.251c-0.311,2.263-2.804,5.439-5.795,8.404
	c-0.328,0.326-0.663,0.648-1.001,0.967c-3.842,3.624-8.171,6.723-9.711,7.105c-2.911,0.725-6.8,9.938-7.774,14.303
	c0,0-3.514,9.787-2.514,19.787"/>
</svg>
