<?xml version="1.0" encoding="utf-8"?>
<!-- Generator: Adobe Illustrator 16.2.0, SVG Export Plug-In . SVG Version: 6.00 Build 0)  -->
<!DOCTYPE svg PUBLIC "-//W3C//DTD SVG 1.1//EN" "http://www.w3.org/Graphics/SVG/1.1/DTD/svg11.dtd">
<svg version="1.1" id="Layer_1" xmlns="http://www.w3.org/2000/svg" xmlns:xlink="http://www.w3.org/1999/xlink" x="0px" y="0px"
	 width="173px" height="176px" viewBox="0 0 173 176" enable-background="new 0 0 173 176" xml:space="preserve">
<g>
	<line fill="none" stroke="#000000" stroke-miterlimit="10" x1="101.5" y1="176" x2="101.5" y2="108"/>
	<line fill="none" stroke="#000000" stroke-miterlimit="10" x1="72.5" y1="108" x2="72.5" y2="176"/>
	<path opacity="0.25" fill="none" stroke="#000000" stroke-miterlimit="10" d="M0.781,18.053l66.66,76.044
		c0,0,5.381,11.903,4.881,13.903"/>
	<path opacity="0.25" fill="none" stroke="#000000" stroke-miterlimit="10" d="M173.355,18.053l-66.66,76.044
		c0,0-5.381,11.903-4.881,13.903"/>
	<path fill="none" stroke="#000000" stroke-miterlimit="10" d="M72.5,0v48.026c0,4.4-2.594,5.289-5.488,1.975"/>
	<line opacity="0.25" fill="none" stroke="#000000" stroke-miterlimit="10" x1="66.354" y1="50.001" x2="22.226" y2="-0.54"/>
	<line opacity="0.25" fill="none" stroke="#000000" stroke-miterlimit="10" x1="151.649" y1="-0.486" x2="106.247" y2="51.104"/>
	<path fill="none" stroke="#000000" stroke-miterlimit="10" d="M106.678,51.104c-2.911,3.301-5.178,2.375-5.178-2.026V0"/>
	<path fill="none" stroke="#000000" stroke-miterlimit="10" d="M96.5,136.5c0,3.313-2.686,6-6,6h-4c-3.314,0-6-2.687-6-6v-22
		c0-3.313,2.686-6,6-6h4c3.314,0,6,2.687,6,6V136.5z"/>
	<path fill="none" stroke="#000000" stroke-miterlimit="10" d="M94.5,121.5c0,0.553-0.448,1-1,1h-10c-0.552,0-1-0.447-1-1v-3
		c0-0.553,0.448-1,1-1h10c0.552,0,1,0.447,1,1V121.5z"/>
	<path fill="none" stroke="#000000" stroke-miterlimit="10" d="M94.5,135.5c0,0.553-0.448,1-1,1h-10c-0.552,0-1-0.447-1-1v-3
		c0-0.553,0.448-1,1-1h10c0.552,0,1,0.447,1,1V135.5z"/>
	<path fill="none" stroke="#000000" stroke-miterlimit="10" d="M92.116,108.892c0,0-1,4,4,4"/>
	<path fill="none" stroke="#000000" stroke-miterlimit="10" d="M85.035,108.892c0,0,1,4-4,4"/>
	<rect x="83" y="140" width="3" height="1"/>
	<rect x="91" y="140" width="3" height="1"/>
</g>
</svg>
