<?xml version="1.0" encoding="utf-8"?>
<!-- Generator: Adobe Illustrator 16.2.0, SVG Export Plug-In . SVG Version: 6.00 Build 0)  -->
<!DOCTYPE svg PUBLIC "-//W3C//DTD SVG 1.1//EN" "http://www.w3.org/Graphics/SVG/1.1/DTD/svg11.dtd">
<svg version="1.1" id="Layer_1" xmlns="http://www.w3.org/2000/svg" xmlns:xlink="http://www.w3.org/1999/xlink" x="0px" y="0px"
	 width="173px" height="118px" viewBox="0 0 173 118" enable-background="new 0 0 173 118" xml:space="preserve">
<g>
	<path fill="none" stroke="#000000" stroke-miterlimit="10" d="M-4.124,51.372c0,0,22.174-3.695,23.406-4.927
		c1.233-1.232,16.014,50.505,19.71,52.969c3.695,2.463-33.26,18.479-33.26,18.479"/>
	<path fill="none" stroke="#000000" stroke-miterlimit="10" d="M21.745,48.909c0,0,17.246-4.928,24.637-16.015
		c3.695-4.928,26.271-20.771,28.734-22.003c2.464-1.232,17-12,37,2"/>
	<path fill="none" stroke="#000000" stroke-miterlimit="10" d="M83.337,15.648c0,0,11.087,2.465,35.723-4.928
		c24.638-7.391,39.419-8.623,39.419-8.623s12.319-3.694,13.551,2.465c1.232,6.158-11.087,11.086-11.087,11.086l-39.419,14.782"/>
	<path fill="none" stroke="#000000" stroke-miterlimit="10" d="M123.988,30.432c0,0,14.782-2.465,16.014,4.927
		c1.232,7.391-8.623,12.319-14.782,13.551c4.927,1.231,11.086,2.463,11.086,7.39c0,4.929-12.318,12.319-19.709,13.551
		c-7.391,1.231,23.405,4.928-17.246,20.941c-14.782,3.696-23.405,1.232-29.564,1.232c-6.159,0-9.855-3.696-17.246,0
		c-7.391,3.695-13.55,7.391-13.55,7.391"/>
</g>
</svg>
