<?xml version="1.0" encoding="utf-8"?>
<!-- Generator: Adobe Illustrator 16.2.0, SVG Export Plug-In . SVG Version: 6.00 Build 0)  -->
<!DOCTYPE svg PUBLIC "-//W3C//DTD SVG 1.1//EN" "http://www.w3.org/Graphics/SVG/1.1/DTD/svg11.dtd">
<svg version="1.1" id="Layer_1" xmlns="http://www.w3.org/2000/svg" xmlns:xlink="http://www.w3.org/1999/xlink" x="0px" y="0px"
	 width="173px" height="174px" viewBox="0 0 173 174" enable-background="new 0 0 173 174" xml:space="preserve">
<g>
	<path fill="none" stroke="#000000" stroke-miterlimit="10" d="M55.149,43.892c0,0-18,1-23,7"/>
	<path fill="none" stroke="#000000" stroke-miterlimit="10" d="M52.149,52.892c0,0-6,1-9,3s-7,4-7,4s11,5,14,5"/>
	<path fill="none" stroke="#000000" stroke-miterlimit="10" d="M47.149,54.892c0,0,4,5,0,9"/>
	<path fill="none" stroke="#000000" stroke-miterlimit="10" d="M45.149-0.108c0,0,13,17,13,37s12,27,15,32s14,16,5,21
		c-12,2-9,6-9,11s-1,7-7,10s-6,5-3,7s8,5,2,10s-4,11-4,13s-4,9-16,9s-13-5-22,7s-8,17-8,17"/>
	<path fill="none" stroke="#000000" stroke-miterlimit="10" d="M61.149,84.892c0,0,1,11,5,7s5-5,9-5"/>
	<polyline fill="none" stroke="#000000" stroke-miterlimit="10" points="74.149,119.892 70.149,116.892 74.149,112.892 
		82.149,116.892 79.149,119.892 	"/>
	<line fill="none" stroke="#000000" stroke-miterlimit="10" x1="98.149" y1="119.892" x2="108.149" y2="127.892"/>
	<line fill="none" stroke="#000000" stroke-miterlimit="10" x1="103.149" y1="120.892" x2="97.149" y2="125.892"/>
	<line fill="none" stroke="#000000" stroke-miterlimit="10" x1="107.149" y1="123.892" x2="100.149" y2="129.892"/>
	<line fill="none" stroke="#000000" stroke-miterlimit="10" x1="117.149" y1="106.892" x2="121.149" y2="113.892"/>
	<line fill="none" stroke="#000000" stroke-miterlimit="10" x1="115.149" y1="113.892" x2="123.149" y2="108.892"/>
	<polygon fill="none" stroke="#000000" stroke-miterlimit="10" points="125.149,125.892 132.149,115.892 136.149,128.892 	"/>
	<line fill="none" stroke="#000000" stroke-miterlimit="10" x1="131.149" y1="122.892" x2="131.149" y2="124.892"/>
	<circle fill="none" stroke="#000000" stroke-miterlimit="10" cx="137.149" cy="96.892" r="5"/>
	<polyline fill="none" stroke="#000000" stroke-miterlimit="10" points="154.149,111.892 149.149,110.892 144.149,118.892 
		153.149,123.892 156.149,120.892 151.149,116.892 	"/>
	<polyline fill="none" stroke="#000000" stroke-miterlimit="10" points="156.149,114.892 158.149,115.892 161.149,112.892 
		157.149,111.892 	"/>
	<polygon fill="none" stroke="#000000" stroke-miterlimit="10" points="149.149,100.892 150.149,91.892 156.149,92.892 
		155.149,100.892 	"/>
	<polyline fill="none" stroke="#000000" stroke-miterlimit="10" points="153.149,95.892 154.149,97.892 152.149,98.892 	"/>
	<line fill="none" stroke="#000000" stroke-miterlimit="10" x1="156.149" y1="93.892" x2="159.149" y2="91.892"/>
	<line fill="none" stroke="#000000" stroke-miterlimit="10" x1="156.149" y1="96.892" x2="163.149" y2="96.892"/>
	<line fill="none" stroke="#000000" stroke-miterlimit="10" x1="156.149" y1="99.892" x2="163.149" y2="101.892"/>
	<path fill="none" stroke="#000000" stroke-miterlimit="10" d="M102.149,103.892c0,0-2-4-5-1s-3,9,1,10s6-3,6-4s-4-6-5-3s0,4,2,4"/>
	<ellipse fill="none" stroke="#000000" stroke-miterlimit="10" cx="47.116" cy="58.892" rx="1" ry="2"/>
</g>
</svg>
