<?xml version="1.0" encoding="utf-8"?>
<!-- Generator: Adobe Illustrator 16.2.0, SVG Export Plug-In . SVG Version: 6.00 Build 0)  -->
<!DOCTYPE svg PUBLIC "-//W3C//DTD SVG 1.1//EN" "http://www.w3.org/Graphics/SVG/1.1/DTD/svg11.dtd">
<svg version="1.1" id="Layer_1" xmlns="http://www.w3.org/2000/svg" xmlns:xlink="http://www.w3.org/1999/xlink" x="0px" y="0px"
	 width="173px" height="170px" viewBox="0 0 173 170" enable-background="new 0 0 173 170" xml:space="preserve">
<g>
	<path fill="none" stroke="#000000" stroke-miterlimit="10" d="M10.842-0.108l55.486,81.379c0,0,15.008,21.613,33.291,24.661
		c14.797,2.466,35.758,3.699,39.457,4.932c3.699,1.234,19.728-1.232,23.427-14.797c2.466-7.397,7.398-1.232,6.165,6.166
		s-6.165,22.194-14.796,27.126c-8.631,4.933-24.66,8.631-36.991,13.564c-12.33,4.931-19.728,18.495-20.961,20.961
		s-17.263,13.563-25.894-6.165c-6.581-15.046-12.447-31.527-19.784-40.69c-2.282-2.852-11.766-9.739-14.739-11.859
		C22.581,95.959,2.211,83.737,2.211,83.737"/>
	<path fill="none" stroke="#000000" stroke-miterlimit="10" d="M62.628,117.028c0,0,16.029,29.592,27.127,19.729"/>
</g>
</svg>
