<?xml version="1.0" encoding="utf-8"?>
<!-- Generator: Adobe Illustrator 16.2.0, SVG Export Plug-In . SVG Version: 6.00 Build 0)  -->
<!DOCTYPE svg PUBLIC "-//W3C//DTD SVG 1.1//EN" "http://www.w3.org/Graphics/SVG/1.1/DTD/svg11.dtd">
<svg version="1.1" id="Layer_1" xmlns="http://www.w3.org/2000/svg" xmlns:xlink="http://www.w3.org/1999/xlink" x="0px" y="0px"
	 width="173px" height="176px" viewBox="0 0 173 176" enable-background="new 0 0 173 176" xml:space="preserve">
<g>
	<path fill="none" stroke="#000000" stroke-miterlimit="10" d="M38.749,163.354c0,0-3.008-21.06,1.504-36.103
		c4.514-15.044,10.531-22.564,13.539-24.068c3.009-1.504,12.034-10.53,12.034-10.53s1.505-9.025-6.017-3.008
		C52.288,95.662,46.27,98.67,46.27,88.14V62.566c0,0,0-7.521-3.008-7.521c-3.009,0-3.009,1.505-3.009,7.521
		c0,6.018-3.008,18.052-3.008,18.052l-3.009-21.06c0,0,0-6.017-3.008-6.017c-3.009,0-3.009,6.017-3.009,6.017v21.06l-4.512-18.052
		c0,0,0-4.512-3.009-3.008c-3.008,1.504-1.504,4.513-1.504,4.513l3.008,22.564l-9.024-15.043c0,0-1.505-3.009-3.009-1.504
		c-1.504,1.504,0,4.513,0,4.513l6.017,18.051c0,0,9.026,24.068,10.53,25.573"/>
	<path fill="none" stroke="#000000" stroke-miterlimit="10" d="M23.116,110.703c0,0-0.915,27.078-3.923,33.095
		c-3.009,6.018-3.009,30.085-1.504,33.094"/>
	<path fill="none" stroke="#000000" stroke-miterlimit="10" d="M44.766,176.892c0,0,24.068-36.102,33.094-36.102"/>
	<path fill="none" stroke="#000000" stroke-miterlimit="10" d="M74.852,142.294c0,0,9.025,28.581,9.025,34.598"/>
	<path fill="none" stroke="#000000" stroke-miterlimit="10" d="M38.749,145.303c0,0,10.53-9.026,13.539-21.061
		c0,0,9.026-27.077,33.094-31.59s25.573-18.051,27.076-25.573"/>
	<path fill="none" stroke="#000000" stroke-miterlimit="10" d="M141.04,65.575c0,0,1.504,22.564,27.077,24.069"/>
	<path fill="none" stroke="#000000" stroke-miterlimit="10" d="M103.433,36.994c0,19.939,9.764,36.104,21.812,36.104
		c12.046,0,24.82-16.164,24.82-36.104S142.557,0.892,130.51,0.892C118.461,0.892,103.433,17.055,103.433,36.994z"/>
</g>
</svg>
