<?xml version="1.0" encoding="utf-8"?>
<!-- Generator: Adobe Illustrator 16.2.0, SVG Export Plug-In . SVG Version: 6.00 Build 0)  -->
<!DOCTYPE svg PUBLIC "-//W3C//DTD SVG 1.1//EN" "http://www.w3.org/Graphics/SVG/1.1/DTD/svg11.dtd">
<svg version="1.1" id="Layer_1" xmlns="http://www.w3.org/2000/svg" xmlns:xlink="http://www.w3.org/1999/xlink" x="0px" y="0px"
	 width="173px" height="70px" viewBox="0 0 173 70" enable-background="new 0 0 173 70" xml:space="preserve">
<g>
	<path fill="none" stroke="#000000" stroke-miterlimit="10" d="M4.116,39.969c0,0,78.815-83.255,159.85-7.771"/>
	<path fill="none" stroke="#000000" stroke-miterlimit="10" d="M7.773,59.324c0,0,58.93-67.705,161.743-8.776"/>
	<path fill="none" stroke="#000000" stroke-miterlimit="10" d="M11.535,58.07c0,0,0,5.017,16.299,2.509
		c16.301-2.509,30.093,1.254,41.377,5.015c11.284,3.762,66.452,11.285,92.783-16.299"/>
	<circle fill="none" stroke="#000000" stroke-miterlimit="10" cx="85.51" cy="43.025" r="10.031"/>
	<path fill="none" stroke="#000000" stroke-miterlimit="10" d="M106.593,27.979c3.287,4.485,5.248,8.89,5.248,15.046
		c0,14.543-10.946,26.33-24.45,26.33c-13.503,0-24.449-11.787-24.449-26.33c0-5.057,1.323-9.781,3.618-13.793"/>
</g>
</svg>
