<?xml version="1.0" encoding="utf-8"?>
<!-- Generator: Adobe Illustrator 16.2.0, SVG Export Plug-In . SVG Version: 6.00 Build 0)  -->
<!DOCTYPE svg PUBLIC "-//W3C//DTD SVG 1.1//EN" "http://www.w3.org/Graphics/SVG/1.1/DTD/svg11.dtd">
<svg version="1.1" id="Layer_1" xmlns="http://www.w3.org/2000/svg" xmlns:xlink="http://www.w3.org/1999/xlink" x="0px" y="0px"
	 width="173px" height="113px" viewBox="0 0 173 113" enable-background="new 0 0 173 113" xml:space="preserve">
<g>
	<g>
		<path fill="none" stroke="#000000" stroke-miterlimit="10" d="M97.568,88c0,0,33,4,35,6c0,0,15.095,3.302,25,0c3-1,18,1,17-1"/>
		<path fill="none" stroke="#000000" stroke-miterlimit="10" d="M131.568,93c5-6,2-15-1-19s-7-20-7-18s3-1,5,0c-2-2-9-23-10-26
			s-2-11-6-14s-5-2-10-1s-8,9-8,9s2,5,5,6s-2,5,4,8c3,3-7,0-2,13c0,0,1,7-1,16s-1.895,13.211-1,15c-1,4-2,6-2,6l-7-1c0,0-1,2,0-6
			s-2-20-4-23c0-5-2-11-2-15c3-7,0-12-2-14s-1-7,4-5c5,4,5-5,5-5c1-4-1-3,0-6s1-11-9-12c-12-1-11,10-11,13s2,8-7,7s-13,14-13,16
			s0,10-4,14s-2,24-3,25s-3,7-3,7c-8,1-25,0-25,0s-16-1-18-2"/>
		<path fill="none" stroke="#000000" stroke-miterlimit="10" d="M108.568,62c0,0-5,14-5,19c2,3,6,2,6,2s4-9,4-11
			S108.568,63,108.568,62z"/>
		<path fill="none" stroke="#000000" stroke-miterlimit="10" d="M108.568,63"/>
		<path fill="none" stroke="#000000" stroke-miterlimit="10" d="M76.568,53c0,0-3,9-7,11s9,4,9,8s4,3,5,2s-5-15-4-20
			C77.568,53,76.568,53,76.568,53z"/>
		<path fill="none" stroke="#000000" stroke-miterlimit="10" d="M103.568,111h1c0,0,19,0,25,1s24,1,29-2c4-1,15-1,16-1"/>
		<path fill="none" stroke="#000000" stroke-miterlimit="10" d="M-1.432,108c2,2,18-1,18-1c3,0,26-7,35-3s32,4,32,4"/>
	</g>
	<path fill="none" stroke="#000000" stroke-miterlimit="10" d="M41.568,83c0,0,42,3,49,4"/>
	<path fill="none" stroke="#000000" stroke-miterlimit="10" d="M83.568,108c0,0,13,1,20,3"/>
</g>
</svg>
