<?xml version="1.0" encoding="utf-8"?>
<!-- Generator: Adobe Illustrator 16.2.0, SVG Export Plug-In . SVG Version: 6.00 Build 0)  -->
<!DOCTYPE svg PUBLIC "-//W3C//DTD SVG 1.1//EN" "http://www.w3.org/Graphics/SVG/1.1/DTD/svg11.dtd">
<svg version="1.1" id="Layer_1" xmlns="http://www.w3.org/2000/svg" xmlns:xlink="http://www.w3.org/1999/xlink" x="0px" y="0px"
	 width="173px" height="154px" viewBox="0 0 173 154" enable-background="new 0 0 173 154" xml:space="preserve">
<g>
	<path fill="none" stroke="#000000" stroke-miterlimit="10" d="M8.647,123.825c0,0,9.976-4.248,10.414-4.966
		c0.437-0.717,13.239,21.858,15.252,22.594c2.012,0.737-13.494,12.438-13.494,12.438"/>
	<path fill="none" stroke="#000000" stroke-miterlimit="10" d="M20.496,119.734c0,0,7.526-4.269,9.732-10.305
		c1.172-2.729,9.957-12.72,10.973-13.578c1.014-0.856,6.607-7.554,17.572-3.262"/>
	<path fill="none" stroke="#000000" stroke-miterlimit="10" d="M45.594,97.148c0,0,5.478-0.102,16.188-6.363
		c10.712-6.263,17.501-8.518,17.501-8.518s5.356-3.132,6.632-0.384c1.277,2.748-3.938,6.456-3.938,6.456L65.175,99.744"/>
	<path fill="none" stroke="#000000" stroke-miterlimit="10" d="M66.33,99.465c0,0,6.65-2.832,8.067,0.492
		c1.417,3.325-2.643,6.754-5.392,8.031c2.45,0.018,5.477-0.105,6.037,2.205c0.559,2.31-4.377,7.174-7.702,8.59
		c-3.325,1.416,11.532-0.347-5.708,11.774c-6.51,3.412-10.832,3.236-13.72,3.935c-2.887,0.7-5.039-0.612-8.085,1.958
		c-3.045,2.57-5.513,5.003-5.513,5.003"/>
	<path fill="none" stroke="#000000" stroke-miterlimit="10" d="M111.682,34.566c2.92,2.281,4.987,16.58,4.987,22.546
		c0,7.786-3.519,8.779-7.861,8.779c-4.342,0-7.863-0.993-7.863-8.779c0-5.987,2.082-20.301,5.018-22.567"/>
	<polyline fill="none" stroke="#000000" stroke-miterlimit="10" points="104.308,65.892 104.308,73.358 102.808,73.358 	"/>
	<polyline fill="none" stroke="#000000" stroke-miterlimit="10" points="113.308,65.892 113.308,73.358 114.808,73.358 	"/>
	<path fill="none" stroke="#000000" stroke-miterlimit="10" d="M114.116,40.063c0,0,4.666,7.621,6.528,14.371"/>
	<path fill="none" stroke="#000000" stroke-miterlimit="10" d="M103.644,40.063c0,0-4.666,7.621-6.528,14.371"/>
	<path fill="none" stroke="#000000" stroke-miterlimit="10" d="M117.675,26.43c0,4.889-3.671,8.462-8.559,8.462
		c-4.889,0-9.142-3.476-9.142-8.364c0-4.888,3.962-8.754,8.85-8.754C113.712,17.773,117.675,21.543,117.675,26.43z"/>
	<path fill="none" stroke="#000000" stroke-miterlimit="10" d="M146.875,27.588c3.446,2.691,5.885,9.274,5.885,16.313
		c0,9.187-4.153,10.358-9.276,10.358s-9.277-1.172-9.277-10.358c0-7.064,2.456-13.665,5.92-16.34"/>
	<polyline fill="none" stroke="#000000" stroke-miterlimit="10" points="138.173,53.89 138.173,73.358 136.403,73.358 	"/>
	<polyline fill="none" stroke="#000000" stroke-miterlimit="10" points="148.792,53.89 148.792,73.358 150.563,73.358 	"/>
	<path fill="none" stroke="#000000" stroke-miterlimit="10" d="M151.153,34.074c0,0,1.469,2.398,3.192,5.817
		c1.613,3.199,1.771-5,0.771-9"/>
	<path fill="none" stroke="#000000" stroke-miterlimit="10" d="M135.661,34.074c0,0-5.505,8.991-7.702,16.957"/>
	<path fill="none" stroke="#000000" stroke-miterlimit="10" d="M153.946,17.986c0,5.77-4.331,9.984-10.099,9.984
		s-10.787-4.1-10.787-9.869c0-5.767,4.675-10.328,10.443-10.328S153.946,12.221,153.946,17.986z"/>
	<path fill="none" stroke="#000000" stroke-miterlimit="10" d="M123.116,56.892c0,0-2-5-4,0"/>
	<path fill="none" stroke="#000000" stroke-miterlimit="10" d="M124.616,60.392c0,1.1-0.9,2-2,2h-3c-1.1,0-2-0.9-2-2v-1
		c0-1.1,0.9-2,2-2h3c1.1,0,2,0.9,2,2V60.392z"/>
	<line fill="none" stroke="#000000" stroke-miterlimit="10" x1="135.116" y1="11.892" x2="123.116" y2="0.892"/>
	<polyline fill="none" stroke="#000000" stroke-miterlimit="10" points="157.116,33.892 160.116,37.892 162.116,37.892 
		157.116,32.892 150.116,25.892 	"/>
</g>
</svg>
