<?xml version="1.0" encoding="utf-8"?>
<!-- Generator: Adobe Illustrator 16.2.0, SVG Export Plug-In . SVG Version: 6.00 Build 0)  -->
<!DOCTYPE svg PUBLIC "-//W3C//DTD SVG 1.1//EN" "http://www.w3.org/Graphics/SVG/1.1/DTD/svg11.dtd">
<svg version="1.1" id="Layer_1" xmlns="http://www.w3.org/2000/svg" xmlns:xlink="http://www.w3.org/1999/xlink" x="0px" y="0px"
	 width="173px" height="158px" viewBox="0 0 173 158" enable-background="new 0 0 173 158" xml:space="preserve">
<g>
	<polygon fill="none" stroke="#000000" stroke-miterlimit="10" points="32.068,157.5 14.068,147.5 14.068,68.5 32.068,78.5 	"/>
	<polygon fill="none" stroke="#000000" stroke-miterlimit="10" points="32.068,157.5 92.068,122.5 92.068,43.5 32.068,78.5 	"/>
	<line fill="none" stroke="#000000" stroke-miterlimit="10" x1="14.068" y1="68.5" x2="31.568" y2="58"/>
	<polygon fill="none" stroke="#000000" stroke-miterlimit="10" points="162.068,43 97.068,72 97.068,40 162.068,11 	"/>
	<polygon fill="none" stroke="#000000" stroke-miterlimit="10" points="162.068,11 97.068,40 78.068,30 143.068,1 	"/>
	<line fill="none" stroke="#000000" stroke-miterlimit="10" x1="97.068" y1="72" x2="92.568" y2="70"/>
	<line fill="none" stroke="#000000" stroke-miterlimit="10" x1="143.068" y1="2" x2="143.068" y2="19"/>
	<g>
		<path fill="none" stroke="#000000" stroke-miterlimit="10" d="M68.019,24.823c4.945-2.408,6.427-6.671,3.293-9.472
			s-9.743-3.122-14.688-0.714l-11.692,5.694c-4.945,2.408-6.427,6.671-3.293,9.472s9.743,3.122,14.688,0.714L68.019,24.823z"/>
	</g>
	<path fill="none" stroke="#000000" stroke-miterlimit="10" d="M41.965,58.541c3.251,2.663,9.868,2.698,14.705,0.079l11.435-6.194
		c3.183-1.725,4.833-4.186,4.662-6.426"/>
	<line fill="none" stroke="#000000" stroke-miterlimit="10" x1="73.068" y1="19" x2="73.068" y2="46"/>
	<line fill="none" stroke="#000000" stroke-miterlimit="10" x1="40.068" y1="26" x2="40.068" y2="41"/>
	<path fill="none" stroke="#000000" stroke-miterlimit="10" d="M44.983,54.485c-0.266,0.991-0.629,1.912-1.066,2.733
		c-1.425,2.676-3.642,4.308-5.894,4.009c-3.359-0.446-5.524-5.023-4.833-10.225c0.69-5.202,3.973-9.057,7.333-8.61
		C42.224,42.618,42.568,43,43.568,44"/>
	<path fill="none" stroke="#000000" stroke-miterlimit="10" d="M46.568,53c-1.131,0.001-8,3-9-1s6-9,8-10"/>
	<line fill="none" stroke="#000000" stroke-miterlimit="10" x1="37.568" y1="61" x2="31.568" y2="59"/>
	<path fill="none" stroke="#000000" stroke-miterlimit="10" d="M42.75,43.543L38.445,40.1c0,0-1.872-0.249-2.34-0.311
		c-3.359-0.446-6.642,3.405-7.332,8.604c-0.59,4.452,0.912,8.445,3.466,9.781"/>
	<rect x="59.568" y="41" fill="none" stroke="#000000" stroke-miterlimit="10" width="2" height="3"/>
	<rect x="53.568" y="36" fill="none" stroke="#000000" stroke-miterlimit="10" width="2" height="3"/>
	<rect x="62.568" y="31" fill="none" stroke="#000000" stroke-miterlimit="10" width="2" height="3"/>
	<rect x="67.568" y="36" fill="none" stroke="#000000" stroke-miterlimit="10" width="2" height="3"/>
	<rect x="63.568" y="48" fill="none" stroke="#000000" stroke-miterlimit="10" width="2" height="3"/>
	<rect x="70.568" y="44" fill="none" stroke="#000000" stroke-miterlimit="10" width="2" height="3"/>
	<rect x="55.568" y="52" fill="none" stroke="#000000" stroke-miterlimit="10" width="2" height="3"/>
	<rect x="69.568" y="27" fill="none" stroke="#000000" stroke-miterlimit="10" width="2" height="3"/>
	<rect x="43.568" y="24" fill="none" stroke="#000000" stroke-miterlimit="10" width="2" height="3"/>
	<rect x="51.568" y="20" fill="none" stroke="#000000" stroke-miterlimit="10" width="2" height="3"/>
	<rect x="58.568" y="16" fill="none" stroke="#000000" stroke-miterlimit="10" width="2" height="3"/>
	<line fill="none" stroke="#000000" stroke-miterlimit="10" x1="92.068" y1="43.5" x2="75.568" y2="34"/>
	<line fill="none" stroke="#000000" stroke-miterlimit="10" x1="75.568" y1="34" x2="72.568" y2="32"/>
	<polygon fill="#FFFFFF" stroke="#000000" stroke-miterlimit="10" points="84.568,32 77.568,37 84.568,41 91.568,36 	"/>
	<line fill="none" stroke="#000000" stroke-miterlimit="10" x1="78.068" y1="30" x2="78.568" y2="36"/>
</g>
</svg>
