<?xml version="1.0" encoding="utf-8"?>
<!-- Generator: Adobe Illustrator 16.2.0, SVG Export Plug-In . SVG Version: 6.00 Build 0)  -->
<!DOCTYPE svg PUBLIC "-//W3C//DTD SVG 1.1//EN" "http://www.w3.org/Graphics/SVG/1.1/DTD/svg11.dtd">
<svg version="1.1" id="Layer_1" xmlns="http://www.w3.org/2000/svg" xmlns:xlink="http://www.w3.org/1999/xlink" x="0px" y="0px"
	 width="173px" height="158px" viewBox="0 0 173 158" enable-background="new 0 0 173 158" xml:space="preserve">
<g>
	<g>
		<defs>
			<rect id="SVGID_28_" x="15.568" y="4" width="175" height="157"/>
		</defs>
		<clipPath id="SVGID_2_">
			<use xlink:href="#SVGID_28_"  overflow="visible"/>
		</clipPath>
		<g clip-path="url(#SVGID_2_)">
			<polygon fill="none" stroke="#000000" stroke-miterlimit="10" points="255.068,64.5 73.568,64.5 60.568,62 56.068,53.5 
				255.068,53.5 			"/>
			<path fill="none" stroke="#000000" stroke-miterlimit="10" d="M262.568,33.53L156.157,8.874L48.568,33l0.5,3.5h209.712
				l3.788,0.924V33.53z M55.034,34.5l101.123-23.03l94.424,23.03H55.034z"/>
			<rect x="56.068" y="36.5" fill="none" stroke="#000000" stroke-miterlimit="10" width="9" height="17"/>
			<rect x="75.068" y="36.5" fill="none" stroke="#000000" stroke-miterlimit="10" width="9" height="17"/>
			<rect x="170.068" y="36.5" fill="none" stroke="#000000" stroke-miterlimit="10" width="9" height="17"/>
			<rect x="150.068" y="36.5" fill="none" stroke="#000000" stroke-miterlimit="10" width="9" height="17"/>
			<rect x="132.068" y="36.5" fill="none" stroke="#000000" stroke-miterlimit="10" width="9" height="17"/>
			<rect x="113.068" y="36.5" fill="none" stroke="#000000" stroke-miterlimit="10" width="9" height="17"/>
			<rect x="93.068" y="36.5" fill="none" stroke="#000000" stroke-miterlimit="10" width="9" height="17"/>
			<rect x="54.068" y="147.5" fill="none" stroke="#000000" stroke-miterlimit="10" width="203" height="5"/>
			
				<rect x="48.014" y="118.5" transform="matrix(0.9725 0.2327 -0.2327 0.9725 29.3792 -9.9882)" fill="none" stroke="#000000" stroke-miterlimit="10" width="18" height="2"/>
			<rect x="91.068" y="64.5" fill="none" stroke="#000000" stroke-miterlimit="10" width="18" height="2"/>
			<rect x="128.068" y="64.5" fill="none" stroke="#000000" stroke-miterlimit="10" width="18" height="2"/>
			<rect x="165.068" y="64.5" fill="none" stroke="#000000" stroke-miterlimit="10" width="18" height="2"/>
			<rect x="50.5" y="152.5" fill="none" stroke="#000000" stroke-miterlimit="10" width="211" height="5"/>
			<g>
				<rect x="166.068" y="66.5" fill="none" stroke="#000000" stroke-miterlimit="10" width="15" height="3"/>
				<g>
					<polygon fill="none" stroke="#000000" stroke-miterlimit="10" points="182.76,147.5 164.592,147.5 167.188,69.5 180.165,69.5 
											"/>
					<line fill="none" stroke="#000000" stroke-miterlimit="10" x1="171.068" y1="70" x2="171.068" y2="147"/>
				</g>
			</g>
			<g>
				<rect x="129.068" y="66.5" fill="none" stroke="#000000" stroke-miterlimit="10" width="16" height="3"/>
				<g>
					<polygon fill="none" stroke="#000000" stroke-miterlimit="10" points="146.425,147.5 128.257,147.5 130.852,69.5 143.829,69.5 
											"/>
					<line fill="none" stroke="#000000" stroke-miterlimit="10" x1="140.068" y1="70" x2="140.068" y2="147"/>
					<line fill="none" stroke="#000000" stroke-miterlimit="10" x1="135.068" y1="70" x2="135.068" y2="147"/>
				</g>
			</g>
			<g>
				<rect x="92.068" y="66.5" fill="none" stroke="#000000" stroke-miterlimit="10" width="15" height="3"/>
				<g>
					<polygon fill="none" stroke="#000000" stroke-miterlimit="10" points="108.792,147.5 90.624,147.5 93.219,69.5 106.196,69.5 
											"/>
					<line fill="none" stroke="#000000" stroke-miterlimit="10" x1="102.068" y1="70" x2="102.068" y2="147"/>
					<line fill="none" stroke="#000000" stroke-miterlimit="10" x1="97.068" y1="70" x2="97.068" y2="147"/>
				</g>
			</g>
			<g>
				<defs>
					<polygon id="SVGID_30_" points="73,127 53.568,123 53.568,148 73.568,148 					"/>
				</defs>
				<clipPath id="SVGID_4_">
					<use xlink:href="#SVGID_30_"  overflow="visible"/>
				</clipPath>
				<g clip-path="url(#SVGID_4_)">
					<rect x="56.068" y="66.5" fill="none" stroke="#BF009C" stroke-miterlimit="10" width="15" height="3"/>
					<g>
						<polygon fill="none" stroke="#000000" stroke-miterlimit="10" points="72.456,147.5 54.288,147.5 56.884,69.5 69.86,69.5 
							71.907,131 						"/>
						<line fill="none" stroke="#000000" stroke-miterlimit="10" x1="66.068" y1="70" x2="66.068" y2="147"/>
						<line fill="none" stroke="#000000" stroke-miterlimit="10" x1="61.068" y1="70" x2="61.068" y2="147"/>
					</g>
				</g>
			</g>
			<g>
				<defs>
					<polygon id="SVGID_32_" points="38.021,108.503 30.715,115.956 32,122.956 29.999,127.894 39,136.714 43,136.956 
						45.637,135.955 55.63,125.759 					"/>
				</defs>
				<clipPath id="SVGID_5_">
					<use xlink:href="#SVGID_32_"  overflow="visible"/>
				</clipPath>
				<g clip-path="url(#SVGID_5_)">
					
						<rect x="1.642" y="92.81" transform="matrix(0.6999 -0.7143 0.7143 0.6999 -64.3874 34.9764)" fill="none" stroke="#000000" stroke-miterlimit="10" width="15.572" height="2.596"/>
					<g>
						<polygon fill="none" stroke="#000000" stroke-miterlimit="10" points="72.323,143.024 59.606,156 5.813,99.65 14.896,90.382 
													"/>
						<line fill="none" stroke="#000000" stroke-miterlimit="10" x1="12.635" y1="93.617" x2="67.317" y2="147.205"/>
						<line fill="none" stroke="#000000" stroke-miterlimit="10" x1="9.002" y1="97.324" x2="63.684" y2="150.912"/>
					</g>
				</g>
				<use xlink:href="#SVGID_32_"  overflow="visible" fill="none" stroke="#000000" stroke-miterlimit="10"/>
			</g>
			<g>
				<defs>
					
						<rect id="SVGID_34_" x="26.387" y="129.56" transform="matrix(-0.1734 -0.9849 0.9849 -0.1734 -101.1907 206.6301)" width="19.466" height="32.443"/>
				</defs>
				<clipPath id="SVGID_7_">
					<use xlink:href="#SVGID_34_"  overflow="visible"/>
				</clipPath>
				<g clip-path="url(#SVGID_7_)">
					
						<rect x="14.275" y="146.958" transform="matrix(-0.1735 -0.9848 0.9848 -0.1735 -120.1197 195.7052)" fill="none" stroke="#000000" stroke-miterlimit="10" width="15.572" height="2.597"/>
					<g>
						<polygon fill="none" stroke="#000000" stroke-miterlimit="10" points="98.446,125.585 101.597,143.478 24.465,154.421 
							22.214,141.642 						"/>
						<line fill="none" stroke="#000000" stroke-miterlimit="10" x1="23.529" y1="145.363" x2="98.933" y2="132.087"/>
						<line fill="none" stroke="#000000" stroke-miterlimit="10" x1="24.429" y1="150.475" x2="99.833" y2="137.199"/>
					</g>
				</g>
			</g>
		</g>
	</g>
	<g>
		<defs>
			<polygon id="SVGID_36_" points="-0.129,157.141 18.498,151.494 17.056,142.332 12.498,141.986 			"/>
		</defs>
		<clipPath id="SVGID_9_">
			<use xlink:href="#SVGID_36_"  overflow="visible"/>
		</clipPath>
		<g clip-path="url(#SVGID_9_)">
			<g>
				<polygon fill="none" stroke="#000000" stroke-miterlimit="10" points="-13.632,110.386 3.754,105.113 23.868,180.376 
					11.449,184.143 				"/>
				<line fill="none" stroke="#000000" stroke-miterlimit="10" x1="14.986" y1="182.39" x2="-7.234" y2="109.123"/>
				<line fill="none" stroke="#000000" stroke-miterlimit="10" x1="19.953" y1="180.885" x2="-2.266" y2="107.617"/>
			</g>
		</g>
		<use xlink:href="#SVGID_36_"  overflow="visible" fill="none" stroke="#000000" stroke-miterlimit="10"/>
	</g>
	<line fill="none" stroke="#000000" stroke-miterlimit="10" x1="50" y1="135" x2="53" y2="151"/>
	<polyline fill="none" stroke="#000000" stroke-miterlimit="10" points="55,123 69,127 72,127 	"/>
	
		<rect x="29.5" y="134.5" transform="matrix(0.8039 -0.5947 0.5947 0.8039 -74.5112 45.9953)" fill="none" stroke="#000000" stroke-miterlimit="10" width="6" height="3"/>
	
		<rect x="18.916" y="137.761" transform="matrix(0.9135 0.4067 -0.4067 0.9135 58.2516 3.0649)" fill="none" stroke="#000000" stroke-miterlimit="10" width="6" height="1.601"/>
	
		<rect x="42.916" y="154.761" transform="matrix(0.9135 0.4067 -0.4067 0.9135 67.2408 -5.2269)" fill="none" stroke="#000000" stroke-miterlimit="10" width="6" height="1.601"/>
	<polygon fill="none" stroke="#000000" stroke-miterlimit="10" points="33.5,156.5 40.5,155.5 41.5,157.5 33.5,157.5 	"/>
	<polygon fill="none" stroke="#000000" stroke-miterlimit="10" points="64,124 69,118 71,126 	"/>
</g>
</svg>
