<?xml version="1.0" encoding="utf-8"?>
<!-- Generator: Adobe Illustrator 16.2.0, SVG Export Plug-In . SVG Version: 6.00 Build 0)  -->
<!DOCTYPE svg PUBLIC "-//W3C//DTD SVG 1.1//EN" "http://www.w3.org/Graphics/SVG/1.1/DTD/svg11.dtd">
<svg version="1.1" id="Layer_1" xmlns="http://www.w3.org/2000/svg" xmlns:xlink="http://www.w3.org/1999/xlink" x="0px" y="0px"
	 width="173px" height="146px" viewBox="0 0 173 146" enable-background="new 0 0 173 146" xml:space="preserve">
<g>
	<path fill="none" stroke="#000000" stroke-miterlimit="10" d="M27.04,40.973c6.087,6.067,10.397,20.893,10.397,36.749
		c0,20.69-7.338,23.33-16.39,23.33c-9.051,0-16.389-2.64-16.389-23.33c0-15.916,4.339-30.781,10.459-36.807"/>
	<polyline fill="none" stroke="#000000" stroke-miterlimit="10" points="14.33,100.521 2.203,142.663 6.033,143.762 	"/>
	<polyline fill="none" stroke="#000000" stroke-miterlimit="10" points="27.616,99.892 27.616,144.392 33.116,144.392 	"/>
	<path fill="none" stroke="#000000" stroke-miterlimit="10" d="M58.306,34.843c0,0-17.831,11.553-35.452,17.545"/>
	<path fill="none" stroke="#000000" stroke-miterlimit="10" d="M38.241,21.711c0,11.625-7.112,20.129-16.582,20.129
		c-9.471,0-17.712-8.271-17.712-19.898c0-11.628,7.677-20.826,17.146-20.826C30.564,1.116,38.241,10.086,38.241,21.711z"/>
	<rect x="62.616" y="115.392" fill="none" stroke="#000000" stroke-miterlimit="10" width="30" height="30"/>
	<rect x="92.616" y="115.392" fill="none" stroke="#000000" stroke-miterlimit="10" width="30" height="30"/>
	<rect x="122.616" y="115.392" fill="none" stroke="#000000" stroke-miterlimit="10" width="30" height="30"/>
	<rect x="62.616" y="85.392" fill="none" stroke="#000000" stroke-miterlimit="10" width="30" height="30"/>
	<rect x="92.616" y="85.392" fill="none" stroke="#000000" stroke-miterlimit="10" width="30" height="30"/>
	<rect x="122.616" y="85.392" fill="none" stroke="#000000" stroke-miterlimit="10" width="30" height="30"/>
	
		<rect x="51.435" y="12.982" transform="matrix(0.9796 0.2008 -0.2008 0.9796 6.9711 -12.7705)" fill="none" stroke="#000000" stroke-miterlimit="10" width="29.98" height="29.979"/>
	<rect x="92.616" y="55.392" fill="none" stroke="#000000" stroke-miterlimit="10" width="30" height="30"/>
	<rect x="122.616" y="55.392" fill="none" stroke="#000000" stroke-miterlimit="10" width="30" height="30"/>
</g>
</svg>
