<?xml version="1.0" encoding="utf-8"?>
<!-- Generator: Adobe Illustrator 16.2.0, SVG Export Plug-In . SVG Version: 6.00 Build 0)  -->
<!DOCTYPE svg PUBLIC "-//W3C//DTD SVG 1.1//EN" "http://www.w3.org/Graphics/SVG/1.1/DTD/svg11.dtd">
<svg version="1.1" id="Layer_1" xmlns="http://www.w3.org/2000/svg" xmlns:xlink="http://www.w3.org/1999/xlink" x="0px" y="0px"
	 width="173px" height="171px" viewBox="0 0 173 171" enable-background="new 0 0 173 171" xml:space="preserve">
<g>
	<path fill="none" stroke="#000000" stroke-miterlimit="10" d="M3.568,159l23-19c0,0,4-2,4-9c1-2,3,1,3,1s10-8,11-10s2,0,2,0
		s4-7,5-7s1-12,3-15s0-11,0-13c2,0,10-6,11-6s23-6,26-6s18-15,18-20c0,0,4-18,4-20s1,2,1,2s-3,17-3,19s-1,4,2,2s15-8,15-8s3-9,7-11
		s15-10,15-10l-5,6c0,0-7,4-8,6s-5,3-5,6s-2,5-2,5s-12,6-14,9s-11,5-12,9s-8,7-12,8s-13,7-14,8s7,3,9,7c3,0,7,5,9,7s3,6,3,6l-1,1
		c0,0-4-9-9-11c0,0-6-2-7-2c0,0-4-6-10-7s-10,7-11,10s-1,12-1,12l-1,8v2c0,0-3,5-6,7s-9,11-9,12s-3,2-6,3s-8,5-10,8s-3,8-5,10
		s-8,6-8,6l-4,6"/>
	<polyline fill="none" stroke="#000000" stroke-miterlimit="10" points="36.568,101 25.568,109 25.568,114 28.568,117 29.568,124 
		30.568,130 	"/>
	<line fill="none" stroke="#000000" stroke-miterlimit="10" x1="32.568" y1="120" x2="29.568" y2="124"/>
	<polyline fill="none" stroke="#000000" stroke-miterlimit="10" points="33.568,109 31.568,105 32.568,99 	"/>
	<line fill="none" stroke="#000000" stroke-miterlimit="10" x1="25.568" y1="102" x2="25.568" y2="109"/>
	<line fill="none" stroke="#000000" stroke-miterlimit="10" x1="15.568" y1="114" x2="27.568" y2="116"/>
	<line fill="none" stroke="#000000" stroke-miterlimit="10" x1="16.568" y1="118" x2="21.568" y2="115"/>
	<polyline fill="none" stroke="#000000" stroke-miterlimit="10" points="59.568,119 70.568,117 73.568,120 	"/>
	<line fill="none" stroke="#000000" stroke-miterlimit="10" x1="75.568" y1="110" x2="69.568" y2="117"/>
	<line fill="none" stroke="#000000" stroke-miterlimit="10" x1="76.568" y1="114" x2="72.568" y2="113"/>
	<line fill="none" stroke="#000000" stroke-miterlimit="10" x1="74.568" y1="117" x2="71.568" y2="115"/>
	<polyline fill="none" stroke="#000000" stroke-miterlimit="10" points="98.568,107 94.568,112 94.568,116 91.568,123 87.568,124 	
		"/>
	<line fill="none" stroke="#000000" stroke-miterlimit="10" x1="96.568" y1="124" x2="92.568" y2="121"/>
	<polyline fill="none" stroke="#000000" stroke-miterlimit="10" points="99.568,107 103.568,120 108.568,123 108.568,129 
		105.568,132 108.568,140 	"/>
	<polyline fill="none" stroke="#000000" stroke-miterlimit="10" points="111.568,136 107.568,134 106.568,134 	"/>
	<polyline fill="none" stroke="#000000" stroke-miterlimit="10" points="101.568,110 109.568,111 110.568,113 116.568,113 
		124.568,122 	"/>
	<line fill="none" stroke="#000000" stroke-miterlimit="10" x1="117.568" y1="123" x2="119.568" y2="117"/>
	<polyline fill="none" stroke="#000000" stroke-miterlimit="10" points="55.568,87 49.568,85 47.568,88 	"/>
	<polyline fill="none" stroke="#000000" stroke-miterlimit="10" points="46.568,86 47.568,84 49.568,85 	"/>
	<polyline fill="none" stroke="#000000" stroke-miterlimit="10" points="66.568,81 65.568,72 70.568,68 74.568,68 75.568,65 
		77.568,65 82.568,60 	"/>
	<line fill="none" stroke="#000000" stroke-miterlimit="10" x1="79.568" y1="58" x2="80.568" y2="62"/>
	<polyline fill="none" stroke="#000000" stroke-miterlimit="10" points="76.568,47 72.568,53 71.568,67 	"/>
	<polyline fill="none" stroke="#000000" stroke-miterlimit="10" points="61.568,53 66.568,53 70.568,51 71.568,53 	"/>
	<polyline fill="none" stroke="#000000" stroke-miterlimit="10" points="65.568,59 67.568,57 66.568,53 	"/>
	<polyline fill="none" stroke="#000000" stroke-miterlimit="10" points="53.568,56 55.568,58 54.568,63 58.568,69 66.568,67 
		68.568,69 	"/>
	<line fill="none" stroke="#000000" stroke-miterlimit="10" x1="54.568" y1="76" x2="58.568" y2="69"/>
	<line fill="none" stroke="#000000" stroke-miterlimit="10" x1="53.568" y1="71" x2="59.568" y2="69"/>
	<line fill="none" stroke="#000000" stroke-miterlimit="10" x1="52.568" y1="67" x2="57.568" y2="67"/>
	<line fill="none" stroke="#000000" stroke-miterlimit="10" x1="58.568" y1="59" x2="55.568" y2="63"/>
	<polyline fill="none" stroke="#000000" stroke-miterlimit="10" points="94.568,4 95.568,8 98.568,10 98.568,17 104.568,24 
		106.568,24 107.568,32 114.568,36 	"/>
	<polyline fill="none" stroke="#000000" stroke-miterlimit="10" points="124.568,28 118.568,32 114.568,35 	"/>
	<line fill="none" stroke="#000000" stroke-miterlimit="10" x1="125.568" y1="33" x2="119.568" y2="32"/>
	<path fill="none" stroke="#000000" stroke-miterlimit="10" d="M96.568,24c1,0,7,0,7,0"/>
	<polyline fill="none" stroke="#000000" stroke-miterlimit="10" points="123.568,5 116.568,12 116.568,17 112.568,22 112.568,35 	
		"/>
	<polyline fill="none" stroke="#000000" stroke-miterlimit="10" points="125.568,14 119.568,15 117.568,16 	"/>
	<polyline fill="none" stroke="#000000" stroke-miterlimit="10" points="122.568,20 124.568,19 129.568,21 	"/>
	<line fill="none" stroke="#000000" stroke-miterlimit="10" x1="124.568" y1="15" x2="124.568" y2="22"/>
	<path fill="none" stroke="#000000" stroke-miterlimit="10" d="M106.568,7l-3,5c0,0-1,6-2,7"/>
	<polyline fill="none" stroke="#000000" stroke-miterlimit="10" points="162.568,15 159.568,18 154.568,24 152.568,27 	"/>
	<polyline fill="none" stroke="#000000" stroke-miterlimit="10" points="158.568,1 156.568,4 157.568,14 159.568,17 	"/>
	<line fill="none" stroke="#000000" stroke-miterlimit="10" x1="150.568" y1="16" x2="152.568" y2="13"/>
	<polyline fill="none" stroke="#000000" stroke-miterlimit="10" points="147.568,15 149.568,13 156.568,14 	"/>
	<polyline fill="none" stroke="#000000" stroke-miterlimit="10" points="151.568,28 158.568,28 161.568,28 163.568,29 	"/>
	<line fill="none" stroke="#000000" stroke-miterlimit="10" x1="159.568" y1="31" x2="158.568" y2="28"/>
</g>
</svg>
