<?xml version="1.0" encoding="utf-8"?>
<!-- Generator: Adobe Illustrator 24.2.0, SVG Export Plug-In . SVG Version: 6.00 Build 0)  -->
<svg version="1.1" id="Layer_1" xmlns="http://www.w3.org/2000/svg" xmlns:xlink="http://www.w3.org/1999/xlink" x="0px" y="0px"
	 viewBox="0 0 173 156" style="enable-background:new 0 0 173 156;" xml:space="preserve">
<style type="text/css">
	.st0{fill:none;stroke:#000000;stroke-miterlimit:10;}
	.st1{fill:none;stroke:#000000;stroke-linecap:round;stroke-linejoin:round;stroke-miterlimit:10;}
</style>
<g>
	<circle class="st0" cx="310.2" cy="34.2" r="6.4"/>
	<path d="M312.7,34.2c0,1.4-1.1,2.5-2.5,2.5c-1.4,0-2.5-1.1-2.5-2.5c0-1.4,1.1-2.5,2.5-2.5C311.6,31.7,312.7,32.8,312.7,34.2"/>
	<circle class="st0" cx="269" cy="37.1" r="13.7"/>
	<path class="st0" d="M328,35.8c0,7.6-6.1,13.7-13.7,13.7c-7.6,0-13.7-6.1-13.7-13.7c0-7.6,6.1-13.7,13.7-13.7
		C321.9,22.1,328,28.2,328,35.8z"/>
	<path class="st0" d="M280.8,35.8c0,3.7-3,6.7-6.7,6.7c-3.7,0-6.7-3-6.7-6.7c0-3.7,3-6.7,6.7-6.7C277.8,29.1,280.8,32.1,280.8,35.8z
		"/>
	<path d="M277,35.5c0,1.4-1.1,2.5-2.5,2.5c-1.4,0-2.5-1.1-2.5-2.5s1.1-2.5,2.5-2.5C275.9,32.9,277,34.1,277,35.5"/>
	<path class="st0" d="M275.7,8c0,0-14.7-5.1-24.2,8.9"/>
	<path class="st0" d="M303.8,6.1c0,0,14.7-5.1,24.2,8.9"/>
	<path class="st0" d="M285.6,52.7c0,0,7.2-7.7,13.5,0.5"/>
	<path class="st0" d="M275.2,78.9c0,0,26.6,3.8,32.1,0S291.8,62.3,275.2,78.9z"/>
	<path class="st0" d="M347.8,40c0,32-24.1,55.5-56.1,55.5s-59.9-22.8-59.9-54.8c0-32,26-57.4,58-57.4C321.8-16.8,347.8,7.9,347.8,40
		z"/>
	<path class="st0" d="M262.8,88.2c0,0-36,11-38,50"/>
	<path class="st0" d="M319.8,88.2c0,0,36,11,38,50"/>
</g>
<g>
	<circle class="st0" cx="-2401.9" cy="1250.8" r="6.4"/>
	<path d="M-2399.4,1250.8c0,1.4-1.1,2.5-2.5,2.5c-1.4,0-2.5-1.1-2.5-2.5s1.1-2.5,2.5-2.5
		C-2400.5,1248.2-2399.4,1249.4-2399.4,1250.8"/>
	<circle class="st0" cx="-2443" cy="1253.6" r="13.7"/>
	<path class="st0" d="M-2384.1,1252.4c0,7.6-6.1,13.7-13.7,13.7c-7.6,0-13.7-6.1-13.7-13.7c0-7.6,6.1-13.7,13.7-13.7
		C-2390.2,1238.7-2384.1,1244.8-2384.1,1252.4z"/>
	<path class="st0" d="M-2431.3,1252.4c0,3.7-3,6.7-6.7,6.7c-3.7,0-6.7-3-6.7-6.7c0-3.7,3-6.7,6.7-6.7
		C-2434.2,1245.7-2431.3,1248.7-2431.3,1252.4z"/>
	<path d="M-2435.1,1252c0,1.4-1.1,2.6-2.6,2.6s-2.5-1.1-2.5-2.6c0-1.4,1.1-2.5,2.5-2.5S-2435.1,1250.6-2435.1,1252"/>
	<path class="st0" d="M-2436.4,1224.6c0,0-14.7-5.1-24.2,8.9"/>
	<path class="st0" d="M-2408.3,1222.7c0,0,14.7-5.1,24.2,8.9"/>
	<path class="st0" d="M-2426.5,1269.3c0,0,7.2-7.7,13.5,0.5"/>
	<path class="st0" d="M-2436.9,1295.4c0,0,26.6,3.8,32.1,0C-2399.2,1291.6-2420.3,1278.9-2436.9,1295.4z"/>
	<path class="st0" d="M-2364.3,1256.5c0,32-24.1,55.5-56.1,55.5s-59.9-22.8-59.9-54.8c0-32,26-57.4,58-57.4
		C-2390.3,1199.8-2364.3,1224.5-2364.3,1256.5z"/>
	<path class="st0" d="M-2449.3,1304.8c0,0-36,11-38,50"/>
	<path class="st0" d="M-2392.3,1304.8c0,0,36,11,38,50"/>
</g>
<g>
	<circle class="st0" cx="-2840.9" cy="1250.8" r="6.4"/>
	<path d="M-2838.4,1250.8c0,1.4-1.1,2.5-2.6,2.5c-1.4,0-2.5-1.1-2.5-2.5s1.1-2.5,2.5-2.5
		C-2839.5,1248.2-2838.4,1249.4-2838.4,1250.8"/>
	<circle class="st0" cx="-2882" cy="1253.6" r="13.7"/>
	<path class="st0" d="M-2823.1,1252.4c0,7.6-6.1,13.7-13.7,13.7c-7.6,0-13.7-6.1-13.7-13.7c0-7.6,6.1-13.7,13.7-13.7
		C-2829.2,1238.7-2823.1,1244.8-2823.1,1252.4z"/>
	<path class="st0" d="M-2870.2,1252.4c0,3.7-3,6.7-6.7,6.7c-3.7,0-6.7-3-6.7-6.7c0-3.7,3-6.7,6.7-6.7
		C-2873.2,1245.7-2870.2,1248.7-2870.2,1252.4z"/>
	<path d="M-2874.1,1252c0,1.4-1.1,2.6-2.6,2.6c-1.4,0-2.5-1.1-2.5-2.6c0-1.4,1.1-2.5,2.5-2.5
		C-2875.2,1249.5-2874.1,1250.6-2874.1,1252"/>
	<path class="st0" d="M-2875.3,1224.6c0,0-14.7-5.1-24.2,8.9"/>
	<path class="st0" d="M-2847.3,1222.7c0,0,14.7-5.1,24.2,8.9"/>
	<path class="st0" d="M-2865.4,1269.3c0,0,7.2-7.7,13.5,0.5"/>
	<path class="st0" d="M-2875.8,1295.4c0,0,26.6,3.8,32.1,0C-2838.2,1291.6-2859.2,1278.9-2875.8,1295.4z"/>
	<path class="st0" d="M-2803.3,1256.5c0,32-24.1,55.5-56.1,55.5c-32,0-59.9-22.8-59.9-54.8c0-32,26-57.4,58-57.4
		C-2829.3,1199.8-2803.3,1224.5-2803.3,1256.5z"/>
	<path class="st0" d="M-2888.3,1304.8c0,0-36,11-38,50"/>
	<path class="st0" d="M-2831.3,1304.8c0,0,36,11,38,50"/>
</g>
<image style="overflow:visible;" width="1118" height="666" xlink:href="D5C90EA4.jpg"  transform="matrix(0.7499 0 0 0.7499 -2961.6421 265.5052)">
</image>
<image style="overflow:visible;" width="1130" height="646" xlink:href="D5C90EA5.jpg"  transform="matrix(0.7499 0 0 0.7499 -2123.2468 250.5589)">
</image>
<image style="overflow:visible;" width="1168" height="548" xlink:href="D5C90EA3.jpg"  transform="matrix(0.7499 0 0 0.7499 -1275.8528 259.5052)">
</image>
<image style="overflow:visible;" width="1208" height="650" xlink:href="D5C90EAC.jpg"  transform="matrix(0.7499 0 0 0.7499 -394.2767 245.948)">
</image>
<g>
	
		<image style="overflow:visible;" width="361" height="408" xlink:href="D5C90EAF.jpg"  transform="matrix(-7.586458e-04 0.2527 -0.2527 -7.586458e-04 -2616.5063 1483.6504)">
	</image>
	<g>
		<defs>
			<path id="SVGID_1_" d="M-2549.2,1586.1l-52-43.7c0,0,4.4-10.3,3.9-10.7s-19.4-18-19.4-18l-3.4-6.1l26.4-17c0,0,14.3,0.2,15.6,2
				c1.3,1.7,3.4,5.1,3.4,5.1l-1.6,25.6l17,12.9l31.2-17.1c0,0,28.4,14.9,28.5,15.7s-34.6,56.7-34.6,56.7L-2549.2,1586.1z"/>
		</defs>
		<clipPath id="SVGID_2_">
			<use xlink:href="#SVGID_1_"  style="overflow:visible;"/>
		</clipPath>
		<g transform="matrix(1 -2.980232e-08 2.980232e-08 1 0 -1.220703e-04)" style="clip-path:url(#SVGID_2_);">
			
				<image style="overflow:visible;" width="255" height="427" xlink:href="D5C90EAD.jpg"  transform="matrix(0.2825 -0.2132 0.2132 0.2825 -2651.0103 1507.6027)">
			</image>
		</g>
	</g>
</g>
<g>
	<g>
		<path class="st1" d="M89,155c1.5-3.6,7.2-16.5,11.3-19.2c4.6-0.7,6.2-2.5,8.4-9.4c-7.4,0.7-10.1,7.9-10.1,7.9l-5.1,7.5
			c0,0-5.1,8.8-5.9,10.1c-0.5,0.8-1.1,2.2-1.5,3.1"/>
		<path class="st1" d="M89.1,149.5c0.4-2.6,2.8-9,2.8-9s-0.7-1.3,0-3.6c0.7-2.3,4.2-5.5,4.2-5.5s0.7,3.5-0.3,7"/>
		<path class="st1" d="M99.3,130c0,0-9.1,1.6-3.4-15.3C98.7,117.7,105.8,127.8,99.3,130z"/>
		<path class="st1" d="M102.5,125.3c0,0,8.5,4.4,15.9-10.7C114.6,117.3,99.4,118.9,102.5,125.3z"/>
		<path class="st1" d="M106.9,116.4c0,0,5.5,2.1,8.8-1.1c3.9-3.8,5.1-5.9,9.3-9.6C117.1,102.6,103.9,110,106.9,116.4z"/>
		<path class="st1" d="M97.1,136.5c0-3.5,0.3-6.5,0.3-6.5"/>
		<path class="st1" d="M101.3,102c0,0-0.1,4.7-1.9,8.3c-1.9,3.6-1.7,10.3,3,10.2s3.9-5.4,3.8-9C106.1,107.9,102.8,103,101.3,102z"/>
		<path class="st1" d="M108.9,109.7c0,0-2.9,1.3-3.5-1.6c-0.6-2.9-1.8-3.4,0.7-9c2.4-5.6,3.8-11,3.8-11s3.2,6,2.7,12.3
			c-0.4,6.3-0.5,7-0.5,7"/>
		<path class="st1" d="M131.7,92.5l-2.9-0.2c0,0-13,1.8-15.6,7.5s4.3,5.5,4.3,5.5S125,103,131.7,92.5z"/>
		<path class="st1" d="M114.3,97.9c-6.7-9.2,3.1-19.8,3.1-19.8s0.1,3.9,2.7,7.7c1.4,5.2,0,8.8,0,8.8"/>
		<path class="st1" d="M129,92.3c0,0,7.1-8.6,10.5-10.5c0,0-15.5,2.7-19,5"/>
		<path class="st1" d="M118.6,82.9c0,0,0.1-0.9,0.8-4.1c0.6-3.2,5.6-12,5.6-12s3.5,6.5,2,13.1c-0.4,2.8-0.7,4.8-0.7,4.8"/>
		<path class="st1" d="M127.5,74.8c0,0,0.5,1.1,2,1.1c1.5,0,3.8-1,4.4-2.6c0.6-1.6-0.1-13.4,0.7-15.9c-7,7.1-8.3,10.9-8.5,12.3"/>
		<path class="st1" d="M146.1,72.5c0,0-9.8-0.4-12.5,1.4"/>
		<path class="st1" d="M129.7,75.9c0,0-1.6,0.9-2.3,2.3"/>
		<path class="st1" d="M126.9,81.2c0,0,1.2,2.1,3.2,2.4"/>
		<path class="st1" d="M145.9,72.5c0,0-8,8-11.9,10.3"/>
		<path class="st1" d="M149.4,70.4"/>
		<path class="st1" d="M135.5,66.2c0,0,4,1.2,5.8-3.5s1.7-11,3.7-13.4c-3,1.1-8.8,6.7-10,10.1C134.1,62.1,134.5,66.1,135.5,66.2z"/>
		<path class="st1" d="M134.2,71c0,0-1-3.2,5.7-5.3c6.7-2.2,8.1-0.6,11.9-3.8c-4.2,6.6-6,9-9.7,10.7"/>
		<path class="st1" d="M142.6,58c0,0,0.2-9.7,19.1-12.3c-6,4.4-9.1,8.8-9.1,8.8"/>
		<path class="st1" d="M142.2,60.7c0,0,1.3-5.1,16.7-7.3c0,0-8.3,9.2-10,10"/>
	</g>
	<g>
		<path class="st1" d="M78,154.4c0,0,0.9-9.3,0-15.4c-0.9-6.1-1.4-4.8-0.3-10.2c1.9,0.8,4.6,6.3,2.8,10.8"/>
		<line class="st1" x1="81.4" y1="154.9" x2="83.8" y2="131.8"/>
		<path class="st1" d="M87.8,116.9c0,0,2,4.9-0.2,9.6c-2.2,4.7-5,5.7-5,5.7s-2-7.1-0.9-9.8C82.8,119.7,87.8,116.9,87.8,116.9z"/>
		<path class="st1" d="M80.3,125.2c0,0-4.2,0.3-7.7-3.2s-4.5-10.8-4.5-10.8s4.8,0.7,7.8,3C78.9,116.4,84.4,119.7,80.3,125.2z"/>
		<path class="st1" d="M88.2,103.9c0,0,1.7,13.9-5.3,14C74.1,113.8,88.2,103.9,88.2,103.9z"/>
		<path class="st1" d="M79.9,107.3c0,0-1-3.7,7-9.3c0.6,1.6-0.3,7.1-0.3,7.1"/>
		<path class="st1" d="M78.8,113c0,0,6.6-5.4-5.6-9.2c0,0-1.3,5.5,0.1,7.7S78.8,113,78.8,113z"/>
		<path class="st1" d="M77.2,105.4c0,0,0-2.7-16.1-10.9c4.2,7.2,9,16.9,9,16.9"/>
		<path class="st1" d="M77.2,104.9c0,0,10.3-2.4,5-17.6c-0.3-2-0.5-5.9-0.5-5.9s-2.8,2.7-3.5,4.5"/>
		<path class="st1" d="M69.6,87c0.6,1.4,1.6,2.9,3.4,4.4c0,0,8,2.7,4.4-15.5c-2.2-0.4-6.4,2.4-7.8,6.2"/>
		<path class="st1" d="M48.3,73.5c-0.2-0.4,22,2,21.7,10.4s-9.7,1.7-9.7,1.7S50.7,77.8,48.3,73.5z"/>
		<path class="st1" d="M72.6,100.9c0,0,9.9-3.7-5-12.9"/>
		<path class="st1" d="M63.6,95.4c0,0-5.2-8.2-8.6-11.1c1.7-0.3,4.8,1,4.8,1"/>
		<path class="st1" d="M75.2,103c0,0-0.3-1.8,0.3-4.7"/>
		<path class="st1" d="M75.1,91.3c0,0-0.6,1.1-0.1,3"/>
		<path class="st1" d="M75.6,76.1c0,0,0-7.9-0.4-10c-1.9,3-2.6,5.5-3.3,6"/>
		<path class="st1" d="M67.8,79.3c0,0,6.4-1.3,3.6-9s-3-8.6-2.4-9.3c-2.8,2-7.2,6.6-7.4,8.6"/>
		<path class="st1" d="M62.4,76.5c0,0,5.1-4.9-4.5-8.7c-7.1-2.2-14.4-2.3-16.7-2.7c0,0,6.8,6.9,10.6,8.8"/>
		<path class="st1" d="M65.6,63.9c0,0-2.5-9.8-3.5-13.3c-5,3.4-6.9,9.4-7,9.6"/>
		<path class="st1" d="M54.1,66.8c0,0,7-2.4-0.5-7.8c-7-5-18-4.3-18-4.3s7.8,8.6,10.5,10.7"/>
		<path class="st1" d="M48.6,56.5c0,0,5.3-2.9,0-7.1s-7.8-1.9-14.3-4.6c-6.5-2.7-7-4.8-7-4.8s2.5,8.5,13.3,14.9"/>
		<path class="st1" d="M57.6,55c0,0,2.2-8.9-4.6-21c-1.2,1.7-2.3,3.3-2.3,3.3"/>
		<path class="st1" d="M48.7,49.3c0,0,5.9-2.2,1.4-13.3c-0.8-3.9-2.4-7.9-2.4-7.9s-0.1,2.8-1.5,4.4"/>
		<path class="st1" d="M42.6,39.4c0,0,6.9-2,1.4-14.7c-1.9-3.8-2.8-7.6-2.8-7.6l-2.2,7.2"/>
		<path class="st1" d="M35.4,45c-10.8-9.8-9.1-15.3-8-17.7c0.6,1.2,2.2,4,10.1,8.6s6.3,8.2,6.3,8.2s-0.5,1.9-2.1,2.4"/>
		<path class="st1" d="M35.1,34.1c0,0,5.8-3.2,3.1-12.9c-2.7-9.7-5.8-15.1-5.8-18.9c0-3.8,0,14.6,0,14.6s-5,9.7-4.3,11.6"/>
		<path class="st1" d="M28.2,26.3c-2-3.5-3.6-19.1-3.6-19.1s6,4.1,7.8,8.8"/>
		<path class="st1" d="M22.4,15.2"/>
	</g>
	<path class="st1" d="M73.6,123.2c0,0,0.2,5.8,3.6,11.5"/>
</g>
<g>
	<g>
		<g>
			<path class="st1" d="M-1128.9,197.7c0,0,9.1,9.3,18.2,11.3c9.1,1.9,17.2-1,19.3-2.4s12.5-7.6,12.5-7.6l15.4-7.7l-1-1.3l-12.8,5.2
				c0,0-4,3.1-14.4,4.1c-10.4,1-23.4,0.5-23.4,0.5S-1127.6,198.8-1128.9,197.7z"/>
			<line class="st1" x1="-1124.8" y1="195.7" x2="-1128.9" y2="197.7"/>
			<path class="st1" d="M-1059.3,178.2c0,0-32.3-0.7-36.1-0.9s-8.3,0.7-8.3,0.7l-31.3,4c0,0,21.2,1.6,29.8,2.7
				c3.4,0.5,6.7,0.5,9.4,0.3c4.2-0.2,7.1-0.8,7.1-0.8S-1067.8,178.6-1059.3,178.2c-0.4,2.3-6,10.8-6,10.8l-27.7,6.2
				c0,0-1.8,0.2-4.5,0.4c-3.9,0.3-9.8,0.7-15.1,0.7c-9,0-19.6-1.3-19.6-1.3s-3.6-0.4-3.5-1.6c0-1.2,0.7-11.4,0.7-11.4"/>
			<path class="st1" d="M-1064.4,188.3l12.7,5c0,0,2,1.2,2.5-1.3c0.5-2.5,2.9-20.3,3.2-28.6c0.3-8.3,0-12,0-12s-0.8-5.7-5.6-8.5
				c-4.8-2.8-13.9-8.1-13.9-8.1s-10.6-4.5-16.4-3.6c-5.8,0.9-5.6,10.2-5.6,10.2l5.5,26.7l2,9.1"/>
			<path class="st1" d="M-1040,166.6c0,0,0.8-17,0.5-21.1c-0.3-4.1-16.9-13.2-19.8-14c-2.9-0.8-5.7-3.1-11.9-0.8"/>
			<path class="st1" d="M-1059.3,130.1c0,0,7.4,3,13.2,6.4s9.7,6.5,9.5,9.5c-0.3,2.9-1.5,8-1.5,8l-0.3,2.5"/>
			<path class="st1" d="M-1039.6,156l12.1,15c0,0,0.6,2.1-12.4-6.6"/>
			<line class="st1" x1="-1087.1" y1="97" x2="-1059.3" y2="131.5"/>
			<line class="st1" x1="-1087.1" y1="114.2" x2="-1071.8" y2="130.9"/>
			<line class="st1" x1="-1082.7" y1="103.8" x2="-1087.1" y2="114"/>
			<path class="st1" d="M-1083.5,103.8l-4.3,1.1l-3.6,7.6c0,0-0.3,2.7,3.9,2.1"/>
			<path class="st1" d="M-1095.2,108.3c0,0-0.4,1.5,3.4,4.8"/>
			<path class="st1" d="M-1086.1,94.7l5.3,6.8c0,0,0.7,1.2,0,1.8"/>
			<path class="st1" d="M-1049.5,193.9c0,0,27-8.3,30.6-10c3.6-1.7,6.3-5.3,6.6-6.4c0.3-1.1,1-5.6,1-5.6"/>
			<path class="st1" d="M-1062.4,126.2l17.2-3.6c0,0,7.3-1.2,8.1-1c0.8,0.2,5.1,2.5,5.7,3.5c0.6,1,6.5,3.6,6.5,3.6s1.5,7.4,2.1,8.1
				c0.6,0.7-3.6,6.9-1.4,13.4c1.3,2.9,4.5,3.3,4.5,3.3s3.2,0,5.2-4.8c2-4.8,3.9-5.2,4.5-8.1s-1.3-17.7-1.3-17.7l-8.1-11.4"/>
			<path class="st1" d="M-1005,118.1c0,0,7.2,7.9,7,14.1c-0.3,6.2-4.6,13.8-4.6,13.8l-3.5,8.5l-5.5,6.1c0,0-3.1,5.3-7,3.9
				c-3.9-1.4-4.5-4.7-1.7-10.6"/>
			<path class="st1" d="M-994.1,122.5l-0.8,3.7c0,0,2.2,12.6,1.7,14.5c-0.5,1.9-6.4,15.6-6.4,15.6l-3.2,5.5c0,0-2.5,4-3.1,5.9
				c-0.6,1.9-4.1,5.7-7.9,3.3c-3.2-2-0.3-7.3-0.3-7.3"/>
			<path class="st1" d="M-993.6,105.7c0,0,2.5,8.7,3,9.7c0.5,1,2.6,4.1,2.3,7.7c-0.3,3.6-2.6,16.3-2.6,16.3s-1,5.4-1.6,7.8
				c-0.6,2.4-4.3,10.5-4.3,10.5l-5.5,8.8c0,0-0.8,2.2-4.8,3.2"/>
			<polyline class="st1" points="-1036.6,101.6 -1048,109.8 -1054.7,114.2 -1060.2,117.1 -1067.7,121.1 			"/>
			<path class="st1" d="M-1102.9,89c0,0-2,5.2-1.6,6s-4.6,6.9-4.2,8.8s0.5,4,2.9,4.9c2.4,0.9,4.6,2.1,8.1,0.6s9.1-10,9.1-10
				s2.5-3.7,3.1-7c0.6-3.3,1.7-12.3,2.6-13.2c0.9-1,1.8-5.3,1.8-5.3l-0.6-8.4c0,0-0.5-5.9-1-6.8"/>
			<path class="st1" d="M-1082.7,79.5c0,0,1.8,5.2,1.5,6.7c-0.3,1.6-1.8,6.5-1.8,6.5s-1.1,0.9-1.1,1.7c0,0.8,0,2.3,0,2.3"/>
			<path class="st1" d="M-1113.7,83c0,0-4.6,5.1-4.7,8.6c-0.8,1.9-1.7,3.1-1.7,3.1s-1.5,4.6,3.9,8.6c3,2.5,7.5-0.9,7.5-0.9"/>
			<path class="st1" d="M-1121,95.1c0,0-1,1.2-3.8,0.3c-2.7-0.9-5.7-3.8-5.7-3.8"/>
			<path class="st1" d="M-977.3,109.2c0,0-2,4.5-12.2,6.4"/>
		</g>
		<path class="st1" d="M-1014.7,149c0,0,0.7-6.9-6.5-2.1"/>
		<path class="st1" d="M-1017,158.7c0,0,4.6-2.6,5.4,1.4"/>
		<path class="st1" d="M-1010,165c0,0,4.1-1.7,4.1,1.6"/>
		<path class="st1" d="M-1003.3,162.6c0,0,1.3,1.4,0.6,4"/>
	</g>
	<path class="st1" d="M-1082.8,131.5c0,0,0.2-1.3,8.1-3.4"/>
</g>
<g>
	<g>
		<path class="st1" d="M-2686.2,200.5c0,0,2.5,0.4,9.7-1.5c7.2-1.9,14.5-7.1,14.5-7.1l8-3.2l4-4.4c0,0,1.3-14.5,0-17.6"/>
		<path class="st1" d="M-2599.5,159.4l-0.2,21.3c0,0,2.4,6.2,4.6,7.4c2.2,1.2,26.7,10.6,26.7,10.6s5.2,1.8,10.2,0.7
			c1-0.2,2.2-0.4,3.4-0.5"/>
		<path class="st1" d="M-2653.1,187.6c0,0,1.7,11.7,18.1,14.9c16.4,3.2,17.6,4.3,24.2,2.7s16.4-4.1,18.7-14.9"/>
		<path class="st1" d="M-2657.2,144.6c0,0,0.9,16.9,9.7,25.4c8.8,8.5,15.2,10.9,19.1,10.7s11.7-0.7,14.4-2.3
			c2.7-1.7,8.4-5.6,11.7-12.1c3.4-6.5,4-15.6,4.8-21.9"/>
		<path class="st1" d="M-2638.5,152.7c0,0,11,1.1,13,1.1s3.7-0.2,6.3-0.5"/>
		<path class="st1" d="M-2633.2,139c0,0,2.1,0,2.7,1.2c0.6,1.2,3.3,1.3,4.1,0.9c0.8-0.4,1.6-1.9,3.5-2.1"/>
		<g>
			<line class="st1" x1="-2625.1" y1="116.9" x2="-2622.5" y2="119.3"/>
			<g>
				<circle class="st1" cx="-2599.7" cy="118.9" r="10.7"/>
				<circle class="st1" cx="-2599.7" cy="118.9" r="14.2"/>
				<path class="st1" d="M-2609.8,128.9c-1.2,0.7-2.6,1-4.1,1c-4.8,0-8.6-3.9-8.6-8.6c0-2.7,2.2-6,5.4-8.7"/>
			</g>
		</g>
		<g>
			<g>
				<circle class="st1" cx="-2658.3" cy="118.9" r="10.7"/>
				<circle class="st1" cx="-2658.3" cy="118.9" r="14.2"/>
				<path class="st1" d="M-2648.2,128.9c1.2,0.7,2.6,1,4.1,1c4.8,0,8.6-3.9,8.6-8.6c0-3.4-4.4-8.6-8.6-11.2"/>
				<line class="st1" x1="-2636.7" y1="109.2" x2="-2640.3" y2="112.6"/>
			</g>
			<line class="st1" x1="-2632.5" y1="117.2" x2="-2634.9" y2="119.4"/>
		</g>
		<path class="st1" d="M-2621.3,110.2c0,1.1-0.2,2.1-0.6,3c-0.3,0.7-0.7,1.4-1.2,2c-1.4,1.7-3.5,2.7-5.9,2.7c-4.2,0-7.7-3.4-7.7-7.7
			c0-4.2,3.4-6.4,7.7-6.4c3.9,0,7.1,1.8,7.6,5.4C-2621.3,109.6-2621.3,109.9-2621.3,110.2z"/>
		<path class="st1" d="M-2622.2,125.7c0,0-1.7-0.9-5,0.1c-3.3,1-2.7,5.3,1.7,5.8c4.5,0.4,6.1,7.1,6.1,7.1s0,1.5,9.2,1.6
			c9.2,0.2,9.6,2.8,12.8,3c3.2,0.2,6.4-2.9,17.8,1.1c11.4,3.9,20.6,15.6,20.6,15.6l9.1,10"/>
		<path class="st1" d="M-2614.2,116c0,0-0.9,1.7-3,0.2s3-10.1,3-10.1s9.1-5.7,10.2-6.1c1.2-0.4,12.1-4.2,12.1-4.2l7.7-0.8
			c0,0,4.9-1.1,7.6,3.7c2.7,4.8,14.2,26.7,14.2,26.7l13.1,11.8"/>
		<path class="st1" d="M-2586.3,94.6l-12.8-3.3c0,0-4.1-1.9-8.2,0.6s-8.8,6.1-8.8,6.1s-2.4,1.4-3.2,5.9s-1.6,5.4-1.6,5.4"/>
		<path class="st1" d="M-2621.6,113.6c0,0,1,0.2,2.9,0"/>
		<path class="st1" d="M-2615.8,97.2c0,0-10,2.5-13.5,3c-3.5,0.5-3.9,1.6-3.9,1.6s-1.6,2.2,1.1,2.5"/>
		<path class="st1" d="M-2623,105c0,0,2.5-0.2,2.9,0.3"/>
		<path class="st1" d="M-2644.8,113.3c0,0,1.4,0.5,1.6-0.5c0.2-0.9-3.9-6.4-3.9-6.4l-3.5-3.4l-1.1-1.1l-8.8-3.1c0,0-2.4-0.5-3.5,0.2
			c-1.1,0.7-7.9,6.1-7.9,6.1"/>
		<path class="st1" d="M-2708.7,142.9l6.9-6.8l8.4-10.2l10.5-15l9.7-8.3l9.4-6.5c0,0,2.2-0.9,8.2,0.5s9.1,2.1,9.1,2.1l8,7
			c0,0-0.9,5.4-5.6,2.3c-4.7-3.1-6.5-5-6.5-5"/>
		<path class="st1" d="M-2651.5,131.4c0,0,9.7-1.9,12.4,0s0.7,6.9,0.7,6.9s-9.6,0.3-11,1.9c-1.3,1.6-7.1,2.6-11.7,7
			c0,0-12.6,7.4-22.9,7.6c-0.8,0-1.7-0.1-2.3,0.3c-8,5.4-11.7,13.3-11.7,13.3"/>
		<path class="st1" d="M-2656.9,95.8c0,0,2.4-2.9,5.3-3.2s9.2-2,9.2-2s4.6-1.4,5.8-1.2s4.8,0,6.3,0.4s4.3,0.1,5.6-0.1
			c1.3-0.2,2.5-1.3,3.9-1c1.4,0.3,5,1.2,5,1.2s4,0.2,4.7,0.4s2.2,0.2,2.7,0.4c0.5,0.2,1.9,0.4,1.9,0.4"/>
		<path class="st1" d="M-2662.3,95.8c0,0-0.6-7.5,0-8.8c0.6-1.3,1.8-4.7,1.4-6.8s-0.9-2.8,0-3.8s1.7-2.4,2-3.3
			c0.3-0.9,0.3-2.4,1.3-3c1-0.5,2-1.4,2.6-1.8c0.6-0.4,1.7-1.8,2.7-2.4c1-0.6,4.7-0.1,5,0.1s1.4,1.3,2.4,1.5c1,0.1,3-1.7,4.6-2.2
			c1.6-0.5,1-1,3.7-1c2.6-0.1,1.2-0.9,5-0.3s4.4,0.4,6.2-0.3c1.8-0.7,1.8-2.4,2.5-1.2c0.7,1.3-1.3,1.2,1.4,3.5
			c2.7,2.3,3.6,2.6,3.9,2.7c0.3,0.1,1.5-2.2,1.5-2.2s0.8-1.5,1.4-1.5c0.6,0,2.8,0.1,3.8,0.5c1,0.4,2-0.4,2.9,0.8
			c0.9,1.3,3.5,2.7,4.5,3.2c1,0.5,5.6,2.7,5.8,3.4s-1,0.8,0.4,2.7c1.3,1.8,2.3,3.1,2.7,3.7c0.4,0.6,1.8,2.4,1.8,2.4s1.3,0.8,1.4,2.4
			c0.1,1.6,0.1,2.1,0,3.5c-0.1,1.4,0.1,2.2,0.5,3.4c0.4,1.2,0,2.5,0,2.5"/>
	</g>
	<path class="st1" d="M-2609.8,119.4c0,0,3.4,6,4,8c0.6,2-4-9.8-4-9.8l6.7,11.5l-6.3-14l7.7,14l-7-15.4l8.7,16l-8.1-17.4l9.7,17.3
		l-8.4-18.6l9.6,18"/>
	<polyline class="st1" points="-2590.8,113 -2589.4,119.3 -2593.1,110.9 -2589.7,121.6 -2595.2,109.2 -2590.3,123.2 -2597.2,108.5 
		-2590.8,124.9 -2599.2,108.2 -2591.6,126 -2600.9,108.6 -2592.7,127.1 -2602.6,108.6 -2594,127.5 -2603.5,109.2 -2595.1,128.1 
		-2606.8,110.9 	"/>
	<path class="st1" d="M-2648.1,118.4c0,0-3.4-6-4-8s4,9.8,4,9.8l-6.5-11.2l6.2,13.7l-7.8-13.9l7.1,15.4l-8.8-15.9l8,17.1l-9.6-17
		l8.3,18.2l-9.5-17.6"/>
	<polyline class="st1" points="-2654.4,128.6 -2663.9,110.4 -2655.6,129 -2665.2,110.8 -2656.9,129.3 -2666.3,111.9 -2658.7,129.6 
		-2667.1,113 -2660.6,129.4 -2667.6,114.7 -2662.7,128.7 -2668.2,116.3 -2664.8,127 -2668.5,118.6 -2667,124.9 	"/>
	<polyline class="st1" points="-2660.9,109.2 -2652.3,127.8 -2663.4,110.2 	"/>
</g>
<g>
	<path class="st1" d="M-1603.9,138.4l-5.9-2.7c0,0-8.7-7.4-11.7-7.3s-4.1,0.6-3.3,4.5s9.3,6.8,9.3,6.8l3.8,4.1c0,0,0.8,6,4.8,8.3"/>
	<path class="st1" d="M-1612.1,127.9l5.1,0.5c0,0,3.5,0.7,5.1,3.9c1.6,3.2,5.1,8.4,6.5,9.9s10.6,8.9,10.6,8.9l3.3,1.3"/>
	<path class="st1" d="M-1625,141.1c0,0-0.1,5.1,0,5.3s0.2,1.5,1.4,1.8c1.2,0.3,2.7,0,3-2.2s-0.1-2.9-0.1-2.9l1.6-1.8l4-0.9"/>
	<path class="st1" d="M-1623.7,148.8c0,0-0.6,2.5,0.7,3.5s3.3-1.8,3.3-1.8l0.6-2.7l1.3-1.6l2.2-0.9"/>
	<path class="st1" d="M-1621.4,152.9c0,0,0.1,1.9,2,1.4c1.8-0.6,2.7-2.6,2.7-2.6l0.5-1.8l1-1.2"/>
	<path class="st1" d="M-1616.3,151.6l6.6,5.5c0,0,3.8,3.7,11.1,4.9c6.4,2.9,12.3,7.3,12.3,7.3"/>
	<path class="st1" d="M-1621,137.3l-6.7,0.1c0,0-3.8-4.9-4.5-15.7s-1.9-28.8-1.9-28.8l18.5-1.6l3.3,36.3l0.9,6.8"/>
	<path class="st1" d="M-1631.6,109.2c0,0,2.4-4.9,8-4.9s8,3.3,8,3.3"/>
	<path class="st1" d="M-1630.1,117.5c0,0,2.5,3.5,7.3,2.9c4.8-0.7,7.9-4.8,7.9-4.8"/>
	<path class="st1" d="M-1626.9,98.7c0,0,0.2-1.6,1.9-2.1s2.7,1.5,2.7,1.5s0.6,3.4-2.9,3"/>
	<line class="st1" x1="-1619.7" y1="124.1" x2="-1624.5" y2="124.4"/>
	<path class="st1" d="M-1623.6,127.9c0,0-0.5-2,1.8-2.4c2.3-0.4,2.4,1.6,2.1,2.4"/>
	<line class="st1" x1="-1621.4" y1="112.1" x2="-1621.4" y2="112.7"/>
	<line class="st1" x1="-1621" y1="115.6" x2="-1621" y2="116.4"/>
	<path class="st1" d="M-1629.9,117.3l0.9,0l3.3,0.6l3.3-0.7l3.1-0.8l2.6-1.8c0,0,0.4-1.8,0.3-3c0-1.3-1.6-3-1.6-3s-2.6,0.8-4.7,0.5
		c-2.1-0.3-4.3-0.2-4.3-0.2l-2.1,0"/>
	<path class="st1" d="M-1604.2,108.2"/>
	<path class="st1" d="M-1627.3,105.3c0,0,1.9,0.3,2.3,0.3s2.3,0.1,2.5,0.3c0.2,0.2,1.8,0.9,1.9,1c0.2,0.2,1.1,0.6,1.3,0.7
		c0.2,0.1,1,0.6,1,0.6"/>
	<polyline class="st1" points="-1628.7,109 -1627.3,105.8 -1627.3,108.3 -1625.8,105.9 -1625.8,109 -1623.6,106.4 -1623.1,109.2 
		-1621.4,107 -1621.2,109.2 -1619.7,107.9 	"/>
	<path class="st1" d="M-1626.1,109.6c0,0-3.1,1.9-3.3,3.6c-0.2,1.7-0.1,4.1,3,4.7"/>
	<path class="st1" d="M-1624,113.7c-0.2,1.3,0.1,0.9,0.1,0.9"/>
	<path class="st1" d="M-1631,131.4c-3.5-5.3-8-38.6-8-38.6l12.9-2.7l3.3-0.4l0,2.3"/>
	<path class="st1" d="M-1639,93.8l-7.6,2.7c0,0,14.3,34.6,17.1,38"/>
	<path class="st1" d="M-1646.9,97.5l-4.4,2.2c0,0,19.3,35.9,23.2,40c1.2-0.5,2.4-2.3,2.4-2.3"/>
	<polyline class="st1" points="-1651.7,100.3 -1659.6,108.2 -1632.4,133.4 	"/>
	<polyline class="st1" points="-1659.4,109.2 -1661.1,111.3 -1630.9,136.7 	"/>
	<polyline class="st1" points="-1661.1,112.1 -1663.6,116 -1630.9,138.7 -1626.1,141.4 -1623.6,140.2 -1622.1,140.4 -1620.1,137.5 	
		"/>
	<line class="st1" x1="-1626.1" y1="138.4" x2="-1623.6" y2="140.2"/>
	<path class="st1" d="M-1749.6,80.7l11.9,8.1l12.7,8.6c0,0,15.3,0.1,16.6-0.6c1.3-0.6,4.8-0.9,7.4,1.9c2.6,2.9,18.3,11.7,18.3,11.7
		l3.1,3.1c0,0,1.1,0.3,0.8,1.6c-0.3,1.3-1,3.2-2.1,2.8"/>
	<path class="st1" d="M-1682.6,111.4c0,0-1.4,0.3-1.3,1.1c0.1,0.8,0.5,3,4.4,3.3"/>
	<path class="st1" d="M-1713.2,106c0,0,0.3,1.3,1.8,1.8s8.2,0.4,8.2,0.4l5,0.8l7.9,4l1.6,2.1"/>
	<path class="st1" d="M-1678.5,115.3l3,2.3c0,0,3.4,1.6,3,3.2"/>
	<path class="st1" d="M-1751.3,99.4c0,0,4.4,2.4,7,3.9c2.7,1.5,6.1,4,6.1,4l3.4,3l4.4,4.1c0,0,5.3,4.1,7.3,4.6
		c1.9,0.5,5.8,2.4,7.5,3.1c1.7,0.8,8.7,4.2,11.9,8.1c2,2.5,3.5-1.1,3.5-1.1s1-4.3-3-7.6c-4-3.4-5.3-4.1-7.6-5
		c-2.3-0.9-4.6-6.4-4.6-6.4"/>
	<path class="st1" d="M-1712.9,114.2c0,0,0.6-1.9,0.6-3.1"/>
	<path class="st1" d="M-1706.2,127.4c0,0,1.4-3.5,4,0.5"/>
	<path class="st1" d="M-1749.6,145.6l6.8-1.8c0,0,5.3-4.3,14.5-2.9c9.1-0.9,17.2-5.1,17.2-5.1l3.7-1.9c0,0,3,1.6,2.1,4s-2,4.6-6.2,6
		c-4.2,1.5-11,4.1-11,4.1"/>
	<path class="st1" d="M-1722.1,148.3l1.9,0.9c0,0,3.8-1.1,6-0.4c2.5-1.5,5.3-2.3,5.3-2.3"/>
	<path class="st1" d="M-1748.6,161.1l5.9-2.3c0,0,12.5,2.8,15.1,4.7c2.7,1.9,7.5,3.1,8.5,2.7c0.9-0.4,6.7-1.6,6.7-1.6l9.7-2.5
		l13-3.3"/>
	<path class="st1" d="M-1710.8,164.4c0,0,3.3,1.1,6.6,0.5c3.3-0.5,8-2,8-2l10.6-2.6"/>
	<path class="st1" d="M-1722.3,154.3l9.4,2c0,0,3.8-0.9,7.1,0c2.8-0.2,6.3-1.4,6.3-1.4"/>
	<path class="st1" d="M-1711.7,152.7c0,0,2.6-1.4,3.4-1.6"/>
	<polyline class="st1" points="-1707,151.1 -1693.2,113.3 -1654.5,128.8 -1670.3,166 -1707.3,151.5 -1708.9,149.4 -1707.8,147.2 
		-1710,144.8 -1709.4,143 	"/>
	<line class="st1" x1="-1705.9" y1="135" x2="-1704.2" y2="130.7"/>
	<path class="st1" d="M-1701.2,123.4l3.2-8.4l-2.1-2.6c0,0-2.5-0.2-4.7-0.3c-2.3-0.1-2.2-2.3-3.4-1.6s-4.4,0.3-4.4,0.3"/>
	<path class="st1" d="M-1693.8,114.2c0,0-3.6-0.7-4.6,0.3"/>
</g>
</svg>
