<?xml version="1.0" encoding="utf-8"?>
<!-- Generator: Adobe Illustrator 16.2.0, SVG Export Plug-In . SVG Version: 6.00 Build 0)  -->
<!DOCTYPE svg PUBLIC "-//W3C//DTD SVG 1.1//EN" "http://www.w3.org/Graphics/SVG/1.1/DTD/svg11.dtd">
<svg version="1.1" id="Layer_1" xmlns="http://www.w3.org/2000/svg" xmlns:xlink="http://www.w3.org/1999/xlink" x="0px" y="0px"
	 width="173px" height="170px" viewBox="0 0 173 170" enable-background="new 0 0 173 170" xml:space="preserve">
<g>
	<g>
		<g>
			<g>
				<path fill="none" stroke="#000000" stroke-miterlimit="10" d="M167.568,170.11c0,0-6-22-19-27s-24-4-37-8s-30-17-30-17s-3-4-2-5
					s10,1,12,4s20,5,29,5"/>
				<path fill="none" stroke="#000000" stroke-miterlimit="10" d="M102.568,120.11c0,0-3-5,7-4s16,1,27,1c11.18,0,36,26,38,31"/>
			</g>
			<g>
				<path fill="none" stroke="#000000" stroke-miterlimit="10" d="M-2.432,17.11c0,0,19,2,30,1s29.197-4.011,34-7c5-3.11,24-10,25-9
					s4,5-4,10s-11,3-11,3s11.902,1.114,17,1c5-0.11,18-1.11,22-0.11s7,2.11,5,5.11s-10,3.89-20,3.89"/>
				<path fill="none" stroke="#000000" stroke-miterlimit="10" d="M80.568,52.11c-6.347-5.221-21.766-16.363-27-12c-6,5,0,21,11,31
					s4,16,3,17s-16-17-25-22c0,0-34-18-32-24"/>
				<path fill="none" stroke="#000000" stroke-miterlimit="10" d="M80.568,21.11c0,0,13,3,24,8c5.801,2.637,9.654,4.996,12.002,6.93
					c2.104,1.734,0.531,5.199-3.002,4.957c-5.179-0.355-12.649-1.915-18-4.887c-9-5-17-6-21-6s9,3,16,14"/>
			</g>
		</g>
		<g>
			<path fill="none" stroke="#000000" stroke-miterlimit="10" d="M58.568,88.11c-12-1-17-8-17-8c-3,1-8-2-8-3s1-5,1-5s-18-3-23-4
				s-8-1-9-5s1-6,4-5s23,6,23,6s7,1,10,1"/>
			<path fill="none" stroke="#000000" stroke-miterlimit="10" d="M59.568,88.11c0,0-2,4.462,1,6.462s2-0.462,6-3.462
				c2-1,3,1.462,5,2.462c0,0,3,0.538,5-6.462c0,0,20-8,24-22c3-9,5-7,5-7h5l-4-6c0,0-8-17-22-4s-22,14-27,15"/>
			<g>
				<line fill="none" stroke="#000000" stroke-miterlimit="10" x1="63.293" y1="94.462" x2="72.164" y2="108.11"/>
				<polyline fill="none" stroke="#000000" stroke-miterlimit="10" points="75.568,106.924 69.29,103.239 65.386,106.362 				"/>
			</g>
			<g>
				<line fill="none" stroke="#000000" stroke-miterlimit="10" x1="72.568" y1="93.11" x2="84.568" y2="104.11"/>
				<polyline fill="none" stroke="#000000" stroke-miterlimit="10" points="87.568,102.11 80.568,100.11 77.568,104.11 				"/>
			</g>
		</g>
		<path fill="none" stroke="#000000" stroke-miterlimit="10" d="M90.568,44.11"/>
	</g>
	<circle fill="none" stroke="#000000" stroke-miterlimit="10" cx="94.568" cy="50.11" r="1"/>
</g>
</svg>
