<?xml version="1.0" encoding="utf-8"?>
<!-- Generator: Adobe Illustrator 16.2.0, SVG Export Plug-In . SVG Version: 6.00 Build 0)  -->
<!DOCTYPE svg PUBLIC "-//W3C//DTD SVG 1.1//EN" "http://www.w3.org/Graphics/SVG/1.1/DTD/svg11.dtd">
<svg version="1.1" id="Layer_1" xmlns="http://www.w3.org/2000/svg" xmlns:xlink="http://www.w3.org/1999/xlink" x="0px" y="0px"
	 width="173px" height="177px" viewBox="0 0 173 177" enable-background="new 0 0 173 177" xml:space="preserve">
<g>
	<path fill="none" stroke="#000000" stroke-miterlimit="10" d="M89.568,26c0,0,7,3,9,27c5,18,11,22,13,27c1,3,0,5-2,6s-11,1-18-13
		s-14-17-14-17"/>
	<path fill="none" stroke="#000000" stroke-miterlimit="10" d="M101.568,0c0,0-9,22-11,26"/>
	<path fill="none" stroke="#000000" stroke-miterlimit="10" d="M70.568,0c0,0-6,25-7,42s-3,67,1,77c2,5,2,6,4,6s3-2,4-5
		c0-5,1-23,1-24s2-8,2-12"/>
	<path fill="none" stroke="#000000" stroke-miterlimit="10" d="M73.568,103c0,0,7,18,12,22c2,2,3,2,4,1s3-4,1-8s-6-13-7-17
		s-2-14-3-15"/>
	<path fill="none" stroke="#000000" stroke-miterlimit="10" d="M86.568,83c0,0,3,9,3,10s10,17,10,19s2,6-2,7
		c-1.818,0.455-3.65-3.089-4.976-5.002c-0.675-0.973-1.35-1.985-2.024-2.998c-2-3-6-8-7-9"/>
	<path fill="none" stroke="#000000" stroke-miterlimit="10" d="M94.568,79l1,6c0,0,9,14,6,20c-1,2-3.246-1.369-5-4c-2-3-6-8-7-11"/>
	<path fill="none" stroke="#000000" stroke-miterlimit="10" d="M130.568,176.5c-2-2-12-16.25-16-24.25s-13-34.25-13-34.25
		s-3-10-6-10s-3-3-5-7s-4-9-6-10s-4-12-7-10s-1,2.005-7,2.005s-8-4.003-9-9.003c-2,10-5,25.999-9,38.999s-6,16.25-8,31.25
		s-20,30.25-24,32.25H130.568z"/>
	<path fill="none" stroke="#000000" stroke-miterlimit="10" d="M56.568,122l-3.612,25c0,0-2.168-5-1.445-12s3.611-16,4.334-19
		C56.568,113,56.568,122,56.568,122z"/>
	<path fill="none" stroke="#000000" stroke-miterlimit="10" d="M98.568,129.612L99.074,143c0,0,2.86-2,2.495-9
		s-2.271-7.388-2.636-10.388S98.568,129.612,98.568,129.612z"/>
	<path fill="none" stroke="#000000" stroke-miterlimit="10" d="M80.568,154l-6,4c0,0-7.777,0-4-7c3.778-7,3.222-2,7-5
		C81.346,143,80.568,154,80.568,154z"/>
	<path fill="none" stroke="#000000" stroke-miterlimit="10" d="M98.172,156.917l1,6c0,0-13.103,1-8.722-7.118
		c4.382-8.118,3.155-8.381,8.118-5.798C104.172,152.917,98.172,156.917,98.172,156.917z"/>
	<path fill="none" stroke="#000000" stroke-miterlimit="10" d="M90.568,148l0.299,1.792c0,0-3.912,0.299-2.604-2.126
		c1.309-2.424,0.942-2.502,2.425-1.731C92.36,146.806,90.568,148,90.568,148z"/>
	<path fill="none" stroke="#000000" stroke-miterlimit="10" d="M109.166,163.307l2.402,3.693c0,0,5.276-1.593-1.313-5.55
		c-6.593-3.958-6.009-4.336-7.616-1.926C100.826,162.242,109.166,163.307,109.166,163.307z"/>
	<path fill="none" stroke="#000000" stroke-miterlimit="10" d="M66.568,94c0,0-1,4.965,0,8.687c1,3.724,3,0,3-1.241
		S70.568,98.965,66.568,94z"/>
	<path fill="none" stroke="#000000" stroke-miterlimit="10" d="M30.568,174c1-2,7-1,10-1s2-3,1-5s-1,0-3,0s-6,4-4,3"/>
	<path fill="none" stroke="#000000" stroke-miterlimit="10" d="M52.568,166c0,0,1-10,2-13s8-19,7-21s-6-7-1-5s7,11,9,9s7-4,7-4
		s-6,6-7,9s-3-1-4,3s-1,11,0,16s-4,12-6,12s-6-2-7-2s-4-2-5-1s-6-6-6-7s1-7,3-3s5,8,5,8l2-2"/>
	<path fill="none" stroke="#000000" stroke-miterlimit="10" d="M84.568,168c0,0,2,4,3,4s4-1,4-1s5-1,1-2s-7-4-7-2s-2,1-2,1"/>
	<path fill="none" stroke="#000000" stroke-miterlimit="10" d="M117.568,173c0,0-3-3-5-2s-3,0-4,1s-3,2-2,2S117.568,173,117.568,173
		z"/>
	<path fill="none" stroke="#000000" stroke-miterlimit="10" d="M109.568,141c0,0-4,3-3,5s2,2,2,3s2,1,3,2s2,1,2,2s-4-7-4-7
		S108.568,142,109.568,141z"/>
	<path fill="none" stroke="#000000" stroke-miterlimit="10" d="M43.568,152c0,0,3-5,3-6s0-4,0-5s1-7,2-7s-1-5-1-5"/>
	<path fill="none" stroke="#000000" stroke-miterlimit="10" d="M27.568,172c0,0-1,1-2,2s-1,2-1,2"/>
	<path fill="none" stroke="#000000" stroke-miterlimit="10" d="M120.568,164c0,0-1,4,0,5s2,2,2,3s2,1,1,2s0,2,0,2"/>
	<polyline fill="none" stroke="#000000" stroke-miterlimit="10" points="127.568,173 126.568,175 126.568,176 	"/>
	<path fill="none" stroke="#000000" stroke-miterlimit="10" d="M72.568,176c0,0,0-3.196,1-4.795c1-1.598,0-3.196,2-3.196
		s2-4.794,3-1.598c1,3.196,3,4.794,3,6.393c0,1.598-5,1.598-5,1.598V176"/>
</g>
</svg>
