<?xml version="1.0" encoding="utf-8"?>
<!-- Generator: Adobe Illustrator 16.2.0, SVG Export Plug-In . SVG Version: 6.00 Build 0)  -->
<!DOCTYPE svg PUBLIC "-//W3C//DTD SVG 1.1//EN" "http://www.w3.org/Graphics/SVG/1.1/DTD/svg11.dtd">
<svg version="1.1" id="Layer_1" xmlns="http://www.w3.org/2000/svg" xmlns:xlink="http://www.w3.org/1999/xlink" x="0px" y="0px"
	 width="173px" height="177px" viewBox="0 0 173 177" enable-background="new 0 0 173 177" xml:space="preserve">
<g>
	<g>
		<g>
			<circle fill="none" stroke="#000000" stroke-miterlimit="10" cx="58.516" cy="118.053" r="3.948"/>
			<path d="M60.096,118.053c0,0.872-0.707,1.58-1.58,1.58c-0.871,0-1.578-0.708-1.578-1.58c0-0.871,0.707-1.579,1.578-1.579
				C59.389,116.474,60.096,117.182,60.096,118.053"/>
		</g>
		<circle fill="none" stroke="#000000" stroke-miterlimit="10" cx="31.998" cy="114.356" r="8.487"/>
		<circle fill="none" stroke="#000000" stroke-miterlimit="10" cx="60.024" cy="113.566" r="8.487"/>
		<g>
			<path fill="none" stroke="#000000" stroke-miterlimit="10" d="M37.857,119.145c0,2.29-1.855,4.146-4.145,4.146
				s-4.145-1.855-4.145-4.146c0-2.286,1.855-4.145,4.145-4.145S37.857,116.858,37.857,119.145z"/>
			<path d="M35.489,118.948c0,0.873-0.708,1.579-1.579,1.579c-0.873,0-1.58-0.707-1.58-1.579c0-0.872,0.707-1.579,1.58-1.579
				C34.781,117.369,35.489,118.076,35.489,118.948"/>
		</g>
		<path fill="none" stroke="#000000" stroke-miterlimit="10" d="M39.517,102.905c0,0-7.828-5.58-15.948,1.095"/>
		<path fill="none" stroke="#000000" stroke-miterlimit="10" d="M53.511,95.186c0,0,9.08-3.157,15.001,5.527"/>
		<path fill="none" stroke="#000000" stroke-miterlimit="10" d="M42.27,124.05c0,0,4.488-4.798,8.368,0.324"/>
		<path fill="none" stroke="#000000" stroke-miterlimit="10" d="M78.568,131c-5.574,11.241-18.544,19.478-32.558,19.478
			c-19.84,0-37.107-14.11-37.107-33.949C8.903,96.688,24.987,81,44.827,81c15.162,0,28.13,8.934,33.402,22"/>
		<path fill="none" stroke="#000000" stroke-miterlimit="10" d="M28.104,146.032c0,0-22.297,6.813-23.536,30.968"/>
		<path fill="none" stroke="#000000" stroke-miterlimit="10" d="M63.407,146.032c0,0,22.297,6.813,23.535,30.968"/>
		<ellipse fill="none" stroke="#000000" stroke-miterlimit="10" cx="45.568" cy="137" rx="9" ry="5"/>
	</g>
	<g>
		<circle fill="none" stroke="#000000" stroke-miterlimit="10" cx="127.517" cy="109.052" r="3.948"/>
		<path d="M129.075,108.792c0.144,0.859-0.438,1.673-1.299,1.818c-0.858,0.143-1.673-0.438-1.816-1.298
			c-0.145-0.859,0.437-1.673,1.296-1.818C128.117,107.351,128.931,107.932,129.075,108.792"/>
		<circle fill="none" stroke="#000000" stroke-miterlimit="10" cx="98.566" cy="116.457" r="8.487"/>
		<circle fill="none" stroke="#000000" stroke-miterlimit="10" cx="126.078" cy="111.054" r="8.487"/>
		<circle fill="none" stroke="#000000" stroke-miterlimit="10" cx="100.423" cy="115.146" r="4.144"/>
		<path d="M102.143,114.659c0.145,0.859-0.438,1.673-1.297,1.818c-0.861,0.144-1.675-0.437-1.818-1.296
			c-0.145-0.86,0.437-1.675,1.297-1.818C101.184,113.219,101.999,113.799,102.143,114.659"/>
		<path fill="none" stroke="#000000" stroke-miterlimit="10" d="M99.686,98.033c0,0-9.476-1.618-13.883,7.927"/>
		<path fill="none" stroke="#000000" stroke-miterlimit="10" d="M116.621,93.999c0,0,8.436-4.611,15.707,2.978"/>
		<path fill="none" stroke="#000000" stroke-miterlimit="10" d="M110.297,124.323c0,0,3.635-5.473,8.307-1.061"/>
		<path fill="none" stroke="#000000" stroke-miterlimit="10" d="M126.223,138.083c-0.654-3.083-14.654-9.083-19.607,3.28"/>
		<path fill="none" stroke="#000000" stroke-miterlimit="10" d="M146.942,110.166c3.273,19.569-9.028,36.332-28.597,39.604
			c-19.567,3.272-38.926-7.794-42.199-27.361c-3.274-19.568,10.002-37.695,29.57-40.969
			C125.283,78.168,143.67,90.599,146.942,110.166z"/>
		<path fill="none" stroke="#000000" stroke-miterlimit="10" d="M99.952,148.341c0,0-9.78,4.874-15.063,15.659"/>
		<path fill="none" stroke="#000000" stroke-miterlimit="10" d="M134.771,142.518c0,0,28.797,0.482,32.797,33.482"/>
	</g>
	<g>
		<circle fill="none" stroke="#000000" stroke-miterlimit="10" cx="61.517" cy="38.948" r="3.947"/>
		<path d="M63.072,38.67c0.153,0.858-0.418,1.679-1.277,1.832c-0.857,0.154-1.679-0.418-1.832-1.276
			c-0.153-0.857,0.418-1.679,1.275-1.833C62.098,37.24,62.918,37.813,63.072,38.67"/>
		<circle fill="none" stroke="#000000" stroke-miterlimit="10" cx="29.634" cy="43.505" r="8.487"/>
		<circle fill="none" stroke="#000000" stroke-miterlimit="10" cx="57.083" cy="37.792" r="8.487"/>
		<path fill="none" stroke="#000000" stroke-miterlimit="10" d="M36.793,44.416c0.403,2.255-1.097,4.408-3.35,4.811
			c-2.253,0.404-4.406-1.096-4.81-3.352c-0.402-2.251,1.097-4.406,3.35-4.808C34.237,40.663,36.391,42.165,36.793,44.416z"/>
		<path d="M34.428,44.64c0.153,0.858-0.419,1.679-1.276,1.832c-0.859,0.154-1.68-0.417-1.834-1.275
			c-0.153-0.858,0.418-1.679,1.277-1.834C33.452,43.21,34.274,43.781,34.428,44.64"/>
		<path fill="none" stroke="#000000" stroke-miterlimit="10" d="M30.546,27.918c0,0-9.493-1.511-13.792,8.082"/>
		<path fill="none" stroke="#000000" stroke-miterlimit="10" d="M47.944,28.125c0,0,4.837-8.308,14.985-5.571"/>
		<path fill="none" stroke="#000000" stroke-miterlimit="10" d="M41.452,51.239c0,0,3.573-5.513,8.295-1.155"/>
		<path fill="none" stroke="#000000" stroke-miterlimit="10" d="M36.677,61.128c0,0,3.506,8.082,13.461,5.647
			c9.955-2.435,11.449-8.052,13.239-10.423"/>
		<path fill="none" stroke="#000000" stroke-miterlimit="10" d="M77.937,36.668c3.493,19.53-8.618,36.431-28.147,39.924
			C30.26,80.087,10.777,69.239,7.283,49.71c-3.494-19.529,9.576-37.806,29.105-41.3S74.442,17.139,77.937,36.668z"/>
		<path fill="none" stroke="#000000" stroke-miterlimit="10" d="M31.38,75.372c0,0-12.812,7.628-15.812,19.628"/>
		<path fill="none" stroke="#000000" stroke-miterlimit="10" d="M66.131,69.155c0,0,16.859,2.894,25.438,16.845"/>
	</g>
	<g>
		<circle fill="none" stroke="#000000" stroke-miterlimit="10" cx="128.736" cy="34.813" r="3.948"/>
		<path d="M130.296,35.066c-0.14,0.861-0.951,1.445-1.813,1.304c-0.86-0.14-1.443-0.951-1.304-1.81
			c0.139-0.861,0.951-1.446,1.811-1.306C129.852,33.394,130.436,34.206,130.296,35.066"/>
		<circle fill="none" stroke="#000000" stroke-miterlimit="10" cx="103.32" cy="32.481" r="8.487"/>
		<path fill="none" stroke="#000000" stroke-miterlimit="10" d="M139.488,37.558c-0.753,4.627-5.112,7.769-9.738,7.017
			c-4.627-0.752-7.769-5.112-7.017-9.74c0.752-4.624,5.112-7.767,9.738-7.015C137.1,28.573,140.239,32.934,139.488,37.558z"/>
		<circle fill="none" stroke="#000000" stroke-miterlimit="10" cx="106.564" cy="32.208" r="4.144"/>
		<path d="M108.349,32.3c-0.14,0.86-0.952,1.444-1.812,1.305c-0.862-0.14-1.446-0.951-1.307-1.813s0.951-1.444,1.813-1.305
			C107.902,30.627,108.488,31.438,108.349,32.3"/>
		<path fill="none" stroke="#000000" stroke-miterlimit="10" d="M111.568,22c0,0-5.476-7.9-15.377-4.371"/>
		<path fill="none" stroke="#000000" stroke-miterlimit="10" d="M125.924,25c0,0,6.015-7.5,15.645-3.292"/>
		<path fill="none" stroke="#000000" stroke-miterlimit="10" d="M111.904,43.697c0,0,5.2-4.016,8.208,1.662"/>
		<path fill="none" stroke="#000000" stroke-miterlimit="10" d="M125.87,61.161c0,0-21.223-1.667-24.84-5.591
			C97.413,51.648,115.907,45.446,125.87,61.161z"/>
		<path fill="none" stroke="#000000" stroke-miterlimit="10" d="M151.156,42.055c-3.183,19.582-20.215,31.508-39.799,28.326
			c-19.582-3.182-34.362-19.878-31.181-39.46s21.574-32.489,41.158-29.306C140.916,4.797,154.338,22.473,151.156,42.055z"/>
		<path fill="none" stroke="#000000" stroke-miterlimit="10" d="M94.396,63.123c0,0-10.258-0.422-18.828,8.877"/>
		<path fill="none" stroke="#000000" stroke-miterlimit="10" d="M129.243,68.786c0,0,18.978,12.174,16.325,36.214"/>
	</g>
</g>
</svg>
