<?xml version="1.0" encoding="utf-8"?>
<!-- Generator: Adobe Illustrator 16.2.0, SVG Export Plug-In . SVG Version: 6.00 Build 0)  -->
<!DOCTYPE svg PUBLIC "-//W3C//DTD SVG 1.1//EN" "http://www.w3.org/Graphics/SVG/1.1/DTD/svg11.dtd">
<svg version="1.1" id="Layer_1" xmlns="http://www.w3.org/2000/svg" xmlns:xlink="http://www.w3.org/1999/xlink" x="0px" y="0px"
	 width="173px" height="149px" viewBox="0 0 173 149" enable-background="new 0 0 173 149" xml:space="preserve">
<g>
	<g>
		<path fill="none" stroke="#000000" stroke-miterlimit="10" d="M76.025,13.56c-2.011,1.766-3.434,6.084-3.434,10.702
			c0,6.028,2.423,6.798,5.412,6.798c2.99,0,5.414-0.77,5.414-6.798c0-4.635-1.433-8.965-3.455-10.719"/>
		<polyline fill="none" stroke="#000000" stroke-miterlimit="10" points="81.068,31 81.068,43.5 81.568,43.5 		"/>
		<polyline fill="none" stroke="#000000" stroke-miterlimit="10" points="75.068,31 75.068,43.5 74.568,43.5 		"/>
		<path fill="none" stroke="#000000" stroke-miterlimit="10" d="M82.57,17.815c0,0,3.212,5.899,4.494,11.125"/>
		<path fill="none" stroke="#000000" stroke-miterlimit="10" d="M73.787,17.815c0,0-3.214,5.899-4.495,11.125"/>
		<path fill="none" stroke="#000000" stroke-miterlimit="10" d="M71.898,7.261c0,3.784,2.527,6.55,5.894,6.55
			s6.296-2.69,6.296-6.476c0-3.782-2.729-6.776-6.096-6.776C74.627,0.559,71.898,3.476,71.898,7.261z"/>
	</g>
	<path fill="none" stroke="#000000" stroke-miterlimit="10" d="M0.568,45l98-2c0,0,3,100-1,104"/>
	<g>
		<line fill="none" stroke="#000000" stroke-miterlimit="10" x1="116.568" y1="143" x2="117.568" y2="128"/>
		<line fill="none" stroke="#000000" stroke-miterlimit="10" x1="113.568" y1="132" x2="120.568" y2="133"/>
	</g>
	<g>
		<line fill="none" stroke="#000000" stroke-miterlimit="10" x1="128.568" y1="143" x2="129.901" y2="123"/>
		<line fill="none" stroke="#000000" stroke-miterlimit="10" x1="124.568" y1="128.333" x2="133.901" y2="129.667"/>
	</g>
	<g>
		<line fill="none" stroke="#000000" stroke-miterlimit="10" x1="141.283" y1="144" x2="142.188" y2="130.429"/>
		<line fill="none" stroke="#000000" stroke-miterlimit="10" x1="138.568" y1="134.048" x2="144.901" y2="134.953"/>
	</g>
	<g>
		<line fill="none" stroke="#000000" stroke-miterlimit="10" x1="151.093" y1="139.286" x2="151.711" y2="130"/>
		<line fill="none" stroke="#000000" stroke-miterlimit="10" x1="149.235" y1="132.476" x2="153.568" y2="133.095"/>
	</g>
	<g>
		<line fill="none" stroke="#000000" stroke-miterlimit="10" x1="105.568" y1="145" x2="106.568" y2="130"/>
		<line fill="none" stroke="#000000" stroke-miterlimit="10" x1="102.568" y1="134" x2="109.568" y2="135"/>
	</g>
	<path fill="none" stroke="#000000" stroke-miterlimit="10" d="M98.568,143c0,0,7,3,10,2s9-3,11-3s4-1,5-1s7,3,8,2s4-2,5-2s3,3,6,3"
		/>
	<path fill="none" stroke="#000000" stroke-miterlimit="10" d="M142.568,144c0,0,15-6,11-5c0,0,7,1,12,1s8-2,8-2"/>
</g>
</svg>
