<?xml version="1.0" encoding="utf-8"?>
<!-- Generator: Adobe Illustrator 16.2.0, SVG Export Plug-In . SVG Version: 6.00 Build 0)  -->
<!DOCTYPE svg PUBLIC "-//W3C//DTD SVG 1.1//EN" "http://www.w3.org/Graphics/SVG/1.1/DTD/svg11.dtd">
<svg version="1.1" id="Layer_1" xmlns="http://www.w3.org/2000/svg" xmlns:xlink="http://www.w3.org/1999/xlink" x="0px" y="0px"
	 width="173px" height="159px" viewBox="0 0 173 159" enable-background="new 0 0 173 159" xml:space="preserve">
<g>
	<path fill="none" stroke="#000000" stroke-miterlimit="10" d="M97.662,42.223c0,0,6.375-10.399,14.658-4.286
		c8.284,6.118,5.059,8.685,3.078,13.985"/>
	<line fill="none" stroke="#000000" stroke-miterlimit="10" x1="105.391" y1="35.538" x2="99.252" y2="7.593"/>
	<circle fill="none" stroke="#000000" stroke-miterlimit="10" cx="98.298" cy="4.767" r="3"/>
	<line fill="none" stroke="#000000" stroke-miterlimit="10" x1="116.977" y1="42.54" x2="144.39" y2="33.507"/>
	<circle fill="none" stroke="#000000" stroke-miterlimit="10" cx="146.081" cy="32.44" r="2.999"/>
	<path fill="none" stroke="#000000" stroke-miterlimit="10" d="M118.002,105.165c-12.403,22.174-23.331,39.658-56.494,21.104
		c-33.164-18.55-23.981-37.012-11.578-59.184c12.402-22.171,37.697-31.621,56.494-21.104
		C125.221,56.495,130.404,82.993,118.002,105.165z"/>
	<path fill="none" stroke="#000000" stroke-miterlimit="10" d="M106.022,50.338c0,0-42.062,66.992-41.499,74.182"/>
	<path fill="none" stroke="#000000" stroke-miterlimit="10" d="M117.531,67.09c0,0-13.683-4.217-16.611,1.019
		c-2.931,5.236,7.231,17.796,9.361,20.134c2.13,2.336,9.186,14.304,1.507,15.738c-7.677,1.436-23.696-0.651-23.696-0.651
		s-4.364-2.441-6.806,1.921c-2.441,4.364,12.677,16.26,10.235,20.622c-2.441,4.364-15.637-0.725-15.637-0.725"/>
	<path fill="none" stroke="#000000" stroke-miterlimit="10" d="M83.195,47.882c0,0,10.754,9.452,7.824,14.688
		c-2.929,5.237-18.95,3.15-22.056,2.558c-3.106-0.593-16.997-0.342-14.201,6.952c2.795,7.293,12.956,19.853,12.956,19.853
		s4.364,2.44,1.923,6.804c-2.44,4.364-20.488-2.294-22.929,2.07c-2.441,4.363,8.801,12.943,8.801,12.943"/>
	<path fill="none" stroke="#000000" stroke-miterlimit="10" d="M124.645,72.808c0,0,12.866-9.975,26.471-0.544"/>
	<path fill="none" stroke="#000000" stroke-miterlimit="10" d="M123.092,91.971c0,0,15.459-5.102,25.131,8.332"/>
	<path fill="none" stroke="#000000" stroke-miterlimit="10" d="M117.001,108.351c0,0,16.18,1.789,19.393,18.027"/>
	<path fill="none" stroke="#000000" stroke-miterlimit="10" d="M106.204,123.348c0,0,14.78,6.822,12.687,23.241"/>
	<path fill="none" stroke="#000000" stroke-miterlimit="10" d="M92.193,132.359c0,0,12.819,10.03,7.01,25.532"/>
	<path fill="none" stroke="#000000" stroke-miterlimit="10" d="M74.382,44.69c0,0,1.769-16.184-13.386-22.843"/>
	<path fill="none" stroke="#000000" stroke-miterlimit="10" d="M58.865,56.041c0,0-3.741-15.842-20.25-17.057"/>
	<path fill="none" stroke="#000000" stroke-miterlimit="10" d="M48.094,69.803c0,0-9.99-12.852-25.509-7.094"/>
	<path fill="none" stroke="#000000" stroke-miterlimit="10" d="M40.963,86.851c0,0-13.546-9.027-26.442,1.349"/>
	<path fill="none" stroke="#000000" stroke-miterlimit="10" d="M40.615,103.506c0,0-15.256-5.676-25.426,7.387"/>
</g>
</svg>
