<?xml version="1.0" encoding="utf-8"?>
<!-- Generator: Adobe Illustrator 16.2.0, SVG Export Plug-In . SVG Version: 6.00 Build 0)  -->
<!DOCTYPE svg PUBLIC "-//W3C//DTD SVG 1.1//EN" "http://www.w3.org/Graphics/SVG/1.1/DTD/svg11.dtd">
<svg version="1.1" id="Layer_1" xmlns="http://www.w3.org/2000/svg" xmlns:xlink="http://www.w3.org/1999/xlink" x="0px" y="0px"
	 width="173px" height="141px" viewBox="0 0 173 141" enable-background="new 0 0 173 141" xml:space="preserve">
<g>
	<path fill="none" stroke="#000000" stroke-miterlimit="10" d="M52.831,64.482c0,0,0.436,7.051-9.1,3.507
		c-9.534-3.546-8.786-10.155-8.786-10.155l0.229-9.999l17.886,6.649L52.831,64.482z"/>
	<line fill="none" stroke="#000000" stroke-miterlimit="10" x1="43.029" y1="81.306" x2="43.316" y2="68.691"/>
	<line fill="none" stroke="#000000" stroke-miterlimit="10" x1="34.502" y1="77.272" x2="52.387" y2="83.924"/>
	<polygon fill="none" stroke="#000000" stroke-miterlimit="10" points="158.616,18.972 61.616,39.573 61.616,139.826 
		158.616,104.119 	"/>
	<line fill="none" stroke="#000000" stroke-miterlimit="10" x1="159.116" y1="29.958" x2="60.983" y2="50.558"/>
	<polygon fill="none" stroke="#000000" stroke-miterlimit="10" points="4.616,18.972 61.616,39.573 61.616,139.826 4.616,108.239 	
		"/>
	<line fill="none" stroke="#000000" stroke-miterlimit="10" x1="5.303" y1="27.958" x2="60.982" y2="50.558"/>
	<polyline fill="none" stroke="#000000" stroke-miterlimit="10" points="4.616,18.972 101.437,1.119 157.743,17.599 	"/>
	<line fill="none" stroke="#000000" stroke-miterlimit="10" x1="100.616" y1="0.892" x2="100.616" y2="30.892"/>
</g>
</svg>
