<?xml version="1.0" encoding="utf-8"?>
<!-- Generator: Adobe Illustrator 16.2.0, SVG Export Plug-In . SVG Version: 6.00 Build 0)  -->
<!DOCTYPE svg PUBLIC "-//W3C//DTD SVG 1.1//EN" "http://www.w3.org/Graphics/SVG/1.1/DTD/svg11.dtd">
<svg version="1.1" id="Layer_1" xmlns="http://www.w3.org/2000/svg" xmlns:xlink="http://www.w3.org/1999/xlink" x="0px" y="0px"
	 width="173px" height="146px" viewBox="0 0 173 146" enable-background="new 0 0 173 146" xml:space="preserve">
<g>
	<circle fill="none" stroke="#000000" stroke-miterlimit="10" cx="83.201" cy="48.347" r="5.978"/>
	<path d="M85.592,48.347c0,1.321-1.07,2.394-2.391,2.394s-2.391-1.073-2.391-2.394c0-1.318,1.07-2.391,2.391-2.391
		S85.592,47.029,85.592,48.347"/>
	<path fill="none" stroke="#000000" stroke-miterlimit="10" d="M57.499,51.037c0,7.098-5.754,12.852-12.85,12.852
		c-7.099,0-12.852-5.754-12.852-12.852c0-7.094,5.753-12.85,12.852-12.85C51.745,38.188,57.499,43.943,57.499,51.037z"/>
	<circle fill="none" stroke="#000000" stroke-miterlimit="10" cx="87.086" cy="49.842" r="12.851"/>
	<path fill="none" stroke="#000000" stroke-miterlimit="10" d="M55.706,49.842c0,3.468-2.812,6.277-6.276,6.277
		c-3.467,0-6.275-2.81-6.275-6.277c0-3.464,2.809-6.273,6.275-6.273C52.895,43.568,55.706,46.378,55.706,49.842z"/>
	<path d="M52.119,49.543c0,1.322-1.07,2.391-2.391,2.391s-2.392-1.069-2.392-2.391c0-1.32,1.071-2.39,2.392-2.39
		S52.119,48.223,52.119,49.543"/>
	<path fill="none" stroke="#000000" stroke-miterlimit="10" d="M50.924,23.804c0,0-13.748-4.782-22.713,8.369"/>
	<path fill="none" stroke="#000000" stroke-miterlimit="10" d="M77.224,22.011c0,0,13.748-4.782,22.714,8.368"/>
	<path fill="none" stroke="#000000" stroke-miterlimit="10" d="M60.203,65.716c0,0,6.795-7.267,12.668,0.49"/>
	<path fill="none" stroke="#000000" stroke-miterlimit="10" d="M118.467,53.728c0,30.042-22.56,52.002-52.6,52.002
		S9.681,84.367,9.681,54.326c0-30.041,24.354-53.795,54.394-53.795S118.467,23.688,118.467,53.728z"/>
	<path fill="none" stroke="#000000" stroke-miterlimit="10" d="M48.131,80.245c0,0,17.818,11.253,37.512-3.752"/>
	<path fill="none" stroke="#000000" stroke-miterlimit="10" d="M38.753,99.001c0,0-33.761,10.314-35.638,46.891"/>
	<path fill="none" stroke="#000000" stroke-miterlimit="10" d="M92.208,99.001c0,0,33.761,10.314,35.637,46.891"/>
	<path fill="none" stroke="#000000" stroke-miterlimit="10" d="M117.974,117.588c0,0,19.937-2.736,33.351-26.697"/>
	<polyline fill="none" stroke="#000000" stroke-miterlimit="10" points="146.624,82.959 160.116,102.324 158.848,102.949 
		144.087,84.21 	"/>
	<polygon fill="none" stroke="#000000" stroke-miterlimit="10" points="143.175,77.564 140.316,79.763 145.034,84.533 
		146.624,82.96 	"/>
	<path fill="none" stroke="#000000" stroke-miterlimit="10" d="M132.793,67.706c3.771,4.447,12.632,3.23,10.382,9.859
		c-1.269,0.627-1.59,1.573-2.858,2.199C133.367,78.46,129.023,63.257,132.793,67.706z"/>
	<path fill="none" stroke="#000000" stroke-miterlimit="10" d="M151.342,87.729c0,0,4.108,0.34,2.823,4.127"/>
</g>
</svg>
