<?xml version="1.0" encoding="utf-8"?>
<!-- Generator: Adobe Illustrator 16.2.0, SVG Export Plug-In . SVG Version: 6.00 Build 0)  -->
<!DOCTYPE svg PUBLIC "-//W3C//DTD SVG 1.1//EN" "http://www.w3.org/Graphics/SVG/1.1/DTD/svg11.dtd">
<svg version="1.1" id="Layer_1" xmlns="http://www.w3.org/2000/svg" xmlns:xlink="http://www.w3.org/1999/xlink" x="0px" y="0px"
	 width="173px" height="113px" viewBox="0 0 173 113" enable-background="new 0 0 173 113" xml:space="preserve">
<g>
	<circle fill="none" stroke="#000000" stroke-miterlimit="10" cx="58.934" cy="36.659" r="4.471"/>
	<path d="M60.723,36.659c0,0.989-0.801,1.79-1.789,1.79c-0.986,0-1.788-0.8-1.788-1.79c0-0.985,0.802-1.785,1.788-1.785
		C59.922,34.874,60.723,35.673,60.723,36.659"/>
	<circle fill="none" stroke="#000000" stroke-miterlimit="10" cx="30.097" cy="38.672" r="9.612"/>
	<circle fill="none" stroke="#000000" stroke-miterlimit="10" cx="61.841" cy="37.777" r="9.612"/>
	<path fill="none" stroke="#000000" stroke-miterlimit="10" d="M38.368,37.777c0,2.594-2.103,4.694-4.694,4.694
		c-2.594,0-4.695-2.1-4.695-4.694c0-2.59,2.102-4.693,4.695-4.693C36.266,33.084,38.368,35.188,38.368,37.777z"/>
	<path d="M35.686,37.555c0,0.987-0.801,1.787-1.789,1.787c-0.987,0-1.788-0.8-1.788-1.787s0.801-1.789,1.788-1.789
		C34.885,35.766,35.686,36.568,35.686,37.555"/>
	<path fill="none" stroke="#000000" stroke-miterlimit="10" d="M34.791,18.3c0,0-10.283-3.575-16.989,6.26"/>
	<path fill="none" stroke="#000000" stroke-miterlimit="10" d="M54.463,16.962c0,0,10.283-3.579,16.99,6.258"/>
	<path fill="none" stroke="#000000" stroke-miterlimit="10" d="M41.731,49.65c0,0,5.083-5.434,9.477,0.367"/>
	<path fill="none" stroke="#000000" stroke-miterlimit="10" d="M85.313,40.684c0,22.47-16.875,38.898-39.344,38.898
		c-22.47,0-42.027-15.979-42.027-38.451c0-22.469,18.216-40.239,40.686-40.239S85.313,18.214,85.313,40.684z"/>
	<path fill="none" stroke="#000000" stroke-miterlimit="10" d="M32.702,60.519c0,0,13.328,8.419,28.059-2.808"/>
	<path fill="none" stroke="#000000" stroke-miterlimit="10" d="M25.688,74.548c0,0-25.254,7.716-26.656,35.074"/>
	<path fill="none" stroke="#000000" stroke-miterlimit="10" d="M65.672,74.548c0,0,16.446,5.025,23.531,21.344"/>
	<circle fill="none" stroke="#000000" stroke-miterlimit="10" cx="141.417" cy="44.22" r="4.286"/>
	<path d="M143.131,44.22c0,0.947-0.768,1.716-1.715,1.716c-0.945,0-1.714-0.769-1.714-1.716c0-0.946,0.769-1.713,1.714-1.713
		C142.363,42.506,143.131,43.274,143.131,44.22"/>
	<path fill="none" stroke="#000000" stroke-miterlimit="10" d="M122.986,46.148c0,5.088-4.126,9.216-9.215,9.216
		c-5.09,0-9.215-4.128-9.215-9.216c0-5.087,4.125-9.214,9.215-9.214C118.86,36.935,122.986,41.062,122.986,46.148z"/>
	<circle fill="none" stroke="#000000" stroke-miterlimit="10" cx="144.203" cy="45.291" r="9.215"/>
	<path fill="none" stroke="#000000" stroke-miterlimit="10" d="M121.701,45.291c0,2.488-2.016,4.5-4.5,4.5
		c-2.486,0-4.502-2.012-4.502-4.5c0-2.482,2.016-4.497,4.502-4.497C119.686,40.794,121.701,42.808,121.701,45.291z"/>
	<path d="M119.129,45.077c0,0.947-0.768,1.717-1.715,1.717c-0.946,0-1.714-0.77-1.714-1.717c0-0.946,0.768-1.712,1.714-1.712
		C118.361,43.365,119.129,44.131,119.129,45.077"/>
	<path fill="none" stroke="#000000" stroke-miterlimit="10" d="M121.302,29.144c0,0-9.278-4.781-16.97,3.65"/>
	<path fill="none" stroke="#000000" stroke-miterlimit="10" d="M137.116,31.892c0,0,7.841-6.89,17.348-0.575"/>
	<path fill="none" stroke="#000000" stroke-miterlimit="10" d="M124.905,56.526c0,0,5.034-5.055,9.068,0.639"/>
	<path fill="none" stroke="#000000" stroke-miterlimit="10" d="M166.705,48.077c0,21.542-16.178,37.29-37.719,37.29
		c-21.54,0-40.289-15.318-40.289-36.86c0-21.54,17.463-38.575,39.004-38.575C149.241,9.931,166.705,26.538,166.705,48.077z"/>
	<path fill="none" stroke="#000000" stroke-miterlimit="10" d="M119.116,70.914c0,0,13.917,5.889,26.104-7.021"/>
	<path fill="none" stroke="#000000" stroke-miterlimit="10" d="M109.545,80.541c0,0-24.21,7.397-25.555,33.624"/>
	<path fill="none" stroke="#000000" stroke-miterlimit="10" d="M147.875,80.541c0,0,24.209,7.397,25.554,33.624"/>
</g>
</svg>
