<?xml version="1.0" encoding="utf-8"?>
<!-- Generator: Adobe Illustrator 16.2.0, SVG Export Plug-In . SVG Version: 6.00 Build 0)  -->
<!DOCTYPE svg PUBLIC "-//W3C//DTD SVG 1.1//EN" "http://www.w3.org/Graphics/SVG/1.1/DTD/svg11.dtd">
<svg version="1.1" id="Layer_1" xmlns="http://www.w3.org/2000/svg" xmlns:xlink="http://www.w3.org/1999/xlink" x="0px" y="0px"
	 width="173px" height="155px" viewBox="0 0 173 155" enable-background="new 0 0 173 155" xml:space="preserve">
<g>
	<path fill="none" stroke="#000000" stroke-miterlimit="10" d="M124.116,154.892c12-3,19-7,19-13c-2,4-10,8-15,5s-11-2-15-1
		c0-2,3-2,7-3c13-3,13-6,13-10c-1,3-6,4-10,4s-7-2-2-7c9-7,10-15,8-18c-4,10-18,13-17,10c17-16,8-34,7-38c-1,16-7,19-12,21
		c21-19-7-77-3-70c1,5-2,10-4,10c1-18-17-29-19-28c17,18-8,39-8,39c-8,6-17,19-17,29c-9-8-2-16-2-16s-19,7-11,33c6,19-3,18-5,15
		s-5-11-2-15c-6,7-10,16-4,26c5,5,10,6,12,9c-7,4-17,3-18-7c0,16,10,17,21,18c-1,2-17,5-20-1c2,6,8,8,16,8"/>
	<path fill="none" stroke="#000000" stroke-miterlimit="10" d="M56.116,112.892c-6-2-10-8-9-17c0,7,7,8,10,9c-7-5-8-19-8-19
		s6,7,12,7c-1-4,1-18,4-22c0,6,1,11,5,15c0,0-2-15,7-21s9-12,10-16c1,4,3,10,4,11s5,11,3,19c3-4,7-8,3-17c8,10,7,19,3,27
		c4-3,5-4,7-9c3,6,1,19-7,26"/>
	<path fill="none" stroke="#000000" stroke-miterlimit="10" d="M99.116,112.892c0,0,10-2,15-9c0,6-3,9-6,12"/>
	<path fill="none" stroke="#000000" stroke-miterlimit="10" d="M105.116,126.892c0,0,13,1,18-4c-4,6-13,8-13,11c-1,5,9,6,9,6
		s-11,2-13,8"/>
	<path fill="none" stroke="#000000" stroke-miterlimit="10" d="M49.116,113.892c3,8-4.336,10.934-8,10c-3.58-0.912-7-5-7-5
		s-2,8,10,13"/>
	<path fill="none" stroke="#000000" stroke-miterlimit="10" d="M50.116,138.892c-12,4-13,3-13,3s5,3,14,3c0,0,1,6-7,8c2,1,8,1,12-2"
		/>
	<path fill="none" stroke="#000000" stroke-miterlimit="10" d="M84.116,1.892c0,0-2,10,8,17s9,9,9,12c2-6-3-14-8-16
		S85.116,6.892,84.116,1.892z"/>
	<path fill="none" stroke="#000000" stroke-miterlimit="10" d="M121.116,66.892c0,0-3,8,0,14s5,7,5,11c2-5,3-10-2-14
		C122.116,74.892,120.116,68.892,121.116,66.892z"/>
	<path fill="none" stroke="#000000" stroke-miterlimit="10" d="M63.116,117.892c-4-4,0-17,0-15s0,8,6,4c12-7,10-16,10-16s5,5,9-14
		c1,15,0,21,9,22c0,0-9,12-1,21c2,2,4,1,6-2c1,4,1,15-9,19"/>
	<path fill="none" stroke="#000000" stroke-miterlimit="10" d="M67.116,125.892c0,0-9,0-12-6c0,5,4,18,14,18"/>
</g>
</svg>
