<?xml version="1.0" encoding="utf-8"?>
<!-- Generator: Adobe Illustrator 16.2.0, SVG Export Plug-In . SVG Version: 6.00 Build 0)  -->
<!DOCTYPE svg PUBLIC "-//W3C//DTD SVG 1.1//EN" "http://www.w3.org/Graphics/SVG/1.1/DTD/svg11.dtd">
<svg version="1.1" id="Layer_1" xmlns="http://www.w3.org/2000/svg" xmlns:xlink="http://www.w3.org/1999/xlink" x="0px" y="0px"
	 width="173px" height="132px" viewBox="0 0 173 132" enable-background="new 0 0 173 132" xml:space="preserve">
<g>
	<path fill="none" stroke="#231F20" stroke-miterlimit="10" d="M79.94,21.969c0,0-4.074,8.387-23.425,8.387
		c-19.351,0-25.463-2.097-25.463-2.097s-7.129-2.097-4.074,5.242c3.056,4.193,29.537,11.533,30.555,11.533
		c1.019,0,2.038,5.242,1.019,7.339c-1.019,2.097-12.222,19.92-14.259,24.114C42.256,80.68,27.997,86.971,25.96,95.358
		c-2.038,8.387-6.112,16.774-12.223,19.919c-6.111,3.145-14.259,8.388-11.203,13.629c3.056,5.242,17.315-2.097,19.352-2.097
		c0,0,12.222-9.437,15.278-11.533c3.056-2.096,4.074,0,9.166-1.048c5.093-1.048,6.112-4.194,12.222,0
		c6.112,4.193,13.24,2.097,16.296,1.048c3.056-1.048,7.129,0,8.148,1.048c1.018,1.048,7.13,0,7.13-1.048s6.111,1.048,8.148,1.048
		c2.037,0,26.481-5.242,33.611-2.097c7.128,3.145,14.259,10.485,16.296,12.581c2.037,2.097,11.203-1.048,17.315,3.145
		c6.11,4.194,10.185-6.29,2.037-10.484c-8.148-4.193-16.296-9.436-20.369-20.968c-4.075-11.532-19.353-22.017-22.407-27.259
		c-3.056-5.242-7.129-15.727-4.074-20.968c3.056-5.242,13.241-6.291,15.278-6.291c2.037,0,7.129-4.193,10.185-3.145
		c3.055,1.048,10.185-5.243,10.185-6.291s1.018-3.145-6.111-2.096c-7.129,1.048-40.74-2.097-42.777-6.292
		c-3.056-3.145-4.074-5.242-4.074-5.242s3.055-6.29-2.038-7.338c-3.055-2.098-5.093-7.338-5.093-7.338S96.236,1,93.181,1
		c-3.056,0-3.056,2.097-4.074,4.194c-1.019,2.097-4.075,6.29-5.094,8.388c0,0-2.037,0-4.074,3.145
		C78.922,19.872,79.94,21.969,79.94,21.969z"/>
	<line fill="none" stroke="#231F20" stroke-miterlimit="10" x1="84.572" y1="13.582" x2="85.621" y2="12.533"/>
	<line fill="none" stroke="#231F20" stroke-miterlimit="10" x1="95.057" y1="13.582" x2="94.008" y2="12.533"/>
</g>
</svg>
