<?xml version="1.0" encoding="utf-8"?>
<!-- Generator: Adobe Illustrator 16.2.0, SVG Export Plug-In . SVG Version: 6.00 Build 0)  -->
<!DOCTYPE svg PUBLIC "-//W3C//DTD SVG 1.1//EN" "http://www.w3.org/Graphics/SVG/1.1/DTD/svg11.dtd">
<svg version="1.1" id="Layer_1" xmlns="http://www.w3.org/2000/svg" xmlns:xlink="http://www.w3.org/1999/xlink" x="0px" y="0px"
	 width="173px" height="173px" viewBox="0 0 173 173" enable-background="new 0 0 173 173" xml:space="preserve">
<g>
	<circle fill="none" stroke="#000000" stroke-miterlimit="10" cx="86.832" cy="77.723" r="5.607"/>
	<path d="M89.075,77.723c0,1.238-1.005,2.243-2.243,2.243c-1.238,0-2.243-1.005-2.243-2.243c0-1.238,1.005-2.243,2.243-2.243
		C88.07,75.48,89.075,76.485,89.075,77.723"/>
	<path fill="none" stroke="#000000" stroke-miterlimit="10" d="M58.132,82.911c0,6.657-5.398,12.056-12.056,12.056
		c-6.658,0-12.056-5.399-12.056-12.056c0-6.655,5.397-12.054,12.056-12.054C52.733,70.856,58.132,76.255,58.132,82.911z"/>
	<circle fill="none" stroke="#000000" stroke-miterlimit="10" cx="85.888" cy="81.79" r="12.056"/>
	<path fill="none" stroke="#000000" stroke-miterlimit="10" d="M54.021,79.36c0,3.253-2.636,5.889-5.888,5.889
		s-5.888-2.636-5.888-5.889c0-3.248,2.636-5.885,5.888-5.885S54.021,76.112,54.021,79.36z"/>
	<path d="M50.656,79.082c0,1.239-1.004,2.243-2.243,2.243c-1.238,0-2.243-1.004-2.243-2.243c0-1.238,1.005-2.242,2.243-2.242
		C49.652,76.839,50.656,77.843,50.656,79.082"/>
	<path fill="none" stroke="#000000" stroke-miterlimit="10" d="M51.964,64.266c0,0-12.896-4.485-21.308,7.851"/>
	<path fill="none" stroke="#000000" stroke-miterlimit="10" d="M77.385,57.979c0,0,13.469-2.242,19.674,11.341"/>
	<path fill="none" stroke="#000000" stroke-miterlimit="10" d="M60.668,96.68c0,0,6.375-6.815,11.885,0.46"/>
	<path fill="none" stroke="#000000" stroke-miterlimit="10" d="M50.116,132.032c-20.923-5.915-36.843-23.335-36.843-46.037
		c0-28.182,22.846-50.465,51.026-50.465c28.18,0,51.025,21.724,51.025,49.903c0,23.963-15.302,42.446-37.209,47.442"/>
	<path fill="none" stroke="#000000" stroke-miterlimit="10" d="M40.547,127.904c0,0-31.672,9.677-33.431,43.987"/>
	<path fill="none" stroke="#000000" stroke-miterlimit="10" d="M90.691,127.904c0,0,31.672,9.677,33.431,43.987"/>
	<ellipse fill="none" stroke="#000000" stroke-miterlimit="10" cx="67.116" cy="110.892" rx="9" ry="3"/>
	<path fill="none" stroke="#000000" stroke-miterlimit="10" d="M52.116,172.892c1.536-3.071,3.203-11.738,13-17
		c2.957-1.588,7.29-3.071,11-4c2.169-0.542,12.108-4.336,11-6c-2-3-12,1-12,1c5-2,11.633-5.102,11-7c-1-3-17,4-13,2s13-6,11-9
		c-1.754-2.631-18,9-12,4s16-11,15-15c-2-3-13,7-13,7c-13,10-18-2-18-2s-3.664-5-7-5c-6.324,0,0.664,5,2.664,12
		c0,0,1.336,5-8.664,20s-12,19-12,19"/>
	<ellipse fill="none" stroke="#000000" stroke-miterlimit="10" cx="111.116" cy="39.892" rx="8" ry="6"/>
	<ellipse fill="none" stroke="#000000" stroke-miterlimit="10" cx="139.116" cy="18.892" rx="24" ry="18"/>
</g>
</svg>
