<?xml version="1.0" encoding="utf-8"?>
<!-- Generator: Adobe Illustrator 16.2.0, SVG Export Plug-In . SVG Version: 6.00 Build 0)  -->
<!DOCTYPE svg PUBLIC "-//W3C//DTD SVG 1.1//EN" "http://www.w3.org/Graphics/SVG/1.1/DTD/svg11.dtd">
<svg version="1.1" id="Layer_1" xmlns="http://www.w3.org/2000/svg" xmlns:xlink="http://www.w3.org/1999/xlink" x="0px" y="0px"
	 width="173px" height="155px" viewBox="0 0 173 155" enable-background="new 0 0 173 155" xml:space="preserve">
<g>
	<path fill="none" stroke="#231F20" stroke-miterlimit="10" d="M90.116,97.392c0-3.59,1.119-4.5,2.5-4.5s2.5,0.91,2.5,4.5
		c0,3.59-1.119,6.5-2.5,6.5S90.116,100.982,90.116,97.392z"/>
	<line fill="none" stroke="#000000" stroke-miterlimit="10" x1="33.116" y1="154.392" x2="138.116" y2="154.392"/>
	<path fill="none" stroke="#231F20" stroke-miterlimit="10" d="M82.116,11.892c0,0-2-10,2-11s8,2,5,11c6,2,12,2,14,2s23-3,25-4
		s7-6,7-5s-2,3-2,3s11-5,6,2c-4,3-7,2-9,3s-20,6-24,7c-3.881,0.971-8,6-9,8c0,0-2,15,0,22s-1,22-1,22l-1,24"/>
	<path fill="none" stroke="#231F20" stroke-miterlimit="10" d="M90.116,95.892c0-1-1-21-1-24s-2-14-2-14h-2.697"/>
	<path fill="none" stroke="#231F20" stroke-miterlimit="10" d="M82.42,11.892c-6,2-12,2-14,2s-23-3-25-4s-7-6-7-5s2,3,2,3s-11-5-6,2
		c4,3,7,2,9,3s20,6,24,7c3.879,0.971,8,6,9,8c0,0,2,15,0,22s1,22,1,22l1,24"/>
	<path fill="none" stroke="#231F20" stroke-miterlimit="10" d="M84.42,57.892c0,0-2,11-2,14s-1,23-1,24"/>
	<path fill="none" stroke="#231F20" stroke-miterlimit="10" d="M81.42,97.392c0-3.59-1.119-4.5-2.5-4.5c-1.382,0-2.5,0.91-2.5,4.5
		c0,3.59,1.118,6.5,2.5,6.5C80.301,103.892,81.42,100.982,81.42,97.392z"/>
	<g opacity="0.5">
		<g>
			<defs>
				<rect id="SVGID_8_" x="42.118" y="28.89" width="1" height="34"/>
			</defs>
			<clipPath id="SVGID_2_">
				<use xlink:href="#SVGID_8_"  overflow="visible"/>
			</clipPath>
			
				<line clip-path="url(#SVGID_2_)" fill="none" stroke="#000000" stroke-miterlimit="10" x1="42.616" y1="28.892" x2="42.616" y2="62.892"/>
		</g>
	</g>
	<g opacity="0.5">
		<g>
			<defs>
				<rect id="SVGID_10_" x="49.118" y="45.89" width="1" height="28"/>
			</defs>
			<clipPath id="SVGID_4_">
				<use xlink:href="#SVGID_10_"  overflow="visible"/>
			</clipPath>
			
				<line clip-path="url(#SVGID_4_)" fill="none" stroke="#000000" stroke-miterlimit="10" x1="49.616" y1="45.892" x2="49.616" y2="73.892"/>
		</g>
	</g>
	<g opacity="0.5">
		<g>
			<defs>
				<rect id="SVGID_12_" x="62.118" y="62.89" width="1" height="28"/>
			</defs>
			<clipPath id="SVGID_5_">
				<use xlink:href="#SVGID_12_"  overflow="visible"/>
			</clipPath>
			
				<line clip-path="url(#SVGID_5_)" fill="none" stroke="#000000" stroke-miterlimit="10" x1="62.616" y1="62.892" x2="62.616" y2="90.892"/>
		</g>
	</g>
	<g opacity="0.5">
		<g>
			<defs>
				<rect id="SVGID_14_" x="110.118" y="28.89" width="1" height="28"/>
			</defs>
			<clipPath id="SVGID_7_">
				<use xlink:href="#SVGID_14_"  overflow="visible"/>
			</clipPath>
			
				<line clip-path="url(#SVGID_7_)" fill="none" stroke="#000000" stroke-miterlimit="10" x1="110.616" y1="28.892" x2="110.616" y2="56.892"/>
		</g>
	</g>
	<g opacity="0.5">
		<g>
			<defs>
				<rect id="SVGID_16_" x="103.118" y="106.89" width="1" height="22"/>
			</defs>
			<clipPath id="SVGID_9_">
				<use xlink:href="#SVGID_16_"  overflow="visible"/>
			</clipPath>
			
				<line clip-path="url(#SVGID_9_)" fill="none" stroke="#000000" stroke-miterlimit="10" x1="103.616" y1="106.892" x2="103.616" y2="128.892"/>
		</g>
	</g>
	<g opacity="0.5">
		<g>
			<defs>
				<rect id="SVGID_18_" x="76.118" y="120.89" width="1" height="16"/>
			</defs>
			<clipPath id="SVGID_11_">
				<use xlink:href="#SVGID_18_"  overflow="visible"/>
			</clipPath>
			
				<line clip-path="url(#SVGID_11_)" fill="none" stroke="#000000" stroke-miterlimit="10" x1="76.616" y1="120.892" x2="76.616" y2="136.892"/>
		</g>
	</g>
	<g opacity="0.5">
		<g>
			<defs>
				<rect id="SVGID_20_" x="126.118" y="19.89" width="1" height="39"/>
			</defs>
			<clipPath id="SVGID_13_">
				<use xlink:href="#SVGID_20_"  overflow="visible"/>
			</clipPath>
			
				<line clip-path="url(#SVGID_13_)" fill="none" stroke="#000000" stroke-miterlimit="10" x1="126.616" y1="19.892" x2="126.616" y2="58.892"/>
		</g>
	</g>
	<g opacity="0.5">
		<g>
			<defs>
				<rect id="SVGID_22_" x="134.118" y="21.89" width="1" height="21"/>
			</defs>
			<clipPath id="SVGID_15_">
				<use xlink:href="#SVGID_22_"  overflow="visible"/>
			</clipPath>
			
				<line clip-path="url(#SVGID_15_)" fill="none" stroke="#000000" stroke-miterlimit="10" x1="134.616" y1="21.892" x2="134.616" y2="42.892"/>
		</g>
	</g>
</g>
</svg>
