<?xml version="1.0" encoding="utf-8"?>
<!-- Generator: Adobe Illustrator 16.2.0, SVG Export Plug-In . SVG Version: 6.00 Build 0)  -->
<!DOCTYPE svg PUBLIC "-//W3C//DTD SVG 1.1//EN" "http://www.w3.org/Graphics/SVG/1.1/DTD/svg11.dtd">
<svg version="1.1" id="Layer_1" xmlns="http://www.w3.org/2000/svg" xmlns:xlink="http://www.w3.org/1999/xlink" x="0px" y="0px"
	 width="173px" height="172px" viewBox="0 0 173 172" enable-background="new 0 0 173 172" xml:space="preserve">
<g>
	<circle fill="none" stroke="#231F20" stroke-miterlimit="10" cx="86.5" cy="85.892" r="85"/>
	<rect x="11.327" y="21.037" fill="none" stroke="#231F20" stroke-miterlimit="10" width="150.347" height="150.346"/>
	<ellipse fill="none" stroke="#231F20" stroke-miterlimit="10" cx="86.5" cy="34.302" rx="11.792" ry="13.757"/>
	<path fill="none" stroke="#231F20" stroke-miterlimit="10" d="M110.084,170.892c0-1.965-0.983-3.931-8.844-5.896
		c-7.861-1.965-3.931-22.601-3.931-22.601c0,5.896,0.983-19.653,0.983-19.653c1.965-5.896,0.983-32.428,0-39.306
		c-0.983-6.879,3.931-28.498,3.931-28.498c0.283-0.07,0.612-0.171,0.983-0.3c4.759-1.658,16.219-7.843,22.601-11.491
		c4.913,2.948,13.757-8.844,21.618-7.861c5.896,0,12.775-11.792,6.879-13.757s-10.809,6.878-12.775,7.861
		c-1.965,0.982-10.809,2.948-16.705,7.861c-7.861,0-28.497,6.878-28.497,6.878s22.601,1.965,26.532,3.931s7.861-1.965,19.653,0
		c11.792,1.965,9.827-4.913,17.688,0c7.861,4.914-11.792,8.844-13.757,6.878c-1.965-1.964-12.774,1.965-23.584-0.982
		c0,0-16.705,3.931-19.653,0.982"/>
	<path fill="none" stroke="#231F20" stroke-miterlimit="10" d="M85.517,104.071c0,0-2.948,36.358-2.948,46.186
		c0,9.826,0.983,19.653,0.983,19.653"/>
	<path fill="none" stroke="#231F20" stroke-miterlimit="10" d="M85.517,104.071c0,0,3.931,36.358,3.931,46.186
		c0,9.826-0.983,19.653-0.983,19.653"/>
	<path fill="none" stroke="#231F20" stroke-miterlimit="10" d="M67.83,54.938c0,0-19.653-1.964-29.48-0.982
		c-9.826,0.982-11.792-2.948-12.774-2.948s-13.757,2.948-13.757-3.93c0-6.879,12.775-3.931,14.74-0.983
		c1.965,2.948,20.636-0.982,21.618,0c0.983,0.983,26.124-2.948,28.784-1.965c0,0-20.636-6.878-28.497-6.878
		c-5.896-4.914-14.74-6.879-16.705-7.861c-1.965-0.983-6.879-9.827-12.775-7.861s0.983,13.757,6.879,13.757
		c7.861-0.983,16.705,10.809,21.618,7.861c6.879,3.931,19.653,10.809,23.584,11.792c0,0,4.913,21.619,3.931,28.498
		c-0.983,6.878-6.183,33.41-4.218,39.306c0,0,0.982,25.549,0.982,19.653c0,0,4.913,20.636-2.948,22.601
		c-7.861,1.965-9.827,3.931-9.827,5.896"/>
	<path fill="none" stroke="#231F20" stroke-miterlimit="10" d="M98.292,84.417l0.983,0.983c0,0,7.861,21.618,10.809,32.428
		c2.948,10.809,2.948,4.913,1.965,5.896c-0.983,0.983,5.896,8.844,11.792,24.566c0.983,1.966,0.983,4.914,0.983,4.914
		s8.844,0.983,11.792,0.983"/>
	<path fill="none" stroke="#231F20" stroke-miterlimit="10" d="M89.448,99.157c0,0,0.983,10.81,9.827,18.671
		c0.983,5.896,0,6.878,3.931,10.809c3.93,3.931,2.948,10.809,9.826,16.705s6.879,13.757,7.861,17.688"/>
	<path fill="none" stroke="#231F20" stroke-miterlimit="10" d="M74.708,84.417L73.725,85.4c0,0-8.844,21.618-11.792,32.428
		c-2.948,10.809-2.948,4.913-1.965,5.896c0.983,0.983-5.896,8.844-11.792,24.566c-0.983,1.966-0.983,4.914-0.983,4.914
		s-8.844,0.983-11.792,0.983"/>
	<path fill="none" stroke="#231F20" stroke-miterlimit="10" d="M82.569,99.157c0,0-0.983,10.81-9.827,18.671
		c-0.983,5.896,0,6.878-3.93,10.809c-3.931,3.931-2.948,10.809-9.827,16.705s-6.879,13.757-7.861,17.688"/>
</g>
</svg>
