<?xml version="1.0" encoding="utf-8"?>
<!-- Generator: Adobe Illustrator 16.2.0, SVG Export Plug-In . SVG Version: 6.00 Build 0)  -->
<!DOCTYPE svg PUBLIC "-//W3C//DTD SVG 1.1//EN" "http://www.w3.org/Graphics/SVG/1.1/DTD/svg11.dtd">
<svg version="1.1" id="Layer_1" xmlns="http://www.w3.org/2000/svg" xmlns:xlink="http://www.w3.org/1999/xlink" x="0px" y="0px"
	 width="173px" height="155px" viewBox="0 0 173 155" enable-background="new 0 0 173 155" xml:space="preserve">
<g>
	<path fill="none" stroke="#000000" stroke-miterlimit="10" d="M84,75.677c0,0-12,0-21,2s-11,12-6,15s17,1,25-6c9-4,4-25-5-37
		s-5-28-5-28c9-24,36-21,38-20s3,2,15,1s20,10,18,13s-21,6-25,1s-19-4-19-4s-29,5-9,36c15,24,6,42,0,46c0,0-14,18-39,7
		c-8-4-8-14-8-16s3-17,23-19s17-1,17-1"/>
	<path fill="none" stroke="#000000" stroke-miterlimit="10" d="M100,64.677c0,0,10,2,15,7c1-3,13-9,20-7c-8,4-12,5-13,12
		c3,3,6,8,5,16s-7,18-16,17s-16-7-15-14s4-15,7-18c-1-1-3-1-3-1"/>
	<path fill="none" stroke="#000000" stroke-miterlimit="10" d="M114,79.677c0,0-10,4-10,13s5,8,7,8c0,0,8,0,8-11
		C118,80.677,114,79.677,114,79.677z"/>
	<line fill="none" stroke="#000000" stroke-miterlimit="10" x1="144" y1="14.677" x2="160" y2="13.677"/>
	<line fill="none" stroke="#000000" stroke-miterlimit="10" x1="158" y1="17.677" x2="155" y2="14.677"/>
	<g>
		<defs>
			<path id="SVGID_40_" d="M100.424,134.742c0,0-0.683,4.163,0.779,8.558c1.46,4.396,12.921,6.502,16.901,4.545
				c3.979-1.956,2.808-7.739-4.576-12.263c-1.604-1.96-29.887-0.718-42.545,1.62c-14.854,2.742-34.171-4.676-34.171-4.676
				c-27.099-6.995-20.994-19.119-19.635-19.926c1.358-0.807,2.62-1.15,2.615-6.814c-0.006-5.665,7.848,1.439,11.151,2.719
				c3.302,1.278,1.502,2.841-4.711,4.1c-6.213,1.258-2.355,7.379-2.355,7.379s8.08,12.994,46.14,7.412
				c29.418-4.098,42.813,2.461,46.895,5.707c0,0,21.124,7.781,5.888,18.037c-5.435,3.226-11.876,2.586-14.207,2.349
				c-2.331-0.235-13.659-1.886-14.057-11.367c-0.398-9.48,0-7.379,0-7.379"/>
		</defs>
		<clipPath id="SVGID_2_">
			<use xlink:href="#SVGID_40_"  overflow="visible"/>
		</clipPath>
		<g clip-path="url(#SVGID_2_)">
			<g>
				<defs>
					<path id="SVGID_42_" d="M136.588,129.061c0,0,2.46-82.263,0.82-89.247s-28.696-3.561-40.995-2.563s-18.038-1.429-26.237-0.431
						c-8.199,0.999-14.948,2.397-25.417,1.429c-26.237-2.427-32.796,1.564-40.176,1.564c-4.919-1.994-4.1,94.807-3.279,120.751
						c0.849,26.851-2.46,34.879,7.379,35.879c3.369,0.343,67.232-1,71.332,0c4.1,0.997,40.307,7.981,54.245,1.993
						C140.819,177.481,136.588,145.027,136.588,129.061z"/>
				</defs>
				<clipPath id="SVGID_4_">
					<use xlink:href="#SVGID_42_"  overflow="visible"/>
				</clipPath>
				<g clip-path="url(#SVGID_4_)">
					<g>
						<path fill="none" stroke="#000000" stroke-miterlimit="10" d="M139.18,170.667c0,0-118.887-1.994-141.845-16.967"/>
						<path fill="none" stroke="#000000" stroke-miterlimit="10" d="M139.18,144.721c0,0-137.745-6.987-141.845,5.987"/>
						<path fill="none" stroke="#000000" stroke-miterlimit="10" d="M139.18,121.767c0,0-85.271,11.977-93.47,20.957"/>
						<path fill="none" stroke="#000000" stroke-miterlimit="10" d="M-2.665,115.78c0,0,81.171,7.983,94.29,13.971"/>
						<path fill="none" stroke="#000000" stroke-miterlimit="10" d="M-2.665,105.802c0,0,95.11,9.979,141.845,7.982"/>
						<path fill="none" stroke="#000000" stroke-miterlimit="10" d="M-2.665,99.812c0,0,140.205,8.982,141.845-0.997"/>
						<path fill="none" stroke="#000000" stroke-miterlimit="10" d="M139.18,89.833c0,0-145.124,1.996-141.845-8.982
							c0,0,25.417-3.991,35.257,0"/>
						<line fill="none" stroke="#000000" stroke-miterlimit="10" x1="139.18" y1="79.854" x2="20.293" y2="86.84"/>
						<path fill="none" stroke="#000000" stroke-miterlimit="10" d="M139.18,69.875c0,0-59.854-20.958-141.845-1.997"/>
						<path fill="none" stroke="#000000" stroke-miterlimit="10" d="M-2.665,75.862c0,0,107.408-7.984,110.688-11.975"/>
						<path fill="none" stroke="#000000" stroke-miterlimit="10" d="M139.18,47.919c0,0-120.527-8.98-141.845,3.992"/>
						<path fill="none" stroke="#000000" stroke-miterlimit="10" d="M138.359,162.683c0,0-41.815-0.997-50.834-5.988
							c-9.02-4.989-64.773,0-68.873,2.994"/>
						<path fill="none" stroke="#000000" stroke-miterlimit="10" d="M20.293,144.721c7.334,0.989,7.122,1.888,45.914,17.962
							c0,0,26.239-9.979,45.916-7.982"/>
						<line fill="none" stroke="#000000" stroke-miterlimit="10" x1="-2.665" y1="128.754" x2="64.568" y2="134.739"/>
						<line fill="none" stroke="#000000" stroke-miterlimit="10" x1="-2.665" y1="137.733" x2="49.81" y2="139.73"/>
						<path fill="none" stroke="#000000" stroke-miterlimit="10" d="M-2.665,134.739c0,0,37.716,1.997,46.735-0.996"/>
						<path fill="none" stroke="#000000" stroke-miterlimit="10" d="M-2.665,123.764c0,0,17.219,4.99,24.598,6.984"/>
						<path fill="none" stroke="#000000" stroke-miterlimit="10" d="M7.174,157.694c0,0,26.237-7.984,31.977-6.986
							c0,0,17.219-6.985,22.958-5.987"/>
						<path fill="none" stroke="#000000" stroke-miterlimit="10" d="M13.733,159.688c0,0,18.038-6.985,27.058-6.985"/>
						<path fill="none" stroke="#000000" stroke-miterlimit="10" d="M-2.665,151.705c0,0,31.977-1.995,34.437-2.992"/>
						<path fill="none" stroke="#000000" stroke-miterlimit="10" d="M0.615,155.698c0,0,13.938-3.993,22.137-2.995"/>
						<path fill="none" stroke="#000000" stroke-miterlimit="10" d="M7.174,146.716c0,0,12.299,1,19.678,0"/>
						<path fill="none" stroke="#000000" stroke-miterlimit="10" d="M128.521,163.681c0,0-27.057-20.957-41.815-20.957"/>
						<path fill="none" stroke="#000000" stroke-miterlimit="10" d="M115.402,160.688c0,0,17.218-8.982,22.957-13.972"/>
						<path fill="none" stroke="#000000" stroke-miterlimit="10" d="M125.241,160.688c0,0,11.479-9.979,13.938-9.979"/>
						<path fill="none" stroke="#000000" stroke-miterlimit="10" d="M138.359,153.7c0,0-44.275-7.982-57.394,1"/>
						<path fill="none" stroke="#000000" stroke-miterlimit="10" d="M4.715,168.673c0,0,69.691-14.973,74.611-25.949"/>
						<path fill="none" stroke="#000000" stroke-miterlimit="10" d="M61.288,160.688c0,0,63.953-34.929,77.892-32.934"/>
						<path fill="none" stroke="#000000" stroke-miterlimit="10" d="M31.771,147.716c0,0,31.156-3.993,35.256-11.978"/>
						<path fill="none" stroke="#000000" stroke-miterlimit="10" d="M33.411,141.726c0,0,17.218,9.979,27.877,11.975"/>
						<path fill="none" stroke="#000000" stroke-miterlimit="10" d="M17.833,140.728c0,0,22.138,4.99,31.977,14.971"/>
						<path fill="none" stroke="#000000" stroke-miterlimit="10" d="M-2.665,146.716c0,0,34.437-11.977,53.294-11.977"/>
						<path fill="none" stroke="#000000" stroke-miterlimit="10" d="M81.786,149.71c0,0-28.697-10.979-36.076-12.974"/>
						<path fill="none" stroke="#000000" stroke-miterlimit="10" d="M58.828,150.708c0,0,29.518-14.97,37.716-15.969
							c0,0,25.417,3.992,31.977,7.984"/>
						<path fill="none" stroke="#000000" stroke-miterlimit="10" d="M124.421,154.7c0,0-23.777-13.973-40.175-14.97"/>
						<path fill="none" stroke="#000000" stroke-miterlimit="10" d="M85.886,151.705c0,0,41.815-14.969,53.294-15.967"/>
						<path fill="none" stroke="#000000" stroke-miterlimit="10" d="M103.924,153.7c0,0,26.236-7.982,34.436-11.975"/>
						<path fill="none" stroke="#000000" stroke-miterlimit="10" d="M124.421,150.708c0,0,9.02-12.975,14.759-12.975"/>
						<path fill="none" stroke="#000000" stroke-miterlimit="10" d="M92.445,140.728c0,0,39.355-7.984,46.734-7.984"/>
						<path fill="none" stroke="#000000" stroke-miterlimit="10" d="M90.805,137.733c0,0,28.697,2.994,31.977,11.977"/>
						<path fill="none" stroke="#000000" stroke-miterlimit="10" d="M67.848,153.7c0,0,14.758-4.987,15.578-8.979"/>
						<path fill="none" stroke="#000000" stroke-miterlimit="10" d="M-2.665,141.726c0,0,14.759-2.994,33.616-8.982"/>
						<path fill="none" stroke="#000000" stroke-miterlimit="10" d="M-2.665,143.723c0,0,14.759-2.995,17.219-2.995"/>
						<path fill="none" stroke="#000000" stroke-miterlimit="10" d="M139.18,118.773l-41.815,11.975
							c-68.053,25.946-71.332,38.92-71.332,38.92"/>
						<path fill="none" stroke="#000000" stroke-miterlimit="10" d="M89.165,114.781c0,0,41.816,12.973,49.195,14.97"/>
						<path fill="none" stroke="#000000" stroke-miterlimit="10" d="M86.705,126.759c0,0,46.735-6.986,52.475-9.982"/>
						<path fill="none" stroke="#000000" stroke-miterlimit="10" d="M67.027,136.736c0,0,9.02-2.993,18.038-1.997"/>
						<path fill="none" stroke="#000000" stroke-miterlimit="10" d="M64.568,139.73c0,0,8.198-0.999,13.938-1.997"/>
						<path fill="none" stroke="#000000" stroke-miterlimit="10" d="M26.852,142.724c0,0,41.815-13.97,46.735-15.965"/>
						<path fill="none" stroke="#000000" stroke-miterlimit="10" d="M62.928,133.743c0,0,31.977-12.975,40.176-12.975"/>
						<path fill="none" stroke="#000000" stroke-miterlimit="10" d="M-1.025,133.743c0,0,37.717-12.975,45.096-21.955"/>
						<path fill="none" stroke="#000000" stroke-miterlimit="10" d="M-2.665,121.767c0,0,27.877,1,45.915,9.979"/>
						<path fill="none" stroke="#000000" stroke-miterlimit="10" d="M7.994,125.759c0,0,34.436,1,44.275-2.992"/>
						<path fill="none" stroke="#000000" stroke-miterlimit="10" d="M39.971,129.751c0,0,47.555-5.987,56.573-10.978"/>
						<path fill="none" stroke="#000000" stroke-miterlimit="10" d="M46.529,132.743c0,0,26.237-10.977,38.536-12.971"/>
						<path fill="none" stroke="#000000" stroke-miterlimit="10" d="M100.644,133.743c0,0,31.977-9.979,37.716-8.982"/>
						<path fill="none" stroke="#000000" stroke-miterlimit="10" d="M107.203,135.738c0,0,14.758-7.984,21.317-7.984"/>
						<path fill="none" stroke="#000000" stroke-miterlimit="10" d="M117.042,132.743c0,0-13.118-6.984-27.877-11.975"/>
						<path fill="none" stroke="#000000" stroke-miterlimit="10" d="M103.104,137.733c0,0-5.739-9.979-12.299-11.975"/>
						<path fill="none" stroke="#000000" stroke-miterlimit="10" d="M127.701,147.716c0,0,5.739,0,9.019,0"/>
						<path fill="none" stroke="#000000" stroke-miterlimit="10" d="M-2.665,118.773c0,0,59.854-3.992,78.712,2.993"/>
						<path fill="none" stroke="#000000" stroke-miterlimit="10" d="M11.273,122.767c0,0,51.654-1,64.773-8.982"/>
						<path fill="none" stroke="#000000" stroke-miterlimit="10" d="M-2.665,112.786c0,0,47.555-1.997,59.034,3.99"/>
						<path fill="none" stroke="#000000" stroke-miterlimit="10" d="M9.634,116.776c0,0,54.935-8.98,68.872-11.973"/>
						<path fill="none" stroke="#000000" stroke-miterlimit="10" d="M30.951,117.776c0,0-8.199-7.985-33.616-7.985"/>
						<path fill="none" stroke="#000000" stroke-miterlimit="10" d="M89.984,162.683c0,0,13.119-16.965,14.759-16.965"/>
						<path fill="none" stroke="#000000" stroke-miterlimit="10" d="M132.62,140.728c0,0-18.038,3.993-22.957,8.982"/>
						<path fill="none" stroke="#000000" stroke-miterlimit="10" d="M70.307,116.776c0,0,45.916-2.992,52.475,4.99"/>
						<path fill="none" stroke="#000000" stroke-miterlimit="10" d="M138.359,111.788c0,0-47.555-8.981-60.673,0.998"/>
						<path fill="none" stroke="#000000" stroke-miterlimit="10" d="M94.904,112.786c0,0,37.716-5.989,44.275-4.99"/>
						<path fill="none" stroke="#000000" stroke-miterlimit="10" d="M118.682,118.773c0,0,20.498-3.992,21.318-6.985"/>
						<path fill="none" stroke="#000000" stroke-miterlimit="10" d="M108.023,119.772c0,0,22.137-6.986,25.417-8.983"/>
						<path fill="none" stroke="#000000" stroke-miterlimit="10" d="M57.188,117.776c0,0,22.958-13.973,39.355-16.965
							c16.398-2.994,42.636-7.984,42.636-7.984"/>
						<path fill="none" stroke="#000000" stroke-miterlimit="10" d="M-1.025,130.748c0,0,18.039-25.944,37.717-26.944"/>
						<path fill="none" stroke="#000000" stroke-miterlimit="10" d="M-2.665,92.827c0,0,41.815-1.996,54.114,16.964"/>
						<path fill="none" stroke="#000000" stroke-miterlimit="10" d="M-2.665,95.822c0,0,55.754,1.995,66.413-3.993"/>
						<path fill="none" stroke="#000000" stroke-miterlimit="10" d="M89.984,102.807c0,0-27.876-14.97-48.374-13.972"/>
						<path fill="none" stroke="#000000" stroke-miterlimit="10" d="M126.881,89.833c0,0-77.071-26.945-96.749-26.945"/>
						<path fill="none" stroke="#000000" stroke-miterlimit="10" d="M22.752,85.84c0,0,87.73-12.972,97.569-19.956"/>
						<path fill="none" stroke="#000000" stroke-miterlimit="10" d="M127.701,65.884c0,0-59.854-33.931-72.973-31.934"/>
						<path fill="none" stroke="#000000" stroke-miterlimit="10" d="M15.373,63.888c0,0,40.176-26.947,50.834-26.947"/>
						<path fill="none" stroke="#000000" stroke-miterlimit="10" d="M62.108,59.896c0,0-45.915-25.945-58.214-25.945"/>
						<path fill="none" stroke="#000000" stroke-miterlimit="10" d="M52.27,52.91c0,0,74.611-1.997,78.711-5.987"/>
						<path fill="none" stroke="#000000" stroke-miterlimit="10" d="M74.406,68.878c0,0,57.395-12.975,64.773-13.975"/>
						<path fill="none" stroke="#000000" stroke-miterlimit="10" d="M4.715,75.862c0,0,75.432,2.992,81.99,6.984"/>
						<path fill="none" stroke="#000000" stroke-miterlimit="10" d="M67.848,102.807c0,0,32.796-6.984,40.995-11.976"/>
						<path fill="none" stroke="#000000" stroke-miterlimit="10" d="M45.71,101.809c0,0,50.015-17.964,60.673-17.964"/>
						<path fill="none" stroke="#000000" stroke-miterlimit="10" d="M-2.665,56.901c0,0,32.797,17.961,54.935,20.958"/>
						<path fill="none" stroke="#000000" stroke-miterlimit="10" d="M-2.665,43.929c0,0,40.176-5.988,49.194-6.988
							c9.02-0.995,67.232,17.963,76.252,20.959"/>
						<path fill="none" stroke="#000000" stroke-miterlimit="10" d="M77.687,39.938c0,0,54.114-3.993,61.493-3.993"/>
						<path fill="none" stroke="#000000" stroke-miterlimit="10" d="M58.009,67.878c0,0,81.171-13.97,81.991-28.939"/>
						<path fill="none" stroke="#000000" stroke-miterlimit="10" d="M76.866,34.945c0,0,41.815,9.981,62.313,8.983"/>
						<path fill="none" stroke="#000000" stroke-miterlimit="10" d="M88.346,68.878c0,0,39.355,4.988,50.834,5.984"/>
						<path fill="none" stroke="#000000" stroke-miterlimit="10" d="M77.687,68.878c0,0,40.175,16.962,61.493,17.962"/>
						<path fill="none" stroke="#000000" stroke-miterlimit="10" d="M105.563,103.804c0,0,20.497-6.984,33.616-6.984"/>
						<path fill="none" stroke="#000000" stroke-miterlimit="10" d="M80.966,90.831c0,0,50.835,11.976,57.394,13.973
							c6.843,2.081-51.654,15.965-51.654,15.965"/>
						<path fill="none" stroke="#000000" stroke-miterlimit="10" d="M85.886,108.794c0,0,36.075-2.992,40.995-4.99"/>
						<path fill="none" stroke="#000000" stroke-miterlimit="10" d="M85.065,104.804c0,0,8.199,2.992,12.299,2.992"/>
						<path fill="none" stroke="#000000" stroke-miterlimit="10" d="M58.009,97.817c0,0,17.218,1.994,18.038,3.991"/>
						<path fill="none" stroke="#000000" stroke-miterlimit="10" d="M23.572,93.824c0,0,16.398,0.999,20.498-4.989"/>
						<path fill="none" stroke="#000000" stroke-miterlimit="10" d="M5.534,90.831c0,0,16.398-2.994,23.777-2.994"/>
						<path fill="none" stroke="#000000" stroke-miterlimit="10" d="M-1.845,88.835c0,0,29.517-6.984,41.815-8.98"/>
						<path fill="none" stroke="#000000" stroke-miterlimit="10" d="M-2.665,84.845c0,0,11.479-4.99,27.877-2.994"/>
						<path fill="none" stroke="#000000" stroke-miterlimit="10" d="M-2.665,70.872c0,0,39.356,0.998,50.835-3.992"/>
						<path fill="none" stroke="#000000" stroke-miterlimit="10" d="M44.07,71.87c0,0,15.578,0.998,23.777,4.989"/>
						<path fill="none" stroke="#000000" stroke-miterlimit="10" d="M40.791,73.866c0,0,22.137,2.993,33.615,0"/>
						<path fill="none" stroke="#000000" stroke-miterlimit="10" d="M112.123,72.868c-9.019,10.977-46.735,15.967-46.735,15.967
							s-8.199-3.99-14.759-5.988"/>
						<path fill="none" stroke="#000000" stroke-miterlimit="10" d="M107.203,96.819c0,0,24.598-14.969,31.156-13.973"/>
						<path fill="none" stroke="#000000" stroke-miterlimit="10" d="M118.682,95.822c0,0,15.578-4.991,19.678-9.982"/>
						<path fill="none" stroke="#000000" stroke-miterlimit="10" d="M108.843,79.854c0,0,16.398-13.971,29.517-11.977"/>
						<path fill="none" stroke="#000000" stroke-miterlimit="10" d="M126.061,79.854c0,0,10.659-3.992,13.119-6.986"/>
						<path fill="none" stroke="#000000" stroke-miterlimit="10" d="M121.142,80.851c0,0,13.938-8.98,17.218-8.98"/>
						<path fill="none" stroke="#000000" stroke-miterlimit="10" d="M121.142,61.89c0,0,14.759,0,18.038-0.997
							c5.03-1.53-26.237,19.958-26.237,19.958"/>
						<path fill="none" stroke="#000000" stroke-miterlimit="10" d="M126.061,64.886c0,0,9.84-0.998,13.119-5.99
							c0,0-27.057-25.943-40.996-24.945"/>
						<path fill="none" stroke="#000000" stroke-miterlimit="10" d="M125.241,57.899c0,0,9.839,1.996,13.118,7.984"/>
						<path fill="none" stroke="#000000" stroke-miterlimit="10" d="M98.184,66.88c0,0,21.318,1.998,23.777,4.99"/>
						<path fill="none" stroke="#000000" stroke-miterlimit="10" d="M58.009,65.884c0,0,44.274-7.984,45.095-11.976"/>
						<path fill="none" stroke="#000000" stroke-miterlimit="10" d="M49.81,70.872c0,0,18.038-18.961,45.915-18.961"/>
						<path fill="none" stroke="#000000" stroke-miterlimit="10" d="M72.767,58.896c0,0,34.437-13.969,39.356-16.963"/>
						<path fill="none" stroke="#000000" stroke-miterlimit="10" d="M79.326,58.896c0,0,52.475-12.973,53.294-20.955"/>
						<path fill="none" stroke="#000000" stroke-miterlimit="10" d="M112.942,33.95c0,0,21.317,13.969,25.417,17.961
							s-15.578-16.966-15.578-16.966"/>
						<path fill="none" stroke="#000000" stroke-miterlimit="10" d="M126.881,33.95c0,0,7.379,6.984,11.479,6.984"/>
						<path fill="none" stroke="#000000" stroke-miterlimit="10" d="M139.18,37.94c0,0,4.1,10.977-16.398,17.963"/>
						<path fill="none" stroke="#000000" stroke-miterlimit="10" d="M65.388,105.802c0,0-20.498-1.998-30.337,3.989"/>
						<path fill="none" stroke="#000000" stroke-miterlimit="10" d="M-2.665,102.807c0,0,40.996,0.997,50.835-4.989"/>
						<path fill="none" stroke="#000000" stroke-miterlimit="10" d="M14.554,105.802c0,0,21.317,0,27.876-0.998"/>
						<path fill="none" stroke="#000000" stroke-miterlimit="10" d="M-3.484,61.89c0,0,46.734-6.986,51.654-8.979"/>
						<path fill="none" stroke="#000000" stroke-miterlimit="10" d="M68.667,57.899c0,0-59.033,0.996-60.673-8.982"/>
						<path fill="none" stroke="#000000" stroke-miterlimit="10" d="M78.506,51.911c0,0-40.995-9.979-37.715-17.961"/>
						<path fill="none" stroke="#000000" stroke-miterlimit="10" d="M84.246,51.911c0,0-37.717-14.971-36.076-17.961"/>
						<path fill="none" stroke="#000000" stroke-miterlimit="10" d="M99.824,39.938c0,0-52.475,8.979-54.114,15.965"/>
						<path fill="none" stroke="#000000" stroke-miterlimit="10" d="M68.667,55.903c0,0-25.417-15.965-45.915-2.993"/>
						<path fill="none" stroke="#000000" stroke-miterlimit="10" d="M30.951,68.878c0,0-33.616-14.97-33.616-22.955"/>
						<path fill="none" stroke="#000000" stroke-miterlimit="10" d="M32.592,33.95c0,0-30.337,2.99-36.076,4.988"/>
						<path fill="none" stroke="#000000" stroke-miterlimit="10" d="M-2.665,35.945c0,0,22.138,18.958,27.877,18.958"/>
						<path fill="none" stroke="#000000" stroke-miterlimit="10" d="M-2.665,40.935c0,0,22.138,2.994,29.517,7.982"/>
						<path fill="none" stroke="#000000" stroke-miterlimit="10" d="M44.89,41.933c0,0-34.436,4.99-42.635-6.987"/>
						<path fill="none" stroke="#000000" stroke-miterlimit="10" d="M57.188,63.888c0,0-21.317-1-27.877,1.996"/>
						<path fill="none" stroke="#000000" stroke-miterlimit="10" d="M32.592,91.829c0,0-13.119-0.998-13.119-2.994"/>
						<path fill="none" stroke="#000000" stroke-miterlimit="10" d="M61.288,102.807c0,0-11.479-12.974-15.578-13.972"/>
						<path fill="none" stroke="#000000" stroke-miterlimit="10" d="M96.544,100.812c0,0-23.777-5.988-24.597-11.977"/>
						<path fill="none" stroke="#000000" stroke-miterlimit="10" d="M114.582,85.84c0,0-19.677,3.993-28.696,9.982"/>
						<path fill="none" stroke="#000000" stroke-miterlimit="10" d="M116.223,77.859c0,0-11.479-4.991-18.858-5.989"/>
						<path fill="none" stroke="#000000" stroke-miterlimit="10" d="M80.966,79.854c0,0,20.498-3.992,23.777-4.992"/>
						<path fill="none" stroke="#000000" stroke-miterlimit="10" d="M-1.025,73.866c0,0,10.659-5.988,17.219-5.988"/>
						<path fill="none" stroke="#000000" stroke-miterlimit="10" d="M44.07,50.913c0,0-11.479,1.997-17.219,11.975"/>
						<path fill="none" stroke="#000000" stroke-miterlimit="10" d="M-2.665,58.896c0,0,26.237-7.982,26.237-10.977"/>
						<path fill="none" stroke="#000000" stroke-miterlimit="10" d="M-2.665,54.903c0,0,20.498-4.986,21.317-7.98"/>
						<path fill="none" stroke="#000000" stroke-miterlimit="10" d="M25.212,35.945c0,0,24.598,1.995,27.877,4.989"/>
						<path fill="none" stroke="#000000" stroke-miterlimit="10" d="M69.487,33.95c0,0,7.379,3.99,15.578,4.988"/>
						<path fill="none" stroke="#000000" stroke-miterlimit="10" d="M94.084,33.95c0,0-22.957,3.99-26.236,5.988"/>
					</g>
					<g>
						<path fill="none" stroke="#000000" stroke-miterlimit="10" d="M139.18,164.68c0,0-118.887-1.997-141.845-16.964"/>
						<path fill="none" stroke="#000000" stroke-miterlimit="10" d="M139.18,138.731c0,0-137.745-6.986-141.845,5.989"/>
						<path fill="none" stroke="#000000" stroke-miterlimit="10" d="M139.18,115.78c0,0-85.271,11.974-93.47,20.956"/>
						<path fill="none" stroke="#000000" stroke-miterlimit="10" d="M-2.665,109.791c0,0,81.171,7.985,94.29,13.973"/>
						<path fill="none" stroke="#000000" stroke-miterlimit="10" d="M-2.665,99.812c0,0,95.11,9.979,141.845,7.984"/>
						<path fill="none" stroke="#000000" stroke-miterlimit="10" d="M-2.665,93.824c0,0,140.205,8.982,141.845-0.997"/>
						<path fill="none" stroke="#000000" stroke-miterlimit="10" d="M139.18,83.845c0,0-145.124,1.995-141.845-8.982
							c0,0,25.417-3.99,35.257,0"/>
						<line fill="none" stroke="#000000" stroke-miterlimit="10" x1="139.18" y1="73.866" x2="20.293" y2="80.851"/>
						<path fill="none" stroke="#000000" stroke-miterlimit="10" d="M139.18,63.888c0,0-59.854-20.957-141.845-1.998"/>
						<path fill="none" stroke="#000000" stroke-miterlimit="10" d="M-2.665,69.875c0,0,107.408-7.985,110.688-11.976"/>
						<path fill="none" stroke="#000000" stroke-miterlimit="10" d="M139.18,41.933c0,0-120.527-8.98-141.845,3.99"/>
						<path fill="none" stroke="#000000" stroke-miterlimit="10" d="M139.18,149.71c0,0-68.053,3.99-81.171,10.978"/>
						<path fill="none" stroke="#000000" stroke-miterlimit="10" d="M138.359,156.694c0,0-41.815-0.996-50.834-5.986
							c-9.02-4.99-64.773,0-68.873,2.992"/>
						<path fill="none" stroke="#000000" stroke-miterlimit="10" d="M20.293,138.731c7.334,0.994,7.122,1.891,45.914,17.963
							c0,0,26.239-9.979,45.916-7.981"/>
						<line fill="none" stroke="#000000" stroke-miterlimit="10" x1="-2.665" y1="122.767" x2="64.568" y2="128.754"/>
						<line fill="none" stroke="#000000" stroke-miterlimit="10" x1="-2.665" y1="131.745" x2="49.81" y2="133.743"/>
						<path fill="none" stroke="#000000" stroke-miterlimit="10" d="M-2.665,128.754c0,0,37.716,1.994,46.735-1"/>
						<path fill="none" stroke="#000000" stroke-miterlimit="10" d="M-2.665,117.776c0,0,17.219,4.99,24.598,6.984"/>
						<path fill="none" stroke="#000000" stroke-miterlimit="10" d="M7.174,151.705c0,0,26.237-7.982,31.977-6.984
							c0,0,17.219-6.987,22.958-5.989"/>
						<path fill="none" stroke="#000000" stroke-miterlimit="10" d="M13.733,153.7c0,0,18.038-6.984,27.058-6.984"/>
						<path fill="none" stroke="#000000" stroke-miterlimit="10" d="M-2.665,145.718c0,0,31.977-1.995,34.437-2.994"/>
						<path fill="none" stroke="#000000" stroke-miterlimit="10" d="M0.615,149.71c0,0,13.938-3.992,22.137-2.994"/>
						<path fill="none" stroke="#000000" stroke-miterlimit="10" d="M7.174,140.728c0,0,12.299,0.998,19.678,0"/>
						<path fill="none" stroke="#000000" stroke-miterlimit="10" d="M120.321,163.681c0,0,17.219-7.982,18.038-11.976"/>
						<path fill="none" stroke="#000000" stroke-miterlimit="10" d="M128.521,157.694c0,0-27.057-20.958-41.815-20.958"/>
						<path fill="none" stroke="#000000" stroke-miterlimit="10" d="M117.861,159.688c0,0,13.119-6.985,18.039-6.985"/>
						<path fill="none" stroke="#000000" stroke-miterlimit="10" d="M115.402,154.7c0,0,17.218-8.982,22.957-13.973"/>
						<path fill="none" stroke="#000000" stroke-miterlimit="10" d="M125.241,154.7c0,0,11.479-9.979,13.938-9.979"/>
						<path fill="none" stroke="#000000" stroke-miterlimit="10" d="M138.359,147.716c0,0-44.275-7.985-57.394,0.997"/>
						<path fill="none" stroke="#000000" stroke-miterlimit="10" d="M4.715,162.683c0,0,69.691-14.967,74.611-25.946"/>
						<path fill="none" stroke="#000000" stroke-miterlimit="10" d="M61.288,154.7c0,0,63.953-34.928,77.892-32.934"/>
						<path fill="none" stroke="#000000" stroke-miterlimit="10" d="M-2.665,154.7c0,0,36.896,5.987,45.915,11.975"/>
						<path fill="none" stroke="#000000" stroke-miterlimit="10" d="M-2.665,151.705c0,0,16.398,3.993,18.038,4.989"/>
						<path fill="none" stroke="#000000" stroke-miterlimit="10" d="M30.132,160.688c0,0,36.896-6.987,45.915-10.978"/>
						<path fill="none" stroke="#000000" stroke-miterlimit="10" d="M30.132,151.705c0,0,26.237,4.989,31.156,6.985"/>
						<path fill="none" stroke="#000000" stroke-miterlimit="10" d="M24.393,152.703c0,0,23.777,7.984,25.417,9.979"/>
						<path fill="none" stroke="#000000" stroke-miterlimit="10" d="M31.771,141.726c0,0,31.156-3.992,35.256-11.975"/>
						<path fill="none" stroke="#000000" stroke-miterlimit="10" d="M33.411,135.738c0,0,17.218,9.979,27.877,11.978"/>
						<path fill="none" stroke="#000000" stroke-miterlimit="10" d="M17.833,134.739c0,0,22.138,4.991,31.977,14.971"/>
						<path fill="none" stroke="#000000" stroke-miterlimit="10" d="M-2.665,140.728c0,0,34.437-11.974,53.294-11.974"/>
						<path fill="none" stroke="#000000" stroke-miterlimit="10" d="M81.786,143.723c0,0-28.697-10.979-36.076-12.975"/>
						<path fill="none" stroke="#000000" stroke-miterlimit="10" d="M58.828,144.721c0,0,29.518-14.97,37.716-15.967
							c0,0,25.417,3.989,31.977,7.982"/>
						<path fill="none" stroke="#000000" stroke-miterlimit="10" d="M124.421,148.713c0,0-23.777-13.974-40.175-14.97"/>
						<path fill="none" stroke="#000000" stroke-miterlimit="10" d="M85.886,145.718c0,0,41.815-14.97,53.294-15.967"/>
						<path fill="none" stroke="#000000" stroke-miterlimit="10" d="M103.924,147.716c0,0,26.236-7.985,34.436-11.978"/>
						<path fill="none" stroke="#000000" stroke-miterlimit="10" d="M124.421,144.721c0,0,9.02-12.976,14.759-12.976"/>
						<path fill="none" stroke="#000000" stroke-miterlimit="10" d="M92.445,134.739c0,0,39.355-7.98,46.734-7.98"/>
						<path fill="none" stroke="#000000" stroke-miterlimit="10" d="M90.805,131.745c0,0,28.697,2.994,31.977,11.978"/>
						<path fill="none" stroke="#000000" stroke-miterlimit="10" d="M67.848,147.716c0,0,14.758-4.992,15.578-8.984"/>
						<path fill="none" stroke="#000000" stroke-miterlimit="10" d="M-2.665,135.738c0,0,14.759-2.995,33.616-8.979"/>
						<path fill="none" stroke="#000000" stroke-miterlimit="10" d="M-2.665,137.733c0,0,14.759-2.994,17.219-2.994"/>
						<path fill="none" stroke="#000000" stroke-miterlimit="10" d="M139.18,112.786l-41.815,11.975
							c-68.053,25.947-71.332,38.92-71.332,38.92"/>
						<path fill="none" stroke="#000000" stroke-miterlimit="10" d="M89.165,108.794c0,0,41.816,12.973,49.195,14.97"/>
						<path fill="none" stroke="#000000" stroke-miterlimit="10" d="M86.705,120.769c0,0,46.735-6.984,52.475-9.979"/>
						<path fill="none" stroke="#000000" stroke-miterlimit="10" d="M67.027,130.748c0,0,9.02-2.994,18.038-1.994"/>
						<path fill="none" stroke="#000000" stroke-miterlimit="10" d="M64.568,133.743c0,0,8.198-1,13.938-1.998"/>
						<path fill="none" stroke="#000000" stroke-miterlimit="10" d="M26.852,136.736c0,0,41.815-13.97,46.735-15.968"/>
						<path fill="none" stroke="#000000" stroke-miterlimit="10" d="M62.928,127.754c0,0,31.977-12.973,40.176-12.973"/>
						<path fill="none" stroke="#000000" stroke-miterlimit="10" d="M-1.025,127.754c0,0,37.717-12.973,45.096-21.952"/>
						<path fill="none" stroke="#000000" stroke-miterlimit="10" d="M-2.665,115.78c0,0,27.877,0.996,45.915,9.979"/>
						<path fill="none" stroke="#000000" stroke-miterlimit="10" d="M7.994,119.772c0,0,34.436,0.996,44.275-2.996"/>
						<path fill="none" stroke="#000000" stroke-miterlimit="10" d="M39.971,123.764c0,0,47.555-5.987,56.573-10.978"/>
						<path fill="none" stroke="#000000" stroke-miterlimit="10" d="M46.529,126.759c0,0,26.237-10.979,38.536-12.975"/>
						<path fill="none" stroke="#000000" stroke-miterlimit="10" d="M100.644,127.754c0,0,31.977-9.978,37.716-8.98"/>
						<path fill="none" stroke="#000000" stroke-miterlimit="10" d="M107.203,129.751c0,0,14.758-7.984,21.317-7.984"/>
						<path fill="none" stroke="#000000" stroke-miterlimit="10" d="M117.042,126.759c0,0-13.118-6.986-27.877-11.978"/>
						<path fill="none" stroke="#000000" stroke-miterlimit="10" d="M103.104,131.745c0,0-5.739-9.979-12.299-11.973"/>
						<path fill="none" stroke="#000000" stroke-miterlimit="10" d="M127.701,141.726c0,0,5.739,0,9.019,0"/>
						<path fill="none" stroke="#000000" stroke-miterlimit="10" d="M-2.665,112.786c0,0,59.854-3.992,78.712,2.994"/>
						<path fill="none" stroke="#000000" stroke-miterlimit="10" d="M11.273,116.776c0,0,51.654-0.996,64.773-8.98"/>
						<path fill="none" stroke="#000000" stroke-miterlimit="10" d="M-2.665,106.797c0,0,47.555-1.993,59.034,3.992"/>
						<path fill="none" stroke="#000000" stroke-miterlimit="10" d="M9.634,110.789c0,0,54.935-8.98,68.872-11.975"/>
						<path fill="none" stroke="#000000" stroke-miterlimit="10" d="M30.951,111.788c0,0-8.199-7.984-33.616-7.984"/>
						<path fill="none" stroke="#000000" stroke-miterlimit="10" d="M89.984,156.694c0,0,13.119-16.964,14.759-16.964"/>
						<path fill="none" stroke="#000000" stroke-miterlimit="10" d="M132.62,134.739c0,0-18.038,3.992-22.957,8.983"/>
						<path fill="none" stroke="#000000" stroke-miterlimit="10" d="M70.307,110.789c0,0,45.916-2.993,52.475,4.991"/>
						<path fill="none" stroke="#000000" stroke-miterlimit="10" d="M138.359,105.802c0,0-47.555-8.982-60.673,0.995"/>
						<path fill="none" stroke="#000000" stroke-miterlimit="10" d="M94.904,106.797c0,0,37.716-5.985,44.275-4.988"/>
						<path fill="none" stroke="#000000" stroke-miterlimit="10" d="M118.682,112.786c0,0,20.498-3.992,21.318-6.984"/>
						<path fill="none" stroke="#000000" stroke-miterlimit="10" d="M108.023,113.784c0,0,22.137-6.987,25.417-8.98"/>
						<path fill="none" stroke="#000000" stroke-miterlimit="10" d="M57.188,111.788c0,0,22.958-13.971,39.355-16.965
							c16.398-2.994,42.636-7.983,42.636-7.983"/>
						<path fill="none" stroke="#000000" stroke-miterlimit="10" d="M-1.025,124.761c0,0,18.039-25.946,37.717-26.943"/>
						<path fill="none" stroke="#000000" stroke-miterlimit="10" d="M-2.665,86.84c0,0,41.815-1.995,54.114,16.964"/>
						<path fill="none" stroke="#000000" stroke-miterlimit="10" d="M-2.665,89.833c0,0,55.754,1.996,66.413-3.993"/>
						<path fill="none" stroke="#000000" stroke-miterlimit="10" d="M89.984,96.819c0,0-27.876-14.969-48.374-13.973"/>
						<path fill="none" stroke="#000000" stroke-miterlimit="10" d="M126.881,83.845c0,0-77.071-26.943-96.749-26.943"/>
						<path fill="none" stroke="#000000" stroke-miterlimit="10" d="M22.752,79.854c0,0,87.73-12.975,97.569-19.959"/>
						<path fill="none" stroke="#000000" stroke-miterlimit="10" d="M127.701,59.896c0,0-59.854-33.93-72.973-31.935"/>
						<path fill="none" stroke="#000000" stroke-miterlimit="10" d="M15.373,57.899c0,0,40.176-26.945,50.834-26.945"/>
						<path fill="none" stroke="#000000" stroke-miterlimit="10" d="M62.108,53.908c0,0-45.915-25.947-58.214-25.947"/>
						<path fill="none" stroke="#000000" stroke-miterlimit="10" d="M52.27,46.923c0,0,74.611-1.996,78.711-5.988"/>
						<path fill="none" stroke="#000000" stroke-miterlimit="10" d="M74.406,62.888c0,0,57.395-12.971,64.773-13.971"/>
						<path fill="none" stroke="#000000" stroke-miterlimit="10" d="M4.715,69.875c0,0,75.432,2.993,81.99,6.984"/>
						<path fill="none" stroke="#000000" stroke-miterlimit="10" d="M67.848,96.819c0,0,32.796-6.986,40.995-11.975"/>
						<path fill="none" stroke="#000000" stroke-miterlimit="10" d="M45.71,95.822c0,0,50.015-17.963,60.673-17.963"/>
						<path fill="none" stroke="#000000" stroke-miterlimit="10" d="M-2.665,50.913c0,0,32.797,17.965,54.935,20.957"/>
						<path fill="none" stroke="#000000" stroke-miterlimit="10" d="M-2.665,37.94c0,0,40.176-5.987,49.194-6.986
							c9.02-0.998,67.232,17.963,76.252,20.957"/>
						<path fill="none" stroke="#000000" stroke-miterlimit="10" d="M77.687,33.95c0,0,54.114-3.994,61.493-3.994"/>
						<path fill="none" stroke="#000000" stroke-miterlimit="10" d="M58.009,61.89c0,0,81.171-13.971,81.991-28.938"/>
						<path fill="none" stroke="#000000" stroke-miterlimit="10" d="M76.866,28.96c0,0,41.815,9.979,62.313,8.98"/>
						<path fill="none" stroke="#000000" stroke-miterlimit="10" d="M88.346,62.888c0,0,39.355,4.99,50.834,5.99"/>
						<path fill="none" stroke="#000000" stroke-miterlimit="10" d="M77.687,62.888c0,0,40.175,16.967,61.493,17.963"/>
						<path fill="none" stroke="#000000" stroke-miterlimit="10" d="M105.563,97.817c0,0,20.497-6.986,33.616-6.986"/>
						<path fill="none" stroke="#000000" stroke-miterlimit="10" d="M80.966,84.845c0,0,50.835,11.975,57.394,13.97
							c6.843,2.083-51.654,15.967-51.654,15.967"/>
						<path fill="none" stroke="#000000" stroke-miterlimit="10" d="M85.886,102.807c0,0,36.075-2.995,40.995-4.989"/>
						<path fill="none" stroke="#000000" stroke-miterlimit="10" d="M85.065,98.814c0,0,8.199,2.994,12.299,2.994"/>
						<path fill="none" stroke="#000000" stroke-miterlimit="10" d="M58.009,91.829c0,0,17.218,1.995,18.038,3.993"/>
						<path fill="none" stroke="#000000" stroke-miterlimit="10" d="M23.572,87.837c0,0,16.398,0.998,20.498-4.99"/>
						<path fill="none" stroke="#000000" stroke-miterlimit="10" d="M5.534,84.845c0,0,16.398-2.994,23.777-2.994"/>
						<path fill="none" stroke="#000000" stroke-miterlimit="10" d="M-1.845,82.847c0,0,29.517-6.984,41.815-8.98"/>
						<path fill="none" stroke="#000000" stroke-miterlimit="10" d="M-2.665,78.854c0,0,11.479-4.988,27.877-2.992"/>
						<path fill="none" stroke="#000000" stroke-miterlimit="10" d="M-2.665,64.886c0,0,39.356,0.998,50.835-3.993"/>
						<path fill="none" stroke="#000000" stroke-miterlimit="10" d="M44.07,65.884c0,0,15.578,0.996,23.777,4.988"/>
						<path fill="none" stroke="#000000" stroke-miterlimit="10" d="M40.791,67.878c0,0,22.137,2.994,33.615,0"/>
						<path fill="none" stroke="#000000" stroke-miterlimit="10" d="M112.123,66.88c-9.019,10.979-46.735,15.967-46.735,15.967
							s-8.199-3.992-14.759-5.987"/>
						<path fill="none" stroke="#000000" stroke-miterlimit="10" d="M107.203,90.831c0,0,24.598-14.969,31.156-13.972"/>
						<path fill="none" stroke="#000000" stroke-miterlimit="10" d="M118.682,89.833c0,0,15.578-4.988,19.678-9.979"/>
						<path fill="none" stroke="#000000" stroke-miterlimit="10" d="M108.843,73.866c0,0,16.398-13.971,29.517-11.977"/>
						<path fill="none" stroke="#000000" stroke-miterlimit="10" d="M126.061,73.866c0,0,10.659-3.991,13.119-6.986"/>
						<path fill="none" stroke="#000000" stroke-miterlimit="10" d="M121.142,74.862c0,0,13.938-8.979,17.218-8.979"/>
						<path fill="none" stroke="#000000" stroke-miterlimit="10" d="M121.142,55.903c0,0,14.759,0,18.038-1
							c5.03-1.53-26.237,19.959-26.237,19.959"/>
						<path fill="none" stroke="#000000" stroke-miterlimit="10" d="M126.061,58.896c0,0,9.84-0.996,13.119-5.985
							c0,0-27.057-25.944-40.996-24.949"/>
						<path fill="none" stroke="#000000" stroke-miterlimit="10" d="M125.241,51.911c0,0,9.839,1.997,13.118,7.984"/>
						<path fill="none" stroke="#000000" stroke-miterlimit="10" d="M98.184,60.893c0,0,21.318,1.995,23.777,4.991"/>
						<path fill="none" stroke="#000000" stroke-miterlimit="10" d="M58.009,59.896c0,0,44.274-7.984,45.095-11.977"/>
						<path fill="none" stroke="#000000" stroke-miterlimit="10" d="M49.81,64.886c0,0,18.038-18.963,45.915-18.963"/>
						<path fill="none" stroke="#000000" stroke-miterlimit="10" d="M72.767,52.91c0,0,34.437-13.972,39.356-16.965"/>
						<path fill="none" stroke="#000000" stroke-miterlimit="10" d="M79.326,52.91c0,0,52.475-12.972,53.294-20.957"/>
						<path fill="none" stroke="#000000" stroke-miterlimit="10" d="M112.942,27.961c0,0,21.317,13.972,25.417,17.962
							c4.1,3.994-15.578-16.963-15.578-16.963"/>
						<path fill="none" stroke="#000000" stroke-miterlimit="10" d="M126.881,27.961c0,0,7.379,6.984,11.479,6.984"/>
						<path fill="none" stroke="#000000" stroke-miterlimit="10" d="M139.18,31.953c0,0,4.1,10.978-16.398,17.964"/>
						<path fill="none" stroke="#000000" stroke-miterlimit="10" d="M65.388,99.812c0,0-20.498-1.994-30.337,3.992"/>
						<path fill="none" stroke="#000000" stroke-miterlimit="10" d="M-2.665,96.819c0,0,40.996,0.998,50.835-4.99"/>
						<path fill="none" stroke="#000000" stroke-miterlimit="10" d="M14.554,99.812c0,0,21.317,0,27.876-0.997"/>
						<path fill="none" stroke="#000000" stroke-miterlimit="10" d="M-3.484,55.903c0,0,46.734-6.986,51.654-8.98"/>
						<path fill="none" stroke="#000000" stroke-miterlimit="10" d="M68.667,51.911c0,0-59.033,0.999-60.673-8.98"/>
						<path fill="none" stroke="#000000" stroke-miterlimit="10" d="M78.506,45.923c0,0-40.995-9.978-37.715-17.962"/>
						<path fill="none" stroke="#000000" stroke-miterlimit="10" d="M84.246,45.923c0,0-37.717-14.969-36.076-17.962"/>
						<path fill="none" stroke="#000000" stroke-miterlimit="10" d="M99.824,33.95c0,0-52.475,8.98-54.114,15.967"/>
						<path fill="none" stroke="#000000" stroke-miterlimit="10" d="M68.667,49.917c0,0-25.417-15.967-45.915-2.994"/>
						<path fill="none" stroke="#000000" stroke-miterlimit="10" d="M30.951,62.888c0,0-33.616-14.969-33.616-22.949"/>
						<path fill="none" stroke="#000000" stroke-miterlimit="10" d="M32.592,27.961c0,0-30.337,2.993-36.076,4.991"/>
						<path fill="none" stroke="#000000" stroke-miterlimit="10" d="M-2.665,29.956c0,0,22.138,18.961,27.877,18.961"/>
						<path fill="none" stroke="#000000" stroke-miterlimit="10" d="M-2.665,34.945c0,0,22.138,2.995,29.517,7.985"/>
						<path fill="none" stroke="#000000" stroke-miterlimit="10" d="M44.89,35.945c0,0-34.436,4.989-42.635-6.985"/>
						<path fill="none" stroke="#000000" stroke-miterlimit="10" d="M57.188,57.899c0,0-21.317-0.998-27.877,1.996"/>
						<path fill="none" stroke="#000000" stroke-miterlimit="10" d="M32.592,85.84c0,0-13.119-0.995-13.119-2.993"/>
						<path fill="none" stroke="#000000" stroke-miterlimit="10" d="M61.288,96.819c0,0-11.479-12.975-15.578-13.973"/>
						<path fill="none" stroke="#000000" stroke-miterlimit="10" d="M96.544,94.823c0,0-23.777-5.988-24.597-11.977"/>
						<path fill="none" stroke="#000000" stroke-miterlimit="10" d="M114.582,79.854c0,0-19.677,3.99-28.696,9.979"/>
						<path fill="none" stroke="#000000" stroke-miterlimit="10" d="M116.223,71.87c0,0-11.479-4.99-18.858-5.986"/>
						<path fill="none" stroke="#000000" stroke-miterlimit="10" d="M80.966,73.866c0,0,20.498-3.991,23.777-4.988"/>
						<path fill="none" stroke="#000000" stroke-miterlimit="10" d="M-1.025,67.878c0,0,10.659-5.988,17.219-5.988"/>
						<path fill="none" stroke="#000000" stroke-miterlimit="10" d="M44.07,44.927c0,0-11.479,1.996-17.219,11.975"/>
						<path fill="none" stroke="#000000" stroke-miterlimit="10" d="M-2.665,52.91c0,0,26.237-7.983,26.237-10.978"/>
						<path fill="none" stroke="#000000" stroke-miterlimit="10" d="M-2.665,48.917c0,0,20.498-4.988,21.317-7.982"/>
						<path fill="none" stroke="#000000" stroke-miterlimit="10" d="M25.212,29.956c0,0,24.598,1.997,27.877,4.989"/>
						<path fill="none" stroke="#000000" stroke-miterlimit="10" d="M69.487,27.961c0,0,7.379,3.992,15.578,4.991"/>
						<path fill="none" stroke="#000000" stroke-miterlimit="10" d="M94.084,27.961c0,0-22.957,3.992-26.236,5.989"/>
					</g>
				</g>
				<g clip-path="url(#SVGID_4_)">
					<g>
						<path fill="none" stroke="#000000" stroke-miterlimit="10" d="M139.18,169.585c0,0-118.887-1.996-141.845-16.968"/>
						<path fill="none" stroke="#000000" stroke-miterlimit="10" d="M139.18,143.638c0,0-137.745-6.986-141.845,5.987"/>
						<path fill="none" stroke="#000000" stroke-miterlimit="10" d="M139.18,120.684c0,0-85.271,11.976-93.47,20.959"/>
						<path fill="none" stroke="#000000" stroke-miterlimit="10" d="M-2.665,114.698c0,0,81.171,7.982,94.29,13.97"/>
						<path fill="none" stroke="#000000" stroke-miterlimit="10" d="M-2.665,104.716c0,0,95.11,9.982,141.845,7.985"/>
						<path fill="none" stroke="#000000" stroke-miterlimit="10" d="M-2.665,98.729c0,0,140.205,8.982,141.845-0.998"/>
						<path fill="none" stroke="#000000" stroke-miterlimit="10" d="M139.18,88.751c0,0-145.124,1.996-141.845-8.981
							c0,0,25.417-3.991,35.257,0"/>
						<line fill="none" stroke="#000000" stroke-miterlimit="10" x1="139.18" y1="78.77" x2="20.293" y2="85.757"/>
						<path fill="none" stroke="#000000" stroke-miterlimit="10" d="M139.18,68.794c0,0-59.854-20.959-141.845-1.998"/>
						<path fill="none" stroke="#000000" stroke-miterlimit="10" d="M-2.665,74.78c0,0,107.408-7.984,110.688-11.979"/>
						<path fill="none" stroke="#000000" stroke-miterlimit="10" d="M139.18,46.838c0,0-120.527-8.981-141.845,3.991"/>
						<path fill="none" stroke="#000000" stroke-miterlimit="10" d="M139.18,154.615c0,0-68.053,3.989-81.171,10.977"/>
						<path fill="none" stroke="#000000" stroke-miterlimit="10" d="M138.359,161.601c0,0-41.815-0.998-50.834-5.988
							c-9.02-4.988-64.773,0-68.873,2.992"/>
						<path fill="none" stroke="#000000" stroke-miterlimit="10" d="M20.293,143.638c7.334,0.99,7.122,1.89,45.914,17.963
							c0,0,26.239-9.98,45.916-7.985"/>
						<line fill="none" stroke="#000000" stroke-miterlimit="10" x1="-2.665" y1="127.668" x2="64.568" y2="133.658"/>
						<line fill="none" stroke="#000000" stroke-miterlimit="10" x1="-2.665" y1="136.651" x2="49.81" y2="138.647"/>
						<path fill="none" stroke="#000000" stroke-miterlimit="10" d="M-2.665,133.658c0,0,37.716,1.995,46.735-0.999"/>
						<path fill="none" stroke="#000000" stroke-miterlimit="10" d="M-2.665,122.681c0,0,17.219,4.987,24.598,6.985"/>
						<path fill="none" stroke="#000000" stroke-miterlimit="10" d="M7.174,156.609c0,0,26.237-7.981,31.977-6.984
							c0,0,17.219-6.985,22.958-5.987"/>
						<path fill="none" stroke="#000000" stroke-miterlimit="10" d="M13.733,158.604c0,0,18.038-6.984,27.058-6.984"/>
						<path fill="none" stroke="#000000" stroke-miterlimit="10" d="M-2.665,150.624c0,0,31.977-1.996,34.437-2.994"/>
						<path fill="none" stroke="#000000" stroke-miterlimit="10" d="M0.615,154.615c0,0,13.938-3.991,22.137-2.995"/>
						<path fill="none" stroke="#000000" stroke-miterlimit="10" d="M7.174,145.633c0,0,12.299,0.997,19.678,0"/>
						<path fill="none" stroke="#000000" stroke-miterlimit="10" d="M128.521,162.598c0,0-27.057-20.955-41.815-20.955"/>
						<path fill="none" stroke="#000000" stroke-miterlimit="10" d="M115.402,159.604c0,0,17.218-8.98,22.957-13.972"/>
						<path fill="none" stroke="#000000" stroke-miterlimit="10" d="M125.241,159.604c0,0,11.479-9.979,13.938-9.979"/>
						<path fill="none" stroke="#000000" stroke-miterlimit="10" d="M138.359,152.617c0,0-44.275-7.982-57.394,0.998"/>
						<path fill="none" stroke="#000000" stroke-miterlimit="10" d="M4.715,167.589c0,0,69.691-14.972,74.611-25.946"/>
						<path fill="none" stroke="#000000" stroke-miterlimit="10" d="M61.288,159.604c0,0,63.953-34.929,77.892-32.932"/>
						<path fill="none" stroke="#000000" stroke-miterlimit="10" d="M30.132,165.592c0,0,36.896-6.987,45.915-10.977"/>
						<path fill="none" stroke="#000000" stroke-miterlimit="10" d="M31.771,146.63c0,0,31.156-3.99,35.256-11.975"/>
						<path fill="none" stroke="#000000" stroke-miterlimit="10" d="M33.411,140.644c0,0,17.218,9.98,27.877,11.974"/>
						<path fill="none" stroke="#000000" stroke-miterlimit="10" d="M17.833,139.646c0,0,22.138,4.989,31.977,14.97"/>
						<path fill="none" stroke="#000000" stroke-miterlimit="10" d="M-2.665,145.633c0,0,34.437-11.975,53.294-11.975"/>
						<path fill="none" stroke="#000000" stroke-miterlimit="10" d="M81.786,148.628c0,0-28.697-10.978-36.076-12.975"/>
						<path fill="none" stroke="#000000" stroke-miterlimit="10" d="M58.828,149.625c0,0,29.518-14.97,37.716-15.967
							c0,0,25.417,3.992,31.977,7.984"/>
						<path fill="none" stroke="#000000" stroke-miterlimit="10" d="M124.421,153.615c0,0-23.777-13.97-40.175-14.968"/>
						<path fill="none" stroke="#000000" stroke-miterlimit="10" d="M85.886,150.624c0,0,41.815-14.971,53.294-15.969"/>
						<path fill="none" stroke="#000000" stroke-miterlimit="10" d="M103.924,152.617c0,0,26.236-7.982,34.436-11.974"/>
						<path fill="none" stroke="#000000" stroke-miterlimit="10" d="M124.421,149.625c0,0,9.02-12.974,14.759-12.974"/>
						<path fill="none" stroke="#000000" stroke-miterlimit="10" d="M92.445,139.646c0,0,39.355-7.985,46.734-7.985"/>
						<path fill="none" stroke="#000000" stroke-miterlimit="10" d="M90.805,136.651c0,0,28.697,2.994,31.977,11.977"/>
						<path fill="none" stroke="#000000" stroke-miterlimit="10" d="M67.848,152.617c0,0,14.758-4.987,15.578-8.979"/>
						<path fill="none" stroke="#000000" stroke-miterlimit="10" d="M-2.665,140.644c0,0,14.759-2.993,33.616-8.983"/>
						<path fill="none" stroke="#000000" stroke-miterlimit="10" d="M-2.665,142.64c0,0,14.759-2.994,17.219-2.994"/>
						<path fill="none" stroke="#000000" stroke-miterlimit="10" d="M139.18,117.69l-41.815,11.976
							c-68.053,25.946-71.332,38.921-71.332,38.921"/>
						<path fill="none" stroke="#000000" stroke-miterlimit="10" d="M89.165,113.698c0,0,41.816,12.975,49.195,14.97"/>
						<path fill="none" stroke="#000000" stroke-miterlimit="10" d="M86.705,125.675c0,0,46.735-6.986,52.475-9.98"/>
						<path fill="none" stroke="#000000" stroke-miterlimit="10" d="M67.027,135.653c0,0,9.02-2.994,18.038-1.995"/>
						<path fill="none" stroke="#000000" stroke-miterlimit="10" d="M64.568,138.647c0,0,8.198-0.997,13.938-1.996"/>
						<path fill="none" stroke="#000000" stroke-miterlimit="10" d="M26.852,141.643c0,0,41.815-13.975,46.735-15.968"/>
						<path fill="none" stroke="#000000" stroke-miterlimit="10" d="M62.928,132.659c0,0,31.977-12.971,40.176-12.971"/>
						<path fill="none" stroke="#000000" stroke-miterlimit="10" d="M-1.025,132.659c0,0,37.717-12.971,45.096-21.953"/>
						<path fill="none" stroke="#000000" stroke-miterlimit="10" d="M-2.665,120.684c0,0,27.877,1,45.915,9.982"/>
						<path fill="none" stroke="#000000" stroke-miterlimit="10" d="M7.994,124.676c0,0,34.436,0.999,44.275-2.992"/>
						<path fill="none" stroke="#000000" stroke-miterlimit="10" d="M39.971,128.668c0,0,47.555-5.987,56.573-10.978"/>
						<path fill="none" stroke="#000000" stroke-miterlimit="10" d="M46.529,131.66c0,0,26.237-10.977,38.536-12.972"/>
						<path fill="none" stroke="#000000" stroke-miterlimit="10" d="M100.644,132.659c0,0,31.977-9.979,37.716-8.98"/>
						<path fill="none" stroke="#000000" stroke-miterlimit="10" d="M107.203,134.655c0,0,14.758-7.982,21.317-7.982"/>
						<path fill="none" stroke="#000000" stroke-miterlimit="10" d="M117.042,131.66c0,0-13.118-6.984-27.877-11.972"/>
						<path fill="none" stroke="#000000" stroke-miterlimit="10" d="M103.104,136.651c0,0-5.739-9.979-12.299-11.976"/>
						<path fill="none" stroke="#000000" stroke-miterlimit="10" d="M127.701,146.63c0,0,5.739,0,9.019,0"/>
						<path fill="none" stroke="#000000" stroke-miterlimit="10" d="M-2.665,117.69c0,0,59.854-3.992,78.712,2.993"/>
						<path fill="none" stroke="#000000" stroke-miterlimit="10" d="M11.273,121.684c0,0,51.654-1,64.773-8.982"/>
						<path fill="none" stroke="#000000" stroke-miterlimit="10" d="M-2.665,111.702c0,0,47.555-1.996,59.034,3.992"/>
						<path fill="none" stroke="#000000" stroke-miterlimit="10" d="M9.634,115.694c0,0,54.935-8.98,68.872-11.976"/>
						<path fill="none" stroke="#000000" stroke-miterlimit="10" d="M30.951,116.693c0,0-8.199-7.984-33.616-7.984"/>
						<path fill="none" stroke="#000000" stroke-miterlimit="10" d="M89.984,161.601c0,0,13.119-16.966,14.759-16.966"/>
						<path fill="none" stroke="#000000" stroke-miterlimit="10" d="M132.62,139.646c0,0-18.038,3.992-22.957,8.982"/>
						<path fill="none" stroke="#000000" stroke-miterlimit="10" d="M70.307,115.694c0,0,45.916-2.993,52.475,4.989"/>
						<path fill="none" stroke="#000000" stroke-miterlimit="10" d="M138.359,110.706c0,0-47.555-8.982-60.673,0.996"/>
						<path fill="none" stroke="#000000" stroke-miterlimit="10" d="M94.904,111.702c0,0,37.716-5.986,44.275-4.988"/>
						<path fill="none" stroke="#000000" stroke-miterlimit="10" d="M118.682,117.69c0,0,20.498-3.992,21.318-6.984"/>
						<path fill="none" stroke="#000000" stroke-miterlimit="10" d="M108.023,118.688c0,0,22.137-6.986,25.417-8.982"/>
						<path fill="none" stroke="#000000" stroke-miterlimit="10" d="M57.188,116.693c0,0,22.958-13.973,39.355-16.964
							c16.398-2.995,42.636-7.984,42.636-7.984"/>
						<path fill="none" stroke="#000000" stroke-miterlimit="10" d="M-1.025,129.666c0,0,18.039-25.947,37.717-26.945"/>
						<path fill="none" stroke="#000000" stroke-miterlimit="10" d="M-2.665,91.745c0,0,41.815-1.996,54.114,16.964"/>
						<path fill="none" stroke="#000000" stroke-miterlimit="10" d="M-2.665,94.739c0,0,55.754,1.995,66.413-3.992"/>
						<path fill="none" stroke="#000000" stroke-miterlimit="10" d="M89.984,101.724c0,0-27.876-14.97-48.374-13.972"/>
						<path fill="none" stroke="#000000" stroke-miterlimit="10" d="M126.881,88.751c0,0-77.071-26.943-96.749-26.943"/>
						<path fill="none" stroke="#000000" stroke-miterlimit="10" d="M22.752,84.759c0,0,87.73-12.975,97.569-19.959"/>
						<path fill="none" stroke="#000000" stroke-miterlimit="10" d="M127.701,64.8c0,0-59.854-33.928-72.973-31.934"/>
						<path fill="none" stroke="#000000" stroke-miterlimit="10" d="M15.373,62.802c0,0,40.176-26.941,50.834-26.941"/>
						<path fill="none" stroke="#000000" stroke-miterlimit="10" d="M62.108,58.813c0,0-45.915-25.947-58.214-25.947"/>
						<path fill="none" stroke="#000000" stroke-miterlimit="10" d="M52.27,51.825c0,0,74.611-1.994,78.711-5.986"/>
						<path fill="none" stroke="#000000" stroke-miterlimit="10" d="M74.406,67.794c0,0,57.395-12.974,64.773-13.971"/>
						<path fill="none" stroke="#000000" stroke-miterlimit="10" d="M4.715,74.78c0,0,75.432,2.994,81.99,6.986"/>
						<path fill="none" stroke="#000000" stroke-miterlimit="10" d="M67.848,101.724c0,0,32.796-6.984,40.995-11.975"/>
						<path fill="none" stroke="#000000" stroke-miterlimit="10" d="M45.71,100.726c0,0,50.015-17.963,60.673-17.963"/>
						<path fill="none" stroke="#000000" stroke-miterlimit="10" d="M-2.665,55.817c0,0,32.797,17.965,54.935,20.957"/>
						<path fill="none" stroke="#000000" stroke-miterlimit="10" d="M-2.665,42.845c0,0,40.176-5.984,49.194-6.984
							c9.02-0.998,67.232,17.963,76.252,20.957"/>
						<path fill="none" stroke="#000000" stroke-miterlimit="10" d="M77.687,38.853c0,0,54.114-3.99,61.493-3.99"/>
						<path fill="none" stroke="#000000" stroke-miterlimit="10" d="M58.009,66.796c0,0,81.171-13.971,81.991-28.939"/>
						<path fill="none" stroke="#000000" stroke-miterlimit="10" d="M76.866,33.864c0,0,41.815,9.98,62.313,8.98"/>
						<path fill="none" stroke="#000000" stroke-miterlimit="10" d="M88.346,67.794c0,0,39.355,4.99,50.834,5.988"/>
						<path fill="none" stroke="#000000" stroke-miterlimit="10" d="M77.687,67.794c0,0,40.175,16.965,61.493,17.963"/>
						<path fill="none" stroke="#000000" stroke-miterlimit="10" d="M105.563,102.721c0,0,20.497-6.984,33.616-6.984"/>
						<path fill="none" stroke="#000000" stroke-miterlimit="10" d="M80.966,89.749c0,0,50.835,11.975,57.394,13.97
							c6.843,2.083-51.654,15.97-51.654,15.97"/>
						<path fill="none" stroke="#000000" stroke-miterlimit="10" d="M85.886,107.712c0,0,36.075-2.996,40.995-4.991"/>
						<path fill="none" stroke="#000000" stroke-miterlimit="10" d="M85.065,103.719c0,0,8.199,2.995,12.299,2.995"/>
						<path fill="none" stroke="#000000" stroke-miterlimit="10" d="M58.009,96.734c0,0,17.218,1.995,18.038,3.991"/>
						<path fill="none" stroke="#000000" stroke-miterlimit="10" d="M23.572,92.741c0,0,16.398,0.998,20.498-4.989"/>
						<path fill="none" stroke="#000000" stroke-miterlimit="10" d="M5.534,89.749c0,0,16.398-2.995,23.777-2.995"/>
						<path fill="none" stroke="#000000" stroke-miterlimit="10" d="M-1.845,87.752c0,0,29.517-6.985,41.815-8.982"/>
						<path fill="none" stroke="#000000" stroke-miterlimit="10" d="M-2.665,83.759c0,0,11.479-4.989,27.877-2.992"/>
						<path fill="none" stroke="#000000" stroke-miterlimit="10" d="M-2.665,69.789c0,0,39.356,0.998,50.835-3.989"/>
						<path fill="none" stroke="#000000" stroke-miterlimit="10" d="M44.07,70.787c0,0,15.578,0.997,23.777,4.991"/>
						<path fill="none" stroke="#000000" stroke-miterlimit="10" d="M40.791,72.784c0,0,22.137,2.994,33.615,0"/>
						<path fill="none" stroke="#000000" stroke-miterlimit="10" d="M112.123,71.784c-9.019,10.979-46.735,15.968-46.735,15.968
							s-8.199-3.993-14.759-5.985"/>
						<path fill="none" stroke="#000000" stroke-miterlimit="10" d="M107.203,95.736c0,0,24.598-14.97,31.156-13.97"/>
						<path fill="none" stroke="#000000" stroke-miterlimit="10" d="M118.682,94.739c0,0,15.578-4.99,19.678-9.98"/>
						<path fill="none" stroke="#000000" stroke-miterlimit="10" d="M108.843,78.77c0,0,16.398-13.97,29.517-11.974"/>
						<path fill="none" stroke="#000000" stroke-miterlimit="10" d="M126.061,78.77c0,0,10.659-3.989,13.119-6.985"/>
						<path fill="none" stroke="#000000" stroke-miterlimit="10" d="M121.142,79.77c0,0,13.938-8.982,17.218-8.982"/>
						<path fill="none" stroke="#000000" stroke-miterlimit="10" d="M121.142,60.808c0,0,14.759,0,18.038-0.996
							c5.03-1.532-26.237,19.958-26.237,19.958"/>
						<path fill="none" stroke="#000000" stroke-miterlimit="10" d="M126.061,63.802c0,0,9.84-1,13.119-5.986
							c0,0-27.057-25.947-40.996-24.949"/>
						<path fill="none" stroke="#000000" stroke-miterlimit="10" d="M125.241,56.817c0,0,9.839,1.996,13.118,7.982"/>
						<path fill="none" stroke="#000000" stroke-miterlimit="10" d="M98.184,65.8c0,0,21.318,1.994,23.777,4.987"/>
						<path fill="none" stroke="#000000" stroke-miterlimit="10" d="M58.009,64.8c0,0,44.274-7.982,45.095-11.975"/>
						<path fill="none" stroke="#000000" stroke-miterlimit="10" d="M49.81,69.789c0,0,18.038-18.96,45.915-18.96"/>
						<path fill="none" stroke="#000000" stroke-miterlimit="10" d="M72.767,57.815c0,0,34.437-13.971,39.356-16.967"/>
						<path fill="none" stroke="#000000" stroke-miterlimit="10" d="M79.326,57.815c0,0,52.475-12.975,53.294-20.955"/>
						<path fill="none" stroke="#000000" stroke-miterlimit="10" d="M112.942,32.866c0,0,21.317,13.972,25.417,17.963
							s-15.578-16.965-15.578-16.965"/>
						<path fill="none" stroke="#000000" stroke-miterlimit="10" d="M126.881,32.866c0,0,7.379,6.984,11.479,6.984"/>
						<path fill="none" stroke="#000000" stroke-miterlimit="10" d="M139.18,36.86c0,0,4.1,10.975-16.398,17.96"/>
						<path fill="none" stroke="#000000" stroke-miterlimit="10" d="M65.388,104.716c0,0-20.498-1.995-30.337,3.993"/>
						<path fill="none" stroke="#000000" stroke-miterlimit="10" d="M-2.665,101.724c0,0,40.996,0.997,50.835-4.989"/>
						<path fill="none" stroke="#000000" stroke-miterlimit="10" d="M14.554,104.716c0,0,21.317,0,27.876-0.997"/>
						<path fill="none" stroke="#000000" stroke-miterlimit="10" d="M-3.484,60.808c0,0,46.734-6.984,51.654-8.982"/>
						<path fill="none" stroke="#000000" stroke-miterlimit="10" d="M68.667,56.817c0,0-59.033,0.998-60.673-8.982"/>
						<path fill="none" stroke="#000000" stroke-miterlimit="10" d="M78.506,50.829c0,0-40.995-9.98-37.715-17.963"/>
						<path fill="none" stroke="#000000" stroke-miterlimit="10" d="M84.246,50.829c0,0-37.717-14.969-36.076-17.963"/>
						<path fill="none" stroke="#000000" stroke-miterlimit="10" d="M99.824,38.853c0,0-52.475,8.982-54.114,15.968"/>
						<path fill="none" stroke="#000000" stroke-miterlimit="10" d="M68.667,54.82c0,0-25.417-15.968-45.915-2.995"/>
						<path fill="none" stroke="#000000" stroke-miterlimit="10" d="M30.951,67.794c0,0-33.616-14.969-33.616-22.953"/>
						<path fill="none" stroke="#000000" stroke-miterlimit="10" d="M32.592,32.866c0,0-30.337,2.994-36.076,4.99"/>
						<path fill="none" stroke="#000000" stroke-miterlimit="10" d="M-2.665,34.862c0,0,22.138,18.961,27.877,18.961"/>
						<path fill="none" stroke="#000000" stroke-miterlimit="10" d="M-2.665,39.851c0,0,22.138,2.994,29.517,7.984"/>
						<path fill="none" stroke="#000000" stroke-miterlimit="10" d="M44.89,40.849c0,0-34.436,4.99-42.635-6.984"/>
						<path fill="none" stroke="#000000" stroke-miterlimit="10" d="M57.188,62.802c0,0-21.317-0.994-27.877,1.998"/>
						<path fill="none" stroke="#000000" stroke-miterlimit="10" d="M32.592,90.747c0,0-13.119-0.998-13.119-2.995"/>
						<path fill="none" stroke="#000000" stroke-miterlimit="10" d="M61.288,101.724c0,0-11.479-12.973-15.578-13.972"/>
						<path fill="none" stroke="#000000" stroke-miterlimit="10" d="M96.544,99.729c0,0-23.777-5.99-24.597-11.978"/>
						<path fill="none" stroke="#000000" stroke-miterlimit="10" d="M114.582,84.759c0,0-19.677,3.992-28.696,9.98"/>
						<path fill="none" stroke="#000000" stroke-miterlimit="10" d="M116.223,76.774c0,0-11.479-4.99-18.858-5.987"/>
						<path fill="none" stroke="#000000" stroke-miterlimit="10" d="M80.966,78.77c0,0,20.498-3.989,23.777-4.987"/>
						<path fill="none" stroke="#000000" stroke-miterlimit="10" d="M-1.025,72.784c0,0,10.659-5.988,17.219-5.988"/>
						<path fill="none" stroke="#000000" stroke-miterlimit="10" d="M44.07,49.831c0,0-11.479,1.994-17.219,11.977"/>
						<path fill="none" stroke="#000000" stroke-miterlimit="10" d="M-2.665,57.815c0,0,26.237-7.984,26.237-10.978"/>
						<path fill="none" stroke="#000000" stroke-miterlimit="10" d="M-2.665,53.823c0,0,20.498-4.99,21.317-7.984"/>
						<path fill="none" stroke="#000000" stroke-miterlimit="10" d="M25.212,34.862c0,0,24.598,1.998,27.877,4.988"/>
						<path fill="none" stroke="#000000" stroke-miterlimit="10" d="M69.487,32.866c0,0,7.379,3.994,15.578,4.99"/>
						<path fill="none" stroke="#000000" stroke-miterlimit="10" d="M94.084,32.866c0,0-22.957,3.994-26.236,5.986"/>
					</g>
					<g>
						<path fill="none" stroke="#000000" stroke-miterlimit="10" d="M139.18,163.598c0,0-118.887-1.997-141.845-16.968"/>
						<path fill="none" stroke="#000000" stroke-miterlimit="10" d="M139.18,137.65c0,0-137.745-6.984-141.845,5.987"/>
						<path fill="none" stroke="#000000" stroke-miterlimit="10" d="M139.18,114.698c0,0-85.271,11.975-93.47,20.955"/>
						<path fill="none" stroke="#000000" stroke-miterlimit="10" d="M-2.665,108.709c0,0,81.171,7.984,94.29,13.972"/>
						<path fill="none" stroke="#000000" stroke-miterlimit="10" d="M-2.665,98.729c0,0,95.11,9.979,141.845,7.984"/>
						<path fill="none" stroke="#000000" stroke-miterlimit="10" d="M-2.665,92.741c0,0,140.205,8.982,141.845-0.996"/>
						<path fill="none" stroke="#000000" stroke-miterlimit="10" d="M139.18,82.763c0,0-145.124,1.996-141.845-8.98
							c0,0,25.417-3.993,35.257,0"/>
						<line fill="none" stroke="#000000" stroke-miterlimit="10" x1="139.18" y1="72.784" x2="20.293" y2="79.77"/>
						<path fill="none" stroke="#000000" stroke-miterlimit="10" d="M139.18,62.802c0,0-59.854-20.953-141.845-1.994"/>
						<path fill="none" stroke="#000000" stroke-miterlimit="10" d="M-2.665,68.794c0,0,107.408-7.986,110.688-11.977"/>
						<path fill="none" stroke="#000000" stroke-miterlimit="10" d="M139.18,40.849c0,0-120.527-8.98-141.845,3.992"/>
						<path fill="none" stroke="#000000" stroke-miterlimit="10" d="M139.18,148.628c0,0-68.053,3.989-81.171,10.977"/>
						<path fill="none" stroke="#000000" stroke-miterlimit="10" d="M138.359,155.612c0,0-41.815-0.997-50.834-5.987
							c-9.02-4.99-64.773,0-68.873,2.992"/>
						<path fill="none" stroke="#000000" stroke-miterlimit="10" d="M20.293,137.65c7.334,0.991,7.122,1.888,45.914,17.962
							c0,0,26.239-9.979,45.916-7.982"/>
						<line fill="none" stroke="#000000" stroke-miterlimit="10" x1="-2.665" y1="121.684" x2="64.568" y2="127.668"/>
						<line fill="none" stroke="#000000" stroke-miterlimit="10" x1="-2.665" y1="130.666" x2="49.81" y2="132.659"/>
						<path fill="none" stroke="#000000" stroke-miterlimit="10" d="M-2.665,127.668c0,0,37.716,1.998,46.735-0.995"/>
						<path fill="none" stroke="#000000" stroke-miterlimit="10" d="M-2.665,116.693c0,0,17.219,4.99,24.598,6.985"/>
						<path fill="none" stroke="#000000" stroke-miterlimit="10" d="M7.174,150.624c0,0,26.237-7.984,31.977-6.986
							c0,0,17.219-6.986,22.958-5.987"/>
						<path fill="none" stroke="#000000" stroke-miterlimit="10" d="M13.733,152.617c0,0,18.038-6.984,27.058-6.984"/>
						<path fill="none" stroke="#000000" stroke-miterlimit="10" d="M-2.665,144.635c0,0,31.977-1.995,34.437-2.992"/>
						<path fill="none" stroke="#000000" stroke-miterlimit="10" d="M0.615,148.628c0,0,13.938-3.993,22.137-2.995"/>
						<path fill="none" stroke="#000000" stroke-miterlimit="10" d="M7.174,139.646c0,0,12.299,0.998,19.678,0"/>
						<path fill="none" stroke="#000000" stroke-miterlimit="10" d="M80.146,160.603c0,0,20.497-0.998,25.417-5.987"/>
						<path fill="none" stroke="#000000" stroke-miterlimit="10" d="M120.321,162.598c0,0,17.219-7.982,18.038-11.974"/>
						<path fill="none" stroke="#000000" stroke-miterlimit="10" d="M129.341,162.598c0,0,6.56-5.988,9.839-7.982"/>
						<path fill="none" stroke="#000000" stroke-miterlimit="10" d="M128.521,156.609c0,0-27.057-20.956-41.815-20.956"/>
						<path fill="none" stroke="#000000" stroke-miterlimit="10" d="M117.861,158.604c0,0,13.119-6.984,18.039-6.984"/>
						<path fill="none" stroke="#000000" stroke-miterlimit="10" d="M115.402,153.615c0,0,17.218-8.98,22.957-13.97"/>
						<path fill="none" stroke="#000000" stroke-miterlimit="10" d="M125.241,153.615c0,0,11.479-9.978,13.938-9.978"/>
						<path fill="none" stroke="#000000" stroke-miterlimit="10" d="M138.359,146.63c0,0-44.275-7.982-57.394,1"/>
						<path fill="none" stroke="#000000" stroke-miterlimit="10" d="M-2.665,159.604c0,0,17.219-3.992,23.777-4.989"/>
						<path fill="none" stroke="#000000" stroke-miterlimit="10" d="M4.715,161.601c0,0,69.691-14.971,74.611-25.947"/>
						<path fill="none" stroke="#000000" stroke-miterlimit="10" d="M61.288,153.615c0,0,63.953-34.927,77.892-32.932"/>
						<path fill="none" stroke="#000000" stroke-miterlimit="10" d="M-2.665,153.615c0,0,36.896,5.989,45.915,11.977"/>
						<path fill="none" stroke="#000000" stroke-miterlimit="10" d="M-2.665,150.624c0,0,16.398,3.991,18.038,4.988"/>
						<path fill="none" stroke="#000000" stroke-miterlimit="10" d="M30.132,159.604c0,0,36.896-6.987,45.915-10.977"/>
						<path fill="none" stroke="#000000" stroke-miterlimit="10" d="M30.132,150.624c0,0,26.237,4.988,31.156,6.984"/>
						<path fill="none" stroke="#000000" stroke-miterlimit="10" d="M24.393,151.62c0,0,23.777,7.984,25.417,9.98"/>
						<path fill="none" stroke="#000000" stroke-miterlimit="10" d="M31.771,140.644c0,0,31.156-3.992,35.256-11.976"/>
						<path fill="none" stroke="#000000" stroke-miterlimit="10" d="M33.411,134.655c0,0,17.218,9.979,27.877,11.975"/>
						<path fill="none" stroke="#000000" stroke-miterlimit="10" d="M17.833,133.658c0,0,22.138,4.989,31.977,14.97"/>
						<path fill="none" stroke="#000000" stroke-miterlimit="10" d="M-2.665,139.646c0,0,34.437-11.978,53.294-11.978"/>
						<path fill="none" stroke="#000000" stroke-miterlimit="10" d="M81.786,142.64c0,0-28.697-10.979-36.076-12.974"/>
						<path fill="none" stroke="#000000" stroke-miterlimit="10" d="M58.828,143.638c0,0,29.518-14.97,37.716-15.97
							c0,0,25.417,3.992,31.977,7.985"/>
						<path fill="none" stroke="#000000" stroke-miterlimit="10" d="M124.421,147.63c0,0-23.777-13.972-40.175-14.971"/>
						<path fill="none" stroke="#000000" stroke-miterlimit="10" d="M85.886,144.635c0,0,41.815-14.969,53.294-15.967"/>
						<path fill="none" stroke="#000000" stroke-miterlimit="10" d="M103.924,146.63c0,0,26.236-7.982,34.436-11.975"/>
						<path fill="none" stroke="#000000" stroke-miterlimit="10" d="M124.421,143.638c0,0,9.02-12.972,14.759-12.972"/>
						<path fill="none" stroke="#000000" stroke-miterlimit="10" d="M92.445,133.658c0,0,39.355-7.983,46.734-7.983"/>
						<path fill="none" stroke="#000000" stroke-miterlimit="10" d="M90.805,130.666c0,0,28.697,2.992,31.977,11.974"/>
						<path fill="none" stroke="#000000" stroke-miterlimit="10" d="M67.848,146.63c0,0,14.758-4.987,15.578-8.979"/>
						<path fill="none" stroke="#000000" stroke-miterlimit="10" d="M-2.665,134.655c0,0,14.759-2.995,33.616-8.98"/>
						<path fill="none" stroke="#000000" stroke-miterlimit="10" d="M-2.665,136.651c0,0,14.759-2.993,17.219-2.993"/>
						<path fill="none" stroke="#000000" stroke-miterlimit="10" d="M139.18,111.702l-41.815,11.977
							c-68.053,25.946-71.332,38.919-71.332,38.919"/>
						<path fill="none" stroke="#000000" stroke-miterlimit="10" d="M89.165,107.712c0,0,41.816,12.972,49.195,14.969"/>
						<path fill="none" stroke="#000000" stroke-miterlimit="10" d="M86.705,119.688c0,0,46.735-6.987,52.475-9.982"/>
						<path fill="none" stroke="#000000" stroke-miterlimit="10" d="M67.027,129.666c0,0,9.02-2.993,18.038-1.998"/>
						<path fill="none" stroke="#000000" stroke-miterlimit="10" d="M64.568,132.659c0,0,8.198-0.999,13.938-1.993"/>
						<path fill="none" stroke="#000000" stroke-miterlimit="10" d="M26.852,135.653c0,0,41.815-13.97,46.735-15.965"/>
						<path fill="none" stroke="#000000" stroke-miterlimit="10" d="M62.928,126.673c0,0,31.977-12.975,40.176-12.975"/>
						<path fill="none" stroke="#000000" stroke-miterlimit="10" d="M-1.025,126.673c0,0,37.717-12.975,45.096-21.957"/>
						<path fill="none" stroke="#000000" stroke-miterlimit="10" d="M-2.665,114.698c0,0,27.877,0.996,45.915,9.978"/>
						<path fill="none" stroke="#000000" stroke-miterlimit="10" d="M7.994,118.688c0,0,34.436,1,44.275-2.994"/>
						<path fill="none" stroke="#000000" stroke-miterlimit="10" d="M39.971,122.681c0,0,47.555-5.987,56.573-10.979"/>
						<path fill="none" stroke="#000000" stroke-miterlimit="10" d="M46.529,125.675c0,0,26.237-10.977,38.536-12.974"/>
						<path fill="none" stroke="#000000" stroke-miterlimit="10" d="M100.644,126.673c0,0,31.977-9.979,37.716-8.982"/>
						<path fill="none" stroke="#000000" stroke-miterlimit="10" d="M107.203,128.668c0,0,14.758-7.984,21.317-7.984"/>
						<path fill="none" stroke="#000000" stroke-miterlimit="10" d="M117.042,125.675c0,0-13.118-6.986-27.877-11.977"/>
						<path fill="none" stroke="#000000" stroke-miterlimit="10" d="M103.104,130.666c0,0-5.739-9.982-12.299-11.978"/>
						<path fill="none" stroke="#000000" stroke-miterlimit="10" d="M127.701,140.644c0,0,5.739,0,9.019,0"/>
						<path fill="none" stroke="#000000" stroke-miterlimit="10" d="M-2.665,111.702c0,0,59.854-3.99,78.712,2.996"/>
						<path fill="none" stroke="#000000" stroke-miterlimit="10" d="M11.273,115.694c0,0,51.654-0.996,64.773-8.98"/>
						<path fill="none" stroke="#000000" stroke-miterlimit="10" d="M-2.665,105.716c0,0,47.555-1.997,59.034,3.99"/>
						<path fill="none" stroke="#000000" stroke-miterlimit="10" d="M9.634,109.706c0,0,54.935-8.98,68.872-11.975"/>
						<path fill="none" stroke="#000000" stroke-miterlimit="10" d="M30.951,110.706c0,0-8.199-7.985-33.616-7.985"/>
						<path fill="none" stroke="#000000" stroke-miterlimit="10" d="M89.984,155.612c0,0,13.119-16.965,14.759-16.965"/>
						<path fill="none" stroke="#000000" stroke-miterlimit="10" d="M132.62,133.658c0,0-18.038,3.992-22.957,8.981"/>
						<path fill="none" stroke="#000000" stroke-miterlimit="10" d="M70.307,109.706c0,0,45.916-2.992,52.475,4.992"/>
						<path fill="none" stroke="#000000" stroke-miterlimit="10" d="M138.359,104.716c0,0-47.555-8.979-60.673,1"/>
						<path fill="none" stroke="#000000" stroke-miterlimit="10" d="M94.904,105.716c0,0,37.716-5.986,44.275-4.99"/>
						<path fill="none" stroke="#000000" stroke-miterlimit="10" d="M118.682,111.702c0,0,20.498-3.99,21.318-6.986"/>
						<path fill="none" stroke="#000000" stroke-miterlimit="10" d="M108.023,112.701c0,0,22.137-6.985,25.417-8.982"/>
						<path fill="none" stroke="#000000" stroke-miterlimit="10" d="M57.188,110.706c0,0,22.958-13.972,39.355-16.967
							c16.398-2.992,42.636-7.982,42.636-7.982"/>
						<path fill="none" stroke="#000000" stroke-miterlimit="10" d="M-1.025,123.679c0,0,18.039-25.947,37.717-26.944"/>
						<path fill="none" stroke="#000000" stroke-miterlimit="10" d="M-2.665,85.757c0,0,41.815-1.998,54.114,16.964"/>
						<path fill="none" stroke="#000000" stroke-miterlimit="10" d="M-2.665,88.751c0,0,55.754,1.996,66.413-3.992"/>
						<path fill="none" stroke="#000000" stroke-miterlimit="10" d="M89.984,95.736c0,0-27.876-14.97-48.374-13.97"/>
						<path fill="none" stroke="#000000" stroke-miterlimit="10" d="M126.881,82.763c0,0-77.071-26.945-96.749-26.945"/>
						<path fill="none" stroke="#000000" stroke-miterlimit="10" d="M22.752,78.77c0,0,87.73-12.97,97.569-19.956"/>
						<path fill="none" stroke="#000000" stroke-miterlimit="10" d="M127.701,58.813c0,0-59.854-33.932-72.973-31.934"/>
						<path fill="none" stroke="#000000" stroke-miterlimit="10" d="M15.373,56.817c0,0,40.176-26.945,50.834-26.945"/>
						<path fill="none" stroke="#000000" stroke-miterlimit="10" d="M62.108,52.825c0,0-45.915-25.945-58.214-25.945"/>
						<path fill="none" stroke="#000000" stroke-miterlimit="10" d="M52.27,45.839c0,0,74.611-1.994,78.711-5.988"/>
						<path fill="none" stroke="#000000" stroke-miterlimit="10" d="M74.406,61.808c0,0,57.395-12.975,64.773-13.973"/>
						<path fill="none" stroke="#000000" stroke-miterlimit="10" d="M4.715,68.794c0,0,75.432,2.99,81.99,6.984"/>
						<path fill="none" stroke="#000000" stroke-miterlimit="10" d="M67.848,95.736c0,0,32.796-6.985,40.995-11.978"/>
						<path fill="none" stroke="#000000" stroke-miterlimit="10" d="M45.71,94.739c0,0,50.015-17.965,60.673-17.965"/>
						<path fill="none" stroke="#000000" stroke-miterlimit="10" d="M-2.665,49.831c0,0,32.797,17.963,54.935,20.956"/>
						<path fill="none" stroke="#000000" stroke-miterlimit="10" d="M-2.665,36.86c0,0,40.176-5.988,49.194-6.988
							c9.02-0.998,67.232,17.963,76.252,20.957"/>
						<path fill="none" stroke="#000000" stroke-miterlimit="10" d="M77.687,32.866c0,0,54.114-3.992,61.493-3.992"/>
						<path fill="none" stroke="#000000" stroke-miterlimit="10" d="M58.009,60.808c0,0,81.171-13.97,81.991-28.939"/>
						<path fill="none" stroke="#000000" stroke-miterlimit="10" d="M76.866,27.875c0,0,41.815,9.981,62.313,8.985"/>
						<path fill="none" stroke="#000000" stroke-miterlimit="10" d="M88.346,61.808c0,0,39.355,4.988,50.834,5.986"/>
						<path fill="none" stroke="#000000" stroke-miterlimit="10" d="M77.687,61.808c0,0,40.175,16.962,61.493,17.962"/>
						<path fill="none" stroke="#000000" stroke-miterlimit="10" d="M105.563,96.734c0,0,20.497-6.985,33.616-6.985"/>
						<path fill="none" stroke="#000000" stroke-miterlimit="10" d="M80.966,83.759c0,0,50.835,11.978,57.394,13.973
							c6.843,2.083-51.654,15.967-51.654,15.967"/>
						<path fill="none" stroke="#000000" stroke-miterlimit="10" d="M85.886,101.724c0,0,36.075-2.994,40.995-4.989"/>
						<path fill="none" stroke="#000000" stroke-miterlimit="10" d="M85.065,97.731c0,0,8.199,2.994,12.299,2.994"/>
						<path fill="none" stroke="#000000" stroke-miterlimit="10" d="M58.009,90.747c0,0,17.218,1.994,18.038,3.992"/>
						<path fill="none" stroke="#000000" stroke-miterlimit="10" d="M23.572,86.754c0,0,16.398,0.998,20.498-4.987"/>
						<path fill="none" stroke="#000000" stroke-miterlimit="10" d="M5.534,83.759c0,0,16.398-2.992,23.777-2.992"/>
						<path fill="none" stroke="#000000" stroke-miterlimit="10" d="M-1.845,81.767c0,0,29.517-6.986,41.815-8.982"/>
						<path fill="none" stroke="#000000" stroke-miterlimit="10" d="M-2.665,77.774c0,0,11.479-4.99,27.877-2.994"/>
						<path fill="none" stroke="#000000" stroke-miterlimit="10" d="M-2.665,63.802c0,0,39.356,0.998,50.835-3.99"/>
						<path fill="none" stroke="#000000" stroke-miterlimit="10" d="M44.07,64.8c0,0,15.578,1,23.777,4.989"/>
						<path fill="none" stroke="#000000" stroke-miterlimit="10" d="M40.791,66.796c0,0,22.137,2.993,33.615,0"/>
						<path fill="none" stroke="#000000" stroke-miterlimit="10" d="M112.123,65.8c-9.019,10.975-46.735,15.967-46.735,15.967
							s-8.199-3.992-14.759-5.988"/>
						<path fill="none" stroke="#000000" stroke-miterlimit="10" d="M107.203,89.749c0,0,24.598-14.969,31.156-13.971"/>
						<path fill="none" stroke="#000000" stroke-miterlimit="10" d="M118.682,88.751c0,0,15.578-4.992,19.678-9.981"/>
						<path fill="none" stroke="#000000" stroke-miterlimit="10" d="M108.843,72.784c0,0,16.398-13.971,29.517-11.977"/>
						<path fill="none" stroke="#000000" stroke-miterlimit="10" d="M126.061,72.784c0,0,10.659-3.99,13.119-6.984"/>
						<path fill="none" stroke="#000000" stroke-miterlimit="10" d="M121.142,73.782c0,0,13.938-8.982,17.218-8.982"/>
						<path fill="none" stroke="#000000" stroke-miterlimit="10" d="M121.142,54.82c0,0,14.759,0,18.038-0.997
							c5.03-1.533-26.237,19.959-26.237,19.959"/>
						<path fill="none" stroke="#000000" stroke-miterlimit="10" d="M126.061,57.815c0,0,9.84-0.998,13.119-5.99
							c0,0-27.057-25.944-40.996-24.945"/>
						<path fill="none" stroke="#000000" stroke-miterlimit="10" d="M125.241,50.829c0,0,9.839,1.996,13.118,7.984"/>
						<path fill="none" stroke="#000000" stroke-miterlimit="10" d="M98.184,59.812c0,0,21.318,1.996,23.777,4.988"/>
						<path fill="none" stroke="#000000" stroke-miterlimit="10" d="M58.009,58.813c0,0,44.274-7.984,45.095-11.976"/>
						<path fill="none" stroke="#000000" stroke-miterlimit="10" d="M49.81,63.802c0,0,18.038-18.961,45.915-18.961"/>
						<path fill="none" stroke="#000000" stroke-miterlimit="10" d="M72.767,51.825c0,0,34.437-13.969,39.356-16.963"/>
						<path fill="none" stroke="#000000" stroke-miterlimit="10" d="M79.326,51.825c0,0,52.475-12.973,53.294-20.953"/>
						<path fill="none" stroke="#000000" stroke-miterlimit="10" d="M112.942,26.88c0,0,21.317,13.969,25.417,17.961
							s-15.578-16.966-15.578-16.966"/>
						<path fill="none" stroke="#000000" stroke-miterlimit="10" d="M126.881,26.88c0,0,7.379,6.984,11.479,6.984"/>
						<path fill="none" stroke="#000000" stroke-miterlimit="10" d="M139.18,30.872c0,0,4.1,10.977-16.398,17.961"/>
						<path fill="none" stroke="#000000" stroke-miterlimit="10" d="M65.388,98.729c0,0-20.498-1.995-30.337,3.991"/>
						<path fill="none" stroke="#000000" stroke-miterlimit="10" d="M-2.665,95.736c0,0,40.996,0.998,50.835-4.989"/>
						<path fill="none" stroke="#000000" stroke-miterlimit="10" d="M14.554,98.729c0,0,21.317,0,27.876-0.998"/>
						<path fill="none" stroke="#000000" stroke-miterlimit="10" d="M-3.484,54.82c0,0,46.734-6.985,51.654-8.981"/>
						<path fill="none" stroke="#000000" stroke-miterlimit="10" d="M68.667,50.829c0,0-59.033,0.996-60.673-8.98"/>
						<path fill="none" stroke="#000000" stroke-miterlimit="10" d="M78.506,44.841c0,0-40.995-9.979-37.715-17.961"/>
						<path fill="none" stroke="#000000" stroke-miterlimit="10" d="M84.246,44.841c0,0-37.717-14.969-36.076-17.961"/>
						<path fill="none" stroke="#000000" stroke-miterlimit="10" d="M99.824,32.866c0,0-52.475,8.982-54.114,15.967"/>
						<path fill="none" stroke="#000000" stroke-miterlimit="10" d="M68.667,48.833c0,0-25.417-15.967-45.915-2.994"/>
						<path fill="none" stroke="#000000" stroke-miterlimit="10" d="M30.951,61.808c0,0-33.616-14.97-33.616-22.955"/>
						<path fill="none" stroke="#000000" stroke-miterlimit="10" d="M32.592,26.88c0,0-30.337,2.992-36.076,4.988"/>
						<path fill="none" stroke="#000000" stroke-miterlimit="10" d="M-2.665,28.874c0,0,22.138,18.961,27.877,18.961"/>
						<path fill="none" stroke="#000000" stroke-miterlimit="10" d="M-2.665,33.864c0,0,22.138,2.996,29.517,7.984"/>
						<path fill="none" stroke="#000000" stroke-miterlimit="10" d="M44.89,34.862c0,0-34.436,4.988-42.635-6.987"/>
						<path fill="none" stroke="#000000" stroke-miterlimit="10" d="M57.188,56.817c0,0-21.317-1-27.877,1.996"/>
						<path fill="none" stroke="#000000" stroke-miterlimit="10" d="M32.592,84.759c0,0-13.119-1-13.119-2.992"/>
						<path fill="none" stroke="#000000" stroke-miterlimit="10" d="M61.288,95.736c0,0-11.479-12.974-15.578-13.97"/>
						<path fill="none" stroke="#000000" stroke-miterlimit="10" d="M96.544,93.739c0,0-23.777-5.987-24.597-11.973"/>
						<path fill="none" stroke="#000000" stroke-miterlimit="10" d="M114.582,78.77c0,0-19.677,3.993-28.696,9.981"/>
						<path fill="none" stroke="#000000" stroke-miterlimit="10" d="M116.223,70.787c0,0-11.479-4.987-18.858-5.987"/>
						<path fill="none" stroke="#000000" stroke-miterlimit="10" d="M80.966,72.784c0,0,20.498-3.99,23.777-4.99"/>
						<path fill="none" stroke="#000000" stroke-miterlimit="10" d="M-1.025,66.796c0,0,10.659-5.988,17.219-5.988"/>
						<path fill="none" stroke="#000000" stroke-miterlimit="10" d="M44.07,43.845c0,0-11.479,1.994-17.219,11.973"/>
						<path fill="none" stroke="#000000" stroke-miterlimit="10" d="M-2.665,51.825c0,0,26.237-7.98,26.237-10.977"/>
						<path fill="none" stroke="#000000" stroke-miterlimit="10" d="M-2.665,47.835c0,0,20.498-4.99,21.317-7.984"/>
						<path fill="none" stroke="#000000" stroke-miterlimit="10" d="M25.212,28.874c0,0,24.598,1.998,27.877,4.99"/>
						<path fill="none" stroke="#000000" stroke-miterlimit="10" d="M69.487,26.88c0,0,7.379,3.992,15.578,4.988"/>
						<path fill="none" stroke="#000000" stroke-miterlimit="10" d="M94.084,26.88c0,0-22.957,3.992-26.236,5.986"/>
					</g>
				</g>
			</g>
		</g>
	</g>
</g>
</svg>
