<?xml version="1.0" encoding="utf-8"?>
<!-- Generator: Adobe Illustrator 16.2.0, SVG Export Plug-In . SVG Version: 6.00 Build 0)  -->
<!DOCTYPE svg PUBLIC "-//W3C//DTD SVG 1.1//EN" "http://www.w3.org/Graphics/SVG/1.1/DTD/svg11.dtd">
<svg version="1.1" id="Layer_1" xmlns="http://www.w3.org/2000/svg" xmlns:xlink="http://www.w3.org/1999/xlink" x="0px" y="0px"
	 width="173px" height="164px" viewBox="0 0 173 164" enable-background="new 0 0 173 164" xml:space="preserve">
<g>
	<path fill="none" stroke="#231F20" stroke-miterlimit="10" d="M0.116,150.892c0,0,38-15,40-17s10-4,10-17s5-12,7-12s6-2,8,0
		c2,0,7-4,10-2c2-4,6-21,6-22s4-3,4,1s-3,35-4,38s8-9,14-10s7,3,3,5s-12,11-12,13s-9,8-14,11s-42,22-41,25"/>
	<circle fill="none" stroke="#000000" stroke-miterlimit="10" cx="111.665" cy="31.754" r="3.921"/>
	<path d="M113.233,31.754c0,0.867-0.703,1.569-1.569,1.569c-0.865,0-1.568-0.702-1.568-1.569c0-0.865,0.703-1.567,1.568-1.567
		C112.53,30.187,113.233,30.889,113.233,31.754"/>
	<path fill="none" stroke="#000000" stroke-miterlimit="10" d="M94.803,33.518c0,4.658-3.775,8.433-8.432,8.433
		s-8.431-3.774-8.431-8.433c0-4.652,3.774-8.43,8.431-8.43S94.803,28.865,94.803,33.518z"/>
	<circle fill="none" stroke="#000000" stroke-miterlimit="10" cx="114.213" cy="32.734" r="8.431"/>
	<path fill="none" stroke="#000000" stroke-miterlimit="10" d="M93.626,32.734c0,2.274-1.844,4.119-4.117,4.119
		c-2.274,0-4.118-1.845-4.118-4.119c0-2.271,1.844-4.116,4.118-4.116C91.782,28.618,93.626,30.463,93.626,32.734z"/>
	<path d="M91.273,32.538c0,0.867-0.702,1.569-1.569,1.569c-0.866,0-1.567-0.702-1.567-1.569c0-0.866,0.701-1.567,1.567-1.567
		C90.571,30.971,91.273,31.672,91.273,32.538"/>
	<path fill="none" stroke="#000000" stroke-miterlimit="10" d="M90.489,15.652c0,0-9.02-3.138-14.901,5.489"/>
	<path fill="none" stroke="#000000" stroke-miterlimit="10" d="M107.743,14.476c0,0,9.019-3.137,14.901,5.491"/>
	<path fill="none" stroke="#000000" stroke-miterlimit="10" d="M96.576,43.148c0,0,4.458-4.767,8.313,0.322"/>
	<path fill="none" stroke="#000000" stroke-miterlimit="10" d="M134.801,35.283c0,19.71-14.801,34.117-34.508,34.117
		c-19.708,0-36.861-14.016-36.861-33.725c0-19.708,15.977-35.292,35.684-35.292C118.824,0.384,134.801,15.576,134.801,35.283z"/>
	<path fill="none" stroke="#000000" stroke-miterlimit="10" d="M88.657,52.68c0,0,11.689,7.384,24.609-2.461"/>
	<path fill="none" stroke="#000000" stroke-miterlimit="10" d="M82.504,64.985c0,0-22.148,6.767-23.38,30.763"/>
	<path fill="none" stroke="#000000" stroke-miterlimit="10" d="M117.574,64.985c0,0,22.148,6.767,23.379,30.763"/>
</g>
</svg>
