<?xml version="1.0" encoding="utf-8"?>
<!-- Generator: Adobe Illustrator 16.2.0, SVG Export Plug-In . SVG Version: 6.00 Build 0)  -->
<!DOCTYPE svg PUBLIC "-//W3C//DTD SVG 1.1//EN" "http://www.w3.org/Graphics/SVG/1.1/DTD/svg11.dtd">
<svg version="1.1" id="Layer_1" xmlns="http://www.w3.org/2000/svg" xmlns:xlink="http://www.w3.org/1999/xlink" x="0px" y="0px"
	 width="173px" height="164px" viewBox="0 0 173 164" enable-background="new 0 0 173 164" xml:space="preserve">
<g>
	<path fill="none" stroke="#231F20" stroke-miterlimit="10" d="M40.116,163.892c0,0,8-12,9-26s5-27,5-27s7,14,5,27s1,9,0,14
		s-4,10-4,12"/>
	<path fill="none" stroke="#231F20" stroke-miterlimit="10" d="M117.116,163.892c0-5,0-8-4-13c1-2,0-1,2-12s7-28,7-28s4,16,8,20
		c0,5,0,30,1,33"/>
	<path fill="none" stroke="#231F20" stroke-miterlimit="10" d="M101.116,22.892c0,0,2-13-3-17s-17-9-25,2c-4,8-3,17-3,17s-5-1-1,9
		s6,13,13,14s16-1,17-11C100.116,34.892,108.116,22.892,101.116,22.892z"/>
	<path fill="none" stroke="#231F20" stroke-miterlimit="10" d="M98.116,41.892l2,11c0,0,14,7,24,14s16,19,14,31"/>
	<path fill="none" stroke="#231F20" stroke-miterlimit="10" d="M138.116,97.892c0,0,5,9,4,25c0,11,4,3,0,41"/>
	<path fill="none" stroke="#231F20" stroke-miterlimit="10" d="M74.116,43.892l1,12c0,0-9,7-16,10s-14,2-18,26l-1,7"/>
	<path fill="none" stroke="#231F20" stroke-miterlimit="10" d="M40.116,98.892c0,0-5,10-3,22c-4,10-7,22-7,43"/>
</g>
</svg>
