<?xml version="1.0" encoding="utf-8"?>
<!-- Generator: Adobe Illustrator 16.2.0, SVG Export Plug-In . SVG Version: 6.00 Build 0)  -->
<!DOCTYPE svg PUBLIC "-//W3C//DTD SVG 1.1//EN" "http://www.w3.org/Graphics/SVG/1.1/DTD/svg11.dtd">
<svg version="1.1" id="Layer_1" xmlns="http://www.w3.org/2000/svg" xmlns:xlink="http://www.w3.org/1999/xlink" x="0px" y="0px"
	 width="173px" height="132px" viewBox="0 0 173 132" enable-background="new 0 0 173 132" xml:space="preserve">
<g>
	<path fill="none" stroke="#000000" stroke-miterlimit="10" d="M96.116,38.025l45.305-19.504c0,0,2.438-3.657,1.22-7.313
		c-1.22-3.657-7.314-2.438-7.314-2.438l-52.21,25.123"/>
	<path fill="none" stroke="#000000" stroke-miterlimit="10" d="M63.404,45.34l-12.19,9.752c0,0,19.504-3.656,24.38-7.313"/>
	<path fill="none" stroke="#000000" stroke-miterlimit="10" d="M109.727,80.692c0,0-20.723-17.067-24.381-29.257
		c-4.876-4.876-19.504-6.095-24.381-8.533c0,0-0.893-1.004-1.767-2.438c-2.014-3.307-3.93-8.901,5.425-9.751
		c13.408-1.221,30.476,8.531,35.352,8.531"/>
	<path fill="none" stroke="#000000" stroke-miterlimit="10" d="M64.623,31.932c2.438,4.876,1.219,6.095-4.877,8.533"/>
	<path fill="none" stroke="#000000" stroke-miterlimit="10" d="M65.842,52.654c0,0,1.219,4.876,4.876,6.096"/>
	<path fill="none" stroke="#000000" stroke-miterlimit="10" d="M79.251,52.654c0,0-12.19,0-3.657,9.752
		c3.657,3.657,7.314,1.219,8.533-1.219"/>
	<path fill="none" stroke="#000000" stroke-miterlimit="10" d="M81.688,64.844c0,0,15.849,9.753,23.162,21.943
		s18.285,4.876,24.38,8.534c6.096,3.656,43.885,36.57,43.885,36.57"/>
	<path fill="none" stroke="#000000" stroke-miterlimit="10" d="M123.136,27.055c0,0,7.314,15.848,7.314,18.286
		s8.534,14.628,25.6,19.504l17.066,4.877"/>
	<path fill="none" stroke="#000000" stroke-miterlimit="10" d="M75.116,30.892c0,0,6.573-8.713,12.668-12.37
		c6.095-3.656,19.505,1.219,21.942,2.438"/>
	<polyline fill="none" stroke="#000000" stroke-miterlimit="10" points="11.321,19.74 14.096,7.256 18.258,18.354 	"/>
	<line fill="none" stroke="#000000" stroke-miterlimit="10" x1="21.031" y1="14.192" x2="8.547" y2="15.58"/>
	<line fill="none" stroke="#000000" stroke-miterlimit="10" x1="22.419" y1="5.869" x2="32.128" y2="18.354"/>
	<line fill="none" stroke="#000000" stroke-miterlimit="10" x1="33.516" y1="4.482" x2="25.192" y2="18.354"/>
	<line fill="none" stroke="#000000" stroke-miterlimit="10" x1="39.064" y1="4.482" x2="47.389" y2="14.192"/>
	<line fill="none" stroke="#000000" stroke-miterlimit="10" x1="48.775" y1="3.096" x2="33.516" y2="15.579"/>
	<polyline fill="none" stroke="#000000" stroke-miterlimit="10" points="10.985,66.063 14.643,51.679 23.175,63.625 	"/>
	<polyline fill="none" stroke="#000000" stroke-miterlimit="10" points="36.829,45.34 36.603,46.924 37.804,59.969 	"/>
	<path fill="none" stroke="#000000" stroke-miterlimit="10" d="M14.643,51.678c0,0-11.095-1.584-7.924-9.508"/>
	<line fill="none" stroke="#000000" stroke-miterlimit="10" x1="39.998" y1="31.932" x2="38.414" y2="45.34"/>
	<path fill="none" stroke="#000000" stroke-miterlimit="10" d="M36.829,29.492l3.169,3.169c0,0,6.339,1.22,6.339,6.339
		c0,5.121-7.923,6.34-7.923,6.34"/>
	<path fill="none" stroke="#000000" stroke-miterlimit="10" d="M35.244,46.925c0,0,1.34,6.948-7.192,9.388
		c-8.533,2.438-9.752-1.221-11.825-4.635l22.188-6.337l12.8,9.751"/>
	<line fill="none" stroke="#000000" stroke-miterlimit="10" x1="57.116" y1="49.892" x2="58.116" y2="52.892"/>
</g>
</svg>
