<?xml version="1.0" encoding="utf-8"?>
<!-- Generator: Adobe Illustrator 16.2.0, SVG Export Plug-In . SVG Version: 6.00 Build 0)  -->
<!DOCTYPE svg PUBLIC "-//W3C//DTD SVG 1.1//EN" "http://www.w3.org/Graphics/SVG/1.1/DTD/svg11.dtd">
<svg version="1.1" id="Layer_1" xmlns="http://www.w3.org/2000/svg" xmlns:xlink="http://www.w3.org/1999/xlink" x="0px" y="0px"
	 width="173px" height="135px" viewBox="0 0 173 135" enable-background="new 0 0 173 135" xml:space="preserve">
<g>
	<path fill="#FFFFFF" d="M43.116,134.57c0-5,2-16,8-33s33-25,33-25l31-3c46-4,54,61,54,61"/>
	<path fill="none" stroke="#000000" stroke-miterlimit="10" d="M43.116,134.57c0-5,2-16,8-33s33-25,33-25l31-3c46-4,54,61,54,61"/>
	<path fill="none" stroke="#000000" stroke-miterlimit="10" d="M52.116,97.57c0,0-19-8-22-16s2-14,7-19"/>
	<path fill="none" stroke="#000000" stroke-miterlimit="10" d="M15.116,25.57c0,0,37-12,44-10"/>
	<path fill="none" stroke="#000000" stroke-miterlimit="10" d="M17.116,31.57c0,0,42-12,44-10"/>
	<path fill="none" stroke="#000000" stroke-miterlimit="10" d="M18.116,37.57c0,0,39-11,44-9"/>
	<path fill="none" stroke="#000000" stroke-miterlimit="10" d="M19.116,44.57c0,0,41-13,47-10"/>
	<path fill="none" stroke="#000000" stroke-miterlimit="10" d="M21.116,50.57c0,0,40-12,46-10"/>
	<path fill="none" stroke="#000000" stroke-miterlimit="10" d="M22.116,57.57c0,0,42-12,45-11"/>
	<path fill="none" stroke="#000000" stroke-miterlimit="10" d="M23.116,65.629c0,0,42-12,45-11"/>
	<path fill="none" stroke="#000000" stroke-miterlimit="10" d="M24.116,72.629c0,0,42-12,45-11"/>
	<path fill="#FFFFFF" d="M47.914,55.561c-1.545-3.951-3.551,0.63-3.951,1.546c-0.401,0.916,4.123-6.929,1.776-9.048
		c-2.347-2.118-8.417,1.773-10.021,5.438c-1.605,3.665-0.603,9.073,0.971,10.251C41.56,67.393,49.459,59.512,47.914,55.561"/>
	<path fill="none" stroke="#000000" stroke-miterlimit="10" d="M47.914,55.561c-1.545-3.951-3.551,0.63-3.951,1.546
		c-0.401,0.916,4.123-6.929,1.776-9.048c-2.347-2.118-8.417,1.773-10.021,5.438c-1.605,3.665-0.603,9.073,0.971,10.251
		C41.56,67.393,49.459,59.512,47.914,55.561z"/>
	<path fill="#FFFFFF" d="M72.116,14.57l23,44c0,0,20-4,48-2c-12-19-29-45-29-45S87.116,1.57,72.116,14.57"/>
	<path fill="none" stroke="#000000" stroke-miterlimit="10" d="M72.116,14.57l23,44c0,0,20-4,48-2c-12-19-29-45-29-45
		S87.116,1.57,72.116,14.57z"/>
	<path fill="#FFFFFF" d="M123.116,48.57c0,17.673-11.193,32-25,32c-5.188,0-10.007-2.022-14.001-5.485
		c-6.637-5.754-10.999-15.483-10.999-26.515c0-17.674,11.192-32,25-32C111.923,16.57,123.116,30.896,123.116,48.57"/>
	<path fill="none" stroke="#000000" stroke-miterlimit="10" d="M123.116,48.57c0,17.673-11.193,32-25,32
		c-5.188,0-10.007-2.022-14.001-5.485c-6.637-5.754-10.999-15.483-10.999-26.515c0-17.674,11.192-32,25-32
		C111.923,16.57,123.116,30.896,123.116,48.57z"/>
	<path fill="none" stroke="#000000" stroke-miterlimit="10" d="M120.116,63.57c7,0,35-2,35-2l-39-58c0,0,7,2-17-2s-34,11-34,11
		l10,23"/>
	<path fill="none" stroke="#000000" stroke-miterlimit="10" d="M65.116,12.57c-3-10-55,10-55,10l-6,4l11,75c0,0,38-10,44-11"/>
	<path fill="none" stroke="#000000" stroke-miterlimit="10" d="M11.116,23.57l8,72c0,0,51-21,66-19"/>
	<line fill="none" stroke="#000000" stroke-miterlimit="10" x1="9.116" y1="25.57" x2="17.116" y2="96.57"/>
	<line fill="none" stroke="#000000" stroke-miterlimit="10" x1="7.116" y1="27.57" x2="16.116" y2="98.57"/>
	<path fill="none" stroke="#000000" stroke-miterlimit="10" d="M155.116,62.57l1,6c0,0-29,2-29,5"/>
	<path fill="none" stroke="#000000" stroke-miterlimit="10" d="M17.116,98.57c0,0,41-11,45-11"/>
	<path fill="none" stroke="#000000" stroke-miterlimit="10" d="M22.116,95.57c0,0,48-15,52-15"/>
	<path fill="none" stroke="#000000" stroke-miterlimit="10" d="M119.116,66.57c0,0,32-3,36-2"/>
	<path fill="none" stroke="#000000" stroke-miterlimit="10" d="M118.116,68.57c0,0,33-3,37-2"/>
	<path fill="none" stroke="#000000" stroke-miterlimit="10" d="M116.116,71.57c0,0,6-1,15-1"/>
</g>
</svg>
