<?xml version="1.0" encoding="utf-8"?>
<!-- Generator: Adobe Illustrator 16.2.0, SVG Export Plug-In . SVG Version: 6.00 Build 0)  -->
<!DOCTYPE svg PUBLIC "-//W3C//DTD SVG 1.1//EN" "http://www.w3.org/Graphics/SVG/1.1/DTD/svg11.dtd">
<svg version="1.1" id="Layer_1" xmlns="http://www.w3.org/2000/svg" xmlns:xlink="http://www.w3.org/1999/xlink" x="0px" y="0px"
	 width="173px" height="154px" viewBox="0 0 173 154" enable-background="new 0 0 173 154" xml:space="preserve">
<g>
	<path fill="none" stroke="#000000" stroke-miterlimit="10" d="M34.664,58.852c-7.087,1.182-20.08,16.537-27.167,34.254"/>
	<path fill="none" stroke="#000000" stroke-miterlimit="10" d="M3.955,91.924c0,0,3.543-3.543,5.905-4.725"/>
	<path fill="none" stroke="#000000" stroke-miterlimit="10" d="M11.041,91.924c0,0,0-3.543-1.181-5.905c0,0-8.269,2.362-8.269,4.725
		"/>
	<path fill="none" stroke="#000000" stroke-miterlimit="10" d="M41.752,57.671c0,0-12.994-2.362-11.813,15.355
		c1.182,17.717,3.544,63.782,3.544,72.05c0,4.582,0.633,6.816,0.633,6.816h6c0,0,0.239-4.127,0.454-5.636
		c1.182-8.268,2.362-34.253,2.362-34.253s0-4.725,3.544-4.725c3.543,0,12.43,8.268,28.966,8.268s34.815-8.268,37.178-7.086
		s3.544,38.979,3.544,38.979l0.952,5.453h5l1.136-5.453l-3.545-37.797c0,0,4.726-43.703,24.805-43.703
		c1.182,9.448,2.362,24.804,16.537,24.804c14.173,0,10.63-23.623,5.904-35.435c-4.724-11.812-8.268-21.261-8.268-21.261
		s4.725-24.804-10.63-30.71c-15.355-5.906-17.718,0-16.536,5.906c1.181,5.906,20.079,18.898,21.261,23.623
		c1.181,4.724-1.182,10.63-8.269,5.906c-7.086-4.726-22.442-33.073-33.072-21.262s18.898,25.985,30.71,27.166
		c5.906,3.544,1.181,10.631-9.449,11.813C122.069,57.671,41.752,57.671,41.752,57.671z"/>
	<line fill="none" stroke="#000000" stroke-miterlimit="10" x1="34.103" y1="142.714" x2="40.008" y2="143.895"/>
	<line fill="none" stroke="#000000" stroke-miterlimit="10" x1="116.783" y1="146.258" x2="122.688" y2="145.076"/>
	<path fill="none" stroke="#000000" stroke-miterlimit="10" d="M43.552,120.271c0.771,0,2.049-0.377,3.543-1.053
		c3.073-1.39,7.063-4.035,9.45-7.215"/>
	<line fill="none" stroke="#000000" stroke-miterlimit="10" x1="47.095" y1="123.815" x2="47.094" y2="119.219"/>
	<line fill="none" stroke="#000000" stroke-miterlimit="10" x1="51.819" y1="120.271" x2="49.457" y2="117.91"/>
	<line fill="none" stroke="#000000" stroke-miterlimit="10" x1="55.363" y1="117.91" x2="53.001" y2="116.729"/>
	<line fill="none" stroke="#000000" stroke-miterlimit="10" x1="57.726" y1="115.547" x2="55.363" y2="114.366"/>
	<line fill="none" stroke="#000000" stroke-miterlimit="10" x1="150.116" y1="49.892" x2="152.116" y2="50.892"/>
	<line fill="none" stroke="#000000" stroke-miterlimit="10" x1="159.116" y1="47.892" x2="157.116" y2="48.892"/>
</g>
</svg>
