<?xml version="1.0" encoding="utf-8"?>
<!-- Generator: Adobe Illustrator 16.2.0, SVG Export Plug-In . SVG Version: 6.00 Build 0)  -->
<!DOCTYPE svg PUBLIC "-//W3C//DTD SVG 1.1//EN" "http://www.w3.org/Graphics/SVG/1.1/DTD/svg11.dtd">
<svg version="1.1" id="Layer_1" xmlns="http://www.w3.org/2000/svg" xmlns:xlink="http://www.w3.org/1999/xlink" x="0px" y="0px"
	 width="173px" height="177px" viewBox="0 0 173 177" enable-background="new 0 0 173 177" xml:space="preserve">
<g>
	<path fill="none" stroke="#000000" stroke-miterlimit="10" d="M123.566,143.088c2.488,1.943,4.25,6.697,4.25,11.779
		c0,6.636-2.998,7.482-6.699,7.482c-3.699,0-6.7-0.847-6.7-7.482c0-5.1,1.774-9.866,4.276-11.798"/>
	<polyline fill="none" stroke="#000000" stroke-miterlimit="10" points="117.826,162.196 117.826,176.5 115.893,176.5 	"/>
	<polyline fill="none" stroke="#000000" stroke-miterlimit="10" points="124.784,162.196 124.784,176.5 126.717,176.5 	"/>
	<path fill="none" stroke="#000000" stroke-miterlimit="10" d="M126.657,147.771c0,0,1.623,2.738-0.081,5.295
		c-1.167,1.75-5.113,2.557-7.669,1.705"/>
	<path fill="none" stroke="#000000" stroke-miterlimit="10" d="M116.238,146.98c0,0-0.812,1.826,0.892,4.383
		c1.166,1.749,5.112,2.556,7.669,1.703"/>
	<path fill="none" stroke="#000000" stroke-miterlimit="10" d="M128.674,136.154c0,4.164-3.128,7.211-7.293,7.211
		c-4.167,0-7.79-2.963-7.79-7.127c0-4.166,3.376-7.459,7.542-7.459C125.297,128.779,128.674,131.99,128.674,136.154z"/>
	<rect x="123.168" y="133.469" width="0.853" height="0.852"/>
	<rect x="118.056" y="133.469" width="0.852" height="0.852"/>
	<path fill="none" stroke="#000000" stroke-miterlimit="10" d="M119.76,137.822c0,0,1.704,1.704,3.408,0"/>
</g>
<g>
	<path fill="none" stroke="#000000" stroke-miterlimit="10" d="M80.162,54.498c9.324,7.282,15.924,25.093,15.924,44.142
		c0,24.859-11.238,28.031-25.101,28.031c-13.863,0-25.103-3.172-25.103-28.031c0-19.114,6.645-36.977,16.019-44.213"/>
	<polyline fill="none" stroke="#000000" stroke-miterlimit="10" points="55.068,124 55.068,176.5 49.568,176.5 	"/>
	<polyline fill="none" stroke="#000000" stroke-miterlimit="10" points="85.068,124 85.068,176.5 91.568,176.5 	"/>
	<path fill="none" stroke="#000000" stroke-miterlimit="10" d="M87.957,63.553c0,0,18.187,28.561,18.615,51.732"/>
	<path fill="none" stroke="#000000" stroke-miterlimit="10" d="M53.703,63.479c0,0-16.91,28.635-17.338,51.807"/>
	<path d="M60.75,27.017c0,0.798-0.647,1.446-1.445,1.446c-0.8,0-1.446-0.648-1.446-1.446c0-0.799,0.646-1.446,1.446-1.446
		C60.103,25.57,60.75,26.218,60.75,27.017"/>
	<path d="M86.393,26.296c0,0.796-0.647,1.442-1.444,1.442c-0.8,0-1.446-0.646-1.446-1.442c0-0.801,0.646-1.445,1.446-1.445
		C85.745,24.851,86.393,25.495,86.393,26.296"/>
	<path fill="none" stroke="#000000" stroke-miterlimit="10" d="M64.207,12.971c0,0-7.142-2.484-11.8,4.349"/>
	<path fill="none" stroke="#000000" stroke-miterlimit="10" d="M77.871,12.04c0,0,7.143-2.484,11.799,4.347"/>
	<path fill="none" stroke="#000000" stroke-miterlimit="10" d="M69.027,34.746c0,0,3.531-3.775,6.582,0.255"/>
	<path fill="none" stroke="#000000" stroke-miterlimit="10" d="M99.298,28.518c0,15.606-11.721,27.017-27.327,27.017
		S42.781,44.438,42.781,28.828c0-15.606,12.651-27.947,28.257-27.947C86.646,0.881,99.298,12.914,99.298,28.518z"/>
	<path fill="none" stroke="#000000" stroke-miterlimit="10" d="M63.994,42.619c0,0,7.574,2.381,18.786,0"/>
</g>
<g>
	<path fill="none" stroke="#000000" stroke-miterlimit="10" d="M144.759,142.725c2.21,2.017,3.774,6.946,3.774,12.221
		c0,6.882-2.663,7.76-5.949,7.76c-3.286,0-5.95-0.878-5.95-7.76c0-5.292,1.575-10.236,3.797-12.241"/>
	<polyline fill="none" stroke="#000000" stroke-miterlimit="10" points="139.5,162 139.5,176.5 137,176.5 	"/>
	<polyline fill="none" stroke="#000000" stroke-miterlimit="10" points="145.5,162 145.5,176.5 147,176.5 	"/>
	<path fill="none" stroke="#000000" stroke-miterlimit="10" d="M147.283,145.23c0,0,5.035,7.907,5.153,14.322"/>
	<path fill="none" stroke="#000000" stroke-miterlimit="10" d="M137.8,145.211c0,0-4.681,7.927-4.8,14.342"/>
	<path d="M140.192,135.103c0,0.19-0.154,0.345-0.344,0.345c-0.19,0-0.344-0.154-0.344-0.345s0.153-0.344,0.344-0.344
		C140.038,134.759,140.192,134.912,140.192,135.103"/>
	<path d="M146.296,134.931c0,0.189-0.154,0.344-0.343,0.344c-0.19,0-0.344-0.154-0.344-0.344c0-0.19,0.154-0.344,0.344-0.344
		C146.142,134.587,146.296,134.74,146.296,134.931"/>
	<path fill="none" stroke="#000000" stroke-miterlimit="10" d="M140.708,131.229c0,0-1.977-0.688-3.267,1.203"/>
	<path fill="none" stroke="#000000" stroke-miterlimit="10" d="M144.491,130.971c0,0,1.978-0.688,3.267,1.203"/>
	<path fill="none" stroke="#000000" stroke-miterlimit="10" d="M142.042,137.256c0,0,0.978-1.045,1.822,0.07"/>
	<path fill="none" stroke="#000000" stroke-miterlimit="10" d="M150.423,135.531c0,4.322-3.245,7.48-7.566,7.48
		c-4.32,0-8.081-3.072-8.081-7.395c0-4.32,3.502-7.736,7.823-7.736C146.92,127.881,150.423,131.213,150.423,135.531z"/>
	<path fill="none" stroke="#000000" stroke-miterlimit="10" d="M140.649,139.436c0,0,2.097,0.659,5.201,0"/>
	<rect x="145" y="134" width="2" height="2"/>
	<rect x="123" y="133" width="2" height="2"/>
	<rect x="118" y="133" width="2" height="2"/>
	<rect x="142" y="136" width="2" height="2"/>
	<rect x="139" y="134" width="2" height="2"/>
</g>
</svg>
