<?xml version="1.0" encoding="utf-8"?>
<!-- Generator: Adobe Illustrator 16.2.0, SVG Export Plug-In . SVG Version: 6.00 Build 0)  -->
<!DOCTYPE svg PUBLIC "-//W3C//DTD SVG 1.1//EN" "http://www.w3.org/Graphics/SVG/1.1/DTD/svg11.dtd">
<svg version="1.1" id="Layer_1" xmlns="http://www.w3.org/2000/svg" xmlns:xlink="http://www.w3.org/1999/xlink" x="0px" y="0px"
	 width="173px" height="147px" viewBox="0 0 173 147" enable-background="new 0 0 173 147" xml:space="preserve">
<g>
	<path fill="none" stroke="#000000" stroke-miterlimit="10" d="M119.616,74.642c0,17.259-16.491,31.25-33.75,31.25
		s-33.75-10.241-33.75-27.5s16.491-32.5,33.75-32.5S119.616,57.383,119.616,74.642z"/>
	<line fill="none" stroke="#000000" stroke-miterlimit="10" x1="84.616" y1="27.142" x2="85.866" y2="0.892"/>
	<line fill="none" stroke="#000000" stroke-miterlimit="10" x1="84.616" y1="120.892" x2="84.616" y2="145.892"/>
	<line fill="none" stroke="#000000" stroke-miterlimit="10" x1="134.616" y1="68.392" x2="162.116" y2="69.642"/>
	<line fill="none" stroke="#000000" stroke-miterlimit="10" x1="37.116" y1="72.142" x2="12.116" y2="70.892"/>
	<line fill="none" stroke="#000000" stroke-miterlimit="10" x1="48.366" y1="45.892" x2="22.116" y2="29.642"/>
	<line fill="none" stroke="#000000" stroke-miterlimit="10" x1="45.866" y1="7.142" x2="60.866" y2="30.892"/>
	<line fill="none" stroke="#000000" stroke-miterlimit="10" x1="108.366" y1="30.892" x2="122.116" y2="8.392"/>
	<line fill="none" stroke="#000000" stroke-miterlimit="10" x1="125.866" y1="42.142" x2="144.616" y2="24.642"/>
	<line fill="none" stroke="#000000" stroke-miterlimit="10" x1="127.116" y1="94.642" x2="148.366" y2="107.142"/>
	<line fill="none" stroke="#000000" stroke-miterlimit="10" x1="108.366" y1="117.142" x2="119.616" y2="138.392"/>
	<line fill="none" stroke="#000000" stroke-miterlimit="10" x1="59.616" y1="114.642" x2="47.116" y2="137.142"/>
	<line fill="none" stroke="#000000" stroke-miterlimit="10" x1="43.366" y1="97.142" x2="18.366" y2="113.392"/>
</g>
</svg>
