<?xml version="1.0" encoding="utf-8"?>
<!-- Generator: Adobe Illustrator 16.2.0, SVG Export Plug-In . SVG Version: 6.00 Build 0)  -->
<!DOCTYPE svg PUBLIC "-//W3C//DTD SVG 1.1//EN" "http://www.w3.org/Graphics/SVG/1.1/DTD/svg11.dtd">
<svg version="1.1" id="Layer_1" xmlns="http://www.w3.org/2000/svg" xmlns:xlink="http://www.w3.org/1999/xlink" x="0px" y="0px"
	 width="173px" height="114.75px" viewBox="0 0 173 114.75" enable-background="new 0 0 173 114.75" xml:space="preserve">
<g>
	<path fill="none" stroke="#000000" stroke-miterlimit="10" d="M5.854,102.414L4.646,68.563c0,0,39.896-4.836,61.657,14.507
		c19.343,10.882,45.939-1.208,55.611-3.626"/>
	<line fill="#CC0202" x1="121.914" y1="78.234" x2="120.705" y2="112.086"/>
	<line fill="none" stroke="#000000" stroke-miterlimit="10" x1="121.914" y1="78.234" x2="120.705" y2="112.086"/>
	<line fill="none" stroke="#000000" stroke-miterlimit="10" x1="121.914" y1="79.443" x2="123.123" y2="67.354"/>
	<line fill="none" stroke="#000000" stroke-miterlimit="10" x1="4.646" y1="68.563" x2="5.854" y2="56.474"/>
	<path fill="none" stroke="#000000" stroke-miterlimit="10" d="M166.646,14.16l-2.418,13.298c0,0-10.881,24.18-10.881,51.985"/>
	<path fill="none" stroke="#000000" stroke-miterlimit="10" d="M100.153,12.951c0,0,12.09,4.836,25.388,6.045
		c13.299,1.209,35.061-1.209,37.479,7.253"/>
	<path fill="none" stroke="#000000" stroke-miterlimit="10" d="M123.123,79.443c0,0,9.672-14.508,20.552-21.761
		c10.881-7.254,4.836-26.597,19.345-29.015"/>
	<path fill="none" stroke="#000000" stroke-miterlimit="10" d="M7.063,67.354c0,0,33.851-20.552,54.403-22.97
		c13.298-4.836,16.925-12.09,21.761-18.134c4.836-6.045,13.299-12.09,15.717-13.299l-1.209-12.09"/>
	<path fill="none" stroke="#000000" stroke-miterlimit="10" d="M37.287,68.563c0,0,24.18-20.552,45.94-22.97
		c13.299-2.418,26.597-25.388,29.015-27.806"/>
	<path fill="none" stroke="#000000" stroke-miterlimit="10" d="M62.676,79.443c0,0,16.926-24.179,37.478-29.015
		c13.298-3.627,18.134-25.388,24.179-30.224"/>
	<path fill="none" stroke="#000000" stroke-miterlimit="10" d="M83.228,85.488c0,0,18.135-21.762,29.015-26.598
		c10.881-4.836,14.508-20.552,18.135-27.806s8.463-12.089,8.463-12.089"/>
	<path fill="none" stroke="#000000" stroke-miterlimit="10" d="M109.824,81.861c0,0,4.836-15.717,16.926-21.761
		c6.045-3.627,8.463-12.09,9.672-18.136c0,0,7.254-21.761,15.716-20.552"/>
	<path fill="none" stroke="#000000" stroke-miterlimit="10" d="M90.481,18.996c0,0,32.642,4.835,36.269,7.253s32.642,0,32.642,2.418
		"/>
	<path fill="none" stroke="#000000" stroke-miterlimit="10" d="M78.392,32.294c0,0,27.806,4.836,38.687,7.254
		s32.642-8.463,36.269-2.418"/>
	<path fill="none" stroke="#000000" stroke-miterlimit="10" d="M67.512,40.757c0,0,24.179,9.671,36.269,9.671
		c12.089,0,37.477-9.671,45.94-2.418"/>
	<path fill="none" stroke="#000000" stroke-miterlimit="10" d="M53.004,45.592c0,0,22.97,13.3,44.73,10.882
		c21.762-2.418,47.15-1.209,47.15-1.209"/>
	<path fill="none" stroke="#000000" stroke-miterlimit="10" d="M31.242,55.264c0,0,25.389-2.418,50.776,15.717
		c16.925,4.836,44.731,2.418,47.149-1.209"/>
</g>
</svg>
