<?xml version="1.0" encoding="utf-8"?>
<!-- Generator: Adobe Illustrator 16.2.0, SVG Export Plug-In . SVG Version: 6.00 Build 0)  -->
<!DOCTYPE svg PUBLIC "-//W3C//DTD SVG 1.1//EN" "http://www.w3.org/Graphics/SVG/1.1/DTD/svg11.dtd">
<svg version="1.1" id="Layer_1" xmlns="http://www.w3.org/2000/svg" xmlns:xlink="http://www.w3.org/1999/xlink" x="0px" y="0px"
	 width="173px" height="95.75px" viewBox="0 0 173 95.75" enable-background="new 0 0 173 95.75" xml:space="preserve">
<g>
	<path fill="none" stroke="#000000" stroke-miterlimit="10" d="M31.521,56.572c0,0-21.183-9.709-24.713-5.297
		C3.277,52.159,0.63,55.688,5.926,62.75c5.296,7.061,3.531,8.827,2.648,15.005s9.709,13.239,10.591,14.122
		c0.883,0.883,7.061,5.296,10.592-4.413c3.53-9.709,7.062-15.005,7.943-14.122"/>
	<path fill="none" stroke="#000000" stroke-miterlimit="10" d="M132.141,43.332c0,0,13.239-4.412,25.486,1.766
		c6.033,4.525,10.592,4.413,9.709,0c3.531-9.708-3.421-7.061-0.773-18.535c4.413-16.77-6.178-4.413-9.709-18.535
		C153.324-6.095,144.498,5.38,141.85,8.91s-15.005,13.239-15.005,13.239"/>
	<path fill="none" stroke="#000000" stroke-miterlimit="10" d="M135.672,33.624c0,0,18.534,1.765,18.534,3.53"/>
	<path fill="none" stroke="#000000" stroke-miterlimit="10" d="M136.554,25.68c0,0,11.474-5.295,12.357-5.295"/>
	<path fill="none" stroke="#000000" stroke-miterlimit="10" d="M20.931,61.867c0,0,6.178-1.765,11.474,0"/>
	<path fill="none" stroke="#000000" stroke-miterlimit="10" d="M20.931,77.755c0,0,5.296-8.826,11.474-8.826"/>
	<path fill="none" stroke="#000000" stroke-miterlimit="10" d="M58.883,26.563c0,0,16.77,6.179,9.709,25.596
		c-7.061,19.418,7.944,27.362,8.826,27.362"/>
	<path fill="none" stroke="#000000" stroke-miterlimit="10" d="M87.127,15.088c0,0,11.475,1.766,6.178,24.715
		c-3.529,11.474,19.418,15.887,20.301,26.478"/>
	<path fill="none" stroke="#000000" stroke-miterlimit="10" d="M129.493,30.977c0,0-6.179-26.479-30.893-19.418
		c-24.713,7.061-53.839,20.3-53.839,20.3s-19.418,4.413-11.475,29.127C41.23,85.698,44.762,89.229,65.943,83.05
		c21.184-6.178,40.602-10.591,55.606-21.183C136.554,51.276,132.141,41.567,129.493,30.977z"/>
</g>
</svg>
