<?xml version="1.0" encoding="utf-8"?>
<!-- Generator: Adobe Illustrator 16.2.0, SVG Export Plug-In . SVG Version: 6.00 Build 0)  -->
<!DOCTYPE svg PUBLIC "-//W3C//DTD SVG 1.1//EN" "http://www.w3.org/Graphics/SVG/1.1/DTD/svg11.dtd">
<svg version="1.1" id="Layer_1" xmlns="http://www.w3.org/2000/svg" xmlns:xlink="http://www.w3.org/1999/xlink" x="0px" y="0px"
	 width="173px" height="167.75px" viewBox="0 0 173 167.75" enable-background="new 0 0 173 167.75" xml:space="preserve">
<g>
	<path fill="none" stroke="#000000" stroke-miterlimit="10" d="M162.598,155.105c1.732-8.879-0.918-22.877-7.311-24.125
		c-6.395-1.245-14.11,10.73-15.842,19.609c-1.732,8.88,2.424,15.161,8.816,16.407C154.654,168.245,160.865,163.986,162.598,155.105z
		"/>
	<path fill="none" stroke="#000000" stroke-miterlimit="10" d="M77.236,81.845c0,0,10.483-13.104,31.451-5.242
		c20.969,7.863,17.037,7.863,27.521,7.863s-2.621,36.694-32.763,39.315c-30.143,2.62-31.452-22.279-31.452-22.279"/>
	<path fill="none" stroke="#000000" stroke-miterlimit="10" d="M23.506,53.014c0,0-24.9,3.932-20.97,34.073
		c3.933,22.278,10.485,26.21,14.416,27.521"/>
	<circle fill="none" stroke="#000000" stroke-miterlimit="10" cx="95.583" cy="34.666" r="6.553"/>
	<circle fill="none" stroke="#000000" stroke-miterlimit="10" cx="97.549" cy="36.632" r="4.587"/>
	<circle fill="none" stroke="#000000" stroke-miterlimit="10" cx="97.549" cy="37.943" r="1.965"/>
	<path fill="none" stroke="#000000" stroke-miterlimit="10" d="M77.236,13.698c0,0,0-7.863,6.552-5.242
		c2.622-9.174,11.795-10.483,18.348,0c3.931-1.311,14.415-2.621,9.173,10.484c1.312,3.932,5.242,3.932,3.933,9.174
		c-1.312,5.242-2.621,7.863-6.554,7.863c-3.931,0,13.105,2.62,10.484,15.726c-2.621-2.621-7.863-6.552-10.484-5.242
		c-2.621,1.311,5.242,6.553,5.242,7.863s-13.104,2.621-14.415,1.311"/>
	<path fill="none" stroke="#000000" stroke-miterlimit="10" d="M136.209,70.05c0,0,7.862-13.104,15.726-6.552"/>
	<path fill="none" stroke="#000000" stroke-miterlimit="10" d="M145.383,70.05c0,0,10.483-11.794,19.656-6.552
		c7.864,5.242,1.312,7.863-1.31,9.174c-2.621,1.31-13.104,1.31-14.416,5.241"/>
	<path fill="none" stroke="#000000" stroke-miterlimit="10" d="M149.314,85.776c0,0,15.726-1.311,17.036-5.242
		c1.311-3.931,1.311-7.862-2.621-7.862"/>
	<path fill="none" stroke="#000000" stroke-miterlimit="10" d="M148.004,92.328c0,0,13.104,1.312,13.104-7.862"/>
	<path fill="none" stroke="#000000" stroke-miterlimit="10" d="M148.004,97.57c0,0,10.483,1.312,9.174-6.553"/>
	<path fill="none" stroke="#000000" stroke-miterlimit="10" d="M95.583,63.498c0,0,14.416-1.312,24.899,5.241
		c10.484,6.553,20.969-1.31,23.59,2.621c2.621,3.932,10.484,7.863,0,30.142s-30.143,45.869-68.147,43.247
		c-38.005-2.621-60.282-28.831-60.282-36.693c0-7.864-13.105-40.626,14.416-60.284c17.035-17.037,28.83-27.521,41.936-31.452
		s23.589-2.621,28.831,2.621s15.726,27.521-3.931,38.004C85.1,64.809,92.962,62.187,95.583,63.498z"/>
	<polyline fill="none" stroke="#000000" stroke-miterlimit="10" points="91.651,144.749 90.342,157.854 78.547,163.096 	"/>
	<line fill="none" stroke="#000000" stroke-miterlimit="10" x1="89.03" y1="159.164" x2="82.479" y2="167.027"/>
	<line fill="none" stroke="#000000" stroke-miterlimit="10" x1="90.342" y1="159.164" x2="89.03" y2="167.027"/>
	<polyline fill="none" stroke="#000000" stroke-miterlimit="10" points="61.51,143.439 60.199,156.544 48.404,161.786 	"/>
	<line fill="none" stroke="#000000" stroke-miterlimit="10" x1="58.889" y1="157.854" x2="53.646" y2="164.407"/>
	<line fill="none" stroke="#000000" stroke-miterlimit="10" x1="60.199" y1="157.854" x2="58.889" y2="165.717"/>
</g>
</svg>
