<?xml version="1.0" encoding="utf-8"?>
<!-- Generator: Adobe Illustrator 16.2.0, SVG Export Plug-In . SVG Version: 6.00 Build 0)  -->
<!DOCTYPE svg PUBLIC "-//W3C//DTD SVG 1.1//EN" "http://www.w3.org/Graphics/SVG/1.1/DTD/svg11.dtd">
<svg version="1.1" id="Layer_1" xmlns="http://www.w3.org/2000/svg" xmlns:xlink="http://www.w3.org/1999/xlink" x="0px" y="0px"
	 width="173px" height="160.75px" viewBox="0 0 173 160.75" enable-background="new 0 0 173 160.75" xml:space="preserve">
<g>
	<path fill="none" stroke="#000000" stroke-miterlimit="10" d="M168.182,83.892c0,0,0.947,64.945,0,69.864
		c-0.949,4.918-161.238,6.081-163.107,0c-1.87-6.082,0-70.864,0-70.864h1.816"/>
	<path fill="none" stroke="#000000" stroke-miterlimit="10" d="M91.275,18.953c0,2.349-1.904,4.252-4.253,4.252
		c-2.348,0-5.102-2.754-5.102-5.103c0-2.347,1.903-4.251,4.252-4.251C88.521,13.852,91.275,16.605,91.275,18.953z"/>
	<path fill="none" stroke="#000000" stroke-miterlimit="10" d="M85.322,13.852c0,0-1.701-7.653-1.701-10.204
		s3.402-2.551,3.402-2.551s1.7,0,1.7,2.551s-0.851,10.204-0.851,10.204"/>
	<path fill="none" stroke="#000000" stroke-miterlimit="10" d="M82.117,15.553c0,0-6.395-4.537-8.104-6.43
		c-1.711-1.892,0.812-4.173,0.812-4.173s1.263-1.14,2.973,0.751c1.711,1.894,6.213,8.141,6.213,8.141"/>
	<path fill="none" stroke="#000000" stroke-miterlimit="10" d="M81.65,19.263c0,0-7.801,0.775-10.333,0.47
		c-2.533-0.304-2.127-3.681-2.127-3.681s0.203-1.688,2.736-1.384c2.532,0.304,10.028,2.062,10.028,2.062"/>
	<path fill="none" stroke="#000000" stroke-miterlimit="10" d="M83.622,22.393c0,0-5.331,5.75-7.43,7.198
		c-2.1,1.45-4.032-1.349-4.032-1.349s-0.967-1.4,1.133-2.85c2.099-1.449,8.88-5.099,8.88-5.099"/>
	<path fill="none" stroke="#000000" stroke-miterlimit="10" d="M86.473,23.057c0,0-0.471,7.826-1.172,10.277
		c-0.702,2.454-3.973,1.519-3.973,1.519s-1.635-0.469-0.933-2.921s3.625-9.576,3.625-9.576"/>
	<path fill="none" stroke="#000000" stroke-miterlimit="10" d="M89.4,22.355c0,0,4.365,6.512,5.291,8.888
		c0.927,2.378-2.242,3.612-2.242,3.612s-1.585,0.617-2.512-1.759c-0.927-2.377-2.914-9.815-2.914-9.815"/>
	<path fill="none" stroke="#000000" stroke-miterlimit="10" d="M91.496,19.804c0,0,7.212,3.075,9.283,4.56
		c2.075,1.486,0.095,4.252,0.095,4.252s-0.992,1.382-3.065-0.104c-2.072-1.485-7.799-6.634-7.799-6.634"/>
	<path fill="none" stroke="#000000" stroke-miterlimit="10" d="M91.332,17.027c0,0,7.689-1.531,10.238-1.475
		c2.552,0.057,2.477,3.457,2.477,3.457s-0.039,1.701-2.59,1.643c-2.55-0.056-10.183-1.075-10.183-1.075"/>
	<path fill="none" stroke="#000000" stroke-miterlimit="10" d="M88.724,13.857c0,0,5.435-6.368,7.609-8.008
		c2.177-1.639,4.362,1.262,4.362,1.262s1.093,1.451-1.084,3.091c-2.176,1.639-9.25,5.831-9.25,5.831"/>
	<polyline fill="none" stroke="#000000" stroke-miterlimit="10" points="88.116,26.524 87.04,49.483 86.189,83 	"/>
	<path fill="none" stroke="#000000" stroke-miterlimit="10" d="M87.04,63.097c5.075-17.543,15.075-7,15.075-7s-9-1-15.075,10.394"/>
	<path fill="none" stroke="#000000" stroke-miterlimit="10" d="M87.505,44.906c-6.777-11.58-15.39-4.81-15.39-4.81s10-1,15,8"/>
	<path fill="none" stroke="#000000" stroke-miterlimit="10" d="M86.692,62.6c0.424-10.502-17.576-10.502-17.576-10.502
		s13.192,6.86,17,16"/>
	<path fill="none" stroke="#000000" stroke-miterlimit="10" d="M6.891,82.892c0,0,61.741,1,66.349,0s92.15,0,92.15,0
		s2.819-1,2.791,1"/>
</g>
</svg>
