<?xml version="1.0" encoding="utf-8"?>
<!-- Generator: Adobe Illustrator 16.2.0, SVG Export Plug-In . SVG Version: 6.00 Build 0)  -->
<!DOCTYPE svg PUBLIC "-//W3C//DTD SVG 1.1//EN" "http://www.w3.org/Graphics/SVG/1.1/DTD/svg11.dtd">
<svg version="1.1" id="Layer_1" xmlns="http://www.w3.org/2000/svg" xmlns:xlink="http://www.w3.org/1999/xlink" x="0px" y="0px"
	 width="173px" height="64.75px" viewBox="0 0 173 64.75" enable-background="new 0 0 173 64.75" xml:space="preserve">
<g>
	<circle fill="none" stroke="#231F20" stroke-miterlimit="10" cx="80.691" cy="52.488" r="11.256"/>
	<circle fill="none" stroke="#231F20" stroke-miterlimit="10" cx="80.691" cy="52.488" r="4.33"/>
	<circle fill="none" stroke="#231F20" stroke-miterlimit="10" cx="149.959" cy="52.488" r="11.256"/>
	<circle fill="none" stroke="#231F20" stroke-miterlimit="10" cx="149.96" cy="52.488" r="4.329"/>
	<line fill="none" stroke="#231F20" stroke-miterlimit="10" x1="91.947" y1="54" x2="138.703" y2="52.488"/>
	<path fill="none" stroke="#231F20" stroke-miterlimit="10" d="M161.216,52.488c0,0,14.72-5.195,9.524-19.915
		c-3.463-11.257-26.842-6.927-30.305-9.524C128.568,1,120.521,1.402,120.521,1.402s-17.317-0.866-36.366,0.866
		c-7.793,0.865-14.72,30.305-32.902,32.036c-2.598,2.598-5.195,15.586,0,17.317c0,0,10.39,2.598,17.316,2.598"/>
	<path fill="none" stroke="#231F20" stroke-miterlimit="10" d="M104.069,32.573c0,0,6.927,0,8.658,0.866"/>
	<path fill="none" stroke="#231F20" stroke-miterlimit="10" d="M101.472,25.646c0,0-19.049,4.329-21.646,0
		c-2.598-4.33,6.061-20.781,20.78-19.915C100.605,16.122,101.472,25.646,101.472,25.646z"/>
	<path fill="none" stroke="#231F20" stroke-miterlimit="10" d="M104.936,5.731l1.731,19.915c0,0,18.183,0,20.78,0
		s1.557-16.922-11.256-19.049C106.568,5,104.936,5.731,104.936,5.731z"/>
	
		<ellipse transform="matrix(0.7894 0.6139 -0.6139 0.7894 32.2244 -66.8836)" fill="none" stroke="#231F20" stroke-miterlimit="10" cx="113.593" cy="13.524" rx="3.463" ry="4.329"/>
	<path fill="none" stroke="#231F20" stroke-miterlimit="10" d="M111.861,17.854c0,0-0.865,2.598-0.865,6.927"/>
	<path fill="none" stroke="#231F20" stroke-miterlimit="10" d="M115.325,16.988c0,0,0.866,4.328,1.731,7.792"/>
	<line fill="none" stroke="#231F20" stroke-miterlimit="10" x1="125.716" y1="18.72" x2="122.252" y2="24.78"/>
	<line fill="none" stroke="#231F20" stroke-miterlimit="10" x1="124.85" y1="22.183" x2="128.313" y2="24.78"/>
	<line fill="none" stroke="#231F20" stroke-miterlimit="10" x1="114.459" y1="20.451" x2="123.984" y2="22.183"/>
	<path fill="none" stroke="#231F20" stroke-miterlimit="10" d="M34.902,19.841c0,0-6.061,6.062-4.329,19.915S29.707,64,29.707,64"/>
	
		<ellipse transform="matrix(-0.8376 0.5463 -0.5463 -0.8376 60.0544 7.9748)" fill="none" stroke="#231F20" stroke-miterlimit="10" cx="28.842" cy="12.914" rx="6.534" ry="5.055"/>
	<path fill="none" stroke="#231F20" stroke-miterlimit="10" d="M22.78,21.573c0,0-1.731,8.658,9.524,9.524"/>
	<path fill="none" stroke="#231F20" stroke-miterlimit="10" d="M21.705,22.414c0,0-8.829-0.141-7.648,11.087"/>
	<polyline fill="none" stroke="#231F20" stroke-miterlimit="10" points="24.513,18.109 14.988,36.293 11.524,49.28 2,60.537 
		5.463,62.269 	"/>
	<polyline fill="none" stroke="#231F20" stroke-miterlimit="10" points="14.988,36.293 23.646,48.414 20.184,63.134 22.78,64 	"/>
	<path fill="none" stroke="#231F20" stroke-miterlimit="10" d="M22.78,18.976c0,0-9.524-2.598-14.72,3.463
		C2.866,28.5,6.329,36.293,9.793,38.024c3.463,1.731,2.598,0.866,4.329-0.866"/>
</g>
</svg>
