<?xml version="1.0" encoding="utf-8"?>
<!-- Generator: Adobe Illustrator 16.2.0, SVG Export Plug-In . SVG Version: 6.00 Build 0)  -->
<!DOCTYPE svg PUBLIC "-//W3C//DTD SVG 1.1//EN" "http://www.w3.org/Graphics/SVG/1.1/DTD/svg11.dtd">
<svg version="1.1" id="Layer_1" xmlns="http://www.w3.org/2000/svg" xmlns:xlink="http://www.w3.org/1999/xlink" x="0px" y="0px"
	 width="173px" height="168.75px" viewBox="0 0 173 168.75" enable-background="new 0 0 173 168.75" xml:space="preserve">
<g>
	<ellipse fill="none" stroke="#231F20" stroke-miterlimit="10" cx="84.685" cy="17.252" rx="68.552" ry="15.974"/>
	<ellipse fill="none" stroke="#231F20" stroke-miterlimit="10" cx="84.685" cy="73.158" rx="64.519" ry="14.643"/>
	<path fill="none" stroke="#231F20" stroke-miterlimit="10" d="M84.685,62.51c29.751,0,53.87,4.172,53.87,9.318
		c0,5.146-24.119,9.316-53.87,9.316c-29.752,0-53.87-4.171-53.87-9.316"/>
	<path fill="none" stroke="#231F20" stroke-miterlimit="10" d="M84.685,77.152c-21.252,0-38.479-2.384-38.479-5.325
		c0-2.939,17.227-5.323,38.479-5.323c12.078,0,22.857,0.769,29.912,1.975"/>
	<path fill="none" stroke="#231F20" stroke-miterlimit="10" d="M84.685,73.158c-11.374,0-20.593-0.596-20.593-1.33
		c0-0.735,9.219-1.331,20.593-1.331c11.373,0,20.593,0.596,20.593,1.331"/>
	<path fill="none" stroke="#231F20" stroke-miterlimit="10" d="M143.88,153.024c0,5.881-26.503,14.642-59.195,14.642
		s-59.195-8.761-59.195-14.642"/>
	<line fill="none" stroke="#231F20" stroke-miterlimit="10" x1="153.236" y1="17.252" x2="143.88" y2="153.024"/>
	<line fill="none" stroke="#231F20" stroke-miterlimit="10" x1="16.055" y1="17.252" x2="25.412" y2="153.024"/>
</g>
</svg>
