<?xml version="1.0" encoding="utf-8"?>
<!-- Generator: Adobe Illustrator 16.2.0, SVG Export Plug-In . SVG Version: 6.00 Build 0)  -->
<!DOCTYPE svg PUBLIC "-//W3C//DTD SVG 1.1//EN" "http://www.w3.org/Graphics/SVG/1.1/DTD/svg11.dtd">
<svg version="1.1" id="Layer_1" xmlns="http://www.w3.org/2000/svg" xmlns:xlink="http://www.w3.org/1999/xlink" x="0px" y="0px"
	 width="173px" height="107.75px" viewBox="0 0 173 107.75" enable-background="new 0 0 173 107.75" xml:space="preserve">
<g>
	<path fill="none" stroke="#000000" stroke-miterlimit="10" d="M30.612,33.059C35.523,37.442,39,64.922,39,76.386
		c0,14.963-5.92,16.872-13.223,16.872c-7.302,0-13.222-1.909-13.222-16.872c0-11.505,3.5-39.012,8.438-43.368"/>
	<polyline fill="none" stroke="#000000" stroke-miterlimit="10" points="17.616,91.642 17.616,107.142 16.116,107.142 	"/>
	<polyline fill="none" stroke="#000000" stroke-miterlimit="10" points="33.616,91.642 33.616,107.142 36.116,107.142 	"/>
	<path fill="none" stroke="#000000" stroke-miterlimit="10" d="M34.706,43.623c0,0,5.116,0.931,8.409,9.277
		c1.575,3.998,3.362-7.687,5.045-17.295"/>
	<path fill="none" stroke="#000000" stroke-miterlimit="10" d="M17.094,43.623c0,0-7.846,14.646-10.978,27.617"/>
	<path fill="none" stroke="#000000" stroke-miterlimit="10" d="M40.691,17.422c0,9.395-6.174,16.262-14.395,16.262
		s-15.375-6.68-15.375-16.073c0-9.395,6.664-16.823,14.885-16.823S40.691,8.031,40.691,17.422z"/>
	<g>
		<path fill="none" stroke="#000000" stroke-miterlimit="10" d="M139.712,33.06c-4.992,4.384-8.526,15.104-8.526,26.568
			c0,14.964,6.018,16.872,13.439,16.872s13.439-1.908,13.439-16.872c0-11.506-3.558-22.256-8.576-26.61"/>
		<polyline fill="none" stroke="#000000" stroke-miterlimit="10" points="152.616,75.642 152.616,107.142 155.116,107.142 		"/>
		<polyline fill="none" stroke="#000000" stroke-miterlimit="10" points="137.616,75.642 137.616,107.142 134.116,107.142 		"/>
		<path fill="none" stroke="#000000" stroke-miterlimit="10" d="M133.514,43.623c0,0-2.129,3.908-4.625,9.476
			c-2.337,5.21-2.565-8.144-1.117-14.659"/>
		<path fill="none" stroke="#000000" stroke-miterlimit="10" d="M155.958,43.623c0,0,7.976,14.646,11.157,27.618"/>
		<path fill="none" stroke="#000000" stroke-miterlimit="10" d="M129.467,17.422c0,9.396,6.275,16.262,14.631,16.262
			s15.628-6.679,15.628-16.074c0-9.393-6.774-16.822-15.13-16.822S129.467,8.03,129.467,17.422z"/>
	</g>
	<line fill="none" stroke="#000000" stroke-miterlimit="10" x1="121.775" y1="13.548" x2="100.703" y2="9.267"/>
	<line fill="none" stroke="#000000" stroke-miterlimit="10" x1="120.502" y1="19.893" x2="98.86" y2="20.951"/>
	<line fill="none" stroke="#000000" stroke-miterlimit="10" x1="122.496" y1="26.642" x2="99.413" y2="29.855"/>
	<line fill="#FFFFFF" x1="45.795" y1="13.391" x2="62.707" y2="8.652"/>
	<line fill="none" stroke="#000000" stroke-miterlimit="10" x1="45.795" y1="13.391" x2="62.707" y2="8.652"/>
	<line fill="#FFFFFF" x1="45.795" y1="18.13" x2="64.116" y2="19.078"/>
	<line fill="none" stroke="#000000" stroke-miterlimit="10" x1="45.795" y1="18.13" x2="64.116" y2="19.078"/>
	<line fill="#FFFFFF" x1="45.795" y1="25.712" x2="64.116" y2="28.556"/>
	<line fill="none" stroke="#000000" stroke-miterlimit="10" x1="45.795" y1="25.712" x2="64.116" y2="28.556"/>
</g>
</svg>
