<?xml version="1.0" encoding="utf-8"?>
<!-- Generator: Adobe Illustrator 16.2.0, SVG Export Plug-In . SVG Version: 6.00 Build 0)  -->
<!DOCTYPE svg PUBLIC "-//W3C//DTD SVG 1.1//EN" "http://www.w3.org/Graphics/SVG/1.1/DTD/svg11.dtd">
<svg version="1.1" id="Layer_1" xmlns="http://www.w3.org/2000/svg" xmlns:xlink="http://www.w3.org/1999/xlink" x="0px" y="0px"
	 width="173px" height="160.75px" viewBox="0 0 173 160.75" enable-background="new 0 0 173 160.75" xml:space="preserve">
<g>
	<rect x="18.616" y="56.142" fill="none" stroke="#231F20" stroke-miterlimit="10" width="136" height="104"/>
	<rect x="73.616" y="128.142" fill="none" stroke="#231F20" stroke-miterlimit="10" width="24" height="32"/>
	<path fill="none" stroke="#000000" stroke-miterlimit="10" d="M121.801,108.352c0-5.299,1.612-11.898,3.887-13.904"/>
	<path fill="none" stroke="#000000" stroke-miterlimit="10" d="M130.117,94.467c2.261,2.019,3.862,8.604,3.862,13.885"/>
	<path fill="none" stroke="#000000" stroke-miterlimit="10" d="M132.002,99.331c0,0,2.357,0.43,3.873,4.273
		c0.726,1.841,1.549-3.54,2.322-7.965"/>
	<path fill="none" stroke="#000000" stroke-miterlimit="10" d="M123.892,99.331c0,0-3.669,2.038-5.111,8.013"/>
	<path fill="none" stroke="#000000" stroke-miterlimit="10" d="M134.759,87.265c0,4.327-2.843,7.489-6.63,7.489
		c-3.785,0-7.08-3.076-7.08-7.402s3.068-7.747,6.854-7.747S134.759,82.94,134.759,87.265z"/>
	<polygon fill="none" stroke="#231F20" stroke-miterlimit="10" points="165.104,56.142 8.128,56.142 86.886,1.523 	"/>
	<rect x="28.616" y="67.142" fill="none" stroke="#231F20" stroke-miterlimit="10" width="33" height="41"/>
	<rect x="69.616" y="67.142" fill="none" stroke="#231F20" stroke-miterlimit="10" width="33" height="41"/>
	<rect x="111.616" y="67.142" fill="none" stroke="#231F20" stroke-miterlimit="10" width="33" height="41"/>
	<rect x="124.848" y="84.283" width="1.215" height="1.214"/>
	<rect x="129.703" y="84.283" width="1.215" height="1.214"/>
	<path fill="none" stroke="#000000" stroke-miterlimit="10" d="M124.85,89.138c0,0,3.033,3.642,6.068,0"/>
</g>
</svg>
