<?xml version="1.0" encoding="utf-8"?>
<!-- Generator: Adobe Illustrator 16.2.0, SVG Export Plug-In . SVG Version: 6.00 Build 0)  -->
<!DOCTYPE svg PUBLIC "-//W3C//DTD SVG 1.1//EN" "http://www.w3.org/Graphics/SVG/1.1/DTD/svg11.dtd">
<svg version="1.1" id="Layer_1" xmlns="http://www.w3.org/2000/svg" xmlns:xlink="http://www.w3.org/1999/xlink" x="0px" y="0px"
	 width="173px" height="92.75px" viewBox="0 0 173 92.75" enable-background="new 0 0 173 92.75" xml:space="preserve">
<g>
	<path fill="none" stroke="#231F20" stroke-miterlimit="10" d="M-1.426,56.125c0,0,24-5,28-12c3-4,26-11,31-12s8-6,6-8s-1-5-15-3
		s-26,2-26,0"/>
	<path fill="none" stroke="#231F20" stroke-miterlimit="10" d="M-0.426,13.125c0,0,12-12,29-12s19,1,25,4s11,12,11,12"/>
	<path fill="none" stroke="#231F20" stroke-miterlimit="10" d="M37.574,18.125c0,0-1,2-4,4"/>
	<path fill="none" stroke="#231F20" stroke-miterlimit="10" d="M134.574,29.125c-2,1-5-3-6-5c-5,1-12-7-14-6s-13-1-13-1s6-10,14-10
		s19-1,26,0s12-1,12,1c5-1,9-6,21,16"/>
	<path fill="none" stroke="#231F20" stroke-miterlimit="10" d="M174.574,88.125c0,0-11-8-17-11c-8-3-28-19-32-25s-10-9-13-12
		s-9-7-15-8s-4-7-4-7s5-8,18-3c12,5,21,13,21,13s3-1,2-5"/>
	<path fill="none" stroke="#231F20" stroke-miterlimit="10" d="M84.574,72.125c-3-11-1-24,0-26s0-6,0-6v-7l-2-4l2-3l1-10l16,1"/>
	<path fill="none" stroke="#231F20" stroke-miterlimit="10" d="M28.574,43.125l1,46c0,0,103-1,106-3c0-7,1-23,1-23"/>
	<path fill="none" stroke="#231F20" stroke-miterlimit="10" d="M45.574,17.125c0,0,6-5,6-9"/>
	<path fill="none" stroke="#231F20" stroke-miterlimit="10" d="M38.574,8.125c0,0,1,7,0,10l40-2v10l-3,3l3,4v7l2,3l-2,7l6,22"/>
	<path fill="none" stroke="#231F20" stroke-miterlimit="10" d="M127.574,24.125c0,0,5-3,5-7"/>
	<path fill="none" stroke="#231F20" stroke-miterlimit="10" d="M133.574,29.125c0,0,5,0,6-8"/>
</g>
</svg>
