<?xml version="1.0" encoding="utf-8"?>
<!-- Generator: Adobe Illustrator 16.2.0, SVG Export Plug-In . SVG Version: 6.00 Build 0)  -->
<!DOCTYPE svg PUBLIC "-//W3C//DTD SVG 1.1//EN" "http://www.w3.org/Graphics/SVG/1.1/DTD/svg11.dtd">
<svg version="1.1" id="Layer_1" xmlns="http://www.w3.org/2000/svg" xmlns:xlink="http://www.w3.org/1999/xlink" x="0px" y="0px"
	 width="173px" height="152.75px" viewBox="0 0 173 152.75" enable-background="new 0 0 173 152.75" xml:space="preserve">
<g>
	<path fill="none" stroke="#000000" stroke-miterlimit="10" d="M84.114,73.092c0,0-7.059,10.497-2.359,15.343
		c2.307,2.379,8.374,4.291,17.703,1.181"/>
	<path fill="none" stroke="#000000" stroke-miterlimit="10" d="M88.836,81.354c0,0,0,2.359,2.36,2.359s2.36-2.359,2.36-2.359"/>
	<path fill="none" stroke="#000000" stroke-miterlimit="10" d="M79.394,83.713c0,0-10.621,3.542-8.262-10.62
		c-1.18-1.181-1.18-3.541,1.181-3.541c5.901-2.359,11.802-11.805,14.163-16.524c2.359-4.72-2.361-12.982,16.521-12.982l1.182-3.54"
		/>
	<path fill="none" stroke="#000000" stroke-miterlimit="10" d="M118.341,64.831c0,0,4.721,21.243,3.541,27.145
		c-1.182,5.9-1.182,20.064,1.18,29.506c2.36,9.439,0,21.244,0,25.965c0,4.719,22.424,5.9,25.965,2.359
		c-2.36-5.9-17.703-1.18-17.703-9.442c2.36-14.161,3.541-21.243,1.18-48.388c11.803-50.748-10.621-48.39-10.621-48.39
		s-2.361-3.541-2.361-5.9"/>
	<path fill="none" stroke="#000000" stroke-miterlimit="10" d="M32.186,41.228c0,0,16.522,7.08,20.063,16.521
		c3.54,9.444,10.622,30.687,16.523,35.407c5.9,4.72,15.342,15.344,17.703,20.064c2.359,4.721,20.063,14.161,9.441,22.424
		c-10.623,8.262-15.343,8.262-11.803,3.541c3.541-4.723,14.163-7.082-3.54-12.982c-8.262-4.721-12.983-9.442-12.983-9.442
		S49.889,95.517,47.528,93.155c-2.361-2.361-12.982-20.063-11.802-21.242"/>
	<path fill="none" stroke="#000000" stroke-miterlimit="10" d="M14.482,114.399c-2.36-12.983-9.441-18.883-11.802-46.027
		c2.36-27.145,14.162-30.687,16.522-33.047c2.36-2.361,10.622-9.441,11.802-12.982c1.181-3.539-1.18-3.539,5.901-14.162
		c7.081-10.622,21.244-5.9,21.244-5.9s23.604,8.26,3.54,30.684c3.541,8.264-5.9,2.361-3.54,4.722
		c-3.541,3.542-8.263,9.812-10.622,5.091c-2.36-4.721-8.262-4.721-8.262-2.36"/>
	<path fill="none" stroke="#000000" stroke-miterlimit="10" d="M120.701,83.713c0,0-12.982,15.345-15.343,18.886
		c-2.36,3.539-4.721,0-7.081,21.243"/>
	<path fill="none" stroke="#000000" stroke-miterlimit="10" d="M131.323,28.634c-4.172,4.096-11.617,9.82-20.063,9.053
		c-12.983-1.182-11.802-8.262-10.622-11.803S114.8,5.821,118.341,5.821s11.803-2.365,15.343,9.441
		c0.577,1.926,1.181,2.262,1.181,3.541C134.864,23.524,133.565,26.435,131.323,28.634z"/>
</g>
</svg>
