<?xml version="1.0" encoding="utf-8"?>
<!-- Generator: Adobe Illustrator 16.2.0, SVG Export Plug-In . SVG Version: 6.00 Build 0)  -->
<!DOCTYPE svg PUBLIC "-//W3C//DTD SVG 1.1//EN" "http://www.w3.org/Graphics/SVG/1.1/DTD/svg11.dtd">
<svg version="1.1" id="Layer_1" xmlns="http://www.w3.org/2000/svg" xmlns:xlink="http://www.w3.org/1999/xlink" x="0px" y="0px"
	 width="173px" height="92.75px" viewBox="0 0 173 92.75" enable-background="new 0 0 173 92.75" xml:space="preserve">
<g>
	<path fill="none" stroke="#000000" stroke-miterlimit="10" d="M1.978,42.6c6.125,2.726,15.088,9.021,31.516,22.923
		c24.832,21.011,41.068,26.74,56.35,25.785s33.428-7.643,47.752-20.055c11.93-10.34,22.598-25.148,31.518-29.607
		c3.82-1.91,2.291-5.008,0.953-5.801c-20.904-12.396-57.059-55.107-83.088-21.896c0,0-18.146-28.653-60.168,7.64
		C12.483,33.05-1.155,41.206,1.978,42.6z"/>
	<path fill="none" stroke="#000000" stroke-miterlimit="10" d="M10.573,40.69c0,0,54.438,25.786,79.27,24.832
		c24.832-0.955,68.764-22.923,71.629-26.742c-2.865-1.91-31.518-21.012-46.797-21.012c-15.281,0-20.057,8.597-28.652,8.597
		s-12.416-7.642-24.832-7.642S16.304,36.87,10.573,40.69z"/>
	<path fill="none" stroke="#000000" stroke-miterlimit="10" d="M34.448,51.196c0,0,6.686-3.82,12.416,0.953
		c0.955-0.953,11.461-3.818,14.326,1.911c1.91-2.864,13.371-1.911,13.371,0.955c0.955-1.909,10.506-2.866,11.461,0
		c0,0,7.641-4.774,14.326-0.955c1.91-0.954,9.551-3.819,13.371-0.954c0.955-1.91,8.596-3.82,12.414-0.957
		c0.955-1.908,7.641-2.863,9.551-0.953"/>
	<line fill="none" stroke="#000000" stroke-miterlimit="10" x1="61.19" y1="56.926" x2="61.19" y2="54.062"/>
	<line fill="none" stroke="#000000" stroke-miterlimit="10" x1="58.325" y1="34.956" x2="58.325" y2="19.678"/>
	<line fill="none" stroke="#000000" stroke-miterlimit="10" x1="35.403" y1="34.005" x2="35.403" y2="28.274"/>
	<line fill="none" stroke="#000000" stroke-miterlimit="10" x1="112.765" y1="33.05" x2="112.765" y2="18.725"/>
	<line fill="none" stroke="#000000" stroke-miterlimit="10" x1="136.64" y1="31.139" x2="136.64" y2="24.454"/>
	<line fill="none" stroke="#000000" stroke-miterlimit="10" x1="46.864" y1="54.061" x2="46.864" y2="52.151"/>
	<line fill="none" stroke="#000000" stroke-miterlimit="10" x1="73.606" y1="60.746" x2="74.562" y2="55.972"/>
	<line fill="none" stroke="#000000" stroke-miterlimit="10" x1="86.978" y1="61.701" x2="86.978" y2="55.016"/>
	<line fill="none" stroke="#000000" stroke-miterlimit="10" x1="100.349" y1="60.746" x2="100.349" y2="54.061"/>
	<line fill="none" stroke="#000000" stroke-miterlimit="10" x1="113.72" y1="57.88" x2="113.72" y2="53.106"/>
	<line fill="none" stroke="#000000" stroke-miterlimit="10" x1="126.134" y1="54.061" x2="126.134" y2="52.151"/>
	<path fill="none" stroke="#000000" stroke-miterlimit="10" d="M22.989,34.956c0,0,9.551,0.958,12.414-1.906
		c0,1.881,5.76,4.721,12.416,4.774c3.488,0.03,7.223,0.09,10.506-2.868c1.91,4.777,23.877,8.6,27.697-0.952v-6.687"/>
	<path fill="none" stroke="#000000" stroke-miterlimit="10" d="M85.067,34.956c0,0,3.82,4.777,15.281,4.777
		s13.371-3.819,12.416-8.594c2.864,4.774,4.775,3.816,11.459,3.816c6.686,0,11.461-1.906,12.416-5.728
		c0.955,0.956,6.686,2.865,8.596,0"/>
</g>
</svg>
