<?xml version="1.0" encoding="utf-8"?>
<!-- Generator: Adobe Illustrator 16.2.0, SVG Export Plug-In . SVG Version: 6.00 Build 0)  -->
<!DOCTYPE svg PUBLIC "-//W3C//DTD SVG 1.1//EN" "http://www.w3.org/Graphics/SVG/1.1/DTD/svg11.dtd">
<svg version="1.1" id="Layer_1" xmlns="http://www.w3.org/2000/svg" xmlns:xlink="http://www.w3.org/1999/xlink" x="0px" y="0px"
	 width="173px" height="125.75px" viewBox="0 0 173 125.75" enable-background="new 0 0 173 125.75" xml:space="preserve">
<g>
	<path fill="none" stroke="#000000" stroke-miterlimit="10" d="M56.16,41.216c2.132,2.134,19.189,5.33,26.651,4.266
		c2.132-5.331,11.726-8.528,12.792,0c1.064,8.528-4.265,5.328-9.595,6.395c-5.331,1.066-15.992,4.266-25.585,4.266
		c21.32,18.122,35.18,57.564,35.18,57.564c5.33,2.131,14.924,6.396,10.66,8.527c-4.264,2.133-15.991,3.197-22.386-6.396
		C76.415,88.12,46.566,91.322,43.368,91.322s-9.594,13.856-6.398,24.515c3.2,10.663-10.66,7.463-10.66,7.463
		c-7.461-1.066,3.199-7.463,3.199-7.463s-6.396-30.913,8.528-33.045c-4.264-6.396-5.331-14.924-5.331-19.188
		c-3.197,6.396-4.264,13.856-11.726,11.725c-9.594-5.328-8.528-11.725-12.792-10.659c-4.264,1.066-9.594-4.264-5.329-9.593
		c4.264-5.332,7.462-4.268,10.66,2.131c4.264,3.198,9.594,6.396,9.594,6.396s4.264-7.463,4.264-17.059"/>
	<path fill="none" stroke="#000000" stroke-miterlimit="10" d="M41.235,24.161c0,0,3.198,5.33,7.462,5.33"/>
	<path fill="none" stroke="#000000" stroke-miterlimit="10" d="M46.566,41.216c0,0-9.596-9.593-12.792-7.461
		C30.576,35.887,36.97,48.679,46.566,41.216z"/>
	<path fill="none" stroke="#000000" stroke-miterlimit="10" d="M57.227,27.359c0,0,1.064,23.452-14.925,23.452
		c-15.99,0-21.32-11.727-21.32-20.254s3.198-19.189,15.99-19.189C49.764,11.368,57.227,15.632,57.227,27.359z"/>
	<path fill="none" stroke="#000000" stroke-miterlimit="10" d="M89.192,40.18c0-8.066,3.387-18.149,16.932-18.149
		c13.542,0,21.444,4.032,21.444,15.125c0,0,1.128,22.186-15.802,22.186c-9.13,0-14.979-3.227-18.428-7.464"/>
	<path fill="none" stroke="#000000" stroke-miterlimit="10" d="M93.472,29.491c0,0,6.396,1.064,7.461,6.396"/>
	<path fill="none" stroke="#000000" stroke-miterlimit="10" d="M106.263,36.953c0,0,4.265-4.264,10.661-2.132"/>
	<path fill="none" stroke="#000000" stroke-miterlimit="10" d="M95.604,44.414c0,0,5.33-1.064,10.66,8.53"/>
	<path fill="none" stroke="#000000" stroke-miterlimit="10" d="M117.99,63.604c0,0-3.198,11.725-14.924,8.527
		c-2.133-5.33-12.794-11.726-14.925-3.198c-2.133,8.527,5.331,10.661,10.66,9.593c0,0,23.453,14.927,31.981-4.263
		c3.198-15.988-1.067-20.254-5.331-22.388"/>
	<path fill="none" stroke="#000000" stroke-miterlimit="10" d="M131.848,74.264c0,0,4.265,9.594,15.991,18.124
		c8.527,8.527,11.726,17.057,12.792,19.188c1.065,2.131,10.66,2.131,10.66,8.526c0,6.398-14.925,2.132-14.925-2.131
		c-4.264-4.265-9.593-7.462-13.857-8.526c-4.264-1.066-10.661-6.397-11.726-8.529c-3.198,2.132-15.991,2.132-25.584-3.198
		c0,0,3.197,5.33,1.064,9.595c-2.131,4.264,8.529,8.525,5.331,11.725c-3.198,3.197-5.331,1.065-6.396-1.065"/>
	<path fill="none" stroke="#000000" stroke-miterlimit="10" d="M90.272,99.849c0,0-2.132-10.661,9.594-13.859
		c1.067-2.131-1.065-3.197-3.197-7.463"/>
	<path fill="none" stroke="#000000" stroke-miterlimit="10" d="M93.472,65.204v-5.863c0,0-4.265-3.199-7.463-6.398"/>
	<path fill="none" stroke="#000000" stroke-miterlimit="10" d="M92.404,27.359c0,0-3.197-7.462-1.065-10.661
		c2.133-3.197,11.727-10.661,2.133-14.924C83.877-2.49,79.613,12.434,81.744,15.632c2.133,3.199-5.33,9.595,0,29.849"/>
</g>
</svg>
