<?xml version="1.0" encoding="utf-8"?>
<!-- Generator: Adobe Illustrator 16.2.0, SVG Export Plug-In . SVG Version: 6.00 Build 0)  -->
<!DOCTYPE svg PUBLIC "-//W3C//DTD SVG 1.1//EN" "http://www.w3.org/Graphics/SVG/1.1/DTD/svg11.dtd">
<svg version="1.1" id="Layer_1" xmlns="http://www.w3.org/2000/svg" xmlns:xlink="http://www.w3.org/1999/xlink" x="0px" y="0px"
	 width="173px" height="167.75px" viewBox="0 0 173 167.75" enable-background="new 0 0 173 167.75" xml:space="preserve">
<g>
	<path fill="none" stroke="#000000" stroke-miterlimit="10" d="M16.458,159.233c0,0,3,6,21,4s19,2,22,3s6-6,13-2s9,2,11,2s8-4,10-3
		s12,3,16,3s15-5,19-5s30,1,32,1s6-4-6-12s-19-25-20-30s-8-16-8-21s-9-17-11-21s-10-24-16-27"/>
	<path fill="none" stroke="#000000" stroke-miterlimit="10" d="M84.458,51.233c0,0-6,7-12,17s-14,41-19,48s-17,26-21,29
		s-15,14-15,14"/>
	<path fill="none" stroke="#000000" stroke-miterlimit="10" d="M90.458,32.233c0,0-2,11-3,14s-9-2-12-3"/>
	<path fill="none" stroke="#000000" stroke-miterlimit="10" d="M76.458,49.233c0,0,16,6,17,4s6-10,6-11s1-15,0-15c0,0-5-1-9,2
		s-7,4-8,4s0,9,4,11"/>
	<path fill="none" stroke="#000000" stroke-miterlimit="10" d="M99.458,9.233c0,0,19,20,19,27s-3,7-3,9s-3,3-6,4s-10,1-10,1"/>
	<path fill="none" stroke="#000000" stroke-miterlimit="10" d="M95.462,14.224c1.555-3.906,0.575-7.965-2.188-9.064
		s-6.264,1.176-7.819,5.082c-1.555,3.906-0.573,7.965,2.19,9.066c2.246,0.893,4.979-0.444,6.758-3.074
		C94.812,15.628,95.171,14.955,95.462,14.224z"/>
	<path fill="none" stroke="#000000" stroke-miterlimit="10" d="M100.458,27.233c0-3-3-4-5-5c0,0-2-5-1-7"/>
	<path fill="none" stroke="#000000" stroke-miterlimit="10" d="M87.458,20.233c0,0,0,7-3,12"/>
	<path fill="none" stroke="#000000" stroke-miterlimit="10" d="M96.458,13.233c0,0,7-5,0-10"/>
	<path fill="none" stroke="#000000" stroke-miterlimit="10" d="M96.458,5.233c0,0,1-5-4-4"/>
	<path fill="none" stroke="#000000" stroke-miterlimit="10" d="M92.458,3.233c0,0,0-4-6-2c-4,2-1,6-1,8"/>
	<path fill="none" stroke="#000000" stroke-miterlimit="10" d="M100.458,16.233c0,0,8,30,8,31"/>
	<line fill="none" stroke="#000000" stroke-miterlimit="10" x1="107.458" y1="27.233" x2="113.458" y2="40.233"/>
	<line fill="none" stroke="#000000" stroke-miterlimit="10" x1="110.458" y1="43.233" x2="111.458" y2="47.233"/>
	<line fill="none" stroke="#000000" stroke-miterlimit="10" x1="83.458" y1="40.233" x2="78.458" y2="42.233"/>
	<line fill="none" stroke="#000000" stroke-miterlimit="10" x1="85.458" y1="44.233" x2="80.458" y2="45.233"/>
	<path fill="none" stroke="#000000" stroke-miterlimit="10" d="M78.458,41.233c0,0,4-4,2-7s-5-9-6-7s-5-2-5,2s-5-1-6,1s-5,2-4,5
		s1,8,2,8s3,0,5,0s4-3,5,0s0,5,2,4s2-3,3-3S78.458,41.233,78.458,41.233z"/>
	<path fill="none" stroke="#000000" stroke-miterlimit="10" d="M62.458,44.233c0,0,2,2,1,5s-3,3-3,5s6-5,6-7c0,0,2,10-2,14s4-1,5-3"
		/>
	<path fill="none" stroke="#000000" stroke-miterlimit="10" d="M69.458,46.233c0,0,4,9,4,13s-4,1-4-1s0-5-1-8"/>
	<path fill="none" stroke="#000000" stroke-miterlimit="10" d="M73.458,52.233c0,0,5-1,1-7"/>
	<path fill="none" stroke="#000000" stroke-miterlimit="10" d="M64.458,34.233c0,0,2.414,2.586,1,4"/>
	<path fill="none" stroke="#000000" stroke-miterlimit="10" d="M72.458,29.233c0,0,1,4,4,2"/>
	<path fill="none" stroke="#000000" stroke-miterlimit="10" d="M67.458,32.233c0,0,3,3,5,0"/>
	<path fill="none" stroke="#000000" stroke-miterlimit="10" d="M72.458,36.233c0,0,3,3,1,5"/>
	<path fill="none" stroke="#000000" stroke-miterlimit="10" d="M68.458,35.233c0,0,2,4,1,5"/>
	<path fill="none" stroke="#000000" stroke-miterlimit="10" d="M77.458,33.233c0,0-2,1-1,3"/>
	<path fill="none" stroke="#000000" stroke-miterlimit="10" d="M78.458,35.233c0,0,0,5-3,4"/>
	<path fill="none" stroke="#000000" stroke-miterlimit="10" d="M61.458,34.233c0,0,0,2,2,3"/>
	<path fill="none" stroke="#000000" stroke-miterlimit="10" d="M63.458,39.233c0,0,1,2,3,1"/>
	<path fill="none" stroke="#000000" stroke-miterlimit="10" d="M100.458,52.233c0,0,0-2-4-3"/>
</g>
</svg>
