<?xml version="1.0" encoding="utf-8"?>
<!-- Generator: Adobe Illustrator 16.2.0, SVG Export Plug-In . SVG Version: 6.00 Build 0)  -->
<!DOCTYPE svg PUBLIC "-//W3C//DTD SVG 1.1//EN" "http://www.w3.org/Graphics/SVG/1.1/DTD/svg11.dtd">
<svg version="1.1" id="Layer_1" xmlns="http://www.w3.org/2000/svg" xmlns:xlink="http://www.w3.org/1999/xlink" x="0px" y="0px"
	 width="173px" height="124.75px" viewBox="0 0 173 124.75" enable-background="new 0 0 173 124.75" xml:space="preserve">
<g>
	<path fill="none" stroke="#231F20" stroke-miterlimit="10" d="M85.808,117.847c-31.07,0-56.266-25.197-56.266-56.268
		c0-31.082,25.195-56.266,56.266-56.266c31.066,0,56.262,25.184,56.262,56.266C142.069,92.649,116.874,117.847,85.808,117.847"/>
	<path fill="#FFFFFF" d="M142.163,67.847c-3.461,0-6.268-2.808-6.268-6.268c0-3.461,2.807-6.266,6.268-6.266
		c3.46,0,6.267,2.805,6.267,6.266C148.43,65.039,145.623,67.847,142.163,67.847"/>
	<path fill="none" stroke="#231F20" stroke-miterlimit="10" d="M142.163,67.847c-3.461,0-6.268-2.808-6.268-6.268
		c0-3.461,2.807-6.266,6.268-6.266c3.46,0,6.267,2.805,6.267,6.266C148.43,65.039,145.623,67.847,142.163,67.847"/>
	<path fill="#FFFFFF" d="M125.712,107.017c-3.461,0-6.268-2.807-6.268-6.27c0-3.459,2.807-6.266,6.268-6.266
		c3.459,0,6.267,2.807,6.267,6.266C131.979,104.21,129.171,107.017,125.712,107.017"/>
	<path fill="none" stroke="#231F20" stroke-miterlimit="10" d="M125.712,107.017c-3.461,0-6.268-2.807-6.268-6.27
		c0-3.459,2.807-6.266,6.268-6.266c3.459,0,6.267,2.807,6.267,6.266C131.979,104.21,129.171,107.017,125.712,107.017"/>
	<path fill="#FFFFFF" d="M86.542,123.468c-3.461,0-6.268-2.807-6.268-6.268c0-3.46,2.807-6.266,6.268-6.266
		c3.46,0,6.267,2.806,6.267,6.266C92.809,120.661,90.002,123.468,86.542,123.468"/>
	<path fill="none" stroke="#231F20" stroke-miterlimit="10" d="M86.542,123.468c-3.461,0-6.268-2.807-6.268-6.268
		c0-3.46,2.807-6.266,6.268-6.266c3.46,0,6.267,2.806,6.267,6.266C92.809,120.661,90.002,123.468,86.542,123.468"/>
	<path fill="#FFFFFF" d="M46.589,107.017c-3.462,0-6.268-2.807-6.268-6.27c0-3.459,2.806-6.266,6.268-6.266
		c3.459,0,6.267,2.807,6.267,6.266C52.855,104.21,50.048,107.017,46.589,107.017"/>
	<path fill="none" stroke="#231F20" stroke-miterlimit="10" d="M46.589,107.017c-3.462,0-6.268-2.807-6.268-6.27
		c0-3.459,2.806-6.266,6.268-6.266c3.459,0,6.267,2.807,6.267,6.266C52.855,104.21,50.048,107.017,46.589,107.017"/>
	<path fill="#FFFFFF" d="M30.921,67.847c-3.462,0-6.268-2.808-6.268-6.268c0-3.461,2.806-6.266,6.268-6.266
		c3.459,0,6.267,2.805,6.267,6.266C37.188,65.039,34.38,67.847,30.921,67.847"/>
	<path fill="none" stroke="#231F20" stroke-miterlimit="10" d="M30.921,67.847c-3.462,0-6.268-2.808-6.268-6.268
		c0-3.461,2.806-6.266,6.268-6.266c3.459,0,6.267,2.805,6.267,6.266C37.188,65.039,34.38,67.847,30.921,67.847"/>
	<path fill="#FFFFFF" d="M47.372,28.678c-3.461,0-6.268-2.807-6.268-6.269c0-3.461,2.807-6.266,6.268-6.266
		c3.46,0,6.267,2.805,6.267,6.266C53.639,25.871,50.832,28.678,47.372,28.678"/>
	<path fill="none" stroke="#231F20" stroke-miterlimit="10" d="M47.372,28.678c-3.461,0-6.268-2.807-6.268-6.269
		c0-3.461,2.807-6.266,6.268-6.266c3.46,0,6.267,2.805,6.267,6.266C53.639,25.871,50.832,28.678,47.372,28.678"/>
	<path fill="#FFFFFF" d="M86.542,13.032c-3.461,0-6.268-2.806-6.268-6.268c0-3.46,2.807-6.267,6.268-6.267
		c3.46,0,6.267,2.807,6.267,6.267C92.809,10.227,90.002,13.032,86.542,13.032"/>
	<path fill="none" stroke="#231F20" stroke-miterlimit="10" d="M86.542,13.032c-3.461,0-6.268-2.806-6.268-6.268
		c0-3.46,2.807-6.267,6.268-6.267c3.46,0,6.267,2.807,6.267,6.267C92.809,10.227,90.002,13.032,86.542,13.032"/>
	<path d="M125.712,28.678c-3.461,0-6.268-2.807-6.268-6.269c0-3.461,2.807-6.266,6.268-6.266c3.459,0,6.267,2.805,6.267,6.266
		C131.979,25.871,129.171,28.678,125.712,28.678"/>
</g>
</svg>
