<?xml version="1.0" encoding="utf-8"?>
<!-- Generator: Adobe Illustrator 16.2.0, SVG Export Plug-In . SVG Version: 6.00 Build 0)  -->
<!DOCTYPE svg PUBLIC "-//W3C//DTD SVG 1.1//EN" "http://www.w3.org/Graphics/SVG/1.1/DTD/svg11.dtd">
<svg version="1.1" id="Layer_1" xmlns="http://www.w3.org/2000/svg" xmlns:xlink="http://www.w3.org/1999/xlink" x="0px" y="0px"
	 width="173px" height="167.75px" viewBox="0 0 173 167.75" enable-background="new 0 0 173 167.75" xml:space="preserve">
<g>
	<path fill="none" stroke="#000000" stroke-miterlimit="10" d="M144.393,28.55c-0.054-0.102-0.128-0.178-0.21-0.239
		c-0.039-0.05-0.08-0.097-0.121-0.144c-0.105-0.436-0.501-0.648-0.896-0.641c-0.299-0.111-0.629-0.125-0.938-0.198
		c-0.451-0.104-1.012,0.134-1.109,0.628c-0.109,0.555-0.221,1.15-0.012,1.693c0.265,0.688,0.833,1.125,1.427,1.529
		c0.497,0.338,1.163-0.014,1.324-0.537c0.078-0.258,0.124-0.521,0.158-0.785c0.044-0.039,0.085-0.082,0.12-0.131
		C144.515,29.466,144.602,28.944,144.393,28.55"/>
	<path fill="none" stroke="#000000" stroke-miterlimit="10" d="M74.026,166.233c3,0,3.394,1.325,10-24c6-23,20-22,32-23
		c0,0,34-2,34-37s-8-43,10-47c-6-12-15-22-24-22c-19,0-13,45-29,45c-8,0-7-5-8-18s-3-28-35-28s-51-7-52-11s-1,15,13,26
		c-3,2-2,7,5,11c-7,1,4,8,13,13c0,0-19,2,12,13c0,0-15,8,18,9c-10,5-2,7,6,7c7,3,2,16-13,32c-8,8-10,5-18,8s-19,3-21,10c1,3,5,1,8,2
		s-6,7-4,8s10-1,11,1s-4,10-2,11s7-3,9-2s-3,9,0,11s9-7,12-6s0,7,3,8s5-6,7-5S71.026,166.233,74.026,166.233z"/>
</g>
</svg>
