<?xml version="1.0" encoding="utf-8"?>
<!-- Generator: Adobe Illustrator 16.2.0, SVG Export Plug-In . SVG Version: 6.00 Build 0)  -->
<!DOCTYPE svg PUBLIC "-//W3C//DTD SVG 1.1//EN" "http://www.w3.org/Graphics/SVG/1.1/DTD/svg11.dtd">
<svg version="1.1" id="Layer_1" xmlns="http://www.w3.org/2000/svg" xmlns:xlink="http://www.w3.org/1999/xlink" x="0px" y="0px"
	 width="173px" height="173.75px" viewBox="0 0 173 173.75" enable-background="new 0 0 173 173.75" xml:space="preserve">
<g>
	<path fill="none" stroke="#000000" stroke-miterlimit="10" d="M65.026,173.233c0,0-15-29-8-54c0,0,5-10,6-19s-7-17-9-23
		c-3,6-7,10-14,13c0,5,0,17-5,23s10,27-1,19c-3,11-10,9-11-6c0,0,3-13-1-19s-4-26,1-30s1-43,28-44c3-6,15-14,22-11"/>
	<path fill="none" stroke="#000000" stroke-miterlimit="10" d="M110.026,173.233c0,0,15-31.113,8-57.938c0,0-5-10.73-6-20.383
		c-1-9.659,7-18.24,9-24.68"/>
	<path fill="none" stroke="#000000" stroke-miterlimit="10" d="M96.026,19.233c0,0,19-4,23,9c7-2,21,7,21,17c5,4,11,7,12,28
		c6,12,8,12,1,36c0,12,2,18-10,22c0,0-5,0-3-9c0-6-4,5-5-2c3-8,4-9,8-11c0-3-9-23-5-29c-8-1-18-8-19-14"/>
	<path fill="none" stroke="#000000" stroke-miterlimit="10" d="M73.026,10.233c0,0-4,22,12,29c12-1,13-19,10-27
		c-1.867-4.977-6.381-11.117-12-11C79.617,1.306,74.537,3.436,73.026,10.233z"/>
	<path fill="none" stroke="#000000" stroke-miterlimit="10" d="M83.026,170.233c0,0,0-13,6-23c4,9,6,19,7,24"/>
</g>
</svg>
