<?xml version="1.0" encoding="utf-8"?>
<!-- Generator: Adobe Illustrator 16.2.0, SVG Export Plug-In . SVG Version: 6.00 Build 0)  -->
<!DOCTYPE svg PUBLIC "-//W3C//DTD SVG 1.1//EN" "http://www.w3.org/Graphics/SVG/1.1/DTD/svg11.dtd">
<svg version="1.1" id="Layer_1" xmlns="http://www.w3.org/2000/svg" xmlns:xlink="http://www.w3.org/1999/xlink" x="0px" y="0px"
	 width="173px" height="149.75px" viewBox="0 0 173 149.75" enable-background="new 0 0 173 149.75" xml:space="preserve">
<g>
	<path fill="none" stroke="#231F20" stroke-miterlimit="10" d="M87.574,26.125c-3-2-17-3-18-8s26,7,18,3s-15-7-12-9s22,10,19,7
		s-15-10-6-9s39,26,39,26c-3-2,34.913,37.856,38,43c3,5,6,6,4,13c-3,12-49,33-61,34s-18,6-18,6s-3,10-2,18"/>
	<path fill="none" stroke="#231F20" stroke-miterlimit="10" d="M90.574,31.125c0,0-7-5-16-4s-7-6-1-5"/>
	<path fill="none" stroke="#231F20" stroke-miterlimit="10" d="M93.574,35.125c0,0-4-5-5-5"/>
	<path fill="none" stroke="#231F20" stroke-miterlimit="10" d="M65.574,68.125c0,0-14,16,1,26l2,1c6,1,23,1,28,0
		c3.922-0.784,35-2,44-8c-1-10-28-47-30-46s-6,4-9,2s-20-9-20-9c-3-6,3-5,3-5"/>
	<path fill="none" stroke="#231F20" stroke-miterlimit="10" d="M36.574,46.125c0,0,1,22,31,22c6,1,10-24,9-28s4-8,0-13"/>
	<path fill="none" stroke="#231F20" stroke-miterlimit="10" d="M74.574,16.125c0,0-2-8-10-7c-2-2-3-12-22-5s-30,26-40,40"/>
	<path fill="none" stroke="#231F20" stroke-miterlimit="10" d="M70.574,16.125c0,0-3-5-10-6s-13,1-14,7s1,10-7,14c2,10-2,9-4,10"/>
	<path fill="none" stroke="#231F20" stroke-miterlimit="10" d="M34.574,38.125c0,0-2-6-6-4s-5,15,6,18"/>
	<path fill="none" stroke="#231F20" stroke-miterlimit="10" d="M31.574,52.125c0,0,1,23-8,32s-18,9-21,10"/>
	<path fill="none" stroke="#231F20" stroke-miterlimit="10" d="M11.574,93.125c0,0,35,7,52,0"/>
	<path fill="none" stroke="#231F20" stroke-miterlimit="10" d="M97.574,95.125c0,0-10,16-7,37"/>
	<line fill="none" stroke="#231F20" stroke-miterlimit="10" x1="68.574" y1="44.125" x2="71.574" y2="44.125"/>
	<path fill="none" stroke="#231F20" stroke-miterlimit="10" d="M66.574,28.125c0,0-6-4-13,0"/>
	<path fill="none" stroke="#231F20" stroke-miterlimit="10" d="M72.574,30.125c0,0,4-2,5,1"/>
	<path fill="none" stroke="#231F20" stroke-miterlimit="10" d="M63.574,34.125c0,0-3-3-7-2"/>
	<path fill="none" stroke="#231F20" stroke-miterlimit="10" d="M71.574,36.125c0,0,4-2,5,1"/>
	<path fill="none" stroke="#231F20" stroke-miterlimit="10" d="M63.574,51.125c0,0,9,3,10,1"/>
</g>
</svg>
