<?xml version="1.0" encoding="utf-8"?>
<!-- Generator: Adobe Illustrator 16.2.0, SVG Export Plug-In . SVG Version: 6.00 Build 0)  -->
<!DOCTYPE svg PUBLIC "-//W3C//DTD SVG 1.1//EN" "http://www.w3.org/Graphics/SVG/1.1/DTD/svg11.dtd">
<svg version="1.1" id="Layer_1" xmlns="http://www.w3.org/2000/svg" xmlns:xlink="http://www.w3.org/1999/xlink" x="0px" y="0px"
	 width="173px" height="155.75px" viewBox="0 0 173 155.75" enable-background="new 0 0 173 155.75" xml:space="preserve">
<g>
	<g>
		<path fill="none" stroke="#231F20" stroke-miterlimit="10" d="M62.526,41.983c0,0.825-1.8,1.5-4,1.5h-49c-2.2,0-4-0.675-4-1.5
			s1.8-1.5,4-1.5h49C60.727,40.483,62.526,41.158,62.526,41.983z"/>
	</g>
	<g>
		<path fill="none" stroke="#231F20" stroke-miterlimit="10" d="M60.526,44.983c0,0.825-1.8,1.5-4,1.5h-45c-2.2,0-4-0.675-4-1.5
			s1.8-1.5,4-1.5h45C58.727,43.483,60.526,44.158,60.526,44.983z"/>
	</g>
	<path fill="none" stroke="#231F20" stroke-miterlimit="10" d="M19.026,148.983c-4.891-3.813-18.25-17.68-18.25-49
		c0-41,8.75-53.5,8.75-53.5h49c0,0,7.328,12.502,7.328,53.501s-18.328,48.499-18.328,48.499"/>
	<path fill="none" stroke="#231F20" stroke-miterlimit="10" d="M18.526,148.733c0,1.52,6.604,2.75,14.75,2.75s14.75-1.23,14.75-2.75
		"/>
	<path fill="none" stroke="#231F20" stroke-miterlimit="10" d="M3.026,71.983c0,0,1,4,12,1s25-2,33,0s16,0,16,0"/>
	<path fill="none" stroke="#231F20" stroke-miterlimit="10" d="M19.026,110.983c0,0,10-15,34-10c6,3,2,9-4,11s-13,8-30,1
		C18.026,111.983,19.026,110.983,19.026,110.983z"/>
	<path fill="none" stroke="#231F20" stroke-miterlimit="10" d="M19.026,107.983c0,0-9.25-2.875-10-1s7,4,7,7s-3,14,3,6s4-5,4-5"/>
	<path fill="none" stroke="#231F20" stroke-miterlimit="10" d="M29.026,116.983c0,0,1,3,2,3s5-2,7-4"/>
	<path fill="none" stroke="#231F20" stroke-miterlimit="10" d="M45.026,98.983c0,0-5.875-4-15-1c-1,1-3,4-1,4"/>
	<path fill="none" stroke="#231F20" stroke-miterlimit="10" d="M45.026,99.983c0,0-2,9,3,12"/>
	<rect x="49.026" y="102.983" fill="none" stroke="#231F20" stroke-miterlimit="10" width="2" height="2"/>
	<path fill="none" stroke="#231F20" stroke-miterlimit="10" d="M83.026,3.983c0,0-9-9-23,3s-23,19-23,19s-21,10-21,11s-2,1,11,7
		c6,7,12,14,16,16c5,1,9-6,8-10s9-13,11-14c0,0,1,0,2,1"/>
	<path fill="none" stroke="#231F20" stroke-miterlimit="10" d="M59.026,38.983c0,0,1,6-2,12s-4,12-6,14s-6,14-6,17s-4,9-6,9
		s-7-3,0-8c3-1,4-13,5-18s1-5,1-5"/>
	<path fill="none" stroke="#231F20" stroke-miterlimit="10" d="M69.026,8.983c0,0,16-7,27-5c8,2,0,13-3,16s-21,20-22,20
		c-1,1-7,6-7-1s3-5,8-8s7-9,7-9"/>
	<path fill="none" stroke="#231F20" stroke-miterlimit="10" d="M62.026,25.983c0,0,3,6,8,5"/>
	
		<ellipse transform="matrix(0.9284 -0.3716 0.3716 0.9284 -15.4224 17.266)" fill="none" stroke="#231F20" stroke-miterlimit="10" cx="37.095" cy="48.655" rx="1.036" ry="2.499"/>
	<path fill="none" stroke="#231F20" stroke-miterlimit="10" d="M74.026,37.983c0,0,23,17,24,21c2,3,9,11,9,14s3,23,4,30s6,16,5,23
		s-1,12-4,13c0,0-4-2-5,1s1,5,4,5s7,0,8-6"/>
	<path fill="none" stroke="#231F20" stroke-miterlimit="10" d="M112.026,83.983c0,0,1,22,6,33s3,21-2,29c-1,2-3,2-5,2s-3,2-3,4
		c-1,1,2,3,4,3c0,0,6,3,9-6s7-16,7-16s2-7-1-19s2-22,4-26s2-14,8-12s29,35,33,27c2-4-1-2-5-5s-18-23-22-26s-18-15-19-24
		c-4-13-28-35-28-35"/>
</g>
</svg>
